<svg xmlns="http://www.w3.org/2000/svg" width="109" height="109" class="kan-g"><g class="kgPaths" fill="none" stroke="#000" stroke-width="3" stroke-linecap="round" stroke-linejoin="round"><path d="M55.14 35.01c-16.18 0-21.35 9.1-21.35 15.9 0 6.8 4.3 16.62 21.64 16.62 15.46 0 20.88-8.38 20.88-15.17 0-6.79-4.84-17.37-21.12-17.37M82.45 34.72c-5.49-1.45-8.38.43-11.17 3.9M40.36 65.64c-3.72 2.31-7.39 13.03 4.91 14.16 9.39.87 15.49 1.3 23.01 1.85 10.12.75 11.57 8.84 11.57 12.32 0 4.48-3.9 14.44-23.27 14.44S31 101.91 31 94.01c0-7.66 4.34-11.47 9.49-14.46"/></g><g class="kgNumbers" font-size="8" fill="gray"><text transform="translate(49.73 31.4)">1</text><text transform="translate(80 30.44)">2</text><text transform="translate(29.57 69.45)">3</text></g></svg>