<svg xmlns="http://www.w3.org/2000/svg" width="109" height="109" class="kan-g"><g class="kgPaths" fill="none" stroke="currentColor" stroke-width="3" stroke-linecap="round" stroke-linejoin="round"><path d="M27.74 40.79c1.1 1.2 1.61 3.3 1.2 5-2.3 9.4-3.2 17.79-1.7 27.99 2.22 15.08.9 3.1 2.6-1.2 7.19-18.19 21.79-27.59 35.49-27.59 13.5 0 17.49 9.1 17.49 16.2 0 21.89-24.69 23.69-34.39 13.4"/><path d="M57.63 33.89c2.1 1.4 2.53 2.5 2.8 5.7.7 8.4 1.12 14.97 1.3 23.49.4 19.19-5 25.59-9.9 31.39"/></g><g class="kgNumbers" font-size="8" fill="gray"><text transform="translate(19.42 39.63)">1</text><text transform="translate(48.8 32.5)">2</text></g></svg>