<svg xmlns="http://www.w3.org/2000/svg" width="109" height="109" viewBox="0 0 109 109" class="kan-g"><g class="kgPaths" fill="none" stroke="currentColor" stroke-width="3" stroke-linecap="round" stroke-linejoin="round"><path d="M42 16.25c5.62 2.12 9.62 3 12.88 3 8.27 0 8 1.12-.38 5.5M33 43.12c2.12 1.12 4.12 2.88 8.5 1.38s12.75-7.12 18.5-7c5.75.12 10.25 5 10.25 18 0 15.5-8.25 30.25-24.38 41.25M69.74 17.75c2.75 1.75 6 5.38 7.75 8.5M76.12 12.88c3.06 1.57 6.68 4.82 8.62 7.62"/></g><g class="kgNumbers" font-size="8" fill="gray"><text transform="translate(33.5 14.88)">1</text><text transform="translate(28.75 40.38)">2</text><text transform="translate(63.37 15.88)">3</text><text transform="translate(69.37 11.88)">4</text></g></svg>