<svg xmlns="http://www.w3.org/2000/svg" width="109" height="109" viewBox="0 0 109 109" class="kan-g"><g class="kgPaths" fill="none" stroke="currentColor" stroke-width="3" stroke-linecap="round" stroke-linejoin="round"><path d="M31.87 35.68c2.32.71 5.14.66 7.48.29 8.57-1.35 22.4-2.85 33.66-3.85 2.26-.2 4.52-.19 6.77.22M53.34 38.13c1 1.12 1.31 3 1.25 4.62-.18 4.74-.51 12.89-.83 22.25-.08 2.31-.16 4.7-.23 7.12M19 75.46c3.41.94 7.57.88 11.01.39 17.78-2.48 34.53-3.86 50.55-3.9 3.34-.01 7.23.42 10.46 1.8"/></g><g class="kgNumbers" font-size="8" fill="gray"><text transform="translate(25.41 32.63)">1</text><text transform="translate(45.66 44.13)">2</text><text transform="translate(14.16 69.5)">3</text></g></svg>