<svg xmlns="http://www.w3.org/2000/svg" width="109" height="109" viewBox="0 0 109 109" class="kan-g"><g class="kgPaths" fill="none" stroke="currentColor" stroke-width="3" stroke-linecap="round" stroke-linejoin="round"><path d="M70 15.25c-.38 2.62-2.26 4.37-4.12 5.38-7.88 4.25-18.62 9.75-35.5 13.25M18.5 51.5c2.88.88 4.39 1.65 7.88 1.25 22-2.5 36.38-4.25 56.12-4.88 4.88-.15 7.88.51 10.88 1.51"/><path d="M54.88 30.75c.88.75 1.75 2.49 1.75 4.75 0 6.03.03 11.25.03 18.27 0 14.98-5.03 29.48-16.53 39.23M79.88 25.73c2.85 1.78 6.21 5.47 8.03 8.65M86.63 21.12c2.93 1.57 6.39 4.83 8.25 7.63"/></g><g class="kgNumbers" font-size="8" fill="gray"><text transform="translate(61.76 12.63)">1</text><text transform="translate(13.63 46.75)">2</text><text transform="translate(47.76 37.63)">3</text><text transform="translate(73.76 23.38)">4</text><text transform="translate(79.63 18.5)">5</text></g></svg>