<svg xmlns="http://www.w3.org/2000/svg" width="109" height="109" class="kan-g"><g class="kgPaths" fill="none" stroke="#000" stroke-width="3" stroke-linecap="round" stroke-linejoin="round"><path d="M17.661 34.478c-.137 3.716-3.542 13.982-4.743 16.193M18.588 36.362c27.958-2.41 42.4-3.716 69.43-4.916 17.62-.78 4.88 6.327-.82 10.18M36.862 41.585c.106.579.106 1.484-.198 2.326-2.751 7.434-6.294 13.109-18.06 20.31"/><path d="M61.55 38.163c1.43.99 2.266 2.41 2.266 4.127 0 2.295.015 6.612.015 8.244 0 5.138 1.52 6.054 11.782 6.054 7.221 0 12.542 0 15.598-1.443"/></g><g class="kgNumbers" font-size="8" fill="gray"><text transform="translate(8.74 39.81)">1</text><text transform="translate(26.02 31.24)">2</text><text transform="translate(39.95 45.89)">3</text><text transform="translate(55.95 47.68)">4</text></g></svg>