<svg xmlns="http://www.w3.org/2000/svg" width="109" height="109" viewBox="0 0 109 109" class="kan-g"><g class="kgPaths" fill="none" stroke="currentColor" stroke-width="3" stroke-linecap="round" stroke-linejoin="round"><path d="M12.75 51.7c1.52.54 4.31.68 5.82.54 11.18-.99 53.93-5.49 72.11-5.73 2.53-.03 4.05.26 5.31.53"/><path d="M27.75 15.25c1.25.5 2 2.25 2.25 3.25.16.65.02 70.25-.25 77M52.75 15.25c1.25.5 2 2.25 2.25 3.25s0 66.75-.25 73M77.75 12.75c1.25.5 2 2.25 2.25 3.25s0 71.25-.25 77.5M30.5 93.75c7-.75 43.17-3.8 48.96-3.36"/></g><g class="kgNumbers" font-size="8" fill="gray"><text transform="translate(5.25 52.88)">1</text><text transform="translate(19.5 16.5)">2</text><text transform="translate(42.75 16.5)">3</text><text transform="translate(70 15.4)">4</text><text transform="translate(34.5 89.5)">5</text></g></svg>