<svg xmlns="http://www.w3.org/2000/svg" width="109" height="109" viewBox="0 0 109 109" class="kan-g"><g class="kgPaths" fill="none" stroke="currentColor" stroke-width="3" stroke-linecap="round" stroke-linejoin="round"><path d="M19.27 28.83c.98.92 1.67 1.99 1.76 5.02.15 5.47-.27 15.4-.9 26.4-.14 2.15.73 3.11 2.87 2.75 7.5-1.25 18.28-2.5 21-2.75"/><path d="M42.54 16.75c1.21 1.75 1.81 4.16 1.81 7.08 0 48.67 1.9 62.67-22.3 78.64M88.77 19.33c.98.92 1.76 1.99 1.76 5.02 0 8.4.1 25.15.1 36.4"/><path d="M66.75 59.5c3.25 0 19.75-2 24-2.5M64.27 11.33c.98.92 1.67 1.99 1.76 5.02.15 5.47.1 68.65.1 83.4"/></g><g class="kgNumbers" font-size="8" fill="gray"><text transform="translate(10.5 29.5)">1</text><text transform="translate(33.5 16.5)">2</text><text transform="translate(80.5 17.5)">3</text><text transform="translate(71.5 55.5)">4</text><text transform="translate(58.5 8.5)">5</text></g></svg>