<svg xmlns="http://www.w3.org/2000/svg" width="109" height="109" viewBox="0 0 109 109" class="kan-g"><g class="kgPaths" fill="none" stroke="currentColor" stroke-width="3" stroke-linecap="round" stroke-linejoin="round"><path d="M24.5 37.4c1.02.37 2.89.47 3.9.37 10.6-1.02 45.1-4.27 55.53-4.76 1.7-.08 2.72.18 3.57.36M16.25 63.7c1.52.54 4.3.58 5.82.54C33 64 72.76 59.92 87.69 59.01c4.31-.26 6.06-.01 7.81.53"/><path d="M38.98 19.25c.76.97 1.27 1.94 1.52 2.91.25.97.25 30.53.25 32.71 0 21.56-7.85 36.1-19.5 42.88M67.37 11.75c1.09.5 1.74 2.25 1.96 3.25.22 1 0 78.75-.22 85M50 43.5c3 1.76 7.75 7.26 8.5 10"/></g><g class="kgNumbers" font-size="8" fill="gray"><text transform="translate(17.5 38.5)">1</text><text transform="translate(8.5 64.5)">2</text><text transform="translate(30.5 19.5)">3</text><text transform="translate(57.5 12.5)">4</text><text transform="translate(45.5 51.5)">5</text></g></svg>