<svg xmlns="http://www.w3.org/2000/svg" width="109" height="109" viewBox="0 0 109 109" class="kan-g"><g class="kgPaths" fill="none" stroke="currentColor" stroke-width="3" stroke-linecap="round" stroke-linejoin="round"><path d="M48.15 24.18c.6 1.32.75 3.4.3 5.55-3.31 15.97-11.2 39.02-35.31 56.17"/><path d="M29.75 21c3.21 1.38 6.92.67 10.25.34 12.1-1.19 26.2-2.61 37.61-4.12 4.03-.54 6.86.6 4.79 4.85-16.15 33.18-21.52 27.68 5.36 22.73 4.26-.78 4.9 1.32 3.77 4.96C88.08 60.95 82.68 77 74.85 87.2c-4.01 5.23-9.32 8.85-13.35 1.8"/></g><g class="kgNumbers" font-size="8" fill="gray"><text transform="translate(40.25 32.25)">1</text><text transform="translate(33.5 17.88)">2</text></g></svg>