<svg xmlns="http://www.w3.org/2000/svg" width="109" height="109" viewBox="0 0 109 109" class="kan-g"><g class="kgPaths" fill="none" stroke="currentColor" stroke-width="3" stroke-linecap="round" stroke-linejoin="round"><path d="M27.2 17.25c.61.36 2.01 2.69 2.01 3.42 0 7.55.25 42.97.25 52.65"/><path d="M12.79 43.51c.67.4 1.39 2.07 1.33 2.88-.37 5.52.13 20.56-1.2 28.86-.29 1.8.19 2.22 1.82 1.81 9.26-2.31 18.51-4.31 29.76-6.61M45.22 38.66c.67.4 1.33 2.96 1.33 3.76 0 6.21-.8 22.07-1.92 32.81M64.49 13.87c.62 1.19 1.12 2.59 1.15 4.43.17 8.19-.44 60.14-.44 65.7 0 13 7.48 11.53 14.83 11.53 7.76 0 12.88-1.68 13.97-2.62 2.31-2 1.68-3 1.89-6.5"/></g><g class="kgNumbers" font-size="8" fill="gray"><text transform="translate(17.85 16.5)">1</text><text transform="translate(3.5 42.5)">2</text><text transform="translate(36.5 38.5)">3</text><text transform="translate(54.5 13.5)">4</text></g></svg>