<svg xmlns="http://www.w3.org/2000/svg" width="109" height="109" class="kan-g"><g class="kgPaths" fill="none" stroke="currentColor" stroke-width="3" stroke-linecap="round" stroke-linejoin="round"><path d="M22.51 18.78c1.09.39 3.09.45 4.18.39 7.56-.42 44.99-4.48 55.36-4.48 1.82 0 2.91.19 3.82.38M12.75 46.99c1.63.57 4.61.64 6.23.57C32.5 47 75 42.5 92.56 42.56c2.71.01 4.33.27 5.69.56"/><path d="M53.58 19.33c.67.89 1.91 2.92 1.98 5.88.31 14.24-.2 60.51-.2 65.36 0 10.26-6.92.2-7.8-.73"/></g><g class="kgNumbers" font-size="8" fill="gray"><text transform="translate(15.25 18.5)">1</text><text transform="translate(4.5 47.5)">2</text><text transform="translate(46.5 27.5)">3</text></g></svg>