<svg xmlns="http://www.w3.org/2000/svg" width="109" height="109" viewBox="0 0 109 109" class="kan-g"><g fill="none" stroke="currentColor" stroke-width="3" stroke-linecap="round" stroke-linejoin="round"><path d="M36.65 35.49c4.5-.52 9.32-3.06 13.74-3.58 1.1-.13 1.38-.17 2.06 0"/><path d="M34.77 13.48c1.06.36 1.7 1.64 1.91 2.37.21.73-.08 35.66-.08 43.49M19.8 32.51c1.16.41 2.08 1.82 2.08 2.65 0 4.49.3 24.29.3 30.2"/><path d="M15.35 66.89c.43.86 2.39.96 3.53.64 6.18-1.72 24.26-11.06 33.91-15.95M88.54 21.19c-.04 1.06-.69 2.3-1.18 2.81-3.22 3.3-13.27 11.4-23.68 14.78"/><path d="M60.46 11.75c1.06.78 1.13 1.31 1.48 2.35.35 1.05.11 32.11.11 39.24 0 7.13 8.61 7.98 15.94 7.98 14.41 0 14.16-2.49 14.16-7.48M31.75 76.17c.92.35 2.61.4 3.53.35 9.2-.49 28.75-3.53 39.44-3.52 1.53 0 2.46.17 3.22.34M17.75 95.29c1.43.47 4.05.47 5.47.47 13.62 0 52.41-4.98 66.28-4.97 2.38 0 3.81.22 5 .46"/></g><g font-size="8" fill="gray"><text transform="translate(41.25 30.5)">1</text><text transform="translate(25.5 13.5)">2</text><text transform="translate(11.5 33.5)">3</text><text transform="translate(7.25 67.4)">4</text><text transform="translate(79.5 20.5)">5</text><text transform="translate(52.5 9.5)">6</text><text transform="translate(25.5 77.5)">7</text><text transform="translate(10.5 96.5)">8</text></g></svg>