<svg xmlns="http://www.w3.org/2000/svg" width="109" height="109" viewBox="0 0 109 109" class="kan-g"><g class="kgPaths" fill="none" stroke="currentColor" stroke-width="3" stroke-linecap="round" stroke-linejoin="round"><path d="M29.25 23.2c3.43.48 6.61.59 10 .06 8.9-1.4 18.6-2.01 28.76-2.88 3.15-.37 6.31-.14 9.49.2M15 47.97c4.14.62 8.28 1.04 12.38.51 17.24-2.23 38.6-3.32 54.1-4.25 4.17-.33 8.34.03 12.51.59M50.15 50.62c.49 2.19-.38 3.73-1.72 5.7-8.55 12.56-13.95 18.11-22.53 28.57-3.38 4.12-2.64 4.83 1.97 3.81 15.01-3.33 33.08-7.03 49.26-10.59M72.25 67.75c5.86 4.2 14.34 17.18 15.81 23.72"/></g><g class="kgNumbers" font-size="8" fill="gray"><text transform="translate(22.5 22.5)">1</text><text transform="translate(8.25 47.5)">2</text><text transform="translate(38.5 58.5)">3</text><text transform="translate(65.25 61.63)">4</text></g></svg>