<svg xmlns="http://www.w3.org/2000/svg" width="109" height="109" viewBox="0 0 109 109" class="kan-g"><g class="kgPaths" fill="none" stroke="currentColor" stroke-width="3" stroke-linecap="round" stroke-linejoin="round"><path d="M52.08 10.5c1.09 1.09 1.49 2.5 1.49 4.05 0 3.27-.07 4.63-.07 7.95M24.03 25.28c3.34.85 6.28.56 9.35.14 11.33-1.53 29.85-2.84 41.37-3.5 2.87-.17 6.47-.27 9.22.73M35.12 34.48c.76.6 1.18 1.4 1.27 2.4.65 2.93 1.35 5.87 1.93 8.62.31 1.47.58 2.89.79 4.23M36.99 36.35c8.76-1.73 21.76-3.1 29.26-3.86 2.9-.29 4.78.03 3.83 3.41-.73 2.63-1.63 5.21-3.11 9.1M39.9 48.02c3.45-.32 15.57-1.47 23.47-2.17 2.28-.2 4.21-.36 5.48-.46M19.23 55.24c-.15 3.79-3.71 13.7-4.98 15.96M19.48 59.19c14.89-1.19 39.27-3.94 65.89-4.65 11.72-.31 3.7 5.34-.67 8.99M42.99 65.5c.15 1.62-.03 3.11-.55 4.65-2.57 7.55-11.98 22.47-26.02 30.02M58.49 63.37c1.01 1.01 1.01 2.45 1.05 4.19.19 7.75 0 14.53 0 19.8 0 8.31 1.6 10.92 15.23 10.92 13.11 0 14.91-2.06 15.38-8.64"/></g><g class="kgNumbers" font-size="8" fill="gray"><text transform="translate(42.25 10.38)">1</text><text transform="translate(17 24.3)">2</text><text transform="translate(28.25 41.25)">3</text><text transform="translate(38.25 33.25)">4</text><text transform="translate(42.25 45.25)">5</text><text transform="translate(12.25 58.25)">6</text><text transform="translate(23.25 56.25)">7</text><text transform="translate(34 68.25)">8</text><text transform="translate(51.25 69.25)">9</text></g></svg>