<svg xmlns="http://www.w3.org/2000/svg" width="109" height="109" class="kan-g"><g fill="none" stroke="#000" stroke-width="3" stroke-linecap="round" stroke-linejoin="round"><path d="M45.87 13.36c5.42 3.79 10.96 10.52 13.34 16.28M12.63 39.92c1.6.11 5.25.78 6.81.62 12.58-1.3 56.25-5.64 72.22-5.97 2.64-.06 3.99.05 5.95.79M29.75 43.5c1 1 1.5 3.86 1.5 5.25v28.71c0 5.2.63 11 11.85 11.76 12.16.82 32.4-.17 35.15-.27 4.76-.18 8.82-.73 11.25-1.37"/></g><g font-size="8" fill="gray"><text transform="translate(40.5 12.63)">1</text><text transform="translate(5.5 39.5)">2</text><text transform="translate(23 52.63)">3</text></g></svg>