<svg xmlns="http://www.w3.org/2000/svg" width="109" height="109" class="kan-g"><g fill="none" stroke="currentColor" stroke-width="3" stroke-linecap="round" stroke-linejoin="round"><path d="M47.68 10.42c3.31 1.47 8.77 7.31 8.77 10.37M16.75 30c2 .5 4.65.57 6.02.39 12.73-1.64 50.48-6.89 63.73-7.31 2.34-.07 3.53-.04 5.26.56M30.3 41.32c.65.39 1.98 2.17 2.12 2.7 1 3.82 1.86 11.74 3.33 18.98M32.47 43.11c9.91-1.49 31.55-4.5 38.28-5.11 2.79-.25 5.37 2.08 4.25 5-1.25 3.25-2.75 7.25-4.5 11.75M36.21 61.03C45 59.25 61 57.5 72.75 56M53.27 64.83c.09.48 1.11 2.49 1.26 5.52.23 4.9-.26 17.4-.26 21.62 0 9.03-7.21.5-8.71-.75M31 73c.04.43.08 1.11-.08 1.73-.92 3.64-6.2 11.63-13.43 16.52M76 73c4.94 3.09 11.76 11.7 13 16.5"/></g><g font-size="8" fill="gray"><text transform="translate(41.5 10.5)">1</text><text transform="translate(8.25 30.13)">2</text><text transform="translate(24.75 51.13)">3</text><text transform="translate(32.25 39.13)">4</text><text transform="translate(39.75 57.13)">5</text><text transform="translate(45.75 73.63)">6</text><text transform="translate(23.25 70.63)">7</text><text transform="translate(74.25 69.13)">8</text></g></svg>