<svg xmlns="http://www.w3.org/2000/svg" width="109" height="109" class="kan-g"><g fill="none" stroke="currentColor" stroke-width="3" stroke-linecap="round" stroke-linejoin="round"><path d="M48.65 14.49c3.39 1.42 7.54 6.11 8.97 9.71M16 32.89c1.36.1 4.47.66 5.79.53 10.7-1.1 50.39-5.17 65.64-5.93 2.24-.11 3.39.04 5.06.67M48.98 33.12c.48 1.23-.08 3.27-1.24 4.47-3.98 4.16-6.98 7.16-12.31 10.94-.94.67-.95 2.83 0 3.07 5.06 1.23 11.6 3.27 15.93 5.52"/><path d="M66.98 39.75c.11.82.5 2.43-.21 3.29C57.5 54.25 46.75 64.25 27 74.54M70.93 56.75c.14.94.64 2.78-.27 3.76-11.86 12.82-27.4 26.99-50.9 36.03M57.02 76.33c10.25 3.38 26.48 13.88 29.04 19.13"/></g><g font-size="8" fill="gray"><text transform="translate(43.25 13.25)">1</text><text transform="translate(8.25 32.25)">2</text><text transform="translate(36.25 41.25)">3</text><text transform="translate(59.25 43.25)">4</text><text transform="translate(63.25 59.25)">5</text><text transform="translate(68.25 78.25)">6</text></g></svg>