<svg xmlns="http://www.w3.org/2000/svg" width="109" height="109" class="kan-g"><g fill="none" stroke="currentColor" stroke-width="3" stroke-linecap="round" stroke-linejoin="round"><path d="M49.98 7.75c2.17.92 4.82 3.5 5.75 6.28M20.25 21.86c2 .39 3.76.83 6.06.55C40 20.75 67.5 18 83.45 17.2c2.35-.12 3.55.05 5.3.7M34.64 31.18c.38.28.77.52.94.88 1.33 2.82 2.91 11.09 3.82 16.16M37.02 32.15c9.36-1.18 30.03-2.73 34.86-3.13 1.77-.15 2.83 1.47 2.57 2.33-1.05 3.55-2.24 6.11-4.48 11.22M39.78 45.85c5.67-.45 24.76-2.39 31.96-2.84M26.78 58.54c1.36.34 3.92.89 5.97.58 2.49-.37 37.97-5.95 40.34-5.95 2.38 0 4.37 2.41 1.66 4.01C70 60 59.16 66.84 53.49 71.11M50.98 70.5c6.52 4.75 8.52 15.75 5.56 26.7-1.46 5.39-6.18 1.09-7.62.55"/></g><g font-size="8" fill="gray"><text transform="translate(44.25 8.25)">1</text><text transform="translate(12.25 22.25)">2</text><text transform="translate(29.25 39.25)">3</text><text transform="translate(40.25 29.15)">4</text><text transform="translate(43.25 42.25)">5</text><text transform="translate(19.25 59)">6</text><text transform="translate(44.25 74.25)">7</text></g></svg>