<svg xmlns="http://www.w3.org/2000/svg" width="109" height="109" class="kan-g"><g fill="none" stroke="#000" stroke-width="3" stroke-linecap="round" stroke-linejoin="round"><path d="M49.16 9.11c2.83 1.89 5.9 4.89 7.17 7.53M22 24.08c1.22.09 4 .59 5.19.47 9.58-.99 42.62-5.06 54.78-5.31 2.01-.04 3.04.04 4.53.6M36.14 33.14c.35.26.75.46.86.8.99 2.97 2.25 9.21 3.25 13.56M38.31 33.88c6.44-.63 25.48-3.13 31.42-3.77 1.49-.16 2.52.89 2.18 2.46-.66 3.06-1.16 4.39-2.74 9.38M40.97 45.94c7.03-.94 23.1-3.04 29.7-3.62M22.41 54.94c-.13 3.81-3.1 13.79-4.16 16.06M24.72 57.5c10.78-.75 42.75-5.29 60.47-5.75 9.56-.25 4.06 5.75-.69 9.5M29.27 71.59c.96.38 2.71.47 3.66.38 9.78-.99 31.7-4.47 43.46-4.96 1.59-.07 2.55.18 3.34.37M55.51 70.54c.06.32.78 1.66.83 3.69.27 9.73-.17 18.16-.17 21.47 0 9.3-5.62.34-6.61-.5"/></g><g font-size="8" fill="gray"><text transform="translate(43.5 9.13)">1</text><text transform="translate(23.5 21.5)">2</text><text transform="translate(29.5 40.55)">3</text><text transform="translate(38.5 31.63)">4</text><text transform="translate(44.25 42.05)">5</text><text transform="translate(15.5 59.5)">6</text><text transform="translate(26.5 54.5)">7</text><text transform="translate(28.5 68.5)">8</text><text transform="translate(48.5 79.63)">9</text></g></svg>