<svg xmlns="http://www.w3.org/2000/svg" width="109" height="109" viewBox="0 0 109 109" class="kan-g"><g class="kgPaths" fill="none" stroke="currentColor" stroke-width="3" stroke-linecap="round" stroke-linejoin="round"><path d="M34.47 15.14c.15 1.2.08 2.47-.39 3.92-2.96 9.31-12.21 26.19-24.78 39.9"/><path d="M25.78 41c.92.92 1.26 2 1.26 3.73 0 9.56-.02 27.79-.03 40.27C27 89.53 27 93.3 27 95.62"/><path d="M58.18 13.62c.91.91 1.18 2.3 1.2 3.48.62 43.02-6 65.77-22.88 77.65"/><path d="M40 39.25c2.75.75 4.93.4 7.75-.11 7.5-1.4 25.63-4.99 31-6.12 3.49-.73 3.78.55 3.19 3.84-1.69 9.51-4.07 26.76-5.69 37.64C74.23 88.04 76 93 85 93c9.75 0 10.25-1.25 10.25-7.75"/></g><g class="kgNumbers" font-size="8" fill="gray"><text transform="translate(26.35 14.5)">1</text><text transform="translate(19.66 57.5)">2</text><text transform="translate(48.71 12.5)">3</text><text transform="translate(38.5 35.5)">4</text></g></svg>