<svg xmlns="http://www.w3.org/2000/svg" width="109" height="109" class="kan-g"><g class="kgPaths" fill="none" stroke="currentColor" stroke-width="3" stroke-linecap="round" stroke-linejoin="round"><path d="M30.25 23.24c.5 1.01.39 3.06.34 5.12-.34 16.64-5.84 47.39-19.87 62.02M29.89 55.21c6.1 3.2 13.89 11.72 16.86 19.79M68.25 20.24c.5 1.26.52 3.72.3 5.88-1.3 12.38-8.3 51.38-25.58 65.76"/><path d="M64 53.75C67.89 59 84.93 83.84 89.16 89c1.43 1.75 2.66 2.5 4.09 3"/></g><g class="kgNumbers" font-size="8" fill="gray"><text transform="translate(21.08 24.3)">1</text><text transform="translate(32.92 54.39)">2</text><text transform="translate(60.42 25.48)">3</text><text transform="translate(68.25 56.74)">4</text></g></svg>