<svg xmlns="http://www.w3.org/2000/svg" width="109" height="109" viewBox="0 0 109 109" class="kan-g"><g class="kgPaths" fill="none" stroke="currentColor" stroke-width="3" stroke-linecap="round" stroke-linejoin="round"><path d="M40.47 15.89c.15 1.22.27 2.74-.14 4.24-2.6 9.46-12.66 27.76-24.77 40.58M35.03 39c.59.61.76 1.97.76 3.23 0 13.02-.29 43.15-.29 51.9M66.31 13.63c.76.45 1.86 3.35 2.01 4.25.15.9-.1 72.15-.25 77.75M70.75 41c8.47 4.1 21.77 15.03 24 23.25"/></g><g class="kgNumbers" font-size="8" fill="gray"><text transform="translate(31.5 15.5)">1</text><text transform="translate(28.5 54.5)">2</text><text transform="translate(56.5 14.5)">3</text><text transform="translate(73.5 39.5)">4</text></g></svg>