<svg xmlns="http://www.w3.org/2000/svg" viewBox="0 0 109 109" class="kan-g"><g class="kgPaths" fill="none" stroke="currentColor" stroke-width="3" stroke-linecap="round" stroke-linejoin="round"><path d="M29.63 18.73c1.52.54 4.3.63 5.82.54 15.8-.91 31.3-3.52 46.61-4.23 2.53-.12 4.05.26 5.31.53"/><path d="M32.67 19.5c.85 1.46.87 1.86.73 4.25-1.15 19.16-2.65 49.75-22.34 65.97"/><path d="M59.05 31.5c.08 1.48.17 3.82-.16 5.94-1.95 12.52-9.14 43.06-27.98 56.84"/><path d="M55.34 52.08c5.22 7.82 27.73 33.37 33.49 39.09 1.95 1.95 4.46 2.78 6.42 3.33"/></g><g class="kgNumbers" font-size="8" fill="gray"><text transform="translate(31.5 15.5)">1</text><text transform="translate(25.25 28.5)">2</text><text transform="translate(49.5 31.5)">3</text><text transform="translate(61.5 55.5)">4</text></g></svg>