<svg xmlns="http://www.w3.org/2000/svg" width="109" height="109" class="kan-g"><g class="kgPaths" fill="none" stroke="currentColor" stroke-width="3" stroke-linecap="round" stroke-linejoin="round"><path d="M32.49 15.89c.13 1.16.23 2.62-.12 4.05-2.24 9.04-10.89 26.52-21.31 38.77M26.53 40.5c.59.61.76 1.97.76 3.23 0 13.02-.29 41.65-.29 50.4M83.17 12.67c.1.51-.69 3.33-1.33 3.78-6.09 4.3-15.22 11.19-34.28 17.06M38.72 54.25c.98.43 3.45.53 4.43.43 11.39-1.19 31.42-4.91 50.44-5.55 1.64-.06 2.63.2 3.45.42"/><path d="M67.1 29.29c.49.48 1.53 3.57 1.63 4.53.1.96-.06 56.71-.16 62.68"/></g><g class="kgNumbers" font-size="8" fill="gray"><text transform="translate(24.5 15.85)">1</text><text transform="translate(19.5 57.5)">2</text><text transform="translate(74.5 12.5)">3</text><text transform="translate(37.5 50.5)">4</text><text transform="translate(60.5 38.85)">5</text></g></svg>