<svg xmlns="http://www.w3.org/2000/svg" width="109" height="109" viewBox="0 0 109 109" class="kan-g"><g class="kgPaths" fill="none" stroke="currentColor" stroke-width="3" stroke-linecap="round" stroke-linejoin="round"><path d="M32.49 15.39c.13 1.17.24 2.64-.12 4.08-2.26 9.09-11.02 26.67-21.56 39"/><path d="M27.03 39c.59.61.76 1.97.76 3.23 0 13.02-.29 43.65-.29 52.4"/><path d="M46.22 24.4c1.66.83 3.74.61 5.21.45C63.5 23.5 80 21.61 86.57 20.76c4.27-.55 6.17 1.66 5.93 5.55-.63 10.25-7.05 49.63-12.87 61.41-4.22 8.55-6.69 5.81-9.88.26"/><path d="M64.44 27.33c.81 1.17.59 3.49.37 5.44-2.18 19.05-8.11 38.37-22.31 55.34"/><path d="M49.89 41.32c.38 2.32-3.16 13.34-6.81 16.42"/></g><g class="kgNumbers" font-size="8" fill="gray"><text transform="translate(23.5 14.5)">1</text><text transform="translate(20.5 56.5)">2</text><text transform="translate(43.5 21.5)">3</text><text transform="translate(56.5 34.5)">4</text><text transform="translate(43.5 40.5)">5</text></g></svg>