<svg xmlns="http://www.w3.org/2000/svg" width="109" height="109" class="kan-g"><g class="kgPaths" fill="none" stroke="currentColor" stroke-width="3" stroke-linecap="round" stroke-linejoin="round"><path d="M36.66 15.64c.16 1.19-.08 2.73-.64 4.14C32.38 29 22.5 45.5 10 58.89M26.17 41.56c.82.82.95 2.15.95 3.37 0 10.03-.07 31.6-.1 44.2-.01 3.18-.01 5.79-.01 7.5M45.88 21.14c2.12.61 4.95.55 6.87.33 8.5-.97 19.83-1.88 29.76-2.43 2.25-.13 4.55-.25 6.75.42M65.77 24.03c.35 1.34.19 2.96-.17 4.5-2.48 10.72-13.48 51.97-15.92 60.36"/><path d="M42.87 53.86c1.76.64 3.86 1.08 5.63.88 10.5-1.24 26.75-2.86 32.24-3.3 2.08-.16 3.89 1.43 3.43 4.18-.86 5.04-4.17 26.88-5.07 32.41M34 91.22c3.12.66 6.95.46 10.01.26 10.16-.68 28.98-2.11 43.87-2.41 3.48-.07 7.21-.13 10.62.71"/></g><g class="kgNumbers" font-size="8" fill="gray"><text transform="translate(27.25 15.63)">1</text><text transform="translate(20.25 58.3)">2</text><text transform="translate(44.25 18.25)">3</text><text transform="translate(57.25 31.25)">4</text><text transform="translate(41.25 51.25)">5</text><text transform="translate(32.25 88.25)">6</text></g></svg>