<svg xmlns="http://www.w3.org/2000/svg" width="109" height="109" viewBox="0 0 109 109" class="kan-g"><g fill="none" stroke="currentColor" stroke-width="3" stroke-linecap="round" stroke-linejoin="round"><path d="M32.99 16.89c.13 1.1.23 2.47-.12 3.82-2.21 8.51-10.76 24.97-21.07 36.51M26.01 41c.63.66.81 2.11.81 3.46 0 13.96-.31 43.03-.31 52.41M59.02 12.75c2.67 1.14 6.59 5.61 7.06 7.83M38.02 29.23c1.23.77 3.96 1.1 6.09.87 12.64-1.35 29.64-4.85 44.25-5.85 2.36-.16 3.57.07 5.33 1.11M52.57 42.5c.41.91.91 3.06.96 4.78.1 3.68.11 3.48.05 10.33C53.43 75.35 46.51 89.1 39.5 93M53.37 43.5c4.55-1 13.83-2.99 18.38-4.25 3.62-1 4.75 2.01 4.49 4.55-.99 9.95-.96 33.64-.96 39.2 0 10.75 3.46 11.53 10.29 11.53 7.92 0 10.31-2.28 10.31-9.12"/></g><g font-size="8" fill="gray"><text transform="translate(24.5 15.85)">1</text><text transform="translate(19.5 57.5)">2</text><text transform="translate(51.71 13.5)">3</text><text transform="translate(38.5 26.5)">4</text><text transform="translate(44.5 49.5)">5</text><text transform="translate(54.5 39.5)">6</text></g></svg>