<svg xmlns="http://www.w3.org/2000/svg" width="109" height="109" class="kan-g"><g class="kgPaths" fill="none" stroke="currentColor" stroke-width="3" stroke-linecap="round" stroke-linejoin="round"><path d="M35 16.5c.25 1.75.25 4.25-.88 6.8-5.21 11.71-11.75 22.72-23.62 36.99M26.28 42.5c.72 1.25 1.26 3.48 1.26 4.75 0 12.75-.07 29.88-.26 42.25-.02 1.54-.04 2.97-.04 4.25M37.65 38.83c2.45.97 5.18.75 7.73.54 11.76-.97 24.94-3.35 37.49-4.01 2.65-.14 5.39-.22 7.99.39"/><path d="M61.43 14c.82.75 1.87 2.12 1.87 3.7 0 8.8.05 53.72-.12 72.05-.03 2.88-.06 4.91-.08 5.75"/><path d="M62.43 38.32c0 2.18-1.1 4.31-1.9 6.04C54.57 57.4 44.96 71.84 35 78.75M64.12 38.08c4.45 8.37 16.21 25.33 24.99 33.19 1.96 1.76 4.35 4.18 6.9 5"/></g><g class="kgNumbers" font-size="8" fill="gray"><text transform="translate(25.5 15.5)">1</text><text transform="translate(20.5 58.5)">2</text><text transform="translate(38.5 36.5)">3</text><text transform="translate(52.5 14.5)">4</text><text transform="translate(50.5 49.5)">5</text><text transform="translate(73.5 48.5)">6</text></g></svg>