<svg xmlns="http://www.w3.org/2000/svg" width="109" height="109" viewBox="0 0 109 109" class="kan-g"><g class="kgPaths" fill="none" stroke="currentColor" stroke-width="3" stroke-linecap="round" stroke-linejoin="round"><path d="M30.69 15.5c.13 1.16.22 2.61-.11 4.03-2.11 8.99-10.26 26.36-20.08 38.55M25.94 37.86c.91.91 1.32 2.14 1.32 3.51 0 11.62-.01 34.18-.01 47.14v6.88M61.61 12.75c.08 1.01-.04 2.68-.66 4.05-4.32 9.58-13.32 25.95-25.7 37.79M61.93 17.77C66.42 21.96 79.37 36.45 87 44.01c2.5 2.47 4.76 4.24 8.26 6.15M56.74 40.42c4.16 2.26 10.76 9.29 11.8 12.81M41.09 62.07c2.35 1.63 6.62.89 9.27.49 9.15-1.36 29.34-4.52 31.81-4.88 3-.44 4.25 1.28 2.1 3.61-5.06 5.45-13.77 15.21-19.15 21.09M51 75.12c5.11 2.73 18.32 13.23 20.72 20.38"/></g><g class="kgNumbers" font-size="8" fill="gray"><text transform="translate(22.6 15.6)">1</text><text transform="translate(20.25 56.25)">2</text><text transform="translate(53.25 18.25)">3</text><text transform="translate(72.25 25.25)">4</text><text transform="translate(58.25 39.25)">5</text><text transform="translate(41.25 60.25)">6</text><text transform="translate(51.25 73.25)">7</text></g></svg>