<svg xmlns="http://www.w3.org/2000/svg" width="109" height="109" class="kan-g"><g fill="none" stroke="#000" stroke-width="3" stroke-linecap="round" stroke-linejoin="round"><path d="M31.26 19.5c.21 2.03-.06 4.69-.73 6.43-4.28 11.1-9.22 21.01-19.03 34.52M26.03 41c1.3 1 1.22 2.36 1.28 3.99.48 13-1.04 43.15-.57 50.26M56.27 16.5c4.73 2.83 8.7 6.29 10.54 10.28M42.5 41.57c.95.45 4.04.15 5 .03 10.5-1.3 27.25-2.6 38-3.06 1.46-.06 2.79.09 4 .46M45.75 63.84c.94.49 4.04.32 5 .21 11.5-1.21 18.08-2.06 31-2.87 1.17-.07 3.75-.2 5.5.23M35.75 90.86c.92.27 5.7.15 7.25 0 16-1.53 34-2.86 48.75-3.4 2.5-.09 5.5.45 6.75.88"/><path d="M64 41.34c1 1.07 2 3.11 2 3.96 0 5.98.5 35.67.25 41.65"/></g><g font-size="8" fill="gray"><text transform="translate(22.5 19.63)">1</text><text transform="translate(20.25 60.13)">2</text><text transform="translate(47.5 17.5)">3</text><text transform="translate(35.5 41.5)">4</text><text transform="translate(38.25 64.63)">5</text><text transform="translate(35.5 87.47)">6</text><text transform="translate(58.5 51.5)">7</text></g></svg>