<svg xmlns="http://www.w3.org/2000/svg" width="109" height="109" class="kan-g"><g class="kgPaths" fill="none" stroke="#000" stroke-width="3" stroke-linecap="round" stroke-linejoin="round"><path d="M31.5 16.39c.13 1.13.23 2.55-.12 3.93-2.19 8.78-10.64 25.75-20.82 37.64M25.03 41.5c.59.61.76 1.97.76 3.23 0 13.02-.29 40.15-.29 48.9M41.5 27.09c.36 1.07 1.49 2.77 1.56 4.1C43.75 44.5 44 68.5 44.52 90M43.18 29.09c12.58-1.19 35.13-3.19 44.52-4.34 3.45-.42 5.2 2.99 5.02 6.15-.69 11.57-3.47 40.42-4.18 58.54"/><path d="M65.93 29.43c.57.57.96 2.29.96 4.2-.05 12.55.22 47.79.22 52.34"/><path d="M44.44 57.01c4.12-.52 42.79-3.17 46.19-3.17M44.68 87.19c9.1 0 31.15-1.42 43.71-1.71"/></g><g class="kgNumbers" font-size="8" fill="gray"><text transform="translate(22.5 16.5)">1</text><text transform="translate(18.5 57.5)">2</text><text transform="translate(34.5 36.85)">3</text><text transform="translate(43.5 25.5)">4</text><text transform="translate(59.5 37.5)">5</text><text transform="translate(48.5 53.5)">6</text><text transform="translate(48.5 84.5)">7</text></g></svg>