<svg xmlns="http://www.w3.org/2000/svg" width="109" height="109" class="kan-g"><g fill="none" stroke="#000" stroke-width="3" stroke-linecap="round" stroke-linejoin="round"><path d="M32.99 15.89c.14 1.18.24 2.65-.12 4.1-2.29 9.15-11.14 26.83-21.81 39.22M26.53 41.5c.59.61.76 1.97.76 3.23 0 13.02-.29 40.65-.29 49.4M49.23 24.17c.58 1.12 1.16 1.68 1.16 3.17s-.19 43.98 0 45.47M51.35 25.36c3.26-.19 28.09-2.39 31.06-2.61 2.48-.19 4.07 2.06 3.88 3.17-.39 2.24-.76 45.03-.76 46.15"/><path d="M51.93 46.97c5.3 0 10.63-.57 15.91-.93 1.72-.12 3.45-.23 5.11-.34M51.35 70.26c6.53 0 24-1.49 32.45-1.49M40.13 89.79c1.11.46 3.15.49 4.26.46 9.82-.23 37.35-3.03 48.84-3.02 1.85 0 2.96.22 3.89.45"/></g><g font-size="8" fill="gray"><text transform="translate(25.5 15.5)">1</text><text transform="translate(20.5 57.5)">2</text><text transform="translate(42.75 33.13)">3</text><text transform="translate(53.25 21.13)">4</text><text transform="translate(54.5 43.55)">5</text><text transform="translate(54.36 66.5)">6</text><text transform="translate(39.5 86.5)">7</text></g></svg>