<svg xmlns="http://www.w3.org/2000/svg" width="109" height="109" viewBox="0 0 109 109" class="kan-g"><g fill="none" stroke="currentColor" stroke-width="3" stroke-linecap="round" stroke-linejoin="round"><path d="M33.99 15.39c.14 1.18.24 2.67-.12 4.12-2.34 9.2-11.39 26.98-22.3 39.45M27.99 40c.66.68.84 2.19.84 3.58 0 14.46-.32 44.58-.32 54.29M62.01 13.52c2.85 1 6.32 5.94 6.85 8.77M42.46 29.75c0 3.93-2.06 12.02-3.25 14.64M43.12 31.4c15.61-2.55 42.77-6.12 49.39-5.85 8.73.35-.63 7.49-2.81 9.52M84.87 45.11c.19.42.32 1.65-.18 2.3-3.25 4.21-14.37 15.81-24.86 20.12"/><path d="M54.05 43.75c.88 1.02.94 1.7 1.23 3.06.29 1.36-.11 35.2-.11 39.46 0 10.94 10.93 9.23 20.93 9.23 7.76 0 13.41-.58 16.33-3.63 2.92-3.06 2.56-6.61 2.86-9.67"/></g><g font-size="8" fill="gray"><text transform="translate(25.5 15.85)">1</text><text transform="translate(20.5 56.5)">2</text><text transform="translate(54.5 12.5)">3</text><text transform="translate(36.54 31.5)">4</text><text transform="translate(46.5 27.5)">5</text><text transform="translate(76.5 43.5)">6</text><text transform="translate(45.5 43.5)">7</text></g></svg>