<svg xmlns="http://www.w3.org/2000/svg" width="109" height="109" class="kan-g"><g class="kgPaths" fill="none" stroke="currentColor" stroke-width="3" stroke-linecap="round" stroke-linejoin="round"><path d="M32.5 16.39c.13 1.11.22 2.5-.11 3.86-2.11 8.62-10.26 25.28-20.08 36.96M27.5 38c.64.66.81 2.12.81 3.48 0 14.02-.31 43.23-.31 52.65M47.65 13.83c3.83 2.19 9.9 8.98 10.86 12.38M82.25 11.14c.03.35.06.9-.05 1.4-.65 2.96-4.39 9.45-9.5 13.42M44.57 33.74c1.14.61 3.2.71 4.36.61C59 33.5 76.5 31 86.13 30.06c1.89-.19 3.03.29 3.98.59M45.28 50.19c1.13.6 3.17.66 4.32.6 10.15-.54 21.6-1.98 35.48-3.35 1.87-.18 2.92-.19 4.45.3M38.5 68.7c1.42.54 4.01.67 5.44.54 11.16-.99 34.32-3.49 49.96-4.23 2.36-.11 2.2-.01 4.35.24"/><path d="M65.26 33.25c.95.5 1.52 2.25 1.71 3.25.19 1 0 55.25-.19 61.5"/></g><g class="kgNumbers" font-size="8" fill="gray"><text transform="translate(24.5 15.5)">1</text><text transform="translate(21.25 55.55)">2</text><text transform="translate(40.25 12.48)">3</text><text transform="translate(73.25 11.5)">4</text><text transform="translate(43.25 31.5)">5</text><text transform="translate(40.25 47.5)">6</text><text transform="translate(36.5 65.18)">7</text><text transform="translate(58.5 42.5)">8</text></g></svg>