<svg xmlns="http://www.w3.org/2000/svg" width="109" height="109" class="kan-g"><g fill="none" stroke="currentColor" stroke-width="3" stroke-linecap="round" stroke-linejoin="round"><path d="M31.99 17.39c.14 1.13.24 2.55-.12 3.93-2.34 8.78-11.39 25.75-22.3 37.64M25.49 41c.66.68.84 2.19.84 3.58 0 14.46-.32 41.08-.32 50.79M49.49 20.86c.03.57.11 1.64-.06 2.28-2.01 8.02-4.98 15.38-10.22 21.85M48.49 32.5c.67.27 2.41.3 3.08.27 7.01-.31 21.48-2.7 30.01-3.6 1.12-.12 1.8.13 2.36.27M35.39 54c.8.24 2.94.42 5.07.23 8.47-.73 33.91-4.62 48.59-5.84 2.13-.18 4.02.24 5.35.49"/><path d="M61.98 12.75c1.14.49 1.82 2.2 2.05 3.17S63.8 91.87 63.8 93c0 10.75-4.3 4-6.05 2.25"/><path d="M63.25 52.54C58.43 63.4 45.97 79.86 35.95 86M64.35 52.31c4.22 6.65 22.06 25.66 28.35 31.22 1.57 1.39 2.83 2.1 4.35 2.52"/></g><g font-size="8" fill="gray"><text transform="translate(23.5 16.5)">1</text><text transform="translate(18.5 56.5)">2</text><text transform="translate(40.5 21.5)">3</text><text transform="translate(53.5 29.5)">4</text><text transform="translate(41.5 50.85)">5</text><text transform="translate(52.5 12.5)">6</text><text transform="translate(51.5 62.5)">7</text><text transform="translate(72.5 60.5)">8</text></g></svg>