<svg xmlns="http://www.w3.org/2000/svg" width="109" height="109" class="kan-g"><g class="kgPaths" fill="none" stroke="#000" stroke-width="3" stroke-linecap="round" stroke-linejoin="round"><path d="M35.48 13.89c.15 1.2.26 2.71-.13 4.19-2.5 9.36-12.15 27.45-23.79 40.13M26.49 42c.66.68.84 2.19.84 3.58 0 14.46-.32 42.08-.32 51.79M65.13 11.67c.22.31.19 1.23.03 1.85-.96 3.66-9.38 14.64-19.56 21.55M67.26 17.14c.29.02 2.51.48 3.32.39 2.66-.3 10.04-2.21 13.54-3.27 2.52-.77 3.54.65 2.86 2.16C82 27.5 62 49.75 42.16 55.84"/><path d="M58.4 29.08c2.29 1.68 6 6.98 6.65 9.67M73.64 45.75c.35.45.25 1.86-.2 2.69-3.43 6.4-10.96 15.97-26.07 24.65M74.29 52.69c1.21.56 2.46.31 4.03.38 2.92.13 10.75-1.33 14.57-2.45 2.74-.81 3.93 1.23 3.12 2.77C87 70.5 67.25 90 46.75 97"/><path d="M62.76 65.88c2.35 2.41 6.16 10.04 6.82 13.89"/></g><g class="kgNumbers" font-size="8" fill="gray"><text transform="translate(26.5 13.5)">1</text><text transform="translate(20.5 57.5)">2</text><text transform="translate(57.5 10.5)">3</text><text transform="translate(72.5 13.5)">4</text><text transform="translate(62.5 29.5)">5</text><text transform="translate(63.5 53.5)">6</text><text transform="translate(96.25 49.18)">7</text><text transform="translate(69.25 68.1)">8</text></g></svg>