<svg xmlns="http://www.w3.org/2000/svg" width="109" height="109" class="kan-g"><g class="kgPaths" fill="none" stroke="#000" stroke-width="3" stroke-linecap="round" stroke-linejoin="round"><path d="M32.26 17.75c.22 2.1-.06 3.34-.76 5.14-4.44 11.45-10.57 23.46-20.75 37.4M24.03 42.5c1.05 1.05 1.51 2.5 1.51 4.48 0 10.15.07 28.14-.01 39.77-.02 3-.03 5.51-.03 7.25M60.61 14c1.19 1.19 1.48 2.75 1.48 4.41 0 4.21-.15 6.59-.15 10.4M36.75 32.36c2.22.64 4.24.61 6.5.27 9.12-1.35 27.62-4.38 40-5.09 2.04-.12 4.25-.16 6.03.37M55.79 34.64c.12 1.45.08 2.69-.47 4.06-2.78 7.01-10.57 18.91-22.27 29.27M47.72 59.5c.76.76 1.21 2.21 1.2 3.71 0 7.41-.14 19.91-.14 23.72 0 2.41 1.17 2.49 2.8 1.17 4.82-3.9 12.61-10.18 14.19-11.62M80.36 40.89c.14.73-.36 1.86-1.07 2.71C77.16 46.14 75.47 48.09 68 54M58.32 50.25c4.3 0 14.55 13 29.35 30.33 2.18 2.56 4.7 4.79 7.83 6.67"/></g><g class="kgNumbers" font-size="8" fill="gray"><text transform="translate(23.25 18.13)">1</text><text transform="translate(18.75 63.05)">2</text><text transform="translate(50.5 15.5)">3</text><text transform="translate(36.5 29.5)">4</text><text transform="translate(47.5 41.5)">5</text><text transform="translate(41.5 70.5)">6</text><text transform="translate(72.5 40.63)">7</text><text transform="translate(60.5 48.5)">8</text></g></svg>