<svg xmlns="http://www.w3.org/2000/svg" width="109" height="109" class="kan-g"><g class="kgPaths" fill="none" stroke="currentColor" stroke-width="3" stroke-linecap="round" stroke-linejoin="round"><path d="M33.49 16.89c.14 1.1.24 2.47-.12 3.82-2.34 8.51-11.39 24.97-22.3 36.51M24.99 41.5c.66.68.84 2.19.84 3.58 0 14.46-.32 38.08-.32 47.79M64.64 13c.49.47 1.3 2.26 1.3 3.19 0 3.41-.16 6.69-.06 9.57M40.96 27.81c.95.06 3.14.42 4.06.33 7.5-.69 34.16-3.54 43.68-3.72 1.57-.03 2.38.03 3.55.42M53.61 33.99c0 .52.03.94-.09 1.57-.62 3.28-6.49 14.21-11.51 19.06M52.55 42.53c3.43 1.49 7.81 5.46 9.48 9.22M78.85 30.99c0 .53.03.95-.09 1.59-.62 3.32-6.51 14.38-11.55 19.29M76.11 41.46c4.45 1.91 10.12 6.98 12.29 11.79M36.5 69.98c1.51.54 4.27.65 5.78.54 14.97-1.02 38.23-3.54 51.45-3.75 2.51-.04 4.02.26 5.27.53"/><path d="M65.14 59.5c.67.56 2.21 2.5 2.21 5.3 0 1.13-.09 25.71-.22 32.7"/></g><g class="kgNumbers" font-size="8" fill="gray"><text transform="translate(24.5 15.5)">1</text><text transform="translate(18.5 57.5)">2</text><text transform="translate(55.5 10.5)">3</text><text transform="translate(39.5 24.5)">4</text><text transform="translate(45.5 37.5)">5</text><text transform="translate(57.5 43.5)">6</text><text transform="translate(70.5 34.68)">7</text><text transform="translate(82.5 42.5)">8</text><text transform="translate(34.5 66.5)">9</text><text transform="translate(54.44 62.46)">10</text></g></svg>