<svg xmlns="http://www.w3.org/2000/svg" width="109" height="109" class="kan-g"><g class="kgPaths" fill="none" stroke="currentColor" stroke-width="3" stroke-linecap="round" stroke-linejoin="round"><path d="M33.5 17.89c.13 1.18.32 2.68-.12 4.1C30.5 31.25 22.5 47.5 12.31 60.72M27.28 42.25c.98.98 1.26 2.47 1.26 3.73 0 10.61-.03 31.26-.04 43.27v6.62M64.75 12.38c1.24 1.24 1.54 2.74 1.54 4.46 0 .95.05 15.66.05 21.95M67.54 25.08c3.04-.48 14.71-2.7 17.09-2.89 1.62-.13 2.68 0 3.9 0M50.42 39.64c.97.97 1.14 2.13 1.14 3.41 0 3.96.04 22.49.06 33.42.01 2.7-.12 3.86-.12 5.4M52.49 41.42c2.84-.25 21.92-2.4 28.26-3.15 3.32-.39 5.45-.21 5.4 3.48-.06 4.01-.01 21.64.03 31.63.01 4 .02 6.73.02 6.8"/><path d="M52.88 52.88c5.66-.48 27.14-2.61 32-2.77M52.88 66.38c8.48-.89 23.04-2.35 32.03-2.78M52.71 79.49c9.01-.88 23.98-1.94 32.2-2.26M60.31 83.79c.19 1.08-.19 2.09-1.06 2.93-2.64 2.55-9.97 7.93-15.25 11.04M75.75 84.75c6.62 3.6 14.44 10.29 16.25 13.6"/></g><g class="kgNumbers" font-size="8" fill="gray"><text transform="translate(26.25 18.13)">1</text><text transform="translate(20.5 59.5)">2</text><text transform="translate(54.75 13.5)">3</text><text transform="translate(71.5 20.5)">4</text><text transform="translate(44.25 48.5)">5</text><text transform="translate(54.75 37.63)">6</text><text transform="translate(57.75 50.5)">7</text><text transform="translate(57.75 62.5)">8</text><text transform="translate(57.75 76.4)">9</text><text transform="translate(44.5 89.83)">10</text><text transform="translate(67.5 91.5)">11</text></g></svg>