<svg xmlns="http://www.w3.org/2000/svg" width="109" height="109" class="kan-g"><g class="kgPaths" fill="none" stroke="#000" stroke-width="3" stroke-linecap="round" stroke-linejoin="round"><path d="M28 18.12c.49 1.66.43 2.93-.21 4.82-4.09 12-7.29 21.07-16.67 35.68M23.53 40.5c.8.8 1.25 2.3 1.25 3.5 0 11.73-.02 34.17-.03 45.75v5.5M39.8 20.15c.84.84 1.36 2.26 1.36 3.8v44.58M41.74 21.38c1.67-.16 12.63-1.67 17.15-2.37 2.77-.43 4.39.09 4.3 3.25-.15 5.24-.45 28.22-.59 39.49-.04 3.59-.07 5.99-.07 6.25"/><path d="M42.21 35.6c4.11-.58 14.54-1.89 19.76-2.37M42.37 49.99c6.04-.76 12.98-1.41 19.11-1.8M42.38 65.79c5.37-.67 13.04-1.48 19.12-1.8M46.04 74.66c.3 1.23-.02 2.11-.58 3.04-2.49 4.16-6.89 9.35-10.46 12.55M57.38 74.25c3.97 3.59 8.67 10.11 9.75 13.25M76.52 23.08c.98.92 1.76 2.29 1.76 4.27 0 10.75-.01 22.08-.02 29.27v5.88M92.27 14.33c.98.92 1.76 2.29 1.76 4.27 0 14.56-.01 64.91-.01 69.87 0 6.78-4.02 4.53-8.71.25"/></g><g class="kgNumbers" font-size="8" fill="gray"><text transform="translate(20.25 19.63)">1</text><text transform="translate(17.25 61.63)">2</text><text transform="translate(34.5 29.98)">3</text><text transform="translate(42.5 18.5)">4</text><text transform="translate(45.64 32.5)">5</text><text transform="translate(45.5 46.63)">6</text><text transform="translate(45.55 62.5)">7</text><text transform="translate(37.5 77.5)">8</text><text transform="translate(50.5 74.5)">9</text><text transform="translate(68.5 20.5)">10</text><text transform="translate(81.5 15.5)">11</text></g></svg>