<svg xmlns="http://www.w3.org/2000/svg" width="109" height="109" class="kan-g"><g class="kgPaths" fill="none" stroke="#000" stroke-width="3" stroke-linecap="round" stroke-linejoin="round"><path d="M46.38 12.15c.06.47.13 1.22-.12 1.9-1.47 4-9.93 12.79-21.51 18.17M48.33 15.7c2.69 0 14.69-1.77 17.52-2.04 2.43-.23 3.19 2.44 2.17 3.57C63.75 21.98 57.75 28 51 35.6M27.5 37.6c.5.47 1.02.86 1.24 1.45 1.75 4.66 2.31 10.32 3.51 18.69M30.64 39.21c12.36-1.96 40.17-5.53 46.55-6.19 2.33-.24 3.73 2.43 3.4 3.85-1.38 5.87-2.84 8.13-6.92 16.4"/><path d="M33.25 55.75c5-.5 35.75-4.25 41.25-4.5"/><path d="M51.97 39.5c.09 1.33.2 3.45-.19 5.36-2.27 11.31-12.02 40.07-32.12 52.31M55.49 59.37c.74 1.19 1.33 2.59 1.38 4.43.2 8.19-.53 14.14-.53 19.7 0 13 8.9 12.03 17.67 12.03 9.25 0 15.34-1.68 16.64-2.62 2.75-2 2-3 2.25-6.5M70.5 64c3.35 1.94 8.66 7.98 9.5 11"/></g><g class="kgNumbers" font-size="8" fill="gray"><text transform="translate(37.5 11.5)">1</text><text transform="translate(52.5 12.5)">2</text><text transform="translate(21.5 45.5)">3</text><text transform="translate(34.5 35.5)">4</text><text transform="translate(36.5 52.5)">5</text><text transform="translate(44.5 46.5)">6</text><text transform="translate(61.5 63.5)">7</text><text transform="translate(74.5 63.5)">8</text></g></svg>