<svg xmlns="http://www.w3.org/2000/svg" width="109" height="109" class="kan-g"><g class="kgPaths" fill="none" stroke="currentColor" stroke-width="3" stroke-linecap="round" stroke-linejoin="round"><path d="M52.46 13.37c1.04.88 1.51 2.35 1.51 3.99 0 7.39-.01 14.07-.01 16.76M29.02 19.71c3.28 1.99 8.47 8.17 9.29 11.26M77.01 16.25c.07.84-.02 1.66-.37 2.42-1.64 3.58-3.62 7.2-7.83 13.3M19.75 36.12c-.14 4.65-2.56 15.54-3.75 18.31M20.74 39.18c12.76-1.8 45.26-5.3 66.55-6.37 12.94-.65.9 7.94-.65 9.2M34.64 46.98c.69.69 1.36 1.52 1.55 2.51.61 3.24 1.58 7.78 2.44 12.23.32 1.68.61 3.31.82 4.78M36.52 48.13c4.84-.75 22.14-2.64 30.22-3.5 3.51-.38 5.51 1.37 5 4.06-.82 4.3-1.36 6.19-2.42 12.1M39.58 63.69c9.8-.98 17.37-1.57 25.94-2.11 1.85-.12 3.98-.21 5.7-.13M44.99 66.75c.07.66.28 1.68.11 2.67-1.23 6.96-8.48 19.33-25.68 25.75M58.24 64.12c.88.88 1.28 2.02 1.28 3.46 0 7.42.01 13.11.01 17.46 0 9.59 1.35 10.25 16.49 10.25 15.99 0 16.87-1.04 16.87-9.38"/></g><g class="kgNumbers" font-size="8" fill="gray"><text transform="translate(44.5 14.5)">1</text><text transform="translate(21.5 20.5)">2</text><text transform="translate(68.25 15.5)">3</text><text transform="translate(13.5 39.13)">4</text><text transform="translate(24.75 35.5)">5</text><text transform="translate(28.5 55.55)">6</text><text transform="translate(38.25 45.5)">7</text><text transform="translate(43.5 60.5)">8</text><text transform="translate(35.25 75.5)">9</text><text transform="translate(49.5 76.5)">10</text></g></svg>