<svg xmlns="http://www.w3.org/2000/svg" width="109" height="109" viewBox="0 0 109 109" class="kan-g"><g class="kgPaths" fill="none" stroke="currentColor" stroke-width="3" stroke-linecap="round" stroke-linejoin="round"><path d="M51.87 17.5c1.78 1.78 2.71 3.48 2.71 6.5 0 6.46.12 9.16.12 14.35"/><path d="M13.5 42.13c3.27.74 7.11.89 9.93.64 21.56-1.9 41.78-5.02 61.41-5.47 4.8-.11 7.49.31 11.06 1.07"/><path d="M38.11 58.6c.51 1.37.42 3.67-.49 5.29C33.38 71.38 24 82.38 15.41 88.75"/><path d="M70.16 59.92c9.96 8.61 18.18 18.54 23.16 28.99"/></g><g class="kgNumbers" font-size="8" fill="gray"><text transform="translate(42.25 17.63)">1</text><text transform="translate(5.5 43.63)">2</text><text transform="translate(27.5 58.63)">3</text><text transform="translate(60.5 58.63)">4</text></g></svg>