<svg xmlns="http://www.w3.org/2000/svg" width="109" height="109" viewBox="0 0 109 109" class="kan-g"><g class="kgPaths" fill="none" stroke="currentColor" stroke-width="3" stroke-linecap="round" stroke-linejoin="round"><path d="M51 12c.1 1.1-.11 2.9-.71 4.42C46.54 25.91 34.42 46.29 13.88 59M51.25 17.13c6.01 5.71 24.37 23.52 33.03 31.21 3.08 2.73 4.85 3.78 9.22 5.5M32.17 53.79c1.95.59 4.65.47 6.45.26 6.04-.71 17.52-2.14 26.01-2.69 2.11-.13 4.5-.12 6.32.33M50.91 54.99c.92.92 1.4 2.3 1.4 3.2 0 6.3-.02 24.06-.02 31.65"/><path d="M33.45 71.93c1.84.57 3.93.31 5.81.12 8.21-.8 16.37-1.4 24.75-2.14 2.07-.18 4.23-.46 6.27.12M20.48 92.76c1.91.49 4.89.79 8.3.5 13.59-1.14 33.47-2.89 50.39-3.45 2.86-.09 6.3.23 7.73.68"/></g><g class="kgNumbers" font-size="8" fill="gray"><text transform="translate(43.5 12.5)">1</text><text transform="translate(59.5 22.5)">2</text><text transform="translate(37.5 50.5)">3</text><text transform="translate(44.25 63.13)">4</text><text transform="translate(26.5 73.63)">5</text><text transform="translate(12.75 94.63)">6</text></g></svg>