<svg xmlns="http://www.w3.org/2000/svg" width="109" height="109" viewBox="0 0 109 109" class="kan-g"><g class="kgPaths" fill="none" stroke="currentColor" stroke-width="3" stroke-linecap="round" stroke-linejoin="round"><path d="M33.34 17.63c1.08 1.08 1.3 2.54 1.3 3.9 0 4.34.06 27.34.07 36.85v3.58M35.45 20.05c5.55-.8 30.33-4.1 33.59-4.31 3.63-.23 4.97 1.38 4.97 4.51 0 6.29-.12 21.37-.14 33.62v4.71"/><path d="M35.89 33.24C46.25 32 66.25 30.25 73 29.75M36 46.5c14.25-1.25 26.74-2.7 36.75-3.25M36 58.75c8-.75 25.5-2.25 36.5-3.25M15.75 71.7c3.75.68 8.42.66 12.39.26 12.76-1.28 39.61-3.71 55.24-4.05 3.49-.08 7.12-.03 10.62.63M41.25 77.14c.13.98.04 1.84-.54 2.64-2.83 3.97-10.08 10.09-20.9 15.68M67.25 78c6.46 2.91 15.62 11.25 18.31 16.47"/></g><g class="kgNumbers" font-size="8" fill="gray"><text transform="translate(27.75 27.13)">1</text><text transform="translate(38.25 16.5)">2</text><text transform="translate(38.5 30.13)">3</text><text transform="translate(38.5 43.63)">4</text><text transform="translate(38.5 55.63)">5</text><text transform="translate(8.25 73.66)">6</text><text transform="translate(32.5 81.5)">7</text><text transform="translate(59.5 80.5)">8</text></g></svg>