<svg xmlns="http://www.w3.org/2000/svg" width="109" height="109" class="kan-g"><g class="kgPaths" fill="none" stroke="#000" stroke-width="3" stroke-linecap="round" stroke-linejoin="round"><path d="M35.91 17.62c3.69 2.55 9.54 10.48 10.47 14.44M69.28 14.64c.05.58.22 1.54-.1 2.34-1.65 4.14-5.03 9.39-10.9 16.52M37.32 39.34c1.96.29 3.96.31 5.58.13 6.28-.69 17.97-2.39 24.4-3.01 1.98-.19 3.88-.35 5.84.13M30.27 61.73c3.26.77 5.78.8 8.64.46 12.12-1.44 26.11-2.7 35.12-3.35 3.02-.22 6.01-.07 8.98.64"/><path d="M51.71 42.12c.6.76.77 2.38.7 3.84C50.98 73.25 40.62 87 22.98 93.37M51.98 61.89c5.79 5.58 15.85 16.6 23.41 23.76 3.14 2.97 6.01 4.84 8.49 6.14"/></g><g class="kgNumbers" font-size="8" fill="gray"><text transform="translate(28.53 18.5)">1</text><text transform="translate(60.8 14.5)">2</text><text transform="translate(32.21 37.2)">3</text><text transform="translate(30.53 59.5)">4</text><text transform="translate(43.96 49.59)">5</text><text transform="translate(63.8 70.59)">6</text></g></svg>