<svg xmlns="http://www.w3.org/2000/svg" width="109" height="109" class="kan-g"><g class="kgPaths" fill="none" stroke="#000" stroke-width="3" stroke-linecap="round" stroke-linejoin="round"><path d="M27.25 19.25c.75 1 1.25 2 1.5 3s.25 18 .25 29.25C29 71 24.5 88.75 17.75 96M29 21.69c2.55-.24 13.2-2.41 15.1-2.69 3.4-.49 3.4 2.12 3.4 3.66 0 8.31-.64 45.78-.64 64 0 12.7-5.1 4.4-7.23 2.2M60.52 16.25c.63 1.04 1.06 2.07 1.27 3.11.21 1.03.21 25.91.21 32.9C62 67.5 61 87 52.5 95.25M61.75 18.25c3-.25 13.02-2.47 15.25-2.75 4-.5 4 2.17 4 3.75 0 8.5-.25 48.85-.25 67.5 0 13-4.5 6-7 3.75"/><path d="M13.25 53.18c1.78.56 5.04.66 6.82.56 9.88-.51 50.9-6.49 70.45-6.48 2.97 0 4.75.27 6.23.55"/></g><g class="kgNumbers" font-size="8" fill="gray"><text transform="translate(20.5 24.5)">1</text><text transform="translate(31.5 16.5)">2</text><text transform="translate(54.5 24.5)">3</text><text transform="translate(62.5 14.5)">4</text><text transform="translate(9.5 49.33)">5</text></g></svg>