<svg xmlns="http://www.w3.org/2000/svg" width="109" height="109" class="kan-g"><g fill="none" stroke="currentColor" stroke-width="3" stroke-linecap="round" stroke-linejoin="round"><path d="M24.49 15.12c.43.46.94 1.27 1.17 1.85 1.92 4.73 3.23 18.17 4.42 26.99M26.49 17.25c14.89-1.19 41.43-3.21 52.55-4.21 4.08-.37 5.18 1.93 4.97 3.23-.77 4.77-3.17 17.25-5.04 25.22"/><path d="M28.77 28.98c8.91-.85 17.88-1.29 26.81-1.89l8.93-.59M30.85 42.17c13.4-.92 33.8-2.13 48.61-2.96M32.06 51.84c.69 1.04 1.21 2.81 1.21 4.19 0 1.38-.46 41.6-.46 42.29M33.05 53.68c3.93-.17 36.24-3.19 39.82-3.4 2.98-.17 5.08.97 5.08 4.25 0 4.97-.71 26.23-.7 41.44"/><path d="M33.85 66.76c7.43-.23 14.86-1.06 22.25-1.69l6.7-.56M33.67 80.21c7.23-.41 15.46-1 22.68-1.5 2.05-.14 4.11-.28 6.11-.41M33.62 95.23c8.94-.31 33.4-2.05 43.5-2.05"/></g><g font-size="8" fill="gray"><text transform="translate(20.25 27.13)">1</text><text transform="translate(28.5 13.63)">2</text><text transform="translate(33.75 25.63)">3</text><text transform="translate(33.75 38.5)">4</text><text transform="translate(26.25 59.98)">5</text><text transform="translate(36.75 50.5)">6</text><text transform="translate(37.5 63.5)">7</text><text transform="translate(37.5 76.48)">8</text><text transform="translate(37.5 92.5)">9</text></g></svg>