<svg xmlns="http://www.w3.org/2000/svg" width="109" height="109" viewBox="0 0 109 109" class="kan-g"><g class="kgPaths" fill="none" stroke="currentColor" stroke-width="3" stroke-linecap="round" stroke-linejoin="round"><path d="M44.62 15.25c.14 1.46-.19 2.53-.9 3.84-4.05 7.46-11.32 16.3-21.98 23.66"/><path d="M45.86 21.96c.81.29 2.21.43 3.89.18 5.75-.88 9.61-1.32 13.36-2.17 4.04-.92 4.68 1.79 2.97 4.69C58.5 37.5 42.25 59.38 13.75 70.75"/><path d="M38.38 32.25c6.13 4.66 30.42 20.84 42.71 27.89 3.8 2.18 8.54 4.17 12.91 4.86"/><path d="M47.25 65c5.56 1.41 14.36 5.8 15.75 8"/><path d="M40.5 81.75c8.91 2.65 22.25 9.62 25.5 14"/></g><g class="kgNumbers" font-size="8" fill="gray"><text transform="translate(35.5 14.5)">1</text><text transform="translate(49.5 18.5)">2</text><text transform="translate(36.75 42.5)">3</text><text transform="translate(39.5 66.5)">4</text><text transform="translate(31.5 83.5)">5</text></g></svg>