<svg xmlns="http://www.w3.org/2000/svg" width="109" height="109" viewBox="0 0 109 109" class="kan-g"><g class="kgPaths" fill="none" stroke="currentColor" stroke-width="3" stroke-linecap="round" stroke-linejoin="round"><path d="M17.29 19.75c3.99 1.93 10.3 7.92 11.29 10.91M12.98 82.67c1.71 2.05 3.94 1.73 5.13 0 1.16-1.68 8.39-14.17 12.66-23.51M41.21 17.83c.27.92.52 1.54.67 2.25C43 25.5 45 38.75 46.33 47.84M42.55 19.05c9.46-1.73 33.04-3.6 39.79-4.8 2.3-.41 4.42 2.1 3.98 4.64-1.11 6.41-2.07 17.11-5.11 25.14"/><path d="M46.22 45.52C56.75 44 73.25 42.5 81.48 42.47M54.12 48.83c.08 1.09.46 2.78.35 4.37C53.75 63 44.25 85.25 27.06 95M66.39 46.57c.58.88 1.42 1.95 1.45 4.4.07 5.86-.5 22.51-.5 31.52 0 9.51 1.4 11.23 15.73 11.23 11.17 0 13.5-2.71 13.5-10.56"/></g><g class="kgNumbers" font-size="8" fill="gray"><text transform="translate(8.5 18.5)">1</text><text transform="translate(5.5 84.5)">2</text><text transform="translate(34.5 26.5)">3</text><text transform="translate(43.5 15.5)">4</text><text transform="translate(50.5 41.5)">5</text><text transform="translate(46.5 56.5)">6</text><text transform="translate(59.5 59.5)">7</text></g></svg>