<svg xmlns="http://www.w3.org/2000/svg" width="109" height="109" viewBox="0 0 109 109" class="kan-g"><g class="kgPaths" fill="none" stroke="currentColor" stroke-width="3" stroke-linecap="round" stroke-linejoin="round"><path d="M16.29 23.5c4.69 2.06 12.12 8.46 13.29 11.66M12.48 84.17c1.27.58 3.44.23 4.63-1.5 1.16-1.68 8.39-14.17 12.66-23.51M41.06 39.38c.48.26 1.42.86 1.57 1.54 1.09 4.89 2.41 13.56 3.95 22.83M42.95 40.53c13.55-2.03 39.68-4.42 48.38-4.8 3.39-.15 4.07 2.43 3.65 3.92-1.44 5.1-2.58 10.04-4.92 18.52M46.72 62.21c9.75-1.32 31.98-2.74 45.62-4.12"/><path d="M65.66 11.75c1.21.49 1.94 2.22 2.18 3.21.24.99 0 77.88-.24 84.04"/></g><g class="kgNumbers" font-size="8" fill="gray"><text transform="translate(8.5 23.5)">1</text><text transform="translate(4.5 84.5)">2</text><text transform="translate(35.5 47.5)">3</text><text transform="translate(44.5 36.5)">4</text><text transform="translate(51.5 58.33)">5</text><text transform="translate(56.25 13.5)">6</text></g></svg>