<svg xmlns="http://www.w3.org/2000/svg" width="109" height="109" class="kan-g"><g class="kgPaths" fill="none" stroke="#000" stroke-width="3" stroke-linecap="round" stroke-linejoin="round"><path d="M17.04 19.25c4.78 2.1 12.35 8.64 13.54 11.91M12.48 87.67c2.77 1.33 3.94-.27 5.13-2 1.16-1.68 7.39-13.17 11.66-22.5M39 15.98c.58 1.48 1.43 2.59 1.45 4.56.11 14.77.11 50.77-.24 78.96M41.21 18.39c14.03-1.71 37.93-4.89 47.32-4.89 2.14 0 4.22 1.5 4.22 3.69 0 16.29-.78 57.25-.39 80.27"/><path d="M46.28 41.46c.57.2 2.1.73 3.61.59 6.21-.59 24.27-4.72 33.2-4.72 1.52 0 1.9-.2 2.85 0"/><path d="M64.31 23.47c.99.64 1.78 2.83 1.78 4.13 0 22.26 0 24.7-.2 32.65M51.26 61.34c.33.74.72 1.26.83 1.83.83 4.13 2.17 14.32 3.33 22.15M52.16 63.04c6.19-.79 21.93-3.41 26.16-3.53 1.75-.05 2.69 1.12 2.54 2.33-.58 4.56-2.2 11.98-3.14 18.03M55.48 82.29c5.12-.33 18.41-1.91 24.56-2.33M40.44 95.32c10.17 0 37.88-2.17 51.92-2.6"/></g><g class="kgNumbers" font-size="8" fill="gray"><text transform="translate(9.5 18.5)">1</text><text transform="translate(4.5 86.5)">2</text><text transform="translate(33.44 26.98)">3</text><text transform="translate(43.5 14.5)">4</text><text transform="translate(44.5 38.83)">5</text><text transform="translate(54.5 26.5)">6</text><text transform="translate(45.5 69.5)">7</text><text transform="translate(54.5 59.6)">8</text><text transform="translate(59.5 78.5)">9</text><text transform="translate(44.5 91.5)">10</text></g></svg>