<svg xmlns="http://www.w3.org/2000/svg" width="109" height="109" class="kan-g"><g class="kgPaths" fill="none" stroke="currentColor" stroke-width="3" stroke-linecap="round" stroke-linejoin="round"><path d="M30.34 14.25c.04.74.09 1.92-.09 2.98-1.04 6.29-7.04 20.08-15.25 28.52M28.46 30.64c.83.67 2.44.64 3.83.45 5.96-.84 20.46-3.26 23.79-3.48 3.33-.22 4.83 1.13 4.49 4.95C60 39 57.25 74.5 51.97 90.74c-1.84 5.65-5.72 4.01-8.33-.62"/><path d="M34.32 34.25c.05.78.14 2.03-.1 3.12-2.37 10.77-8.01 21.03-17.35 29.88M48.01 32c.08 1.26.16 3.25-.15 5.06C46 47.73 35.95 71.16 21.36 85.5M73.77 24.83c.98.92 1.67 1.99 1.76 5.02.4 14.55-.02 34.69-.02 39.65M90.27 13.33c.98.92 1.67 1.99 1.76 5.02.4 14.55-.26 65.66-.26 70.62 0 13.14-7.21 1.5-8.71.25"/></g><g class="kgNumbers" font-size="8" fill="gray"><text transform="translate(21.5 15.5)">1</text><text transform="translate(34.5 27.5)">2</text><text transform="translate(26.5 40.5)">3</text><text transform="translate(39.5 40.5)">4</text><text transform="translate(65.5 22.5)">5</text><text transform="translate(79.5 12.5)">6</text></g></svg>