<svg xmlns="http://www.w3.org/2000/svg" width="109" height="109" viewBox="0 0 109 109" class="kan-g"><g class="kgPaths" fill="none" stroke="currentColor" stroke-width="3" stroke-linecap="round" stroke-linejoin="round"><path d="M17.79 26.53c1.68.31 3.42.39 5.1.17 5.15-.67 16.03-2.46 23.11-3.28 1.84-.21 3.75-.28 5.53.36M11.79 48.72c1.95.77 4.67.58 6.71.28 10.56-1.55 21.53-3.24 31.5-4.36 2.51-.28 4.74-.57 7.21.03"/><path d="M33.85 28.58c1.1 1.1 1.74 2.54 1.74 3.94 0 .79-.03 39.01-.09 54.86-.01 3.08-.02 5.31-.03 6.26M66.02 33.08c.98.92 1.5 2.54 1.5 4.52 0 10.25-.01 18.3-.02 23.9v5.75M87.27 16.83c.98.92 1.76 2.29 1.76 4.27 0 14.56-.01 60.41-.01 65.37 0 14.28-6.77 4.78-8.71 2.5"/></g><g class="kgNumbers" font-size="8" fill="gray"><text transform="translate(11.5 27.13)">1</text><text transform="translate(4.5 49.5)">2</text><text transform="translate(27.5 37.63)">3</text><text transform="translate(57.5 32.5)">4</text><text transform="translate(77.5 17.5)">5</text></g></svg>