<svg xmlns="http://www.w3.org/2000/svg" width="109" height="109" viewBox="0 0 109 109" class="kan-g"><g class="kgPaths" fill="none" stroke="currentColor" stroke-width="3" stroke-linecap="round" stroke-linejoin="round"><path d="M18.79 24.46c2.54 2.29 6.56 9.44 7.19 13.01M56.78 18.75c.11 1.25-.1 2.26-.67 3.37-1.8 3.44-4.6 8.39-8.95 12.88M18.58 48.83c1.64.73 4.09.3 5.78-.01 7.08-1.29 18.54-3.55 25.63-4.32 1.65-.18 3.63-.12 5.23.31M13.75 67.59c1.99.78 4.77.6 6.85.27 8.67-1.39 25.05-4.45 32.92-5.45 2.19-.28 4.59-.38 6.73.12"/><path d="M36.62 14c1 1 1.71 2.88 1.71 4 0 5.25.04 54.43.04 73.5 0 4.52 0 7.35-.01 7.5M69.02 25.83c.98.92 1.76 2.67 1.76 5.02 0 12.4.04 23.65.04 31.65 0 2.66-.06 4.75-.06 6M90.27 11.58c.98.92 1.76 2.67 1.76 4.52 0 20.15-.01 65.65-.01 73.37 0 12.53-7.21 1.5-8.71.25"/></g><g class="kgNumbers" font-size="8" fill="gray"><text transform="translate(12.75 25.63)">1</text><text transform="translate(48.5 18.13)">2</text><text transform="translate(11.25 49.5)">3</text><text transform="translate(6.75 68.5)">4</text><text transform="translate(28.5 14.5)">5</text><text transform="translate(66.5 22.5)">6</text><text transform="translate(81.5 12.5)">7</text></g></svg>