<svg xmlns="http://www.w3.org/2000/svg" width="109" height="109" viewBox="0 0 109 109" class="kan-g"><g class="kgPaths" fill="none" stroke="currentColor" stroke-width="3" stroke-linecap="round" stroke-linejoin="round"><path d="M17.25 27.72c.72.47 3.24.76 3.97.68 6.07-.63 25.22-3.96 31.73-4.4 1.2-.08 3.12.22 3.73.45M18.67 39.58c.29.38.59.69.72 1.16 1.01 3.73 2.78 12.26 3.47 18.95M20.48 41.61c8.73-1.61 30.08-4.7 33.5-5.07 2.13-.23 3.47 2.42 2.91 4.58-1.51 5.78-1.87 8.34-3.06 12.76M23 57.49c10.49-.93 24.77-2.38 32.64-3.08"/><path d="M35.95 11c1.24.5 1.98 2.23 2.23 3.22.25.99 0 78.08-.25 84.28"/><path d="M37.87 56.05c-4.07 10.4-14.64 25.11-23.1 31M40.85 61.59c6.66 3.02 12.02 8.96 15.37 14.98M68.77 25.33c.98.92 1.67 1.99 1.76 5.02.4 14.55-.02 36.19-.02 41.15M88.77 11.33c.98.92 1.67 1.99 1.76 5.02.4 14.55-.26 68.66-.26 73.62 0 13.14-7.21 1.5-8.71.25"/></g><g class="kgNumbers" font-size="8" fill="gray"><text transform="translate(10.5 27.5)">1</text><text transform="translate(11.5 46.5)">2</text><text transform="translate(20.5 37.5)">3</text><text transform="translate(26.5 53.5)">4</text><text transform="translate(26.5 11.5)">5</text><text transform="translate(26.5 65.5)">6</text><text transform="translate(49.5 65.5)">7</text><text transform="translate(62.5 22.5)">8</text><text transform="translate(78.5 10.5)">9</text></g></svg>