<svg xmlns="http://www.w3.org/2000/svg" width="109" height="109" viewBox="0 0 109 109" class="kan-g"><g class="kgPaths" fill="none" stroke="currentColor" stroke-width="3" stroke-linecap="round" stroke-linejoin="round"><path d="M36.32 9.37c2.45 1.43 6.33 5.86 6.94 8.08M67.91 8.5c.11.47.09 1.39-.11 1.72-1.35 2.18-4.74 6.38-6.66 8.25M18.24 22.43c1.38.38 3.91.45 5.29.38 17.28-.89 36.67-2.82 62.74-3.67 2.3-.08 3.68.18 4.83.37M27.75 30.51c.38.48.63.96.76 1.44s.3 30.34.13 31.4M29.26 31.49c1.52-.12 15.42-2.14 16.54-2.27 2.02-.24 2.78 1.55 2.53 2.27-.24.69.24 19.18-.38 28.85-.2 3.16-2.7 1.66-4.79-.42"/><path d="M35.5 36.75c2.75 1.25 4.75 2.5 7 5.25M35.75 46.5c3.25 1.25 4.25 2.75 6 5.5M62.59 30.15c.08.29 1.07 1.53 1.15 3.39.37 8.94-.01 19.8-.23 22.84M79.56 26.15c.08.34 1.07 1.75 1.15 3.87.37 10.22-.23 24.44-.23 27.92 0 6.55-3.73 3.55-7.98.07M19.75 72.75c1.75.75 3.94.46 5.48.4 11.52-.4 45.85-3.14 52.77-3.9 4.5-.5 5.66.8 5 4.25-1.25 6.5-5.5 17.75-10 23-5.7 6.65-8.5.25-10-1.75"/><path d="M49.16 73.52c.09.65.22 1.67-.18 2.6-3.01 6.86-12.31 17.82-32.09 24.88"/></g><g class="kgNumbers" font-size="8" fill="gray"><text transform="translate(29.75 9.5)">1</text><text transform="translate(59.5 7.5)">2</text><text transform="translate(10.5 23.5)">3</text><text transform="translate(21.5 38.5)">4</text><text transform="translate(31.25 29.5)">5</text><text transform="translate(32.5 43.5)">6</text><text transform="translate(32.5 55.18)">7</text><text transform="translate(54.5 32.5)">8</text><text transform="translate(71.5 29.5)">9</text><text transform="translate(8.5 73.5)">10</text><text transform="translate(35.25 81.88)">11</text></g></svg>