<svg xmlns="http://www.w3.org/2000/svg" width="109" height="109" viewBox="0 0 109 109" class="kan-g"><g class="kgPaths" fill="none" stroke="currentColor" stroke-width="3" stroke-linecap="round" stroke-linejoin="round"><path d="M41 12.25c.06.9.07 2.14-.38 3.38C36.75 26.5 29.38 39.25 17 48.88"/><path d="M36.5 33.5c2.88 1.12 6.19.75 9.02.25C55.15 32.06 76 28 82.25 27.25c4.97-.6 7.54 2.3 6.5 7.5-1.89 9.45-7.08 38.94-17.1 55.13-5.75 9.3-8.21 8.6-13.15 3.37"/><path d="M41.5 52.25c4.61 3.21 11.91 13.22 13.06 18.22"/></g><g class="kgNumbers" font-size="8" fill="gray"><text transform="translate(32.5 12.5)">1</text><text transform="translate(42.5 30.5)">2</text><text transform="translate(33.75 52.5)">3</text></g></svg>