<svg xmlns="http://www.w3.org/2000/svg" width="109" height="109" class="kan-g"><g class="kgPaths" fill="none" stroke="#000" stroke-width="3" stroke-linecap="round" stroke-linejoin="round"><path d="M39.347 4.457c.08 1.017.016 2.365-.562 3.772C34.26 19.237 25.435 33.57 10.8 46.882M32.527 29.193c2.744.532 4.975.438 7.382.249 5.985-.462 39.38-3.737 45.156-4.009 5.777-.272 10.383.698 9.276 6.433-3.707 19.143-8.923 43.098-22.05 62.36-3.337 4.895-8.745 4.09-13.655-.78"/><path d="M31.291 43.276c6.532 1.963 15.422 7 18.519 11.09M27.264 76.892c1.636.52 4.477.543 6.37-.52 7.67-4.328 23.22-12.31 31.228-16.318"/></g><g class="kgNumbers" font-size="8" fill="gray"><text transform="translate(29.8 9.15)">1</text><text transform="translate(36 26.15)">2</text><text transform="translate(24.56 48.85)">3</text><text transform="translate(20.2 79.75)">4</text></g></svg>