<svg xmlns="http://www.w3.org/2000/svg" width="109" height="109" class="kan-g"><g class="kgPaths" fill="none" stroke="currentColor" stroke-width="3" stroke-linecap="round" stroke-linejoin="round"><path d="M37.25 20.25c.24 1.93-.07 4.46-.83 6.12-4.89 10.56-11.58 20.95-22.79 33.79M29.03 44.25c.97 1.38 1.26 2.98 1.26 4.25 0 12.12.1 28.67-.17 40-.07 3.02-.12 5.61-.12 7.5M89.25 29.25c0 1.66-.79 2.93-2.25 4.5-4.62 4.98-15.38 12.5-25.5 15.98"/><path d="M56.75 15.25c1.25 1 1.75 2.65 1.75 4.21 0 3.66.07 36.46.07 54.49 0 19.3 1.18 19.87 18.93 19.87 16.25 0 17.75-1.7 17.75-11.57"/></g><g class="kgNumbers" font-size="8" fill="gray"><text transform="translate(27.25 21.13)">1</text><text transform="translate(21.75 61.13)">2</text><text transform="translate(80.5 27.74)">3</text><text transform="translate(52.5 11.5)">4</text></g></svg>