<svg xmlns="http://www.w3.org/2000/svg" width="109" height="109" viewBox="0 0 109 109" class="kan-g"><g fill="none" stroke="currentColor" stroke-width="3" stroke-linecap="round" stroke-linejoin="round"><path d="M17.38 18.54c1.55.51 4.39.6 5.94.51 16.13-.86 41.65-3.51 59.32-3.51 2.58 0 4.13.25 5.42.5M48.96 24.62c.54.38 1.18 2.06 1.39 2.76.09.3 0 9.92.07 21.19.08 12.68-1.17 23.18-13.65 35.43M62.15 24.25c.82.35 1.31 1.57 1.47 2.27.16.7 0 52.85-.16 57.21"/><path d="M30.18 37.97c1.07.28 2.95.67 4.08.5 1.13-.17 11.75-.97 15.8-1.24M29.8 51.31c.7.19 3.45.67 4.58.5 1.13-.17 12.91-1.57 15.93-2.09M27.9 66.93c1 1.06 2.36 1.71 4.01 1.05.97-.39 12.97-5.02 17.1-6.88M64.33 36.11c3.39-.26 16.27-1.68 18.81-2.12.93-.16.28-.09 1.88-.09M64.61 50.65c3.39-.26 15.64-1.83 18.19-2.27.93-.16.28-.09 1.88-.09M65.01 66.21c3.39-.26 17.66-1.83 20.2-2.27.93-.16.28-.09 1.88-.09"/><path d="M20.83 20.46v67.77c0 3.02 1.01 3.92 2.81 3.8 10.21-.71 55.88-2.56 59.2-2.56 3.32 0 6.12.24 8.17.71"/></g><g font-size="8" fill="gray"><text transform="translate(19.5 15.5)">1</text><text transform="translate(40.5 27.06)">2</text><text transform="translate(54.5 26.5)">3</text><text transform="translate(27.5 33.5)">4</text><text transform="translate(28.5 47.91)">5</text><text transform="translate(27.5 62.83)">6</text><text transform="translate(68.5 33.5)">7</text><text transform="translate(68.5 47.5)">8</text><text transform="translate(68.5 62.5)">9</text><text transform="translate(10.5 26.5)">10</text></g></svg>