<svg xmlns="http://www.w3.org/2000/svg" width="109" height="109" class="kan-g"><g class="kgPaths" fill="none" stroke="currentColor" stroke-width="3" stroke-linecap="round" stroke-linejoin="round"><path d="M24.89 30.46c1.1.39 3.11.49 4.2.39 13.93-1.28 42.08-4.34 51.69-4.5 1.83-.03 2.92.19 3.84.38"/><path d="M53.27 11.88c.38.3 1.19 2.27 1.26 2.87.08.61-.05 30.6-.13 34.38M13.88 59.98c1.52.54 4.3.63 5.82.54 15.8-.91 50.55-5.27 70.61-5.73 2.53-.06 4.05.26 5.31.53"/><path d="M37.61 45c.66 1.21 1.28 2.47 1.34 4.23.53 16.09-2.12 38.99-19.7 47.77M70.87 41.75c.7.72 1.96 1.75 1.96 3.25 0 6.75 0 45.75-.22 52"/></g><g class="kgNumbers" font-size="8" fill="gray"><text transform="translate(18.5 30.5)">1</text><text transform="translate(44.5 12.5)">2</text><text transform="translate(6.5 61.5)">3</text><text transform="translate(28.5 45.5)">4</text><text transform="translate(62.5 42.5)">5</text></g></svg>