<svg xmlns="http://www.w3.org/2000/svg" width="109" height="109" class="kan-g"><g class="kgPaths" fill="none" stroke="#000" stroke-width="3" stroke-linecap="round" stroke-linejoin="round"><path d="M27.62 14.5C31.86 18.35 36.4 25.08 37 27M49.5 11.5c1.78 2.24 6.04 8.11 6.75 11.75M78.25 11.38c.31 1.17.04 2.02-.72 3.29-1.6 2.64-5.07 6.81-8.27 9.84M27.84 34.42c.74.74 1.62 1.83 1.81 2.99 1.11 7.07 2.33 14.25 3.58 22.59.27 1.79.54 3.63.81 5.53M30 35.64c12.75-1.67 34.38-3.91 44.27-4.89 4.19-.41 7.11 1.25 6.41 5.01-1.16 6.21-2.86 13.91-4.67 20.03-.48 1.63-.97 3.14-1.46 4.48"/><path d="M32.57 48.36c8.93-1.23 39.31-4.11 45.02-4.19M34.66 61.04C46.38 60 61 58.62 74.38 57.71M12.25 76.95c2.54.54 7.24.78 9.76.54 19.5-1.87 43.7-3.62 66.71-4.48 4.23-.16 6.79.26 8.91.53"/><path d="M52.99 35.86c.89.89 1.59 2.19 1.6 3.48.04 5.51-.01 38.66-.03 53.79v6.39"/></g><g class="kgNumbers" font-size="8" fill="gray"><text transform="translate(21.5 13.5)">1</text><text transform="translate(41.5 10.5)">2</text><text transform="translate(69.5 10.5)">3</text><text transform="translate(21.5 42.13)">4</text><text transform="translate(28.5 32.5)">5</text><text transform="translate(34.99 44.76)">6</text><text transform="translate(38.25 57.13)">7</text><text transform="translate(4.5 79.63)">8</text><text transform="translate(46.5 42.5)">9</text></g></svg>