<svg xmlns="http://www.w3.org/2000/svg" width="109" height="109" class="kan-g"><g class="kgPaths" fill="none" stroke="#000" stroke-width="3" stroke-linecap="round" stroke-linejoin="round"><path d="M53.06 13.88c1.34 1.34 1.76 2.74 1.76 4.5v41.75M56.25 34.75C65.25 34 74.5 32 75.75 32s3.5 0 4.5.25M28.88 62.25c1.21 1.11 1.82 2.2 2.16 3.82 1.84 8.68 2.71 14.43 4.22 22.88.34 1.92.57 3.77.82 5.46M31.37 63.88c13.12-1.77 33.75-3.62 45.75-4.41 3.34-.22 5.66 1.66 4.87 5.16-1.51 6.62-3.57 13.72-5.58 22.07M37.13 90.81c6.62-.7 22.77-1.73 34.38-2.66 2.84-.23 5.4-.44 7.46-.61"/></g><g class="kgNumbers" font-size="8" fill="gray"><text transform="translate(43.5 14.5)">1</text><text transform="translate(59.5 30.13)">2</text><text transform="translate(23.25 71.5)">3</text><text transform="translate(30.5 60.5)">4</text><text transform="translate(39.5 87.05)">5</text></g></svg>