<svg xmlns="http://www.w3.org/2000/svg" width="109" height="109" class="kan-g"><g fill="none" stroke="#000" stroke-width="3" stroke-linecap="round" stroke-linejoin="round"><path d="M55.25 34.5c9-.75 19-2.75 20.25-2.75s3.5 0 4.5.25M51.81 14.13c.76.45 2.36 3.35 2.51 4.25.15.9-.1 36.15-.25 41.75M29.16 62.76c.56.55 1.13 1.01 1.37 1.69 1.93 5.44 4.23 20.44 5.55 30.21M31.62 64.12c13.61-2.28 39.29-4.28 46.31-5.05 2.57-.28 4.11 2.83 3.74 4.49-1.52 6.85-3.42 14.43-5.51 23.12M36.63 91.06c8.24-.87 31.63-2.65 42.09-3.52"/></g><g font-size="8" fill="gray"><text transform="translate(59.5 30.13)">1</text><text transform="translate(43.5 14.5)">2</text><text transform="translate(23.25 71.5)">3</text><text transform="translate(30.5 60.5)">4</text><text transform="translate(39.5 87.05)">5</text></g></svg>