<svg xmlns="http://www.w3.org/2000/svg" width="109" height="109" class="kan-g"><g fill="none" stroke="currentColor" stroke-width="3" stroke-linecap="round" stroke-linejoin="round"><path d="M40.82 16c.05.33.21.94-.11 1.3-3.87 4.59-9.61 8.8-19.71 12.49M18.37 30.01c.85.46 1.36 2.07 1.53 2.99.17.92.36 26.44.17 28.72-.17 2.07.51.92-.51 3.22-1.02 2.3-1.02 2.76 1.02 1.15C22.61 64.48 38 55.75 44 53.75"/><path d="M43.97 30.93c.78.82 1.42 4.28 1.42 6.39 0 16.44.61 40.44-15.5 56.34M29.27 38.33c2.31 1.92 5.97 7.9 6.54 10.88M61.75 25.74c.86.21 2.57 1.5 4.28 1.28 1.71-.21 20.76-2.64 22.9-2.85 2.14-.21 5.35-.43 5.56 4.07.1 2.15-1.7 26.56-3.92 36.38C88 76 83.94 66.69 83.3 66.26"/><path d="M64.22 27.86c.03 7.39 0 60.84-.2 66.64M73.52 38.83c2.4 2.27 6.19 9.35 6.79 12.88"/></g><g font-size="8" fill="gray"><text transform="translate(32.5 14.5)">1</text><text transform="translate(12.5 37.63)">2</text><text transform="translate(36.5 37.63)">3</text><text transform="translate(23.5 37.63)">4</text><text transform="translate(66.5 23.5)">5</text><text transform="translate(56.25 34.5)">6</text><text transform="translate(67.5 38.5)">7</text></g></svg>