<svg xmlns="http://www.w3.org/2000/svg" width="109" height="109" viewBox="0 0 109 109" class="kan-g"><g class="kgPaths" fill="none" stroke="currentColor" stroke-width="3" stroke-linecap="round" stroke-linejoin="round"><path d="M24.75 27.02c.63.61 1.27 1.11 1.54 1.87.16.43.36.91.47 1.45 1.43 6.85 3.26 16.09 4.65 24.55.42 2.55.8 5.04 1.12 7.36M27.52 29.03c18.68-2.16 39.17-4.27 49.37-5.15 4.42-.38 6.95.77 5.84 5.51-1.67 7.18-3.48 16.11-5.17 24.05M33.16 58.55c9.14-.73 25.38-2.22 39.33-3.49 2.97-.27 5.85-.53 8.52-.77M40.49 67.89c.14 1.35-.01 2.8-.77 3.97-3.22 5.02-10.7 13.04-22.16 21.36M67.52 68.58c7.78 4.13 20.1 17.46 22.04 23.88"/></g><g class="kgNumbers" font-size="8" fill="gray"><text transform="translate(21 37.25)">1</text><text transform="translate(31.25 25.25)">2</text><text transform="translate(37.25 54.25)">3</text><text transform="translate(32.25 71.25)">4</text><text transform="translate(60.25 70.25)">5</text></g></svg>