<svg xmlns="http://www.w3.org/2000/svg" width="109" height="109" class="kan-g"><g class="kgPaths" fill="none" stroke="currentColor" stroke-width="3" stroke-linecap="round" stroke-linejoin="round"><path d="M10.25 33.26c.37.5.76.92.92 1.55 1.29 4.99 3.34 18.74 4.23 27.69M12.58 35.16C20.25 33.5 29.13 32.65 33.5 32c1.6-.24 2.56 1.42 2.33 2.83-.95 5.82-3.05 13.33-4.46 21.38M15.57 58.59c5.14-.74 11.33-1.03 18.39-2.17M52.18 35.03c.39 1.69.69 3.63.45 5.69C51 54.75 45 77.75 29.75 91.5M57.42 15.75c1.56.72 3.03 1.66 4.02 3.54C70.53 36.54 81.48 72.31 90.1 83.1c3.71 4.65 5.04 7.15 8.65 8.65"/></g><g class="kgNumbers" font-size="8" fill="gray"><text transform="translate(5.35 40.85)">1</text><text transform="translate(14.16 31.5)">2</text><text transform="translate(17.5 55.5)">3</text><text transform="translate(43.5 36.5)">4</text><text transform="translate(50.5 16.33)">5</text></g></svg>