<svg xmlns="http://www.w3.org/2000/svg" width="109" height="109" class="kan-g"><g fill="none" stroke="#000" stroke-width="3" stroke-linecap="round" stroke-linejoin="round"><path d="M49.45 10.5c2.43 1.27 5.05 4.48 6.4 8.65M21.65 27.6c1.13.07 3.25.4 4.36.36 9.2-.34 44.43-4.18 56.48-4.37 1.86-.03 2.81.03 4.2.46M65.64 27.74c.64.96 1.42 1.74.32 3.39-10.46 15.62-29.21 31.12-51 39.62"/><path d="M35.27 33.32c14.32 7.97 34.79 23.01 51.77 31.32 3.19 1.57 5.55 1.54 8.32 1.68M30.98 72.27c.47.46.95.84 1.15 1.42 1.63 4.55 3.57 16.1 4.68 24.28M32.4 73.83c11.48-1.91 34.13-4.42 40.05-5.06 2.17-.23 3.47 2.37 3.16 3.76-1.28 5.73-2.61 11.72-5 20.43"/><path d="M37.28 95.95c6.95-.73 26.67-2.55 35.49-3.28"/></g><g font-size="8" fill="gray"><text transform="translate(43.5 11.63)">1</text><text transform="translate(13.5 26.5)">2</text><text transform="translate(56.5 34.48)">3</text><text transform="translate(29.5 37.4)">4</text><text transform="translate(24.5 78.5)">5</text><text transform="translate(35.5 69.5)">6</text><text transform="translate(40.5 92.18)">7</text></g></svg>