<svg xmlns="http://www.w3.org/2000/svg" width="109" height="109" class="kan-g"><g class="kgPaths" fill="none" stroke="currentColor" stroke-width="3" stroke-linecap="round" stroke-linejoin="round"><path d="M11.25 33.29c.37.51.76.94.92 1.58C13.46 39.93 15.51 53.9 16.4 63M13.58 35.72C23 33.5 29.63 32.66 34 31.99c1.6-.24 2.56 1.44 2.33 2.87-.95 5.92-2.55 14.07-3.96 22.25"/><path d="M16.57 59.05c5.14-.75 10.83-1.05 17.89-2.21M65.17 10.75c.59.63.64 3.1.2 3.88C59.75 24.5 54 31.75 46.3 41.3c-2.15 2.67-2.54 2.97 1.18 2.28 9.05-1.68 26.34-5.57 38.94-8.39"/><path d="M77.25 24.83c5.57 3.6 14.38 14.79 15.77 20.39M56.47 49.21c.78.79 1.39 2.96 1.38 4.63C57.75 68.75 53 90 34.89 98.17M72.84 43.87c.61 1.54 1.09 3.35 1.12 5.72.16 10.58.07 25.86.07 33.06 0 12.1-.04 13.91 12.44 13.91 9.77 0 10.94-2.56 10.94-13.3"/></g><g class="kgNumbers" font-size="8" fill="gray"><text transform="translate(6.85 43.85)">1</text><text transform="translate(15.66 32.85)">2</text><text transform="translate(18.71 58.85)">3</text><text transform="translate(58.25 12.4)">4</text><text transform="translate(78.25 19.33)">5</text><text transform="translate(48.25 55.25)">6</text><text transform="translate(65.25 53.18)">7</text></g></svg>