<svg xmlns="http://www.w3.org/2000/svg" width="109" height="109" class="kan-g"><g class="kgPaths" fill="none" stroke="currentColor" stroke-width="3" stroke-linecap="round" stroke-linejoin="round"><path d="M10.25 33.29c.37.51.76.94.92 1.58 1.29 5.07 3.34 18.54 4.23 27.63M12.58 35.22C22 33 28.62 32.16 32.99 31.49c1.6-.24 2.56 1.44 2.33 2.87-.95 5.92-2.55 14.07-3.96 22.25M15.57 58.55c5.14-.75 11.33-1.05 18.39-2.21M53.88 20.27c.03.67.2 1.79-.07 2.71-2.23 7.72-6.41 17.9-12.66 27.6M51.43 36.86c.89.38 2.51.46 3.4.38C65.71 36.2 76.5 34 87.33 31.92c1.45-.28 4.36.18 5.1.37M40.09 61.38c1.43.54 4.06.62 5.5.54 14.92-.9 35.67-5.16 50.32-5.14 2.39 0 3.82.25 5.02.52"/><path d="M68.41 10.88c.71.44 2.37 2.37 2.37 4.2 0 .9-.09 78.63-.24 84.17"/></g><g class="kgNumbers" font-size="8" fill="gray"><text transform="translate(4.5 40.35)">1</text><text transform="translate(13.5 31.5)">2</text><text transform="translate(17.71 55.35)">3</text><text transform="translate(45.5 21.5)">4</text><text transform="translate(56.5 33.5)">5</text><text transform="translate(41.5 58.5)">6</text><text transform="translate(60.25 11.5)">7</text></g></svg>