<svg xmlns="http://www.w3.org/2000/svg" width="109" height="109" class="kan-g"><g class="kgPaths" fill="none" stroke="currentColor" stroke-width="3" stroke-linecap="round" stroke-linejoin="round"><path d="M28.88 18.24c2.38.38 4.9.48 7.15.25 9.85-.99 24.48-2.35 35.1-2.68 2.29-.07 5.37.04 7.63.46M53.24 20c.38 1 .13 2.25-.21 3.39-1.56 5.15-7.15 24.74-9.53 31.36"/><path d="M30.23 37.96c1.64.91 4.46.88 6.02.65 11.64-1.7 26.25-3.99 34.44-4.34 2.14-.09 3.44 1.35 3 3.24-1.01 4.42-2.82 12.61-3.94 16.48M12.63 57.98c2.94.82 6.37.69 9.38.45 14.37-1.12 44.86-3.19 63.61-3.83 3.55-.12 6.98-.08 10.5.5M32.6 70.5c.53.75.9 1.75 1.2 3.27 1.01 5.1 2.38 15 3.2 21.48M34.73 72.59c8.03-.97 25.84-2.62 33.39-3.35 3.51-.34 5.7-.06 4.73 4.04-1.11 4.69-2.68 9.71-4.14 16.2M38.19 92.16c6.47-.33 19.99-1.2 28.96-1.66 2.2-.11 4.13-.2 5.61-.25"/></g><g class="kgNumbers" font-size="8" fill="gray"><text transform="translate(21.25 18.25)">1</text><text transform="translate(44.25 28.25)">2</text><text transform="translate(22.25 38.88)">3</text><text transform="translate(5.25 60.25)">4</text><text transform="translate(26.25 79.25)">5</text><text transform="translate(35.25 68.88)">6</text><text transform="translate(40.25 88.38)">7</text></g></svg>