<svg xmlns="http://www.w3.org/2000/svg" width="109" height="109" class="kan-g"><g fill="none" stroke="#000" stroke-width="3" stroke-linecap="round" stroke-linejoin="round"><path d="M29.75 16.79c.5.46 1.01.85 1.22 1.43 1.72 4.59 4.29 16.77 5.47 25.02M31.35 18.9c13.15-1.4 38.04-3.55 43.86-4.15 2.13-.22 3.41 1.31 3.1 2.6-1.26 5.37-2.73 12.85-4.61 20.27M36.67 41.21c6.84-.68 29.77-1.86 39.16-2.91M19.15 59.08c1.55 0 3.89.32 5.96.2 9.4-.53 46.3-3.04 60.54-4.06 2.06-.15 2.59-.2 3.89 0"/><path d="M52.25 46.25c1.25.5 2.25 3.22 2.25 4.25 0 7-.25 42.73-.25 44 0 10-5.25 2.5-6.75 1.25"/><path d="M52.28 58.68C45.81 69.44 28.97 84.66 15.5 90.75M55.21 58.48c4.92 4.26 26.51 24.42 31.86 28.62 1.81 1.42 3.37 2.03 5.18 2.44"/></g><g font-size="8" fill="gray"><text transform="translate(24.5 25.5)">1</text><text transform="translate(34.5 15.5)">2</text><text transform="translate(40.25 38.5)">3</text><text transform="translate(19.5 56.5)">4</text><text transform="translate(45.25 49.33)">5</text><text transform="translate(37.25 67.25)">6</text><text transform="translate(68.5 66.18)">7</text></g></svg>