<svg xmlns="http://www.w3.org/2000/svg" width="109" height="109" viewBox="0 0 109 109" class="kan-g"><g class="kgPaths" fill="none" stroke="currentColor" stroke-width="3" stroke-linecap="round" stroke-linejoin="round"><path d="M10.25 33.29c.37.51.76.94.92 1.58C12.46 39.93 14.51 53.9 15.4 63M11.58 35.72C21 33.5 28.63 31.66 33 30.99c1.6-.24 2.56 1.44 2.33 2.87-.98 6.11-2.58 14.7-3.96 22.75M15.07 59.05c5.14-.75 11.33-1.05 18.39-2.21M57.6 13c.05.82.27 2.18-.1 3.29-2.44 7.25-9.05 20.86-18.14 31.44M54.49 29.18c.98.61 2.85.82 4.42.41S86 25.31 89.9 24.95c1.85-.17 3.99 1.12 3.87 3.41C93 42 90.75 57 86.17 72.07c-2.09 6.88-4.96 3.03-7.27.48"/><path d="M48.03 45.74c1.28.94 2.37.94 4.25.63 3.81-.63 18.64-3.27 19.8-3.39 1.54-.16 2.75 1.03 2.2 3.47-.16.73-1.28 7.05-3.12 13.53M52.24 62.85c4.12-.45 15.57-1.79 21.43-2.18"/><path d="M50.52 46.52c.9 1.16 1.12 1.5 1.11 3.3-.03 5.74.15 28.84.15 33.86 0 10.9 2.64 12.26 25.45 12.26 19.06 0 21.4-3.25 21.4-13.65"/></g><g class="kgNumbers" font-size="8" fill="gray"><text transform="translate(5.5 43.85)">1</text><text transform="translate(14.5 31.35)">2</text><text transform="translate(18.71 55.5)">3</text><text transform="translate(47.5 12.5)">4</text><text transform="translate(60.5 26.5)">5</text><text transform="translate(53.5 42.25)">6</text><text transform="translate(56.5 59.5)">7</text><text transform="translate(44.5 54.5)">8</text></g></svg>