<svg xmlns="http://www.w3.org/2000/svg" width="109" height="109" class="kan-g"><g fill="none" stroke="#000" stroke-width="3" stroke-linecap="round" stroke-linejoin="round"><path d="M10.75 33.29c.37.51.76.94.92 1.58C12.96 39.93 14.51 52.9 15.4 62M13.08 35.22c3.17-.97 16.05-2.56 20.42-3.23 1.6-.24 2.56 1.44 2.33 2.87-.95 5.92-3.05 12.57-4.46 20.75M15.57 58.55c5.14-.75 11.33-1.05 18.39-2.21M49.96 16.59c.59 1.03.98 2.05 1.18 3.06.2 1.01.43 69.08.36 71.31M52.3 17.73c2.27-.1 24.12-2.98 25.81-3.16 3.03-.31 4.18 3.51 3.81 4.98-.36 1.41-.18 48.21-.29 68.39"/><path d="M52.38 40.4c4.82-.62 9.65-1.15 14.49-1.63 1.31-.13 2.62-.26 3.89-.37M52.84 63.86c4.44-.26 8.87-.68 13.31-1.02 1.3-.1 2.61-.2 3.89-.29M33.54 92.29c1.42.53 4.04.61 5.46.53 14.83-.88 42.21-3.54 57.14-3.54 2.38 0 3.8.25 4.99.51"/></g><g font-size="8" fill="gray"><text transform="translate(4.5 41.5)">1</text><text transform="translate(14.66 31.5)">2</text><text transform="translate(18.5 54.5)">3</text><text transform="translate(43.5 23.5)">4</text><text transform="translate(54.5 13.5)">5</text><text transform="translate(56.5 36.5)">6</text><text transform="translate(56.5 60.5)">7</text><text transform="translate(31.5 89.5)">8</text></g></svg>