<svg xmlns="http://www.w3.org/2000/svg" width="109" height="109" viewBox="0 0 109 109" class="kan-g"><g class="kgPaths" fill="none" stroke="currentColor" stroke-width="3" stroke-linecap="round" stroke-linejoin="round"><path d="M10.25 34.38c.33.45.67.83.81 1.4 1.15 4.49 3.02 17.86 3.8 25.92M12.31 36.54c8.35-1.97 13.83-3.16 17.7-3.75 1.42-.22 2.27 1.28 2.06 2.54-.84 5.24-1.82 12.35-3.07 19.59M15.02 58.03c4.55-.67 10.04-1.43 16.29-2.46M53.62 16.77c.18 1.93-.05 4.46-.64 6.11-3.76 10.54-8.89 23.8-17.51 36.63M46.69 44.35c.38 1.04 1.02 3.21 1.02 4.66 0 13.74-.44 34.99-.44 43.85M55.09 41.25c1.17.79 3.31.5 4.49.29 8.17-1.45 22.58-3.68 33.73-4.63 1.95-.17 3.12-.12 4.1.28"/><path d="M81.58 13.43c1.17 1.32 1.7 2.27 1.78 6.26.41 19.16-.26 63.23-.26 69.75 0 12.22-6.65 2.35-8.89.33M62.51 55.15c2.93 2.27 7.58 9.34 8.32 12.87"/></g><g class="kgNumbers" font-size="8" fill="gray"><text transform="translate(6.35 43.85)">1</text><text transform="translate(15.66 32.85)">2</text><text transform="translate(18.71 53.85)">3</text><text transform="translate(44.5 16.5)">4</text><text transform="translate(40.5 61.5)">5</text><text transform="translate(54.5 38.5)">6</text><text transform="translate(73.5 13.5)">7</text><text transform="translate(55.25 57.1)">8</text></g></svg>