<svg xmlns="http://www.w3.org/2000/svg" width="109" height="109" class="kan-g"><g class="kgPaths" fill="none" stroke="#000" stroke-width="3" stroke-linecap="round" stroke-linejoin="round"><path d="M8.75 33.29c.37.51.76.94.92 1.58 1.29 5.07 2.84 18.54 3.73 27.63M11.08 35.22C20.5 33 27.63 32.16 32 31.49c1.6-.24 2.69 1.47 2.33 2.87-1.57 6.14-3.05 14.57-4.46 22.75"/><path d="M13.57 59.05c5.14-.75 11.33-1.05 18.39-2.21M41.45 21.23c.9.39 4.06.43 4.96.39 11.94-.47 31.69-3.7 45.93-3.93 1.5-.02 2.91.19 3.66.39M41.79 42.38c.82.79 1.86 3.36 2.02 4.4 1.11 7.58 2.45 32.29 4.02 46.63M43.39 44.67c12.48-1.52 41.38-4.69 49.89-4.92 3.53-.1 5.11 2.7 4.68 6.41-1.05 9.01-2.36 32.28-5.71 45.72"/><path d="M61.95 23.1c.37 1.32.71 4.23.63 6.07-.65 16.53-1.89 37.79-9.55 44.11M73.92 21.77c.73 1.1 1.36 2.4 1.36 4.09 0 14.82-.35 28.65-.35 33.14 0 5.76.82 7.43 6.36 7.43 4.69 0 7.78-1.16 8.04-1.5M48.5 90.74c10.47-.54 31.07-2.26 43.81-2.49"/></g><g class="kgNumbers" font-size="8" fill="gray"><text transform="translate(2.5 40.5)">1</text><text transform="translate(11.5 31.5)">2</text><text transform="translate(16.21 55.35)">3</text><text transform="translate(41.5 18.5)">4</text><text transform="translate(35.5 50.5)">5</text><text transform="translate(46.75 41.5)">6</text><text transform="translate(54.5 30.5)">7</text><text transform="translate(67.5 28.5)">8</text><text transform="translate(51.5 87.5)">9</text></g></svg>