<svg xmlns="http://www.w3.org/2000/svg" width="109" height="109" class="kan-g"><g class="kgPaths" fill="none" stroke="currentColor" stroke-width="3" stroke-linecap="round" stroke-linejoin="round"><path d="M11.37 33.25c.36.5.72.92.88 1.55 1.24 4.99 2.72 18.74 3.57 27.7M13.6 35.63c9.15-2.13 16.69-3.48 20.88-4.13 1.53-.24 2.45 1.42 2.23 2.83-.91 5.83-2.46 13.36-3.81 21.42M15.99 59.12c4.91-.74 11.69-1.52 18.43-2.66M64.42 13c.06 1.05-.21 2.79-.62 4.2-2.88 9.8-9.18 28.02-21.48 40.23M65.08 16.58c4.04 6.91 23.43 29.48 27.88 34.54 1.51 1.72 3.45 2.45 4.96 2.94M54.05 51.89c.48.24 2.71.26 3.19.24 4.99-.27 11.13-2.16 18.26-2.2.8-.01 1.96.11 2.36.23M49.59 67.33c.47.59 1.53 2.01 1.65 2.79 1.56 10.15 2.74 16.95 3.8 25.41M52.31 68.34c10.94-1.59 24.62-2.52 30.08-3.29 1.99-.28 3.19 1.67 2.91 3.32-1.18 6.85-1.89 12.24-4.32 21.83M55.25 93.31c6.41-.87 18.32-1.61 27.72-2.25"/></g><g class="kgNumbers" font-size="8" fill="gray"><text transform="translate(5.5 42.5)">1</text><text transform="translate(15.66 31.5)">2</text><text transform="translate(19.21 55.35)">3</text><text transform="translate(56.5 14.5)">4</text><text transform="translate(72.5 23.33)">5</text><text transform="translate(57.5 48.5)">6</text><text transform="translate(43.25 74.5)">7</text><text transform="translate(53.5 64.5)">8</text><text transform="translate(59.5 89.5)">9</text></g></svg>