<svg xmlns="http://www.w3.org/2000/svg" width="109" height="109" class="kan-g"><g class="kgPaths" fill="none" stroke="#000" stroke-width="3" stroke-linecap="round" stroke-linejoin="round"><path d="M12.75 29.88c.81.81 1.25 2.12 1.47 3.38.95 5.48 1.66 13.3 2.38 21.01.18 1.93.36 3.86.55 5.74M14.95 32.17c9.63-1.25 16.32-1.84 20.93-2.43 2.75-.35 4.62.21 4.08 3.41-.97 5.86-2.1 11.6-3.53 19.71M17.58 55.42c5.75-.55 10.51-.99 17.18-1.49 1.36-.1 2.81-.21 4.36-.31M49.52 18.57c.83.83 1.53 2.04 1.53 2.96 0 .7 1.72 15.76 2.55 23.23.27 2.39.44 4 .44 4.11M51.69 19.93c10.39-1.59 27.59-3.13 32.94-3.57 2.85-.23 4.98.98 4.46 4.14-.86 5.38-1.96 12.65-4.32 21.79-.29 1.13-.6 2.29-.94 3.48"/><path d="M53.33 32.68c7.42-.68 25.79-2.55 33.22-2.73M54.94 45.66c6.06-.5 19.81-1.91 28.6-2.25M44.02 58.49c.87.87 1.51 2.2 1.65 3.25.24 1.81 2.12 17.51 3.21 26.51.42 3.48.73 5.96.79 6.25M46.12 59.87c7-.74 35.87-2.93 43.75-3.51 4.02-.29 5.43 1.54 4.85 5.4-.92 6.07-3.14 17.17-4.67 24.9-.32 1.6-.6 3.05-.84 4.29"/><path d="M48.44 73.97c9.31-.72 38.22-2.34 43.18-2.34M50.24 89.52c8.94-.57 27.23-1.09 38.37-1.58"/></g><g class="kgNumbers" font-size="8" fill="gray"><text transform="translate(8.25 40.63)">1</text><text transform="translate(18.75 28.63)">2</text><text transform="translate(20.5 51.5)">3</text><text transform="translate(42.75 27.13)">4</text><text transform="translate(53.5 16.63)">5</text><text transform="translate(57.75 29.5)">6</text><text transform="translate(58.5 42.5)">7</text><text transform="translate(38.25 69.13)">8</text><text transform="translate(46.99 56.53)">9</text><text transform="translate(51.5 70.5)">10</text><text transform="translate(52.5 85.63)">11</text></g></svg>