<svg xmlns="http://www.w3.org/2000/svg" width="109" height="109" class="kan-g"><g class="kgPaths" fill="none" stroke="#000" stroke-width="3" stroke-linecap="round" stroke-linejoin="round"><path d="M11.25 34.06c.35.45.72.82.87 1.38 1.23 4.42 3.7 18.12 4.54 26.06M13.46 36.18c8.94-1.94 15.77-3.11 19.91-3.69 1.52-.21 2.43 1.26 2.21 2.51-.9 5.17-2.45 12.65-3.78 19.8M16.32 57.86c4.87-.66 11.25-1.42 17.93-2.43M63.48 9.42c.26.08.26 1.94.09 2.18-1.08 1.59-3.07 4.89-5.23 8.35M49.75 21.26c.43.54 1.06.95 1.06 1.67s2.67 18.88 2.67 19.24c0 .36.14 1.12.29 1.84M51.52 21.48c2.43-.09 24.88-2.68 27.09-2.79 1.85-.09 3.14 1.22 3.15 3.04 0 .87-1.22 10.01-2.17 19.8"/><path d="M51.93 27.96c4.79-.12 25.14-1.61 29.03-1.61M52.63 35.24c6.44-.3 21.3-2.05 27.55-2.05M53.86 42.6c6.14-.35 19.04-2.3 25.29-2.3M42.99 48.65c.34.3.84 1.51 1.03 1.89 1.5 3.13 2.87 11.03 3.76 16.86M45.08 50.08c11.88-.77 31.25-3.09 40.12-3.74 3.26-.24 4.55 1.41 4.05 4.41-.53 3.17-2 9.5-3.27 14.5"/><path d="M65.9 49.14c-.16 1.86-.3 14.19-.29 15.74"/><path d="M47.22 57.66c3.87-.3 36.87-2.52 40.07-2.64M48.4 66.55C59 66 73 64.5 86.08 64.24M34.38 75.57c1.26.46 3.57.53 4.84.46 13.13-.76 39.08-3.6 55.75-3.98 2.1-.05 3.36.22 4.42.45M55.65 75.25c.85.85.81 1.62.81 2.47 0 4.31-4.96 17.53-16.46 22.28M75.63 73.91c.82.38 1.31 1.69 1.47 2.44.16.75 0 18.97-.16 23.66"/></g><g class="kgNumbers" font-size="8" fill="gray"><text transform="translate(5.5 41.85)">1</text><text transform="translate(15.5 32.5)">2</text><text transform="translate(19.5 54.85)">3</text><text transform="translate(54.5 10.5)">4</text><text transform="translate(42.5 27.5)">5</text><text transform="translate(52.5 18.5)">6</text><text transform="translate(56.5 27.5)">7</text><text transform="translate(56.5 34.1)">8</text><text transform="translate(57.5 40.03)">9</text><text transform="translate(35.5 59.5)">10</text><text transform="translate(44.25 47.88)">11</text><text transform="translate(69.25 53.8)">12</text><text transform="translate(49.5 55.5)">13</text><text transform="translate(50.5 64.5)">14</text><text transform="translate(32.5 72.5)">15</text><text transform="translate(44.5 84.5)">16</text><text transform="translate(66.5 82.5)">17</text></g></svg>