<svg xmlns="http://www.w3.org/2000/svg" width="109" height="109" viewBox="0 0 109 109" class="kan-g"><g class="kgPaths" fill="none" stroke="currentColor" stroke-width="3" stroke-linecap="round" stroke-linejoin="round"><path d="M19 16.82c1.09 1.09 1.61 2.51 1.61 4.41 0 14.65-.22 44.9-.22 71.53 0 1.95-.06 3.86-.09 5.75M21.52 18.67C41.38 16.75 74.03 13.5 85 13.5c3.38 0 5 1.85 5 5.25 0 15.36-.04 47.89-.08 70.62v4.88"/><path d="M35.12 33.88c1.32.28 4.2.44 5.51.28 10.47-1.29 20.62-2.54 28.62-3.13 2.02-.15 3.88-.19 5.56.04M52.8 34.89c.96.97 1.47 2.48 1.47 3.81 0 3.99-.13 24.74-.09 33.55"/><path d="M37.58 52.16c1.79.22 3.41.14 5.36-.08 7.56-.83 17.56-1.99 25.38-2.8 1.25-.13 4.02-.15 5.89.17M31.08 75.14c1.54.36 3.85.28 5.19.16 9.98-.92 25.85-2.67 37.03-3.54 2.15-.17 5.04-.18 6.12.13M67.75 56.62c3 1.75 6.12 5.12 8 8.38M21.5 93.01c14.25-.51 48.38-1.89 67-2.51"/></g><g class="kgNumbers" font-size="8" fill="gray"><text transform="translate(12.5 25.63)">1</text><text transform="translate(22.5 14.5)">2</text><text transform="translate(27.75 35.5)">3</text><text transform="translate(45.75 43.5)">4</text><text transform="translate(30.5 54.13)">5</text><text transform="translate(29.25 70.63)">6</text><text transform="translate(77.25 60.13)">7</text><text transform="translate(25.5 88.63)">8</text></g></svg>