<svg xmlns="http://www.w3.org/2000/svg" width="109" height="109" class="kan-g"><g fill="none" stroke="#000" stroke-width="3" stroke-linecap="round" stroke-linejoin="round"><path d="M18.75 16.32c.75 1.43 1.34 2.51 1.36 4.41.14 14.27.14 48.52-.31 75.77M19.73 18.15c18.02-1.65 53.95-3.65 66.02-3.65 2.75 0 3.55 2.49 3.5 5.5-.25 15.75-1 53.75-.5 76"/><path d="M51.96 22c.07.8.31 2.11-.14 3.23-2.8 7.09-11.66 21.57-22.04 30.18"/><path d="M51.13 25.82c4.53 4.09 21 20.63 24.83 24.03 1.3 1.15 2.96 1.65 4.26 1.97M44.264 46.803c1.76.72 3.84.36 5.65.14 2.902-.32 7.97-.51 12.121-.99 1.312-.17 2.518.11 4.008.323M41.503 56.044c.61.15 3 1 4.21.87 3.29-.37 17.99-4.02 19.51-4.17 1.52-.15 4.28-.29 3.95 2.89-.43 4.17-2.566 10.448-4.183 14.756-1.89 3.94-3.18 3.45-6.23.46"/><path d="M48.703 57.044c.87.87 1.8 2 1.8 3.5 0 7.36-.267 13.176-.1 19.824-.02 3.3-.05 5.71-.08 6.51M20.25 93.01c13.07 0 49.96-1.1 68-1.51"/></g><g font-size="8" fill="gray"><text transform="translate(12.5 25.5)">1</text><text transform="translate(24.25 14.5)">2</text><text transform="translate(43.5 26.5)">3</text><text transform="translate(59.5 30.5)">4</text><text transform="translate(46.3 44.7)">5</text><text transform="translate(34.7 60)">6</text><text transform="translate(42.1 67)">7</text><text transform="translate(24.5 89.5)">8</text></g></svg>