<svg xmlns="http://www.w3.org/2000/svg" width="109" height="109" viewBox="0 0 109 109" class="kan-g"><g class="kgPaths" fill="none" stroke="currentColor" stroke-width="3" stroke-linecap="round" stroke-linejoin="round"><path d="M13.5 47.89c2.16.41 4.33.5 6.52.26 5.46-.72 13.66-2.56 18.37-3.22 1.53-.26 3.07-.31 4.62-.17"/><path d="M28.12 20.75c1.13 1.13 1.21 2.38 1.21 3.75 0 1.02.03 42 .03 49.25"/><path d="M13.25 80.27c1.5.73 3.04 1 5.57-.29 7.05-3.58 16.75-8.28 23.8-11.86M48.75 32.99c.82.82 1.16 1.87 1.25 2.63.7 6 1.72 16.15 2.71 26.24.25 2.53.5 5.06.74 7.52M50.69 34.67c14.18-2.05 29.39-3.1 37.82-3.72 3.5-.26 6.05.56 5.67 4.44-.5 5.13-1.5 13.85-2.87 23.74-.37 2.67-.77 5.42-1.19 8.21"/><path d="M52.46 50.22c9.67-1.1 27.79-2.47 39.36-2.97M54.26 67.03c11.49-1.16 21.61-2.16 35.29-2.85"/><path d="M69.12 11.75c.94.94 1.21 2.38 1.21 3.75l.03 70.12V99"/></g><g class="kgNumbers" font-size="8" fill="gray"><text transform="translate(6.5 47.5)">1</text><text transform="translate(17.5 20.5)">2</text><text transform="translate(4.5 79.5)">3</text><text transform="translate(42 40.65)">4</text><text transform="translate(52.5 31.5)">5</text><text transform="translate(55.5 46.5)">6</text><text transform="translate(56.5 63.5)">7</text><text transform="translate(58.5 12.5)">8</text></g></svg>