<svg xmlns="http://www.w3.org/2000/svg" width="109" height="109" class="kan-g"><g fill="none" stroke="currentColor" stroke-width="3" stroke-linecap="round" stroke-linejoin="round"><path d="M66.27 13.5c.08.31.33.9-.17 1.26-6.17 4.42-15.28 8.47-31.35 12.04M25.25 39.15c1.1.45 3.11.57 4.21.45 7-.77 44.04-5.1 51.94-5.04 1.83.01 2.93.21 3.85.44M18 58.27c1.29.53 2.8.63 4.1.53 11.9-.97 47.65-5.8 61.62-6.54 2.16-.11 3.45.25 4.53.51"/><path d="M32.25 47.25c1.47 1.48 1.94 1.93 2.1 2.84 1.47 8.52 2.73 17.31 3.15 20.41M75.76 43.25c.26 1.15.6 2.01.31 3.43C74.37 55 73.6 59.17 71.75 67M29.25 76.15c1.1.45 3.11.57 4.21.45 7-.77 39.04-4.1 46.94-4.04 1.83.01 2.93.21 3.85.44M23.25 95.15c1.1.45 3.11.57 4.21.45 7-.77 50.29-4.6 59.44-5.04 1.83-.09 2.93.21 3.85.44"/><path d="M52.25 26.25c1.25.5 2 2.25 2.25 3.25s.25 53 .25 63"/></g><g font-size="8" fill="gray"><text transform="translate(57.5 13.63)">1</text><text transform="translate(18.5 40.63)">2</text><text transform="translate(10.5 59.5)">3</text><text transform="translate(24.5 51.5)">4</text><text transform="translate(66.5 45.5)">5</text><text transform="translate(21.5 77.5)">6</text><text transform="translate(16.5 96.13)">7</text><text transform="translate(45.5 33.5)">8</text></g></svg>