<svg xmlns="http://www.w3.org/2000/svg" width="109" height="109" class="kan-g"><g class="kgPaths" fill="none" stroke="#000" stroke-width="3" stroke-linecap="round" stroke-linejoin="round"><path d="M76.68 14.5c-.68 1.5-1.45 2.31-2.28 2.83-10.36 6.41-23.92 11.04-50.9 16.21M14.38 57.48c4.99.78 9.94.32 15.01-.12C45 56 66.09 54.27 81.5 53.69c4.23-.38 8.44-.25 12.62.38"/><path d="M53.25 30.25c1.12 1.12 1.25 2.62 1.25 3.75v55.75M23.5 92c3.45.46 7.9.44 11.38.16 14-1.16 27-1.78 42.01-2.02 3.77-.06 7.61-.01 11.24.77"/></g><g class="kgNumbers" font-size="8" fill="gray"><text transform="translate(67.5 13.63)">1</text><text transform="translate(6.5 56.55)">2</text><text transform="translate(46.25 39.5)">3</text><text transform="translate(16.5 91.5)">4</text></g></svg>