<svg xmlns="http://www.w3.org/2000/svg" width="109" height="109" viewBox="0 0 109 109" class="kan-g"><g class="kgPaths" fill="none" stroke="currentColor" stroke-width="3" stroke-linecap="round" stroke-linejoin="round"><path d="M25.77 23.78c1.1.39 3.11.45 4.21.39 11.43-.66 35.86-4.72 48.92-4.7 1.83 0 2.93.19 3.84.38"/><path d="M52.15 10.5c.9.36 1.45 1.63 1.63 2.35.18.72.5 13.43.32 17.95M33.14 33.61c.88.27 2.48.29 3.35.27 11.57-.32 25.83-3.9 38.05-3.87 1.46 0 2.33.13 3.06.26M21.3 41.04c-.14 3.41-3.39 12.33-4.55 14.36M23.24 43.38c3.33 0 46.06-4.55 62.8-4.55 11.39 0 3.59 5.43-.66 8.98M33.13 51.17c.94.38 2.66.42 3.6.38 9.77-.44 25.27-2.8 33.36-2.88 1.57-.02 2.5.18 3.29.37M34.53 60.82c.45.3 1.03.53 1.11.92.61 2.85 2.29 9.6 3.68 15.27M36.27 61.31c6.89-.57 28.61-3.32 33.31-3.41 1.95-.04 3.26.75 2.82 2.4-.78 2.98-.98 5.89-3.35 11.58M39.69 75.05c6.81-.3 24.74-2.52 30.52-2.59M37.25 80.92c2.49 1.85 6.44 7.59 7.06 10.47M68.11 78.31c.02.36.05.93-.05 1.45-.57 3.06-3.85 9.77-8.34 13.87M19.88 96.98c1.52.54 4.3.63 5.82.54 15.8-.91 45.3-3.35 62.11-3.73 2.53-.06 4.05.26 5.31.53"/></g><g class="kgNumbers" font-size="8" fill="gray"><text transform="translate(18.5 24.5)">1</text><text transform="translate(43.5 10.5)">2</text><text transform="translate(26.25 33.5)">3</text><text transform="translate(15.5 42.5)">4</text><text transform="translate(24.5 40.5)">5</text><text transform="translate(26.5 52.5)">6</text><text transform="translate(28.5 68.5)">7</text><text transform="translate(39.5 58.6)">8</text><text transform="translate(42.5 71.5)">9</text><text transform="translate(27.5 84.5)">10</text><text transform="translate(56.5 82.5)">11</text><text transform="translate(17.5 93.3)">12</text></g></svg>