<svg xmlns="http://www.w3.org/2000/svg" width="109" height="109" viewBox="0 0 109 109" class="kan-g"><g class="kgPaths" fill="none" stroke="currentColor" stroke-width="3" stroke-linecap="round" stroke-linejoin="round"><path d="M43.56 11.75c.08 1.09.16 2.81-.15 4.38C41.56 25.35 30.98 45.6 16.5 58"/><path d="M38.84 34.02c.44.05 2.81.48 4.06.34 5.6-.61 21.35-2.86 27.23-4.41 4.03-1.06 5.18 1.21 4.15 4.09C68.63 49.81 40.17 88.38 15 96.5"/><path d="M33.5 40.75c7.5 8.75 41.5 42 51.61 50 3.02 2.39 5.46 3.54 8.39 4.25"/></g><g class="kgNumbers" font-size="8" fill="gray"><text transform="translate(35.25 11.5)">1</text><text transform="translate(45.5 30.5)">2</text><text transform="translate(32.25 52.5)">3</text></g></svg>