<svg xmlns="http://www.w3.org/2000/svg" width="109" height="109" class="kan-g"><g class="kgPaths" fill="none" stroke="#000" stroke-width="3" stroke-linecap="round" stroke-linejoin="round"><path d="M39.374 9.603c.088 1.006-.422 2.26-.976 3.172-2.827 4.603-7.753 10.947-15.942 17.861M39.578 18.902c1.006.29 2.827.103 3.833.03 5.61-.435 24.642-2.311 35.936-3.524 2.477-.27 5.144-.29 7.636-.218M34.871 31.01c1.064.756 1.69 1.783 1.866 2.85.656 3.991 1.967 10.843 3.016 16.67.335 1.886.583 3.203.627 3.379M38.034 32.658c5.042-.653 27.338-3.13 35.615-3.908 4.299-.405 7.067.55 6.339 3.814-.729 3.266-2.346 11.124-3.294 15.944-.451 2.25-.743 3.846-.743 3.991"/><path d="M39.695 42.32c12.634-1.359 25.02-2.79 37.116-3.525M41.313 52.115c10.288-.663 22.674-1.959 33.662-2.3M43.702 59.62c.19 1.151-.451 2.23-1.165 3.256-3.498 4.395-10.784 10.998-21.699 16.876M46.82 64.006c1.502.155 3.076.103 4.11-.083 5.057-.923 12.853-2.571 17.822-3.4 3.41-.57 5.261 1.181 3.877 3.503-5.042 8.418-27.95 26.435-50.173 32.654"/><path d="M37.975 72.64c7.972 3.173 30.573 14.742 43.047 19.76 3.716 1.502 8.015 3.068 12.11 3.98"/></g><g class="kgNumbers" font-size="8" fill="gray"><text transform="translate(32 11)">1</text><text transform="translate(43 15)">2</text><text transform="translate(29 38)">3</text><text transform="translate(39 27.99)">4</text><text transform="translate(40 40)">5</text><text transform="translate(41 50.5)">6</text><text transform="translate(33 63.54)">7</text><text transform="translate(47.96 61)">8</text><text transform="translate(34 81)">9</text></g></svg>