<svg xmlns="http://www.w3.org/2000/svg" width="109" height="109" class="kan-g"><g class="kgPaths" fill="none" stroke="#000" stroke-width="3" stroke-linecap="round" stroke-linejoin="round"><path d="M45.82 11.92c.18 1.08-.22 2.3-.66 3.01C42.5 19.25 37 26.33 28.5 31.25M48.24 16.65c1.38.22 3.15.08 4.79-.12 5.59-.66 9.72-1.28 14.9-2.3 3.15-.62 4.07 1.15 3.01 3.46-4.46 9.74-24.82 31.44-44.28 37.66"/><path d="M40 28.25c2.67 1.56 7 6.5 7.75 9M58.5 42.25c.25 1.5-.11 2.78-.48 3.6C55.25 52 48.75 59.5 33.75 68.5M60.42 48.62c1.58.13 3.01.09 4.6-.09 5.86-.66 9.23-1.16 13.48-2.03 3.13-.64 4.62 1.62 3.48 4.09-5 10.79-23.61 34.91-54.73 48.16"/><path d="M48.25 63c2.93 1.73 7.67 7.22 8.5 10"/></g><g class="kgNumbers" font-size="8" fill="gray"><text transform="translate(38.5 12.5)">1</text><text transform="translate(51.75 13.63)">2</text><text transform="translate(44.5 28.5)">3</text><text transform="translate(49.5 49.5)">4</text><text transform="translate(64.5 45.5)">5</text><text transform="translate(53.5 63.13)">6</text></g></svg>