<svg xmlns="http://www.w3.org/2000/svg" width="109" height="109" viewBox="0 0 109 109" class="kan-g"><g class="kgPaths" fill="none" stroke="currentColor" stroke-width="3" stroke-linecap="round" stroke-linejoin="round"><path d="M21.63 24.83c1.81.46 5.14.4 6.94.21 14.55-1.53 35.18-4.16 50.1-5.25 3.01-.22 4.83.22 6.34.45M25.31 51.64c2.09.31 3.47.4 5.94.11 10.62-1.25 35.88-4.38 45.96-4.93 1.74-.1 3.62.03 5.99.45"/><path d="M50.32 26c.68 1 1.3 3.43 1.29 5.37-.24 30.51-14.86 50.88-33.86 60.25M50.1 51.39C58.71 60 75.07 78.48 86.59 87.05c2.33 1.73 4.41 3.08 7.91 4.2"/></g><g class="kgNumbers" font-size="8" fill="gray"><text transform="translate(12.75 22.63)">1</text><text transform="translate(17.25 51.13)">2</text><text transform="translate(42.75 36.13)">3</text><text transform="translate(65.25 61.63)">4</text></g></svg>