<svg xmlns="http://www.w3.org/2000/svg" width="109" height="109" class="kan-g"><g class="kgPaths" fill="none" stroke="currentColor" stroke-width="3" stroke-linecap="round" stroke-linejoin="round"><path d="M72.18 14.39c.13.4.24 1-.25 1.59C67.75 21 51 28.5 27.31 31.22M16.38 52.11c.97.44 3.45.67 4.51.61 12.36-.72 48.36-5.47 63.86-5.64 1.35-.01 3.25.17 6.25.92"/><path d="M52.14 28.5c.57.94.87 2.02.85 4.04-.28 35-14.06 53.46-36.74 64.21M54 52c8.74 9.86 27.67 33.11 36.4 39.71 2.97 2.24 4 2.58 5.35 2.79"/></g><g class="kgNumbers" font-size="8" fill="gray"><text transform="translate(65.25 14.3)">1</text><text transform="translate(8.58 53.89)">2</text><text transform="translate(45.25 37.48)">3</text><text transform="translate(61.92 57.74)">4</text></g></svg>