<svg xmlns="http://www.w3.org/2000/svg" width="109" height="109" class="kan-g"><g class="kgPaths" fill="none" stroke="currentColor" stroke-width="3" stroke-linecap="round" stroke-linejoin="round"><path d="M19.38 47.86c2.65.92 5.89 1.11 8.63.7 13.62-2.06 33.87-5.31 48.67-6.23 2.62-.16 5.62.17 8.08.92"/><path d="M49 18c1 1 1.49 2.41 1.49 4.57C50.49 56.75 37.75 80.5 18 92M50.75 47.75c8.04 9.38 24.72 30.39 34.53 39.72 2.4 2.28 4.97 4.66 8.22 5.78M44.5 81.5c3.79 2.16 9.8 8.89 10.75 12.25"/></g><g class="kgNumbers" font-size="8" fill="gray"><text transform="translate(12.75 49.5)">1</text><text transform="translate(40.5 18.5)">2</text><text transform="translate(61.5 55.5)">3</text><text transform="translate(44.5 79.5)">4</text></g></svg>