<svg xmlns="http://www.w3.org/2000/svg" width="109" height="109" class="kan-g"><g class="kgPaths" fill="none" stroke="#000" stroke-width="3" stroke-linecap="round" stroke-linejoin="round"><path d="M24.62 28.74c3.88 1.01 7.42.92 10.65.4 12.47-2.01 26.02-3.4 37.11-4.45 3.52-.33 7.12-.76 10.61.01"/><path d="M54.05 10.75c.45 1.25.37 2.59-.06 4.06C47.25 38 35 54.75 13.75 62.25M54.12 28c7.77 6.85 20.63 18.52 29.66 24.95 3.05 2.18 6.59 4.05 10.46 5.3M40.89 54.08c1.65.67 3.93.26 5.63.06 4.47-.52 10.15-1.48 14.49-1.75 1.68-.11 3.53-.13 5.18.27M24.34 69.57c2.86 1.02 7.19.52 10.16.17 9.74-1.16 28.21-3.04 39.88-3.32 3.19-.08 6.59-.23 9.73.44M54.09 70.55c.86.87 1.31 2.07 1.31 3.89 0 12.24.04 16.3.04 20.47 0 8.86-3.8 3.18-7.32.21M35.59 80.81c.14 1.12-.15 2.12-.86 3.01C32.53 87.11 27 91 20.25 95.57M70.66 78.49C76.25 82.12 83.62 89.12 85.5 94"/></g><g class="kgNumbers" font-size="8" fill="gray"><text transform="translate(18.25 28.25)">1</text><text transform="translate(43.25 10.25)">2</text><text transform="translate(67.25 35.25)">3</text><text transform="translate(42.25 51.25)">4</text><text transform="translate(24.25 67.25)">5</text><text transform="translate(47 77.25)">6</text><text transform="translate(28.25 81.25)">7</text><text transform="translate(67.25 76.25)">8</text></g></svg>