<svg xmlns="http://www.w3.org/2000/svg" width="109" height="109" class="kan-g"><g class="kgPaths" fill="none" stroke="currentColor" stroke-width="3" stroke-linecap="round" stroke-linejoin="round"><path d="M27.85 21.94c2.32.52 5.22.34 7.54.06 11.08-1.34 25.13-2.82 35.24-3.58 2.63-.2 5.25-.43 7.74-.08"/><path d="M52.82 8.25c.71.86.62 1.97.55 3.01-.94 14.15-14.12 29.31-25.69 32.37M53.75 23.75c7.31 3.89 15.78 10.19 20.25 16M12.63 50.48c3.09 1.1 7.28.67 10.49.37 13.21-1.23 44.89-4.24 60.77-5.56 3.95-.33 8.1-.55 11.99.29M30.88 62.88c.72.75 1.11 1.65 1.18 2.7.69 3.03 1.42 7.94 2.01 12.4.21 1.61.4 3.15.57 4.53M32.57 64.61c6.45-1.49 14.34-3 19.16-3.61 2.81-.36 5.04-.42 4.26 3.03-.77 3.44-1.38 7.15-2.62 11.92M35.56 79.56c4.15-.4 9.32-1.3 14.96-1.93 1.31-.15 2.63-.29 3.95-.44M72.21 49.83c1.04 1.04 1.51 2.67 1.51 4.77 0 14.56-.01 33.94-.01 38.9 0 10.12-7.96 2.62-11.21 0"/></g><g class="kgNumbers" font-size="8" fill="gray"><text transform="translate(21.5 23.5)">1</text><text transform="translate(44.5 9.13)">2</text><text transform="translate(68.25 30.13)">3</text><text transform="translate(5.5 52.5)">4</text><text transform="translate(24.75 70.5)">5</text><text transform="translate(33.5 61.5)">6</text><text transform="translate(38.5 76.55)">7</text><text transform="translate(64.5 58.63)">8</text></g></svg>