<svg xmlns="http://www.w3.org/2000/svg" width="109" height="109" viewBox="0 0 109 109" class="kan-g"><g class="kgPaths" fill="none" stroke="currentColor" stroke-width="3" stroke-linecap="round" stroke-linejoin="round"><path d="M26.62 19.62c.38 1.13.82 2.99.63 4.63-.97 8.06-2.62 28.25-6.52 40.18-.66 2.02.38 2.74.88 2.87 5.2 1.37 10.33 3.88 14.91 7.68 1.94 1.61 3.78 3.44 5.48 5.52"/><path d="M40.26 38.25c.07 1.19.11 3.09-.14 4.82-2 13.97-8.28 35.03-22.62 45.43"/><path d="M10.75 54.17c.38.88 1.91 1.39 3.65.77 7.47-2.69 16.47-5.69 30.6-10.96M48.41 28.98c1.5.42 3.69.54 6.69-.08 3-.62 21.8-3.99 23.91-4.42 2.99-.61 4.69 1 3.82 4.08C75.62 54.12 61 78.5 43.27 86.75"/><path d="M51.72 43.57c3.86.94 19.86 23.01 33.86 35.61 2.89 2.6 6.14 5.87 9.65 7.61"/></g><g class="kgNumbers" font-size="8" fill="gray"><text transform="translate(19.5 20.5)">1</text><text transform="translate(31.5 37.5)">2</text><text transform="translate(2.25 56.5)">3</text><text transform="translate(47.25 26.5)">4</text><text transform="translate(49.5 52.5)">5</text></g></svg>