<svg xmlns="http://www.w3.org/2000/svg" width="109" height="109" class="kan-g"><g fill="none" stroke="#000" stroke-width="3" stroke-linecap="round" stroke-linejoin="round"><path d="M48 9.49c3.35 1.81 6.96 5.68 8.5 8.33M15.95 26.35c1.39.09 4.55.61 5.9.49 10.89-1.02 48.72-4.91 62.55-5.18 2.29-.04 3.45.04 5.16.62M32.38 29.17c.83.71 1.24 2.74 1.24 3.73v4.93c0 3.69.52 7.31 9.79 7.85 10.04.58 26.75-.12 29.03-.2 3.93-.13 7.28-.52 9.28-.97M46.71 52.62c.5 1.5.15 3.39-.25 5.25C44.5 67 43 68 36.75 78.5c-1.36 2.28-.28 2.73.75 2.75C52 81.5 69 87.5 80.75 98.5"/><path d="M67.87 59.18c.13.97.23 3.34-.27 4.75-4 11.4-15.1 28.57-44.1 36.07"/><path d="M12.38 66.43c2.12.57 4.39.96 5.41.87C39.25 65.5 68.5 63.25 89 63c1.7-.02 4.62.35 6 1"/></g><g font-size="8" fill="gray"><text transform="translate(43 10.13)">1</text><text transform="translate(8 26.63)">2</text><text transform="translate(25 37)">3</text><text transform="translate(39 55)">4</text><text transform="translate(59 57)">5</text><text transform="translate(5 67)">6</text></g></svg>