<svg xmlns="http://www.w3.org/2000/svg" width="109" height="109" viewBox="0 0 109 109" class="kan-g"><g class="kgPaths" fill="none" stroke="currentColor" stroke-width="3" stroke-linecap="round" stroke-linejoin="round"><path d="M27.3 18.62c.37.93.53 2.44.34 3.78-.93 6.58-4.39 29.35-7.87 38.58-.63 1.67.37 2.23.84 2.34 6.9 1.56 12.19 4.83 16.09 9.23 1.55 1.75 2.88 3.67 4 5.74"/><path d="M39.75 34.07c.5 1.05.89 2.59.59 4.43-2.41 14.84-8.71 37.88-27.34 51"/><path d="M10 47.47c.75 1.03 1.79 1.58 3.75 1.14 7.75-1.74 19.75-4.86 30.5-7.23M69.96 12.25c.96.96 1.01 2 1.01 3.33 0 10.12-.01 37.95-.01 41.4 0 9.77-4.21 2.54-5.71 1.67M57.95 35.92c.04.54.14 1.42-.08 2.16-1.54 5.38-8.04 15.76-13.33 20.72M84.13 34.11c5.4 2.98 12.64 10.65 13.99 15.29M86.27 48.07c.11 1.17.08 2.79-.48 4.45-4.56 13.68-21.55 34.73-39.9 45.23"/></g><g class="kgNumbers" font-size="8" fill="gray"><text transform="translate(19.5 18.13)">1</text><text transform="translate(34.75 30.13)">2</text><text transform="translate(3.5 54.13)">3</text><text transform="translate(60.5 12.13)">4</text><text transform="translate(53.5 32.5)">5</text><text transform="translate(78.75 32.5)">6</text><text transform="translate(78.75 47.5)">7</text></g></svg>