<svg xmlns="http://www.w3.org/2000/svg" width="109" height="109" viewBox="0 0 109 109" class="kan-g"><g fill="none" stroke="currentColor" stroke-width="3" stroke-linecap="round" stroke-linejoin="round"><path d="M28.43 21.37c.36.88 1.02 2.33.84 3.61-.93 6.29-4.97 29.96-9.05 37.31-.84 1.51.38 2.1.84 2.24 8.86 2.74 14.99 5.82 19.95 12.31"/><path d="M40.75 37.39c.08 1.27.14 4.34-.16 6.18C38.18 58.41 31.23 79.46 14 90.5"/><path d="M10.5 47.72c.75.94 1.75 1.62 3.75 1.39 2.15-.24 21.34-4.85 30.25-7.23M66.45 14.5c3.55 2 7.8 6.25 9.69 10.33M49.38 33.14c1.62.36 3.45.66 4.77.52 10.66-1.1 25.95-4.17 40.43-4.93 2.23-.12 2.38.04 4.04.67M68.86 45.83C75 48 81.25 49 86.95 49.91c3.23.52 4.48 1.67 3.97 4.15C89.5 61 80.73 85.03 76.67 90.45c-4.4 5.88-7.35-.23-8.66-1.02M70.6 35.25c.4 1.46.32 3.1-.15 4.74-3.28 11.3-12.78 34.15-27.52 44.84"/></g><g font-size="8" fill="gray"><text transform="translate(20.25 20.5)">1</text><text transform="translate(36.75 33.13)">2</text><text transform="translate(3.75 55.63)">3</text><text transform="translate(61.5 13.5)">4</text><text transform="translate(47.5 29.5)">5</text><text transform="translate(75.5 45.5)">6</text><text transform="translate(63.5 41.5)">7</text></g></svg>