<svg xmlns="http://www.w3.org/2000/svg" width="109" height="109" class="kan-g"><g fill="none" stroke="currentColor" stroke-width="3" stroke-linecap="round" stroke-linejoin="round"><path d="M29.37 17.87c.38 1.13 1.07 2.99.88 4.63-.97 8.06-6.75 32.5-11.02 41.93-.88 1.94.4 2.69.88 2.87C27.5 70 36 75.75 42.5 84.5"/><path d="M42.75 38.5c.08 1.29.14 4.42-.16 6.28-2.43 15.09-9.45 36.49-26.84 47.72"/><path d="M11 49.96c.75 1.04 1.75 1.79 3.75 1.54 2.15-.27 22.84-5.38 31.75-8.03M54.96 20.59c.59 1.03.98 2.05 1.18 3.06.2 1.01.43 64.08.36 66.31M57.3 21.73c2.27-.1 22.62-2.98 24.31-3.16 3.03-.31 4.18 3.51 3.81 4.98-.36 1.41-.18 43.21-.29 63.39"/><path d="M57.38 43.4c4.57-.59 9.15-1.14 13.74-1.63 1.22-.13 2.43-.26 3.61-.37M57.84 64.86c4.19-.25 8.88-1.17 13.06-1.52 1.21-.1 2.42-.2 3.62-.29M42.54 91.07c1.17.43 3.32.5 4.49.43 12.2-.73 36.72-2.91 49-2.91 1.95 0 3.13.21 4.1.42"/></g><g font-size="8" fill="gray"><text transform="translate(22.5 17.5)">1</text><text transform="translate(37.5 34.5)">2</text><text transform="translate(3.5 51.5)">3</text><text transform="translate(49.25 29.5)">4</text><text transform="translate(58.5 17.5)">5</text><text transform="translate(61.5 39.5)">6</text><text transform="translate(61.5 60.5)">7</text><text transform="translate(46.5 88.5)">8</text></g></svg>