<svg xmlns="http://www.w3.org/2000/svg" width="109" height="109" class="kan-g"><g class="kgPaths" fill="none" stroke="#000" stroke-width="3" stroke-linecap="round" stroke-linejoin="round"><path d="M24.88 12.75c3.66 1.14 9.45 4.67 10.37 6.43M17.5 26.76c3.88.86 10.03 3.54 11 4.88M18.75 56.39c1.78 1.07 3.41 1.61 4.53.29 3.26-3.84 7.01-9.03 9.97-13.93M64.36 11.75c.05.23.73 1.22.78 2.7.25 7.13-.16 18.04-.16 20.47 0 6.89-4.17 1.44-5.11.83M53.18 21.12c.03.34.12.89-.06 1.36-1.32 3.39-6.91 9.92-11.45 13.04M80.25 20.13c5.11 2.72 11.97 9.7 13.25 13.93M79.9 27.31c.1.69.31 1.78-.21 2.75C75.41 38.08 58.95 51.61 42.25 57M47.77 60.12c.43 1.02.13 2.3-.22 3.57-1.7 6.2-6.55 13.07-10.84 18.08-1.27 1.48-.24 1.86.65 1.87 12.57.15 33.14 7.79 39.64 15.77"/><path d="M68.33 65.36c.12.82.21 2.81-.24 4C64.45 78.97 53.97 92.6 28 99.75"/><path d="M12.38 70.93c2.21.57 4.58.96 5.64.87 22.39-1.8 51.34-5.05 72.72-5.3 1.77-.02 4.82.35 6.26 1"/></g><g class="kgNumbers" font-size="8" fill="gray"><text transform="translate(18.5 13.5)">1</text><text transform="translate(9.5 27.5)">2</text><text transform="translate(11.94 59.5)">3</text><text transform="translate(55.5 10.5)">4</text><text transform="translate(44.5 21.5)">5</text><text transform="translate(75.5 17.51)">6</text><text transform="translate(72.5 28.5)">7</text><text transform="translate(39.5 65.5)">8</text><text transform="translate(59.5 64.5)">9</text><text transform="translate(1.94 71.5)">10</text></g></svg>