<svg xmlns="http://www.w3.org/2000/svg" width="109" height="109" class="kan-g"><g class="kgPaths" fill="none" stroke="currentColor" stroke-width="3" stroke-linecap="round" stroke-linejoin="round"><path d="M26.98 17.37c.39 1.04 1.08 2.74.89 4.24-.99 7.39-7.32 33.65-11.64 42.29-.89 1.77.4 2.46.89 2.63C26.5 69.75 35 77 39.75 84.78"/><path d="M38.75 36.89c.08 1.27.14 4.34-.16 6.18-2.41 14.84-9.86 36.39-27.09 47.43"/><path d="M8 47.22c.75.94 1.75 1.62 3.75 1.39 2.15-.24 21.34-4.35 30.25-6.73M48.62 17.26c1.05.43 2.98.48 4.04.43 8.81-.37 29.95-3.68 36.46-3.18 1.75.13 2.82.2 3.69.42M47.57 29.76c.29.3 1.09 1.05 1.21 1.43 1.01 2.99 2.21 11.24 2.9 16.61M48.88 30.78c7.87-.53 40.57-3.8 44.23-4.22 1.34-.15 2.14 1.56 1.95 2.47-.79 3.76-2.06 10.32-3.76 15.75"/><path d="M61.44 20.61c.77.47 1.29 2.12 1.39 3.08.3 2.84.67 13.06 1.22 20.12M77.92 18.29c.77.47 1.16 2.6.8 4.73-.63 3.81-.1 13.05-1.7 20.15M51.98 45.82c4.3-.48 34.5-2.45 39.96-2.93M55.44 54.47c.93.27 2.64.28 3.58.27 5.78-.07 18.95-1.88 25.79-1.94 1.56-.02 2.49.13 3.27.26M44.88 66.66c1.34.55 3.8.64 5.14.55 9.94-.68 29.4-3.43 43.94-4.15 2.23-.11 3.57.26 4.69.54M71.71 67.61c.1.45 1.42 2.33 1.42 5.16 0 6.71-.01 14.54-.01 19.18 0 6.39-5.14 2.37-7.25.27M55.39 76.02c.03.42.06 1.08-.05 1.69-.66 3.56-4.94 8.89-11.71 14.08M85.19 75.17c4.29 2.93 11.3 11.72 12.37 16.28"/></g><g class="kgNumbers" font-size="8" fill="gray"><text transform="translate(19.5 17.5)">1</text><text transform="translate(33.5 32.5)">2</text><text transform="translate(1.5 47.5)">3</text><text transform="translate(49.75 13.9)">4</text><text transform="translate(41.5 37.5)">5</text><text transform="translate(50.75 28.5)">6</text><text transform="translate(55.25 25.5)">7</text><text transform="translate(70.75 24.52)">8</text><text transform="translate(54.5 43.45)">9</text><text transform="translate(45.5 55.88)">10</text><text transform="translate(42.75 63.05)">11</text><text transform="translate(62.5 75.5)">12</text><text transform="translate(44.5 77.5)">13</text><text transform="translate(77.5 83.5)">14</text></g></svg>