<svg xmlns="http://www.w3.org/2000/svg" width="109" height="109" class="kan-g"><g fill="none" stroke="#000" stroke-width="3" stroke-linecap="round" stroke-linejoin="round"><path d="M23.07 13.93c.36.7.88 1.23.88 2.16 0 .94.16 25.01-.26 28.93M24.54 14.74c2.02-.12 17.38-1.62 19.21-1.76 1.53-.12 2.35.65 2.35 1.52 0 2.14-.45 29.08-.45 29.79"/><path d="M23.99 24.63c3.68-.26 7.34-.69 11.01-1.05 1.13-.11 2.26-.22 3.34-.32M24.15 33.51c3.54-.32 7.07-.68 10.61-.99.98-.08 1.96-.17 2.92-.24M23.89 43.19c5.69-.38 16.55-1.4 21.74-1.4M29.38 49.23c.28.74-.22 1.46-.78 2-1.71 1.63-6.19 5.1-9.6 7.02M38.77 48.72c2.23 2.14 4.87 6.03 5.48 7.9M60.07 13.43c.36.7.88 1.23.88 2.16 0 .94.16 25.01-.26 28.93M61.54 14.24c2.02-.12 17.38-1.62 19.21-1.76 1.53-.12 2.35.65 2.35 1.52 0 2.14-.45 29.08-.45 29.79"/><path d="M60.99 24.13c3.68-.26 7.34-.69 11.01-1.05 1.13-.11 2.26-.22 3.34-.32M61.15 33.01c3.54-.32 7.07-.68 10.61-.99.98-.08 1.96-.17 2.92-.24M60.89 42.69c5.69-.38 16.55-1.4 21.74-1.4M67.38 48.23c.28.74-.22 1.46-.78 2-1.71 1.63-6.19 5.1-9.6 7.02M76.02 47.22c3.76 2.82 8.2 7.93 9.23 10.4M51.21 55.62c.5 1.13.44 2.67-.25 3.95-3.71 6.93-8.96 13.19-15.21 21.1-1.36 1.72-.28 2.02.75 2.07 15 .76 29 5.26 39.75 14.01"/><path d="M69.87 65.48c.13.77.23 2.64-.27 3.75C65.55 78.25 54.25 92 25 97.75"/><path d="M14.38 70.07c2.12.43 4.39.72 5.41.66 21.47-1.36 49.22-3.8 69.72-3.99 1.7-.02 4.62.26 6 .75"/></g><g font-size="8" fill="gray"><text transform="translate(17.25 21.5)">1</text><text transform="translate(25.5 12.05)">2</text><text transform="translate(28.65 21.48)">3</text><text transform="translate(28.5 30.9)">4</text><text transform="translate(28.66 40.33)">5</text><text transform="translate(20.5 52.25)">6</text><text transform="translate(34.5 55.5)">7</text><text transform="translate(54.5 20.5)">8</text><text transform="translate(62.5 12)">9</text><text transform="translate(64.27 21.92)">10</text><text transform="translate(64.5 30.5)">11</text><text transform="translate(64.33 40.5)">12</text><text transform="translate(56.5 51.5)">13</text><text transform="translate(71.5 54.5)">14</text><text transform="translate(38.5 64.5)">15</text><text transform="translate(62.5 61.5)">16</text><text transform="translate(4.25 71.43)">17</text></g></svg>