<svg xmlns="http://www.w3.org/2000/svg" width="109" height="109" class="kan-g"><g class="kgPaths" fill="none" stroke="#000" stroke-width="3" stroke-linecap="round" stroke-linejoin="round"><path d="M28.78 18.29c1.11.37 3.22.96 4.9.63 2.04-.4 35.42-6.42 37.36-6.42 1.95 0 4.06 1.11 2.11 3.33-1.95 2.22-13.66 14.92-19.35 20.69M52.19 37.99c6.06 3.01 11.09 31.13 4.95 53.26-2.64 9.5-7.89 2-9.89 1"/><path d="M23 59.85c.75 1.15 2.77 1.82 4.55 1.03 1.05-.47 47.5-20.38 51.95-22.63"/></g><g class="kgNumbers" font-size="8" fill="gray"><text transform="translate(21.5 19.63)">1</text><text transform="translate(44.5 38.5)">2</text><text transform="translate(15.25 58.81)">3</text></g></svg>