<svg xmlns="http://www.w3.org/2000/svg" width="109" height="109" class="kan-g"><g fill="none" stroke="currentColor" stroke-width="3" stroke-linecap="round" stroke-linejoin="round"><path d="M49.33 11.25c3.02 2.09 6 5.38 7.91 9.19M22.92 25.37c0 3.48-3.2 13.06-4.65 15.38M24.3 29.1c8.5-.88 54.86-5.05 61.76-5.38 10.78-.52 2.28 6.4-.4 8.29M18.75 55.37c1.34.49 3.79.61 5.12.49 14.88-1.35 47.49-5.09 60.2-5.09 2.23 0 3.56.23 4.68.48"/><path d="M51.99 34.5c.11 1.44.41 4.15-.21 5.78C44.05 60.56 33.5 79.75 12.5 95.54M58.93 62.38c.54.64.34 2.29-.1 3.06C53.75 74.25 47 84.5 39.35 93.37c-2.15 2.49-2.34 2.83 1.08 2.31 7.19-1.08 27-6.61 37.8-7.77"/><path d="M70.03 78.1c4.78 3.5 12.35 14.41 13.54 19.87"/></g><g font-size="8" fill="gray"><text transform="translate(43.25 11.25)">1</text><text transform="translate(15.25 26.25)">2</text><text transform="translate(26.25 25.25)">3</text><text transform="translate(11 56.25)">4</text><text transform="translate(42.25 36.25)">5</text><text transform="translate(51 63)">6</text><text transform="translate(69.25 75.25)">7</text></g></svg>