<svg xmlns="http://www.w3.org/2000/svg" width="109" height="109" viewBox="0 0 109 109" class="kan-g"><g fill="none" stroke="currentColor" stroke-width="3" stroke-linecap="round" stroke-linejoin="round"><path d="M48.28 11.75c3.58 1.22 8.03 7.26 8.6 10.7M21.83 27.38c0 3.76-3.15 14.11-4.58 16.62M22.03 31.5c9.16-.78 56.55-5.07 63.98-5.37 11.62-.46.74 8.65-2.16 10.32M48.73 39c3.29 1.86 8 9.05 8.67 12.69M15.25 60.13c1.35.12 4.44.76 5.76.64 14.23-1.27 50.73-5.02 67.35-4.22 2.24.11 3.38.06 5.04.82M41.51 71.35c.59 1.15.31 3.5-.7 4.88-5.52 7.49-13.98 14.26-25.4 20.77M66.41 72.67c9.42 7.2 17.2 15.5 21.91 24.24"/></g><g font-size="8" fill="gray"><text transform="translate(43 13)">1</text><text transform="translate(15.5 26.5)">2</text><text transform="translate(25.5 27.5)">3</text><text transform="translate(42.5 39.4)">4</text><text transform="translate(8.5 60.33)">5</text><text transform="translate(32.5 73.5)">6</text><text transform="translate(57.5 73.5)">7</text></g></svg>