<svg xmlns="http://www.w3.org/2000/svg" width="109" height="109" class="kan-g"><g class="kgPaths" fill="none" stroke="#000" stroke-width="3" stroke-linecap="round" stroke-linejoin="round"><path d="M53.56 13.75c1.03 1.03 1.31 2.73 1.29 3.82-.08 3.43-.08 7.27-.09 10.4M26.68 28.85c0 3.36-3.53 13.16-4.88 15.4M27.79 31.45c9.46-1.2 42.83-4.57 55.07-5.07 10.62-.43 2.25 6.31-.4 8.17M35.67 44.5c1.65.59 4.01.34 5.72.09 5.4-.79 16.58-1.96 23.87-2.7 1.89-.19 3.68-.39 5.55.01M20.19 63.12c2.51.88 5.97.61 8.56.37 11.84-1.09 39.51-4.06 53.75-4.54 2.85-.1 5.75-.22 8.55.37"/><path d="M53.08 45.83c1.11 1.11 1.73 2.79 1.73 4.38 0 14.24.05 37.36.05 42.21 0 10.26-6.92 1.2-7.8.27"/></g><g class="kgNumbers" font-size="8" fill="gray"><text transform="translate(44.5 14.5)">1</text><text transform="translate(18.5 33.05)">2</text><text transform="translate(30.5 27.5)">3</text><text transform="translate(33.5 41.5)">4</text><text transform="translate(12.5 64.5)">5</text><text transform="translate(46.5 53.5)">6</text></g></svg>