<svg xmlns="http://www.w3.org/2000/svg" width="109" height="109" class="kan-g"><g fill="none" stroke="currentColor" stroke-width="3" stroke-linecap="round" stroke-linejoin="round"><path d="M48.72 10.49c3.17 1.07 6.94 6.42 7.62 9.45M22.4 28.37c0 4.05-3.7 15.19-5.39 17.89M24.04 29.85c8.71-.1 53.21-5.6 61.32-5.35 10.71.32 2.27 6.36-.4 8.24M77.47 46.06c.03.94-.58 2.19-1.25 2.86-4.33 4.31-18.71 16.17-32.72 20.58"/><path d="M41.5 37.75c1.07 1.19 1.15 1.99 1.51 3.57.36 1.59-.14 41.16-.14 46.14 0 12.79 13.39 10.79 25.64 10.79 9.5 0 16.42-.67 20-4.25s3.14-7.73 3.5-11.3"/></g><g font-size="8" fill="gray"><text transform="translate(44.5 11.38)">1</text><text transform="translate(15.5 31.8)">2</text><text transform="translate(26.75 26.23)">3</text><text transform="translate(68.5 45.9)">4</text><text transform="translate(32.5 39.5)">5</text></g></svg>