<svg xmlns="http://www.w3.org/2000/svg" width="109" height="109" viewBox="0 0 109 109" class="kan-g"><g class="kgPaths" fill="none" stroke="currentColor" stroke-width="3" stroke-linecap="round" stroke-linejoin="round"><path d="M52.57 10.17c1.26 1.26 1.76 2.96 1.76 4.56 0 3.61-.09 5.75-.1 9.03M21.25 26c0 3.53-2.41 13.23-3.5 15.58M22.44 29.18c18.31-2.68 47.53-6.83 63.05-7.33 11.01-.35 4.26 7.15-.18 9.58M33.6 42.82c2.72.44 5.36.34 8.12 0 6.54-.82 24.05-2.75 28.37-3.07 3.41-.25 5.16-.25 7.66.38M52.9 42.77c.92.92 1.17 2.46 1.17 3.37 0 2.99.28 30.49.28 36.39M54.61 62.86c6.14-.74 12.39-1.49 19.43-2.39 1.69-.22 3.13-.22 4.2 0M36.36 57.64c.06.86.12 2.22-.11 3.46-1.4 7.29-8.89 21.86-19.87 31.65M31.96 73.89c7.12 2.96 36.49 16.08 47.62 20.58 3.44 1.39 6.85 2.38 10.55 2.78"/></g><g class="kgNumbers" font-size="8" fill="gray"><text transform="translate(44.5 10.5)">1</text><text transform="translate(12.75 31.63)">2</text><text transform="translate(25.5 25.5)">3</text><text transform="translate(30.75 39.13)">4</text><text transform="translate(46.5 53.5)">5</text><text transform="translate(59.25 59.5)">6</text><text transform="translate(27.75 59.5)">7</text><text transform="translate(39.75 75.5)">8</text></g></svg>