<svg xmlns="http://www.w3.org/2000/svg" width="109" height="109" class="kan-g"><g fill="none" stroke="#000" stroke-width="3" stroke-linecap="round" stroke-linejoin="round"><path d="M48.02 9.5c4.27 1.17 9.48 6.98 10.27 10.29M20.16 25.13c0 4.27-3.21 16.02-4.66 18.87M20.24 27.24c12.51.01 60.23-5.02 67.95-4.9 10.8.16 3.05 6.91-.45 9.28M33.3 39.37c.68.27 1.92.29 2.6.27 8.97-.32 22.02-2.81 35-2.88 1.13-.01 1.81.13 2.38.26M49.56 40.84c.5.43.6 1.73.3 2.29-2.36 4.37-4.99 8.55-11.08 14.16-1.96 1.81-2.1 3.03 1.05 2.49 7.36-1.25 20.6-4.57 32.19-6.62"/><path d="M66.5 47.25c4.23 2.38 9.89 8.62 10.95 12.33M32.25 78.81c.89.25 2.53.37 3.41.25 3.6-.49 29.13-3.89 37.47-3.89 1.48 0 2.37.12 3.11.25"/><path d="M52.79 63.84c.1.19 1.52 1 1.49 2.23-.16 7.02-.03 26.42-.03 28.43M19.64 97.42c1.28.36 3.63.53 4.9.36 5.17-.69 37.66-3.35 62.12-3.45 2.13-.01 3.41.17 4.47.35"/></g><g font-size="8" fill="gray"><text transform="translate(42.5 10.5)">1</text><text transform="translate(12.75 25.63)">2</text><text transform="translate(26.25 23.5)">3</text><text transform="translate(26.25 40.63)">4</text><text transform="translate(36.75 51.13)">5</text><text transform="translate(72.75 48.13)">6</text><text transform="translate(24.75 79.63)">7</text><text transform="translate(60.75 66.13)">8</text><text transform="translate(11.25 99.13)">9</text></g></svg>