<svg xmlns="http://www.w3.org/2000/svg" width="109" height="109" viewBox="0 0 109 109" class="kan-g"><g fill="none" stroke="currentColor" stroke-width="3" stroke-linecap="round" stroke-linejoin="round"><path d="M49.27 9.13c2.65.96 5.72 5.77 6.37 8.45M19.23 22.78c0 3.87-3.08 14.51-4.48 17.09M20.52 25.75c9.87-1.03 58.56-4.84 66.57-5.23 12.52-.61 2.34 5.92-.78 8.11M28.37 37.54c.91.38 1.46 1.69 1.64 2.44.18.75 0 55.82-.18 60.52M30.21 39.41c6.01-.56 32.43-3.62 46.4-4.18 2.12-.08 3.39-.18 4.45.02"/><path d="M52.49 36.91c.91.38 1.46 1.69 1.64 2.44.18.75.12 10.15-.07 14.85"/><path d="M30.57 56.46c14.39-1.38 34.34-3.31 44.33-4.26 4.04-.38 5.17 1.17 4.61 3.19-1.02 3.67-2.52 8.94-3.56 13.35M30.63 73.37c6.01-.56 41.76-3.31 47.41-3.66M52.62 72.56c.91.38 1.46 1.69 1.64 2.44.18.75.12 13.53-.07 18.23M30.21 95.3c6.01-.56 38.12-2.75 52.09-3.3 2.12-.08 3.39-.18 4.45.02"/></g><g font-size="8" fill="gray"><text transform="translate(44.5 10.5)">1</text><text transform="translate(11.5 24.5)">2</text><text transform="translate(22.5 22.5)">3</text><text transform="translate(23 51.91)">4</text><text transform="translate(32.25 35.08)">5</text><text transform="translate(46.75 46.01)">6</text><text transform="translate(34.5 52.43)">7</text><text transform="translate(34.46 70.35)">8</text><text transform="translate(46.5 81.5)">9</text><text transform="translate(33.5 90.46)">10</text></g></svg>