<svg xmlns="http://www.w3.org/2000/svg" width="109" height="109" class="kan-g"><g fill="none" stroke="#000" stroke-width="3" stroke-linecap="round" stroke-linejoin="round"><path d="M49 7.5c3.96 1.7 6.91 4.81 8.3 8.54M19.91 22.13c0 3.48-2.03 14.05-3.41 16.37M22.24 24.24c9.51-.99 57.24-4.53 64.95-4.9 12.05-.59 2.55 7.16-.45 9.28M53.44 27.37c.08.24 1.22 1.26 1.22 2.81 0 9.83.25 15.4.25 17.93M30.81 31.39c3.24 2.27 8.38 8.88 9.19 12.41M74.21 28.85c.03.36.06.93-.06 1.45-.67 3.07-3.75 7.93-9.29 13.07M32.75 49.43c.79.99 1.31 1.98 1.57 2.97.26.99.37 45.09.26 47.31M35.9 51.42c3.15-.25 31.51-2.94 33.85-3.21 4.2-.5 5.25 3.14 5.25 4.71 0 10.69-.29 22.53-.29 42.6 0 9.23-6.46 1.23-7.95-.48"/><path d="M35.9 64.56c6.68-.56 13.38-.96 20.08-1.35 1.67-.1 3.32-.19 4.93-.29M35.11 78.18c6.08-.54 14.18-.93 20.27-1.33 1.78-.12 3.57-.23 5.33-.34"/></g><g font-size="8" fill="gray"><text transform="translate(44.5 9.5)">1</text><text transform="translate(12.75 24.13)">2</text><text transform="translate(23.5 20.5)">3</text><text transform="translate(43.5 31.5)">4</text><text transform="translate(23.5 34.5)">5</text><text transform="translate(65.25 30.5)">6</text><text transform="translate(26.25 58.63)">7</text><text transform="translate(42.5 48.5)">8</text><text transform="translate(39.5 61.08)">9</text><text transform="translate(38.5 74.5)">10</text></g></svg>