<svg xmlns="http://www.w3.org/2000/svg" width="109" height="109" class="kan-g"><g fill="none" stroke="currentColor" stroke-width="3" stroke-linecap="round" stroke-linejoin="round"><path d="M49.41 10.75c3.35 1.24 6.96 5.44 8.05 8.86M27.34 23.03c0 3.73-2.77 13.98-4.03 16.47M28.32 27c1.17.08 45.56-5.46 51.49-5.8 12.19-.7 1.14 7.87-.34 8.63M33.01 40.73c1.19.4 3.38.59 4.55.4 8.44-1.38 21.69-3.88 26.76-4.34 1.97-.18 2.94-.04 4.15-.11M46.57 48.21c9.4 4.46 16.46 26.51 8.42 44.26-2.73 6.03-8.12.9-9.3.05"/><path d="M51.76 40.5c.07.47.15 1.22-.14 1.89-1.72 3.99-11.6 12.75-25.12 18.11M50.26 54.62c.07.44.15 1.13-.14 1.76-1.67 3.72-11.26 11.87-24.38 16.86M54 63.5c.09.56.19 1.46-.18 2.27-2.2 4.79-14.81 16.3-32.07 22.73M76.8 45.3c.05.36.11.92-.11 1.43-1.3 3.01-8.76 9.62-18.97 13.67M58.79 62.82c4.45 3.39 23.95 19.41 28.78 22.75 1.64 1.13 3.04 1.61 4.68 1.94"/></g><g font-size="8" fill="gray"><text transform="translate(44.5 11.5)">1</text><text transform="translate(20.25 28.63)">2</text><text transform="translate(31.5 23.5)">3</text><text transform="translate(30.75 37.5)">4</text><text transform="translate(55.5 53.5)">5</text><text transform="translate(36.75 51.13)">6</text><text transform="translate(36.75 64.63)">7</text><text transform="translate(33.75 78.13)">8</text><text transform="translate(68.5 47.5)">9</text><text transform="translate(67.5 67.63)">10</text></g></svg>