<svg xmlns="http://www.w3.org/2000/svg" width="109" height="109" class="kan-g"><g fill="none" stroke="currentColor" stroke-width="3" stroke-linecap="round" stroke-linejoin="round"><path d="M49.78 8.84c2.54.83 5.72 4.41 6.6 7.77M17.33 23.41c0 3.96-2.81 14.86-4.08 17.5M17.53 26.03c9.16-.95 63.05-4.31 70.48-4.67 11.62-.56 1.24 7.74-1.66 9.77M37.25 32.72c.95 1.08 1.55 2.92 1.55 4.18 0 12.14-.03 59.59-.03 63.72"/><path d="M21.35 40.88c1.08.5 1.48 1.08 1.58 2.73.14 2.47-1.58 8.57-1.91 11.16-.11.83.21 2.23 1.78 1.93 4.95-.95 12.02-2.12 15.6-2.63M14.32 70.29c1.18.22 1.42.86 2.8.71 5.9-.64 17.36-2.92 21.47-3.28M25.9 71.89c.03.63.24 1.61.24 2.51 0 7.5-4.9 19.34-11.7 24.05M49.95 43.82c.96.21 2.72.3 3.68.21 8.36-.78 20.11-2.28 29.15-3.48 1.58-.21 2.56.1 3.36.21M46.13 58.04c.62.19 2.27.71 3.9.57 6.52-.57 27.29-3 38.59-3.95 1.64-.14 3.09.19 4.12.38"/><path d="M66.36 27.75c1.03.38 1.64 1.71 1.85 2.48.21.76 0 65.51-.21 70.27"/><path d="M68.1 56.15C64.2 66.6 54.11 82.44 46 88.36"/><path d="M67.5 56.58c3.84 5.98 20.07 23.05 25.79 28.04 1.43 1.25 2.57 1.88 3.96 2.26"/></g><g font-size="8" fill="gray"><text transform="translate(44.5 9.85)">1</text><text transform="translate(10.66 24.5)">2</text><text transform="translate(20.5 22.5)">3</text><text transform="translate(29.25 34.5)">4</text><text transform="translate(15.5 47.5)">5</text><text transform="translate(7.5 71.5)">6</text><text transform="translate(18.5 80.5)">7</text><text transform="translate(47.5 40.5)">8</text><text transform="translate(44.5 55.5)">9</text><text transform="translate(55.5 31.5)">10</text><text transform="translate(52.5 68.5)">11</text><text transform="translate(76.5 65.5)">12</text></g></svg>