<svg xmlns="http://www.w3.org/2000/svg" width="109" height="109" viewBox="0 0 109 109" class="kan-g"><g fill="none" stroke="currentColor" stroke-width="3" stroke-linecap="round" stroke-linejoin="round"><path d="M49.45 10.5c2.21 1.39 6.16 5.01 7.27 7.34M23.43 24.08c0 3.04-3.65 12.39-4.85 14.42M25.03 25.05c8.3-.86 52.6-3.95 59.34-4.28 10.53-.51 2.23 6.26-.39 8.1M30.87 33.25c.16 1.7-1.61 9.19-2.9 12.01M39.29 30.46c6.96 9.29 12.47 12.68 25.76 12.23 5.44-.18 5.69-2.43 1.89-5.65"/><path d="M50.62 29.25c1.54 3.74 3.79 7.48 5.43 1.75M73.4 29.23c3.29 1.47 5.76 2.82 8.44 7.38M28.31 50.03c.27.26.55.48.67.81.94 2.59 3.07 9.25 3.71 13.91M29.5 51.29c7.5-.79 45.94-3.21 49.11-3.56 1.16-.12 2.73.88 2.42 2.34-.65 3.04-2.74 7.77-4.47 12.11"/><path d="M45.1 50.34c.18 1.73 1.46 9.66 1.64 11.6M62.27 49.26c-.18 2.81-1.1 9.66-1.46 11.39M33.54 63.34c3.73-.39 38.32-2.78 43.45-3.37M20.75 74.01c1.32.39 3.73.5 5.05.39 13.47-1.04 43.15-4.69 59.35-5.21 2.19-.07 3.51.19 4.61.38M56.08 74.4c.08.33 1.14 1.74 1.14 3.87 0 7.48.27 11.98.27 15.67 0 10.31-6.74.86-8.11-.02"/></g><g font-size="8" fill="gray"><text transform="translate(44.5 11.5)">1</text><text transform="translate(16.5 25.63)">2</text><text transform="translate(29.25 21.13)">3</text><text transform="translate(24.5 35.5)">4</text><text transform="translate(35.5 39.5)">5</text><text transform="translate(44.25 32.5)">6</text><text transform="translate(64.5 30.5)">7</text><text transform="translate(22.5 57.5)">8</text><text transform="translate(33.75 48.13)">9</text><text transform="translate(48.5 56.5)">10</text><text transform="translate(65.5 55.5)">11</text><text transform="translate(35.25 60.5)">12</text><text transform="translate(10.5 74.5)">13</text><text transform="translate(45.5 82.5)">14</text></g></svg>