<svg xmlns="http://www.w3.org/2000/svg" width="109" height="109" class="kan-g"><g class="kgPaths" fill="none" stroke="currentColor" stroke-width="3" stroke-linecap="round" stroke-linejoin="round"><path d="M50.87 9.75c1.04.34 2.52 2 2.5 2.97-.08 3.07-.08 5.81-.08 8.61M21.91 21.88c0 3.2-2.86 11.99-4.16 14.12M22.39 24.5c7.5-.78 57.01-5.57 63.1-5.87 9.51-.46 1.01 7.15-1.35 8.82M33.29 30.25c.55.48 1.39 1.55 1.39 2.78v6.81M18.29 41.5c.6.23 2.66.27 3.26.23 3.38-.2 22.64-2.86 27.75-3.03 1-.03 1.6.11 2.1.23M25.27 44.56c2.04 3.08 2.97 6.24 3.16 8.27M43.61 41.78c.48.35.53 1.3.48 1.58-.38 1.96-4.35 7.79-5.31 9.29M14.3 56.36c.72.33 1.56.37 2.29.33 8.58-.49 25.93-4.06 35.04-4.73 1.2-.09 1.92.16 2.53.32M24.33 63.06c.42.49.7.97.85 1.46.14.49.2 32.2.14 33.3M26.02 63.54c1.69-.12 17.2-2.17 18.46-2.31 2.25-.24 3.1 1.58 2.82 2.31-.27.7-.42 18.15-.42 28 0 8.74-3.06 4.91-6.15 2.26"/><path d="M26.02 72.52c5.78-.73 15.22-1.44 20.29-1.8M26.44 81.36c4.51-.37 14.37-1.46 19.59-1.7M61.05 36.78c4.31-.41 11.13-1.94 16-2.69 1.11-.17 1.8.11 2.37.23"/><path d="M59.74 27.43c1.26.82 1.62 2.83 1.64 3.98.04 2.43-.18 10.49-.31 13.84-.03.72.25 1.61 2.54 1.27 5.05-.75 12.41-1.71 17.97-2.71 3.15-.56 3.24.63 2.75 1.88-.95 2.41-1.56 6.53-2.54 10.74"/><path d="M62.19 58.38c4.86-.41 15.08-1.94 21.86-2.3M60.1 57.53c.67.92 1.21 2.01 1.25 3.43.18 6.35.52 24.1.52 28.42 0 10.08 9.06 8.94 17 8.94 12.67 0 14.98-2.15 14.98-7.07"/><path d="M62.92 67.96c4.31-.41 11.53-1.55 16.41-2.3 1.11-.17 1.8.11 2.37.23M62.69 77.3c4.31-.41 12.89-1.16 17.77-1.91 1.11-.17 1.8.11 2.37.23M62.24 86.55c4.31-.41 14.25-1.05 19.13-1.8 1.11-.17 1.8.11 2.37.23"/></g><g class="kgNumbers" font-size="8" fill="gray"><text transform="translate(43.5 10.5)">1</text><text transform="translate(14.5 24.5)">2</text><text transform="translate(26.5 20.5)">3</text><text transform="translate(26.5 32.4)">4</text><text transform="translate(11.5 43.5)">5</text><text transform="translate(18.5 51.5)">6</text><text transform="translate(35.5 48.5)">7</text><text transform="translate(6.5 57.1)">8</text><text transform="translate(17.25 69.03)">9</text><text transform="translate(27.5 61.95)">10</text><text transform="translate(29.5 70.5)">11</text><text transform="translate(29.5 79.5)">12</text><text transform="translate(65.25 32.5)">13</text><text transform="translate(48.25 29.5)">14</text><text transform="translate(65.25 55.5)">15</text><text transform="translate(52.25 64.5)">16</text><text transform="translate(65.5 65.5)">17</text><text transform="translate(65.5 75.35)">18</text><text transform="translate(65.5 84.5)">19</text></g></svg>