<svg xmlns="http://www.w3.org/2000/svg" width="109" height="109" class="kan-g"><g fill="none" stroke="#000" stroke-width="3" stroke-linecap="round" stroke-linejoin="round"><path d="M51.18 12.62c2.04 1.46 5.28 5.99 5.79 8.25M76.63 10.53c.01.22.03.56-.04.86-.41 1.82-2.26 5.83-5.49 8.28M42.45 24.02c1.08.3 3.06.35 4.14.3 11.23-.5 22.02-3.4 39.12-3.65 1.8-.03 2.88.14 3.78.29M63.4 24.47c.25.08-.24 1.4-.39 1.63-1.04 1.54-2.11 3.64-4.56 5.67M51.89 32.89c.43.52 1.05.9 1.05 1.6s-.2 14.27 0 21.12M53.66 33.1c2.42-.09 20.87-1.7 23.08-1.81 1.84-.09 3.29.48 3.14 1.12-.2.81-.71 21.6-.86 22.11"/><path d="M53.62 39.79c4.27-.1 8.54-.53 12.8-.85 1.29-.1 2.57-.19 3.8-.28M53.82 46.76c4.1-.19 9.2-.56 13.3-.88 1.13-.09 2.27-.17 3.37-.25M54.05 54.26c4.81 0 17.47-1.28 23.69-1.28M22.93 16.16c3.49 1.4 8.26 5.27 9.13 7.44M17 37.77c2.22.67 3.7.33 4.69.17.99-.17 7.9-2.33 9.38-2.66 1.48-.33 3.7.83 2.72 1.83-.99 1-3.95 4.83-4.69 5.66-.74.83-.49 2.33.99 3.49 1.48 1.17 2.72 2.5 3.46 3.5.74 1 .74 1.83-.74 2.66-1.48.83-9.39 6.49-10.87 6.82"/><path d="M17.73 59.45c2.81-.21 8.43-.72 12.64-.31s28.16 3.63 32.3 4.17c11.24 1.45 19.9 2.3 28.32 1.58M18.38 78.52c1.42.72 4.01.84 5.45.72 19.42-1.74 43.42-3.74 66.08-3.39 2.37.04 3.79.34 4.97.7"/><path d="M70.63 69.64c.08.43 1.12 2.23 1.12 4.95 0 7.91-.23 13.21-.23 17.66 0 10.8-5.25 3.1-7.21 1.73M42.37 83.16c1.93 1.62 4.97 6.67 5.45 9.19"/></g><g font-size="8" fill="gray"><text transform="translate(45.5 13.5)">1</text><text transform="translate(67.5 9.5)">2</text><text transform="translate(39.5 20.5)">3</text><text transform="translate(66.5 28.5)">4</text><text transform="translate(45.5 39.13)">5</text><text transform="translate(51.5 30.5)">6</text><text transform="translate(57.75 38.5)">7</text><text transform="translate(57.75 45.5)">8</text><text transform="translate(57.75 52.5)">9</text><text transform="translate(12.5 15.13)">10</text><text transform="translate(6.75 39.05)">11</text><text transform="translate(7.5 61.48)">12</text><text transform="translate(8.5 79.41)">13</text><text transform="translate(58.5 73.63)">14</text><text transform="translate(32.5 87.5)">15</text></g></svg>