<svg xmlns="http://www.w3.org/2000/svg" width="109" height="109" class="kan-g"><g class="kgPaths" fill="none" stroke="#000" stroke-width="3" stroke-linecap="round" stroke-linejoin="round"><path d="M22.75 21.79c2.62.59 5.85.36 8.37.05C46 20 66.09 17.76 77.25 17.2c2.86-.15 5.95-.27 8.75.41M27.63 33.11c.94.94 1.82 2 2.08 3.32 1.41 7.2 2.39 11.9 3.72 20.05.25 1.5.49 3.05.72 4.65M29.83 34.3c14.67-2.55 33.59-4.51 43.79-5.62 4.62-.5 6.83.22 6.12 5.32-.62 4.39-2.02 10.63-3.58 17.54-.32 1.42-.65 2.85-.98 4.29"/><path d="M32.69 45.89c9.44-1.64 27.06-4.01 44.68-5.46M35.05 57.91c11.95-1.53 26.91-3.37 39.47-4.24"/><path d="M52.29 10.5c.79.79 1.44 2.28 1.44 3.78.04 14.8-.02 36.15-.02 40.01M15.88 72.92c3.5 1.2 7.59.97 10.75.58 18-2.25 40.78-3.61 57.38-4.8 3.69-.26 8.37-.32 11.12.37"/><path d="M68.04 59.58c1 1 1.43 2.79 1.43 4.77 0 6.65.01 23.66.01 28.62 0 12.03-7.07 1.78-9.13.25M38.69 79.62c3.46 1.72 8.93 7.07 9.79 9.75"/></g><g class="kgNumbers" font-size="8" fill="gray"><text transform="translate(15.75 23.5)">1</text><text transform="translate(21.5 40.55)">2</text><text transform="translate(31.5 30.5)">3</text><text transform="translate(36.75 41.5)">4</text><text transform="translate(36.75 54.5)">5</text><text transform="translate(42.5 11.5)">6</text><text transform="translate(8.25 74.5)">7</text><text transform="translate(59.5 65.5)">8</text><text transform="translate(31.5 83.5)">9</text></g></svg>