<svg xmlns="http://www.w3.org/2000/svg" width="109" height="109" viewBox="0 0 109 109" class="kan-g"><g class="kgPaths" fill="none" stroke="currentColor" stroke-width="3" stroke-linecap="round" stroke-linejoin="round"><path d="M34.75 12.14c.17 1.86.01 3.67-.49 5.44-2.14 8.43-9.87 24.06-20.19 33.88M31.75 31.15c3.12.47 5.12.1 7.88-.03 10.07-.46 32.42-3.59 42.26-4.35 2.3-.35 4.59-.28 6.87.22M54.96 32.87c.09.48 1.26 2.49 1.26 5.52 0 16.49-.09 48.41-.09 53.37 0 11.25-7.38 1.25-8.88 0M31.95 53.18c.13 1.7-.05 3.37-.55 4.99-1.78 6.7-6.28 17.96-14.4 25.58M71.71 51.62c6.99 5.23 18.05 21.5 19.79 29.63"/></g><g class="kgNumbers" font-size="8" fill="gray"><text transform="translate(27.5 12.5)">1</text><text transform="translate(38 27.5)">2</text><text transform="translate(48.25 42.23)">3</text><text transform="translate(23.25 55.5)">4</text><text transform="translate(68.75 48.5)">5</text></g></svg>