<svg xmlns="http://www.w3.org/2000/svg" width="109" height="109" viewBox="0 0 109 109" class="kan-g"><g class="kgPaths" fill="none" stroke="currentColor" stroke-width="3" stroke-linecap="round" stroke-linejoin="round"><path d="M13.97 37.44c.95.54 2.68.61 3.64.54 9.39-.73 31.21-5.23 41.42-5.21 1.58 0 2.53.26 3.32.53"/><path d="M37.19 13.5c.08 2.1.15 1.98.18 4.88.13 13.62-5.72 64.01-26.45 77.79M41.76 43.62c1.06 1.66 1.41 2.62 1.47 5.19.28 11.44-.26 23.56-.26 31.34 0 17.61 5.77 16.62 25.33 16.61 22.44-.01 27.08-2.26 27.08-13.25M83.13 13.5c.06.7.32 1.93-.12 2.8-3.26 6.45-9.76 17.45-20.73 25.77"/><path d="M88.87 32.42c.08.68.27 1.85-.14 2.71-2.81 5.93-14.22 19.12-25.8 25.96M94.39 51.53c.09.79.2 2.04-.18 3.17C91.97 61.38 79.1 76.03 61.48 85M47.45 15.5c3.41 1.59 8.81 6.53 9.66 9"/></g><g class="kgNumbers" font-size="8" fill="gray"><text transform="translate(6.5 38.5)">1</text><text transform="translate(27.5 13.55)">2</text><text transform="translate(35.5 61.5)">3</text><text transform="translate(75.25 12.5)">4</text><text transform="translate(80.5 33.5)">5</text><text transform="translate(86.5 51.5)">6</text><text transform="translate(45.5 12.4)">7</text></g></svg>