<svg xmlns="http://www.w3.org/2000/svg" width="109" height="109" class="kan-g"><g class="kgPaths" fill="none" stroke="#000" stroke-width="3" stroke-linecap="round" stroke-linejoin="round"><path d="M26.18 15.15c1.91.73 4.13.88 6.16.73 10.96-.81 40.66-3.13 45.03-3.73 2.88-.4 3.63 1.1 3.13 3.97-.63 3.61-2 6.13-2.87 10.44M30.4 30.17c5.5-.24 44.17-3.13 49.91-3.37M30.58 16.83c0 3.82-.27 14.92-.69 18.47C27.5 55.5 25.75 71.5 14 86M43.71 34.22c2.37 1.61 6.13 6.62 6.73 9.13M71.05 31.39c.02.3.04.77-.03 1.19-.42 2.51-2.8 8.02-6.06 11.4M36.2 47.68c1.08.43 3.06.52 4.14.43 7.98-.67 31.34-4.37 41.61-4.37 1.8 0 2.88.2 3.78.42M31.25 67.16c1.4.49 3.97.6 5.37.49 15.17-1.13 35.99-3.61 52.47-4.19 2.33-.08 3.74.23 4.91.48"/><path d="M50.4 50.34c.57 1.28 1.38 2.28 1.38 3.88 0 14.59.72 32.04-18.19 43.12M70.38 47.43c.74.4 1.18 1.79 1.33 2.58.15.8 0 45.55-.15 50.52"/></g><g class="kgNumbers" font-size="8" fill="gray"><text transform="translate(29.85 12.5)">1</text><text transform="translate(35.66 26.5)">2</text><text transform="translate(22.5 23.5)">3</text><text transform="translate(37.5 37.5)">4</text><text transform="translate(62.5 36.5)">5</text><text transform="translate(34.25 44.5)">6</text><text transform="translate(30.5 64.5)">7</text><text transform="translate(43.25 56.1)">8</text><text transform="translate(63.5 53.5)">9</text></g></svg>