<svg xmlns="http://www.w3.org/2000/svg" width="109" height="109" viewBox="0 0 109 109" class="kan-g"><g class="kgPaths" fill="none" stroke="currentColor" stroke-width="3" stroke-linecap="round" stroke-linejoin="round"><path d="M22.6 33.16c.9.46 2.3 1.71 2.3 4.41 0 3.13-1.15 17.8-1.65 23.3-.26 2.84-1 4.5 3.31 4.16 12.59-.99 48.44-5.16 59.7-6.42"/><path d="M86.48 27.75c.77.62 2.42 2.62 2.3 3.91-.54 5.96-1.79 21.71-2.73 32.08"/><path d="M53.07 10.12c1.18 1 2.25 3 2.25 4.63 0 13.95.05 22.37-.18 35.38-.4 23.24-7.4 40.99-27.59 51.46"/></g><g class="kgNumbers" font-size="8" fill="gray"><text transform="translate(13.5 34.5)">1</text><text transform="translate(78.5 28.5)">2</text><text transform="translate(44.5 10.5)">3</text></g></svg>