<svg xmlns="http://www.w3.org/2000/svg" width="109" height="109" viewBox="0 0 109 109" class="kan-g"><g class="kgPaths" fill="none" stroke="currentColor" stroke-width="3" stroke-linecap="round" stroke-linejoin="round"><path d="M52.29 10.13c.69.41 2.15 3.06 2.29 3.87.14.82.41 14.15.27 19.25"/><path d="M26.43 24.25c.56.33 1.12 1.73 1.12 2.41 0 2.59-.3 3.84-1.59 7.76-.48 1.45.81 2.53 2.11 2.28 19.18-3.7 49.33-4.42 54.35-4.55M84.04 17.88c.64.38 1.38 2.83 1.28 3.59-.63 4.65-1.88 9.97-2.9 14.49M19.34 51.84c2.19.58 4.96.51 6.87.31 15.64-1.6 42.52-4.33 51.19-4.92 5.64-.38 6.84 1.02 6.33 4.85-.94 7.1-3.5 27.92-10.17 41.31-3.63 7.29-7.58 5.36-12.54.18"/><path d="M48.88 53.18c.09 1.01.13 2.61-.18 4.06C45.67 71.48 37.5 88.5 18.25 98.6"/></g><g class="kgNumbers" font-size="8" fill="gray"><text transform="translate(43.5 10.5)">1</text><text transform="translate(18.5 21.5)">2</text><text transform="translate(74.5 17.5)">3</text><text transform="translate(12.5 51.5)">4</text><text transform="translate(40.5 59.5)">5</text></g></svg>