<svg xmlns="http://www.w3.org/2000/svg" width="109" height="109" class="kan-g"><g class="kgPaths" fill="none" stroke="currentColor" stroke-width="3" stroke-linecap="round" stroke-linejoin="round"><path d="M24.95 19c.9.9 1.26 2.38 1.26 3.67v43.65"/><path d="M11.79 42.26c.79.79 1.08 1.86 1.08 3.13 0 5.53-.12 12.74-.12 22.24 0 2.38.27 3.23 2.63 2.65 8.57-2.11 13.34-3.62 24.12-5.83M39.72 36.91c.93.93 1.08 2.09 1.08 3.76 0 4.65-.03 12.88-.04 21.07-.01 2.75-.01 5.47-.01 8M53.71 17.03c1 1 1.18 2.09 1.18 3.31 0 1.03-.02 64.25-.02 67.78M55.8 19.17c3.66-.45 16.93-2.18 22.47-2.87 4.17-.52 5.9.09 5.9 4.7 0 2.38-.04 45.25-.04 65.39"/><path d="M55.38 41.84c7.76-1 20.7-2.19 27.52-2.5M55.59 63.04C63 62.38 74.88 61 82.92 60.98M38.04 89.38c2.86 1 5.74 1.06 8.73.77 14.61-1.4 31.86-2.53 45.11-2.52 2.87 0 5.7.34 8.5.95"/></g><g class="kgNumbers" font-size="8" fill="gray"><text transform="translate(15.5 18.5)">1</text><text transform="translate(3.5 42.5)">2</text><text transform="translate(31.5 34.5)">3</text><text transform="translate(47.5 25.5)">4</text><text transform="translate(57.5 15.5)">5</text><text transform="translate(59.5 37.5)">6</text><text transform="translate(60.25 59.5)">7</text><text transform="translate(37.5 86.5)">8</text></g></svg>