<svg xmlns="http://www.w3.org/2000/svg" width="109" height="109" class="kan-g"><g class="kgPaths" fill="none" stroke="currentColor" stroke-width="3" stroke-linecap="round" stroke-linejoin="round"><path d="M25.2 16.25c.61.36 2.01 2.69 2.01 3.42 0 7.55.25 42.97.25 52.65"/><path d="M12.29 43.01c.67.4 1.39 2.07 1.33 2.88-.37 5.52.13 20.06-1.2 28.36-.29 1.8.19 2.22 1.82 1.81 9.26-2.31 14.51-3.81 25.76-6.11M40.72 38.66c.67.4 1.33 2.96 1.33 3.76 0 6.21-.8 21.57-1.92 32.31M66.81 13.13c.76.45 2.36 3.35 2.51 4.25.15.9-.25 34.12-.25 47.25M69.25 39.23c10.54-.98 22.76-2.95 24.23-2.95 1.47 0 4.1 0 5.27.33M51.41 66.34c.42.52.85.96 1.04 1.61 1.46 5.17 3.21 19.43 4.21 28.71M53.28 68.21c11.22-1.92 29.76-3.49 35.08-4.23 1.94-.27 3.11 2.69 2.83 4.27-1.15 6.51-2.59 13.72-4.18 21.97M57.07 92.67c7.94-.46 22.49-1.89 32.92-2.21"/></g><g class="kgNumbers" font-size="8" fill="gray"><text transform="translate(16.5 16.5)">1</text><text transform="translate(3.5 42.5)">2</text><text transform="translate(32.71 38.5)">3</text><text transform="translate(57.5 13.5)">4</text><text transform="translate(72.5 35.5)">5</text><text transform="translate(45.5 76.5)">6</text><text transform="translate(55.5 63.5)">7</text><text transform="translate(60.5 89.5)">8</text></g></svg>