<svg xmlns="http://www.w3.org/2000/svg" width="109" height="109" class="kan-g"><g class="kgPaths" fill="none" stroke="#000" stroke-width="3" stroke-linecap="round" stroke-linejoin="round"><path d="M53.85 10c.89.89 1.43 2.12 1.43 3.27 0 .7-.08 9.63-.19 13.93"/><path d="M28.91 18.23c.87.87 1.34 2.16 1.16 3.25-.57 3.52-.57 4.15-1.19 8.2-.24 1.57.98 2.72 2.4 2.38C44.12 29 63.12 27 80.77 26.04M83.16 12.92c1.02 1.02 1.06 2.58.91 3.27-.73 3.41-1.64 6.64-2.55 10.47-.27 1.15-.54 2.35-.81 3.63M28.38 44.68c2.98 1.16 6.88.37 9.94.1 11.18-1 25.98-3.02 36.38-3.72 3.22-.22 6.5-.5 9.67.25"/><path d="M29.43 45.03c.47 1.15.67 2.48.41 3.99C27.5 62.38 24.38 75.75 10.5 89.5M41.21 57.97c1.79.53 4.06.48 6.01.25 6.03-.71 15.03-1.96 22.66-2.58 1.63-.13 3.28-.13 4.89.24M30.15 76.76c2.01.37 5.73.3 7.72.08 14.38-1.62 34.88-3.78 46.05-4.16 3.35-.12 5.37.18 7.05.37"/><path d="M56.98 58.84c.78.78 1.36 1.91 1.36 3.22 0 .66-.01 23.15-.09 33.32-.02 2.08-.03 3.68-.04 4.51"/></g><g class="kgNumbers" font-size="8" fill="gray"><text transform="translate(45.5 9.5)">1</text><text transform="translate(20.5 16.5)">2</text><text transform="translate(74.5 10.5)">3</text><text transform="translate(29.5 42.13)">4</text><text transform="translate(21.5 53.5)">5</text><text transform="translate(42.75 55.63)">6</text><text transform="translate(31.5 73.97)">7</text><text transform="translate(50.25 67.5)">8</text></g></svg>