<svg xmlns="http://www.w3.org/2000/svg" width="109" height="109" viewBox="0 0 109 109" class="kan-g"><g class="kgPaths" fill="none" stroke="currentColor" stroke-width="3" stroke-linecap="round" stroke-linejoin="round"><path d="M26.33 20c1.08 1.08 1.46 2.5 1.46 4.24 0 8.26.03 26.38.03 37.61"/><path d="M14.04 42.4c1.03 1.03 1.08 2.1 1.08 3.36 0 5.5.13 11.12-.7 19.5-.18 1.81.25 2.39 1.82 1.8 11.13-4.18 15.88-5.81 25.51-9.06M41.47 34.83c.97.97 1.33 2.29 1.33 3.74 0 4.3.06 10.46.06 17.17 0 3.38-.12 6.21-.12 9.25M68.34 12.88c1.14 1.14 1.37 2.24 1.37 3.69 0 .73-.09 17.73-.09 22.55M70.95 25.03c2.05-.19 14.12-1.99 15.24-1.99s2.63-.25 3.54-.06M51.61 41.28c2.01.56 4.23.26 6.27.08 8.25-.71 20.33-2.27 33-3.1 1.94-.13 3.7-.19 5.61.13M52 55.25c1.87.6 4.24.24 6.13.06 12.16-1.14 23.09-2.23 32.87-3.15 2.11-.2 3.99-.22 6 .59M69.22 57c1.14 1.14 1.31 2.55 1.31 4.55 0 8.42.02 21.06.08 29.83.01 2.19-.1 4.15-.1 5.75M74.08 64.92c5.54 1.58 11.67 5.08 15.67 10.2"/></g><g class="kgNumbers" font-size="8" fill="gray"><text transform="translate(18.75 19.63)">1</text><text transform="translate(6.75 42.05)">2</text><text transform="translate(33.75 34.63)">3</text><text transform="translate(59.25 13.5)">4</text><text transform="translate(74.5 21.13)">5</text><text transform="translate(50.5 38.5)">6</text><text transform="translate(50.5 52.5)">7</text><text transform="translate(63.5 64.5)">8</text><text transform="translate(76.5 63.5)">9</text></g></svg>