<svg xmlns="http://www.w3.org/2000/svg" width="109" height="109" viewBox="0 0 109 109" class="kan-g"><g class="kgPaths" fill="none" stroke="currentColor" stroke-width="3" stroke-linecap="round" stroke-linejoin="round"><path d="M22.84 25.77c.94.94 1.12 2.11 1.12 3.58 0 6.8-.01 31.01-.01 39.74"/><path d="M11.76 45.98c.75.75.83 2.01.74 3.09-.45 5.53-.91 12.26-1.62 20.3-.28 3.17 0 4.38 2.96 3.58 6.48-1.75 12.04-3.2 20.24-4.5M36.32 43.31c.56 1.19.56 2.44.49 3.64-.26 4.32-.75 11.73-1.33 19.43-.17 2.24-.35 4.51-.53 6.73M50.62 11.88c2.85 2.06 7.36 8.47 8.07 11.67M78.93 10.52c.07 1.05-.04 2.1-.57 3.02-1.73 2.96-2.83 4.98-6.61 8.91M44.92 28.07c2.46.55 5.35.41 7.33.17 8.4-1.01 24-2.79 31.88-3.18 1.91-.09 3.97-.26 5.81.35M64.46 28.66c.75.75 1.06 1.84 1.06 3.32 0 3.9.08 14.28.08 20.32"/><path d="M47.14 40.79c1.85.71 4.37.19 6.26.01 6.42-.61 17.18-2.12 24.49-2.54 1.99-.12 4.05-.32 6.01.13M42.27 54.35c3.6.65 6.02.62 8.59.41 9.15-.75 27.38-2.36 37.89-2.92 2.51-.13 4.99-.37 7.43.34M54.14 57.59c.07.86-.19 2.08-.64 3.21-2.98 7.5-9.75 21.45-22.41 31.43M53.61 69.41c2.23.46 4.9.05 6.39-.12 6.17-.7 15.75-1.91 22.11-2.32 1.88-.12 4.64-.34 6.26.1M68.04 69.38c.79.79.91 1.74.91 3.02 0 5.84-.08 16.84-.08 21.47M43.07 95.68c2.7.73 5.3.67 8.06.47 13.6-.99 24.64-1.92 36.63-2.17 3.04-.06 6 .14 8.57 1.08"/></g><g class="kgNumbers" font-size="8" fill="gray"><text transform="translate(13.25 24.25)">1</text><text transform="translate(3.25 45.25)">2</text><text transform="translate(31.25 40.25)">3</text><text transform="translate(43.25 11.25)">4</text><text transform="translate(70.25 9.08)">5</text><text transform="translate(39.5 25.25)">6</text><text transform="translate(57.25 36.25)">7</text><text transform="translate(42.25 39.93)">8</text><text transform="translate(41.25 52.25)">9</text><text transform="translate(41.5 64.25)">10</text><text transform="translate(57.25 66.25)">11</text><text transform="translate(58.25 79.25)">12</text><text transform="translate(41.25 93.25)">13</text></g></svg>