<svg xmlns="http://www.w3.org/2000/svg" width="109" height="109" class="kan-g"><g class="kgPaths" fill="none" stroke="currentColor" stroke-width="3" stroke-linecap="round" stroke-linejoin="round"><path d="M35.21 14.37c1.04.88 1.49 4 .75 5.75C32 29.5 27.25 40.75 20.5 52.75c-1.3 2.32-.52 2.11 0 3C27 67 34.75 80 37.5 95.25M58.21 13.87c1.04.88 1.39 3.96.75 5.75C55.5 29.25 52.75 40.75 46.25 52c-.71 1.22-.29 2.37.25 3.25 6.5 10.5 13 22 17 39M84.21 14.87c1.04.88 1.35 3.94.75 5.75C81.5 31 77.25 41.75 70.75 53c-.71 1.22-.29 2.37.25 3.25 6.5 10.5 13 21 17 38"/></g><g class="kgNumbers" font-size="8" fill="gray"><text transform="translate(27.5 13.5)">1</text><text transform="translate(50.5 13.5)">2</text><text transform="translate(76.5 13.5)">3</text></g></svg>