<svg xmlns="http://www.w3.org/2000/svg" width="109" height="109" class="kan-g"><g class="kgPaths" fill="none" stroke="currentColor" stroke-width="3" stroke-linecap="round" stroke-linejoin="round"><path d="M27.62 15.88c3.78 3.81 7.83 10.47 8.38 12.38M47 11.88c2.5 2.75 5.12 8.75 6.25 13.62M76.75 11c.12 1-.07 1.71-.5 2.5-1.5 2.75-4.75 7.62-7.5 10.75M29.04 33.81c.83.83 1.36 1.81 1.5 2.63.35 2 2.74 14.15 4 20.55.43 2.19.72 3.7.75 3.91M30.43 34.61c10.82-1.74 39.95-4.74 43.88-4.77 2.58-.02 4.81 1.28 4.29 4.17-.17.94-2.49 12.79-3.78 19.13-.44 2.16-.73 3.65-.73 3.81"/><path d="M33.57 46.52c8.81-.9 34.93-3.4 42.24-3.6M35.91 58.2c7.34-.82 27.84-2.95 37.27-3.48M20.05 69.22c2.71.91 5.66.81 8.45.5C43 68.12 66 66 81.12 65.22c2.78-.14 5.35-.08 8.08.47"/><path d="M52.92 33.81c.95.95 1.28 2.32 1.28 3.93 0 3.91.02 38.31.02 54.38v7.38M50.97 68.1c0 1.53-.76 2.61-1.51 3.59-6.51 8.58-18.5 19.21-30.88 23.73M55.5 69.38C61.45 74.81 73.89 85 81.95 89.6c2.4 1.37 5.24 2.96 7.96 3.46"/></g><g class="kgNumbers" font-size="8" fill="gray"><text transform="translate(21.5 16.5)">1</text><text transform="translate(39.5 11.5)">2</text><text transform="translate(67.5 9.5)">3</text><text transform="translate(22.5 41.5)">4</text><text transform="translate(26.25 30.13)">5</text><text transform="translate(36.49 42.5)">6</text><text transform="translate(37.5 55.5)">7</text><text transform="translate(20.5 66.13)">8</text><text transform="translate(46.5 40.63)">9</text><text transform="translate(31.5 79.5)">10</text><text transform="translate(66.5 75.88)">11</text></g></svg>