<svg xmlns="http://www.w3.org/2000/svg" width="109" height="109" viewBox="0 0 109 109" class="kan-g"><g class="kgPaths" fill="none" stroke="currentColor" stroke-width="3" stroke-linecap="round" stroke-linejoin="round"><path d="M25.79 19.59c1.06 1.06 1.34 2.54 1.34 4.22 0 .65.03 42.49.04 59.94V91M28.1 22.11c6.33-.64 30.52-2.86 49.64-4.47 2.52-.21 5.4-.64 7.9-.12M28.5 44.79c16.11-1.68 35.82-3.92 47-5.07 4.53-.47 4.99 1.53 4.16 5.13-1.04 4.48-2.57 11.1-3.73 16.46M28.32 66.83c5.43-.54 29.86-2.96 42.93-4.02 2.37-.19 4.5-.44 6.77-.32M28.1 90.11c9.21-.34 35.96-2.06 52.02-2.8 2.33-.11 5.41-.05 7.71.43"/></g><g class="kgNumbers" font-size="8" fill="gray"><text transform="translate(20.5 28.5)">1</text><text transform="translate(30.75 18.5)">2</text><text transform="translate(33.74 40.55)">3</text><text transform="translate(33.57 62.5)">4</text><text transform="translate(33.75 86.5)">5</text></g></svg>