<svg xmlns="http://www.w3.org/2000/svg" width="109" height="109" class="kan-g"><g class="kgPaths" fill="none" stroke="#000" stroke-width="3" stroke-linecap="round" stroke-linejoin="round"><path d="M25.5 20.89c2.38 1.39 4.42 1.39 7.92.93 7.1-.93 38.8-4.65 40.97-4.83 2.86-.23 5.11 1.52 4.09 5.1C78.18 23.15 76 34.75 74 45M30 50.5c4.39-.42 25.32-2.76 39.72-4.25 2.82-.29 5.38-.55 7.53-.75"/><path d="M28.48 22.4c.81.81.74 1.89.75 3.85.02 12.11-.06 39.32-.06 45.25 0 18 1.21 20.25 32.03 20.25 31.18 0 31.56-2.62 31.56-12.75"/></g><g class="kgNumbers" font-size="8" fill="gray"><text transform="translate(33.5 16.38)">1</text><text transform="translate(35 46.38)">2</text><text transform="translate(21.5 32.88)">3</text></g></svg>