<svg xmlns="http://www.w3.org/2000/svg" width="109" height="109" class="kan-g"><g class="kgPaths" fill="none" stroke="#000" stroke-width="3" stroke-linecap="round" stroke-linejoin="round"><path d="M26.5 23.62c2.1.95 4.3.39 6.47.08 14.07-2.03 32.29-4.05 41.9-4.86 4.24-.36 7.77 1.41 6.23 6.74-1.78 6.14-3.48 12.8-6.55 22.47"/><path d="M53.06 24.13c.94 1.49.89 2.87.76 4.25-.57 6.5-1.07 12.5-1.82 18.12M31 49.75c5.25-.5 31.12-3 43-3.5"/><path d="M28.13 24.5c.87.87 1.29 1.94 1.29 4.03 0 9.72-.05 35.32-.05 41.6 0 21 .5 21.67 31.36 21.67 31.14 0 32.39-5.79 32.26-15.39"/></g><g class="kgNumbers" font-size="8" fill="gray"><text transform="translate(32.5 20.38)">1</text><text transform="translate(45.5 31.3)">2</text><text transform="translate(33.67 46.56)">3</text><text transform="translate(21.92 31.31)">4</text></g></svg>