<svg xmlns="http://www.w3.org/2000/svg" width="109" height="109" viewBox="0 0 109 109" class="kan-g"><g fill="none" stroke="currentColor" stroke-width="3" stroke-linecap="round" stroke-linejoin="round"><path d="M49.94 8.84c3.07 1.6 5.89 3.57 7.11 7.93M27 24.63c1.02.29 2.21.33 3.23.29 5.75-.25 40.77-3.97 49.46-4.18 1.7-.04 2.72.14 3.57.28M39.5 26.83c3.51 4.31 5.75 9.49 6.07 12.33M67.84 23.82c.61.52.27 1.81.11 2.22C66 31 63.48 37.4 62.27 39.66M20.41 41.19c-.1 4.53-2.36 16.37-3.16 19.06"/><path d="M21.22 45c3.53 0 48.25-7.25 65.97-7.25 12.06 0 3.81 5.75-.69 9.5M32.56 59.63c.57.34 1.9 2.52 1.9 3.2 0 4.42-.07 22.5-.19 26.72M34.96 61.2c3.58-.24 37.66-4.87 40.34-5.01 3.14-.17 3.82 2.97 3.7 4.51-.57 7.75-.31 16-2.15 23.6-1.32 5.47-4.71.75-6.22-1.13"/><path d="M53.67 47.17c.57.34 1.78 2.53 1.89 3.2.12.68-.07 46.91-.19 51.13"/></g><g font-size="8" fill="gray"><text transform="translate(43.5 9.5)">1</text><text transform="translate(19.5 25.5)">2</text><text transform="translate(34.5 33.5)">3</text><text transform="translate(59.5 30.5)">4</text><text transform="translate(13.5 45.5)">5</text><text transform="translate(24.5 41.5)">6</text><text transform="translate(25.5 66.5)">7</text><text transform="translate(35.5 57.13)">8</text><text transform="translate(44.25 50.5)">9</text></g></svg>