<svg xmlns="http://www.w3.org/2000/svg" width="109" height="109" class="kan-g"><g class="kgPaths" fill="none" stroke="currentColor" stroke-width="3" stroke-linecap="round" stroke-linejoin="round"><path d="M52.49 16.5c1 1.01 1.51 2.62 1.51 4.5v65.5M34.36 28.12c.26 1.16.29 1.96-.13 3.3-1.6 5.14-4.92 11.28-7.64 15.24-1.01 1.47-1.69 2.94.36 3.73 2.68 1.04 5.31 2.13 8.62 4.08"/><path d="M43.12 40.63c.26.58.09 2.74-.22 3.42-3.75 8.44-11.44 19.33-17.66 28.83-1.05 1.61-.2 3.11 1.66 2.42 6.23-2.3 9.48-3.8 15.53-6.35"/><path d="M40.96 63.35c2.11 2.11 5.46 8.68 5.99 11.97M74.36 24.37c.26 1.16.27 2.31-.38 3.55-3.39 6.43-6.01 10.48-8.66 14.14-.68.94-1.29 2.37.01 3.14 2.92 1.75 4.8 2.78 8.74 5.77"/><path d="M81.12 38.63c.38 1.25.32 2.66-.47 3.92-4.52 7.32-9.15 14.82-16.16 24.83-1.39 1.98.01 2.69 1.73 2.15 5.14-1.61 8.53-2.89 13.7-4.33"/><path d="M78 59.12c1.92 2.24 4.97 9.21 5.45 12.7M13.13 39.79c1.16 1.17 1.3 3.09 1.25 4.29-.38 8.17-.55 34.92-.55 41.86 0 2.72.48 4.18 2.98 3.95C32.12 88.5 70.5 86 90.04 85.22M93.25 33.2c.9.9 1.15 2.43 1 4.61-.57 8.22-2.13 32.24-2.92 44.33-.24 3.64-.41 6.2-.46 6.92"/></g><g class="kgNumbers" font-size="8" fill="gray"><text transform="translate(44 17.25)">1</text><text transform="translate(27.25 28.3)">2</text><text transform="translate(36.5 41.73)">3</text><text transform="translate(41.25 62.25)">4</text><text transform="translate(66.5 25.38)">5</text><text transform="translate(74 40.3)">6</text><text transform="translate(81.5 59.73)">7</text><text transform="translate(7.25 35.88)">8</text><text transform="translate(86 31.25)">9</text></g></svg>