<svg xmlns="http://www.w3.org/2000/svg" viewBox="0 0 109 109" class="kan-g"><g class="kgPaths" fill="none" stroke="currentColor" stroke-width="3" stroke-linecap="round" stroke-linejoin="round"><path d="M35.33 12.14c2.86 2.04 7.39 8.4 8.1 11.58"/><path d="M69.96 11.14c.02.37.05.96-.05 1.5-.62 3.16-4.16 10.09-9 14.33"/><path d="M23 32.25c1.22.45 3.47.54 4.69.45 9.06-.7 43.88-5.12 55.52-5.12 2.04 0 3.27.21 4.29.44"/><path d="M15.25 60.7c1.52.54 4.3.66 5.82.54C37.5 60 74.25 56 91.69 56.01c2.53 0 4.05.26 5.31.53"/><path d="M42.74 33.75c.67 1.74 1.63 3.11 1.63 5.28C44.36 58.88 46 82 24.31 97.72"/><path d="M65.87 31.75c1.09.5 1.74 2.25 1.96 3.25.22 1 0 57.25-.22 63.5"/></g><g class="kgNumbers" font-size="8" fill="gray"><text transform="translate(28.25 12.63)">1</text><text transform="translate(63 11)">2</text><text transform="translate(14.25 32.48)">3</text><text transform="translate(6.25 63.4)">4</text><text transform="translate(34.25 41.33)">5</text><text transform="translate(59.25 37.25)">6</text></g></svg>