<svg xmlns="http://www.w3.org/2000/svg" width="109" height="109" class="kan-g"><g fill="none" stroke="currentColor" stroke-width="3" stroke-linecap="round" stroke-linejoin="round"><path d="M14.68 27.88c.59.21 1.69.27 2.28.21 7.55-.69 23.81-3.35 29.02-3.44.99-.02 1.58.1 2.08.21"/><path d="M29.95 12.38c.35.24 1.1 1.77 1.17 2.24.07.47-.04 19.56-.12 22.51M16.77 39.41c.48 1.07.71 1.61 1.26 2.86.79 1.79 2.11 18.4 2.87 20.01M18.33 39.41c2.7-.18 23.79-3.13 26.23-2.68.97.18 1.9 1.59 1.53 3.39-.7 3.39-2.1 13.4-3.37 19.47"/><path d="M20.49 50.13c3.8 0 7.69-.77 11.44-1.25 1.21-.16 2.42-.31 3.59-.46M21.7 60.31c6.8-.81 15.8-2.56 20.73-2.64M11.24 75.07c.83.34 2.35.43 3.17.34 7.16-.81 24.47-4.31 31.2-4.28 1.38.01 2.21.16 2.9.33"/><path d="M30.82 60.49c.25.4.77 2.95.82 3.74.05.79-.03 27.59-.08 32.52M69.67 12.75c.05.85.25 2.24-.11 3.43C67.25 23.75 61.25 37 50.44 48M68.97 18.56c5.28 4.69 21.11 19.9 24.99 23.32 1.4 1.23 3.2 1.76 4.6 2.11M57.64 46.42c.53.3 2.34.33 2.87.27 3.64-.36 13.85-2.11 20.06-2.7.88-.08 2.72.26 3.16.41M52.19 65.77c.85.33 3.92.46 4.76.33 8.72-1.42 26.05-2.84 33.38-3.06 1.42-.04 2.27.15 2.98.32"/><path d="M70.77 46.08c.3.36.94 2.72 1 3.44.06.73-.04 43.83-.1 48.36"/></g><g font-size="8" fill="gray"><text transform="translate(8.5 28.5)">1</text><text transform="translate(20.5 12.13)">2</text><text transform="translate(10.5 46.5)">3</text><text transform="translate(17.5 37.63)">4</text><text transform="translate(23.25 46.5)">5</text><text transform="translate(23.25 57.71)">6</text><text transform="translate(5.5 75.13)">7</text><text transform="translate(24.5 68.5)">8</text><text transform="translate(61.5 15.13)">9</text><text transform="translate(76.5 23.45)">10</text><text transform="translate(62.5 42.5)">11</text><text transform="translate(49.44 62.5)">12</text><text transform="translate(60.5 55.5)">13</text></g></svg>