<svg xmlns="http://www.w3.org/2000/svg" viewBox="0 0 109 109" class="kan-g"><g class="kgPaths" fill="none" stroke="currentColor" stroke-width="3" stroke-linecap="round" stroke-linejoin="round"><path d="M52.38 14.87c.6 1.81.67 3.04-.3 5.12-4.08 8.76-12.33 18.51-18.9 24.5-1.11 1.02-.69 3.18.5 3.52 6.33 1.81 13.57 2.74 22.18 6.13"/><path d="M74.98 27.31c.6.9.21 4.26-.5 5.32-8.73 13.11-32.83 40.03-47.29 54.79-1.94 1.98-1.23 4.39 1.21 3.91 13.11-2.59 36.25-6.83 49.21-9.24"/><path d="M68.39 67.96c5.73 4.65 14.81 19.13 16.24 26.37"/></g><g class="kgNumbers" font-size="8" fill="gray"><text transform="translate(45.5 14.5)">1</text><text transform="translate(66.5 26.5)">2</text><text transform="translate(65.5 64.5)">3</text></g></svg>