<svg xmlns="http://www.w3.org/2000/svg" width="109" height="109" class="kan-g"><g class="kgPaths" fill="none" stroke="#000" stroke-width="3" stroke-linecap="round" stroke-linejoin="round"><path d="M55.1 15.28c1.12 1.12 1.58 2.47 1.58 4.14 0 2.46-.07 5.21-.07 9.28M25.38 31.24c2.05.5 5.56.66 7.6.5 13.01-1 33.26-3.37 49.47-3.67 3.41-.06 5.46.24 7.17.49M27.64 32.32c.48 1.18.54 2.27.41 4.09-.8 11.21-3.93 35.09-16.05 50.84M59.48 44.99c.39 1.51.14 3.51-.73 5.26-6.05 12.1-14 25-22.17 38.22-1.83 2.95-1.31 4.35 1.97 3.67 9.7-2.01 29.33-6.26 42.83-8.86"/><path d="M72.56 69.34C77.75 74 85.25 85.5 88 93.75"/></g><g class="kgNumbers" font-size="8" fill="gray"><text transform="translate(50 12)">1</text><text transform="translate(30.75 27.13)">2</text><text transform="translate(17.25 37.63)">3</text><text transform="translate(51.5 43.5)">4</text><text transform="translate(70 65)">5</text></g></svg>