<svg xmlns="http://www.w3.org/2000/svg" width="109" height="109" viewBox="0 0 109 109" class="kan-g"><g class="kgPaths" fill="none" stroke="currentColor" stroke-width="3" stroke-linecap="round" stroke-linejoin="round"><path d="M54.81 12.38c1.09 1.09 1.51 2.62 1.51 4.4 0 1.46-.07 6.71-.07 9.21M23.63 29.23c3.5.77 6.89.34 10 .03 15.4-1.54 31.85-2.97 47.39-4.25 2.73-.23 5.18-.26 7.87.32M26.24 30.25c1.07 1.07 1.26 2.53 1.15 4.5-.89 16-3.39 41.75-16.83 54.97M35.24 48.8c2.64.45 5.44.33 7.75.06 11.64-1.36 27.14-3.11 40.5-3.58 2.55-.09 5.02-.12 7.52.47M61.91 49.49c.86.86 1.3 2.13 1.3 3.93 0 12.35-.09 35.12-.09 39.32 0 9.53-7.25-.08-8.51-1.14"/></g><g class="kgNumbers" font-size="8" fill="gray"><text transform="translate(45.75 13.63)">1</text><text transform="translate(29.25 26.5)">2</text><text transform="translate(19.5 39.5)">3</text><text transform="translate(34.5 46.5)">4</text><text transform="translate(54.5 58.5)">5</text></g></svg>