<svg xmlns="http://www.w3.org/2000/svg" width="109" height="109" viewBox="0 0 109 109" class="kan-g"><g fill="none" stroke="currentColor" stroke-width="3" stroke-linecap="round" stroke-linejoin="round"><path d="M51.11 9.63c2.12.89 6.61 6.66 7.03 8.44M23.46 24.94c1.44.51 4.09.6 5.53.51 15.02-.86 36.4-3.82 55.23-4.02 2.41-.03 3.85.25 5.05.5M27.08 27.58c.06 1.36.12 3.5-.11 5.45-1.34 11.48-3.36 39.33-17.81 51.7M38.62 36.88c.94.35 2.68.49 3.62.35 9.51-1.48 25.76-3.48 35.59-4.01 1.57-.08 2.52.17 3.3.34M37.26 46.86c.63.46 1.44 1.81 1.56 2.42.86 4.4 1.89 14.24 3.1 22.57M39.7 49.02c9.63-.88 28.05-3.52 37.28-4.15 2.71-.19 3.28 1.21 3.16 2.58-.4 4.74-2.38 13.51-4.54 21.28"/><path d="M41.97 59.51c7.06-.72 15.12-1.44 22.18-2.09.79-.07 3.59-.15 4.39-.22M41.97 70.48C52.5 69 64.25 67.75 76.1 66.82M28.25 83c1.35.7 3.79.79 5.16.7 18.34-1.2 41.59-4.45 53.38-4.31 2.24.03 3.59.33 4.71.69"/><path d="M57.01 27.29c.52.55 1.62 4.08 1.72 5.18.1 1.09-.07 60.94-.17 67.76"/></g><g font-size="8" fill="gray"><text transform="translate(45.75 9.13)">1</text><text transform="translate(32.25 21.13)">2</text><text transform="translate(18.75 34.94)">3</text><text transform="translate(32.25 35.5)">4</text><text transform="translate(31.5 56.5)">5</text><text transform="translate(41.5 46.5)">6</text><text transform="translate(45.5 56.5)">7</text><text transform="translate(45.75 67.63)">8</text><text transform="translate(20.25 88.63)">9</text><text transform="translate(47.5 31.5)">10</text></g></svg>