<svg xmlns="http://www.w3.org/2000/svg" width="109" height="109" class="kan-g"><g fill="none" stroke="currentColor" stroke-width="3" stroke-linecap="round" stroke-linejoin="round"><path d="M50.94 11.82c2.34.77 7.28 5.75 7.75 7.28M23.63 27.23c1.52.54 4.3.63 5.82.54 15.8-.91 37.3-5.02 52.61-5.73 2.53-.12 4.05.26 5.31.53M28.49 28c.05 1.55.11 3.99-.1 6.21-1.24 13.1-4.02 44.89-17.33 59M34.44 41.32c.86.49 3.17 1.07 5 .85 12.41-1.46 28.17-4.47 39.31-5.18 1.92-.12 3.46.32 5.18.71"/><path d="M56.41 30c.31.95.01 2.39-.42 3.46-6.33 15.62-14.11 25.73-27.85 34.89M58.38 39.96c6.93 4.77 23.07 16.91 29.99 20.1 2.35 1.08 3.17 1.25 4.24 1.35M38.83 61.07c.55.5 1.09 1.55 1.1 2.27.01.72 2.95 20.5 3.14 21.2M40.82 62.19c3.05-.34 29.19-3.68 31.98-4.01 2.32-.28 3.45 1.24 3.23 2.9-.44 3.4-1.65 12.67-3.02 20.79"/><path d="M41.63 72.03c7.15-.57 14.29-1.62 21.41-2.46.85-.1 1.68-.2 2.49-.29M43.6 82.44c6.37-.69 23.8-2.7 28.81-3.1"/><path d="M55.57 50.62c.62.96 1.11 2.09 1.14 3.57.17 6.61-.44 27.97-.44 32.47 0 7.67 1.23 10.34 18 10.12 12.67-.17 14.44-1.64 14.44-8.98"/></g><g font-size="8" fill="gray"><text transform="translate(45.25 11.5)">1</text><text transform="translate(25.5 24.5)">2</text><text transform="translate(19.5 36.5)">3</text><text transform="translate(33.5 38.4)">4</text><text transform="translate(48.5 33.5)">5</text><text transform="translate(72.5 47.5)">6</text><text transform="translate(33.25 73.18)">7</text><text transform="translate(46.25 59.1)">8</text><text transform="translate(45.25 69.03)">9</text><text transform="translate(45.25 80.03)">10</text><text transform="translate(58.5 53.5)">11</text></g></svg>