<svg xmlns="http://www.w3.org/2000/svg" width="109" height="109" class="kan-g"><g fill="none" stroke="#000" stroke-width="3" stroke-linecap="round" stroke-linejoin="round"><path d="M49.3 10.13c2.04.77 6.37 5.77 6.78 7.3M18.38 24.78c1.65.49 4.69.57 6.35.49 17.23-.83 40.67-4.58 57.36-5.23 2.76-.11 4.41.24 5.79.48M24 25.5c.04 1.62.07 4.19-.07 6.52-.86 13.76-2.81 47.12-12.12 61.94M43.12 27.25c.03.51.13 1.46-.07 2.04-2.39 7.16-5.93 13.74-12.17 19.51M39.87 38.11c8.18-.23 34.18-3.97 42.02-4.54 1.82-.13 2.93.17 3.84.35M28 56.96c1.35.45 3.84.67 5.17.45 5.46-.88 39.51-4.15 54.11-4.77 2.25-.09 3.6.22 4.72.44"/><path d="M39.84 44.15c.93.49 1.48 2.21 1.67 3.19s1.42 14.48 2.06 25.52M52.62 40.24c.93.49 1.68 2.18 1.67 3.19-.07 5.4.15 14.22.15 28.2M65.39 38.77c.93.49 1.73 2.19 1.67 3.19-.49 7.85-.92 13.24-1.56 28.69M78.58 37.26c.93.49 1.95 2.23 1.67 4.17-1.13 7.85-1.06 13.01-3.19 28.22"/><path d="M32.33 72.94c1.35.45 3.82.56 5.17.45 7.71-.62 32.35-2.99 46.95-3.6 2.25-.09 3.6.21 4.72.44M33.63 84.43c0 4.73-4.51 11.72-5.69 13.07M47.58 81.84c2.36 2.89 4.6 10.85 5.19 15.35M63.97 80.8c2.59 2.93 6.68 12.07 7.33 16.64M81.38 80.75c3.61 2.76 9.32 11.34 10.23 15.64"/></g><g font-size="8" fill="gray"><text transform="translate(44.85 11.85)">1</text><text transform="translate(22.5 22.5)">2</text><text transform="translate(15.5 34.5)">3</text><text transform="translate(34.5 31.5)">4</text><text transform="translate(46.5 34.5)">5</text><text transform="translate(31.25 55.5)">6</text><text transform="translate(35.5 51.5)">7</text><text transform="translate(46.5 45.5)">8</text><text transform="translate(59.5 44.5)">9</text><text transform="translate(70.5 43.5)">10</text><text transform="translate(28.5 69.5)">11</text><text transform="translate(25.5 84.8)">12</text><text transform="translate(39.25 85.5)">13</text><text transform="translate(55.5 83.5)">14</text><text transform="translate(72.5 81.5)">15</text></g></svg>