<svg xmlns="http://www.w3.org/2000/svg" width="109" height="109" viewBox="0 0 109 109" class="kan-g"><g class="kgPaths" fill="none" stroke="currentColor" stroke-width="3" stroke-linecap="round" stroke-linejoin="round"><path d="M12.75 51.2c1.52.54 4.3.64 5.82.54 7.93-.49 56.93-5.49 73.61-5.73 2.53-.04 4.05.26 5.31.53"/><path d="M38.75 24.25c1.25.5 2 2.25 2.25 3.25s0 58.25-.25 64.5"/><path d="M70.25 19.75c1.25.5 2 2.25 2.25 3.25s-2 54.75-2.75 64"/><path d="M40.75 90.25c4.75 0 29.98-2.53 34.25-2.75"/></g><g class="kgNumbers" font-size="8" fill="gray"><text transform="translate(5.5 52.5)">1</text><text transform="translate(30.5 25.5)">2</text><text transform="translate(62.5 20.5)">3</text><text transform="translate(45.5 86.5)">4</text></g></svg>