<svg xmlns="http://www.w3.org/2000/svg" width="109" height="109" viewBox="0 0 109 109" class="kan-g"><g class="kgPaths" fill="none" stroke="currentColor" stroke-width="3" stroke-linecap="round" stroke-linejoin="round"><path d="M17.75 18.25C19 19 21 19.5 22.75 19s11.5-2.25 15-3.25 4.25.75 3 2-13.75 21-17.25 27M22.75 45.75c4.75-1 15-5.25 18.25-5.5s6.13-.17 5.25 4.25C42.75 62 32.75 84.5 12 94"/><path d="M20.25 55.5c5.75-.25 45 29 63 36.64 3.01 1.28 5.36 2.17 8.25 2.61"/></g><g class="kgNumbers" font-size="8" fill="gray"><text transform="translate(10.5 18.5)">1</text><text transform="translate(35.5 38.5)">2</text><text transform="translate(13.5 56.48)">3</text></g></svg>