<svg xmlns="http://www.w3.org/2000/svg" viewBox="0 0 109 109" class="kan-g"><g class="kgPaths" fill="none" stroke="currentColor" stroke-width="3" stroke-linecap="round" stroke-linejoin="round"><path d="M15.25 35.7c1.52.54 4.32.8 5.82.54 6.15-1.05 50.43-5.49 64.11-6.73 2.52-.23 4.05.26 5.31.53"/><path d="M19.95 57.82c1.09.16 2.58.7 3.67.66 6.64-.23 16.89-2.98 26-4.05 1.8-.21 2.9.08 3.8.16"/><path d="M14.5 80.94c1.33.5 3.79.65 5.11.5C30.5 80.25 47.5 76 56.83 75.68c2.22-.08 3.56.24 4.67.49"/><path d="M58.5 11.5c1.61 1.82 2.44 2.31 2.61 6.24 1.21 27.02 10.59 65.57 29.15 77.95 6.23 4.16 5.43.78 4.62-7.27"/><path d="M71.75 12.5c3.34 1.95 8.69 6.41 10.25 9.75"/></g><g class="kgNumbers" font-size="8" fill="gray"><text transform="translate(8.25 36.5)">1</text><text transform="translate(12.75 58.5)">2</text><text transform="translate(7.5 82.5)">3</text><text transform="translate(48.5 11.5)">4</text><text transform="translate(68.5 9.5)">5</text></g></svg>