<svg xmlns="http://www.w3.org/2000/svg" width="109" height="109" viewBox="0 0 109 109" class="kan-g"><g fill="none" stroke="currentColor" stroke-width="3" stroke-linecap="round" stroke-linejoin="round"><path d="M50.14 8.59c2.89 1.18 6.37 4.12 7.38 7.48M31.98 22.97c1.09.24 2.37.28 3.46.24 11.62-.46 20.26-2.46 38.38-2.77 1.82-.03 2.91.12 3.83.24M38.21 29.17c4.04 5.5 6.24 11.37 6.6 14.99M66.91 23.92c.67.64.86 1.99.67 2.48-1.58 4.1-5.49 13.34-6.83 16.1M25 47.75c1.07.27 2.33.39 3.39.27 14.97-1.67 40.61-4.77 55.48-5.44 1.78-.08 2.85.13 3.74.26M30.01 50.64c.55.36.97 1.69.9 2.84-.91 15.27-7.16 34.02-17.1 39.74M71 50.25c.08.37.17.94-.17 1.47-2.01 3.09-13.54 9.88-29.33 14.03M74.99 64.25c.09.38.18.99-.17 1.54-2.13 3.24-14.35 10.36-31.07 14.71M82.46 78.5c.12.47.26 1.22-.24 1.89-2.94 3.99-19.84 12.75-42.97 18.11"/></g><g font-size="8" fill="gray"><text transform="translate(45.25 9.25)">1</text><text transform="translate(24.25 22.25)">2</text><text transform="translate(31.25 33.25)">3</text><text transform="translate(59.25 29.25)">4</text><text transform="translate(24.5 45.25)">5</text><text transform="translate(23.25 58.25)">6</text><text transform="translate(61.25 54.25)">7</text><text transform="translate(66.25 65.25)">8</text><text transform="translate(73.25 79.25)">9</text></g></svg>