<svg xmlns="http://www.w3.org/2000/svg" width="109" height="109" class="kan-g"><g class="kgPaths" fill="none" stroke="#000" stroke-width="3" stroke-linecap="round" stroke-linejoin="round"><path d="M46.33 13.43c0 1.1-.64 1.72-1.46 2.31-3.81 2.74-14.09 7.17-27.51 10.04M16.5 32.75c2.4 2.04 6.2 8.38 6.8 11.56M31.38 27.38c2.23 1.81 5.75 7.43 6.31 10.24M55.74 24.23c.11.82-.02 1.61-.37 2.35-1.15 3.18-3.76 8.24-6.99 12.05M11.38 56.48c2.62.27 4.28.32 6.5.08 6.61-.7 21.75-2.83 32.98-3.57 2.06-.14 4.63-.42 6.68.06"/><path d="M37.74 43.86c.7.7 1.18 2.27 1.18 3.61 0 2.86.09 28.02.03 41.28-.02 3.88-.04 6.67-.07 7.5M37.46 56.45c0 1.3-.9 3.01-1.71 4.3-5.38 8.62-11.75 16-21.05 23.58M41.88 60.12c4.15 2.39 9.58 6.52 12.09 10.5M86.2 17.75c.17.92-.24 1.7-.83 2.35-3.16 3.6-11.14 10.64-25.45 14.56M88.07 40.86c.16 1.04-.31 1.9-.87 2.72-3.18 4.6-9.82 11.54-23.7 17.34M93.29 63.25c.11.72-.07 1.7-.71 2.62C86.75 74.12 76 85.75 56.07 92.5"/></g><g class="kgNumbers" font-size="8" fill="gray"><text transform="translate(36.75 13.63)">1</text><text transform="translate(9.5 36.5)">2</text><text transform="translate(25.5 33.5)">3</text><text transform="translate(46.5 26.5)">4</text><text transform="translate(4.5 58.63)">5</text><text transform="translate(28.5 46.5)">6</text><text transform="translate(25.5 66.5)">7</text><text transform="translate(50.5 63.13)">8</text><text transform="translate(77.5 19.5)">9</text><text transform="translate(75.5 43)">10</text><text transform="translate(83.5 63.5)">11</text></g></svg>