<svg xmlns="http://www.w3.org/2000/svg" width="109" height="109" class="kan-g"><g fill="none" stroke="currentColor" stroke-width="3" stroke-linecap="round" stroke-linejoin="round"><path d="M33.58 15.25c.06.44.29 1.21-.12 1.75C30.61 20.78 22 29.9 13.62 33.75M34.86 34.75c.06.7.29 1.95-.12 2.81C31.9 43.65 24.05 55.82 14 64.5M27.22 53.5c.36.25 1.07 1.65 1.15 2.16.07.51 0 37.15-.07 40.34M45.13 25.32c.85.36 2.41.41 3.26.36 8.53-.54 27.32-3.94 39.28-4.14 1.42-.02 2.27.17 2.98.35M67.76 54.9c.43.16 1.23.23 1.66.16 1.75-.3 11.69-1.74 19.98-1.78.72 0 1.15.07 1.51.15M66.37 25.01c.07.47.92 2.43.99 5.38.32 14.2-.2 51.37-.2 56.21M46.64 54.35c.08.27 1.1 1.43 1.18 3.16.38 8.34 1.76 28.69 1.76 31.53"/><path d="M34.16 89.28c1.27.49 4.01 1.2 5.22 1.08 4.95-.47 32.15-3.2 55.58-3.27 2.04-.01 3.81.73 4.87 1.46"/></g><g font-size="8" fill="gray"><text transform="translate(26.25 15.5)">1</text><text transform="translate(26.5 36.5)">2</text><text transform="translate(20.5 67.5)">3</text><text transform="translate(44.5 22.5)">4</text><text transform="translate(72.75 51.05)">5</text><text transform="translate(59.5 34.5)">6</text><text transform="translate(38.5 53.5)">7</text><text transform="translate(33.5 86.5)">8</text></g></svg>