<svg xmlns="http://www.w3.org/2000/svg" width="109" height="109" viewBox="0 0 109 109" class="kan-g"><g class="kgPaths" fill="none" stroke="currentColor" stroke-width="3" stroke-linecap="round" stroke-linejoin="round"><path d="M32.09 14.25c.06.53.27 1.48-.11 2.13-2.68 4.6-10.75 15.68-18.61 20.37M35.34 33.75c.07.75.33 2.1-.14 3.03-3.31 6.54-12.03 17.91-24.2 28.97M27.22 52.5c.36.25.57 1.15.65 1.66.07.51 0 40.15-.07 43.34M43.75 26.75c.65 1.5.88 3.08.88 4.98 0 13.02.05 35.77.05 60.77M45.04 28.15c12.71-1.9 36.21-3.9 44.45-4.65 1.26-.11 2.78.75 2.78 3.5 0 14-.23 44.75-.23 64"/><path d="M56.45 43.14c.21.53.42.98.51 1.64.72 5.28 1.95 18.49 2.56 27.97M57.16 45.28C62.5 44 74.4 41.35 77.63 40.99c2.12-.24 2.88 1.11 2.71 2.21-.7 4.55-3.01 20.05-4.05 26.35M60.18 71.75c5.57-.5 12.32-1.75 18.29-1.64M45.31 89.51C54.59 89 78 87.25 91.54 86.5"/></g><g class="kgNumbers" font-size="8" fill="gray"><text transform="translate(24.25 13.13)">1</text><text transform="translate(27.5 33.5)">2</text><text transform="translate(20.5 66.5)">3</text><text transform="translate(38.5 43.5)">4</text><text transform="translate(47.5 24.5)">5</text><text transform="translate(50.5 52.5)">6</text><text transform="translate(59.5 40.5)">7</text><text transform="translate(63.25 68.5)">8</text><text transform="translate(49.5 86.5)">9</text></g></svg>