<svg xmlns="http://www.w3.org/2000/svg" width="109" height="109" viewBox="0 0 109 109" class="kan-g"><g fill="none" stroke="currentColor" stroke-width="3" stroke-linecap="round" stroke-linejoin="round"><path d="M49.73 13.13c2.91 1.14 9.08 8.53 9.65 10.8M22.63 31.73c1.52.54 4.3.63 5.82.54 15.8-.91 40.05-4.02 56.61-5.23 2.52-.18 4.05.26 5.31.53M26.99 33c.05 1.41.1 3.64-.09 5.67-1.13 11.95-3.4 42.08-15.84 53.8M34.31 71.04c.42 2.64-4.2 14.31-7.56 18.71M42.43 54.4C50 74.25 61.75 93 85.6 92.54 92 92.42 90 88 87.06 83.7M59.38 52.13c1.81 3.84 5.56 11.43 6.69 6.01M86.98 52.5c3.42 2.94 5.99 5.61 8.77 14.68"/></g><g font-size="8" fill="gray"><text transform="translate(44.5 14.5)">1</text><text transform="translate(26.5 29.5)">2</text><text transform="translate(18.5 41.5)">3</text><text transform="translate(31.5 64.63)">4</text><text transform="translate(37.5 50.5)">5</text><text transform="translate(54.5 49.5)">6</text><text transform="translate(79.5 48.5)">7</text></g></svg>