<svg xmlns="http://www.w3.org/2000/svg" width="109" height="109" class="kan-g"><g class="kgPaths" fill="none" stroke="currentColor" stroke-width="3" stroke-linecap="round" stroke-linejoin="round"><path d="M18.22 37.25c0 6.61-3.72 16.36-4.69 18.25M30.02 32.33c3.19 2.41 8.24 9.89 9.04 13.63M25.37 13.25c1.09.5 1.74 2.25 1.96 3.25.22 1 0 74.75-.22 81M45 39.03c1.34.47 3.78.59 5.13.47 14.82-1.32 25.36-3.5 41.69-4.22 2.22-.1 3.57.23 4.68.46"/><path d="M78.48 13.83c.1.48 1.41 2.49 1.41 5.52 0 20.4-.29 62.66-.29 67.62 0 12.03-6.35 4.03-8.67 1.25M53.83 52.62c3.09 2.47 7.98 10.16 8.75 14"/></g><g class="kgNumbers" font-size="8" fill="gray"><text transform="translate(13.5 34.5)">1</text><text transform="translate(31.5 30.5)">2</text><text transform="translate(16.5 12.48)">3</text><text transform="translate(42.5 35.5)">4</text><text transform="translate(69.5 14.5)">5</text><text transform="translate(46.25 53.5)">6</text></g></svg>