<svg xmlns="http://www.w3.org/2000/svg" width="109" height="109" viewBox="0 0 109 109" class="kan-g"><g class="kgPaths" fill="none" stroke="currentColor" stroke-width="3" stroke-linecap="round" stroke-linejoin="round"><path d="M16.25 37.25c0 6.52-2.58 16.14-3.25 18M30.25 28.25c3.28 1.49 8.49 6.14 9.31 8.47M25.37 12.25c1 1 1.46 2.25 1.46 3.75 0 .86.08 51 .04 72-.01 4-.01 6.93-.01 8.25M66.16 15.48c1.43 1.43 1.96 2.77 1.96 5.39 0 5 .1 13.88.1 18.7M40.13 43.71c3.24.79 5.98.69 9.38.15 10.46-1.67 29.7-4.41 40.24-5.19 2.92-.22 5.77-.39 8.62.42M52.72 46.75c1.14 1.14 1.26 2.5 1.26 4.6v26.53c0 9.12 1.77 11.64 18.77 11.64 9.5 0 16.75-1.27 20.53-2.29"/></g><g class="kgNumbers" font-size="8" fill="gray"><text transform="translate(11.5 36.13)">1</text><text transform="translate(31.5 26.5)">2</text><text transform="translate(15.75 12.5)">3</text><text transform="translate(56.5 16.5)">4</text><text transform="translate(43.5 41.5)">5</text><text transform="translate(46.5 54.5)">6</text></g></svg>