<svg xmlns="http://www.w3.org/2000/svg" width="109" height="109" viewBox="0 0 109 109" class="kan-g"><g fill="none" stroke="currentColor" stroke-width="3" stroke-linecap="round" stroke-linejoin="round"><path d="M46.63 11.24c4.58 2.79 9.41 6.96 11.17 11.58M17.7 31.46c1.3.09 4.26.63 5.52.5 10.19-1.05 45.58-5.07 58.51-5.34 2.14-.05 3.23.04 4.82.64M33.07 33.85c.77.73 1.16 2.82 1.16 3.84v6.11c0 3.81.49 8.06 9.16 8.61 9.39.6 25.03-.12 27.16-.2 3.68-.13 6.81-.53 8.69-1M19.3 74.13c.36 2.62-3.6 14.21-6.49 18.58M30.12 69.01C37 86 51 98.25 82.32 96.86c7.78-.35 7.74-3.52 3.5-7.45M52.35 67.67c1.65 4.58 6.9 12.08 8.15 5.28M83.17 62.66c4.33 4.09 9.08 8.84 12.27 14.95"/></g><g font-size="8" fill="gray"><text transform="translate(41.5 12.5)">1</text><text transform="translate(10.5 31.5)">2</text><text transform="translate(26.25 42.13)">3</text><text transform="translate(12.75 70.63)">4</text><text transform="translate(25.5 65.5)">5</text><text transform="translate(45.75 65.5)">6</text><text transform="translate(75.5 63.5)">7</text></g></svg>