<svg xmlns="http://www.w3.org/2000/svg" width="109" height="109" class="kan-g"><g class="kgPaths" fill="none" stroke="currentColor" stroke-width="3" stroke-linecap="round" stroke-linejoin="round"><path d="M17.22 36.75c0 6.61-3.72 16.36-4.69 18.25M32.27 32.33c2.57 2.49 6.65 10.25 7.29 14.13M23.87 13.75c1.09.5 1.74 2.25 1.96 3.25.22 1 0 74.75-.22 81M83.76 12c.08.4.35 1.17-.17 1.6-7.16 5.86-16.3 10.3-31.4 15.34M48.28 28.33c.65 1.95.64 3.81.64 5.93 0 20.99-1.68 43.36-9.37 56.75M51.59 43.85c.54.2 2.64.11 4.09.12 8.83.03 25.74-3.59 34.72-4.21 1.44-.1 3.94-.2 4.84 0M71.18 45.48c.94.63 1.5 2.84 1.69 4.1.19 1.26 0 40.54-.19 48.42"/></g><g class="kgNumbers" font-size="8" fill="gray"><text transform="translate(11.5 35.63)">1</text><text transform="translate(30.5 29.5)">2</text><text transform="translate(15.25 13.48)">3</text><text transform="translate(74.5 12.5)">4</text><text transform="translate(39.5 34.5)">5</text><text transform="translate(53.5 40.5)">6</text><text transform="translate(64.5 53.5)">7</text></g></svg>