<svg xmlns="http://www.w3.org/2000/svg" width="109" height="109" class="kan-g"><g class="kgPaths" fill="none" stroke="currentColor" stroke-width="3" stroke-linecap="round" stroke-linejoin="round"><path d="M17.47 37.5c0 6.06-4.31 15.02-5.44 16.75M29.02 31.58c2.84 2.19 7.33 8.98 8.04 12.38M24.37 13.75c1.09.5 1.74 2.25 1.96 3.25.22 1 0 73.75-.22 80M46.41 33.38c0 3.54-2 13.26-2.91 15.62M46.74 36.24c13.76-1.99 30.51-3.49 39.45-4.4 12.01-1.23 3.8 7.41-.45 10.78"/><path d="M65.65 14c.89 1.77 1.12 2.33 1.15 5.08.18 23.02-.91 61.23-28.38 77.34M69.99 49.87c.74 1.19 1.33 2.59 1.38 4.43.2 8.19-.03 19.64-.03 25.2 0 13-.08 15.5 12.17 15.03C94.75 94.1 94.4 92.5 94.4 80.91"/></g><g class="kgNumbers" font-size="8" fill="gray"><text transform="translate(11.5 38.5)">1</text><text transform="translate(31.5 30.5)">2</text><text transform="translate(15.25 14.5)">3</text><text transform="translate(40 33.4)">4</text><text transform="translate(49.5 32.5)">5</text><text transform="translate(55.5 13.5)">6</text><text transform="translate(75.5 55.18)">7</text></g></svg>