<svg xmlns="http://www.w3.org/2000/svg" width="109" height="109" viewBox="0 0 109 109" class="kan-g"><g fill="none" stroke="currentColor" stroke-width="3" stroke-linecap="round" stroke-linejoin="round"><path d="M17.22 37c.03 4.31-2.47 14.14-4.69 17.5M32.77 25.83c2.75 1.96 7.1 8.08 7.79 11.13M24.87 11.75c1.09.5 1.74 2.25 1.96 3.25.22 1 0 77.75-.22 84M57.24 11.5c.05.8.11 2.08-.1 3.23-1.23 6.81-8.26 21.75-17.89 30.9M54.69 28.75c.86.75 2.06 1 3.43.5s27.93-3.25 31.35-3.5c3.43-.25 4.61 1 4.1 6.25-.51 5.25-3.13 44.72-8.96 59.75-3.11 8-6.61 3.5-9.98-.75M49.29 43.94c.71.56 1.51 2.18 1.51 3.22s.92 29.29 1 30.34"/><path d="M50.22 45.57c1.43-.13 16.48-2.88 17.71-3.33 2.07-.74 3.32 1.01 3.2 2.72-.1 1.57-2.34 31.23-2.34 32.01"/><path d="M52.47 59.23c2.82 0 5.73-.57 8.52-.9.95-.11 1.9-.23 2.81-.33M52.38 75.06c3.95-.56 10.91-1.06 15.82-1.54"/></g><g font-size="8" fill="gray"><text transform="translate(11.5 34.5)">1</text><text transform="translate(31.5 23.5)">2</text><text transform="translate(16.5 11.5)">3</text><text transform="translate(48.5 11.5)">4</text><text transform="translate(60.5 25.5)">5</text><text transform="translate(42.5 51.5)">6</text><text transform="translate(51.5 42.5)">7</text><text transform="translate(55.5 55.5)">8</text><text transform="translate(56.5 70.5)">9</text></g></svg>