<svg xmlns="http://www.w3.org/2000/svg" width="109" height="109" class="kan-g"><g fill="none" stroke="currentColor" stroke-width="3" stroke-linecap="round" stroke-linejoin="round"><path d="M53.81 10.02c.53.14.51 2.36.19 2.85-2.16 3.23-4.37 7.59-9.47 11.93M36.15 26.39c.6.86 1.4 2.03 1.4 3.25 0 1.22-.19 37.13 0 38.35M37.99 27.65c3.22-.32 28.26-4.05 31.2-4.38 2.45-.28 4.17.99 4.17 3.27 0 1.47-.95 37.34-1.14 38.26"/><path d="M38.44 40.48c5.24-.44 10.46-1.47 15.65-2.34 1.6-.27 3.22-.54 4.81-.81M38.2 52.79c5.12-.57 10.22-1.38 15.32-2.14 1.46-.22 2.95-.43 4.45-.65M39.01 64.54c6.4-.33 23.24-2.58 31.52-3M23.74 80.65c.44 2.07-4.44 11.2-7.99 14.64M32.25 78.2C41 92.5 57 100 84 98.63c7.77-.39 7.75-2.78 3.5-5.88M53.5 73.5c2 2.78 6.25 8.99 7.5 5.07M84 71.62c4 1.8 8 6.13 9.25 9.99"/></g><g font-size="8" fill="gray"><text transform="translate(45.5 9.5)">1</text><text transform="translate(30.5 36.5)">2</text><text transform="translate(37.5 24.13)">3</text><text transform="translate(41.25 37.63)">4</text><text transform="translate(41.43 49.5)">5</text><text transform="translate(41.29 61.63)">6</text><text transform="translate(19.5 76.63)">7</text><text transform="translate(29.25 75.77)">8</text><text transform="translate(45.75 75.5)">9</text><text transform="translate(73.5 74.5)">10</text></g></svg>