<svg xmlns="http://www.w3.org/2000/svg" width="109" height="109" class="kan-g"><g class="kgPaths" fill="none" stroke="#000" stroke-width="3" stroke-linecap="round" stroke-linejoin="round"><path d="M29.25 24.86c2.75.51 5.65.43 7.99.16 9.05-1.05 27.35-3.32 36.14-3.82 2.4-.14 5.01-.26 7.37.34M28.14 37.79c.66.66 1.3 1.69 1.54 2.93 1.45 7.4 2.36 12.3 3.76 21 .25 1.52.49 3.08.74 4.67M30.08 39.18c13.79-1.93 37.54-5.17 47.17-5.99 3.58-.31 4.4 1.48 3.92 4.7-.83 5.57-2.39 13.22-4.04 19.52-.46 1.74-.92 3.38-1.38 4.84"/><path d="M32.9 51.85c14.6-2.47 35.6-5.22 45.36-5.64M35.14 63.92c12.73-1.8 26.23-3.8 41.08-4.8"/><path d="M52.74 12.32c1.22 1.22 1.5 2.63 1.51 4.18.04 15.3.23 40.45.23 44.44M24.12 79c.39 2.22-3.91 12.03-7.04 15.74M34.75 76.5C45.68 91.52 50.74 98 80.01 97.93c9.1-.02 8.99-2.93 2.81-7.28M52.77 72.75c2.23 5.25 5.48 10.5 7.87 2.46M80.7 71.23c5.48 3.27 9.92 7.89 14.28 16.11"/></g><g class="kgNumbers" font-size="8" fill="gray"><text transform="translate(22.5 25.5)">1</text><text transform="translate(21.75 46.55)">2</text><text transform="translate(30.75 35.5)">3</text><text transform="translate(36.75 47.5)">4</text><text transform="translate(37.5 60.92)">5</text><text transform="translate(42.75 12.5)">6</text><text transform="translate(19.5 77.5)">7</text><text transform="translate(30.75 85.5)">8</text><text transform="translate(45.5 73.63)">9</text><text transform="translate(70.5 73.63)">10</text></g></svg>