<svg xmlns="http://www.w3.org/2000/svg" width="109" height="109" class="kan-g"><g class="kgPaths" fill="none" stroke="currentColor" stroke-width="3" stroke-linecap="round" stroke-linejoin="round"><path d="M16.22 37c.03 4.31-2.47 14.14-4.69 17.5M30.77 32.58c1.69 2.27 4.37 9.35 4.79 12.88M22.37 14.75c1.09.5 1.74 2.25 1.96 3.25.22 1 0 70.75-.22 77M42.83 17.93c.3 1.25.74 2.17.74 3.83 0 1.66-.1 50.72 0 52.38M44.07 19.94c1.7-.21 14.66-2.86 16.21-3.11 1.29-.21 2.31 1.16 2.2 2.7-.14 1.95-.6 52.54-.6 53.78"/><path d="M44.04 36.35c3.52-.63 12.67-1.81 17.14-2.33M44.18 52.62c5.18-.83 11.55-1.52 16.8-1.95M44.12 71.69c5.38-.69 12.1-1.63 17.3-1.99M47.55 79.04c.41 1.38.77 1.73 0 2.77-3.46 4.67-9.56 10.52-14.51 14.12M58.32 79.79c3.27 3.84 7.13 10.81 8.02 14.17M75.53 24.1c.94.99 1.6 2.15 1.68 5.42.38 15.72-.02 38.45-.02 43.81M91.35 14.33c.94.99 1.68 2.15 1.68 5.42 0 16-.25 64.76-.25 70.12 0 7.33-3.84 4.9-8.33.27"/></g><g class="kgNumbers" font-size="8" fill="gray"><text transform="translate(11.5 33.5)">1</text><text transform="translate(28.5 29.5)">2</text><text transform="translate(14.25 14.05)">3</text><text transform="translate(36.25 25.5)">4</text><text transform="translate(45.5 16.5)">5</text><text transform="translate(47.75 32.5)">6</text><text transform="translate(47.75 49.5)">7</text><text transform="translate(47.75 68.5)">8</text><text transform="translate(39.5 82.28)">9</text><text transform="translate(51.5 87.5)">10</text><text transform="translate(69.5 20.5)">11</text><text transform="translate(78.5 13.5)">12</text></g></svg>