<svg xmlns="http://www.w3.org/2000/svg" width="109" height="109" viewBox="0 0 109 109" class="kan-g"><g fill="none" stroke="currentColor" stroke-width="3" stroke-linecap="round" stroke-linejoin="round"><path d="M15.22 40c.02 4.31-1.94 14.14-3.69 17.5M29.77 34.83c2.22 1.88 5.74 7.71 6.29 10.63M21.87 16.75c1.09.5 1.74 2.25 1.96 3.25.22 1 0 70.25-.22 76.5M61.96 15.25c2.71 2.03 6.12 5.52 6.61 9.01M46.09 29.37c0 3.29-2.58 12.32-3.75 14.51M45.9 32.09c10.02-.86 29.42-3.48 41.63-3.99 8.88-.37 1.74 5.5-.31 7.12M51.68 42.12c.64.34 1.81.36 2.46.34 5.36-.21 17.11-1.96 23.6-2.55 1.06-.1 1.71.16 2.25.33M53.03 52.13c.44.7 1.17 1.85 1.17 2.78 0 9.58.08 18.08.08 25M54.36 54.09c4.73-.67 20.63-2.73 22.9-2.87 1.89-.12 3.05.69 2.89 2.68 0 6.6-.32 16.6-.32 24.54"/><path d="M55.37 65.25c4.05-.52 8.12-.91 12.2-1.25 1.19-.1 2.39-.19 3.55-.28M54.9 77.99c6.45-.81 17.44-1.68 24.47-2.17M38.92 91.37c1.35.41 3.83.43 5.18.41 11.93-.2 33.18-3.04 47.13-3.03 2.25 0 3.6.19 4.73.39"/></g><g font-size="8" fill="gray"><text transform="translate(9.5 40.5)">1</text><text transform="translate(28.5 31.05)">2</text><text transform="translate(13.5 15.5)">3</text><text transform="translate(55.5 15.5)">4</text><text transform="translate(39.5 31.5)">5</text><text transform="translate(49.25 28.5)">6</text><text transform="translate(51.5 39.5)">7</text><text transform="translate(46.5 58.5)">8</text><text transform="translate(56.25 50.5)">9</text><text transform="translate(57.24 61.5)">10</text><text transform="translate(57.5 74.38)">11</text><text transform="translate(37.25 87.3)">12</text></g></svg>