<svg xmlns="http://www.w3.org/2000/svg" width="109" height="109" class="kan-g"><g class="kgPaths" fill="none" stroke="currentColor" stroke-width="3" stroke-linecap="round" stroke-linejoin="round"><path d="M15.97 36c.02 4.31-1.81 14.14-3.44 17.5M30.77 34.58c1.87 2.36 4.83 9.71 5.29 13.38M22.87 13.75c1.09.5 1.74 2.25 1.96 3.25.22 1 0 73.75-.22 80M58.06 13.25c.04.6.09 1.55-.09 2.42-1.07 5.1-6.94 15.15-15 23.14M54.17 27.47c.83.35 2 .47 3.34.23 1.33-.23 28.51-3.03 31.85-3.14 3.33-.12 3.27 2.02 3.07 4.52-.6 7.73-4.59 23.38-10.64 34.34-2.83 5.13-6.35.35-7.9-1.94"/><path d="M62.42 30.23c.05.57.14 1.49-.09 2.3-2.26 7.94-7.67 15.51-16.61 22.03M77.38 28.76c.07.86.14 2.23-.14 3.46-1.66 7.3-10.64 23.31-23.67 33.11"/><path d="M54.5 39.37c7.32 2.12 18.9 8.72 20.73 12.01M42.18 79.78c.24 2.26-2.41 12.25-4.35 16.03M49.97 77.38C55.5 90.5 63.32 99.54 84.17 98.7c10.61-.43 11.82-3.57 2.96-7.97M62.11 74.31c2 5.13 4.92 10.25 7.06 2.4M84.89 73.41c3.94 2.02 6.9 3.85 10.1 10.08"/></g><g class="kgNumbers" font-size="8" fill="gray"><text transform="translate(10.5 37.5)">1</text><text transform="translate(30.5 31.5)">2</text><text transform="translate(14.5 14.5)">3</text><text transform="translate(49.5 12.5)">4</text><text transform="translate(61.5 24.5)">5</text><text transform="translate(53.5 35.5)">6</text><text transform="translate(70.5 34.5)">7</text><text transform="translate(46.5 43.5)">8</text><text transform="translate(35.5 82.5)">9</text><text transform="translate(44.5 87.5)">10</text><text transform="translate(54.5 77.5)">11</text><text transform="translate(75 76.5)">12</text></g></svg>