<svg xmlns="http://www.w3.org/2000/svg" width="109" height="109" class="kan-g"><g fill="none" stroke="#000" stroke-width="3" stroke-linecap="round" stroke-linejoin="round"><path d="M16.97 34.75C17 39.13 14.1 49.1 11.53 52.5M32.02 28.83c2.13 2.05 5.51 8.44 6.04 11.63M23.87 12.75c1.09.5 1.74 2.25 1.96 3.25.22 1 0 75.75-.22 82M47.43 13.56c.52.49.92 1.67 1.04 2.35.57 3.24 2.01 13.97 2.7 19.22M48.96 15.45c2.9-.29 32.28-2.83 34.92-3.12 2.2-.24 3.65 1.32 3.47 3.19-.37 3.82-4.86 16.58-4.86 17.1"/><path d="M49.92 24.08c5.52-.39 11.03-.88 16.54-1.33 1.87-.15 3.78-.31 5.63-.46M51.52 32.67c8.15-.73 23.7-1.69 31.22-2.22M64.08 35.67c1.66.85 3.92 3.33 4.89 5.98M43 46.59c1.02.05 3.33.37 4.32.29 10.93-.88 33.43-2.63 43.92-3.75 1.67-.18 2.53-.03 3.77.41M51.59 54.07c.39.29.87 2 .96 2.38.59 2.81 1.39 8.25 2.26 13.58M52.87 55.38c7.13-.63 26.24-2.81 30.21-3.26 1.64-.19 3.17 1.54 2.5 3.68-.74 2.39-2.12 7.34-3.15 10.66M55.08 68.58C64.25 68 74 67.5 84.26 66.88M67.98 70.38c.06.39.8 2.02.9 4.47.16 3.97-.18 14.1-.18 17.51 0 8.63-5.17.4-6.24-.61M54.5 76.9c.04.37.09.95-.08 1.49-.98 3.13-6.64 10-14.37 14.21M81.31 76.15c5.1 2.93 12.14 11.1 13.42 15.66"/></g><g font-size="8" fill="gray"><text transform="translate(11.5 32.5)">1</text><text transform="translate(31.5 26.5)">2</text><text transform="translate(15.5 12.5)">3</text><text transform="translate(40.5 20.5)">4</text><text transform="translate(52 12.33)">5</text><text transform="translate(53.5 21.75)">6</text><text transform="translate(54.5 30.93)">7</text><text transform="translate(58.5 39.5)">8</text><text transform="translate(44.25 44.03)">9</text><text transform="translate(42.5 60.5)">10</text><text transform="translate(56.25 53.5)">11</text><text transform="translate(58.5 65.5)">12</text><text transform="translate(58.5 75.5)">13</text><text transform="translate(43.5 77.5)">14</text><text transform="translate(83.5 76.58)">15</text></g></svg>