<svg xmlns="http://www.w3.org/2000/svg" width="109" height="109" viewBox="0 0 109 109" class="kan-g"><g class="kgPaths" fill="none" stroke="currentColor" stroke-width="3" stroke-linecap="round" stroke-linejoin="round"><path d="M25.76 35.64c.99.99 1.2 2.85 1.15 4.86-.41 18.75-5.41 45.75-16.1 54.47M22.75 33.7c2.66.58 5.32.7 7.99.37 9.35-.78 34.33-3.32 49.51-3.97a28.4 28.4 0 0 1 7.75.44M37.75 54.75c2.75 1.5 7.75 8 10.25 14"/><path d="M53.75 11c1.72 1.84 2.29 3.34 2.54 7.29C58.38 51.25 69.5 80.75 89.75 93c6.69 4.05 5.71 2.71 4.85-5.42"/><path d="M82.21 42.14c.29 1.23.12 2.94-.46 4.5-3.62 9.73-15.5 31.23-35.19 44.58M73.25 11.5c3.1 2 8.05 6.57 9.5 10"/></g><g class="kgNumbers" font-size="8" fill="gray"><text transform="translate(20.5 43.5)">1</text><text transform="translate(26.5 30.13)">2</text><text transform="translate(32.5 51.5)">3</text><text transform="translate(44.5 12.5)">4</text><text transform="translate(72.75 44.83)">5</text><text transform="translate(64.5 11.5)">6</text></g></svg>