<svg xmlns="http://www.w3.org/2000/svg" width="109" height="109" viewBox="0 0 109 109" class="kan-g"><g class="kgPaths" fill="none" stroke="currentColor" stroke-width="3" stroke-linecap="round" stroke-linejoin="round"><path d="M15.75 39.45c2.85.72 5.68.77 8.5.16 13.53-1.89 45.83-5.57 59.76-6.49 2.34-.23 4.67-.09 6.99.43"/><path d="M45.5 11.75c2 1.75 2.58 3.49 3 7.25C52 50.5 64.25 80.25 88.75 92c7.86 3.77 6.75.75 5.75-7"/><path d="M77.68 42.89c.34 2 .09 3.87-.8 5.58-5.16 9.94-22.48 29.14-46.82 40.74M67.25 12.5c3.18 2 8.27 6.57 9.75 10"/></g><g class="kgNumbers" font-size="8" fill="gray"><text transform="translate(8.25 39.5)">1</text><text transform="translate(35.5 12.5)">2</text><text transform="translate(70.5 45.5)">3</text><text transform="translate(58.5 12.5)">4</text></g></svg>