<svg xmlns="http://www.w3.org/2000/svg" width="109" height="109" class="kan-g"><g class="kgPaths" fill="none" stroke="currentColor" stroke-width="3" stroke-linecap="round" stroke-linejoin="round"><path d="M22.98 16.05c2.99.94 6.34.84 9.4.62 12.75-.92 28.5-2.3 44.01-3.48 2.9-.22 5.61-.38 8.5.17M27.65 30.78c2.54.83 5.71.9 8.35.57 11.33-1.41 26.88-3.72 38.58-4.36 2.26-.12 4.35 1.37 3.68 4.52-.88 4.11-1.38 6.11-2.34 10.08M32.62 46.84c1.27 0 25.25-2.46 40.88-4.11 2.4-.25 4.52-.2 6.18-.2M30.41 32.25c.98.98 1.24 2.28 1.18 4.4-.72 25.22-7.72 46.72-20.84 57.72M34.14 66.22c2.86.66 5.34.51 7.76.26 11.91-1.25 25.23-3.13 36.11-3.85 2.64-.17 5.28-.33 7.89.15"/><path d="M57.11 51.25c.54.65.82 1.65.81 3.06-.26 24.35-13.77 37.45-35.17 44.93M58.51 65.38c6.62 8.25 15.24 18.25 24.86 25.93 2.64 2.11 5.17 3.59 8.13 5.19"/></g><g class="kgNumbers" font-size="8" fill="gray"><text transform="translate(24.5 13.25)">1</text><text transform="translate(29.25 28.3)">2</text><text transform="translate(36.5 43.23)">3</text><text transform="translate(23.25 41.25)">4</text><text transform="translate(34.25 62.88)">5</text><text transform="translate(48.5 54.25)">6</text><text transform="translate(69.25 74.25)">7</text></g></svg>