<svg xmlns="http://www.w3.org/2000/svg" width="109" height="109" class="kan-g"><g class="kgPaths" fill="none" stroke="#000" stroke-width="3" stroke-linecap="round" stroke-linejoin="round"><path d="M12.25 37.92c2.04.25 3.94.46 6.03.1 4.85-.84 12.72-2.52 19.23-3.98 1.21-.27 2.49-.54 3.91-.29"/><path d="M29.02 15.25c1.12 1.12 1.51 2.75 1.51 4.77 0 15.23-.01 53.96-.01 65.4 0 14.25-6.07 3.53-7.52 2"/><path d="M11.25 65.93c1.38.82 2.5.82 4.5-.43 5.11-3.19 9.62-6.25 22-14.33M47.39 39.22c2 .57 4.11.21 6.1-.12 6.67-1.09 18.45-3.61 25-4.13 1.62-.13 3.25-.22 4.91.09M42.65 58.23c2.7.69 5.42.41 8.1-.09 10.25-1.89 26.63-3.93 35.37-4.81 2.06-.21 4.75-.36 6.75.33"/><path d="M63.35 15.5c1.08 1.08 1.05 2.62 1.08 4.44C65.12 61 58.5 80.5 41 94M64.18 56.87c6.88 9.09 15.07 20.88 22.93 29.65 1.9 2.11 4.22 4.25 6.64 5.76"/></g><g class="kgNumbers" font-size="8" fill="gray"><text transform="translate(5.5 39.5)">1</text><text transform="translate(19.5 16.63)">2</text><text transform="translate(3.75 69.5)">3</text><text transform="translate(45.5 36.5)">4</text><text transform="translate(42.75 55.55)">5</text><text transform="translate(53.5 15.5)">6</text><text transform="translate(75.75 66.13)">7</text></g></svg>