<svg xmlns="http://www.w3.org/2000/svg" width="109" height="109" class="kan-g"><g class="kgPaths" fill="none" stroke="currentColor" stroke-width="3" stroke-linecap="round" stroke-linejoin="round"><path d="M12.5 38.51c2.27.2 1.38.45 3.81.2 5.99-.61 16.88-2.03 26.86-2.98"/><path d="M28.64 13.5c.52.95 1.78 2.57 1.87 5.71.43 15.05.26 65.08.26 70.21 0 14.74-6.73 3.65-8.26 2.07"/><path d="M11.5 66.1c2.62 1.46 4.31.79 6.94-.46 1.55-.74 19.5-10.68 26.06-14.22M65.31 13.63c.76.45 2.36 3.35 2.51 4.25.15.9-.25 37.12-.25 50.25M68.25 40.39c9.82-1.01 19.73-3.04 21.09-3.04 1.36 0 3.82 0 4.91.34M48.91 68.05c.41.51.82.94 1 1.59 1.41 5.09 2.59 19.13 3.55 28.27M50.71 69.89c12.54-1.14 34.14-2.94 39.25-3.66 1.87-.26 2.99 2.65 2.73 4.2-1.11 6.41-2.49 13.51-4.02 21.64M53.86 94.48c7.64-.46 27.64-1.36 37.68-1.68"/></g><g class="kgNumbers" font-size="8" fill="gray"><text transform="translate(6.5 39.5)">1</text><text transform="translate(19.75 13.5)">2</text><text transform="translate(4.5 70.5)">3</text><text transform="translate(56 14.5)">4</text><text transform="translate(71.5 35.5)">5</text><text transform="translate(43 75.5)">6</text><text transform="translate(54.5 66.43)">7</text><text transform="translate(57.5 91.1)">8</text></g></svg>