<svg xmlns="http://www.w3.org/2000/svg" width="109" height="109" class="kan-g"><g class="kgPaths" fill="none" stroke="currentColor" stroke-width="3" stroke-linecap="round" stroke-linejoin="round"><path d="M12 35.92c2.08.25 1.27.55 3.5.25 5.5-.75 12.5-2 21.67-3.17"/><path d="M25.27 13c.48.92 1.76 2.49 1.76 5.52 0 15.23.24 56.46.24 67.9 0 14.25-6.32 3.53-7.77 2"/><path d="M11.5 63.13c.79.94 2.05 1.49 3.8.62 1.03-.51 16.64-8.88 21.01-11.33M41.39 17.89c.55.43 1.83 1.86 1.83 4.08 0 .87-.07 66.99-.18 72.36M43.37 19.87c1.83-.11 14.48-2.88 16.15-3.01 1.39-.11 2.11 1 2.18 1.88.1 1.35-.66 26.02-.66 26.68"/><path d="M43.69 31.74c4.5-.65 12.49-1.83 16.82-2.53M43.87 44.57c5.88-.82 11.81-1.23 17.2-1.81M72.53 15.67c.31.59 1.1 1.84 1.13 2.63.09 1.95-.11 25.32 0 26.11M73.68 17.23c1.78-.1 16.83-2.62 18.45-2.74 1.35-.1 2.13 1.07 2.12 1.66-.35 18.04-.36 58.1-.35 71.18 0 10.7-3.64 5.51-6.57 1.91"/><path d="M74 28.59c2.41 0 16.38-1.85 19.11-1.85M74.18 41.83c3.56 0 15.1-1.65 19.71-1.65"/></g><g class="kgNumbers" font-size="8" fill="gray"><text transform="translate(4.5 35.5)">1</text><text transform="translate(17.25 14.5)">2</text><text transform="translate(3.5 65.5)">3</text><text transform="translate(35.5 24.5)">4</text><text transform="translate(45.5 16.5)">5</text><text transform="translate(47.5 28.5)">6</text><text transform="translate(48 40.5)">7</text><text transform="translate(67.5 22.5)">8</text><text transform="translate(76.25 13.5)">9</text><text transform="translate(77.5 25.5)">10</text><text transform="translate(77.5 38.5)">11</text></g></svg>