<svg xmlns="http://www.w3.org/2000/svg" width="109" height="109" viewBox="0 0 109 109" class="kan-g"><g class="kgPaths" fill="none" stroke="currentColor" stroke-width="3" stroke-linecap="round" stroke-linejoin="round"><path d="M11 37.98c2.23.22 1.36.48 3.75.22 5.89-.66 16.6-2.19 26.42-3.21"/><path d="M27.2 13.5c.5.94 1.81 2.56 1.81 5.69 0 15.7.25 58.21.25 70 0 14.69-6.52 3.64-8.01 2.06"/><path d="M11.5 63.99c.89 1.06 2.32 1.68 4.29.7 1.16-.58 18.19-10.51 23.12-13.28M65.42 10.19c.7.54 1.86 2.61 1.86 3.68 0 3.93-.09 8.71-.09 12.08"/><path d="M42 27.77c1.08.07 3.55.45 4.61.36 8.51-.76 32.34-3.51 43.9-3.7 1.79-.03 2.7.03 4.03.46M54.44 35.82c.17 1.55-.05 3.57-.6 4.9-3.53 8.45-8 17.88-16.09 28.16M48.82 55.59c.81.41 1.1 1.46 1.1 2.39 0 6.02-.37 30.23-.37 38.83M72.49 34.46c.19.51.57 2.02.36 3.03-1.19 5.97-6.33 17.02-14.77 26.85M74.23 40.64c.29.04 1.55.78 2.38.66 2.72-.4 7.05-1.31 10.68-2.85 2.6-1.11 4.16 1.07 3.26 3.31-7.03 17.51-15.26 34.65-33.05 48.62"/><path d="M69.16 50.55c2.88 1.25 7.45 5.15 8.17 7.09M62.1 59.65c6.59 3.9 23.24 26.75 29.13 31.29 1.68 1.29 2.93 2.26 4.51 2.71"/></g><g class="kgNumbers" font-size="8" fill="gray"><text transform="translate(4.75 38.38)">1</text><text transform="translate(19.25 14.8)">2</text><text transform="translate(4.25 67.23)">3</text><text transform="translate(55.5 10.5)">4</text><text transform="translate(40.5 24.5)">5</text><text transform="translate(46.5 38.5)">6</text><text transform="translate(43.5 71.5)">7</text><text transform="translate(63.5 35.5)">8</text><text transform="translate(78.25 37.28)">9</text><text transform="translate(73.5 51.5)">10</text><text transform="translate(66.25 62.5)">11</text></g></svg>