<svg xmlns="http://www.w3.org/2000/svg" width="109" height="109" class="kan-g"><g class="kgPaths" fill="none" stroke="#000" stroke-width="3" stroke-linecap="round" stroke-linejoin="round"><path d="M52.28 10.88c.48.31 1.5 2.32 1.6 2.93.1.62-.06 25.7-.16 29.57M54 26.75c2.75-.25 24.25-3 25.75-3s3.52 0 4.75.25"/><path d="M33.5 45.23c2 .38 2.25.96 6.25.38s29.25-4.06 32-4.64 4.88 2.18 3.75 4.22C62.25 69 40.5 89.75 16 97.5"/><path d="M34.5 52.7c5.27 1.03 31.04 28.63 49.4 39.94 2.86 1.76 4.94 2.93 7.6 3.52"/></g><g class="kgNumbers" font-size="8" fill="gray"><text transform="translate(42.5 11.5)">1</text><text transform="translate(58.5 22.5)">2</text><text transform="translate(30.5 42.5)">3</text><text transform="translate(30.5 61.55)">4</text></g></svg>