<svg xmlns="http://www.w3.org/2000/svg" width="109" height="109" class="kan-g"><g fill="none" stroke="#000" stroke-width="3" stroke-linecap="round" stroke-linejoin="round"><path d="M18.25 29.98c1.29.38 2.81.53 4.1.38 4.9-.57 20.15-2.72 24.62-2.89 2.16-.08 3.45.18 4.53.37"/><path d="M23.25 18c1.26 1.58 1.67 2.06 1.8 3.02 1.26 9.08 2.34 18.43 2.7 21.73M44.03 15.5c.25 1.32.56 2.31.29 3.93-1.6 9.55-2.33 14.33-4.07 23.32"/><path d="M11.75 45.48c1.29.38 2.81.53 4.1.38 4.9-.57 28.65-3.72 33.12-3.89 2.16-.08 3.45.18 4.53.37M22.08 54.58c.43.57.71 1.14.85 1.7.14.57.2 38.16.14 39.44M23.78 55.14c1.7-.14 17.33-2.54 18.59-2.7 2.27-.28 3.12 1.85 2.84 2.7-.27.82-.43 22.46-.43 33.96 0 3.65-1.59 4.82-2.29 3.9-.9-1.18-1.97-1.91-2.54-2.62"/><path d="M23.78 66.07c3.49-.51 6.49-.99 9.99-1.44.94-.12 1.87-.24 2.77-.35M24.21 77.28c3.2-.3 6.4-.69 9.6-1.05l2.78-.3M68.53 17.64c.04.94.28 2.48-.09 3.77C66.1 29.7 60.84 45.54 52.75 57M66.82 38.77c.65.4 1.85.48 2.5.4 3.43-.42 15.93-3.67 21.31-4.09 1.17-.09 1.88-.02 2.18.07M79.54 41.43c.48 1.31.74 2.24.24 4.64-4.54 21.73-14.81 39.56-29.81 48.68"/><path d="M58.73 51.4c6.73 7.53 23.26 32.15 33.28 40.63 1.93 1.63 3.16 1.9 4.74 2.08"/></g><g font-size="8" fill="gray"><text transform="translate(11.25 31.63)">1</text><text transform="translate(17.25 18.5)">2</text><text transform="translate(34.5 15.5)">3</text><text transform="translate(3.75 46.5)">4</text><text transform="translate(15.5 62.5)">5</text><text transform="translate(24.75 53.5)">6</text><text transform="translate(27.75 63.5)">7</text><text transform="translate(27.75 74.5)">8</text><text transform="translate(59.5 17.5)">9</text><text transform="translate(69.75 35.5)">10</text><text transform="translate(83.5 46.63)">11</text><text transform="translate(62.25 54.13)">12</text></g></svg>