<svg xmlns="http://www.w3.org/2000/svg" width="109" height="109" class="kan-g"><g class="kgPaths" fill="none" stroke="#000" stroke-width="3" stroke-linecap="round" stroke-linejoin="round"><path d="M51.62 12.75c1.06 1.06 1.73 2.5 1.73 4.01 0 4.32-.11 7.61-.11 12.15M16.88 32.72c2.7.66 5.71.86 8.6.54 15.77-1.76 40.15-5.01 56.42-6.1 3.67-.25 6.15.05 8.88.69M69.89 32.5c.36 2.12.06 3.82-.93 6.27C61.62 57 43.75 80.25 18.75 93.75"/><path d="M31 43.75c6 0 27.27 26.79 49.26 42.1 4.13 2.87 7.49 4.77 11.49 6.04"/></g><g class="kgNumbers" font-size="8" fill="gray"><text transform="translate(41.25 13.5)">1</text><text transform="translate(8.5 33.5)">2</text><text transform="translate(61.5 38.5)">3</text><text transform="translate(25.5 46.5)">4</text></g></svg>