<svg xmlns="http://www.w3.org/2000/svg" width="109" height="109" class="kan-g"><g fill="none" stroke="currentColor" stroke-width="3" stroke-linecap="round" stroke-linejoin="round"><path d="M27.73 11.5c.04.49.09 1.26-.08 1.96-1 4.14-5.9 11.79-13.65 19.29M25.89 19.5c2 0 13.61-1.75 17.32-2.75 2.16-.58 3.29 1.14 2 2.75C41 24.75 36.71 30.25 33.55 36M18.42 37c.74.76 1.47 2.89 1.48 3.69.02 1.95-.53 24.23-.67 25.94-.92 10.97-3 21.07-9.22 27.88M21.07 38.7c2.5-.21 21.42-3.73 23.28-3.96 3.33-.42 4.58 2.71 4.16 3.96-.4 1.2-.62 35.05-.62 51.93 0 12.12-4.39 3.37-6.68 1.62"/><path d="M32.42 38.37c.05.24.68 1.25.73 2.77C33.38 48.42 33 65.52 33 68"/><path d="M20.07 53.85c5.71-.74 11.43-1.43 17.15-2.1.55-.06 1.09-.13 1.65-.19M20.07 69.75c6.68-.5 17.43-1.75 27.19-2.5M62.5 27.5c2.82 1.59 7.29 6.53 8 9M57.5 44.25c3 1.68 7.75 6.89 8.5 9.5M55.25 65.75c.65.25 2.4.93 4.13.75 7.12-.75 25.62-4 35.85-4 1.74 0 2.18-.25 3.26 0"/><path d="M79.37 12.75c1.09.5 1.74 2.25 1.96 3.25.22 1 0 76.75-.22 83"/></g><g font-size="8" fill="gray"><text transform="translate(20.5 10.5)">1</text><text transform="translate(32.5 15.5)">2</text><text transform="translate(13.25 46.48)">3</text><text transform="translate(22.5 35.5)">4</text><text transform="translate(36.5 45.2)">5</text><text transform="translate(23.5 50.38)">6</text><text transform="translate(23.75 66.5)">7</text><text transform="translate(57.5 25.5)">8</text><text transform="translate(54.5 41.5)">9</text><text transform="translate(52.5 62.5)">10</text><text transform="translate(68.5 11.5)">11</text></g></svg>