<svg xmlns="http://www.w3.org/2000/svg" width="109" height="109" viewBox="0 0 109 109" class="kan-g"><g fill="none" stroke="currentColor" stroke-width="3" stroke-linecap="round" stroke-linejoin="round"><path d="M42.84 9.96c.84.38 1.5 1.71 1.5 2.49 0 18.55.91 32.05-11.8 42.05M59.91 9c.84.38 1.34 1.73 1.5 2.49s.5 33.63.33 38.43"/><path d="M24.82 20.84c1.15 0 2.49.19 3.65 0 1.15-.19 11.67-1.34 13.01-1.92M22.94 33.31c1.15 0 2.49.19 3.65 0 1.15-.19 11.09-2.23 14.16-2.8M20.84 48.07c.82.95 2.45 1.02 3.82.44.8-.34 11.33-5.64 14.74-7.3M63.66 17.55c3.45-.29 17.49-2.4 20.08-2.88.94-.17.29-.1 1.92-.1M63.94 30.28c3.45-.29 17.38-2.51 19.97-2.99.94-.17.29-.1 1.92-.1M63.85 41.81c3.45-.29 20.95-1.51 23.54-1.99.94-.17.29-.1 1.92-.1M49.5 47.25c2.45.99 5.1 4.1 6.47 6.77M21.25 61.22c1.2.1 3.47.6 4.64.54 9.8-.51 46.85-4.31 59.69-4.6 1.98-.04 3 .05 4.47.69M67.66 60.75c.59.86 1.13 1.47.29 3.05-7.6 14.48-26.66 29.47-47.02 35.7"/><path d="M34.91 68.75c13.49 6.98 32.76 20.14 48.76 27.43 3.01 1.37 5.22 1.35 7.83 1.47"/></g><g font-size="8" fill="gray"><text transform="translate(36.25 10.25)">1</text><text transform="translate(54.25 7.58)">2</text><text transform="translate(17.25 21.8)">3</text><text transform="translate(15.25 36.73)">4</text><text transform="translate(13 50.25)">5</text><text transform="translate(66.25 14.25)">6</text><text transform="translate(66.3 27.25)">7</text><text transform="translate(66.27 38.35)">8</text><text transform="translate(43.5 50.25)">9</text><text transform="translate(11.25 63.25)">10</text><text transform="translate(55.25 68.25)">11</text><text transform="translate(25.25 73.25)">12</text></g></svg>