<svg xmlns="http://www.w3.org/2000/svg" width="109" height="109" class="kan-g"><g class="kgPaths" fill="none" stroke="#000" stroke-width="3" stroke-linecap="round" stroke-linejoin="round"><path d="M59.76 11.75c-.39 1.25-1.14 2.17-1.87 2.68C49.5 20.25 41.88 23.5 28 28.75M23.18 28.63c1.16 1.16 1.46 2.88 1.52 4.9.8 27.97-2.2 44.47-11.64 53.83M28.25 41.69c4 .31 6.76.14 9.74-.23 11.47-1.42 32.93-3.79 44-4.65 2.87-.22 6.15-.24 9 .29M57.62 41.8c1.04 1.04 1.32 2.7 1.32 5.01 0 4.97.07 29.65-.01 44.94-.02 3.76-.03 6.98-.03 9.25"/><path d="M46.52 61.33c12.36 1.92 28.73 9.17 32.54 14.13"/></g><g class="kgNumbers" font-size="8" fill="gray"><text transform="translate(50.25 10.63)">1</text><text transform="translate(15.75 37.63)">2</text><text transform="translate(32.25 38.5)">3</text><text transform="translate(50.25 50.5)">4</text><text transform="translate(37.5 62.5)">5</text></g></svg>