<svg xmlns="http://www.w3.org/2000/svg" width="109" height="109" class="kan-g"><g class="kgPaths" fill="none" stroke="currentColor" stroke-width="3" stroke-linecap="round" stroke-linejoin="round"><path d="M15.14 28.54c2.45.58 4.83.41 7.37.12 7.43-.85 14.84-1.97 22.26-2.74 2.55-.46 5.09-.42 7.59.13M15.71 40.4c.52.47 1.19 1.84 1.29 2.46.71 4.53 2.07 12.94 3.07 21.52M17.48 41.62c7.06-.8 21.57-3.27 28.66-3.87 3.13-.26 5.54 1.53 5.05 4.65-.93 5.86-2.43 12.45-4.01 19.5"/><path d="M19.61 51.93C27 51.38 37.25 50 48.8 49.4M20.86 62.47c7-.94 16.76-2.22 25.81-2.52M11.72 75.9c2.63.63 5.22.42 7.9.02 8.41-1.24 17.87-2.25 25.4-2.97 2.33-.37 4.66-.4 7-.09"/><path d="M32.67 14.38c1.23 1.23 1.37 2.87 1.37 5.08 0 6.53.01 45.93.01 65.66v10.76M82.57 13.75c-.2.98-.56 1.9-1.07 2.76-4.26 7.24-7.97 10.79-16.01 17.87M61.84 36.33c1.16 1.16 1.37 2.49 1.33 4.44-.42 22.35-2.55 39.23-12.36 52.5M65.34 46.85c2.13.08 4.23-.16 6.29-.72 5.98-1.15 12.75-2.01 20.98-3.16 2.04-.28 4.08-.34 6.14-.22M80.93 47.98c.98.98 1.19 2.27 1.19 3.85 0 .97-.07 22.14-.1 35.8-.01 4.25-.02 7.78-.02 9.75"/></g><g class="kgNumbers" font-size="8" fill="gray"><text transform="translate(8.5 29.5)">1</text><text transform="translate(9.5 48.5)">2</text><text transform="translate(18.5 38.23)">3</text><text transform="translate(23 49.9)">4</text><text transform="translate(23.5 59.58)">5</text><text transform="translate(4.5 77.5)">6</text><text transform="translate(24.5 13.18)">7</text><text transform="translate(73.5 13.5)">8</text><text transform="translate(55.25 43.78)">9</text><text transform="translate(68.75 42.95)">10</text><text transform="translate(71.5 55.5)">11</text></g></svg>