<svg xmlns="http://www.w3.org/2000/svg" width="109" height="109" viewBox="0 0 109 109" class="kan-g"><g class="kgPaths" fill="none" stroke="currentColor" stroke-width="3" stroke-linecap="round" stroke-linejoin="round"><path d="M34.53 15c1.17 1.17 1.41 2.64 1.41 3.72 0 3.98-.13 9.03-.13 14.35"/><path d="M17.47 34.85c1.69.7 4.13.63 5.91.41 7.25-.9 16.67-2.56 25.68-4.18 1.26-.23 2.61-.56 3.64-.15M33.52 45.23c2.23.77 4.67 1.47 8.05 2.25 1.18.27 2.07 2.04 1.86 3.51-1.68 11.51-6.68 26.76-12.82 34.81-3.77 4.94-6.21-.19-7.32-.86M33.71 37.26c.29 1.13.23 2.39-.11 3.66-2.39 8.73-8.84 24.33-19.58 34.64M68.31 15.75c.05.76.21 1.99-.09 3.05C66.25 25.75 60.25 38.75 52 48M68.25 20.25c4 4.62 14.66 17.05 20.95 23.54 2.08 2.15 4.17 3.92 6.55 5.71M62.27 52.58c5.98 2.92 13.23 8.79 16.54 13.88M57.27 76.08c9.1 3.24 21.86 12.29 25.54 18.13"/></g><g class="kgNumbers" font-size="8" fill="gray"><text transform="translate(26.25 15.25)">1</text><text transform="translate(10.25 35.25)">2</text><text transform="translate(39.25 44.25)">3</text><text transform="translate(26.25 43.25)">4</text><text transform="translate(60.25 16.08)">5</text><text transform="translate(75.25 25.25)">6</text><text transform="translate(56.25 54.25)">7</text><text transform="translate(50.25 77.25)">8</text></g></svg>