<svg xmlns="http://www.w3.org/2000/svg" width="109" height="109" class="kan-g"><g fill="none" stroke="#000" stroke-width="3" stroke-linecap="round" stroke-linejoin="round"><path d="M48 11.25c3.78 1.87 9.3 9.16 9.98 12.83M16 32.11c1.5.39 4.68.69 6.06.55 11.19-1.16 52.44-4.91 67.64-5.7 2.35-.12 3.55.05 5.3.7M53.25 47c6.5 1 13.75 1.2 18.99.61 3.41-.38 4.36 1.71 4.17 4.36-.5 7-12.27 35.66-16.54 41.35-4.62 6.17-7.72-.24-9.09-1.07M54.5 32.75c.5 1.5.4 3.19-.19 4.87-4.06 11.63-15.81 35.13-34.06 46.13"/></g><g font-size="8" fill="gray"><text transform="translate(42.75 12)">1</text><text transform="translate(8.5 32.5)">2</text><text transform="translate(58.5 45.13)">3</text><text transform="translate(45.5 39.5)">4</text></g></svg>