<svg xmlns="http://www.w3.org/2000/svg" width="109" height="109" class="kan-g"><g class="kgPaths" fill="none" stroke="#000" stroke-width="3" stroke-linecap="round" stroke-linejoin="round"><path d="M73.8 13.56c0 1.31-.68 2.39-1.58 2.92-10.47 6.26-23.35 10.64-43.35 15.64"/><path d="M25.23 12.75c.95.95 1.14 2.25 1.14 3.54 0 3.71-.11 9.71-.11 17.11 0 11.59 2 12.66 28.91 12.66C81 46.06 82.75 44 82.75 35.25M31.52 60.05c.73.95.98 2.18.98 3.33 0 .85.11 19.25.11 29.11 0 3.17-.06 5.34-.06 5.49M33.4 62.19c2.94-.13 30.17-2.82 37.85-3.49 3.82-.33 5.37.3 5.37 4.18 0 5.74.05 19.8.06 27.88 0 3.27.01 5.51.01 5.73"/><path d="M33.72 77.42c6.65-.67 35.03-2.42 41.63-2.57M33.77 94.48c9.04-.61 30.56-1.75 41.82-2.28"/></g><g class="kgNumbers" font-size="8" fill="gray"><text transform="translate(64.5 13.5)">1</text><text transform="translate(16.5 13.5)">2</text><text transform="translate(24.5 68.5)">3</text><text transform="translate(33.5 58.5)">4</text><text transform="translate(36.5 74.5)">5</text><text transform="translate(36.5 91.5)">6</text></g></svg>