<svg xmlns="http://www.w3.org/2000/svg" width="109" height="109" class="kan-g"><g class="kgPaths" fill="none" stroke="#000" stroke-width="3" stroke-linecap="round" stroke-linejoin="round"><path d="M33.75 17.71c1.02 1.02 1.3 2.13 1.3 3.8v51.74M36.12 19.42c6.32-.59 26.15-2.23 32.89-2.77 4.32-.34 5.48.56 5.49 4.98.01 8.87.11 40.03.11 45.58 0 1.89-.11 4.05-.11 5.3"/><path d="M36.52 43.87c9.36-.75 31.28-2.34 36.88-2.34M36.12 69.96c11.25-.58 27.88-1.67 37.34-1.67M14.75 90.75c3.46 1.15 7.36 1.11 10.88.84 18.02-1.39 43.01-2.52 58-2.77 3.81-.06 7.38-.06 11.12.68"/></g><g class="kgNumbers" font-size="8" fill="gray"><text transform="translate(26 26.88)">1</text><text transform="translate(36.5 15.03)">2</text><text transform="translate(39.5 38.95)">3</text><text transform="translate(39.5 65.88)">4</text><text transform="translate(17 88.3)">5</text></g></svg>