<svg xmlns="http://www.w3.org/2000/svg" width="109" height="109" class="kan-g"><g class="kgPaths" fill="none" stroke="currentColor" stroke-width="3" stroke-linecap="round" stroke-linejoin="round"><path d="M23.16 23c1.05 1.05 1.7 2.5 1.7 3.82 0 .77-.16 42.52-.2 59.68-.01 2.88-.01 5.07-.01 6.25M46 23.3c1.1 1.1 1.51 2.53 1.51 4.56V92.5M48.55 25.3c3.54-.25 30.01-3 33.24-3.3 2.69-.25 4.46 1.25 4.46 4.06 0 2.48-.05 41.35-.07 57.31 0 3.83-.01 6.32-.01 6.61"/><path d="M48.43 54.99c8.32-.74 31.36-3.04 36.79-3.04M48.8 86.71C59.88 86 73.12 85 85.05 84.68"/></g><g class="kgNumbers" font-size="8" fill="gray"><text transform="translate(18.5 31.5)">1</text><text transform="translate(39.5 32.5)">2</text><text transform="translate(48.5 21.5)">3</text><text transform="translate(53.07 51.13)">4</text><text transform="translate(53.25 83.5)">5</text></g></svg>