<svg xmlns="http://www.w3.org/2000/svg" width="109" height="109" class="kan-g"><g class="kgPaths" fill="none" stroke="#000" stroke-width="3" stroke-linecap="round" stroke-linejoin="round"><path d="M13.52 30.05c.91.91 1.1 2.08 1.1 3.5 0 .75-.09 26.97-.06 39.2.01 3.34.03 5.55.06 5.75M15.33 31.3c5.14-.91 12.06-2.17 16.55-2.9 2.54-.41 3.87.54 3.83 3.1-.08 4.35-.07 28.18-.06 39.62 0 3.69.01 5.44.01 5.77"/><path d="M15.91 52.09c6.12-.75 12.78-1.77 18.11-2.37M15.81 75.8c6.1-.52 13.51-1.8 18.53-2.38M43.61 21.6c2.44.44 4.96.23 7.39-.08 8.9-1.14 22.52-2.65 31.63-3.35 2.09-.16 4.73-.71 6.74.07M64.86 21.86c1.2 1.2 1.24 2.73 1.24 4.6 0 13.06-.02 48.42-.02 59.14"/><path d="M45.39 53.12c2.24.91 4.83.41 7.13.17 7.93-.8 19.4-2.03 28.1-2.87 2.29-.22 4.82-.42 7.07.27M39.59 87.64c3.35.85 6.65.45 10.03.12 11.9-1.12 24.67-2.06 38.38-2.02 2.76.01 6.04-.3 8.66.82"/></g><g class="kgNumbers" font-size="8" fill="gray"><text transform="translate(7.25 38.25)">1</text><text transform="translate(17.25 27.25)">2</text><text transform="translate(19.25 48.25)">3</text><text transform="translate(19.08 72.18)">4</text><text transform="translate(40.25 18.25)">5</text><text transform="translate(58.25 30.25)">6</text><text transform="translate(44.25 50.25)">7</text><text transform="translate(38.25 85.25)">8</text></g></svg>