<svg xmlns="http://www.w3.org/2000/svg" width="109" height="109" class="kan-g"><g fill="none" stroke="#000" stroke-width="3" stroke-linecap="round" stroke-linejoin="round"><path d="M29.49 13.44c.49.49.59.8.77 1.44 1.49 5.37 2.99 16.37 4.67 26.33M30.82 15.54c11.83-1.06 35.61-2.87 44.44-3.76 3.24-.33 3.91 1.87 3.74 3.02-.61 4.23-2.76 16.69-5.1 24.35"/><path d="M33.03 26.92c7.46-.79 14.97-1.29 22.45-1.91 2.55-.21 5.1-.42 7.52-.61M34.79 38.68c10.96-1.16 27.85-2.35 39.61-3.09M49.89 41.75c2.56 1.18 5.36 4 6.26 7.07M19.71 56.53c1.82.07 5.25.4 7.02.36 14.82-.34 38.9-4.2 58.31-4.4 3-.03 4.53.03 6.76.46M67.53 57.23c.63.94.37 2.69-.69 4.33C56.75 77.25 40.5 91 17.55 99.5"/><path d="M34.72 64.8c3.78.7 33.25 23.29 49.24 31.71 3.01 1.58 5.22 1.56 7.83 1.7"/></g><g font-size="8" fill="gray"><text transform="translate(23.5 21.5)">1</text><text transform="translate(33.5 11.5)">2</text><text transform="translate(37.5 23.5)">3</text><text transform="translate(38.5 35.5)">4</text><text transform="translate(44.25 46.5)">5</text><text transform="translate(12.5 56.5)">6</text><text transform="translate(58.5 63.5)">7</text><text transform="translate(28.5 69.5)">8</text></g></svg>