<svg xmlns="http://www.w3.org/2000/svg" width="109" height="109" class="kan-g"><g class="kgPaths" fill="none" stroke="currentColor" stroke-width="3" stroke-linecap="round" stroke-linejoin="round"><path d="M33.88 13.76c.81.81 1.16 2.05 1.23 2.98.34 4.45 1.37 14.98 2.26 24.01.11 1.15.22 2.27.33 3.35M36.14 14.87c10.15-.83 26.91-2.25 35.24-2.6 3.62-.15 5.78 1.78 5.42 4.86-.55 4.64-1.53 11.96-3.14 21.05-.28 1.58-.58 3.21-.89 4.89"/><path d="M37.5 28.9c13-1.15 28.75-2.4 36.88-2.67M38.89 41.97C49 41 62.75 40 72.22 39.54M45.37 44.25c.18 1.09-.24 2.25-.94 3.1-4.05 4.93-13.01 11.6-27.71 17.46M39.11 55.24c1.15.46 2.73.65 4.6.56 5.92-.3 29.79-2.67 39.01-3.6 4.57-.46 5.52 1.8 4.83 5.06-.69 3.26-6.29 26.25-16.16 36.37-2.82 2.89-5.51.5-8.11-2.02"/><path d="M49.96 58.04c.07.51 0 1.36-.39 2.05-4.07 7.15-10.95 12.53-25 19.66M68.38 57c.11.84-.02 2.17-.47 3.38-2.7 7.12-17.27 22.73-38.42 32.28"/></g><g class="kgNumbers" font-size="8" fill="gray"><text transform="translate(28.5 21.5)">1</text><text transform="translate(37.5 11.5)">2</text><text transform="translate(41.5 25.78)">3</text><text transform="translate(41.5 38.5)">4</text><text transform="translate(30.5 52.63)">5</text><text transform="translate(50.5 52.26)">6</text><text transform="translate(39.5 65.5)">7</text><text transform="translate(58.5 64.5)">8</text></g></svg>