<svg xmlns="http://www.w3.org/2000/svg" width="109" height="109" viewBox="0 0 109 109" class="kan-g"><g fill="none" stroke="currentColor" stroke-width="3" stroke-linecap="round" stroke-linejoin="round"><path d="M31.24 13.04c.46.46.47.78.73 1.36 2.09 4.79 3.58 14.88 4.88 23.81M34.39 14.55c11.17-1 32.75-3.18 41.09-4.02 3.06-.31 3.69 1.76 3.53 2.85-.58 4-3.51 13.86-5.87 20.55"/><path d="M36.47 25.3c6.51-.7 13.02-1.37 19.54-2.04 2.2-.23 4.4-.45 6.49-.66M37.66 35.93C48 34.84 62 33.24 73.11 32.55M53.33 37.57c.08.25 1.11 1.28 1.19 2.84.38 7.49-.24 18.7-.24 21.26M31.98 45.73c2.9 1.96 7.49 8.04 8.21 11.08M75.1 40.63c.03.35.05.91-.05 1.42-.62 2.99-4.19 9.55-9.07 13.56M19.13 64.28c1.33.51 3.78.6 5.12.51 13.88-.86 46.01-4.79 61.61-4.91 2.22-.02 3.56.25 4.67.5M46.21 66.25c.08.78.21 2.02-.15 3.12-3.11 9.4-12.31 24.08-27.15 29.91M60.53 64.71c.59.94 1.06 2.05 1.1 3.5.16 6.48-1.77 22.44 1.27 25.65 2.23 2.35 7.46 2.27 12.77 2.22 6.71-.06 12.65-.55 13.67-1.28 2.2-1.58 1.6-2.37 1.8-5.14"/></g><g font-size="8" fill="gray"><text transform="translate(24.25 20.25)">1</text><text transform="translate(35.41 11.25)">2</text><text transform="translate(40.25 22.25)">3</text><text transform="translate(41.29 33.25)">4</text><text transform="translate(45.25 45.25)">5</text><text transform="translate(25.19 49.25)">6</text><text transform="translate(66.25 43.25)">7</text><text transform="translate(11.25 65.35)">8</text><text transform="translate(37.25 73.28)">9</text><text transform="translate(51.25 72.25)">10</text></g></svg>