<svg xmlns="http://www.w3.org/2000/svg" width="109" height="109" class="kan-g"><g fill="none" stroke="currentColor" stroke-width="3" stroke-linecap="round" stroke-linejoin="round"><path d="M12.27 30.96c.37.79.74 1.69.74 2.75s-.12 44.74 0 45.79M13.62 32.61c4.82-1.08 12.43-2.6 16.11-3.36 1.56-.33 2.49 1.45 2.49 2.24 0 4.08-.49 38.67-.49 45.97"/><path d="M13.04 53.47c3.24-.37 6.47-.8 9.7-1.22.8-.1 1.6-.21 2.39-.31M13.39 76.53c5.77-.57 11.01-1.58 17.95-2.07M38.45 25.23c.9.39 4.06.43 4.96.39 11.94-.47 34.69-3.7 48.93-3.93 1.5-.02 2.91.19 3.66.39M39.79 44.88c.82.79 1.86 3.36 2.02 4.4 1.11 7.58 1.95 25.29 3.52 39.63M41.39 47.17c12.48-1.52 41.38-4.69 49.89-4.92 3.53-.1 5.11 2.7 4.68 6.41-1.05 9.01-1.86 24.28-5.21 37.72"/><path d="M58.8 28.1c.46 1.11.87 3.54.78 5.08-.81 13.81-2.33 31.58-11.8 36.86M72.92 26.77c.73 1.1 1.36 2.4 1.36 4.09 0 14.82-.35 22.65-.35 27.14 0 5.76.82 7.43 6.36 7.43 4.69 0 7.78-1.16 8.04-1.5M46 86.24c10.47-.54 32.07-2.26 44.81-2.49"/></g><g font-size="8" fill="gray"><text transform="translate(5.5 38.5)">1</text><text transform="translate(15.5 28.5)">2</text><text transform="translate(16.5 49.5)">3</text><text transform="translate(17.44 73.5)">4</text><text transform="translate(37.5 22.5)">5</text><text transform="translate(36.44 62.76)">6</text><text transform="translate(44.44 43.5)">7</text><text transform="translate(51.5 34.5)">8</text><text transform="translate(66.5 33.53)">9</text><text transform="translate(47.5 82.5)">10</text></g></svg>