<svg xmlns="http://www.w3.org/2000/svg" width="109" height="109" viewBox="0 0 109 109" class="kan-g"><g class="kgPaths" fill="none" stroke="currentColor" stroke-width="3" stroke-linecap="round" stroke-linejoin="round"><path d="M22.75 18c.94.94 1.2 2.13 1.25 3.5 1.5 41.5-1.38 61.38-11 73.75M25.5 20.5c4.77-.78 13.11-2.12 16.48-2.61 4.1-.59 5.02 1.04 5.02 4.73V87c0 13-6.5 4.5-9 2.25"/><path d="M25.5 40c4.25-.5 14.25-1.75 20-2M24.75 60.5c8-.75 12-1.25 21.25-1.75M63 18.5c1 1 1.47 1.97 1.5 3 .88 30.75.88 56.38-11.25 73.75M65.5 21c4.21-.76 15.23-2.42 19.51-3.04 3.96-.57 5.49.37 5.49 4.29V87c0 13-5.75 5.5-8.25 3.25"/><path d="M66 40.25c4.25-.5 17.5-1.75 23.25-2M65.25 58.5c8-.75 14.75-1 24-1.5"/></g><g class="kgNumbers" font-size="8" fill="gray"><text transform="translate(17.25 26.25)">1</text><text transform="translate(27.25 17.25)">2</text><text transform="translate(29.17 36.25)">3</text><text transform="translate(29 56.25)">4</text><text transform="translate(57.25 27.25)">5</text><text transform="translate(67.25 17.25)">6</text><text transform="translate(69.25 37.25)">7</text><text transform="translate(69.21 55.17)">8</text></g></svg>