<svg xmlns="http://www.w3.org/2000/svg" width="109" height="109" viewBox="0 0 109 109" class="kan-g"><g class="kgPaths" fill="none" stroke="currentColor" stroke-width="3" stroke-linecap="round" stroke-linejoin="round"><path d="M34.25 16.25c1 1 1.48 2.38 1.5 4 .38 33.62 2.38 59.38-11 73.25M36.25 19c4.12-.62 31.49-4.78 33.25-5 4-.5 5.5 1.12 5.5 4.75 0 2.76-.5 49.25-.5 69.5 0 13-6.25 4-8.75 1.75"/><path d="M37.25 38c10.25-1.5 27.25-3.75 36.25-4.5M37 58.25c8.75-1.12 27-3.5 36.25-4"/></g><g class="kgNumbers" font-size="8" fill="gray"><text transform="translate(27.5 23.43)">1</text><text transform="translate(37.5 15.5)">2</text><text transform="translate(40 33.5)">3</text><text transform="translate(40 54.5)">4</text></g></svg>