<svg xmlns="http://www.w3.org/2000/svg" width="109" height="109" viewBox="0 0 109 109" class="kan-g"><g fill="none" stroke="currentColor" stroke-width="3" stroke-linecap="round" stroke-linejoin="round"><path d="M30.38 31.02c.88.28 2.49.31 3.37.28 9.16-.32 30-4.3 41.14-5.23 1.46-.12 2.35.13 3.08.27M16.19 51c.89.25 3.27.94 5.64.75 9.42-.75 48.08-5.25 64.41-6.5 2.37-.18 4.47.25 5.95.5"/><path d="M51.91 11.25c1.48.5 2.38 2.25 2.67 3.25s-.3 78.71-.3 80c0 12-5.66 2.38-6.78 1.25"/><path d="M52.25 49.5c-6.97 12.33-25 31.02-39.5 38M55 48.75c5.45 7 28.5 27 36.63 32.85 2.03 1.46 3.65 2.21 5.62 2.65"/></g><g font-size="8" fill="gray"><text transform="translate(23.5 32.5)">1</text><text transform="translate(8.5 52.5)">2</text><text transform="translate(44.25 12.63)">3</text><text transform="translate(36.5 60.5)">4</text><text transform="translate(68.5 58.5)">5</text></g></svg>