<svg xmlns="http://www.w3.org/2000/svg" width="109" height="109" viewBox="0 0 109 109" class="kan-g"><g fill="none" stroke="currentColor" stroke-width="3" stroke-linecap="round" stroke-linejoin="round"><path d="M16.28 37.72c.35.24 2.39.41 3.31.31 3.94-.41 19.12-3.21 25.45-4.41.92-.17 2.15-.24 2.73 0"/><path d="M31.36 12.5c.91.47 2.86 3.49 3.04 4.42.18.93-.3 72.73-.3 73.58 0 11.25-4.6 4.5-6.6 2.5"/><path d="M33.94 40.28c-6.55 14.93-10.19 21.24-20.33 34.31M36.72 45.15c3.3 2.04 8.74 8.65 11.53 12.6M82.7 13c.08.67.29 1.83-.16 2.71-2.96 5.79-11.72 18.04-27.52 24.95M86.98 37.36c.1.76.34 2.06-.19 3.03-3.62 6.63-14.95 21.7-33.21 29.03M96.78 61.5c.12.89.54 2.45-.23 3.58C89 76.25 74.75 89.5 55.07 99.25"/></g><g font-size="8" fill="gray"><text transform="translate(8.5 39.13)">1</text><text transform="translate(23.5 13.63)">2</text><text transform="translate(23.25 49.63)">3</text><text transform="translate(41.5 46.63)">4</text><text transform="translate(74.5 14.5)">5</text><text transform="translate(78.75 37.55)">6</text><text transform="translate(89.5 61.5)">7</text></g></svg>