<svg xmlns="http://www.w3.org/2000/svg" width="109" height="109" class="kan-g"><g class="kgPaths" fill="none" stroke="currentColor" stroke-width="3" stroke-linecap="round" stroke-linejoin="round"><path d="M11.28 38.52c.36.29 2.5.49 3.47.37 4.13-.48 20.03-1.43 26.66-2.87.96-.21 2.25-.29 2.86 0"/><path d="M27.86 15.5c.91.47 1.86 3.49 2.04 4.42.18.93-.12 70.75-.3 76.58"/><path d="M29.94 39.28c-5.82 16.02-9.06 22.79-18.08 36.81M32.97 46.65c2.74 2.03 8.85 6.45 11.16 10.39M65.63 41.5C60.94 59.51 50.75 84 39 95.17"/><path d="M56.36 16.75c1.31 0 3.25 1.94 3.62 3.64C68.5 60 76.25 73.25 90.22 89.89c1.37 1.63 3.63 3.3 4.78 3.86"/></g><g class="kgNumbers" font-size="8" fill="gray"><text transform="translate(5.85 39.5)">1</text><text transform="translate(18.5 15.5)">2</text><text transform="translate(18.5 49.5)">3</text><text transform="translate(35.5 46.5)">4</text><text transform="translate(56.5 47.5)">5</text><text transform="translate(48.5 16.5)">6</text></g></svg>