<svg xmlns="http://www.w3.org/2000/svg" width="109" height="109" viewBox="0 0 109 109" class="kan-g"><g class="kgPaths" fill="none" stroke="currentColor" stroke-width="3" stroke-linecap="round" stroke-linejoin="round"><path d="M14.78 37.72c2.47.66 5.37.35 6.85.14 6.65-.93 17.33-2.94 23.04-4.03 1.27-.24 2.96-.45 4.35-.21"/><path d="M33.11 13.25c1.26 1.26 1.54 3.5 1.54 5.42 0 .63-.01 47.37-.02 67.7v9.25"/><path d="M33.69 37.78c0 1.97-1.32 5.56-1.98 6.94C26.76 55.07 23.5 62 13.61 74.59M37.22 45.15c3.9 2.98 8.4 7.48 11.53 12.6M82.7 13.25c.08.67-.21 1.58-.66 2.46-2.96 5.79-10.92 16.16-27.02 24.45M86.98 37.61c.1.76-.1 1.85-.69 2.78-4.67 7.48-14.04 20.23-32.71 29.03M97.53 62c.12.89-.21 1.95-.98 3.08C89 76.25 74.75 89.25 55.07 99"/></g><g class="kgNumbers" font-size="8" fill="gray"><text transform="translate(8.5 39.13)">1</text><text transform="translate(23.5 13.63)">2</text><text transform="translate(23.25 49.63)">3</text><text transform="translate(41.5 46.63)">4</text><text transform="translate(74.5 14.5)">5</text><text transform="translate(78.75 37.55)">6</text><text transform="translate(89.5 61.5)">7</text></g></svg>