<svg xmlns="http://www.w3.org/2000/svg" width="109" height="109" viewBox="0 0 109 109" class="kan-g"><g fill="none" stroke="currentColor" stroke-width="3" stroke-linecap="round" stroke-linejoin="round"><path d="M12.78 36.22c.37.24 2.55.41 3.53.31 4.21-.41 17.78-1.71 24.54-2.91.98-.17 2.3-.24 2.91 0"/><path d="M28.86 16c.91.47 2.04 2 2.04 4.42 0 .95-.3 67.23-.3 68.08 0 11.5-4.97 2.88-6.6 1.25"/><path d="M30.44 37.78C25.75 53.5 20.5 63 12.11 74.59M32.97 46.4c2.73 1.47 7.22 6.25 9.53 9.1M43.5 42.58c1.5.42 3.23.98 4.69.78 11.56-1.6 25.81-3.85 40.72-4.76 1.87-.11 3.18-.15 4.42-.01"/><path d="M59.99 13.5c1.34 1.8 1.56 2.31 1.84 6.18 2.34 32.46 11.38 62.66 27.8 74.77 5.27 3.89 4.52.77 3.85-7.21M75.24 19.21c3.13 1.68 8.13 5.52 9.59 8.39"/></g><g font-size="8" fill="gray"><text transform="translate(6.5 36.5)">1</text><text transform="translate(19.5 15.5)">2</text><text transform="translate(20.5 47.5)">3</text><text transform="translate(35.5 45.5)">4</text><text transform="translate(46.5 39.5)">5</text><text transform="translate(50.5 14.5)">6</text><text transform="translate(73.5 16.5)">7</text></g></svg>