<svg xmlns="http://www.w3.org/2000/svg" width="109" height="109" class="kan-g"><g fill="none" stroke="#000" stroke-width="3" stroke-linecap="round" stroke-linejoin="round"><path d="M12.28 41.22c.35.24 2.39.41 3.31.31 3.94-.41 18.62-2.21 24.95-3.41.92-.17 1.15-.24 1.73 0"/><path d="M28.36 15c.91.47 3.04 3 3.04 5.92 0 .95-.3 67.73-.3 68.58 0 12.25-5.1 2.25-6.35 1"/><path d="M30.94 43.28C24.96 57.23 21.75 64 12.36 75.34M33.72 50.65c2.37 1.48 5.66 6.53 7.66 9.39M61 14.64c.04.77.08 1.99-.08 3.09-.96 6.51-7.17 19.98-14.06 29.55M56.79 33.5c.66.21 1.88.24 2.54.21 4.44-.15 18.42-2.97 26.63-4.76 1.08-.24 3.77.1 4.32.21M46.5 57.38c1.07.39 3.04.47 4.12.39C61.25 57 76.25 55 93.49 54.31c1.79-.07 2.86.19 3.76.38"/><path d="M70.32 35.52c.38.43 1.19 3.24 1.26 4.11.08.87-.05 50.85-.13 56.26"/></g><g font-size="8" fill="gray"><text transform="translate(5.85 42.5)">1</text><text transform="translate(19.5 15.5)">2</text><text transform="translate(19.5 52.85)">3</text><text transform="translate(35.5 49.85)">4</text><text transform="translate(52.25 15.5)">5</text><text transform="translate(63.5 30.5)">6</text><text transform="translate(48.5 54.18)">7</text><text transform="translate(63.5 43.5)">8</text></g></svg>