<svg xmlns="http://www.w3.org/2000/svg" width="109" height="109" class="kan-g"><g class="kgPaths" fill="none" stroke="currentColor" stroke-width="3" stroke-linecap="round" stroke-linejoin="round"><path d="M20.25 30.61c1.8.57 3.85.75 5.92.57 10.56-.93 41.2-3.68 57.17-4.78 2.06-.14 3.35.1 5.41.5"/><path d="M53.25 11.75c.75 1 1.75 2.72 1.75 3.75 0 10.5 0 47.75-.25 54"/><path d="M53.75 29.25c-7 11.75-22 27-38.5 33M54.5 29c5.75 6 25 22.25 32.83 26.77 1.93 1.11 3.36 1.86 5.17 2.23M25.19 80c0 6.16-7.73 15.24-9.75 17M40.96 78.33c2.47 3.46 4.82 12.99 5.44 18.38M61.57 75.83c3.24 3.38 8.37 13.88 9.18 19.13M81.46 75.58C86.24 79 93.8 89.65 95 94.97"/></g><g class="kgNumbers" font-size="8" fill="gray"><text transform="translate(13.5 30.5)">1</text><text transform="translate(44.5 12.5)">2</text><text transform="translate(37.5 40.5)">3</text><text transform="translate(66.5 37.5)">4</text><text transform="translate(19.5 78.5)">5</text><text transform="translate(33.5 79.5)">6</text><text transform="translate(54.5 79.5)">7</text><text transform="translate(73.5 78.5)">8</text></g></svg>