<svg xmlns="http://www.w3.org/2000/svg" width="109" height="109" class="kan-g"><g fill="none" stroke="currentColor" stroke-width="3" stroke-linecap="round" stroke-linejoin="round"><path d="M13.28 38.72c.35.24 2.39.41 3.31.31 3.94-.41 16.12-2.21 22.45-3.41.92-.17 2.15-.24 2.73 0"/><path d="M28.36 14.5c.91.47 2.04 2.25 2.04 4.42 0 .95-.3 65.75-.3 71.58 0 12.25-4.6 4-6.35 2.25"/><path d="M29.94 39.78C24.75 54.75 19.25 67 10.86 77.59M32.47 46.9c2.37 1.59 6.28 7.76 8.28 10.85M64.49 14.25c2.26 2.25 5.76 7.25 7.18 14.04M48.59 35.17c1.66.33 2.95.72 4.3.69 7.66-.16 23.86-1.86 36.53-2.6 2.26-.13 3.62.09 4.75.19M55.42 44.02c3.23 12.19 4.93 28.01 6.17 42.89M84.1 39.54c.72 1.52.81 2.3.72 3.56-.58 8.63-5.94 36.06-7.39 42.67M41.5 90.34c1.19.36 2.58.4 3.76.36C58 90.26 76.25 88 92.85 88.06c1.98.01 3.17.17 4.16.35"/></g><g font-size="8" fill="gray"><text transform="translate(6.5 38.5)">1</text><text transform="translate(18.5 14.5)">2</text><text transform="translate(19.5 47.5)">3</text><text transform="translate(35.5 46.85)">4</text><text transform="translate(57.5 14.5)">5</text><text transform="translate(47.5 32.5)">6</text><text transform="translate(46.25 48.5)">7</text><text transform="translate(76.5 45.5)">8</text><text transform="translate(39.5 86.5)">9</text></g></svg>