<svg xmlns="http://www.w3.org/2000/svg" width="109" height="109" class="kan-g"><g fill="none" stroke="#000" stroke-width="3" stroke-linecap="round" stroke-linejoin="round"><path d="M12.28 36.72c.37.24 2.55.41 3.52.31 4.2-.41 19.3-1.71 26.06-2.91.98-.17 2.29-.24 2.91 0"/><path d="M29.36 14c.91.47 2.04 2.25 2.04 4.42 0 .95-.3 70.23-.3 71.08 0 12.25-4.72 2.38-6.1 1"/><path d="M30.94 38.78c-5.9 16.78-9.19 23.87-18.33 38.56M34.47 48.9c2.37 1.59 7.28 6.76 9.28 9.85M62.25 13.5c.05.83.24 2.16-.1 3.31-2.15 7.44-7.9 20.94-17.09 31.69M57.36 31.81c.92.24 2.61.28 3.54.24 12.18-.5 20.71-3.1 29.67-3.61 1.7-.1 2.81.03 4.14.27M65.16 34.46c.85.48 1.36 2.17 1.53 3.13.17.96 0 52.14-.17 58.16M67.57 51.84c6.35-.65 13.09-1.33 20.27-1.98 1.69-.15 2.32-.21 4.13.12M66.99 68.09c4.66-.36 12.21-1.17 22.87-1.94.96-.07 3.4.07 3.88.14"/></g><g font-size="8" fill="gray"><text transform="translate(6.5 37.5)">1</text><text transform="translate(20.5 14.5)">2</text><text transform="translate(20.5 47.5)">3</text><text transform="translate(35.5 46.5)">4</text><text transform="translate(52.5 12.5)">5</text><text transform="translate(64.5 28.5)">6</text><text transform="translate(58.5 42.5)">7</text><text transform="translate(70.5 48.5)">8</text><text transform="translate(70.5 64.5)">9</text></g></svg>