<svg xmlns="http://www.w3.org/2000/svg" width="109" height="109" class="kan-g"><g fill="none" stroke="currentColor" stroke-width="3" stroke-linecap="round" stroke-linejoin="round"><path d="M13.03 38.22c.35.24 2.39.41 3.31.31 3.94-.41 17.12-1.71 23.45-2.91.92-.17 2.15-.24 2.73 0"/><path d="M28.11 15c.91.47 2.54 2 2.54 4.42 0 .95-.3 71.23-.3 72.08 0 10.75-3.97 3.62-6.1 1.5"/><path d="M30.19 40.28C24.29 56.74 21 63.69 11.86 78.09M32.72 46.4C35.1 47.99 40 53.16 42 56.25M42.72 25.13c1.2.51 3.41.63 4.61.51 7.16-.72 34.06-3.68 44-4.35 2-.13 3.21.24 4.21.5M48.83 41.23c.33.41.68.75.82 1.26 1.16 4.04 2.54 16.3 3.33 23.56M51.4 42.94C59 41 64.54 40.2 68.45 39.56c1.43-.24 2.2 1.38 2.08 2.79-.53 6.21-2.03 10.41-2.59 19.79M53.64 64.14c6.11-.39 9.11-.89 15.73-1.29M83.16 25.09c.07.45 1.32 2.34 1.39 5.18.32 13.67-.2 56.07-.2 60.73 0 7.99-5.71 1.41-6.89.23"/></g><g font-size="8" fill="gray"><text transform="translate(6.5 38.5)">1</text><text transform="translate(19.5 14.5)">2</text><text transform="translate(20.5 48.5)">3</text><text transform="translate(34.5 45.5)">4</text><text transform="translate(40.5 21.5)">5</text><text transform="translate(42.5 47.5)">6</text><text transform="translate(51.5 39.5)">7</text><text transform="translate(56.5 60.5)">8</text><text transform="translate(76.5 31.5)">9</text></g></svg>