<svg xmlns="http://www.w3.org/2000/svg" width="109" height="109" class="kan-g"><g fill="none" stroke="currentColor" stroke-width="3" stroke-linecap="round" stroke-linejoin="round"><path d="M11.78 39.32c.37.2 2.56.33 3.55.26 4.23-.33 17.29-1.79 24.09-2.77.98-.14 1.23-.2 1.85 0"/><path d="M27.86 14.5c.91.47 2.54 3 2.54 5.42 0 .95-.3 71.73-.3 72.58 0 11.75-5.97 2.88-7.35 1.5"/><path d="M29.94 42.28c-5.9 14.39-9.19 20.47-18.33 33.06M33.47 49.4c2.61 1.48 6.21 6.53 8.41 9.39M58.04 13.75c.14 1.4-.04 3.23-.5 4.42C54.56 25.8 50.8 32.26 44 41.54M56.25 28.39c1.02.11 3 .59 4.79.48 8.35-.51 22.39-3.47 27.92-3.98 1.56-.14 3 .18 3.79.37M51.76 42.12c1.2 1.01 1.5 2.78 1.5 4.04 0 1.26.3 47.93.3 50.21M53.29 43.57c9.55-1.22 24.12-2.89 29.25-3.44 3.46-.37 4.87 1.89 4.87 3.44s-.54 46.63-.54 48.85c0 6.22-5.88 1.33-7.4-.61"/><path d="M69.65 43c0 5-.03 18.72-.03 22M41.58 66.84c1.8.3 3.58.65 5.89.48 4.74-.36 43.28-3.66 46.15-3.66 2.87 0 3.73 0 4.88.24"/></g><g font-size="8" fill="gray"><text transform="translate(5.85 40.5)">1</text><text transform="translate(19.5 14.5)">2</text><text transform="translate(19.5 50.5)">3</text><text transform="translate(34.5 47.5)">4</text><text transform="translate(48.5 12.5)">5</text><text transform="translate(60.5 25.5)">6</text><text transform="translate(46.44 50.5)">7</text><text transform="translate(55.5 40.5)">8</text><text transform="translate(62.44 51.53)">9</text><text transform="translate(42.5 64.5)">10</text></g></svg>