<svg xmlns="http://www.w3.org/2000/svg" width="109" height="109" class="kan-g"><g fill="none" stroke="#000" stroke-width="3" stroke-linecap="round" stroke-linejoin="round"><path d="M15.03 39.47c.35.24 2.39.41 3.31.31 3.94-.41 16.12-2.21 22.45-3.41.92-.17 2.15-.24 2.73 0"/><path d="M30.11 15.25c.91.47 2.04 2.25 2.04 4.42 0 .95-.3 69.73-.3 70.58 0 10.25-4.72 2.88-6.1 1.5"/><path d="M31.69 41.03c-5.26 14.82-8.19 21.09-16.33 34.06M34.22 47.65c2.37 1.59 8.28 9.76 10.28 12.85M66.19 11.62c.08.25 1.22 1.27 1.22 2.83 0 11.3.25 23.62.25 26.17M44.06 21.74c3.29 1.83 8.5 7.18 9.32 10.04M89.71 16.15c.03.38.06.98-.06 1.52-.74 3.21-4.14 8.29-10.26 13.66M51.36 41.97c.62 1 1.04 2 1.24 3 .21 1 .29 48.5.21 50.75M53.84 42.97c2.49-.25 24.87-4.25 26.74-4.25 2.42 0 4.15.53 4.15 3.25 0 10.78-.12 27.25-.12 47.5 0 10.03-5.1 3.78-6.96 2.03"/><path d="M53.84 56.22c5.45-.75 10.91-1.4 16.37-2.02 1.33-.15 2.64-.29 3.9-.43M53.22 70.47c5.06-.57 11.62-1.09 16.68-1.59 1.5-.15 3.01-.29 4.48-.43"/></g><g font-size="8" fill="gray"><text transform="translate(8.25 41.25)">1</text><text transform="translate(20.33 15.25)">2</text><text transform="translate(21.25 49.25)">3</text><text transform="translate(37.25 48.25)">4</text><text transform="translate(55.67 11.25)">5</text><text transform="translate(41.25 19.25)">6</text><text transform="translate(82.33 13.26)">7</text><text transform="translate(45.25 50.25)">8</text><text transform="translate(56.25 38.78)">9</text><text transform="translate(56.25 52.7)">10</text><text transform="translate(56.51 66.25)">11</text></g></svg>