<svg xmlns="http://www.w3.org/2000/svg" width="109" height="109" class="kan-g"><g fill="none" stroke="currentColor" stroke-width="3" stroke-linecap="round" stroke-linejoin="round"><path d="M51.21 8.75c2.11.9 4.54 3.5 5.59 6.18M21.74 21.19c1.2.09 3.95.58 5.11.46 9.44-.98 42.97-4.06 56.43-4.73 1.98-.1 2.99.04 4.47.59M49.68 20.75c.47.28.56 1.05.28 1.41-2.2 2.84-6.45 6.59-12.23 11-1.8 1.37-1.08 3.06.93 2.52 10.09-2.68 22.09-5.43 31.59-7.33"/><path d="M63 23c4.49 1.85 11.59 7.59 12.72 10.47M15.5 49.7c1.43.54 4.06.8 5.47.54 5.78-1.05 50.69-5.49 67.78-5.73 2.38-.03 3.81.26 5 .53"/><path d="M34.1 41.44c.4.81 1.14 1.73 1.14 2.52 0 5.54.01 12.05-.18 17.29M52.34 37.94c.91.39 1.46 1.75 1.64 2.52.18.78 0 12.83-.18 17.68M72.59 37.5c.66 1 1.31 2.24 1.14 3.02C73 44 71.75 50.5 70.55 56.7"/><path d="M35.61 59.89c5.11-.58 33-3.45 37.23-3.11M23.25 72.11c1.75.57 3.74.75 5.75.57 10.25-.93 37.5-4.18 53-5.28 2-.14 3.25.1 5.25.5"/><path d="M53.03 60.75c.94.5 1.69 2.22 1.69 3.25 0 10.5-.19 23.75-.19 30 0 9.25-4.41 1.38-5.78 0M43.25 77.25c-1.88 5.66-7.08 14.3-11 17.5M62.75 76.25c1.86 3.95 10.77 13.48 14.42 16.61"/></g><g font-size="8" fill="gray"><text transform="translate(45.5 9.5)">1</text><text transform="translate(15.5 21.5)">2</text><text transform="translate(33.75 30.48)">3</text><text transform="translate(56.25 27.5)">4</text><text transform="translate(8.5 50.5)">5</text><text transform="translate(26.25 43.63)">6</text><text transform="translate(43.5 42.5)">7</text><text transform="translate(64.5 40.5)">8</text><text transform="translate(38.5 56.5)">9</text><text transform="translate(12.5 73.63)">10</text><text transform="translate(43.5 67.63)">11</text><text transform="translate(29.25 83.5)">12</text><text transform="translate(67.5 78.5)">13</text></g></svg>