<svg xmlns="http://www.w3.org/2000/svg" width="109" height="109" class="kan-g"><g fill="none" stroke="#000" stroke-width="3" stroke-linecap="round" stroke-linejoin="round"><path d="M10.03 39.47c.35.24 2.39.41 3.31.31 3.94-.41 15.12-1.71 21.45-2.91.92-.17 2.15-.24 2.73 0"/><path d="M25.61 14.75c.91.47 1.54 2 1.54 4.42 0 .95-.3 71.23-.3 72.08 0 11-4.47 3.12-5.85 1.75"/><path d="M26.69 40.03c-5.1 15.04-7.94 21.4-15.83 34.56M29.22 48.65c2.37 1.59 6.28 6.76 8.28 9.85M46.21 26.49c.77.36 2.17.39 2.94.36 10.16-.43 22.82-2.68 32.75-3.13 1.28-.06 2.05.17 2.69.35M46.96 38.07c.71.37 2 .41 2.71.37 7.37-.42 18.33-3.15 31.9-3.25 1.18-.01 1.89.18 2.48.36M39.21 51.91c1.15.52 3.25.61 4.39.52 11.92-.88 32.18-4.51 47.16-4.47 1.91 0 3.05.25 4.01.51"/><path d="M65.76 12.25c.49 1 .66 1.55.35 3.8-1.83 13.27-8.85 48.45-29.35 61.8M67.8 41.83c4.15 5.7 20.02 23.79 24.6 27.96 1.56 1.42 3.55 2.02 5.1 2.42M52.95 66.02c.34.71.68 1.07.68 2.02s-.11 28.02 0 28.96M54.2 67.14c1.91-.12 21.22-2.88 22.96-3.02 1.45-.12 2.38 1.31 2.27 2.01-.23 1.42-.45 28.32-.45 29.03"/><path d="M54.53 79.98c3.87 0 7.87-.81 11.7-1.27 1.31-.16 2.62-.32 3.87-.47M54.41 94.34c5.27-.51 17.22-1.87 23.77-2.31"/></g><g font-size="8" fill="gray"><text transform="translate(3.25 40.25)">1</text><text transform="translate(16 15.25)">2</text><text transform="translate(16.25 49.25)">3</text><text transform="translate(31 48.25)">4</text><text transform="translate(38.5 25.25)">5</text><text transform="translate(42 35)">6</text><text transform="translate(38.25 48.93)">7</text><text transform="translate(56.25 12.25)">8</text><text transform="translate(72.5 44.25)">9</text><text transform="translate(44 80.7)">10</text><text transform="translate(56.25 63.25)">11</text><text transform="translate(56.5 76.55)">12</text><text transform="translate(56 91.98)">13</text></g></svg>