<svg xmlns="http://www.w3.org/2000/svg" width="109" height="109" viewBox="0 0 109 109" class="kan-g"><g fill="none" stroke="currentColor" stroke-width="3" stroke-linecap="round" stroke-linejoin="round"><path d="M52.49 11c.29.39.34.86.27 1.2-.41 2-3.95 6.79-7.17 9.47M40.75 22.07c.39.72.79 1.08.79 2.04s1.28 22.08 1.44 26.81M41.77 23.77c2.22-.12 19.08-2.59 21.1-2.73 1.68-.12 2.77.8 2.64 1.52-.26 1.44-1.15 20.17-1.36 27.84"/><path d="M42.16 36.12c3.59 0 7.26-.7 10.81-1.13 1.17-.14 2.58-.57 4.03-.24M43.63 49.6c4.43 0 13.61-1.01 19.35-1.01M20.22 20c3.89 1.72 10.05 7.07 11.03 9.75M16.17 53.88c1.55 1.04 3.56.88 4.64 0 1.05-.85 7.42-7.56 11.44-11.88M87.7 17.75c.03.27.07.68-.06 1.06-.75 2.24-5.03 7.17-10.89 10.18M77 40.5c5.12 2.03 13.22 8.34 14.5 11.5M17.28 67.66c.79.19 2.91.5 5.02.57 5.81.19 50.43-4.24 64.95-5.19 2.1-.14 2.64-.19 3.96 0"/><path d="M52.45 55c.9.28 1.43 1.24 1.61 1.79s-.18 37.28-.18 35.71c0 10.75-4.63 3.75-5.63 2.75M42.75 76c-3.17 5.95-11.41 14.38-18 17.75M63.76 73.61c3.99 4.89 11.99 13.64 17.03 17.71"/></g><g font-size="8" fill="gray"><text transform="translate(53.5 8.5)">1</text><text transform="translate(35.25 31.63)">2</text><text transform="translate(40.5 20.5)">3</text><text transform="translate(45.5 33.13)">4</text><text transform="translate(45.68 46.63)">5</text><text transform="translate(12.75 19.63)">6</text><text transform="translate(9.75 59.5)">7</text><text transform="translate(89.5 15.5)">8</text><text transform="translate(70.5 46.5)">9</text><text transform="translate(5.5 70.5)">10</text><text transform="translate(42.75 61.63)">11</text><text transform="translate(32.5 76.5)">12</text><text transform="translate(67.5 73.5)">13</text></g></svg>