<svg xmlns="http://www.w3.org/2000/svg" width="109" height="109" class="kan-g"><g class="kgPaths" fill="none" stroke="#000" stroke-width="3" stroke-linecap="round" stroke-linejoin="round"><path d="M12.28 38.72c.35.24 2.39.41 3.31.31 3.94-.41 17.12-1.71 23.45-2.91.92-.17 1.15-.24 1.73 0"/><path d="M27.36 15c.91.47 2.04 2.5 2.04 4.92 0 .95-.12 70.25-.3 76.08"/><path d="M28.94 39.28c-5.5 16.78-8.56 23.87-17.08 38.56M32.47 48.9c3.03 1.6 6.03 5.35 7.66 8.89M43.68 25.42c.69.32 1.96.36 2.66.32 4.34-.22 11.32-1.16 15.72-1.46 1.15-.08 1.85.15 2.43.32M38.86 41.58c1.06.17 2.97.09 4.01 0 6.56-.52 10.03-1.79 17.59-2.46 1.73-.15 2.79-.05 3.66.02M54.61 42.28c.47.39.75 1.76.85 2.54.09.78 0 45.78-.09 50.67M45.76 52.39c.44 1.39.43 2.1.43 3.27 0 8.58-.86 20.33-7.42 31.32M63.45 49.71c.92.41 1.48 1.83 1.66 2.65.18.82 0 25.38-.18 30.48M69.15 36.52c.6.98 1.2 1.9 1.31 2.56.87 5.46 1.38 17.79 1.89 27.84M70.58 38.28c7.92-1.28 19.91-2.91 25.08-3.44 1.9-.2 2.87 1.38 2.76 2.84-.38 5.36-.92 16.82-2.32 27.77"/><path d="M72.03 51c2.26-.26 22.77-3.07 24.63-3.07M72.71 64.95c6.41-.7 15.46-1.52 23.03-2.03"/><path d="M83.08 14c.76.48 1.22 2.18 1.38 3.15.15.97-.15 65.8-.15 79.85"/></g><g class="kgNumbers" font-size="8" fill="gray"><text transform="translate(6.5 38.5)">1</text><text transform="translate(18.5 14.5)">2</text><text transform="translate(18.5 48.5)">3</text><text transform="translate(33.5 47.5)">4</text><text transform="translate(42.5 23.5)">5</text><text transform="translate(43.5 39.5)">6</text><text transform="translate(49.5 50.5)">7</text><text transform="translate(41.5 51.5)">8</text><text transform="translate(58.75 49.5)">9</text><text transform="translate(61.75 46.5)">10</text><text transform="translate(71.5 34.5)">11</text><text transform="translate(73.5 47.25)">12</text><text transform="translate(74.25 61.75)">13</text><text transform="translate(71 14.5)">14</text></g></svg>