<svg xmlns="http://www.w3.org/2000/svg" width="109" height="109" viewBox="0 0 109 109" class="kan-g"><g fill="none" stroke="currentColor" stroke-width="3" stroke-linecap="round" stroke-linejoin="round"><path d="M11.78 37.22c.35.24 2.39.41 3.31.31 3.94-.41 15.12-1.71 21.45-2.91.92-.17 2.15-.24 2.73 0"/><path d="M26.86 14.5c.91.47 2.04 2.25 2.04 4.42 0 .95-.3 65.25-.3 71.08 0 11.5-5.35 3-6.85 1.5"/><path d="M28.44 38.28c-5.26 16.02-8.19 22.79-16.33 36.81M30.47 46.4c2.37 1.59 6.28 6.76 8.28 9.85M64.33 12.91c2.11.91 5.17 4.09 5.57 8.04M48.29 26.57c0 3.58-2.52 13.43-3.67 15.82M48.81 29.64c6.24-.83 34.53-3.5 39.6-3.55 9.2-.09 2.18 5.48.21 7.25M59.86 35.57c.03.4.15 1.09-.07 1.61-1.71 4.07-5.33 9.73-11.86 15.45M75.42 36.33c5.21 2.69 11.56 7.83 13.35 10.58M68.53 44c.07.7.29 1.89-.14 2.82-3.83 8.25-11.65 18-25.06 27.85M67.16 49.65C71.5 51.5 85.77 66.1 91.72 69.69c1.48.89 3.19 1.48 4.58 1.77M52.54 74.78c.38.34.77 1.14.93 1.57 1.31 3.39 2.45 13.77 3.35 19.86M54.32 76.71c10.34-1.56 18.44-3.36 24.78-4.04 2.16-.23 3.49 1.55 3.16 2.56-1.57 4.85-2.75 11.14-4.2 17.09M57.84 93.97c8.33-.47 13.21-.92 22.77-1.65"/></g><g font-size="8" fill="gray"><text transform="translate(5.85 37.5)">1</text><text transform="translate(17.5 14.5)">2</text><text transform="translate(18.5 47.5)">3</text><text transform="translate(33.5 45.5)">4</text><text transform="translate(57.5 12.5)">5</text><text transform="translate(41.5 27.5)">6</text><text transform="translate(50.5 26.5)">7</text><text transform="translate(51.75 38.6)">8</text><text transform="translate(67.5 36.5)">9</text><text transform="translate(56.75 50.45)">10</text><text transform="translate(74.5 52.5)">11</text><text transform="translate(44.5 83.5)">12</text><text transform="translate(57.5 72.5)">13</text><text transform="translate(59.5 90.5)">14</text></g></svg>