<svg xmlns="http://www.w3.org/2000/svg" width="109" height="109" class="kan-g"><g class="kgPaths" fill="none" stroke="currentColor" stroke-width="3" stroke-linecap="round" stroke-linejoin="round"><path d="M11.78 35.72c.35.24 2.39.41 3.31.31 3.94-.41 17.12-1.21 23.45-2.41.92-.17 2.15-.24 2.73 0"/><path d="M27.86 11.5c.91.47 2.04 2.25 2.04 4.42 0 .95-.12 75.75-.3 81.58"/><path d="M29.44 37.78c-5.9 15.58-9.19 22.17-18.33 35.81M30.97 46.9c3.78 3.35 6.03 6.85 8.28 10.85M65.63 11.25c.61.72 1.54 2.25 1.54 3.17v9.7M46.23 26.22c1.52.36 3.3.42 4.82.36 8.58-.31 22.34-3.37 35.31-3.64 2.54-.05 4.06.17 5.32.36M55.52 30.33c2.17 2.83 3.56 6.24 3.75 8.11M80.33 26.09c.2 1.11.36 2.02.21 2.32-1.51 3-4.09 8.69-5.17 10.52M47.27 40.48c-.1 2.7-2.44 9.77-3.27 11.38M47.11 43.29c7.25-.89 30-4.61 44.12-4.98 8.63-.23 2.22 4.35-1 7.85M66.81 45.62c.68.48 1.81 2.33 1.81 3.29 0 3.51-.21 4.13-.09 7.1M45.55 57.91c1.12.08 3.68.56 4.78.44 8.82-.93 28.28-3.03 40.26-3.68 1.85-.1 2.79.04 4.17.57M65.57 65.5c3.32 1.45 14.28 3.45 17.76 4.12 1.57.3 2.51 1.26 1.92 2.9-2.51 6.98-5.82 16.14-9.95 22.24-3.55 5.24-6.05 1.24-7.69-2.71M64.51 60.2c.32 1 .07 2.07-.12 3.23C63 71.75 55.5 86.5 42.34 94.03"/></g><g class="kgNumbers" font-size="8" fill="gray"><text transform="translate(5.85 35.5)">1</text><text transform="translate(19.5 12.5)">2</text><text transform="translate(19.5 45.5)">3</text><text transform="translate(34.5 47.5)">4</text><text transform="translate(57.5 10.5)">5</text><text transform="translate(44.5 23.5)">6</text><text transform="translate(49.75 34.5)">7</text><text transform="translate(72.5 32.5)">8</text><text transform="translate(41.75 43.5)">9</text><text transform="translate(49.5 40.5)">10</text><text transform="translate(57.5 49.38)">11</text><text transform="translate(48.5 54.5)">12</text><text transform="translate(71.5 65.5)">13</text><text transform="translate(52.75 67.15)">14</text></g></svg>