<svg xmlns="http://www.w3.org/2000/svg" width="109" height="109" class="kan-g"><g fill="none" stroke="currentColor" stroke-width="3" stroke-linecap="round" stroke-linejoin="round"><path d="M10.78 35.22c.35.24 2.39.36 3.31.31 5.17-.28 10.67-.78 18.95-1.41.93-.07 2.15-.24 2.73 0"/><path d="M24.36 13.5c.91.47 2.04 2 2.04 4.42 0 .95-.3 65.75-.3 71.58 0 13.75-5.85 4.5-7.6 2.75"/><path d="M25.94 39.28c-5.1 15.04-7.94 21.4-15.83 34.56M29.47 44.15c2.8 1.76 7.41 7.45 9.78 10.85M63.33 10.5c2.17 2.25 3.99 4.27 5.23 8.34M44.26 23.58c0 2.93-2.96 11.94-3.93 13.89"/><path d="M44.06 25.01c6.73-.83 42.62-2.31 48.08-2.62 8.53-.49 1.81 6.03-.32 7.8M48.86 34.66c.29 1.28-2.92 6.94-5.25 9.07M54.61 32.22C61 41.17 66.06 44.43 78.26 44c5-.18 5.23-2.34 1.73-5.45"/><path d="M65.79 32.05c1.82 3.6 4.46 7.2 6.4 1.69M82.25 30.04c2.67 1.42 6.17 3.21 8.34 7.6M48.28 50.32c.19.24.38.44.46.73.65 2.36.92 7.5 1.36 11.73M49.6 51.79c6.15-.54 35.5-2.12 37.71-2.44.81-.12 1.9.85 1.68 2.25-.45 2.93-1.1 6.04-2.3 10.22"/><path d="M61.83 50.87c.13 1.67.51 9.3.64 11.17M74.26 50.83c-.13 2.71.24 9.3-.01 10.97M39.27 63.02c1.98.16 3.42.12 5.02.08 11.95-.25 35.53-1.39 47.88-1.68 2.29-.05 3.77-.01 5.02.27M44.09 73.35c1.12.29 3.17.36 4.29.29 11.45-.76 26.19-1.56 39.96-1.93 1.86-.05 2.98.14 3.92.28M67.71 75.55c.06.32.93 1.68.93 3.73 0 7.2.22 11.04.22 14.59 0 9.93-5.46.83-6.57-.02"/></g><g font-size="8" fill="gray"><text transform="translate(3.5 35.5)">1</text><text transform="translate(15.5 13.5)">2</text><text transform="translate(17.71 45.5)">3</text><text transform="translate(32.5 44.5)">4</text><text transform="translate(56.5 10.5)">5</text><text transform="translate(37.25 26.5)">6</text><text transform="translate(47.5 21.5)">7</text><text transform="translate(45.5 32.5)">8</text><text transform="translate(52.5 41.5)">9</text><text transform="translate(56.5 31.5)">10</text><text transform="translate(73.5 30.5)">11</text><text transform="translate(40.5 55.5)">12</text><text transform="translate(50.5 48.5)">13</text><text transform="translate(53.25 58.5)">14</text><text transform="translate(65.25 58.5)">15</text><text transform="translate(38.25 60)">16</text><text transform="translate(33.5 75.5)">17</text><text transform="translate(57.5 82.5)">18</text></g></svg>