<svg xmlns="http://www.w3.org/2000/svg" width="109" height="109" class="kan-g"><g fill="none" stroke="#000" stroke-width="3" stroke-linecap="round" stroke-linejoin="round"><path d="M55.88 50c7.12-.75 17.87-2.25 24.85-3 1.73-.19 2.18-.25 3.26 0M53.37 16.5c1.09.5 1.74 2.25 1.96 3.25.22 1 0 61.75-.22 68M31.37 47.75c1.09.5 1.74 2.25 1.96 3.25.22 1 0 31.75-.22 38M14 90.5c.82.25 3.02.84 5.2.75 11.8-.5 51.3-5 66.3-5 2.19 0 6 .5 7.25.75"/></g><g font-size="8" fill="gray"><text transform="translate(62.25 45.13)">1</text><text transform="translate(43.5 15.5)">2</text><text transform="translate(21.5 47.5)">3</text><text transform="translate(5.25 90.13)">4</text></g></svg>