<svg xmlns="http://www.w3.org/2000/svg" width="109" height="109" class="kan-g"><g class="kgPaths" fill="none" stroke="currentColor" stroke-width="3" stroke-linecap="round" stroke-linejoin="round"><path d="M26.75 23.79c3.12.63 6.35.5 9.5.22 11.81-1.03 25.77-2.56 39.75-3.29 2.84-.15 5.56-.03 8.38.31M52.96 25.62c1.4 1.4 2.01 2.88 2.01 5.54 0 11.55-.01 56.3-.01 57.34M56.36 53.48c7.14-.48 15.52-1.36 21.92-1.84 1.59-.12 2.47-.02 3.6.16M27.54 56.37c1.17 1.17 2.05 2.62 2.15 5.21.43 10.8.43 20.3.62 27.92M14.25 90.04C18 91 21.38 91.23 25 91c14-.88 39.23-2.07 58.63-2.39 3.36-.06 6.77.32 10 1.37"/></g><g class="kgNumbers" font-size="8" fill="gray"><text transform="translate(19.5 24.5)">1</text><text transform="translate(47.5 36.13)">2</text><text transform="translate(59.5 50.5)">3</text><text transform="translate(17.5 56.5)">4</text><text transform="translate(7.5 89.5)">5</text></g></svg>