<svg xmlns="http://www.w3.org/2000/svg" width="109" height="109" class="kan-g"><g class="kgPaths" fill="none" stroke="currentColor" stroke-width="3" stroke-linecap="round" stroke-linejoin="round"><path d="M13.75 23.2c1.52.54 4.31.72 5.82.54 12.68-1.49 55.93-4.99 70.11-5.23 2.53-.04 4.05.26 5.31.53M50.4 23.64c.3.7.6 2.85.08 4.19C47 37 37.23 53.89 22.06 64.97M49.6 39.02c.41.05 2.62 0 3.78-.15 3.79-.47 14.37-1.87 20.85-2.69 3.82-.48 4.46 2.35 3.52 5.06C72.55 56.13 46.66 91.33 23.5 99"/><path d="M39.52 55.33c5.31 2.58 13.72 10.62 15.04 14.63"/></g><g class="kgNumbers" font-size="8" fill="gray"><text transform="translate(6.5 22.5)">1</text><text transform="translate(41.5 30.5)">2</text><text transform="translate(55.5 34.63)">3</text><text transform="translate(43.5 55.63)">4</text></g></svg>