<svg xmlns="http://www.w3.org/2000/svg" width="109" height="109" class="kan-g"><g class="kgPaths" fill="none" stroke="#000" stroke-width="3" stroke-linecap="round" stroke-linejoin="round"><path d="M14.75 20.47c1 .28 2.79.61 3.8.52 4.95-.49 19.45-1.24 25.73-1.98 1.64-.19 2.64.25 3.47.5M30.16 23.39c.2.67.29 2.2-.12 3.48-2.79 8.63-8.48 23.76-18.37 34.29M29.64 38c.26.05 2.39 0 3.14-.14 2.47-.45 3.7-.78 7.93-1.55 2.49-.46 2.91 2.23 2.29 4.81-3.39 14.14-17.78 46.09-32.89 53.38"/><path d="M21.46 55.23c2.85 1.92 7.35 7.91 8.06 10.91M85.79 15.89c-.04.86-.65 2.08-1.18 2.45C78 23 69.25 27 52.72 31.26M45.34 53.65c.68.43 3.41.65 4.15.6 10.51-.75 33.26-2.9 44.08-3.07.94-.01 2.27.17 4.36.91"/><path d="M68.17 30.83c.5.89.75 1.92.74 3.84-.24 33.29-12.11 50.85-31.65 61.08"/><path d="M68.1 53.04c4.01 12.36 18.99 31.34 24.98 37.59 2.03 2.12 2.74 2.44 3.67 2.64"/></g><g class="kgNumbers" font-size="8" fill="gray"><text transform="translate(7.5 20.5)">1</text><text transform="translate(20.5 31.5)">2</text><text transform="translate(32.5 34.5)">3</text><text transform="translate(24.54 55.5)">4</text><text transform="translate(76.5 14.5)">5</text><text transform="translate(46.5 51.5)">6</text><text transform="translate(60.5 38.5)">7</text><text transform="translate(76.5 63.1)">8</text></g></svg>