<svg xmlns="http://www.w3.org/2000/svg" width="109" height="109" class="kan-g"><g class="kgPaths" fill="none" stroke="#000" stroke-width="3" stroke-linecap="round" stroke-linejoin="round"><path d="M37.77 13.64c.48.86.96 2.74.92 4-.35 13.02-4.02 28.02-14.8 33.49M39.67 16c3.33.33 20.77-1.66 23-2.33 3.33-1 5.01 2.12 4.67 4.33-.67 4.33-1 11.67-1 16 0 6 1.67 10.33 12.67 10.33 13 0 12.67-.67 12.67-13M33 55.25c2 .4 2.25.99 6.25.4s24.25-3.24 27-3.83c2.75-.59 4.98 2.3 3.75 4.35-12.67 21.17-29 33.17-53 43"/><path d="M35.92 61.37c5.08.87 29.9 24.21 47.59 33.77 2.75 1.49 4.76 2.48 7.33 2.98"/></g><g class="kgNumbers" font-size="8" fill="gray"><text transform="translate(30.5 20.5)">1</text><text transform="translate(41.5 12.5)">2</text><text transform="translate(35.5 52.5)">3</text><text transform="translate(28.5 66.5)">4</text></g></svg>