<svg xmlns="http://www.w3.org/2000/svg" width="109" height="109" class="kan-g"><g class="kgPaths" fill="none" stroke="currentColor" stroke-width="3" stroke-linecap="round" stroke-linejoin="round"><path d="M40.39 13.75c0 1.25-.29 2.22-1.26 3.25-4.26 4.5-14.06 11.06-28.51 15.5M11.12 46.58c2.13.67 4.16.32 5.77.02C24 45.25 30.38 44 37.64 42.97c2.17-.31 4.71-.72 6.86.08M8.5 64.67c2.02.83 4.75.39 6.83.04 8.04-1.34 19.31-3.6 26.67-4.63 2.09-.29 4.09-.33 6.12.17"/><path d="M27.11 29.87c1.14 1.14 1.35 2.25 1.35 4.43 0 8.19-.08 36.18-.08 41.2 0 18.45 1.12 21.03 36.24 21.03 30.64 0 31.51-2.78 31.51-13.03M48.87 29.58c2.63.42 5.37.27 7.75.04 9-.87 22.37-2.1 30.75-2.55 2.42-.13 4.92-.33 7.31.18"/><path d="M69.83 12.33c1.11 1.11 1.35 2.29 1.35 4.25 0 12.53.03 59.55.03 63.81 0 11.61-5.33 3.11-6.62 1.46M53.14 41.42c2.78 1.71 7.19 7.05 7.88 9.71M45.28 72.49c1.35 1.13 2.97.88 4.48-.3 1.15-.91 8.76-7.44 14.46-12.55M90.27 37.75c0 .87-.39 1.87-.94 2.54-2.95 3.58-5.7 6.58-10.29 9.94M79.44 58.36C85 61.75 90.25 67 93.39 74.24M79.62 11.12c3 1.57 7.74 6.47 8.49 8.92"/></g><g class="kgNumbers" font-size="8" fill="gray"><text transform="translate(33.25 14.25)">1</text><text transform="translate(3.25 47.25)">2</text><text transform="translate(1.25 65.25)">3</text><text transform="translate(21.25 37.65)">4</text><text transform="translate(46.25 27.25)">5</text><text transform="translate(59.25 11.25)">6</text><text transform="translate(46 38.93)">7</text><text transform="translate(43.25 69.25)">8</text><text transform="translate(82.25 37.25)">9</text><text transform="translate(80.25 58.25)">10</text><text transform="translate(76.25 8.88)">11</text></g></svg>