<svg xmlns="http://www.w3.org/2000/svg" width="109" height="109" class="kan-g"><g class="kgPaths" fill="none" stroke="currentColor" stroke-width="3" stroke-linecap="round" stroke-linejoin="round"><path d="M66.12 12.62c0 .88-.35 1.83-.96 2.31C58 20.62 46.88 26.25 27 32.75M23.5 30c1.19 1.19 1.5 3 1.5 5.25 0 6-.75 40.88-.75 48.5 0 3.5.25 4.5 3.5 2S39.5 77 41.5 75.5"/><path d="M27.88 51.13c2.5.62 5.64.41 8.01-.01 10.74-1.87 26.47-4.84 37.72-5.69 2.53-.19 5.19-.44 7.67.22"/><path d="M46.5 28.5c1 1.12 2 2.87 2.47 4.47C54.26 50.81 67.02 81.53 86.75 93c8.75 5.09 6.5-4 6.5-7"/></g><g class="kgNumbers" font-size="8" fill="gray"><text transform="translate(57.5 11.5)">1</text><text transform="translate(16.5 41.5)">2</text><text transform="translate(30.5 48.5)">3</text><text transform="translate(53.5 34.63)">4</text></g></svg>