<svg xmlns="http://www.w3.org/2000/svg" width="109" height="109" class="kan-g"><g class="kgPaths" fill="none" stroke="currentColor" stroke-width="3" stroke-linecap="round" stroke-linejoin="round"><path d="M52.02 6.08c1.33 1.33 1.51 2.67 1.51 4.77 0 18.15-.01 78.66-.01 83.62 0 10.53-7.21 1.5-8.71.25M17.25 26.38c5.65 2.58 14.59 10.61 16 14.62M10.5 75.35c1.75 1.15 3.5.85 5.41-.6 1.13-.85 13.44-11.42 18.21-15.51M87.75 23c-.37 1.38-.76 2.34-1.64 3.32-3.86 4.3-10.44 9.61-20.8 15.9M66.38 56.75C77.5 62 92.12 73.38 95.88 80.38"/></g><g class="kgNumbers" font-size="8" fill="gray"><text transform="translate(41.25 8.5)">1</text><text transform="translate(9.38 23.43)">2</text><text transform="translate(2.5 72.48)">3</text><text transform="translate(79 25)">4</text><text transform="translate(64.5 53.33)">5</text></g></svg>