<svg xmlns="http://www.w3.org/2000/svg" width="109" height="109" class="kan-g"><g class="kgPaths" fill="none" stroke="#000" stroke-width="3" stroke-linecap="round" stroke-linejoin="round"><path d="M21.38 16.5c4.45 1.69 11.5 6.96 12.62 9.59M14.88 40.25c4.37 1.37 11.28 5.62 12.38 7.75M15.62 86.61c2.12.77 3.37-.17 4.48-1.75 3.23-4.6 6.46-10.23 9.39-16.1M65.24 18.39c.26.71.01 2.13-.49 3.49C61.5 30.75 53 46.25 39.31 59.47M65.75 28.5c1.62.75 3 .75 4.78.58 4.39-.43 10.84-1.33 19.31-3.58 4.3-1.14 5.75 1.43 4.41 4.53-8.5 19.6-27.13 49.6-61.25 64.22"/><path d="M53.52 48.33c6.23 3.29 13.23 9.42 16.29 14.63"/></g><g class="kgNumbers" font-size="8" fill="gray"><text transform="translate(14.25 17.25)">1</text><text transform="translate(7.25 41.25)">2</text><text transform="translate(8.25 91.25)">3</text><text transform="translate(55.25 18.25)">4</text><text transform="translate(71.25 26.25)">5</text><text transform="translate(58.25 49.25)">6</text></g></svg>