<svg xmlns="http://www.w3.org/2000/svg" width="109" height="109" viewBox="0 0 109 109" class="kan-g"><g fill="none" stroke="currentColor" stroke-width="3" stroke-linecap="round" stroke-linejoin="round"><path d="M22.63 16.25c4.45 1.91 11.5 7.87 12.62 10.84M16 43.25c4.24 1.72 10.94 7.07 12 9.75M16.75 89.79c1.84 1.2 4.05 1.25 5.2-.23 3.37-4.3 9.73-14.57 12.8-20.06M50.77 18.73c.46 1.74.91 2.64.91 4.89 0 2.24-.15 66.86 0 69.13"/><path d="M51.44 21.23c2.58.06 29.62-2.99 31.97-3.01 1.96-.02 3.21 2.03 3.06 3.67-.31 3.32-.6 68.39-.6 70.07"/><path d="M51.89 54.15c5.54-.15 11.07-.57 16.6-.9 1.74-.1 3.49-.2 5.18-.3M51.73 88.58c7.1-.26 25.22-1.83 34.06-1.68"/></g><g font-size="8" fill="gray"><text transform="translate(15.5 16.5)">1</text><text transform="translate(7.25 42.55)">2</text><text transform="translate(8.5 91.5)">3</text><text transform="translate(44.5 27.5)">4</text><text transform="translate(53.5 17.5)">5</text><text transform="translate(56.5 50.5)">6</text><text transform="translate(56.5 85.5)">7</text></g></svg>