<svg xmlns="http://www.w3.org/2000/svg" width="109" height="109" class="kan-g"><g fill="none" stroke="#000" stroke-width="3" stroke-linecap="round" stroke-linejoin="round"><path d="M21.13 17.75c4.45 1.47 11.5 6.05 12.62 8.34M14 42.5c4.77 1.41 12.06 5.55 13.25 7.75M17.25 87.96c1.88.67 3.31-.14 4.25-1.75 2.75-4.7 5-9.7 7.5-15.7M55.02 26.43c.73 1.45.84 2.92.56 4.95-2.46 18-8.59 41.13-20.95 54.78"/><path d="M45.5 23c3.17.84 6.17.51 9.22-.14 6.4-1.36 15.03-3.36 21.03-5.11 4.02-1.17 5.93 1.47 4.5 4.5-2 4.25-6.38 13.62-9.12 19.62-1.21 2.65-.46 3.05 2 2.38 5-1.38 6.88-1.75 10.88-2.5 2.7-.51 3.67.98 3 3.25-5.75 19.5-23.25 40.5-42.25 47.5"/><path d="M53.75 50.75c6.08 5.5 21.7 25.09 31.23 34.15A32.63 32.63 0 0 0 95.5 92"/></g><g font-size="8" fill="gray"><text transform="translate(13.5 17.5)">1</text><text transform="translate(6.5 43.5)">2</text><text transform="translate(9.25 91.5)">3</text><text transform="translate(47.5 33.5)">4</text><text transform="translate(43.5 20.5)">5</text><text transform="translate(58.5 51.5)">6</text></g></svg>