<svg xmlns="http://www.w3.org/2000/svg" width="109" height="109" class="kan-g"><g fill="none" stroke="#000" stroke-width="3" stroke-linecap="round" stroke-linejoin="round"><path d="M20.63 17.25c4.45 1.47 11.5 6.05 12.62 8.34M14 42.5c4.77 1.41 12.31 5.8 13.5 8M16.75 87.21c1.5 1.31 3.31 1.36 4.25-.25 2.75-4.7 5.5-10.45 8-16.45M54.27 25.93c1.23 1.18 1.33 3.67 1.06 5.7-1.97 15.03-8.04 39.05-20.95 54.53"/><path d="M44.75 23c2.5 1 3.67 1.14 6.25.75 5-.75 20.75-4.75 24.75-6S81.69 17.72 81 21c-1 4.75-5 15.5-6.75 21.5M56.25 45.25C64.75 44.25 80 42 84 41.5c2.73-.34 3.67 1.23 3 3.5-5.75 19.5-23.25 40.5-42.25 47.5"/><path d="M53.75 51.25C61 57.81 83.29 84.32 90.59 89.01c2.34 1.5 3.84 2.7 5.91 3.24"/></g><g font-size="8" fill="gray"><text transform="translate(13.5 17.5)">1</text><text transform="translate(6.5 43.5)">2</text><text transform="translate(9.25 91.5)">3</text><text transform="translate(47.5 33.5)">4</text><text transform="translate(43.5 20.5)">5</text><text transform="translate(59.5 42.5)">6</text><text transform="translate(59.5 54.5)">7</text></g></svg>