<svg xmlns="http://www.w3.org/2000/svg" width="109" height="109" viewBox="0 0 109 109" class="kan-g"><g class="kgPaths" fill="none" stroke="currentColor" stroke-width="3" stroke-linecap="round" stroke-linejoin="round"><path d="M18.38 17c4.54 1.34 11.73 5.51 12.87 7.59M13.75 40c3.97 1.32 10.26 5.44 11.25 7.5M11.75 88.97c1.81 1.29 3.98 1.34 5.12-.25 3.31-4.64 6.62-10.31 9.63-16.22M80.57 15.89c-.07.86-.15 1.73-.71 2.26C75.75 22 59.25 30.75 42.51 34.5M36.35 52.51c.77.42 2.73.64 3.58.58 9.8-.69 39.33-4.74 51.61-4.9 1.07-.01 2.57.16 4.95.88"/><path d="M63.66 30.9c.47.88.72 1.89.71 3.79C64.14 67.56 52.75 84.9 34 95M64.67 52.9c6.83 12.35 19.46 30.07 27.1 36.39 2.33 1.92 2.98 2.36 3.98 2.56"/></g><g class="kgNumbers" font-size="8" fill="gray"><text transform="translate(11.5 17.5)">1</text><text transform="translate(7.25 39.55)">2</text><text transform="translate(4.25 89.48)">3</text><text transform="translate(72.5 15.4)">4</text><text transform="translate(36.25 47.33)">5</text><text transform="translate(55.25 38.25)">6</text><text transform="translate(73.25 59.18)">7</text></g></svg>