<svg xmlns="http://www.w3.org/2000/svg" width="109" height="109" class="kan-g"><g class="kgPaths" fill="none" stroke="#000" stroke-width="3" stroke-linecap="round" stroke-linejoin="round"><path d="M19.13 15.5c4.28 1.6 11.05 6.6 12.12 9.09M13.75 39.75C17.9 41.56 24.46 47.19 25.5 50M13.75 87.73c1.71 1.27 3.78 1.32 4.86-.25 3.14-4.57 9.29-16.66 12.14-22.49M46.96 19.59c.59 1.03.98 2.05 1.18 3.06.2 1.01.43 66.58.36 68.81M47.8 21.23c2.27-.1 26.62-1.98 28.31-2.16 3.03-.31 4.31 2.67 4.31 5.48 0 1.46-.18 45.21-.29 65.39"/><path d="M48.38 43.4c8.12-.65 24.95-1.44 31.77-1.75M48.84 65.86c6.06-.36 23.82-1.26 30.83-1.31M30.04 92.13c1.47.3 4.16.35 5.63.3 15.27-.5 43.46-2.5 58.83-2.5 2.45 0 3.91.14 5.14.29"/></g><g class="kgNumbers" font-size="8" fill="gray"><text transform="translate(12.5 16.5)">1</text><text transform="translate(6.25 40.5)">2</text><text transform="translate(5.5 89.5)">3</text><text transform="translate(40.5 27.5)">4</text><text transform="translate(50.5 17.5)">5</text><text transform="translate(53.5 39.5)">6</text><text transform="translate(53.5 62.5)">7</text><text transform="translate(28.5 88.5)">8</text></g></svg>