<svg xmlns="http://www.w3.org/2000/svg" width="109" height="109" class="kan-g"><g class="kgPaths" fill="none" stroke="currentColor" stroke-width="3" stroke-linecap="round" stroke-linejoin="round"><path d="M18.63 13.5c4.45 1.78 11.5 7.32 12.62 10.09M13.25 39.5C17.75 41.53 24.87 47.84 26 51M14.25 87.23c1.71 1.27 3.75 1.31 4.86-.25C23 81.5 27.5 74.75 31.75 68.5M42 26.59c.36 1.07 1.49 2.77 1.56 4.1C44.25 44 44 68 44.52 89.5M43.18 28.59c12.58-1.19 35.63-2.19 45.02-3.34 3.45-.42 5.2 2.99 5.02 6.15-.69 11.57-2.97 39.36-5.18 57.54"/><path d="M65.43 28.43c.57.57.96 2.29.96 4.2-.05 12.55-.28 48.29-.28 52.84"/><path d="M44.44 56.51c4.12-.52 43.79-1.67 47.19-1.67M45.18 86.19c9.1 0 30.65-.92 43.21-1.21"/></g><g class="kgNumbers" font-size="8" fill="gray"><text transform="translate(11.5 13.5)">1</text><text transform="translate(5.5 39.5)">2</text><text transform="translate(6.5 91.5)">3</text><text transform="translate(35.5 35.5)">4</text><text transform="translate(44.5 24.5)">5</text><text transform="translate(58.5 37.5)">6</text><text transform="translate(49.5 53.18)">7</text><text transform="translate(49.5 83.5)">8</text></g></svg>