<svg xmlns="http://www.w3.org/2000/svg" width="109" height="109" class="kan-g"><g fill="none" stroke="#000" stroke-width="3" stroke-linecap="round" stroke-linejoin="round"><path d="M20.88 16.25c4.9 1.56 12.64 6.41 13.87 8.84M16.25 37c4.5 1.41 11.62 5.8 12.75 8M13.25 86.23c1.71 1.27 3.78 1.32 4.86-.25 3.14-4.57 6.29-10.16 9.14-15.99M77.9 23.18c.35 1.07.55 1.81.26 4.26C76.25 43.5 63.5 81.75 36.21 95.72"/><path d="M49.93 37.62c.57 1.13 1.49 2.25 1.69 3.35C57.25 71 63.9 85.51 83.5 91.25c10.25 3 11.25-.25 4.46-9.63M54.11 24.5c2.14 5.75 6.46 9.99 7.58 4.97M45.26 57.07c.33 2.47-3.33 13.36-5.99 17.48M85.31 49.17c3.49 3.06 7.63 9.33 8.94 15.3"/></g><g font-size="8" fill="gray"><text transform="translate(14.5 17.5)">1</text><text transform="translate(8.5 38.5)">2</text><text transform="translate(6.5 90.5)">3</text><text transform="translate(68.5 22.63)">4</text><text transform="translate(42.5 37.5)">5</text><text transform="translate(51.5 21.13)">6</text><text transform="translate(40.5 53.5)">7</text><text transform="translate(82.5 45.13)">8</text></g></svg>