<svg xmlns="http://www.w3.org/2000/svg" width="109" height="109" viewBox="0 0 109 109" class="kan-g"><g class="kgPaths" fill="none" stroke="currentColor" stroke-width="3" stroke-linecap="round" stroke-linejoin="round"><path d="M17.88 17c4.37 1.87 11.27 7.68 12.37 10.59M13.75 41.75C18.43 43.82 25.83 50.28 27 53.5M12.75 88.75c1.9 1.25 4.18 1.3 5.38-.24C21.61 84 30.09 70 33.25 64.25M42.5 17.81c.49 1.43 1.2 2.5 1.21 4.39.09 14.23.09 46.38-.2 73.54M43.76 19.64C56.75 18.75 77.5 17 86.47 17c1.55 0 3.28 1.5 3.28 3.48 0 15.7-.65 51.59-.33 73.77"/><path d="M67 25.97c.12 1.15.44 3.64.24 5.41-1.16 10.43-6 36.57-16.85 47.35M65.65 47.9c2.12 5.28 11.26 22.54 13.6 26.41.79 1.31 1.81 1.88 2.61 2.25M43.63 92.28c8.51 0 33.55-1.09 45.3-1.51"/></g><g class="kgNumbers" font-size="8" fill="gray"><text transform="translate(10.5 17.5)">1</text><text transform="translate(6.25 42.5)">2</text><text transform="translate(6.25 92.5)">3</text><text transform="translate(36.5 25.5)">4</text><text transform="translate(46.5 15.5)">5</text><text transform="translate(57.5 30.5)">6</text><text transform="translate(70.5 52.5)">7</text><text transform="translate(48.5 89.5)">8</text></g></svg>