<svg xmlns="http://www.w3.org/2000/svg" width="109" height="109" class="kan-g"><g class="kgPaths" fill="none" stroke="currentColor" stroke-width="3" stroke-linecap="round" stroke-linejoin="round"><path d="M17.13 15.5c4.45 1.78 11.5 7.32 12.62 10.09M12.75 41.75c4.5 1.9 11.62 7.8 12.75 10.75M15.25 90.73c1.71 1.27 3.97 1.44 4.86-.25C23.5 84 27.39 75.33 30.25 69.5M31.25 42.2c1.68.54 4.75.61 6.43.54 12.9-.49 35.26-3.49 56.45-3.73 2.79-.03 4.19.2 5.87.53"/><path d="M61.87 15.75c1.09.5 1.74 2.25 1.96 3.25.22 1 .5 46.25.28 52.5M80.37 15.25c1.09.5 1.74 2.25 1.96 3.25.22 1 .17 37.5-.72 49.5M64.25 69.5c4 0 17.25-1 19.5-1"/><path d="M45.62 20.25c1.09.5 1.74 2.25 1.96 3.25.22 1-.33 47.25-1.08 61.75-.23 4.36 1.07 4.43 3.75 4.25 11-.75 30.25-3.25 40.75-3.75 3.26-.16 6 1 7.25 1.25"/></g><g class="kgNumbers" font-size="8" fill="gray"><text transform="translate(10.5 16.5)">1</text><text transform="translate(5.5 41.5)">2</text><text transform="translate(7.5 95.5)">3</text><text transform="translate(29.5 39.5)">4</text><text transform="translate(56.5 12.5)">5</text><text transform="translate(75.5 11.5)">6</text><text transform="translate(67 67)">7</text><text transform="translate(39.5 17.5)">8</text></g></svg>