<svg xmlns="http://www.w3.org/2000/svg" width="109" height="109" viewBox="0 0 109 109" class="kan-g"><g class="kgPaths" fill="none" stroke="currentColor" stroke-width="3" stroke-linecap="round" stroke-linejoin="round"><path d="M22.88 15.62c4.45 1.58 11.5 6.5 12.62 8.97M17 39.25c4.68 1.5 12.08 6.17 13.25 8.5M17.25 87.72c1.68.73 2.96.3 3.97-1.05 3.53-4.69 6.81-10.18 10.03-16.17M69.62 16c.25 1-.17 1.88-.52 2.59-2.98 6.03-7.1 13.16-13.91 21.87M46.44 42.16c1.07 1.07 1.37 2.17 1.37 3.88 0 1.46-.09 27.72-.05 41.46.01 2.3.01 4.28.01 5.75M48.47 44.43c4.52-.61 27.92-2.99 35.22-3.72 3.14-.31 4.94.3 4.93 3.91 0 3.96.18 24.68.11 40.38-.01 2.57-.02 5-.02 7.21"/><path d="M48.92 66.15c11.2-1.27 32.33-2.9 39.5-3.26M48.94 90.47c10.68-.97 28.24-2.33 38.54-2.64"/></g><g class="kgNumbers" font-size="8" fill="gray"><text transform="translate(17.25 16.63)">1</text><text transform="translate(9.75 40.5)">2</text><text transform="translate(9.75 92.98)">3</text><text transform="translate(60.5 15.5)">4</text><text transform="translate(40.5 51.13)">5</text><text transform="translate(49.5 39.5)">6</text><text transform="translate(52.5 62.5)">7</text><text transform="translate(52.46 87.5)">8</text></g></svg>