<svg xmlns="http://www.w3.org/2000/svg" width="109" height="109" class="kan-g"><g class="kgPaths" fill="none" stroke="currentColor" stroke-width="3" stroke-linecap="round" stroke-linejoin="round"><path d="M21.88 21.25c3.75 1.25 9.68 5.15 10.62 7.09M15 43.5c3.97 1.46 8.84 5.06 11.25 8.25M14.25 88.5c1.45.68 2.98.48 3.85-.83 3.1-4.66 6.21-10.35 9.03-16.3M48.77 27.75c.09 1.01.12 2.17-.19 3.15-2.2 6.85-5.08 13.98-9.58 20.35M49.63 38.29c1.37.21 2.5.21 4.14.03 6.47-.72 15.86-2.57 23.32-3.94 1.13-.21 3.84.13 4.41.27"/><path d="M61.81 15.38c1.15 1.15 1.51 2.62 1.51 4 0 .91-.07 28.74-.07 35.12M37.38 57.01c2.61.94 6.03.64 8.74.37C57.25 56.25 73.25 54.5 84 53.64c2.66-.21 5.26-.16 7.88.4M54.18 59.93c.07.86.21 2.25-.14 3.47C51 74.25 43.38 87.88 31.14 97.15M67.49 58.12c1.07 1.07 1.43 2.63 1.43 4.15 0 5.26-.04 13.88-.04 19.98 0 11 1 12.03 12.88 12.03 11.5 0 12.14-1.53 12.14-9.33"/></g><g class="kgNumbers" font-size="8" fill="gray"><text transform="translate(14.25 21.5)">1</text><text transform="translate(7.5 43.5)">2</text><text transform="translate(6.5 92.5)">3</text><text transform="translate(39.75 27.5)">4</text><text transform="translate(53.5 34.63)">5</text><text transform="translate(51.5 14.5)">6</text><text transform="translate(45.5 53.5)">7</text><text transform="translate(45.5 68.5)">8</text><text transform="translate(61.5 69.5)">9</text></g></svg>