<svg xmlns="http://www.w3.org/2000/svg" width="109" height="109" class="kan-g"><g class="kgPaths" fill="none" stroke="#000" stroke-width="3" stroke-linecap="round" stroke-linejoin="round"><path d="M17.13 17c4.63 1.6 11.96 6.6 13.12 9.09M12.75 43.25C17.07 44.79 23.92 49.6 25 52M13.5 86.5c1.93 1.25 4.25 1.3 5.46-.24 3.54-4.5 8.57-13.01 11.79-18.76M49.99 18.86c.03.61.12 1.76-.06 2.45-2.3 8.6-5.7 16.49-11.7 23.43M48.99 33c.81.27 2.88.3 3.69.27 8.4-.31 19.73-3.2 29.94-4.1 1.34-.12 2.15.13 2.82.27M36.89 54.5c.86.24 3.17.42 5.47.23 9.13-.73 30.21-3.12 46.03-4.34 2.29-.18 4.33.24 5.77.49"/><path d="M62.48 9.75c1.14.49 1.82 2.2 2.05 3.17s0 80.97-.23 87.08"/><path d="M64.25 53.04C58.9 64.06 45.07 80.77 33.95 87M64.85 54.31c4.16 6.21 21.72 23.94 27.91 29.13 1.55 1.3 2.79 1.96 4.29 2.35"/></g><g class="kgNumbers" font-size="8" fill="gray"><text transform="translate(11.5 18.5)">1</text><text transform="translate(6.25 43.5)">2</text><text transform="translate(6.5 89.5)">3</text><text transform="translate(40.5 17.5)">4</text><text transform="translate(52.5 30.5)">5</text><text transform="translate(40.5 51.5)">6</text><text transform="translate(54.5 9.18)">7</text><text transform="translate(50.5 64.5)">8</text><text transform="translate(75.5 62.03)">9</text></g></svg>