<svg xmlns="http://www.w3.org/2000/svg" width="109" height="109" viewBox="0 0 109 109" class="kan-g"><g class="kgPaths" fill="none" stroke="currentColor" stroke-width="3" stroke-linecap="round" stroke-linejoin="round"><path d="M20.13 20.12c3.84 1.54 9.91 6.32 10.87 8.72M14.12 43c4.46 1.37 11.51 5.62 12.62 7.75M14.7 89.85c1.25.62 2.55.39 3.3-.9 2.75-4.7 5.5-10.45 8-16.45M39.49 40.86c3.64.64 6.12.22 9.14-.2 11.31-1.58 24.21-3.28 34.61-3.85 2.92-.16 5.38-.13 8.26.55"/><path d="M51.42 20.68c.95.95 1.21 2.19 1.24 3.6.14 6.91 1.01 29.59 1.46 37.45M77.36 17.2c.77 1.17.92 2.55.74 4.1C76.12 37.88 75 45 73.22 60.31M37.25 63.37c3.12.75 5.9.71 8.51.41C57.75 62.38 74 61 87.88 60.88c2.64-.02 5.06.08 7.62.68M53.44 73.59c.11.97-.46 2.03-.98 2.88-2.7 4.4-10.72 11.42-19.61 16.82M73.6 72.94c6.9 3.72 17.82 15.29 19.55 21.08"/></g><g class="kgNumbers" font-size="8" fill="gray"><text transform="translate(12.75 18.13)">1</text><text transform="translate(6.75 40.63)">2</text><text transform="translate(6.75 96.13)">3</text><text transform="translate(37.5 37.63)">4</text><text transform="translate(41.5 20.5)">5</text><text transform="translate(66.75 17.5)">6</text><text transform="translate(35.5 60.13)">7</text><text transform="translate(43.5 74.5)">8</text><text transform="translate(65.25 75.5)">9</text></g></svg>