<svg xmlns="http://www.w3.org/2000/svg" width="109" height="109" viewBox="0 0 109 109" class="kan-g"><g fill="none" stroke="currentColor" stroke-width="3" stroke-linecap="round" stroke-linejoin="round"><path d="M18.63 20.75c4.63 1.38 11.96 5.69 13.12 7.84M14.5 43.5c5.12 1.41 13.22 5.8 14.5 8M16.75 90.21c1.5 1.31 3.31 1.36 4.25-.25 2.75-4.7 5.5-10.45 8-16.45M40.23 31.61c.31.49.82 1.32 1 1.94 1.42 5.04 2.98 16.77 3.86 26.17M42.21 33.28c11.01-1.27 31.76-5.03 40-5.49 1.92-.11 2.96 1.48 2.75 3.9-.43 5.1-1.25 14.87-3.77 23.37"/><path d="M43.65 44.8c6.68-.92 16.4-2.55 23.1-3.28 2.28-.25 4.55-.5 6.7-.73M45.16 56.8c12.59-1.55 25.51-3.75 36.45-4.64"/><path d="M56.01 11c1.6 1.81 1.87 2.32 2.2 6.22C61.5 55.5 71.25 80.25 90.33 94.44c5.95 4.42 5.4.78 4.6-7.26"/><path d="M83.24 62.12c.12.67.24 1.73-.23 2.7-2.79 5.69-18.77 18.8-40.66 26.44"/></g><g font-size="8" fill="gray"><text transform="translate(11.5 21.5)">1</text><text transform="translate(7.25 44.5)">2</text><text transform="translate(7.5 92.5)">3</text><text transform="translate(33.5 38.5)">4</text><text transform="translate(43.5 29.5)">5</text><text transform="translate(46.5 41.5)">6</text><text transform="translate(48.5 53.5)">7</text><text transform="translate(45.5 10.5)">8</text><text transform="translate(75.5 62.5)">9</text></g></svg>