<svg xmlns="http://www.w3.org/2000/svg" width="109" height="109" class="kan-g"><g class="kgPaths" fill="none" stroke="#000" stroke-width="3" stroke-linecap="round" stroke-linejoin="round"><path d="M21.88 18.5c3.75 1.43 9.69 5.87 10.62 8.09M15.38 45.62c4.37 1.34 11.28 5.53 12.38 7.62M16 88.02c3.12.36 4.3-.37 5.45-2.3 3.37-5.64 5.73-10.52 8.8-17.71M78.25 15.25c-.25 1.38-.85 2.48-2.43 3.36-6.57 3.64-15.33 7.53-33.29 11.38M36.63 48.9c1.91.39 5.51.31 7.4.14 12.84-1.16 30.34-3.29 44.4-3.78 3.18-.11 5.1.18 6.69.38"/><path d="M63.54 27.31c.62.43 2.07 1.69 2.07 4.09 0 1.34.2 24.94.11 34.61M46.53 66.86c1.2 1.02 1.32 1.28 1.61 2.91.95 5.39 1.69 14.7 2.37 22.46.12 1.38.23 2.73.31 4.03M48.75 68.3c12.12-.92 29.02-2.18 35.67-2.75 2.64-.22 3.83 1.2 3.27 3.34-1.25 4.75-3.75 14.54-4.98 21.36M51.81 93.3c7.69-.3 16.69-1.05 27.2-1.78 1.9-.13 3.73-.15 5.46-.18"/></g><g class="kgNumbers" font-size="8" fill="gray"><text transform="translate(12.75 19.63)">1</text><text transform="translate(6.75 46.63)">2</text><text transform="translate(8.25 96.13)">3</text><text transform="translate(81.75 12.13)">4</text><text transform="translate(33.75 45.13)">5</text><text transform="translate(56.25 37.63)">6</text><text transform="translate(39.75 76.63)">7</text><text transform="translate(48.75 64.63)">8</text><text transform="translate(54.75 90.13)">9</text></g></svg>