<svg xmlns="http://www.w3.org/2000/svg" width="109" height="109" class="kan-g"><g fill="none" stroke="currentColor" stroke-width="3" stroke-linecap="round" stroke-linejoin="round"><path d="M22.88 16.25c3.31 1.47 9.54 5.55 10.37 7.84M18.25 39c3.79 1.15 9.8 6.72 10.75 8.5M16.25 89.71c1.5 1.31 3.31 1.36 4.25-.25C23.25 84.75 27.5 76 30 70M65.99 11.5c.12.38 1.67 1.95 1.67 4.34 0 8.16.09 21.01.09 24.91M43.56 22.58c3.11 1.96 7.04 6.69 7.82 9.74M90.21 15.6c.03.4.06 1.04-.06 1.62-.75 3.41-4.4 8.78-8.51 12.55M51.86 41.94c.62.93 1.04 1.85 1.24 2.78.21.93.29 48.02.21 50.1M54.34 42.87c2.49-.23 24.89-3.68 26.74-3.94 3.32-.46 4.15 2.94 4.15 4.4 0 9.99-.62 28.4-.62 47.17 0 11.25-5.59 2.58-7.46.96"/><path d="M54.34 56.19c5.06-.83 9.2-1.24 14.31-1.65 1.37-.11 2.72-.21 4.05-.31M53.72 70.36c4.81-.5 9.62-1 14.43-1.48 1.41-.14 2.82-.27 4.21-.4"/></g><g font-size="8" fill="gray"><text transform="translate(15.75 15.13)">1</text><text transform="translate(9.75 39.13)">2</text><text transform="translate(9.75 96.74)">3</text><text transform="translate(56.5 13.5)">4</text><text transform="translate(40.5 19.63)">5</text><text transform="translate(80.5 16.5)">6</text><text transform="translate(45.75 50.5)">7</text><text transform="translate(55.5 39.5)">8</text><text transform="translate(57.75 52.63)">9</text><text transform="translate(56.5 66.5)">10</text></g></svg>