<svg xmlns="http://www.w3.org/2000/svg" width="109" height="109" class="kan-g"><g class="kgPaths" fill="none" stroke="currentColor" stroke-width="3" stroke-linecap="round" stroke-linejoin="round"><path d="M17.13 16.75c4.1 1.47 10.59 6.05 11.62 8.34M11.5 41.5c4.24 1.68 10.94 6.89 12 9.5M10.75 88.23c1.71 1.27 3.78 1.32 4.86-.25 3.14-4.57 9.29-15.66 12.14-21.49M34.25 36.72c.28.24 1.96.41 2.72.31 3.24-.41 15.18-1.21 20.39-2.41.75-.17 1.77-.24 2.24 0"/><path d="M47.52 12.5c.75.47 2.09 2.25 2.09 4.42 0 5.83-.1 73.25-.25 79.08"/><path d="M49.23 38.28c-4.6 14.78-8.41 23.08-17.62 35.06M51.81 46.15c2.25 1.51 5.94 6.42 7.83 9.35M90.79 14.5c.06.3.23.89-.11 1.21-4.72 4.42-10.74 7.77-20.68 11.58M65.98 26.44c1.09 1.85 1.07 3.62 1.07 5.64 0 18.76 1.2 36.93-9.42 55.4M70.28 44.69c.36.2 2.16-.33 3.15-.39 5.57-.3 15.07-1.8 22.2-2.59.97-.11 2.64-.19 3.24 0M85.44 45.82c.78.62 1.25 2.78 1.4 4.02.15 1.24 0 40.69-.16 48.41"/></g><g class="kgNumbers" font-size="8" fill="gray"><text transform="translate(10.5 17.13)">1</text><text transform="translate(4.25 42.5)">2</text><text transform="translate(3.5 92.48)">3</text><text transform="translate(33.5 33.5)">4</text><text transform="translate(39.5 12.95)">5</text><text transform="translate(39.5 47.5)">6</text><text transform="translate(54.5 45.3)">7</text><text transform="translate(81.25 13.5)">8</text><text transform="translate(57.25 27.5)">9</text><text transform="translate(70.5 41.5)">10</text><text transform="translate(76.5 53.5)">11</text></g></svg>