<svg xmlns="http://www.w3.org/2000/svg" width="109" height="109" class="kan-g"><g fill="none" stroke="#000" stroke-width="3" stroke-linecap="round" stroke-linejoin="round"><path d="M19.63 16c3.84 1.56 9.91 6.41 10.87 8.84M13.25 39c4.24 1.54 10.94 6.35 12 8.75M14.25 89.19c1.68 1.33 4.21.38 5.27-1.26 3.09-4.77 5.67-9.6 8.48-15.69M61.33 8.25c3.17 2 6.46 5.34 7.69 8.56M39.13 23.83c1.16.08 3.82.57 4.95.45 9.15-.94 34.56-3.42 47.6-4.07 1.92-.1 2.9.04 4.33.57M46.73 32.99c.41.28.84.52 1.02.87 1.43 2.8 3.14 9.57 4.12 14.61M49.31 33.95c10.11-1.18 28.71-3.17 33.92-3.57 1.91-.14 3.05 1.46 2.78 2.31-1.13 3.53-1.43 5.61-3.85 10.7M52.29 46.61c6.13-.45 25.01-1.83 32.78-2.29M46.86 56.18c1.14.32 3.33 1.01 4.8.83 1.8-.21 26.22-3.49 27.93-3.49 1.71 0 2.37.77.9 2.24-3.49 3.49-7.77 7.19-14.08 11.75M62.93 67.37c6.07 2.88 10.32 17.13 5.75 28.3-2.56 6.25-5.18 1.33-6.4 0"/><path d="M37.14 76.3c1.1.56 3.45.76 5.43.62 6.92-.49 40.54-4.76 49.89-4.91 1.98-.03 3.73.19 5.05.75"/></g><g font-size="8" fill="gray"><text transform="translate(12.25 16.25)">1</text><text transform="translate(5.25 40.25)">2</text><text transform="translate(8 94.25)">3</text><text transform="translate(54.25 9.25)">4</text><text transform="translate(36.25 20.25)">5</text><text transform="translate(41.5 40.25)">6</text><text transform="translate(52.25 31.25)">7</text><text transform="translate(55.25 44.25)">8</text><text transform="translate(39 56.25)">9</text><text transform="translate(54.25 70.25)">10</text><text transform="translate(34.25 73.25)">11</text></g></svg>