<svg xmlns="http://www.w3.org/2000/svg" width="109" height="109" class="kan-g"><g class="kgPaths" fill="none" stroke="#000" stroke-width="3" stroke-linecap="round" stroke-linejoin="round"><path d="M15.88 15.75c3.31 1.47 7.54 5.05 8.37 7.34M12 39.75c3.79 1.15 8.8 4.97 9.75 6.75M12 90.46c2.38.17 3.31-.89 4.25-2.5 2.75-4.7 5.5-10.45 8-16.45M37.88 19.75c-.09 3.53-2.33 13.28-3.12 15.38M38.49 21.54c18.39-2.29 27.89-3.53 45.67-4.67 11.59-.74 3.21 6.01-.54 9.67M50.51 26.5c.07.55.07 1.41-.13 2.21C48.57 35.77 46.24 41.16 38.5 48"/><path d="M66.75 23.25c.94.94 1.49 2.29 1.49 3.92 0 2.18.01 6.28.01 7.83 0 4.88 1 5.75 7.75 5.75 4.75 0 8.25 0 10.26-1.37M40.26 58.54c2.49.46 4.46.52 6.62.26 7.62-.93 20.99-2.29 29.36-3.13 2.05-.21 4.5-.42 6.6-.17"/><path d="M60.38 41.17c1.04 1.04 1.35 2.46 1.35 3.95 0 5.92.07 32.58.09 45.39 0 2.63.01 4.67.01 5.83M59.38 58.34c0 1.41-.26 2.24-.7 3.01-5.54 9.72-16.89 21.93-26.31 27.15M62.47 59.19C67 63.5 80.28 74.5 87.44 80.21c2.3 1.83 4.31 3.29 7.95 4.4"/></g><g class="kgNumbers" font-size="8" fill="gray"><text transform="translate(8.25 15.13)">1</text><text transform="translate(5.25 41.5)">2</text><text transform="translate(5.25 95.5)">3</text><text transform="translate(29.25 27.13)">4</text><text transform="translate(40.5 18.5)">5</text><text transform="translate(42.75 30.5)">6</text><text transform="translate(59.25 30.5)">7</text><text transform="translate(41.25 55.63)">8</text><text transform="translate(53.25 48.13)">9</text><text transform="translate(42.75 69.5)">10</text><text transform="translate(72.75 66.19)">11</text></g></svg>