<svg xmlns="http://www.w3.org/2000/svg" width="109" height="109" class="kan-g"><g fill="none" stroke="currentColor" stroke-width="3" stroke-linecap="round" stroke-linejoin="round"><path d="M21.88 15.75c3.31 1.47 8.54 6.05 9.37 8.34M13.25 40.5c3.79 1.15 9.8 5.22 10.75 7M13.75 90.71c1.5 1.31 3.31 1.36 4.25-.25C20.75 85.75 23.5 80 26 74M67.65 32.25c5.05-.53 12.67-1.6 17.62-2.13 1.23-.13 1.54-.18 2.31 0M65.37 13.5c.77.35 1.24 1.6 1.39 2.3.15.71 0 27.29-.15 31.72M47.77 31.66c.77.35 1.39 1.58 1.39 2.3 0 4.29-.15 8.79-.15 14.94"/><path d="M37.46 49.68c.63.24 2.33.82 4.02.73 9.11-.49 39.63-4.88 51.22-4.88 1.69 0 4.63.49 5.6.73M43.56 58.77c4.94 2.11 12.75 8.68 13.98 11.96M42.1 92.43c1.29 1.11 2.37 1.59 3.65.63.76-.56 10.38-9.05 13.61-11.75M84.31 57.03c.04.37.25 1.04-.08 1.47-2.23 3-4.98 7-12.89 13.12M72.96 80c4.96 1.76 15.81 11.23 17.33 15.68"/></g><g font-size="8" fill="gray"><text transform="translate(13.5 15.5)">1</text><text transform="translate(3.75 40.63)">2</text><text transform="translate(6.75 96.13)">3</text><text transform="translate(71.5 28.5)">4</text><text transform="translate(55.5 11.5)">5</text><text transform="translate(40.5 29.5)">6</text><text transform="translate(35.5 46.05)">7</text><text transform="translate(36.75 61.48)">8</text><text transform="translate(35.5 97.5)">9</text><text transform="translate(73.5 58.5)">10</text><text transform="translate(74.5 79.55)">11</text></g></svg>