<svg xmlns="http://www.w3.org/2000/svg" width="109" height="109" viewBox="0 0 109 109" class="kan-g"><g fill="none" stroke="currentColor" stroke-width="3" stroke-linecap="round" stroke-linejoin="round"><path d="M20.75 19c4.25 1.5 9.17 4.8 10 7.09M14.75 45.5c3.79 1.15 9.8 4.72 10.75 6.5M12.75 87.21c1.5 1.31 3.31 1.36 4.25-.25 2.75-4.7 5.5-10.45 8-16.45M41.91 30.98c.85.28 2.41.41 3.25.28 3.71-.58 27.18-4.4 35.31-4.4 1.41 0 2.26.13 2.97.27"/><path d="M49.87 16.99c.91.37 1.61 1.65 1.63 2.41.14 5.37 1.18 18.42 1.6 24.53M70.04 14.5c.91.37 1.75 1.66 1.63 2.41-1.35 8.26-.98 15.61-2.44 25.73M31.63 47.49c1.26.4 3.58.51 4.84.4 8.41-.75 38.58-5 51.86-5.36 2.11-.06 3.37.19 4.42.39M52.55 47.28c.05.48.11 1.25-.11 1.94-1.32 4.1-10 16.17-19.27 22.75"/><path d="M68.03 44.75c3.57 2.82 19.1 20.86 24.09 22.94 1.46.61 2.44 1.34 3.75 1.61M49.94 62.39c1.07.75 1.99.75 3.57.5 3.2-.51 17.38-2.52 18.36-2.62 1.29-.13 2.31.82 1.85 2.76-.14.58-1.01 4.55-1.91 10.1M49.71 77.2c2.37-.27 18.26-2.44 22.77-3.52"/><path d="M48.36 75.1c.57.91 1.06 1.99 1.06 3.4v8.49c0 6.76 1.33 8.31 15.97 8.31 7.37 0 12.44-.67 15.21-1.99"/></g><g font-size="8" fill="gray"><text transform="translate(12.75 18.13)">1</text><text transform="translate(5.5 46.63)">2</text><text transform="translate(5.25 91.63)">3</text><text transform="translate(35.5 31.5)">4</text><text transform="translate(41.5 15.5)">5</text><text transform="translate(61.5 14.5)">6</text><text transform="translate(32.5 44.5)">7</text><text transform="translate(41.5 55.5)">8</text><text transform="translate(81.5 54.13)">9</text><text transform="translate(53.5 59.5)">10</text><text transform="translate(52.5 73.5)">11</text><text transform="translate(39.5 81.13)">12</text></g></svg>