<svg xmlns="http://www.w3.org/2000/svg" width="109" height="109" class="kan-g"><g class="kgPaths" fill="none" stroke="currentColor" stroke-width="3" stroke-linecap="round" stroke-linejoin="round"><path d="M21.38 18.75c3.48 1.48 8.99 6.08 9.87 8.38M16.25 40.5C19.87 41.78 25 45.25 27 48.25M13.62 86.2c2.58.69 4.14.37 5.17-1.29 2.99-4.83 5.99-10.74 8.71-16.91M43.89 21.51c.98.99 1.47 2.29 1.62 3.87.45 4.72 1.9 18.1 2.6 24.36.21 1.82.35 3.04.38 3.26M46.24 23.31c8.26-.93 30.22-3.22 32.31-3.31 2.7-.12 4.32 1.63 4.17 3.76-.11 1.45-3.1 16.63-4.6 23.88-.22 1.05-.38 1.75-.6 2.56"/><path d="M47.72 36.04c6.16-.54 26.41-2.17 32.02-2.54M49.38 50c7.35-.51 18.4-1.52 27.54-1.95M40.14 64.11c1.25 1.25 1.78 2.42 2.15 4.36.97 5.1 1.21 10.03 2.37 19.2M42.26 65.3C54 63.79 81.9 61.18 85.2 61.18c2.3 0 3.42 1.59 2.9 4.05-.38 1.8-3.12 14.25-4.42 20.18"/><path d="M55.88 65.24c.37.51.99 1.13 1.06 2.31.45 7.46.74 11.7 1.28 19.33M70.95 63.9c.67.85.63 2.12.51 3.1-.96 7.5-1.79 12.94-2.43 19.4M30.63 89.08c2.51.58 7.09.5 9.63.37 15.36-.82 34.11-2.32 49.95-3.05 4.19-.19 6.93-.02 9.17.53"/></g><g class="kgNumbers" font-size="8" fill="gray"><text transform="translate(13.5 18.5)">1</text><text transform="translate(6.75 40.5)">2</text><text transform="translate(6.75 91.5)">3</text><text transform="translate(38.5 30.5)">4</text><text transform="translate(47.5 20.5)">5</text><text transform="translate(51.75 32.5)">6</text><text transform="translate(51.75 46.84)">7</text><text transform="translate(35.5 73.63)">8</text><text transform="translate(42.5 62.5)">9</text><text transform="translate(46.5 73.63)">10</text><text transform="translate(61.5 71.5)">11</text><text transform="translate(30.75 86.5)">12</text></g></svg>