<svg xmlns="http://www.w3.org/2000/svg" width="109" height="109" class="kan-g"><g class="kgPaths" fill="none" stroke="currentColor" stroke-width="3" stroke-linecap="round" stroke-linejoin="round"><path d="M14.38 15.25c4.37 1.91 11.27 7.87 12.37 10.84M11 39c4.24 2.12 10.94 8.71 12 12M11.25 87.23c1.71 1.27 3.78 1.32 4.86-.25 3.14-4.57 7.14-13.49 10.14-22.49M34.54 18.88c.61 1.15 1.5 2.03 1.5 3.52v67.08M36.22 21.4c1.84-.02 15.25-1.98 16.93-2.04 1.39-.06 2.37 1.26 2.37 2.64 0 5.1-.65 55.15-.65 66.79"/><path d="M36.19 40.58c5.07-.39 14.75-1.29 18.87-1.1M36.34 60.18c4.86-.18 12.03-.86 18.43-.92M36.12 86.75c4.99-.21 12.37-1.19 18.68-1.17M77.25 14.25c.06.33 1.33 1.71 1.39 3.78.29 9.98-.19 37.99-.19 41.39 0 8.68-5.23.52-6.32-.34M69.82 29.69c.03.57.11 1.49-.06 2.28-1.27 5.67-5.82 15.96-10.19 21.19M86.46 28.73c4.55 3.68 10.66 13.14 11.79 18.87M92.36 47.72c.11 1.17.35 3.11-.22 4.71C87 67 73.5 88.75 54.1 97.5"/></g><g class="kgNumbers" font-size="8" fill="gray"><text transform="translate(6.5 15.5)">1</text><text transform="translate(2.5 39.05)">2</text><text transform="translate(4.75 89.5)">3</text><text transform="translate(28.5 32.5)">4</text><text transform="translate(39.25 17.5)">5</text><text transform="translate(40.5 37.5)">6</text><text transform="translate(40.5 56.68)">7</text><text transform="translate(40.5 83.5)">8</text><text transform="translate(67.5 13.5)">9</text><text transform="translate(58.5 27.5)">10</text><text transform="translate(83.5 25.13)">11</text><text transform="translate(81 48.5)">12</text></g></svg>