<svg xmlns="http://www.w3.org/2000/svg" width="109" height="109" class="kan-g"><g fill="none" stroke="currentColor" stroke-width="3" stroke-linecap="round" stroke-linejoin="round"><path d="M15.63 17c4.28 1.87 11.05 7.68 12.12 10.59M11.5 44c4.59 1.59 11.85 6.53 13 9M13.25 88.23c1.71 1.27 3.78 1.32 4.86-.25 3.14-4.57 6.29-10.16 9.14-15.99M57.58 15.25c.06.29.13.76-.13 1.18-1.56 2.49-10.51 7.95-22.75 11.29M32.26 43.65c.48.12 1.76.32 3.04.36 3.52.12 12.78-.99 21.59-1.59 1.28-.09 1.6-.12 2.4 0"/><path d="M46.84 27.6c.28.45 1.2 2.02 1.25 2.91.05.9-.06 58.88-.06 59.49 0 12-5.41 1.88-6.28 1"/><path d="M47.85 44.8c-3.48 11.45-9.3 25.58-17.19 34.94M50.1 52.36c3.31 2.48 6.11 7.43 7.89 10.61M60.99 35.76c2.21 3.61 5.43 13.85 6.03 17.46M90.81 31.21c.59.82.3 2.44-.23 3.72-.54 1.28-5.48 10.77-8.17 13.76"/><path d="M74.73 14.3c.78.79 1.16 2.93 1.18 4.25.83 44.95-3.36 63.47-19.55 76.74M75.61 54.87c5.43 16.38 13.02 30.31 17.66 36.68 1.35 1.86 1.57 1.76 2.61 2.26"/></g><g font-size="8" fill="gray"><text transform="translate(8.5 17.5)">1</text><text transform="translate(4.5 44.5)">2</text><text transform="translate(6.5 92.5)">3</text><text transform="translate(48.5 14.5)">4</text><text transform="translate(30.25 40.33)">5</text><text transform="translate(40.5 34.5)">6</text><text transform="translate(38.25 55.43)">7</text><text transform="translate(54.5 51.6)">8</text><text transform="translate(58.5 31.5)">9</text><text transform="translate(84.5 26.2)">10</text><text transform="translate(68.5 10.5)">11</text><text transform="translate(80.5 62.5)">12</text></g></svg>