<svg xmlns="http://www.w3.org/2000/svg" width="109" height="109" class="kan-g"><g fill="none" stroke="#000" stroke-width="3" stroke-linecap="round" stroke-linejoin="round"><path d="M16.38 14.25c4.45 1.78 11.5 7.32 12.62 10.09M13.75 39c4.24 1.63 10.94 6.71 12 9.25M11 89.98c1.71 1.27 3.78 1.32 4.86-.25C19 85.17 22.14 79.58 25 73.75M58.16 9.91c3.77 2.23 6.55 4.67 8.06 8.41M38.04 25.07c0 3.19-2.52 11.95-3.67 14.07M39.56 27.08c6.75-.91 42.75-4.94 48.23-4.99 9.95-.09 1.81 6.56-.32 8.5M53.1 35.07c.04.3.18.82-.08 1.21-1.96 3.06-6.11 7.3-13.59 11.6M69.92 34.33c5.31 2.5 11.78 7.27 13.6 9.83M60.77 46.25c.08.66.33 1.78-.16 2.65-4.32 7.78-13.15 16.98-28.28 26.26M60.91 48.9c7.73 7.08 22.12 17.2 29.2 20.96 1.76.93 3.79 1.54 5.45 1.85M44.79 73.99c.38.33.77 1.12.93 1.53 1.31 3.32 2.45 13.47 3.35 19.43M46.57 75.88c10.34-1.53 23.44-2.8 29.78-3.46 2.16-.23 3.49 1.52 3.16 2.51-1.57 4.74-2.75 9.92-4.2 15.74M50.09 92.77c8.33-.46 17.71-1.39 27.27-2.1"/></g><g font-size="8" fill="gray"><text transform="translate(11 16.38)">1</text><text transform="translate(7.25 40.3)">2</text><text transform="translate(3.5 95.73)">3</text><text transform="translate(51.75 10.25)">4</text><text transform="translate(28.25 33.25)">5</text><text transform="translate(41.25 23.25)">6</text><text transform="translate(45.25 36.25)">7</text><text transform="translate(64.25 34.38)">8</text><text transform="translate(52.25 50.25)">9</text><text transform="translate(68.25 52.25)">10</text><text transform="translate(37.25 81.25)">11</text><text transform="translate(49.25 71.25)">12</text><text transform="translate(52.25 89.25)">13</text></g></svg>