<svg xmlns="http://www.w3.org/2000/svg" width="109" height="109" class="kan-g"><g class="kgPaths" fill="none" stroke="currentColor" stroke-width="3" stroke-linecap="round" stroke-linejoin="round"><path d="M20.38 17.75c3.57 1.38 9.22 5.94 10.12 8.09M15 44.75c3.79 1.28 9.8 5.26 10.75 7.25M15.16 91.18c1.24.51 2.49.23 3.23-1.03 2.87-4.9 5.75-10.9 8.36-17.15M62.43 12.25c1.16 1.16 1.38 2.12 1.38 3.75v7.77M39.95 26.66c2.52.62 5.25.4 7.81.14 9.38-.95 24.11-2.68 34.87-3.59 2.82-.24 5.61-.19 8.41.23M49.91 30.9c4.13 4.02 6.01 8.13 6.39 10.78M76.37 27.19c.26.69.32 1.44.18 1.79-1.3 3.27-4.17 8.4-5.94 11.18M41.95 43.93c1 1 1.17 2.19 1.17 3.71 0 1.22-.2 29.22-.11 41.6.02 3.07.03 5.19.03 5.69M44.16 45.88c5.99-.63 32.61-3.04 39.73-3.59 3.51-.27 5.54.24 5.54 3.96v45.31c0 9.75-6.33 2.45-8.35.25"/><path d="M50.01 57.47c1.65.49 3.21.29 4.88.1 5.01-.57 14.43-1.97 20.49-2.42 1.58-.12 3.53-.43 5.12-.14"/><path d="M63.25 47.22c1.14 1.14 1.45 2.28 1.45 4.27 0 6.72-.08 10.7-.08 14.63M53.36 67.5c.57.57.89 1.37 1.23 2.3.63 1.75 1.45 5.95 2.23 10.14.23 1.24.44 2.42.59 3.45M55.32 67.94c5.75-.73 13.92-1.71 18.18-1.96 2.53-.15 3.74.09 3.24 2.77-.53 2.84-1.32 6.2-2.01 9.24M58.31 81.04c3.55-.16 9.46-1.16 14.67-1.67a74.6 74.6 0 0 1 3.42-.27"/></g><g class="kgNumbers" font-size="8" fill="gray"><text transform="translate(12.75 18.13)">1</text><text transform="translate(7.5 45.05)">2</text><text transform="translate(7.5 93.5)">3</text><text transform="translate(53.25 12.13)">4</text><text transform="translate(40.5 24.5)">5</text><text transform="translate(44.5 35.98)">6</text><text transform="translate(68.5 33.5)">7</text><text transform="translate(35.25 52.63)">8</text><text transform="translate(42.5 42.5)">9</text><text transform="translate(46.5 54.5)">10</text><text transform="translate(55.5 52.48)">11</text><text transform="translate(46.5 74.5)">12</text><text transform="translate(51.5 65.5)">13</text><text transform="translate(58.5 77.5)">14</text></g></svg>