<svg xmlns="http://www.w3.org/2000/svg" width="109" height="109" viewBox="0 0 109 109" class="kan-g"><g class="kgPaths" fill="none" stroke="currentColor" stroke-width="3" stroke-linecap="round" stroke-linejoin="round"><path d="M18.63 17.25c4.19 1.56 10.82 6.16 11.87 8.59M14.25 44.25c3.97 1.37 10.26 5.62 11.25 7.75M15.75 91.46c1.75.04 2.81-.64 3.75-2.25 2.75-4.7 7-14.2 9.5-20.2M38.08 24.02c3.22.65 6.39.28 9.67-.08 14-1.56 27.5-2.81 38.75-3.24 2.91-.11 5.8.07 8.67.53M40.74 34.89c.81.81 1.22 2.11 1.35 2.88.91 5.48 3.86 20.19 3.97 20.98M42.32 35.74c15.8-1.99 26.8-3.12 44.55-4.55 3.64-.29 5.1 2.01 4.46 4.44-1.83 6.99-4.73 19.18-5.39 20.31"/><path d="M54.3 12.65c.96.96 1.36 1.97 1.5 3.45 1.71 18.53 2.54 31.22 3.01 38.18M73.81 11.5c.81 1.12.85 2.37.75 4.19-.81 14.68-1.44 21.56-2.67 37.9"/><path d="M44.4 45.79c15.48-1.67 26.35-2.29 44.19-3.23M46.66 56.54c9.21-.79 24.46-2.16 38.8-3M49.75 65.19c.72.72.86 2.1.86 3.07 0 2.72-.02 13.3-.03 21.12 0 3.33-.01 6.16-.01 7.67M51.33 65.83c2.14-.07 20.64-1.97 26.55-2.49 2.46-.22 4.38.71 4.38 3.4 0 4.26 0 15.1-.01 22.26v6.75"/><path d="M51.25 79.92c9.87-.67 20.75-2.17 30.05-2.62M51.6 94.55c8.27-.8 21.11-1.81 29.43-2.13"/></g><g class="kgNumbers" font-size="8" fill="gray"><text transform="translate(12.5 17.5)">1</text><text transform="translate(6.5 44.5)">2</text><text transform="translate(6.5 91.73)">3</text><text transform="translate(37.5 21.5)">4</text><text transform="translate(33.5 41.5)">5</text><text transform="translate(43.5 32)">6</text><text transform="translate(46.5 13.5)">7</text><text transform="translate(64.75 11.5)">8</text><text transform="translate(47.5 43.5)">9</text><text transform="translate(48.5 53.7)">10</text><text transform="translate(40.5 72.5)">11</text><text transform="translate(52.5 63.5)">12</text><text transform="translate(55.5 76.5)">13</text><text transform="translate(55.5 91.5)">14</text></g></svg>