<svg xmlns="http://www.w3.org/2000/svg" width="109" height="109" viewBox="0 0 109 109" class="kan-g"><g fill="none" stroke="currentColor" stroke-width="3" stroke-linecap="round" stroke-linejoin="round"><path d="M18.38 17.25c4.19 1.56 10.82 6.41 11.87 8.84M14.25 44.25c3.97 1.37 10.26 5.62 11.25 7.75M14.75 90.21c1.75.04 3.81.36 4.75-1.25C22.25 84.25 26.5 75 29 69M37.58 24.02c1.09.46 3.09.56 4.2.46 11.16-.98 38.06-4.59 49.55-3.95 1.82.1 2.92.22 3.83.45M40.74 34.39c.34.59 1 1.85 1.1 2.63.32 2.57 4.11 20.94 4.22 21.73M42.82 35.49c3.18-.37 42.92-4.83 45.72-4.7 1.48.07 3.38 1.85 3.28 3.84-.26 5.04-5.23 20.18-5.89 21.31"/><path d="M44.15 45.54c10.16-.84 20.35-1.49 30.53-2.16 1.17-.08 3.81-.15 4.9-.22M47.41 56.29c5.38-.38 31.35-2.42 38.05-2.75"/><path d="M54.8 13.15c.69.38 1.2 1.68 1.25 2.45 1.08 16.99 2.54 32.47 3.01 39.43M73.06 10.25c.69.38 1.29 1.68 1.25 2.44-1.33 22.76-1.47 25.6-2.42 41.4M49.75 65.44c.43.73.86 1.1.86 2.07s-.29 29.06-.29 29.54M51.33 65.58c2.42-.08 26.44-2.51 28.65-2.62 1.84-.09 3.03 1.38 2.88 2.1-.29 1.44-1.12 29.85-1.12 30.58"/><path d="M51.25 80.17c5 .08 10.15-.82 15.11-1.31 1.69-.17 3.38-.33 5-.49M51.6 94.3c6.68-.42 21.36-1.56 29.68-1.88"/></g><g font-size="8" fill="gray"><text transform="translate(12.5 17.5)">1</text><text transform="translate(6.5 44.5)">2</text><text transform="translate(6.5 91.73)">3</text><text transform="translate(37.5 21.5)">4</text><text transform="translate(33.5 41.5)">5</text><text transform="translate(43.5 32)">6</text><text transform="translate(47.5 43.5)">7</text><text transform="translate(48.5 53.7)">8</text><text transform="translate(46.5 13.5)">9</text><text transform="translate(61.75 11.5)">10</text><text transform="translate(40.5 72.5)">11</text><text transform="translate(52.5 63.5)">12</text><text transform="translate(55.5 76.5)">13</text><text transform="translate(55.5 91.5)">14</text></g></svg>