<svg xmlns="http://www.w3.org/2000/svg" width="109" height="109" class="kan-g"><g fill="none" stroke="#000" stroke-width="3" stroke-linecap="round" stroke-linejoin="round"><path d="M18.13 14.5c4.45 1.78 11.5 7.32 12.62 10.09M13 39.5c4.41 1.5 11.4 6.17 12.5 8.5M13.25 91.73c1.71 1.27 3.78 1.32 4.86-.25 3.14-4.57 7.79-12.66 10.64-18.49M42.99 15.65c.29.37.3.62.46 1.08 1.32 3.8 2.56 13.89 3.37 20.98M44.35 16.66c10.2-.96 29.2-3.58 36.81-4.38 2.8-.3 4.33.97 4.09 3.29-.4 3.84-2.83 13.26-4.11 19.66"/><path d="M46.26 25.98c6.27-.7 12.57-1.16 18.85-1.72 2.14-.19 4.28-.37 6.3-.55M47.35 35.67c7.35-.41 23.66-1.61 33.8-2.27M38.62 44.52c.27.29.56.53.68.89.95 2.85 1.97 10.71 2.62 15.84M39.95 45.94c6.05-1.12 46.09-4.08 49.31-4.46 1.17-.14 2.77.97 2.45 2.57-.66 3.35-2.27 9.09-4.02 13.87"/><path d="M56.38 44.35c.18 1.9.72 11.17.9 13.31M73.36 43.16c-.18 3.09-.74 9.63-1.1 13.07M42.79 59.2c3.77-.42 40.16-3.06 45.34-3.71M46.9 68.55c1.48.29 1.66.71 4.62.29 2.96-.43 24.5-4.7 26.54-5.13 2.03-.43 3.48 1.68 1.97 3.61C67.82 82.91 53.82 93.12 35.77 99"/><path d="M46.35 75.91c4.55.51 26.76 14.18 42.58 19.79 2.46.87 4.26 1.45 6.55 1.74"/></g><g font-size="8" fill="gray"><text transform="translate(11.5 15.5)">1</text><text transform="translate(6.5 40.55)">2</text><text transform="translate(6.5 96.5)">3</text><text transform="translate(36.5 22.5)">4</text><text transform="translate(45.75 13.5)">5</text><text transform="translate(49.5 23.5)">6</text><text transform="translate(50.25 33.5)">7</text><text transform="translate(32.25 53.5)">8</text><text transform="translate(40.5 43.5)">9</text><text transform="translate(59.25 52.55)">10</text><text transform="translate(74.5 51.5)">11</text><text transform="translate(44.25 57.13)">12</text><text transform="translate(45.5 66.5)">13</text><text transform="translate(37.5 80.5)">14</text></g></svg>