<svg xmlns="http://www.w3.org/2000/svg" width="109" height="109" viewBox="0 0 109 109" class="kan-g"><g fill="none" stroke="currentColor" stroke-width="3" stroke-linecap="round" stroke-linejoin="round"><path d="M20.13 16.25c3.57 1.56 9.22 6.41 10.12 8.84M15.25 41.75c4.32 1.63 11.17 6.71 12.25 9.25M14.25 88.73c1.71 1.27 3.78 1.32 4.86-.25 3.14-4.57 6.29-10.16 9.14-15.99M40.64 14.16c1.44.45 4.08.55 5.52.45C54.25 14 78 11.75 86.45 11.58c2.39-.05 3.84-.29 5.04-.07M40.5 24.74c.5.84 1.13 1.53 1.24 2.6C42 30 44 38 44.25 42.25"/><path d="M41.63 26.72c10.3-1.36 42.82-3.96 48.13-4.42 1.94-.17 2.83 1.66 2.83 2.68 0 2.76-2.09 9.76-3.27 14.33"/><path d="M56.36 17.01c.68.52 1.13 2.32 1.22 3.38.76 9.15.39 8.68.84 18.6M73.75 14.83c.54.41.76 1.88.75 3.77-.02 7.53-.75 12.4-1.62 19.28M44.26 40.42C48 40.25 85 37 89.89 37.02M47.85 46.9c.45 1.07.68 1.6 1.2 2.85.75 1.78 2.01 18.31 2.73 19.92M48.53 48c2.57-.17 33.42-3.44 35.75-3.02.92.17 1.8 1.49 1.45 3.19-.66 3.19-2.4 14.6-3.6 20.32"/><path d="M50.59 57.57c5.4 0 10.93-.95 16.29-1.5 1.83-.19 3.65-.37 5.4-.55M51.74 67.7c5.14 0 27.31-2.13 30.52-2.13M38.19 79.47c1.51.44 4.28.56 5.77.44 13.03-1.06 37.51-3.33 49.77-3.29 2.51.01 4.02.21 5.27.43"/><path d="M65.92 69.28c.33.37 1.04 2.75 1.1 3.48.07.73-.04 23.66-.11 28.24"/></g><g font-size="8" fill="gray"><text transform="translate(12.5 16.5)">1</text><text transform="translate(7.5 42.5)">2</text><text transform="translate(8 94.98)">3</text><text transform="translate(39.5 11.5)">4</text><text transform="translate(35.25 33.58)">5</text><text transform="translate(43.25 24.5)">6</text><text transform="translate(49.25 22.18)">7</text><text transform="translate(67.25 21.6)">8</text><text transform="translate(48 37.03)">9</text><text transform="translate(38 55.45)">10</text><text transform="translate(51.25 46.38)">11</text><text transform="translate(52.75 55.05)">12</text><text transform="translate(53.75 65.48)">13</text><text transform="translate(35.25 76.65)">14</text><text transform="translate(55.75 75.33)">15</text></g></svg>