<svg xmlns="http://www.w3.org/2000/svg" width="109" height="109" class="kan-g"><g class="kgPaths" fill="none" stroke="currentColor" stroke-width="3" stroke-linecap="round" stroke-linejoin="round"><path d="M16.13 15.5c4.01 1.47 10.36 6.05 11.37 8.34M11.88 40c4.37 1.5 11.28 6.17 12.38 8.5M12.5 88.96c1.88.79 3.06.11 4-1.5 2.75-4.7 5.25-10.2 7.75-16.2M40.03 13.01c2.85.86 5.02.84 7.85.66 8.23-.51 21.15-1.59 30.37-2.02 2.05-.09 4.25-.15 6.41.26M35.33 24.29c-.23 5.17-2.23 10.89-3.71 16.11M36.36 26.21C54.25 25 73.62 24 89.78 23.75c9.22-.14 4.47 5-.48 8.73"/><path d="M60.8 16.26c1.1 1.1 1.22 2.24 1.22 3.71 0 .37.04 11.01.07 17.9.01 3.1.02 5.49.02 5.94M42.62 30.5c3.45 1.12 8.15 4.48 10.03 6.35M41.67 42.93c2.71.98 6.9 4.58 8.37 6.22M72.04 28.82c3.72 1.72 7.58 4.3 9.43 6.58M73.19 41.28c4.19 1.97 8.19 4.85 10.54 7.99M62.63 49.12c-.01 1.25-.6 2.72-1.32 3.55C56.38 58.38 46.12 68 30.5 74.62M63.73 54.04c5.52 3.59 15.56 10.67 23.09 14.93C89.75 70.62 92 71.62 96 72.9M58.6 63.37c3.21 1.08 8.28 4.42 9.08 6.09M42.63 77.43c2.62.82 5.08.7 7.25.46 7.38-.81 26.62-3.08 28.78-3.34 2.56-.31 3.45 1.48 1.61 3.13-4.3 3.86-8.52 6.58-14.64 11.83M54.98 86.2C61 90 67.12 94.38 70.55 99.75"/></g><g class="kgNumbers" font-size="8" fill="gray"><text transform="translate(9.25 15.13)">1</text><text transform="translate(4.25 39.25)">2</text><text transform="translate(4.25 92.25)">3</text><text transform="translate(39.25 10.25)">4</text><text transform="translate(29.25 29.25)">5</text><text transform="translate(37.25 23.25)">6</text><text transform="translate(55.25 21.25)">7</text><text transform="translate(37.25 35.25)">8</text><text transform="translate(34.25 46.25)">9</text><text transform="translate(64.25 34.25)">10</text><text transform="translate(65.25 45.25)">11</text><text transform="translate(52.25 50.25)">12</text><text transform="translate(67.25 55.25)">13</text><text transform="translate(60 62.25)">14</text><text transform="translate(42.25 75.25)">15</text><text transform="translate(44.25 89.25)">16</text></g></svg>