<svg xmlns="http://www.w3.org/2000/svg" width="109" height="109" class="kan-g"><g class="kgPaths" fill="none" stroke="#000" stroke-width="3" stroke-linecap="round" stroke-linejoin="round"><path d="M11.99 38c2.78 3.88 6.83 14.87 7.59 18.75M43.08 28.25c.71.84.54 2.45-.11 3.75-.64 1.3-6.77 10.97-9.99 14M27.87 15.75c.71.76 1.41 1.77 1.41 3.03.2 52-2.28 62.72-15.03 75.47M31 68c4.65 2.91 10.53 12.13 11.75 16.25M58.73 14c.06.89.27 2.33-.11 3.57-2.46 8.02-9.04 22.58-19.57 34.18M56.36 31.29c.99.25 2.79.29 3.78.25 13-.53 22.09-3.31 31.66-3.86 1.81-.1 3 .03 4.41.29M63.16 32.96c.85.48 1.36 2.17 1.53 3.13.17.96 0 54.14-.17 60.16M65.07 49.34c6.87-.65 14.16-.83 21.93-1.48 1.83-.15 2.51-.21 4.47.12M64.99 66.04c5.34-.39 14.57-1.26 26.8-2.09 1.1-.07 3.9.08 4.45.15"/></g><g class="kgNumbers" font-size="8" fill="gray"><text transform="translate(5.5 37.5)">1</text><text transform="translate(35.66 27.5)">2</text><text transform="translate(18.5 16.5)">3</text><text transform="translate(33.5 66.5)">4</text><text transform="translate(49.5 12.5)">5</text><text transform="translate(62.5 27.5)">6</text><text transform="translate(56.25 41.5)">7</text><text transform="translate(69.5 46.5)">8</text><text transform="translate(69.5 62.5)">9</text></g></svg>