<svg xmlns="http://www.w3.org/2000/svg" width="109" height="109" viewBox="0 0 109 109" class="kan-g"><g class="kgPaths" fill="none" stroke="currentColor" stroke-width="3" stroke-linecap="round" stroke-linejoin="round"><path d="M11.99 32c2.78 3.47 6.83 13.28 7.59 16.75M42.54 26.75c.75.83.58 2.42-.09 3.7-.67 1.28-7.1 10.81-10.48 13.8M26.87 13.25c.71.78 1.41 1.83 1.41 3.14.2 53.81-1.03 63.61-15.03 78.11M29.5 71.25c4.65 3.04 10.53 12.69 11.75 17M46.15 19.92c1.46.68 4.11.79 5.6.68 8.77-.68 24.57-3 38.46-2.98 2.43 0 3.89.32 5.11.66M47.01 38.11c.99 1.14 1.28 2.34 1.32 4.14.23 11-.21 41.33-.02 52.57M48.37 39.51c5.9-.61 40.75-3.85 41.88-3.96 2.64-.26 4 1.19 4.07 4.11.21 8.92.2 38.84.2 47.98 0 8.86-4.02 5.36-8.08 1.03"/><path d="M68.07 23.19c.47.65 1.04 1.66 1.03 3.45C69 46 66.75 60.25 53.13 71.19M69.25 40.75C71.75 48.75 80 62 85.42 67.1c1.13 1.07 2.18 1.79 3.08 2.15"/></g><g class="kgNumbers" font-size="8" fill="gray"><text transform="translate(5.5 31.5)">1</text><text transform="translate(34.5 26.5)">2</text><text transform="translate(17.5 13.5)">3</text><text transform="translate(32.54 71.5)">4</text><text transform="translate(43.5 16.5)">5</text><text transform="translate(40.5 46.5)">6</text><text transform="translate(50.25 35.5)">7</text><text transform="translate(60.25 29.1)">8</text><text transform="translate(75.5 47.5)">9</text></g></svg>