<svg xmlns="http://www.w3.org/2000/svg" width="109" height="109" class="kan-g"><g fill="none" stroke="#000" stroke-width="3" stroke-linecap="round" stroke-linejoin="round"><path d="M37.39 13.86c.24 1.45-.07 3.34-.85 4.58-5.01 7.89-11.36 15.3-22.85 24.91M29.39 31.85c.1.64.6 1.79.65 2.7.48 8.48-.47 24.49-.47 32.76M39.56 31.27c.61.21 3.23.78 4.84.63 11.69-1.12 28.85-3.24 42.83-3.67 1.63-.05 3.01-.21 4.03 0"/><path d="M61.94 13.5c.84.33 1.35 1.51 1.52 2.17.17.67-.17 47.66-.17 46.83 0 9.5-3.91 3.62-5.29 2.25"/><path d="M62.36 30.18c-4.42 9.39-13.77 22.14-22.96 27.45M63.63 30.01C68.75 37.5 79 48.25 88.22 55.95c1.69 1.41 2.82 2.01 4.34 2.42M24.69 77.5c0 6.7-7.34 16.59-9.25 18.5M41.46 76.58c2.7 3.7 5.26 13.88 5.94 19.63M61.82 76.33c2.98 3.29 7.69 13.52 8.43 18.63M82.46 75.83C87.24 79.47 94.8 90.8 96 96.47"/></g><g font-size="8" fill="gray"><text transform="translate(30.5 13.5)">1</text><text transform="translate(22.44 45.5)">2</text><text transform="translate(39.5 28.5)">3</text><text transform="translate(52.5 12.5)">4</text><text transform="translate(48.5 41.5)">5</text><text transform="translate(74.5 39.5)">6</text><text transform="translate(19.5 76.5)">7</text><text transform="translate(34.5 77.6)">8</text><text transform="translate(54.44 77.5)">9</text><text transform="translate(71.5 77.5)">10</text></g></svg>