<svg xmlns="http://www.w3.org/2000/svg" width="109" height="109" viewBox="0 0 109 109" class="kan-g"><g fill="none" stroke="currentColor" stroke-width="3" stroke-linecap="round" stroke-linejoin="round"><path d="M22.71 14.97c1.13.46 3.19.52 4.32.46 11.31-.68 37.22-2.5 53.06-2.76 1.88-.03 3.01.22 3.95.45M55.73 25.88c.44.12 1.24.13 1.68.12 4.22-.01 11.86-1.4 20.26-1.44.73 0 1.17.06 1.54.12M53.38 16.3c.07.24.92 1.26.98 2.79.31 7.37-.2 16.99-.2 19.5M32.51 22.46c.07.2.97 1.03 1.04 2.28.33 6.02.68 13.77.68 15.81"/><path d="M14.21 40.84c1.57.36 4.95.9 6.45.8 13.34-.89 49.09-4.39 69.11-4.92 2.52-.07 4.71.54 6.02 1.08M35.73 53.09c.9.2 2.54.2 3.44.2 8.63-.01 24.83-2.04 42.4-3.24 1.49-.1 2.39.09 3.14.19"/><path d="M36.25 41.5c.46.38 1.08 2.48.95 3.12C35.75 52 34.5 60 32.97 64.2c-.62 1.69.13 4.27 2.51 3.58 5.27-1.53 41.3-2.9 49.17-3.77 5.12-.57 7.73 2.65 6.82 6.53-1.97 8.46-5.22 16.21-8.22 22.71-4.69 10.16-7.75 2.75-9.95-.55M23.08 79c-.83 5.75-2.83 12-6.8 15.25M36 77.75c2.55 2.65 4.98 9.93 5.62 14.05"/><path d="M53 76c2.39 2.22 6.16 9.12 6.76 12.58M68.25 72.75c2.74 2.14 7.07 8.78 7.75 12.1"/></g><g font-size="8" fill="gray"><text transform="translate(15.5 14.5)">1</text><text transform="translate(58.5 22.48)">2</text><text transform="translate(46.5 23.55)">3</text><text transform="translate(23.5 25.5)">4</text><text transform="translate(6.5 40.33)">5</text><text transform="translate(43.25 49.43)">6</text><text transform="translate(28.5 50.5)">7</text><text transform="translate(16.25 79.1)">8</text><text transform="translate(28.25 78.5)">9</text><text transform="translate(42.25 75.95)">10</text><text transform="translate(59.5 75.88)">11</text></g></svg>