<svg xmlns="http://www.w3.org/2000/svg" width="109" height="109" viewBox="0 0 109 109" class="kan-g"><g fill="none" stroke="currentColor" stroke-width="3" stroke-linecap="round" stroke-linejoin="round"><path d="M14.74 38c1.59 3.47 3.91 13.28 4.34 16.75M42.1 30.75c.7.7.51 2.12-.12 3.2s-6.6 9.03-9.75 11.55M27.75 16.25c.76.75 1.52 1.75 1.53 3C29.5 70.75 25.5 81 13 94M29.75 65c4.75 2.64 10.75 11.01 12 14.75M64.5 12c.06.87.13 2.25-.12 3.5C62.92 22.88 54.51 39.08 43 49M64 24.38c.59 0 1.57.42 2.79.29 4.67-.5 13.85-3.32 16.14-3.94 1.81-.49 3.31.51 2.31 2.76-2.59 5.84-8.5 15-14.75 22.25M48.66 54.69c.65.26 1.04 1.18 1.17 1.7.13.52-.3 35.09-.43 38.36M65.86 54.03c.38.92.75 1.38.75 2.6 0 1.32 1.2 31.1 1.2 37.22M66.64 55.88c2.13-.15 20.7-2.96 22.64-3.14 1.62-.15 2.35 1.09 2.23 2-.25 1.84-1 36.47-1 37.39"/><path d="M67.72 73.13c4.04-.36 8.05-1.02 12.06-1.58 1.17-.16 2.32-.32 3.42-.47M68.64 90.76c5.97-.28 15.17-1.48 21.95-1.53"/></g><g font-size="8" fill="gray"><text transform="translate(7.5 36.5)">1</text><text transform="translate(38.5 27.5)">2</text><text transform="translate(18.5 16.5)">3</text><text transform="translate(32.5 64.5)">4</text><text transform="translate(56.5 11.5)">5</text><text transform="translate(69.5 20.5)">6</text><text transform="translate(41.5 57.5)">7</text><text transform="translate(58.5 61.5)">8</text><text transform="translate(71.5 52.5)">9</text><text transform="translate(70.5 69.5)">10</text><text transform="translate(71.5 87.5)">11</text></g></svg>