<svg xmlns="http://www.w3.org/2000/svg" width="109" height="109" class="kan-g"><g fill="none" stroke="currentColor" stroke-width="3" stroke-linecap="round" stroke-linejoin="round"><path d="M35.82 13.81c3.33 1.96 8.36 8.06 9.19 11.1M71.41 13c0 .75-.38 1.67-.62 2.06-2.05 3.44-3.8 5.56-6.3 8.56M17.24 29.39c3.67.66 7.31.45 11.02.1 16.99-1.61 32.38-3.16 52.61-4.26 4.14-.23 8.2-.24 12.22.66M25 38.46c.77.77 1 2.23 1 3.66 0 5.88-.06 19.91-.1 28.51-.01 3.2-.02 5.65-.02 6.62M26.86 39.49c1.54-.11 13.06-1.65 17.89-2.26 3.97-.51 4.68.5 4.68 4.28 0 6.12-.05 20.66-.05 29.49 0 9.17-5.93 2.43-6.55 1.77"/><path d="M26.61 50.63c6.37-.79 16.03-1.73 21.62-2.12M26.58 61.55c4.97-.4 16.1-2.08 21.84-2.35M64.26 37.97c.88.88 1.23 2.28 1.23 3.73 0 4.18-.1 15.8-.1 23.1M82.56 33.66c1.02 1.02 1.15 1.97 1.15 3.27 0 3.95.02 28.99.02 32.83 0 6.25-5.36.84-6.73-.13M21.5 84c-.88 5.62-4.88 11.25-7.5 14M40.77 82.08c3.15 2.76 5.9 10.59 6.69 14.88M62.37 81.33c3.15 2.76 7.65 9.84 8.43 14.13M83.52 81.08c3.9 2.71 10.32 11.41 11.29 15.63"/></g><g font-size="8" fill="gray"><text transform="translate(29.5 14.5)">1</text><text transform="translate(61.5 11.55)">2</text><text transform="translate(10.5 29.5)">3</text><text transform="translate(18.5 46.4)">4</text><text transform="translate(28.5 37.33)">5</text><text transform="translate(30.5 47.5)">6</text><text transform="translate(30.5 59.5)">7</text><text transform="translate(55.75 40.5)">8</text><text transform="translate(73.5 36.5)">9</text><text transform="translate(12.5 84.5)">10</text><text transform="translate(32.5 85.88)">11</text><text transform="translate(52.5 85.5)">12</text><text transform="translate(72.5 84.5)">13</text></g></svg>