<svg xmlns="http://www.w3.org/2000/svg" width="109" height="109" viewBox="0 0 109 109" class="kan-g"><g class="kgPaths" fill="none" stroke="currentColor" stroke-width="3" stroke-linecap="round" stroke-linejoin="round"><path d="M20.25 15.18c3.36 2.23 6.72 8.22 7 11.81M50.31 13.37c.48.55.26 2.55-.18 3.39-.43.85-4.46 6.21-6.64 8.19M36.6 9.75c1.15.84 1.19 2.99 1.15 3.53-.75 11.47-5.5 24.97-14.5 29.47M37.72 29.39c4.78 1.88 10.82 7.85 12.08 10.52M57.75 15.93c2.89 2.7 5.21 7.04 5.5 10.06M86.35 13.87c.42.55.22 2.57-.16 3.43s-4.55 5.66-6.44 7.66M71.34 9.25c.91.69.95 2.05.91 2.49-1 13.51-4.5 24.35-13 28.26M73.47 28.89c3.89 1.71 8.81 7.11 9.83 9.52M17.66 46.19c-.16 3.46-3.85 12.5-5.16 14.56M17.72 49c8.03-.75 51.75-4.25 69.47-4.25 12.06 0 4.31 4.75-.19 8.5M21.75 60.8c1.75.2 2.9.4 4.76.27 11.99-.82 44.96-3.52 48.49-3.52 4 0 4.62.98 4 4.75-2 12.2-.19 24.88 9.5 32.75 4.25 3.45 6.75 3.2 6-5"/><path d="M21.96 77.92c1.34.44 2.87.58 4.42.44 7.87-.71 29.72-2.71 41.63-3.55 1.53-.11 2.5.08 4.03.38"/><path d="M46.66 64.75c.96.38 1.73 1.71 1.73 2.5 0 8.07 0 28.95-.19 33.75"/></g><g class="kgNumbers" font-size="8" fill="gray"><text transform="translate(14.5 15.5)">1</text><text transform="translate(44.5 9.5)">2</text><text transform="translate(28.5 10.5)">3</text><text transform="translate(44.5 31.5)">4</text><text transform="translate(57.5 13.5)">5</text><text transform="translate(80.5 9.5)">6</text><text transform="translate(64.5 8.5)">7</text><text transform="translate(81.5 32.5)">8</text><text transform="translate(10.5 49.5)">9</text><text transform="translate(30.5 44.5)">10</text><text transform="translate(20.5 57.5)">11</text><text transform="translate(18.5 75.5)">12</text><text transform="translate(36.5 69.5)">13</text></g></svg>