<svg xmlns="http://www.w3.org/2000/svg" width="109" height="109" class="kan-g"><g class="kgPaths" fill="none" stroke="currentColor" stroke-width="3" stroke-linecap="round" stroke-linejoin="round"><path d="M12.49 36.25c2.23 3.21 5.48 12.29 6.09 15.5M40.53 29.25c.76.77 1.11 1.78.42 2.97-.69 1.19-7.77 10.5-11.22 13.28M26.25 15.25c.76.75 1.02 2.25 1.03 3.5C27.5 70.25 24.25 79.5 12 94M28.25 70.5C33 73.32 39 82.25 40.25 86.25M82.6 10.75c.1.24.14.57-.19.95-2.68 3.11-17.18 6.04-34.41 8.55M48.8 26.86c2.53 1.97 6.35 7.52 6.99 10.58M84.51 24.97c.02.26.11.7-.04 1.06-1.23 2.85-3.2 6.2-7.26 10.12M42.49 41.6c.65.15 2.39.4 4.12.45 4.77.15 36.97-3.39 44.56-3.09 1.73.07 3.17.35 4.25.5"/><path d="M65.64 23.73c1.15.32 2.07 1.89 2.07 2.57 0 4.01 0 33.03-.23 37.03"/><path d="M67.03 41c-4.92 7.98-16.66 18.26-27.73 22.86M68.86 41.31c4.39 4.94 20.33 17.31 23.26 19.43 1.25.9 2.31 1.29 3.56 1.55M48.81 67.35c.32.54 1.4 1.89 1.5 2.58 1.44 10.32 2.37 19.55 3.06 27.82M50.4 69.67c12.61-1.39 27.14-2.42 34.66-2.9 2.76-.18 4.17 1.24 4.02 2.55-.62 5.41-1.96 18.13-4.07 26.45"/><path d="M67.53 71.14c.6.92.81 1.3.81 2.58-.02 6.08.18 17.24.18 19.21"/><path d="M52.2 81.45c3.28-.24 32.69-2.41 35.4-2.41M53.64 94.4c8.71-.32 21.34-1.74 31.35-1.87"/></g><g class="kgNumbers" font-size="8" fill="gray"><text transform="translate(5.5 35.5)">1</text><text transform="translate(32.5 28.85)">2</text><text transform="translate(17.5 14.5)">3</text><text transform="translate(30.5 69.5)">4</text><text transform="translate(74.5 9.5)">5</text><text transform="translate(42.5 28.5)">6</text><text transform="translate(75.5 25.5)">7</text><text transform="translate(45.5 38.5)">8</text><text transform="translate(57.5 27.03)">9</text><text transform="translate(48.5 51.5)">10</text><text transform="translate(80.5 49.88)">11</text><text transform="translate(39.5 75.5)">12</text><text transform="translate(51.5 66.5)">13</text><text transform="translate(72.25 75.65)">14</text><text transform="translate(56.25 78.5)">15</text><text transform="translate(56.25 90.5)">16</text></g></svg>