<svg xmlns="http://www.w3.org/2000/svg" width="109" height="109" class="kan-g"><g class="kgPaths" fill="none" stroke="currentColor" stroke-width="3" stroke-linecap="round" stroke-linejoin="round"><path d="M38.49 18.25c.39 1.38.07 2.89-.59 4.16-5.9 11.5-11.58 16.72-19.15 23.21M69.38 19.5c7.25 4 14.29 9.68 18.88 15.5M67.7 39.68c.55 1.57.31 3.8-.42 5.92C60.63 64.87 48 80.25 23 90.25"/><path d="M34.25 47c4.83 0 29 25.38 45.99 37.02 3.54 2.43 7.39 4.55 11.51 5.77"/></g><g class="kgNumbers" font-size="8" fill="gray"><text transform="translate(30.5 18.5)">1</text><text transform="translate(61.25 19.5)">2</text><text transform="translate(57.5 41.5)">3</text><text transform="translate(34.5 44.63)">4</text></g></svg>