<svg xmlns="http://www.w3.org/2000/svg" width="109" height="109" class="kan-g"><g fill="none" stroke="#000" stroke-width="3" stroke-linecap="round" stroke-linejoin="round"><path d="M43.69 14.39c.09.81.18 2.1-.17 3.27-2.1 6.9-14.18 22.04-30.71 31.3"/><path d="M18.41 21.77C28.25 25.5 40.5 36 45.56 44.17M43.51 51.64c.09.92.18 2.38-.17 3.7-2.06 7.8-13.87 24.9-30.03 35.38"/><path d="M20 58.95c9.9 3.9 22.22 14.87 27.31 23.41M58.13 20.09c.53 1.03.88 2.05 1.06 3.06.18 1.01.39 63.58.32 65.81M60.24 21.23c2.05-.1 20.83-2.48 22.35-2.66 2.73-.31 3.77 3.51 3.44 4.98-.33 1.41-.16 43.71-.26 63.89"/><path d="M60.31 43.4c4.31-.35 8.64-.56 12.96-.75 1.1-.05 2.18-.09 3.23-.14M60.72 63.86c3.84-.25 8.69-.39 12.54-.52 1.11-.04 2.24-.07 3.34-.11M39.54 90.24c1.3.51 3.68.59 4.98.51 13.51-.85 37.97-2.42 51.57-2.42 2.17 0 3.46.24 4.55.5"/></g><g font-size="8" fill="gray"><text transform="translate(36.75 13.13)">1</text><text transform="translate(11.25 21.5)">2</text><text transform="translate(35.5 52.5)">3</text><text transform="translate(13.5 61.5)">4</text><text transform="translate(51.5 26.5)">5</text><text transform="translate(61.5 17.5)">6</text><text transform="translate(64.5 40.5)">7</text><text transform="translate(64.46 60.1)">8</text><text transform="translate(35 88)">9</text></g></svg>