<svg xmlns="http://www.w3.org/2000/svg" width="109" height="109" class="kan-g"><g class="kgPaths" fill="none" stroke="currentColor" stroke-width="3" stroke-linecap="round" stroke-linejoin="round"><path d="M66.96 8.29c1.29 1.46 2.11 3.96 2.11 5.68 0 16.51-.04 81.46-.04 87.08"/><path d="M37.24 13.43c1.57.73 2.17 1.58 2.3 3.99.2 3.61-.85 18.91-1.33 22.7-.16 1.21.27 3.01 2.61 2.82 8.24-.66 18.16-2.42 27.7-2.95M25.55 63.43c2.23.2 2.69.8 5.3.67 11.15-.6 29.62-2.74 37.41-3.07M45.75 66.64c.06.79.05 2.03-.11 3.18C44.5 78 41.25 92 26.31 100.22"/></g><g class="kgNumbers" font-size="8" fill="gray"><text transform="translate(58.5 8.5)">1</text><text transform="translate(27.5 13.5)">2</text><text transform="translate(18.5 63.5)">3</text><text transform="translate(37.5 73.5)">4</text></g></svg>