<svg xmlns="http://www.w3.org/2000/svg" width="109" height="109" class="kan-g"><g class="kgPaths" fill="none" stroke="#000" stroke-width="3" stroke-linecap="round" stroke-linejoin="round"><path d="M73.16 9.14c.15.8.31 2.06-.3 3.2-3.62 6.75-24.39 21.56-52.81 30.62"/><path d="M32.27 17.58C49.75 20 73 32.25 79.81 40.72M67.54 42.43c.8 1.4.51 3.84-.1 5.46C58.75 71 40.79 89.12 17.5 99"/><path d="M33.75 47c1.25.5 2.75 1.7 3.15 2.32 9.96 15.32 30 35.58 46.25 45.47 2.99 1.82 4.73 2.26 7.1 2.47"/></g><g class="kgNumbers" font-size="8" fill="gray"><text transform="translate(65.25 8.5)">1</text><text transform="translate(30.5 14.5)">2</text><text transform="translate(58.5 42.5)">3</text><text transform="translate(26.5 50.5)">4</text></g></svg>