<svg xmlns="http://www.w3.org/2000/svg" width="109" height="109" viewBox="0 0 109 109" class="kan-g"><g fill="none" stroke="currentColor" stroke-width="3" stroke-linecap="round" stroke-linejoin="round"><path d="M28.22 20.44c1.14.49 3.22.54 4.36.49 8.67-.42 39.39-3.43 50.76-3.74 1.9-.05 3.03.23 3.98.48M26.52 32.26c0 .65.15 1.63-.52 3.24-2 4.75-4.75 11.5-6.5 14.75-1.07 1.99-1.62 5.09 1.51 2.88 5.49-3.88 60.75-6.74 70.08-6.74 1.9 0 3.03.23 3.98.47"/><path d="M65.67 20.38c.09.63 1.31 3.26 1.4 7.24.45 19.09-.29 54.63-.29 61.13 0 13-8.05 1.97-9.72.33"/><path d="M65.22 48.23c-.32.82-1.27 2.24-1.86 3.23C57.44 61.49 38.72 78.74 13.25 90"/></g><g font-size="8" fill="gray"><text transform="translate(31.5 17.5)">1</text><text transform="translate(19.5 32.5)">2</text><text transform="translate(57.5 29.75)">3</text><text transform="translate(46.75 59.75)">4</text></g></svg>