<svg xmlns="http://www.w3.org/2000/svg" width="109" height="109" class="kan-g"><g class="kgPaths" fill="none" stroke="currentColor" stroke-width="3" stroke-linecap="round" stroke-linejoin="round"><path d="M20.75 18.18c2.88 1.94 5.76 7.18 6 10.31M48.82 16.37c.46.42.25 1.94-.17 2.59s-4.3 4.74-6.4 6.25M35.56 11.75c.69.75.69 2.67.69 3.15 0 14.1-4.78 20.62-11.25 24.85M36.72 28.89c4.39 1.62 9.93 6.73 11.08 9.02M57 17.18c2.89 2.7 5.21 7.04 5.5 10.06M84.35 14.37c.42.38-.32 2.21-.7 2.8-.38.59-4.01 3.42-5.91 4.79M71.24 9.25c.51 1 .51 2.1.51 2.56C71.75 26 66.25 34 59 38M73.22 26.64c4.39 1.66 9.93 6.92 11.08 9.27M19.16 42.69c-.11 3.46-2.73 12.5-3.66 14.56M18.72 47c3.53 0 50.25-4.75 67.97-4.75 12.06 0 3.81 5.75-.69 9.5M40.78 53.53c.04.47.08 1.22-.08 1.9-.96 4.01-6.48 12.8-14.04 18.18M39.08 64.84c.96.29 2.71.35 3.67.29 11.74-.78 19.65-2.26 30.19-3.26 1.58-.15 2.55.13 3.35.28M14.97 80.1c1.98.71 5.61.82 7.59.71 20.6-1.18 34.49-3.27 64.55-3.55 3.3-.03 5.28.33 6.93.69"/><path d="M53.24 49.13c.56.33 1.76 2.5 1.87 3.17.11.67-.07 45.03-.19 49.2"/></g><g class="kgNumbers" font-size="8" fill="gray"><text transform="translate(14.5 19.5)">1</text><text transform="translate(43.5 12.5)">2</text><text transform="translate(27.5 11.5)">3</text><text transform="translate(44.5 31.5)">4</text><text transform="translate(54.5 14.5)">5</text><text transform="translate(78.5 11.5)">6</text><text transform="translate(64.5 8.5)">7</text><text transform="translate(81.5 29.5)">8</text><text transform="translate(12.5 44.5)">9</text><text transform="translate(29.75 43.45)">10</text><text transform="translate(30.5 55.5)">11</text><text transform="translate(43.5 61.5)">12</text><text transform="translate(9.5 77)">13</text><text transform="translate(43.5 52.5)">14</text></g></svg>