<svg xmlns="http://www.w3.org/2000/svg" width="109" height="109" class="kan-g"><g class="kgPaths" fill="none" stroke="#000" stroke-width="3" stroke-linecap="round" stroke-linejoin="round"><path d="M20.28 23.14c.03.67.05 1.72-.05 2.68-.63 5.65-4.23 18.05-9.17 25.64M19.75 38.75c.78.16 1.7.21 2.7.19 7.03-.17 13.96-2.19 15.05-2.19 1.25 0 2.5 0 3.75.25"/><path d="M28.87 12.25c1.09.5 1.74 2.25 1.96 3.25.22 1 0 76.75-.22 83"/><path d="M11.5 66.69c1.62 1.08 3.48 1.04 5.1.12.96-.54 19.59-12.43 23.65-15.06M67.15 11.75c.71.49 1.87 2.38 1.87 3.35 0 3.58-.22 5.68-.09 8.71M43.99 25.99c1.76.26 4.14.24 5.37.13 9.64-.87 29.6-3.59 43.07-3.93 2.08-.05 3.14.05 4.69.8M53.15 34.46c.41.31 1.33 1.57 1.51 1.96 1.42 3.08 2.11 9.09 3.08 14.63M55.69 36.05c7.5-1.41 19.31-2.55 26.57-3.79 1.73-.3 2.8 1.84 2.55 2.71-1.04 3.6-1.5 6.03-3.04 11.01M57.93 48.84c5.62-.46 17.88-1.71 25.6-2.42M44.75 57.51c1 1.24 1.78 1.91 1.97 4.32.41 5.07 3.1 28.45 3.66 36.17M46.78 60.4c7.43-.48 40.47-3.9 45.07-4.27 3.45-.28 5.15 1.62 4.7 5.98-.93 8.96-2.13 24.36-4.63 31.31-2.91 8.08-5.66 3.33-7.67 0"/><path d="M59.16 69.81c.29.3.58.55.71.93 1 2.97 2.69 9.67 3.37 15M60.45 70.83c6.3-1.33 14.79-2.6 18.14-3.15 1.36-.22 2.68 1.22 2.54 2.65-.33 3.57-1.58 6.7-2.66 11.5M63.37 84.14c3.95-.44 10.9-1.21 16.33-1.88"/></g><g class="kgNumbers" font-size="8" fill="gray"><text transform="translate(12.5 23.5)">1</text><text transform="translate(22.5 35.5)">2</text><text transform="translate(19.5 12.5)">3</text><text transform="translate(4.5 69.5)">4</text><text transform="translate(57.5 12.5)">5</text><text transform="translate(40.75 22)">6</text><text transform="translate(47.75 42.5)">7</text><text transform="translate(56.5 33.6)">8</text><text transform="translate(61.5 45.5)">9</text><text transform="translate(35.75 66.5)">10</text><text transform="translate(49.5 56.5)">11</text><text transform="translate(51.5 76.5)">12</text><text transform="translate(61.5 67.5)">13</text><text transform="translate(64.75 80.5)">14</text></g></svg>