<svg xmlns="http://www.w3.org/2000/svg" width="109" height="109" class="kan-g"><g fill="none" stroke="currentColor" stroke-width="3" stroke-linecap="round" stroke-linejoin="round"><path d="M38.55 17.75c.07.61.3 1.78-.13 2.44-5.5 8.37-11.08 14.3-24.42 23.35"/><path d="M20.5 22c26.28 22.15 16.24 80.13 5.35 67.85"/><path d="M32.33 46c.05.64.23 1.89-.1 2.58-4.21 8.86-8.49 15.13-18.73 24.71M62.01 14.5c4.73 2.64 6.53 4.63 7.91 8.22M48.07 26.48c0 3.62-2.63 13.56-3.83 15.97M49.3 30.54c1.19-.07 34.59-5.06 41.28-4.96 8.43.14.58 6.52-.6 7.24M42.57 55.08c1.52.53 3.21.43 4.36.28C60.5 53.5 82 49.75 92.47 48.7c1.88-.19 3.53.35 4.48.72"/><path d="M78.28 37.17c.12.45 1.75 2.35 1.75 5.22 0 15.6-.36 43.14-.36 47.83 0 8.27-3.67 1.52-6.64-1.26M56.55 63.02c2.31 2.01 5.97 8.26 6.54 11.38"/></g><g font-size="8" fill="gray"><text transform="translate(31.5 17.5)">1</text><text transform="translate(13.5 22.5)">2</text><text transform="translate(24.5 48.5)">3</text><text transform="translate(55.5 14.5)">4</text><text transform="translate(41.5 29.5)">5</text><text transform="translate(51.5 26.5)">6</text><text transform="translate(41.5 51.5)">7</text><text transform="translate(68.25 39.5)">8</text><text transform="translate(48.5 64.5)">9</text></g></svg>