<svg xmlns="http://www.w3.org/2000/svg" width="109" height="109" class="kan-g"><g class="kgPaths" fill="none" stroke="#000" stroke-width="3" stroke-linecap="round" stroke-linejoin="round"><path d="M11.27 21.73c.61.4 3.93.45 4.55.37 4.71-.55 13.81-1.85 20.56-3.19 1.33-.26 3.87-.54 5.67-.15M25.79 23.71c.94.94 1.12 2.29 1.12 3.81 0 6.51-.04 40.86-.04 47.73"/><path d="M11.9 48.1c2.1.53 4.71.27 6.24.06 5.61-.78 13.45-2.47 17.32-3.33.63-.14 2.42-.45 3.92-.32M11.12 82.1c.88 1.15 2.38 1.52 4.08.64 5.76-2.98 11.8-6.62 21.95-12.33M60 15c.07.91.3 2.4-.13 3.67-2.49 7.21-8.61 23.46-21.36 34.83M60.25 24.38c1.75.37 2.78.47 4.75.1 4.5-.86 8.88-2.11 11.94-2.99 2.47-.71 3.36.85 2.56 3.01-7.62 20.75-21.25 51.12-49.5 69"/><path d="M67.5 53.25C70.88 60 79.88 74.38 87.38 84.63c2.12 2.89 5.08 5.8 7.87 8.12"/></g><g class="kgNumbers" font-size="8" fill="gray"><text transform="translate(5 22.25)">1</text><text transform="translate(19 32.25)">2</text><text transform="translate(4.25 50.23)">3</text><text transform="translate(4.25 86.25)">4</text><text transform="translate(52.25 16.25)">5</text><text transform="translate(65.25 21.25)">6</text><text transform="translate(72.25 57.25)">7</text></g></svg>