<svg xmlns="http://www.w3.org/2000/svg" width="109" height="109" class="kan-g"><g class="kgPaths" fill="none" stroke="currentColor" stroke-width="3" stroke-linecap="round" stroke-linejoin="round"><path d="M11 28.42c1.5.45 3.77.39 5.13.28 4.36-.34 14.28-1.67 20.25-2.24 1.22-.12 2.99-.34 4.12-.04M25.32 30.44c1 1 1.23 2.06 1.23 3.48 0 5.95-.05 36.21-.05 41.45"/><path d="M12.25 52.42c1.38.58 3.2.53 4.26.37 4.49-.67 13.74-2.62 18.23-3.19.69-.09 1.75-.35 3-.06M12.25 81.02c1.12 1.1 1.86 1.21 3.5.4 8-3.92 12.62-6.17 21-10.25M61.03 14.25c.05.73.05 1.96-.36 2.96C57.4 25.08 52 34.88 41.05 45.5M61.59 17.92c3.63 3.96 17.64 15.41 24.93 21.09 2.57 2 5.05 3.67 7.97 5.09M67.89 38.9c.06.45-.21 1.77-.62 2.3C64 45.5 57.12 51.62 47.72 57.03M73.59 55.99c.08.51-.16 1.43-.65 2.04-4.47 5.5-10.81 11.1-26.01 18.78M82.68 70.96c.12.62-.04 1.72-.73 2.46-5.72 6.2-18.57 17.58-40.48 23.55"/></g><g class="kgNumbers" font-size="8" fill="gray"><text transform="translate(4.5 28.5)">1</text><text transform="translate(18.5 38.5)">2</text><text transform="translate(5.25 54.5)">3</text><text transform="translate(3.75 85.4)">4</text><text transform="translate(52.5 16.5)">5</text><text transform="translate(69.5 22.63)">6</text><text transform="translate(60.75 39.05)">7</text><text transform="translate(65.25 55.48)">8</text><text transform="translate(74.25 70.4)">9</text></g></svg>