<svg xmlns="http://www.w3.org/2000/svg" width="109" height="109" viewBox="0 0 109 109" class="kan-g"><g class="kgPaths" fill="none" stroke="currentColor" stroke-width="3" stroke-linecap="round" stroke-linejoin="round"><path d="M11.6 23.25c.67.37 4.31.45 4.99.34 3.16-.5 15.98-2.09 23.56-2.64 1.03-.07 2.95-.26 3.8.04M27.05 25.52c.93.88 1.58 2.78 1.58 3.48 0 5.95.05 44.62-.13 48.57"/><path d="M12.52 50.5c.59.4 4.75.46 5.36.37 3.47-.53 15.28-2.12 20.08-2.69.74-.09 3.44-.16 4.54.19M11.75 83.25c1.25 1 3.36 1.43 4.24 1 5.61-2.75 16.62-8.75 25.17-13.5M49.19 21.13c1.26.33 3.57.39 4.83.33 13.86-.69 21.23-3.13 38.32-3.51 2.1-.05 3.36.16 4.41.32M57.18 23.82c.82 1.18 1.28 2.33 1.28 3.72 0 1.39-.16 41.8-.16 46.79M58.55 38.73c9.2-1.73 17.7-1.98 25.83-2.83M58.74 54.2c7.51-1.2 17.01-1.7 26.17-2.55"/><path d="M47.5 76.1c.31.83 2.72 1.01 3.81.66 4.37-1.39 35.72-10.3 42.44-12.52"/><path d="M83.75 21.25c1 1.25 1.1 1.46 1.1 2.85s.16 65.03.16 76.4"/></g><g class="kgNumbers" font-size="8" fill="gray"><text transform="translate(5.5 23.5)">1</text><text transform="translate(20.5 33.5)">2</text><text transform="translate(5.5 50.5)">3</text><text transform="translate(4.54 84.5)">4</text><text transform="translate(46.5 18.5)">5</text><text transform="translate(50.5 31.5)">6</text><text transform="translate(62.5 34.5)">7</text><text transform="translate(62.5 50.5)">8</text><text transform="translate(47.5 72.5)">9</text><text transform="translate(73.5 28.5)">10</text></g></svg>