<svg xmlns="http://www.w3.org/2000/svg" width="109" height="109" class="kan-g"><g class="kgPaths" fill="none" stroke="currentColor" stroke-width="3" stroke-linecap="round" stroke-linejoin="round"><path d="M11.75 24.25c.58.37 3.73.45 4.32.34 2.73-.5 13.83-2.09 20.39-2.64.9-.07 2.55-.26 3.29.04M25.07 25.02c.87.88 1.48 2.78 1.48 3.48 0 5.95.52 44.62.35 48.57"/><path d="M12.75 50.32c.51.26 4.1.3 4.62.24 3-.35 14.05-1.72 18.2-2.1.64-.06 2.97-.11 3.92.12M11.75 82.25c1.75 1 3.68.93 4.5.5C21.5 80 28 77 36 72.25M44 27.24c4.38 4.31 9.07 11.86 9.69 14.01M60.06 18.69c3.19 3.06 8.15 12.04 9.1 17.67M89.84 19.75c.6 1.07.93 2.39-.1 4.29C88 27.25 82.75 36.5 78.78 41.42M65.92 45.62c.36 1.16.11 2.61-.18 4.04-1.39 7.04-6.32 17.61-11.25 25.41-.75 1.18-.41 1.42.32 1.5C67.25 78 82.25 84 93 96.25"/><path d="M81.94 56.15c.11.97.8 3.87.38 5.28-3.45 11.41-13.4 27.58-38.05 36.08"/><path d="M41.21 63.31c1.02.39 2.89.44 3.91.39 8.63-.45 25.36-2.61 47.04-4.03 1.7-.11 4.63.37 6.01 1.05"/></g><g class="kgNumbers" font-size="8" fill="gray"><text transform="translate(5.5 24.5)">1</text><text transform="translate(18.44 34.5)">2</text><text transform="translate(5.5 51.5)">3</text><text transform="translate(4.5 83.5)">4</text><text transform="translate(43.5 23.5)">5</text><text transform="translate(55.5 14.76)">6</text><text transform="translate(81.5 18.5)">7</text><text transform="translate(57.44 46.5)">8</text><text transform="translate(78.5 51.5)">9</text><text transform="translate(39.5 60.5)">10</text></g></svg>