<svg xmlns="http://www.w3.org/2000/svg" width="109" height="109" class="kan-g"><g class="kgPaths" fill="none" stroke="#000" stroke-width="3" stroke-linecap="round" stroke-linejoin="round"><path d="M18.36 18.52c1.49.38 4.07.21 5.21.07 4.56-.58 17.17-2.72 19.09-3.08.97-.19 1.98 0 2.98 0M31.26 19.53c.92.92 1.23 2.58 1.23 3.76v16.37"/><path d="M19.09 30.65c1.24.19 3.23.2 4.71-.06 4.7-.84 17.37-3.65 17.37-3.65s1.98-.19 2.73-.19M15.87 44.12c1.13 1.63 3.07 1.23 4.72.64 4.92-1.75 11.54-4 20.08-7.31M57.01 15.68c1.1.61 4.21.06 5.39-.13 4.37-.7 12.28-2.18 17.98-2.82 1.77-.2 3.78-.59 5.52.03M71.33 16.39c.89.89 1.12 2.23 1.12 3.35 0 2.14-.01 13.14-.01 18.06"/><path d="M59.61 27.59c1.76.54 3.81.31 5.12.13 5.05-.68 10.03-1.49 15.67-2.44 1.33-.22 2.72-.41 4.05-.23M55.84 40.46c2.16.41 4.73.08 6.43-.15 7.14-.98 16.91-2.42 23.85-3.19 1.78-.2 4.5-.5 6.78.16M49.68 40.5c.1.81.03 1.97-.7 2.99-6.48 9.01-15.36 19.13-35.73 29.99M50.91 42.51c5.97 4.36 19.89 14.9 29.99 21.28 4.1 2.59 8.85 4.96 12.35 5.99M37.23 64.96c1.33.5 3.51.2 4.89.06 4.54-.46 12.07-2.21 16.98-2.87 1.59-.22 3.46-.31 5.04.04M30.5 77.29c1.75.46 4.07.6 6.5.28 6.31-.83 22.25-3.71 28.99-4.77 3.99-.63 5.37 1.08 3.01 4.19C62.75 85.25 59 89.62 52 99"/></g><g class="kgNumbers" font-size="8" fill="gray"><text transform="translate(11.5 18.5)">1</text><text transform="translate(25.5 27.5)">2</text><text transform="translate(12.5 32.5)">3</text><text transform="translate(8.5 46.5)">4</text><text transform="translate(53.5 12.13)">5</text><text transform="translate(65.5 23.5)">6</text><text transform="translate(53.25 28.55)">7</text><text transform="translate(54.75 38.98)">8</text><text transform="translate(38.5 47.5)">9</text><text transform="translate(65.25 51.13)">10</text><text transform="translate(41.5 61.5)">11</text><text transform="translate(20.5 80.5)">12</text></g></svg>