<svg xmlns="http://www.w3.org/2000/svg" width="109" height="109" viewBox="0 0 109 109" class="kan-g"><g fill="none" stroke="currentColor" stroke-width="3" stroke-linecap="round" stroke-linejoin="round"><path d="M11 27.06c.51.35 3.26.42 3.78.32 2.39-.47 12.1-1.96 17.84-2.47.78-.07 2.23-.25 2.88.04M11 52.43c.45.27 3.64.32 4.11.25 4.39-.68 13.98-2.93 17.66-3.32.57-.06 1.63-.11 2.48.13M11.5 82.26c.54.26 2.18.72 3 .23 5.25-3.17 11.25-7.27 19.25-12.74"/><path d="M23.32 29.27c.87.88 1.48 2.78 1.48 3.48 0 5.95.52 37.62.35 41.57M41.93 25.02c1.17.53 2.54.63 3.72.53 10.79-.96 28.77-3.96 41.22-4.03 1.96-.01 3.13.25 4.11.51"/><path d="M51.24 14.07c1.23 1.23 1.62 1.6 1.75 2.36 1.22 7.07 1.77 13.91 2.12 16.48M75.74 10.6c.23.96.53 1.67.27 2.85-1.5 6.91-2.18 11.87-3.82 18.37M46.74 44.28c.82.93.93 1.65 1.05 2.78.83 7.94 2.41 16.63 2.62 17.93M48.65 45.59c2.79-.37 26.06-3.62 29.83-4.18 3.77-.56 4.27 1.59 4.21 3.93-.04 1.74-2.96 14.78-3.29 16.84"/><path d="M39.3 65.38c.74.33 2.65.54 3.47.46 11.22-1.1 29.46-2.72 47.51-3.97 1.03-.07 2.49.13 4.8.69"/><path d="M64.05 33.25c.63.5 1.07 1.82 1.07 3.65 0 38.26-9.1 47.93-28.5 58.6M64.01 63.68c7.06 8.73 21.57 21.63 28.62 27.47 2.4 1.99 3.23 2.29 4.32 2.47"/></g><g font-size="8" fill="gray"><text transform="translate(5.25 25.25)">1</text><text transform="translate(4.25 54.25)">2</text><text transform="translate(4 86.65)">3</text><text transform="translate(17.25 38.25)">4</text><text transform="translate(39.25 22.25)">5</text><text transform="translate(44.25 11.25)">6</text><text transform="translate(68.25 9.25)">7</text><text transform="translate(39.25 50.25)">8</text><text transform="translate(49.25 42.25)">9</text><text transform="translate(36.25 62.25)">10</text><text transform="translate(62 31.25)">11</text><text transform="translate(75.25 72.25)">12</text></g></svg>