<svg xmlns="http://www.w3.org/2000/svg" width="109" height="109" viewBox="0 0 109 109" class="kan-g"><g fill="none" stroke="currentColor" stroke-width="3" stroke-linecap="round" stroke-linejoin="round"><path d="M12.75 27.16c.56.35 3.6.43 4.16.33 2.63-.48 11.84-2.01 18.16-2.53.86-.07 2.46-.25 3.18.04M12.5 51.42c.55.39 4.45.44 5.01.36 3.25-.51 12.74-2.98 17.23-3.53.69-.08 2.22-.16 3.25.18M12.25 80.56c.75.94 2.68.86 3.5.44C21 78.36 27.5 74.01 35.5 69.45"/><path d="M25.57 29.34c.87.85 1.48 2.67 1.48 3.35 0 5.72.52 36.18.35 39.97M42.5 17.48c.23.28.47 1.02.57 1.38.8 2.82 2.76 9.59 3.31 14.65M44.44 18.39c6.81-1.14 37.88-4.53 40.59-4.9.99-.14 2.33.95 2.07 2.54-.55 3.3-1.92 8.97-3.39 13.69"/><path d="M56.82 16.81c.16 1.88 1.25 11.03 1.4 13.14M71.45 15.64c-.16 3.05-.93 11.03-1.25 12.9M47.11 31.47c3.18-.42 32.59-3.52 36.96-4.16M41.75 40.89c.94.38 2.66.49 3.6.38 5.98-.66 34.82-4.83 40.61-4.38 1.56.12 2.5.18 3.29.37M47.25 48.59c.36.27.74.5.9.84 1.26 2.71 2.78 9.67 3.64 14.53M49.52 50.52c8.93-1.13 25.78-4.13 30.38-4.51 1.69-.14 2.7 1.41 2.46 2.23-1 3.41-.64 4.84-2.78 9.75M52.15 61.67C59 60.75 72.5 59 81.26 57.92M64.92 61.89c.08.56.29 1.5-.15 2.25-2.85 4.9-12.14 13.83-26.42 21.57M62.79 70.29c.39.36.81.72.81 1.35-.03 7.97-.26 21.62-.26 27.06M81.27 65.75c.03.21.28 1.02.12 1.3-.99 1.74-4.09 4.23-9.14 7.7M64.67 72.43c1.42.55 3.69 2.11 4.08 2.34 5.79 3.48 19.88 12.35 23.79 14.4 1.47.77 2.74 1.1 4.21 1.32"/></g><g font-size="8" fill="gray"><text transform="translate(6.5 28.63)">1</text><text transform="translate(5.5 53.5)">2</text><text transform="translate(4.5 84.5)">3</text><text transform="translate(19.5 37.5)">4</text><text transform="translate(34.5 21.5)">5</text><text transform="translate(44.5 15.5)">6</text><text transform="translate(60.5 24.5)">7</text><text transform="translate(74.5 22.48)">8</text><text transform="translate(48.75 28.4)">9</text><text transform="translate(35.5 38.83)">10</text><text transform="translate(38.25 56.75)">11</text><text transform="translate(51.5 47.5)">12</text><text transform="translate(54.75 58.55)">13</text><text transform="translate(45.5 73.48)">14</text><text transform="translate(53.5 85.5)">15</text><text transform="translate(71.5 67.5)">16</text><text transform="translate(68.25 88.5)">17</text></g></svg>