<svg xmlns="http://www.w3.org/2000/svg" width="109" height="109" viewBox="0 0 109 109" class="kan-g"><g class="kgPaths" fill="none" stroke="currentColor" stroke-width="3" stroke-linecap="round" stroke-linejoin="round"><path d="M13.75 39.2c3 1.07 7.02.69 10.14.38 13.36-1.31 40.11-3.96 59.61-4.9 3.67-.18 7.99-.18 10.99.61"/><path d="M35.17 20c1.06 1.06 1.21 2.38 1.21 4 0 5.13.04 42.56.02 64.62 0 2.83-.01 5.41-.01 7.62M70.87 14c1.07 1.06 1.46 2.5 1.46 4 0 .68.02 48.38.03 68.38V95M37.5 61.75c4.25-.5 30.75-3 33.75-3M37.25 89.75c6.5-.25 28-1.75 34-2"/></g><g class="kgNumbers" font-size="8" fill="gray"><text transform="translate(7.5 40.63)">1</text><text transform="translate(24.75 20.5)">2</text><text transform="translate(60.75 15.13)">3</text><text transform="translate(41.5 58.5)">4</text><text transform="translate(41.5 86.5)">5</text></g></svg>