<svg xmlns="http://www.w3.org/2000/svg" viewBox="0 0 109 109" class="kan-g"><g class="kgPaths" fill="none" stroke="currentColor" stroke-width="3" stroke-linecap="round" stroke-linejoin="round"><path d="M25.44 16.14c.83 1.04 1.1 2.36 1.15 3.86 1.53 45.5-2.09 62-12.84 75"/><path d="M27.8 18.84C43.75 17 71.5 14 81.92 13.47c4.07-.21 5.75 2.03 5.75 5.18 0 6.1-.32 50.35-.32 71.37 0 14.98-8.09 2.23-9.84 1.34"/><path d="M27.99 40.91c16.26-1.66 41.51-3.66 58.25-4.7"/><path d="M27.25 62c14.88-1.38 43-3.25 59-4.25"/><path d="M53.62 19.5c1.13 1 1.96 2.5 1.96 4.25 0 3.66 0 42.87-.12 60.75-.03 4.11-.06 7.09-.1 8.25"/></g><g class="kgNumbers" font-size="8" fill="gray"><text transform="translate(20.5 27.13)">1</text><text transform="translate(31.5 15.5)">2</text><text transform="translate(32.25 37.5)">3</text><text transform="translate(32.25 58.5)">4</text><text transform="translate(47 27.5)">5</text></g></svg>