<svg xmlns="http://www.w3.org/2000/svg" width="109" height="109" class="kan-g"><g class="kgPaths" fill="none" stroke="#000" stroke-width="3" stroke-linecap="round" stroke-linejoin="round"><path d="M20.5 27.7c2.93 1.05 7.07.58 10.13.31 10.95-.96 34.42-3.19 48.5-3.78 3.21-.14 6.46-.36 9.62.32M27.1 41.61c.96.96 1.18 2.14 1.18 3.45 0 .62-.02 29.73-.02 44.69 0 3.71 0 6.55.01 7.87M29.21 43.3c9.41-1.02 36.84-3.35 45.05-4.06 4.62-.4 7.02.01 7.02 5.01 0 6.75-.03 36.13-.03 45.13 0 11.98-6.09 2.63-7.39 1.91"/><path d="M29.46 57.86c12.79-1.23 40.68-3.16 50.66-3.58M29.19 73.54c9.31-.91 40.44-3.29 50.85-3.66"/><path d="M52.2 10.3c1.25 1.25 1.57 2.7 1.57 4.35 0 1.02-.01 51.42-.01 73.1v8.63M68.75 9.5c3.44 1.32 8.89 5.44 9.75 7.5"/></g><g class="kgNumbers" font-size="8" fill="gray"><text transform="translate(13.25 27.25)">1</text><text transform="translate(19 46.3)">2</text><text transform="translate(31 39.25)">3</text><text transform="translate(33.82 54.25)">4</text><text transform="translate(34 70.25)">5</text><text transform="translate(42.25 9.25)">6</text><text transform="translate(62.25 8.93)">7</text></g></svg>