<svg xmlns="http://www.w3.org/2000/svg" width="109" height="109" class="kan-g"><g fill="none" stroke="#000" stroke-width="3" stroke-linecap="round" stroke-linejoin="round"><path d="M21 28.2c1.33.48 3.77.56 5.1.48 6.4-.42 42.9-4.42 57.98-4.59 2.22-.02 3.55.23 4.66.46M27.1 41.11c.72.73 1.19 1.47 1.43 2.2.24.74-.28 46.94-.26 53.56M29.96 43.05c8.04-.31 44.68-3.81 46.81-4.01 3.82-.37 5.25 2.39 4.77 3.49-.05 2.48-.6 30.89-.6 47.69 0 11.98-6.04 1.79-7.34 1.07"/><path d="M29.96 58.11c11.05-.67 22.1-1.45 33.15-2.2 1.2-.08 2.38-.16 3.52-.24M30.19 73.04c10.85-.78 21.7-1.47 32.55-2.14 1.28-.08 2.53-.16 3.75-.23"/><path d="M51.45 10.05c1.29.59 2.06 2.67 2.32 3.85.26 1.19 0 75.07-.26 82.48M69 9.75c3.44 1.32 8.89 5.44 9.75 7.5"/></g><g font-size="8" fill="gray"><text transform="translate(13.25 27.25)">1</text><text transform="translate(19 46.3)">2</text><text transform="translate(31 39.25)">3</text><text transform="translate(33.82 54.25)">4</text><text transform="translate(34 70.25)">5</text><text transform="translate(42.25 9.25)">6</text><text transform="translate(62.25 8.93)">7</text></g></svg>