<svg xmlns="http://www.w3.org/2000/svg" width="109" height="109" class="kan-g"><g class="kgPaths" fill="none" stroke="#000" stroke-width="3" stroke-linecap="round" stroke-linejoin="round"><path d="M39.99 10.5c.07.91.24 2.37-.14 3.66C37.5 22 27.75 37 14.75 49.13M36.5 27.75c1.25.75 3 1 5 .5s41.25-3.75 46.25-4 5.56.46 5.25 5.75c-.5 8.5-4.75 42-14.5 64.25-2.17 4.95-5.25 2.5-9-2.25M23.5 47.41c.3.65.31 1.09.47 1.89 1.34 6.6 3.04 24.56 3.83 36.7"/><path d="M24.92 48.41c10.64-.67 29.37-3.28 37.31-3.93 2.92-.24 4.4 1.67 4.24 3.44-.58 6.48-2.59 24.12-3.19 34.26"/><path d="M44.9 47.22c-.02.51-.03 1.39-.04 2.55-.04 7.65.19 27.27.19 30.05"/><path d="M26.82 64.82c3.47-.32 34.41-3.24 37.27-3.24M28.36 82.79C38 81.5 53 80 63.38 79.14"/></g><g class="kgNumbers" font-size="8" fill="gray"><text transform="translate(31.5 10.5)">1</text><text transform="translate(42.5 24.5)">2</text><text transform="translate(17.5 56.5)">3</text><text transform="translate(28.5 44.5)">4</text><text transform="translate(37.5 55.5)">5</text><text transform="translate(30.5 61.5)">6</text><text transform="translate(31.5 79.5)">7</text></g></svg>