<svg xmlns="http://www.w3.org/2000/svg" width="109" height="109" viewBox="0 0 109 109" class="kan-g"><g class="kgPaths" fill="none" stroke="currentColor" stroke-width="3" stroke-linecap="round" stroke-linejoin="round"><path d="M20 45.96c1.21 1.21 2 3.28 2.21 4.8 1.36 10.12 2.42 24.91 3.46 38.87.14 1.9.28 3.78.42 5.63"/><path d="M23.02 48.58c20.48-2.71 45.95-4.96 58.66-5.84 4.67-.33 6.98 2.3 6.79 4.73-.69 8.83-2.84 24.78-5.48 38.07-.54 2.72-1.22 5.17-1.82 7.26"/><path d="M51.74 13.32c1.47 1.47 2.51 3.18 2.51 5.68 0 15.3.23 66.95.23 70.94"/><path d="M25.3 68.36c19.57-1.86 42.57-3.48 60.34-4.08"/><path d="M26.98 91.89c14.02-.64 35.4-2.52 54.09-3.02"/></g><g class="kgNumbers" font-size="8" fill="gray"><text transform="translate(14.5 55.63)">1</text><text transform="translate(25.5 44.5)">2</text><text transform="translate(42.5 14.5)">3</text><text transform="translate(29.5 64.5)">4</text><text transform="translate(30.5 88.22)">5</text></g></svg>