<svg xmlns="http://www.w3.org/2000/svg" width="109" height="109" class="kan-g"><g class="kgPaths" fill="none" stroke="#000" stroke-width="3" stroke-linecap="round" stroke-linejoin="round"><path d="M27.97 16.22c.78.78 1.28 1.28 1.56 2.62 1.41 6.75 2.76 14.26 3.69 22.78.11.98.21 1.94.31 2.86M30.39 17.55c13.86-1.55 33.36-3.3 44.49-4.27 3.51-.31 5.75 1.74 5.34 4.26-1.22 7.58-2.64 14.06-4.06 21.25-.21 1.08-.41 1.84-.91 3.24"/><path d="M52.75 16.75C53.88 18 54.12 19 54.11 20.5c-.02 6.11.23 17.81.23 19.78"/><path d="M32.7 29.78c14.43-1.53 36.97-3.25 44.65-3.69M34.45 42.92c11.17-1.04 25.3-2.42 40.15-3.17M46.88 43.62c0 1.25-.48 2.58-1.41 3.97-4.22 6.29-15.01 17.67-28.72 25.59M59.75 43.02c6.75 5.85 19.27 17.27 27.99 23.5 2.76 1.97 5.41 3.6 8.77 4.31M41.64 61.93c.57.68.95 1.78.96 3.03.15 11.92.36 25.81-11.85 33.67M65.39 58.85c1 1 1.29 2.15 1.29 3.56 0 3.59.05 21.23-.08 31.47-.03 2.18-.06 3.86-.09 4.72"/></g><g class="kgNumbers" font-size="8" fill="gray"><text transform="translate(23.5 25.5)">1</text><text transform="translate(31.5 14.5)">2</text><text transform="translate(46.5 24.13)">3</text><text transform="translate(35.5 26.5)">4</text><text transform="translate(36.5 39.13)">5</text><text transform="translate(33.5 53.5)">6</text><text transform="translate(73.5 51.5)">7</text><text transform="translate(35.25 71.5)">8</text><text transform="translate(59.25 66.5)">9</text></g></svg>