<svg xmlns="http://www.w3.org/2000/svg" width="109" height="109" class="kan-g"><g class="kgPaths" fill="none" stroke="#000" stroke-width="3" stroke-linecap="round" stroke-linejoin="round"><path d="M11.24 24.73c.19.89 1.12 2.08 1.23 3.17.87 9.02 1.22 33.25 1.76 49.82M12.6 26.21c6.72-.7 17.66-1.77 22.71-2.19 3.18-.27 3.79 1.86 3.69 4.27-.35 8.81-1.67 32.84-2.51 47.51"/><path d="M24.24 27.02c.42.61.95 2.52.96 3.25.19 12.21.08 33.72.08 40.93"/><path d="M14.36 49.3c2.19-.37 20.91-1.9 22.72-1.84M14.58 74.12c4.84.15 15.25-1.45 21.92-1.49M49.39 33.71c2.07.59 4.29.69 5.27.63 9.71-.59 24.61-3.11 33.35-2.88 1.62.04 2.59.3 3.4.61M44.15 56.48c2.12.35 3.85.52 6.48.38 15.04-.82 35.26-2.95 44.25-2.81 1.66.02 2.66.18 3.49.37"/><path d="M67.17 13.75c.48 1.27 1.22 1.92 1.25 4.37.67 47.05-8.17 65.63-28.67 78.38M68.18 55.62c6.47 11.4 17.84 29.49 25.09 36.46 2.09 2.01 2.6 2.72 3.48 2.95"/></g><g class="kgNumbers" font-size="8" fill="gray"><text transform="translate(4.5 30.5)">1</text><text transform="translate(14.5 22.5)">2</text><text transform="translate(27.5 33.5)">3</text><text transform="translate(17.54 45.5)">4</text><text transform="translate(17.72 70.5)">5</text><text transform="translate(47.5 30.5)">6</text><text transform="translate(42.5 52.5)">7</text><text transform="translate(56.5 13.5)">8</text><text transform="translate(76.5 65.03)">9</text></g></svg>