<svg xmlns="http://www.w3.org/2000/svg" width="109" height="109" viewBox="0 0 109 109" class="kan-g"><g class="kgPaths" fill="none" stroke="currentColor" stroke-width="3" stroke-linecap="round" stroke-linejoin="round"><path d="M64.75 10c-.26 1.6-1.33 2.37-2.17 2.79-6.78 3.34-17.37 6.5-32.58 9.46M30.89 25.79c2.84 1.6 7.12 6.1 7.83 8.59M73.5 18.5c.08 1.12-.09 1.64-.53 2.72-1.51 3.69-3.87 7.95-8.25 12.84M18.52 40.91c2.23.59 4.63.55 7.77.22 17.46-1.88 40.76-4.38 53.01-4.97 3.16-.15 5.95.09 7.89.5"/><path d="M52.15 20.25c.99.99 1.5 2.25 1.5 3.63 0 4.99-.15 20.55-.2 30.12-.01 2.16-.02 4.02-.02 5.38M48.62 39.38c0 1.24-.45 2.08-1.07 2.86-6.89 8.58-14.85 16.79-27.05 22.51M55.88 38.6c4.5 3.4 19.87 14.4 28.9 19.63 2.44 1.42 4.6 2.77 7.72 3.65M29.06 65.67c.88.88 1.56 2.08 1.74 3.82.87 8.49 1.48 17.69 2.25 26.98.09 1.13.18 2.23.27 3.28M31.27 67.39c15.35-1.64 32.1-3.77 42.13-4.25 3.27-.16 4.97 1.73 4.75 4.07-.55 5.89-2.5 18.49-4.69 28.49-.23 1.07-.47 2.09-.71 3.05"/><path d="M52.54 66.89c.71 1.11.96 1.56.96 3.11-.02 7.31-.03 22.09-.03 24.47"/><path d="M33.28 81.4c5.6-.77 36.1-3.02 42.22-3.15M34.2 96.97c10.3-.72 25.93-1.85 38.05-2.22"/></g><g class="kgNumbers" font-size="8" fill="gray"><text transform="translate(56.5 9.5)">1</text><text transform="translate(24.75 31.63)">2</text><text transform="translate(65.5 21.5)">3</text><text transform="translate(11.25 43.63)">4</text><text transform="translate(46.5 29.5)">5</text><text transform="translate(33.5 49.5)">6</text><text transform="translate(71.5 46.5)">7</text><text transform="translate(23.25 75.5)">8</text><text transform="translate(36.5 64.5)">9</text><text transform="translate(43.5 74.5)">10</text><text transform="translate(35 77.13)">11</text><text transform="translate(34.5 93.13)">12</text></g></svg>