<svg xmlns="http://www.w3.org/2000/svg" width="109" height="109" class="kan-g"><g class="kgPaths" fill="none" stroke="#000" stroke-width="3" stroke-linecap="round" stroke-linejoin="round"><path d="M22.22 23c2.78.5 4.46.89 7.28.5 16-2.25 36.97-6.25 54.69-6.25 9.56 0 5.56 4-.69 9.5"/><path d="M52.87 21.25c1.09.5 1.74 2.25 1.96 3.25.22 1 .5 45.25.28 51.5M55.38 50c7.12-.75 10.62-1.5 21.35-3 1.73-.24 2.18-.25 3.26 0M35.75 44.64c.06.99.12 2.56-.11 3.98-1.36 8.39-9.16 26.32-19.83 37.59"/><path d="M30.75 64.5c8.2 3.64 44.2 20.84 53.11 24.42 3.02 1.21 5.61 1.73 8.64 2.08"/></g><g class="kgNumbers" font-size="8" fill="gray"><text transform="translate(15.75 24.5)">1</text><text transform="translate(47.5 31.5)">2</text><text transform="translate(59.5 45.5)">3</text><text transform="translate(26.5 49.63)">4</text><text transform="translate(37.5 64.5)">5</text></g></svg>