<svg xmlns="http://www.w3.org/2000/svg" width="109" height="109" class="kan-g"><g fill="none" stroke="currentColor" stroke-width="3" stroke-linecap="round" stroke-linejoin="round"><path d="M31.27 13.92c.24.4.7 1.09.83 1.58 1.07 4.02 2.49 11.09 3.12 18.5M31.96 14.53c8.98-1.05 33.85-2.38 40.22-2.78 2.34-.14 3.53 1.02 3.4 2.1-.47 3.95-2.82 11.31-4.41 17.63"/><path d="M52.19 13.91c.68.86 1.16 1.78 1.16 2.49-.03 4.66.15 12.74.15 14.43"/><path d="M34.38 23.11c8.74-.62 17.49-1.07 26.23-1.57 1.07-.06 2.11-.12 3.1-.18M35.22 32.09c6.14 0 27.5-2.01 35.98-2.11M28.75 37c3.79 1.15 9.8 4.72 10.75 6.5M25 54.66c.62.78 1.77 1.52 3.7.67 7.55-3.33 11.55-5.08 18.55-8.27M79.77 33.14c.04.19.08.49-.07.76-.87 1.61-5.84 5.15-12.64 7.31M59.5 45.75c8.12 1.28 20.97 5.26 23 7.25M20.91 59.63c0 3.48-3.03 13.05-4.41 15.37M20.74 62.74c9.51-.99 57.74-4.03 65.45-4.4 12.05-.59 2.55 6.66-.45 8.78M37.9 68.22c.64.86 1.07 1.71 1.29 2.54.22.84.47 22.75.39 24.61M40.45 69.17c2.54-.09 25.85-1.98 27.74-2.12 3.39-.25 4.68 2.91 4.26 4.14-.4 1.17-.2 4.91-.32 21.68"/><path d="M40.54 78.76c5.21-.5 10.43-.95 15.65-1.36 1.4-.11 2.79-.21 4.14-.31M41.05 87.09c4.78-.21 10.05-.56 14.82-.85 1.38-.08 2.78-.17 4.15-.24M18.23 96.95c1.66.47 4.71.54 6.37.47 17.3-.78 32.94-3.51 64.77-3.63 2.77-.01 4.43.22 5.82.46"/></g><g font-size="8" fill="gray"><text transform="translate(25.25 19.5)">1</text><text transform="translate(35.5 11.5)">2</text><text transform="translate(56.5 19.48)">3</text><text transform="translate(38.5 20.5)">4</text><text transform="translate(39.5 30.33)">5</text><text transform="translate(19.25 37.5)">6</text><text transform="translate(19.5 53.5)">7</text><text transform="translate(77.5 29.5)">8</text><text transform="translate(54.25 45.5)">9</text><text transform="translate(10.5 61.5)">10</text><text transform="translate(37.5 58.5)">11</text><text transform="translate(27.5 75.5)">12</text><text transform="translate(42.5 67.5)">13</text><text transform="translate(42.5 75.5)">14</text><text transform="translate(42.5 84.5)">15</text><text transform="translate(14.5 93.5)">16</text></g></svg>