<svg xmlns="http://www.w3.org/2000/svg" width="109" height="109" class="kan-g"><g class="kgPaths" fill="none" stroke="currentColor" stroke-width="3" stroke-linecap="round" stroke-linejoin="round"><path d="M10.58 28.4c.92.6 3.52.93 6.01.44 7.79-1.52 13.12-2.68 19.27-3.91 2.95-.59 4.46.52 2.4 3.2-1.93 2.5-5.31 6.5-8.51 10.62M25.5 39.33c.83.83 1.25 2.17 1.25 3.66v37.09M27.26 55.06c6.37-.67 1-.34 10.61-1.68 1.54-.22 1.95-.22 2.92 0M13.27 58.58c1.01 1.01 1.17 2.67 1.26 4.27.48 9.02.73 18.27.98 24.4"/><path d="M9.75 88.75c1.12 1.12 2.43 1.39 4 .5 7-4 15.25-9.5 23.25-14.25M64.75 14.5c1.06 1.06 1.55 2.38 1.55 3.62 0 3.06-.05 7.6-.05 10.51M45.44 31.53c2.95.56 5.84.15 8.83-.19 8.35-.93 21.76-2.77 30.6-3.46 2.5-.2 5.5-.26 7.94.24M64.19 33.5c0 1.12-.44 2.12-1.05 2.92-4.42 5.74-5.46 6.86-10.88 12.64-2.75 2.93-1.73 3.41 1.75 2.51 10.88-2.82 14.12-3.74 26.38-6.94M75.66 37.35c4.34 2.58 10.71 10.11 11.8 14.12M52.27 60.14c.67.67.92 1.65.91 2.87-.18 15.83-4.11 26.85-13.87 32.21M64.61 58.37c.82.82.83 2.13.83 3.77 0 2.99.03 23.59.03 27.87M78.1 55.87c.95.95 1.2 2.63 1.2 4 0 8.79.04 17.57.04 23.54 0 10.59 1.42 11.62 9.34 11.62 7.95 0 9.08-1.03 9.08-9.04"/></g><g class="kgNumbers" font-size="8" fill="gray"><text transform="translate(3.5 28.5)">1</text><text transform="translate(17.5 45.05)">2</text><text transform="translate(30.5 51.5)">3</text><text transform="translate(4.25 60.5)">4</text><text transform="translate(2.5 88.5)">5</text><text transform="translate(54.5 14.5)">6</text><text transform="translate(45.5 28.5)">7</text><text transform="translate(52.25 40.6)">8</text><text transform="translate(79.5 37.5)">9</text><text transform="translate(41.5 63.5)">10</text><text transform="translate(54.5 61.5)">11</text><text transform="translate(67.5 57.5)">12</text></g></svg>