<svg xmlns="http://www.w3.org/2000/svg" width="109" height="109" class="kan-g"><g fill="none" stroke="currentColor" stroke-width="3" stroke-linecap="round" stroke-linejoin="round"><path d="M52.8 11.63c2.19.77 6.84 5.77 7.28 7.3M27.13 25.23c1.52.54 4.3.63 5.82.54 15.8-.91 41.55-2.52 55.61-3.23 2.53-.13 4.05.26 5.31.53M30.49 26c0 36.55-3.55 50.27-15.94 68.47M11 36.25c3.88 1.76 10.03 7.26 11 10"/><path d="M9.67 67.04c1.53.67 2.01.47 3.35-.34 5.45-3.28 8.6-5.37 12.72-8.2M58.41 29.25c.06.82.31 2.17-.13 3.29-3.03 7.71-10.53 20.96-23.55 30.96M59.62 32.08c4.63 5.48 24.1 22.88 29.21 26.89 1.73 1.36 3.96 1.94 5.69 2.33M64.09 48.75c.07.54.27 1.46-.15 2.16C61.2 55.52 52 64.5 38.46 70.8M74.11 60.38c.1.56.37 1.52-.2 2.23C70 67.5 57.25 77.25 38.12 83.99M84.26 72.72c.14.62.3 1.58-.28 2.47-3.42 5.19-23.05 16.59-49.91 23.57"/></g><g font-size="8" fill="gray"><text transform="translate(47.5 12.5)">1</text><text transform="translate(29.66 22.5)">2</text><text transform="translate(23.71 35.85)">3</text><text transform="translate(3.5 37.5)">4</text><text transform="translate(2.5 69.5)">5</text><text transform="translate(49.5 35.5)">6</text><text transform="translate(67.5 35.68)">7</text><text transform="translate(56.44 50.6)">8</text><text transform="translate(65.44 61.53)">9</text><text transform="translate(71.44 73.46)">10</text></g></svg>