<svg xmlns="http://www.w3.org/2000/svg" width="109" height="109" class="kan-g"><g fill="none" stroke="currentColor" stroke-width="3" stroke-linecap="round" stroke-linejoin="round"><path d="M51.8 9.63c2.04.77 6.37 5.77 6.78 7.3M27.63 23.23c1.52.54 4.3.63 5.82.54 15.8-.91 38.05-3.02 52.11-3.73 2.53-.13 4.05.26 5.31.53M31.49 25.5c0 36.15-3.66 49.72-16.44 67.72M12 35.5c3.71 1.9 9.57 7.8 10.5 10.75"/><path d="M9.17 65.51c1.58.72 2.07.51 3.46-.37 5.62-3.55 8.87-5.82 13.12-8.89M43.19 38.51c.72.27 2.02.33 2.75.27 8.3-.73 22.75-2.89 32.53-3.08a9.71 9.71 0 0 1 2.5.26"/><path d="M60.59 27.37c.08.21 1.02 1.07 1.09 2.38.35 6.28.28 18.77.28 20.91"/><path d="M37.13 52.3c1.04.43 2.94.52 3.99.43 9.2-.77 33.37-3.69 47.37-4.14 1.73-.06 2.77.2 3.64.42M34.5 65.74c1.15.48 3.23.57 4.39.48 12.94-1 37.67-4.68 52.01-4.62 1.91.01 3.05.23 4.01.47"/><path d="M73.43 53.07c.45.6 1.21 1.86 1.26 4.14.24 10.91-.1 32.2-.1 35.91 0 8.92-5.94 1.79-7.24.64M47.5 71.9c3.17 2.16 7.22 7.82 8.02 11.18"/></g><g font-size="8" fill="gray"><text transform="translate(47.5 9.5)">1</text><text transform="translate(27.5 20.5)">2</text><text transform="translate(24.5 32.5)">3</text><text transform="translate(4.5 35.5)">4</text><text transform="translate(2.5 68.5)">5</text><text transform="translate(40.5 34.25)">6</text><text transform="translate(50.5 30.5)">7</text><text transform="translate(36.5 48.5)">8</text><text transform="translate(32.5 62.5)">9</text><text transform="translate(63.25 58.5)">10</text><text transform="translate(38.5 76.5)">11</text></g></svg>