<svg xmlns="http://www.w3.org/2000/svg" width="109" height="109" class="kan-g"><g fill="none" stroke="currentColor" stroke-width="3" stroke-linecap="round" stroke-linejoin="round"><path d="M29.15 15.18c1.39.62 1.93.5 4.18.21 5.86-.76 6.63-.94 12.89-1.92 3.71-.58 4.97.76 3.27 3.85C42.5 30 31.5 41.75 14 51"/><path d="M22.66 25.48c2.83 1.54 7.3 6.35 8.01 8.75M72.16 10.64c.02.25.15.69-.05 1-1.36 2.11-4.04 6.71-8.75 9.53M83.91 20.2c.03.23.12.63-.06.94-1.35 2.36-4.35 5.61-10.13 8.97M52.47 17.21c3.78 2.04 26.78 24.04 35.64 28.97 2.14 1.19 3.66 2.08 5.64 2.49M29.12 43.99c.71.88 1.37 1.14 2.27.98.9-.16 8.08-.78 9.88-1.27 1.8-.49 2.31 1.17 1.76 2.47-.54 1.3-2.98 10.02-3.19 11.92"/><path d="M26.5 59.25c2.41 0 8.96-1 10.68-1s3.44-.5 4.82-.5"/><path d="M25.84 57.72c.54.65.46 2.42.11 3.45-.4 1.18-4.03 9.31-4.21 9.96-.18.65.07 2.72 1.44 1.95 1.03-.58 13.16-2.94 16.05-3.43 2.89-.49 3.52.61 3.48 2.94-.11 6.12-4.46 16.17-8.96 21.25-2.66 3-4.25-.11-5.08-1.37M54.49 41.8c.28 1.03.38 1.85.37 2.59-.11 7.6-1.1 16.15-4.21 19.54"/><path d="M54.54 43.42c1.65.18 10.27-1.72 11.38-2.09 1.65-.55 2.48 1.18 2.31 2.4-.33 2.4-1 8.96-1 11.35 0 3.92 1.33 5.72 6.76 5.72 5.27 0 6.42-1.8 6.42-5.7M50.5 70.86c1.06.24 1.19.61 3.32.24 2.12-.37 17.38-2.83 18.84-3.2 1.46-.37 2.64 1.42 1.99 2.69-6.72 13.09-15.4 20.5-28.15 26.58"/><path d="M52.02 78.06c3.05.46 17.97 12.82 28.6 17.88 1.65.79 2.86 1.31 4.4 1.58"/></g><g font-size="8" fill="gray"><text transform="translate(23.5 14.5)">1</text><text transform="translate(15.5 25.5)">2</text><text transform="translate(64.5 7.5)">3</text><text transform="translate(80.5 15.5)">4</text><text transform="translate(56.5 16.5)">5</text><text transform="translate(39.5 40.5)">6</text><text transform="translate(29.5 56.5)">7</text><text transform="translate(18.5 60.5)">8</text><text transform="translate(47.5 48.5)">9</text><text transform="translate(55.5 39.5)">10</text><text transform="translate(53.5 66.5)">11</text><text transform="translate(45.5 85.3)">12</text></g></svg>