<svg xmlns="http://www.w3.org/2000/svg" width="109" height="109" viewBox="0 0 109 109" class="kan-g"><g fill="none" stroke="currentColor" stroke-width="3" stroke-linecap="round" stroke-linejoin="round"><path d="M51.72 11c.53.65.61 1.46.48 2.03-.74 3.37-7.1 11.42-12.89 15.94M26.25 29.83c.94.76 1.68 2.16 1.88 3.15 1.12 5.52 4.12 21.79 4.5 26.77M28.69 31.62c13.06-1.37 43.18-4.38 47.99-4.88 2.31-.24 3.81 2.01 3.31 4.1-1.12 4.64-2.99 15.92-5.24 24.8"/><path d="M30.63 43.62c8.31-1.3 16.74-1.98 25.13-2.64 2.34-.18 4.65-.35 6.87-.5M32.19 55.86C45.75 55 63.25 53 74.44 52.74M30.94 66.33c.92.5 3.91.18 4.83.03 4.31-.68 27.25-2.62 37.63-3.15 1.41-.07 2.7.1 3.87.52M32.2 79.48c.91.55 3.9.33 4.83.24 9.66-.97 23.85-1.9 35.2-2.88 1.13-.1 3.63-.22 5.32.26M15.25 95.74c.89.31 5.5.61 7.01.51 17.99-1.25 42.01-3.61 64.47-4.58 3.77-.16 3.44-.15 6.02 0"/><path d="M52.24 66.84c1.63 2.04 1.63 3.26 1.63 4.89 0 11.4-.09 7.28-.09 21.47"/></g><g font-size="8" fill="gray"><text transform="translate(44.25 9.63)">1</text><text transform="translate(21.5 39.05)">2</text><text transform="translate(30.75 28.5)">3</text><text transform="translate(36.5 39.5)">4</text><text transform="translate(36.75 52.5)">5</text><text transform="translate(23.25 67.41)">6</text><text transform="translate(24.5 80.5)">7</text><text transform="translate(8.25 97.5)">8</text><text transform="translate(45.5 74.83)">9</text></g></svg>