<svg xmlns="http://www.w3.org/2000/svg" width="109" height="109" class="kan-g"><g fill="none" stroke="#000" stroke-width="3" stroke-linecap="round" stroke-linejoin="round"><path d="M50.72 9.5c.54.57.24 2.3 0 2.77-1.78 3.48-6.84 9-12.82 12.96M25.5 25.66c.84.77 1.55 2.17 1.69 3.19.56 3.89 3.06 24.31 3.4 29.39M27.7 27.49c4.77-.13 45.33-3.5 49.67-3.72 2.76-.14 4.21.88 3.88 2.48-.74 3.51-3.99 22.01-5.87 30.21"/><path d="M29.14 41.76c8.49-.33 16.97-1.03 25.45-1.61 2.51-.17 5.01-.34 7.39-.49M31.1 55.77c11.97-.42 32.18-2.41 44.95-2.6M42.5 59.5c.07.9.15 2.34-.14 3.63-1.68 7.66-10.5 25.94-24.44 34.78M56.99 57.87c.71 1.22 1.27 2.66 1.31 4.54.19 8.4 0 18.07 0 23.78 0 13.34 8.49 11.83 16.84 11.83 8.81 0 14.62-1.72 15.86-2.69 2.62-2.05 1.91-3.08 2.14-6.67"/></g><g font-size="8" fill="gray"><text transform="translate(43 7.63)">1</text><text transform="translate(17.25 34.55)">2</text><text transform="translate(32.25 23.48)">3</text><text transform="translate(32.25 38.4)">4</text><text transform="translate(32.25 53.33)">5</text><text transform="translate(33.25 67.25)">6</text><text transform="translate(49.25 66.18)">7</text></g></svg>