<svg xmlns="http://www.w3.org/2000/svg" width="109" height="109" class="kan-g"><g class="kgPaths" fill="none" stroke="currentColor" stroke-width="3" stroke-linecap="round" stroke-linejoin="round"><path d="M21.31 18.7c1.44.51 4.08.63 5.51.51 10.76-.89 42.02-3.46 57.82-4.4 2.39-.14 3.83.25 5.03.5M57.46 19.05c.12.76.01 2.11-.74 3.04-4.97 6.16-20.72 18.66-42.7 29.14M52.79 30.03c.98.45 1.56 2.02 1.76 2.92.2.9 0 22-.2 27.61M64.97 31.76c9.22 3.4 20.58 11.64 26.13 19.29M26.84 69.6c.67.6 1.54 1.75 1.69 2.27 1.13 4.08 1.55 8.86 2.32 21.63M29.07 71.38c12.08-.84 46.78-3.98 52.07-4.37 1.93-.14 2.6 1.84 2.32 2.68-1.14 3.47-2.46 13.8-4.24 21.74"/><path d="M44.86 71.62c.28.39.57.71.69 1.2.95 5.44.95 12.44 1.85 20.59M62.65 69.87c.29.46.56 1.26.48 1.86-.84 5.95-1.38 13.03-2.39 20.92M14.88 94.98c1.52.54 4.3.63 5.82.54 15.8-.91 41.03-3.08 70.11-3.23 2.53-.01 4.05.26 5.31.53"/></g><g class="kgNumbers" font-size="8" fill="gray"><text transform="translate(14.5 18.5)">1</text><text transform="translate(42.5 27.5)">2</text><text transform="translate(47.5 41.5)">3</text><text transform="translate(66.5 30.4)">4</text><text transform="translate(20.5 76.5)">5</text><text transform="translate(30.5 68.5)">6</text><text transform="translate(38.25 79.18)">7</text><text transform="translate(55.5 77.5)">8</text><text transform="translate(13.5 92.5)">9</text></g></svg>