<svg xmlns="http://www.w3.org/2000/svg" width="109" height="109" class="kan-g"><g class="kgPaths" fill="none" stroke="currentColor" stroke-width="3" stroke-linecap="round" stroke-linejoin="round"><path d="M25.88 13.5c3.84 1.57 9.91 6.46 10.87 8.9M19.5 30.52c3.18 1.31 8.21 5.37 9 7.4M18 62.17c1.19 1.33 2.89.71 3.99-.13 3.19-2.46 11.86-10.96 14.76-14.09M56.62 12.75c.05.55.1 1.42-.09 2.22-1.12 4.67-7.53 14.92-16.31 21.2M54.72 24.14c1.04.28 3.01.72 4.58.48 1.91-.3 26.65-3.38 28.47-3.39 6.27-.04-2.66 8.45-6.53 12.14M61.72 31.52c.06.77.19 2-.12 3.1-2.85 9.89-8.81 21.58-22.35 29.64M60.58 38.43c3.85 4.16 17.32 16.63 24.23 21.08 1.46.94 2.56 1.49 3.94 1.79M27.33 70.76c.64 1 1.47 2.25 1.6 3.1 1.08 6.75 1.53 11.47 2.26 18.39M28.93 71.88c10.82-.38 45.12-2.22 49.87-2.76 1.65-.19 3.64 2.11 3.4 3.22-.97 4.57-2.44 12.67-3.43 18.3"/><path d="M44.64 72.1c.27.64.54 1.18.65 1.98.91 6.27.51 11.18 1.15 17.85M62.33 70.86c.42.64.85 1.57.79 2.41-.37 6.23-.37 10.98-.53 17.7M15.17 93.02c1.88.45 5.32.53 7.2.45 19.55-.76 41.65-2.47 66.88-2.21 3.13.03 5.01.21 6.58.44"/></g><g class="kgNumbers" font-size="8" fill="gray"><text transform="translate(19.5 13.5)">1</text><text transform="translate(10.5 29.5)">2</text><text transform="translate(9.5 63.98)">3</text><text transform="translate(47.5 12.5)">4</text><text transform="translate(61.5 21.5)">5</text><text transform="translate(53.5 34.5)">6</text><text transform="translate(66.5 41.5)">7</text><text transform="translate(20.5 77.5)">8</text><text transform="translate(29.5 68.53)">9</text><text transform="translate(35.5 80.5)">10</text><text transform="translate(53.5 79.5)">11</text><text transform="translate(5.5 92.5)">12</text></g></svg>