<svg xmlns="http://www.w3.org/2000/svg" width="109" height="109" viewBox="0 0 109 109" class="kan-g"><g class="kgPaths" fill="none" stroke="currentColor" stroke-width="3" stroke-linecap="round" stroke-linejoin="round"><path d="M12.38 24.07c.29 1.36.71 2.4.71 4.16 0 1.77-.1 53.97 0 55.75M13.57 24.76c1.62-.02 13.48-1.32 14.96-1.4 1.23-.07 2.1 1.49 2.1 3.13 0 6.04-.57 42.89-.57 56.68"/><path d="M13.54 44.34c4.48-.46 12.21-1.02 15.85-.79M13.67 61.64c4.3-.21 10.55-.96 16.29-.58M13.04 80.75c4.41-.25 11.37-.9 16.95-.87M42.99 28.13c0 4.16-2.63 15.59-3.82 18.37M42.74 32.24C57 30 77 28.25 88.67 27.84c14.02-.5 4.43 7.41-.52 10.78"/><path d="M64.55 12c.97 1.8 1.22 2.37 1.25 5.15.2 23.37-.99 62.16-30.88 78.52M66.99 46.37c.74 1.19 1.33 2.59 1.38 4.43.2 8.19-.03 27.64-.03 33.2 0 10 2.17 12.03 15.17 12.03 12 0 13.39-2.28 13.39-11.62"/></g><g class="kgNumbers" font-size="8" fill="gray"><text transform="translate(5.5 30.5)">1</text><text transform="translate(15.5 21.5)">2</text><text transform="translate(17.5 41.5)">3</text><text transform="translate(17.5 59.85)">4</text><text transform="translate(17.5 77.5)">5</text><text transform="translate(36.5 26.5)">6</text><text transform="translate(46.5 28.5)">7</text><text transform="translate(54.25 11.5)">8</text><text transform="translate(73.5 50.5)">9</text></g></svg>