<svg xmlns="http://www.w3.org/2000/svg" width="109" height="109" viewBox="0 0 109 109" class="kan-g"><g class="kgPaths" fill="none" stroke="currentColor" stroke-width="3" stroke-linecap="round" stroke-linejoin="round"><path d="M23.63 23.92c3.25.33 6.04.35 8.62.08 12-1.25 32.73-3.03 43.75-3.46 2.8-.11 5.9-.1 8.63.58"/><path d="M51.96 9c1.04 1 1.48 2.38 1.28 4.17-.74 6.58-1.74 13.58-2.54 19.33M31.5 34.33c.77.77 1.22 2.04 1.32 3.22.34 4.08 2.03 22.86 2.75 31.08.2 2.27.32 3.73.32 3.86M33.88 35.7c6.37-.57 33.4-3.78 36.69-3.96 2.74-.15 4.64 1.52 4.43 4.66-.5 7.35-1 16.35-1.81 30.22-.05.88-.19 2.26-.21 3.54"/><path d="M34.82 46.58c13.68-1.2 30.18-2.83 38.92-3.12M35.62 57.69c10.63-.94 25.63-1.94 37.45-2.26M36.76 69.46c14.24-1.21 23.49-2.21 35.27-2.82M16.25 80.12c2.18.62 6.17.75 8.35.62 13.52-.85 41.03-3.11 62.65-3.72 3.63-.1 5.81.3 7.62.61M42 82.89c.14.99.01 1.92-.56 2.71-2.82 3.9-9.19 10.02-18.38 15.37M67.88 83.75C74.12 86.43 84 94.79 85.56 98.97"/></g><g class="kgNumbers" font-size="8" fill="gray"><text transform="translate(17.25 24.13)">1</text><text transform="translate(43.5 10.5)">2</text><text transform="translate(24.75 42.74)">3</text><text transform="translate(34.5 32.5)">4</text><text transform="translate(38.25 43.63)">5</text><text transform="translate(38.5 55.63)">6</text><text transform="translate(39.5 66.5)">7</text><text transform="translate(8.5 81.5)">8</text><text transform="translate(30.5 89.5)">9</text><text transform="translate(56.5 88.5)">10</text></g></svg>