<svg xmlns="http://www.w3.org/2000/svg" width="109" height="109" class="kan-g"><g class="kgPaths" fill="none" stroke="currentColor" stroke-width="3" stroke-linecap="round" stroke-linejoin="round"><path d="M25 13.03c.37.69.91 1.21.91 2.14 0 .93-.25 27.48-.25 27.95M25.79 13.93c2.1-.12 18.84-1.8 20.75-1.94 1.59-.12 2.85.65 2.72 1.5-.17 1.09-.37 24.97-.37 29.17"/><path d="M26.49 23.67c4.14-.16 18.77-1.47 22.14-1.47M26.67 32.5c5.56-.39 16.32-1.39 21.72-1.39M26.1 41.04c4.78-.2 17.16-1.04 22.56-1.04M61.5 12.53c.36.69.88 1.21.88 2.14 0 .93-.24 27.48-.24 27.95M62.27 13.43c2.04-.12 18.25-1.8 20.11-1.94 1.55-.12 2.76.65 2.63 1.5-.17 1.09-.36 24.97-.36 29.17"/><path d="M62.95 22.67c4.01-.16 18.19-1.47 21.46-1.47M63.11 32c5.39-.39 15.82-1.39 21.05-1.39M62.57 40.54c4.63-.2 16.63-1.04 21.87-1.04M37.13 45.75c.23 1.29-.06 2.99-.81 4.09C31.6 56.9 25.6 62.88 14.75 71.47M28.78 59.9c.92.6 1.63 1.92 1.69 2.85.55 8.29-.75 30.19-.29 34.5M59.8 46.25c.06.58-.02 1.35-.21 1.85-1.24 3.19-2.82 5.66-5.66 9.55M30.21 59.08c10.69-.78 51.36-2.55 55.95-2.98M55.02 59c.52.31.93.73.93 1.25 0 5.38.06 24.63-.26 33.1"/><path d="M31.64 70.28c10.09-.65 46.57-2.03 50.9-2.38M30.41 81.7c10.64-.54 47.98-1.65 52.55-1.95M30.41 95.15c10.69-.78 55.25-2.77 59.84-3.2"/></g><g class="kgNumbers" font-size="8" fill="gray"><text transform="translate(18.5 19.5)">1</text><text transform="translate(28.5 10.5)">2</text><text transform="translate(30.49 21.5)">3</text><text transform="translate(30.32 30.5)">4</text><text transform="translate(30.5 38.5)">5</text><text transform="translate(54.5 19.5)">6</text><text transform="translate(65.5 9.5)">7</text><text transform="translate(66.5 20.5)">8</text><text transform="translate(66.5 29.5)">9</text><text transform="translate(66.5 38.45)">10</text><text transform="translate(27.5 49.38)">11</text><text transform="translate(20.25 75.3)">12</text><text transform="translate(48.25 49.5)">13</text><text transform="translate(39.5 55.5)">14</text><text transform="translate(45.5 66.5)">15</text><text transform="translate(34.5 67)">16</text><text transform="translate(34.5 79.5)">17</text><text transform="translate(34.5 91.5)">18</text></g></svg>