<svg xmlns="http://www.w3.org/2000/svg" width="109" height="109" viewBox="0 0 109 109" class="kan-g"><g fill="none" stroke="currentColor" stroke-width="3" stroke-linecap="round" stroke-linejoin="round"><path d="M12.38 25.22c.63.12 1.8.16 2.43.12 7.94-.43 13.5-1.33 24.1-2.08 1.05-.07 1.69.06 2.22.12M24.96 26.68c.04.81.09 2.09-.08 3.25C23.85 36.77 18 51.8 10 61M18.5 52.79c.28.42.56.77.68 1.3.96 4.17 2.07 17.41 2.28 26.66M19.73 55.12c6.77-1.62 12.61-2.58 15.87-3.13 1.19-.2 1.9 1.19 1.73 2.36-.7 4.87-2.53 15.76-3.58 22.49M21.59 78.09c4.16-.34 8.16-.84 14.35-1.14M67.37 12.57c2.1 1.02 6.57 7.66 6.98 9.71M46.68 29.63c1.14.3 3.23.38 4.36.3 13.47-.94 30.91-3.25 41.09-3.36 1.9-.02 3.04.14 3.99.3M50.96 30.32c.29.93.39 1.92.39 4.08 0 12.98 1.57 41.97-17.6 58.11M72.9 42.13c.44 1.02.43 4.05.01 5.29C68.82 59.75 63.76 69.71 56 83.07c-1.63 2.8-.91 4.39 1.42 3.69 7.43-2.23 22.31-6.97 33.59-10.41"/><path d="M82.3 62.33c4.77 4.39 12.33 18.05 13.52 24.88"/></g><g font-size="8" fill="gray"><text transform="translate(6.5 25.5)">1</text><text transform="translate(15.5 36.5)">2</text><text transform="translate(13.5 66.5)">3</text><text transform="translate(24.5 50.5)">4</text><text transform="translate(24.5 74.5)">5</text><text transform="translate(61.5 11.76)">6</text><text transform="translate(48.5 27.5)">7</text><text transform="translate(43.5 39.5)">8</text><text transform="translate(65.5 44.5)">9</text><text transform="translate(81.5 59.5)">10</text></g></svg>