<svg xmlns="http://www.w3.org/2000/svg" width="109" height="109" class="kan-g"><g fill="none" stroke="currentColor" stroke-width="3" stroke-linecap="round" stroke-linejoin="round"><path d="M14.88 26.51c.66.18 1.86.23 2.51.18 8.22-.62 13.97-1.94 24.94-3.02 1.09-.11 1.75.08 2.3.17M25.46 28.68c.04.91.09 2.35-.08 3.65-1.02 7.7-6.87 24.58-14.87 34.93M22.42 52.29c.19.4.39.72.47 1.22.66 3.91 1.46 14.71 1.91 21.74M23.23 54.12C30 52.5 38.84 51.04 42.1 50.49c1.19-.2 1.9 1.19 1.73 2.36-.7 4.87-2.53 10.76-3.58 17.49M25.09 72.59C31 72 34.5 71.5 41.44 70.95M53.69 18.19c.45 1.05 1.09 1.83 1.09 3.23s-.15 40.93 0 42.33M55.52 19.11c2.52-.17 21.71-3.41 24-3.62 1.91-.18 3.42.98 3.26 2.28-.2 1.65-.89 42.74-.89 43.79"/><path d="M55.98 33.92c4.15 0 8.42-.88 12.53-1.42 1.35-.18 2.7-.36 4-.52M56.19 47.32c4.26-.29 8.5-.8 12.75-1.24 1.12-.12 2.24-.23 3.34-.33M56.34 60.69c5.01 0 18.4-2.1 24.88-2.1M59.74 69.25c.06.61.13 1.58-.12 2.46-1.47 5.19-9.87 16.57-21.37 23.54M72.36 61.97c.46 1.1.83 2.4.86 4.11.08 4.7-.34 11.51-.34 16.93 0 8.25.62 11.12 11.87 11.12 9.75 0 12.25-.87 12.25-8.47"/></g><g font-size="8" fill="gray"><text transform="translate(8.5 26.5)">1</text><text transform="translate(17.5 36.5)">2</text><text transform="translate(17.75 66.98)">3</text><text transform="translate(27.5 49.5)">4</text><text transform="translate(29.5 68.5)">5</text><text transform="translate(47.5 27.5)">6</text><text transform="translate(58.5 15.5)">7</text><text transform="translate(59.5 30.5)">8</text><text transform="translate(59.75 43.5)">9</text><text transform="translate(58.5 56.95)">10</text><text transform="translate(47.75 74.38)">11</text><text transform="translate(62.5 70.55)">12</text></g></svg>