<svg xmlns="http://www.w3.org/2000/svg" width="109" height="109" class="kan-g"><g class="kgPaths" fill="none" stroke="#000" stroke-width="3" stroke-linecap="round" stroke-linejoin="round"><path d="M13.25 21.15c.59.12 1.68.15 2.27.12 7.42-.43 12.62-1.33 22.53-2.07.98-.07 1.58.06 2.07.12M24.99 21.5c.05.88.1 2.28-.1 3.55-1.21 7.48-8.14 23.9-17.64 33.95M16.5 46.75c.24.55.49 1 .59 1.69.84 5.41 1.84 20.34 2.41 30.06M17.75 50.75c7.04-2.19 14.14-2.01 17.53-2.75 1.24-.27 1.98 1.61 1.8 3.2-.73 6.59-1.24 15.2-2.33 24.31M20.09 77.98c5.08-.79 9.23-1.49 15.91-2.48M51.41 16.74c1.04.65 1.44.53 3.12.22 4.37-.81 4.83-1.45 9.5-2.49 2.77-.62 3.32.56 2.43 4.09C64.38 26.85 55.14 48.54 42.75 56"/><path d="M45.02 27.32c3.7 1.84 9.55 7.57 10.48 10.43M86.49 13.5c.02.26.05.66-.05 1.03-.65 2.18-4.4 6.33-9.51 9.26M67.75 16.5c5.04 4.12 22.29 27.92 26.71 32.71 1.5 1.62 2.79 2.32 4.29 2.79M95.23 24.5c.04.24.06.62-.06.97-.72 2.04-4.81 6.04-10.42 8.78M58.26 46.94c.64.27 1.81.35 2.44.27 6.82-.86 11.99-1.71 17.31-2 1.06-.06 1.7.13 2.23.27M53.48 55.73c.55.36 1.25.64 1.35 1.12.74 3.48 2.78 11.67 3.91 18.09M55.58 58.38c6.41-.66 22.1-3.62 26.48-3.72 1.81-.04 3.03 1.87 2.62 3.79-.73 3.45-1.6 7.24-2.83 11.74M59.49 73.07c6.22-.69 18.74-2.59 23.71-2.87M57.08 80.07c2.29 2.44 5.85 8.65 6.42 12.43M83.21 78.67c.02.32.04.83-.04 1.29-.48 2.71-3.19 8.66-6.92 12.29M42.03 95.44c1.05.41 2.97.48 4.02.41 10.9-.69 37.34-2.64 48.94-2.93 1.74-.04 2.79.2 3.67.41"/></g><g class="kgNumbers" font-size="8" fill="gray"><text transform="translate(5.5 20.5)">1</text><text transform="translate(15.5 30.5)">2</text><text transform="translate(11.75 62.5)">3</text><text transform="translate(21.5 46.4)">4</text><text transform="translate(23.5 73.5)">5</text><text transform="translate(49.25 13.75)">6</text><text transform="translate(38.5 29.43)">7</text><text transform="translate(81.5 9.5)">8</text><text transform="translate(71.7 16.78)">9</text><text transform="translate(92.5 20.5)">10</text><text transform="translate(58.9 44.38)">11</text><text transform="translate(45.25 63.5)">12</text><text transform="translate(55.8 54.93)">13</text><text transform="translate(58.95 69.96)">14</text><text transform="translate(46.35 81.98)">15</text><text transform="translate(70.95 80.5)">16</text><text transform="translate(37.85 91.88)">17</text></g></svg>