<svg xmlns="http://www.w3.org/2000/svg" width="109" height="109" viewBox="0 0 109 109" class="kan-g"><g class="kgPaths" fill="none" stroke="currentColor" stroke-width="3" stroke-linecap="round" stroke-linejoin="round"><path d="M12.63 29.01c1.74.42 3.64.49 5.38.23 7.62-1.12 12.4-1.43 21.62-2.31 1.98-.19 3.55-.13 5.5.15M26.69 31.43c.31.95.36 2.1.14 3.4-1.29 7.7-8.7 24.58-18.84 34.93M20.47 54.65c.62.98.94 2.05.98 3.21.67 4.53 1.34 12.65 1.84 19.63.13 1.78.24 3.49.34 5.04M22.01 56.03c6.37-.78 11.78-1.39 15.49-1.95 3-.45 4.38 1.17 3.74 4.17-1.1 5.2-2.7 11.92-3.8 18.75M24.32 79.27c4.16-.65 6.95-.67 11.71-1.27 1.15-.15 2.22-.38 3.95-.25M60.14 15.25c.17 1.49-.3 2.93-.83 4.21-3.4 8.12-7.96 15.24-15.75 25.12M55.4 32.15c.85.85 1.2 1.89 1.2 3.11 0 7-.05 23.49-.09 32.87-.01 3.67-.02 6.26-.02 6.75M78.16 15.99c.07.74.04 1.74-.24 2.36C76.5 21.5 74.75 25.62 72 30M57.67 33.61c5.36-.61 20.75-1.75 29.84-2.69 2.85-.29 4.93-.52 5.65-.62M73.94 34.71c.34.31.99 2.7.99 3.24 0 5.5.04 22.04-.17 30.7"/><path d="M57.61 46.55c5.11-.51 20.45-1.77 28.65-2.48 2.44-.21 4.23-.38 4.88-.46M57.8 57.96c5.46-.44 20.43-1.58 28.95-2.32 2.41-.21 4.16-.36 4.82-.43M57.8 70.49c8.7-.74 23.41-1.69 32.99-2.34 2.69-.18 4.62-.33 5.29-.42M49.09 81.45c0 4.91-4.56 12.15-5.58 13.55M62.12 80.38c1.43 2.62 2.79 9.83 3.15 13.9M77.62 79.88c1.97 2.25 5.09 9.24 5.58 12.74M91.38 78.5c3.42 2.71 8.83 11.15 9.68 15.36"/></g><g class="kgNumbers" font-size="8" fill="gray"><text transform="translate(6.75 30.13)">1</text><text transform="translate(18.5 38.5)">2</text><text transform="translate(15.75 70.5)">3</text><text transform="translate(26.5 52.5)">4</text><text transform="translate(26.5 75.05)">5</text><text transform="translate(51.75 15.5)">6</text><text transform="translate(49.5 47.5)">7</text><text transform="translate(69.5 16.5)">8</text><text transform="translate(61.5 30.5)">9</text><text transform="translate(64.5 39.5)">10</text><text transform="translate(59.5 43.63)">11</text><text transform="translate(59.5 55.55)">12</text><text transform="translate(59.55 67.48)">13</text><text transform="translate(44.25 76.4)">14</text><text transform="translate(52.5 83.5)">15</text><text transform="translate(68.5 82.5)">16</text><text transform="translate(82.5 81.5)">17</text></g></svg>