<svg xmlns="http://www.w3.org/2000/svg" width="109" height="109" class="kan-g"><g class="kgPaths" fill="none" stroke="currentColor" stroke-width="3" stroke-linecap="round" stroke-linejoin="round"><path d="M29.5 15.25c3.41 2.06 6.75 4.75 10 8.75M15.5 39c2 .75 3.05.8 5.55.17 6.2-1.55 15.6-4.05 17.7-4.67 2.5-.75 4.46 1.23 3 3.5-4.75 7.38-13.88 18.62-25 28.75M30.82 55.37C32 56.5 32.21 58 32.21 59.94c0 8.57-.15 21.05-.3 29.06-.06 3.28-.12 5.81-.12 7M36.25 54.5c3.67 2.41 7.6 6.03 10.75 10.25M52.13 52.03c1.49.39 4.23.31 5.71.14 7.92-.91 19.17-2.04 28.02-2.68 2.48-.18 3.97-.07 5.22.13"/><path d="M69.31 17.87C70.54 19.1 71.12 21 71.12 23c0 14.25.13 62.57.13 63.07M42.25 88.97c1.92.55 5.44.76 7.36.55 12.39-1.39 28.51-3.64 41.04-4.03 3.2-.1 6.09.14 7.72.79"/></g><g class="kgNumbers" font-size="8" fill="gray"><text transform="translate(21.75 13.63)">1</text><text transform="translate(8.5 40.5)">2</text><text transform="translate(24.75 68.5)">3</text><text transform="translate(38.5 53.5)">4</text><text transform="translate(50.5 48.13)">5</text><text transform="translate(59.5 17.5)">6</text><text transform="translate(40.5 85.63)">7</text></g></svg>