<svg xmlns="http://www.w3.org/2000/svg" width="109" height="109" class="kan-g"><g fill="none" stroke="#000" stroke-width="3" stroke-linecap="round" stroke-linejoin="round"><path d="M14.5 18.32c.83.38 2.35.42 3.19.38 5.22-.26 13.6-1.35 18.89-1.7 1.38-.09 2.22.18 2.91.37M11.88 36.14c1.12.4 3.16.39 4.27.32 6.98-.47 17.62-1.59 25.66-2.28 1.85-.16 2.97.13 3.9.32M27.15 37.43c.48.42.77 1.89.87 2.74.1.84 0 49.82-.1 55.08M17.51 49.39c.5 1.4.49 2.12.49 3.3 0 8.64-.98 20.47-8.44 31.53M38.82 45.75c.65.41 1.04 1.86 1.17 2.69.13.83 0 25.73-.13 30.89M86.62 20.68c.38 1.06.79 1.83.28 4.23C83.25 42 70.5 74.5 41.71 92.72"/><path d="M55.68 35.62c.56 1.16 1.45 2.31 1.65 3.44 5.5 30.85 11.99 45.76 31.13 51.66 10.01 3.08 10.98-.26 4.35-9.9M66.25 31.75c1.61 6.95 4.84 12.07 5.68 6.01M51.26 48.57c.28 3.24-2.77 17.57-4.99 22.98M87.56 45.42c5.05 3.27 11.04 9.96 12.94 16.33"/></g><g font-size="8" fill="gray"><text transform="translate(8.5 17.5)">1</text><text transform="translate(4.5 35.5)">2</text><text transform="translate(20.5 46.5)">3</text><text transform="translate(8.5 51.5)">4</text><text transform="translate(31.5 44.5)">5</text><text transform="translate(79.5 19.5)">6</text><text transform="translate(52.5 32.5)">7</text><text transform="translate(62.5 28.63)">8</text><text transform="translate(46.5 45.13)">9</text><text transform="translate(90.5 43.4)">10</text></g></svg>