<svg xmlns="http://www.w3.org/2000/svg" width="109" height="109" viewBox="0 0 109 109" class="kan-g"><g class="kgPaths" fill="none" stroke="currentColor" stroke-width="3" stroke-linecap="round" stroke-linejoin="round"><path d="M28.58 15c3.33 2.06 6.9 5.15 9.75 8.75M15.08 38c1.01.45 2.59 1.2 4.26.7 2.05-.61 17.24-3.45 19.74-4.2s5.02 1.01 3.5 3.25C37.33 45.5 26.08 60.25 17.33 68M31 54.61c.12.29 1.65 1.53 1.77 3.39.57 8.93.06 33.7.06 36.75M33.83 55c3.76 2.18 7.78 5.44 11 9.25M65.03 15.64c.05.8.2 2.08-.09 3.2-1.79 6.75-7.47 21.54-16.18 30.59M60.98 37.24c1.48.08 2.61.01 3.54-.04 12.24-.69 19.04-2.47 25.34-2.85 1.53-.09 2.46.18 3.23.37M71.62 38.69c.07.4.99 2.11 1.06 4.67.34 12.32-.22 40.77-.22 44.97 0 9.52-6.1 1.27-7.37.21M57.15 56.38c.03.57.07 1.47-.07 2.28-.79 4.82-5.35 15.38-11.6 21.85M84.3 55.81c4.15 4.03 10.72 16.57 11.76 22.84"/></g><g class="kgNumbers" font-size="8" fill="gray"><text transform="translate(22.5 15.5)">1</text><text transform="translate(6.58 37.5)">2</text><text transform="translate(26.5 67.48)">3</text><text transform="translate(37.5 54.5)">4</text><text transform="translate(55.5 14.5)">5</text><text transform="translate(66.5 33.5)">6</text><text transform="translate(63.92 47.18)">7</text><text transform="translate(48.5 58.5)">8</text><text transform="translate(81.25 52.36)">9</text></g></svg>