<svg xmlns="http://www.w3.org/2000/svg" width="109" height="109" class="kan-g"><g class="kgPaths" fill="none" stroke="currentColor" stroke-width="3" stroke-linecap="round" stroke-linejoin="round"><path d="M51.73 8c1.19.4 2.89 2.39 2.86 3.56-.09 3.67-.09 6.32-.09 9.66M19.98 21.26c0 3.85-3.06 14.43-4.46 16.99M20.1 24.29c13.9-.79 56.51-4.46 65.44-4.17 11.55.36 2.32 7.05-.59 9.06M40.76 27c.04.41.18 1.1-.09 1.65-2.47 5.06-7.64 10.9-15.69 15.77"/><path d="M62.59 24.37c.38.47.71 1.03.71 1.77 0 1.95-.27 5.34-.27 7.57 0 5.19 5.51 4.6 10.02 4.6 4.75 0 8.82-.67 9.49-1.05M26.07 55.89c1.18.36 3.28.23 4.42.16 8.89-.54 40.27-1.76 52.1-1.97 1.92-.03 3.16-.08 4.54.66M15.99 72.72c1.81.29 5.14.4 6.94.33 10.66-.45 48.5-2.46 64.24-2.74 3.01-.06 4.83.16 6.34.31"/><path d="M40.16 44.67c.91.68 1.51 1.86 1.81 2.54.3.68-.2 20.92-.2 22.45 0 15.13-9.37 25.33-23.27 30.09M63.06 44.25c1.01.32 1.61 1.46 1.81 2.1.2.65 0 51.6-.2 55.65"/></g><g class="kgNumbers" font-size="8" fill="gray"><text transform="translate(43.85 8.5)">1</text><text transform="translate(13.5 22.5)">2</text><text transform="translate(23.71 20.5)">3</text><text transform="translate(30.5 33.5)">4</text><text transform="translate(54.5 31.5)">5</text><text transform="translate(17.5 55.5)">6</text><text transform="translate(8.5 72.5)">7</text><text transform="translate(32.5 48.5)">8</text><text transform="translate(54.5 45.5)">9</text></g></svg>