<svg xmlns="http://www.w3.org/2000/svg" width="109" height="109" class="kan-g"><g class="kgPaths" fill="none" stroke="currentColor" stroke-width="3" stroke-linecap="round" stroke-linejoin="round"><path d="M51.51 15c1.43 1.43 2.24 3.25 2.24 5.81V34.5M22 37.86c2.62.51 4.75.34 7 .16 11.38-.9 36.13-3.4 50.65-4.26 2.38-.14 4.86-.01 6.86.4M32 49c4.75 9.75 8.25 22.5 9.5 31.5M74 39c.75 1.38.81 3.29.5 4.5-2.88 11.12-8.5 30.38-12.75 42M15.25 88.8c2.33.45 5.89.53 7.82.39 18.3-1.32 40.31-1.94 64.83-2.75 3.24-.11 6.14.05 8.47.88"/></g><g class="kgNumbers" font-size="8" fill="gray"><text transform="translate(42.75 15.5)">1</text><text transform="translate(13.5 38.5)">2</text><text transform="translate(24.25 49.5)">3</text><text transform="translate(64.75 44.63)">4</text><text transform="translate(7.5 91.5)">5</text></g></svg>