<svg xmlns="http://www.w3.org/2000/svg" width="109" height="109" viewBox="0 0 109 109" class="kan-g"><g fill="none" stroke="currentColor" stroke-width="3" stroke-linecap="round" stroke-linejoin="round"><path d="M23.23 13c4.28 3.5 9.3 10.25 9.92 15.24M11 34.91c1.16.3 2.53.35 3.68.3 6.57-.26 20.57-1.97 29.49-2.58 1.93-.13 3.1.14 4.07.3M17.25 45.25c5.18 10.25 7.53 20.74 8 27.5M40.18 39.98c.88 1.26.5 3.9.31 4.9-1.94 10.36-6.01 26.99-7.74 32.37M12 87.32c.97 1.2 3.14 1.17 4.1.7 10.59-5.19 19.25-9.99 28.65-14.27M74.82 42.68c8.41-1.07 16.72-2.82 17.9-2.88s3.28-.17 4.23-.02M69.81 13.63c.76.43 2.36 3.26 2.51 4.13.15.87-.25 34.62-.25 47.37M52.66 65.55c.49.53.98.97 1.19 1.63 1.68 5.22 3.2 20.11 4.35 29.48M54.21 67.62c11.68-2 32.99-3.13 38.53-3.89 2.02-.28 3.24 2.8 2.95 4.43-1.2 6.77-2.7 14.26-4.35 22.84M59.38 94.68c7.68-.44 24.25-1.53 34.35-1.98"/></g><g font-size="8" fill="gray"><text transform="translate(18.5 14.5)">1</text><text transform="translate(2.66 34.5)">2</text><text transform="translate(9.5 48.5)">3</text><text transform="translate(30.5 45.5)">4</text><text transform="translate(4.5 82.5)">5</text><text transform="translate(82.44 37.5)">6</text><text transform="translate(59.44 14.76)">7</text><text transform="translate(47.5 81.5)">8</text><text transform="translate(57.5 62.5)">9</text><text transform="translate(61.5 90.5)">10</text></g></svg>