<svg xmlns="http://www.w3.org/2000/svg" width="109" height="109" class="kan-g"><g class="kgPaths" fill="none" stroke="currentColor" stroke-width="3" stroke-linecap="round" stroke-linejoin="round"><path d="M26.96 16c1.04.91 1.57 2.12 1.57 3.06v18.98"/><path d="M12 38.41c1.16.3 2.53.35 3.68.3 6.57-.26 17.07-.97 25.99-1.58 1.93-.13 3.1.14 4.07.3M15.75 50.4c5.66 10.67 8.23 21.57 8.75 28.6M39.56 44.48c1.07 1.33.6 4.1.38 5.15-2.36 10.89-7.32 28.37-9.43 34.02M13 93.24c.9 1.06 2.9 1.04 3.79.62 9.78-4.59 17.78-8.83 26.46-12.61M71.01 12.75c.99 1 2.49 3.25 2.49 5.81v16.69M53.75 37.18c1.66.32 3.34.4 4.19.35 4.84-.3 26.88-2.02 34.2-2.28 1.43-.05 3.39.17 4.11.34M58.25 48.25c4.92 11.09 8.05 24.44 8.5 31.75M88.51 43c.73 1.21.56 3.18.25 4.35C86.3 56.54 78.7 80.71 76.25 87M44.75 91.41c1.5.56 4.42.55 5.67.49 15.09-.65 27.47-1.65 43.24-2.66 2.08-.13 4.59.07 6.09 1.11"/></g><g class="kgNumbers" font-size="8" fill="gray"><text transform="translate(17.5 15.5)">1</text><text transform="translate(4.5 39.5)">2</text><text transform="translate(9.5 51.5)">3</text><text transform="translate(31.5 47.5)">4</text><text transform="translate(4.5 90.5)">5</text><text transform="translate(61.5 13.5)">6</text><text transform="translate(51.5 33.5)">7</text><text transform="translate(50.5 50.5)">8</text><text transform="translate(78.5 44.5)">9</text><text transform="translate(44.5 88.5)">10</text></g></svg>