<svg xmlns="http://www.w3.org/2000/svg" width="109" height="109" viewBox="0 0 109 109" class="kan-g"><g fill="none" stroke="currentColor" stroke-width="3" stroke-linecap="round" stroke-linejoin="round"><path d="M31.24 15c.04.6.1 1.55-.09 2.41C30.04 22.5 23.69 33.66 15 40.5M28.73 29.79c3.71 0 17.61-3.29 21.77-3.29M34.02 31.58c1.78 2.01 4.6 8.26 5.04 11.38M66.24 13c.03.52.14 1.37-.07 2.1-1.54 5.51-5.79 13.38-11.42 20.15M63.48 27.16c4.73 0 22.08-3.57 27.4-3.57M75.28 29.25c.01.24.03.61-.03.95-.36 2-2.42 6.37-5.25 9.05M48.76 41.65c2.38 1.11 4.94 3.67 5.95 6.45M26.5 55.29c1.93.22 3.89.28 4.89.24 5.65-.21 37.03-3.35 45.57-3.53 1.67-.03 3.96.12 4.79.24M36 58.75c4.05 8.99 6.63 19.82 7 25.75M69.7 56c.46.77.35 2.03.15 2.77C68.32 64.62 63.54 80 62 84M15.75 88.8c1.75.45 5.17.51 6.62.39 17.38-1.44 48.38-2.69 66.78-3.5 2.43-.11 5.35.05 7.1.88"/></g><g font-size="8" fill="gray"><text transform="translate(23.5 14.5)">1</text><text transform="translate(36.5 25.5)">2</text><text transform="translate(28.5 38.48)">3</text><text transform="translate(56.75 12.5)">4</text><text transform="translate(70.5 22.5)">5</text><text transform="translate(65.5 35.5)">6</text><text transform="translate(43.25 43.5)">7</text><text transform="translate(18.75 56.1)">8</text><text transform="translate(30.5 66.5)">9</text><text transform="translate(58.5 62.5)">10</text><text transform="translate(12.5 85.5)">11</text></g></svg>