<svg xmlns="http://www.w3.org/2000/svg" width="109" height="109" class="kan-g"><g class="kgPaths" fill="none" stroke="#000" stroke-width="3" stroke-linecap="round" stroke-linejoin="round"><path d="M27.25 11.75c.04.57.09 1.47-.08 2.29C26.16 18.88 20.39 29.5 12.5 36M27.73 22.79c3.71 0 18.61-2.29 22.77-2.29M33.02 24.33c2.66 1.79 6.88 7.35 7.54 10.13M63.99 10.25c.04.56.19 1.46-.09 2.25C61.76 18.38 56.84 25.77 49 33M61.73 20.98c4.94 0 24.6-2.98 30.15-2.98M77.49 22c.03.29.07.76-.07 1.18-.85 2.5-5.73 7.97-12.42 11.32M19.88 42.11c1.49.44 4.23.51 5.73.44 15.55-.73 40.63-3.83 57.67-3.83 2.49 0 3.98.21 5.23.43M38 52.12c.75.22 3.21.06 3.97.01 8.34-.54 24.42-2.38 32.96-2.61 1.16-.03 2.22.04 3.18.23M56.91 52.57c.69 1.13.69 1.8.69 2.7 0 6.3-.01 18.63-.01 28.74"/><path d="M39.52 67.88c.65.17 2.8.1 3.46.07 6.93-.29 21.76-1.91 29.89-2.21.81-.03 2.6-.07 3.81.08M33.21 85.14c.61.17 3.77.56 4.8.47 14.39-1.18 27.5-2.62 42.88-3.03 1.65-.04 3.64.28 4.46.54"/><path d="M24.52 43.05c0 3.24-.48 49.83-.48 52.87 0 2.43.95 2.94 2.64 2.84 9.61-.61 55.01-3.44 58.13-3.44 3.12 0 5.76.2 7.69.61"/></g><g class="kgNumbers" font-size="8" fill="gray"><text transform="translate(19.5 10.5)">1</text><text transform="translate(33.5 18.5)">2</text><text transform="translate(27.5 31.5)">3</text><text transform="translate(55.5 8.5)">4</text><text transform="translate(68.5 17.5)">5</text><text transform="translate(64.25 29.5)">6</text><text transform="translate(22.5 39.5)">7</text><text transform="translate(29.5 52.5)">8</text><text transform="translate(49.25 60.53)">9</text><text transform="translate(28.5 67.5)">10</text><text transform="translate(29.5 80.38)">11</text><text transform="translate(13.5 51.5)">12</text></g></svg>