<svg xmlns="http://www.w3.org/2000/svg" width="109" height="109" class="kan-g"><g class="kgPaths" fill="none" stroke="#000" stroke-width="3" stroke-linecap="round" stroke-linejoin="round"><path d="M29.08 12.17c.08 1.18-.06 2.21-.41 3.34-1.49 4.75-5.86 12.65-12.3 17.99M29.23 23.29c2.78 0 9.92-1.57 15.2-2.35 1.76-.26 3.07-.44 4.32-.19M32.25 25.75c2.29 1.76 5.93 7.26 6.5 10M65.59 11.33c.12 1.01-.09 1.96-.62 2.84-1.59 3.58-4.84 8.18-8.97 12.2M63.98 22.16c3.8 0 15.47-1.56 22.26-2.46 1.66-.22 3-.19 4.13.14M75.08 24.08c.06.8-.08 1.56-.43 2.28-.92 2.38-3.15 6.01-6.02 8.39M51.41 31.58c.1.89-.11 2.88-.7 4.08-4.85 9.78-14.34 21.24-33.33 33.83M52.5 34.25c5.35 3.93 21.23 16.97 33.57 25.51 3.02 2.09 5.79 3.54 9.43 4.24M39.43 60.93c1.45.44 2.84.5 4.98.21C53 60 59.25 59.25 64.52 58.72c1.24-.12 3.05-.15 3.67-.04M34.57 74.92c.6.57 1.33 1.92 1.49 2.67 1.68 8.04 2.08 12.98 2.79 18.65.15 1.17.3 1.89.49 3.21M37.02 76.14c11.35-1.57 27.42-2.85 34.41-3.64 2.93-.33 4.69 2.2 4.26 4.13-1.42 6.56-2.39 9.4-4.57 16.29M40.37 96.12c8.38-.49 17.89-1.17 28.65-1.75l3.98-.21"/></g><g class="kgNumbers" font-size="8" fill="gray"><text transform="translate(21.5 13.5)">1</text><text transform="translate(34.5 19.5)">2</text><text transform="translate(27.75 33.5)">3</text><text transform="translate(57.75 12.5)">4</text><text transform="translate(69.5 18.5)">5</text><text transform="translate(65.25 30.5)">6</text><text transform="translate(42.5 34.5)">7</text><text transform="translate(68.5 44.5)">8</text><text transform="translate(42.5 59.5)">9</text><text transform="translate(25.5 82.5)">10</text><text transform="translate(38.25 72.5)">11</text><text transform="translate(42.5 92.5)">12</text></g></svg>