<svg xmlns="http://www.w3.org/2000/svg" width="109" height="109" viewBox="0 0 109 109" class="kan-g"><g fill="none" stroke="currentColor" stroke-width="3" stroke-linecap="round" stroke-linejoin="round"><path d="M27.49 10.75c.04.58.08 1.49-.08 2.32-.97 4.89-6.54 15.61-14.16 22.18M27.25 24.26c4.45 0 18.75-2.81 23.75-2.81M34 25.75c1.96 1.36 5.07 5.6 5.56 7.72M62.99 10.25c.04.51.16 1.34-.08 2.06-1.77 5.38-6.67 13.07-13.16 19.69M60.98 21.36c5.08 0 23.19-3.97 28.9-3.97M75.02 22.75c.02.21.05.55-.04.85-.53 1.8-3.57 5.74-7.73 8.15M22.27 40.23c.73.81 1.22 1.62 1.46 2.44.24.81.19 13.1.19 14.93 0 13.2-2.68 31.41-11.04 38.9M24.62 41.41c2.73-.2 14.31-1.95 16.35-2.17 3.64-.39 4.06 2.48 4.06 3.74 0 4.77-.1 31.7-.1 47.66 0 9.86-4.67 3.86-7.07 1.27"/><path d="M25.37 55.68c3.25-.33 6.48-.72 9.72-1.13.58-.07 1.14-.15 1.72-.21M23.43 70.15c3.35-.18 7.69-.52 11.03-.85.84-.08 1.7-.17 2.57-.25M56.8 37.65c1.95.35 3.83.34 5.21.17 5.52-.69 17.27-2.2 18.99-2.34-.63.05 3.75-.23 3.23 3.38-.5 3.5-1.2 7.84-2.8 10.57-3.44 5.87-3.68 2.57-6.81.03M58.19 38.86c.34.38.54 1.71.6 2.48.07.76 0 52.4-.07 57.16M59.65 63.25c2.05.74 4.78.62 6.52.25 1.74-.37 15.17-3.19 16.37-3.55 2.21-.66 3.95.54 3.53 1.9C81.43 76.84 75 88.25 64.08 96.31"/><path d="M63.44 65.28c2.91.75 17.11 20.81 27.23 29.03 1.58 1.28 2.72 2.13 4.19 2.56"/></g><g font-size="8" fill="gray"><text transform="translate(20 11.35)">1</text><text transform="translate(32.5 20.5)">2</text><text transform="translate(29.5 32.5)">3</text><text transform="translate(54 11)">4</text><text transform="translate(67.5 17.5)">5</text><text transform="translate(63.5 29.5)">6</text><text transform="translate(15.75 51.68)">7</text><text transform="translate(23.5 38.5)">8</text><text transform="translate(28.5 52.5)">9</text><text transform="translate(27.5 66.5)">10</text><text transform="translate(56.5 34.5)">11</text><text transform="translate(48.5 46.3)">12</text><text transform="translate(61.5 59.5)">13</text><text transform="translate(61.5 79.5)">14</text></g></svg>