<svg xmlns="http://www.w3.org/2000/svg" width="109" height="109" viewBox="0 0 109 109" class="kan-g"><g class="kgPaths" fill="none" stroke="currentColor" stroke-width="3" stroke-linecap="round" stroke-linejoin="round"><path d="M32.25 12c.03.46.14 1.22-.07 1.87-1.43 4.51-6.88 12.59-13.43 17.88M30.73 23.54c2.83 0 12.39-1.41 17.02-2.18 1.76-.29 3.27-.11 4.25-.11M35.89 25.96c1.65 1.55 4.26 6.35 4.67 8.76M65.25 10.75c.03.4.11 1.04-.05 1.61-1.24 4.21-4.41 10.22-8.94 15.39M64.98 21.16c3.76 0 14.82-2.25 21.89-3.18 1.84-.24 3-.35 4.51-.14M76.27 23c.02.26.05.67-.05 1.04-.49 1.77-2.84 5.26-6.22 8.09M52.04 30c.92.92 1.45 2.12 1.45 3.27 0 2.84-.08 2.76-.08 5.34M22.48 40.78c0 3.38-3.63 13.91-4.85 16.17M23.76 42.84c18.87-2.47 42.76-5.33 62.49-6.26 9.88-.46 2.88 5.91-.67 8.36M37.87 50.74c1.07 1.07 1.46 2.26 1.46 3.75l.03 41.39V101M40.25 52.54c8.3-1.17 20.67-2.87 26.38-3.51 2.45-.27 4.4.08 3.62 2.88-1 3.58-1.91 6.44-3.34 11.24M40.25 67.75C46.88 67 57.18 65.62 65 64.76c1.32-.14 2.56-.27 3.71-.38M40.5 80.59c8.56-1.11 20.19-2.65 26.25-3.33 4.19-.47 5.2.67 4.5 3.28-1 3.75-2.16 7.13-3.59 12.38M40.5 96.75c4.95-.46 16.27-1.68 25.13-2.46 1.53-.13 2.99-.25 4.33-.35"/></g><g class="kgNumbers" font-size="8" fill="gray"><text transform="translate(24.5 10.5)">1</text><text transform="translate(38.25 19.63)">2</text><text transform="translate(30.5 32.5)">3</text><text transform="translate(57.5 11.5)">4</text><text transform="translate(69.5 17.5)">5</text><text transform="translate(67.5 28.63)">6</text><text transform="translate(45.5 30.5)">7</text><text transform="translate(15.5 46.5)">8</text><text transform="translate(25.5 39.13)">9</text><text transform="translate(29.5 60.13)">10</text><text transform="translate(40.5 49.63)">11</text><text transform="translate(42.62 63.5)">12</text><text transform="translate(42.67 76.5)">13</text><text transform="translate(42.5 92.5)">14</text></g></svg>