<svg xmlns="http://www.w3.org/2000/svg" width="109" height="109" viewBox="0 0 109 109" class="kan-g"><g class="kgPaths" fill="none" stroke="currentColor" stroke-width="3" stroke-linecap="round" stroke-linejoin="round"><path d="M29.25 9.25c.04.51.08 1.32-.08 2.06C28.2 15.65 22.63 25.17 15 31M27.48 21.91c4.6 0 19.36-3.28 24.52-3.28M36.02 22.33c2.29 1.35 5.91 5.56 6.48 7.67M65.22 8.75c.04.48.17 1.26-.08 1.94-1.84 5.08-6.92 12.32-13.65 18.56M63.98 19.08c5.27 0 23.1-3.58 29.02-3.58M77.52 18.5c.02.18.05.46-.04.71-.55 1.5-3.68 4.78-7.97 6.79M37.25 32c1 1.03.93 2.17.75 4-.25 2.5-1.75 4.75-2.55 7.57-.46 1.62.41 2.02 2.7 1.67C47.63 43.76 54 43 68.88 41.44"/><path d="M39.82 35.18c4.33-.29 23.89-2.32 27.83-2.62 3.28-.25 3.51 1.59 3.15 2.69-1.8 5.5-1.55 6.5-4.3 13.75M16.25 52.59c1.47.7 4.17.76 5.64.7 15.59-.65 51.52-5.75 66.96-4.77 2.45.15 3.92.33 5.15.68M51.66 53.76c.09.32.18.83-.18 1.29-2.13 2.72-14.36 8.68-31.1 12.33M49.69 57.2c6.58 6.31 9.87 23.05 6.29 38.14-1.56 6.58-6.68.74-7.54.04"/><path d="M50.25 63.5c.08.39.18 1-.17 1.56C48.04 68.35 36.31 75.58 20.25 80M53.27 72.96c.1.54.21 1.4-.2 2.18C50.63 79.74 36.64 89.83 17.5 96M76.51 56c.04.3.09.78-.09 1.21-1.06 2.54-7.12 8.12-15.42 11.54M56 68.5c4.58 3.09 24.69 17.7 29.67 20.74 1.69 1.03 3.14 1.47 4.83 1.76"/></g><g class="kgNumbers" font-size="8" fill="gray"><text transform="translate(21.5 8.5)">1</text><text transform="translate(32 17.5)">2</text><text transform="translate(30.71 29.5)">3</text><text transform="translate(56.5 10.5)">4</text><text transform="translate(68 15)">5</text><text transform="translate(79 24.5)">6</text><text transform="translate(29.5 37.5)">7</text><text transform="translate(45.5 32.5)">8</text><text transform="translate(8.5 53.5)">9</text><text transform="translate(29.25 61.5)">10</text><text transform="translate(53.5 63.88)">11</text><text transform="translate(37.5 68.8)">12</text><text transform="translate(41.5 78.5)">13</text><text transform="translate(65.25 58.65)">14</text><text transform="translate(66.5 74.5)">15</text></g></svg>