<svg xmlns="http://www.w3.org/2000/svg" width="109" height="109" class="kan-g"><g fill="none" stroke="currentColor" stroke-width="3" stroke-linecap="round" stroke-linejoin="round"><path d="M26.75 8c.04.52.08 1.34-.08 2.08C25.7 14.47 20.13 24.1 12.5 30M26.5 19.1c4.31 0 18.16-2.46 23-2.46M32.27 20.83c2.47 1.88 6.37 7.74 6.98 10.67M61.73 7.5c.04.4.15 1.04-.07 1.61-1.67 4.21-6.29 10.22-12.41 15.39M60.25 17.17c5.49 0 25.59-3.31 31.75-3.31M74.99 19.25c.03.24.06.61-.06.95-.72 2-4.82 6.37-10.43 9.05M27.31 36.47c1.37.11 3.89.14 5.27.13 9.91-.09 36.78-2.48 45.33-2.59 2.28-.03 3.23-.01 4.44.02"/><path d="M53.28 27.12c.44.2 1.47 1.83 1.47 2.21 0 5.21.21 16.42.25 22.27"/><path d="M26.66 45.01c1.12.26 3.17.35 4.3.32 8.08-.19 37.61-2.17 44.58-2.4 1.86-.06 3.23.01 4.22.07M17.81 53.13c1.31.19 3.7.3 5 .23 12.1-.62 51.96-2.85 64.08-3.13 2.16-.05 3.84-.19 5.36.01M32.15 58.71c.55.63 1.35 1.09 1.35 1.94s-.19 26.61-.01 27.45M34.45 60.61c3.95-.14 34.92-2.44 38.52-2.44 2.27 0 3.61.84 3.61 3.18 0 5.19-.77 23.93-.77 24.54"/><path d="M34.64 67.78c6.82-.08 13.64-.42 20.45-.66 2.22-.08 4.44-.16 6.57-.23M34.95 76.4c6.51-.07 14.02-.38 20.53-.62 1.99-.07 4-.15 5.97-.21M35.75 84.5c7.86-.06 26.04-.43 38.44-.85M43.55 89c-.3 2-1.18 3.13-2.43 3.82-3.79 2.08-13.06 5.25-20.64 7.65M63 88.46c8.96 3.47 19.56 9.63 22 12.54"/></g><g font-size="8" fill="gray"><text transform="translate(18.85 7.5)">1</text><text transform="translate(32.5 15.5)">2</text><text transform="translate(26.5 28.5)">3</text><text transform="translate(51.5 7.5)">4</text><text transform="translate(65.5 13.5)">5</text><text transform="translate(62.5 25.5)">6</text><text transform="translate(20.5 37.5)">7</text><text transform="translate(44.5 31.5)">8</text><text transform="translate(19.5 45.5)">9</text><text transform="translate(7.5 54.95)">10</text><text transform="translate(22.25 66.88)">11</text><text transform="translate(36.5 58.8)">12</text><text transform="translate(37.5 66.73)">13</text><text transform="translate(37.5 74.5)">14</text><text transform="translate(37.5 82.58)">15</text><text transform="translate(23.5 94.5)">16</text><text transform="translate(53.5 94.5)">17</text></g></svg>