<svg xmlns="http://www.w3.org/2000/svg" width="109" height="109" class="kan-g"><g fill="none" stroke="currentColor" stroke-width="3" stroke-linecap="round" stroke-linejoin="round"><path d="M14.19 25.39c3.74 2.63 9.38 10.07 10.31 14.16M46.26 22.47c.02.31.04.81-.04 1.26-.51 2.66-3.42 8.49-7.4 12.06M12.1 45.94c.73.18 2.67.65 4.6.55 6.94-.36 20.67-2.19 28.52-2.78 1.93-.15 2.42-.18 3.63 0"/><path d="M30.52 15.46c.88.45 1.41 2.03 1.59 2.94s-.18 66.24-.18 71.89c0 13.46-6.06 3.34-7.43 1.96"/><path d="M32.02 45.46C28.54 57.29 21.25 72 12.25 80.73M35.12 51.57c5.53 3.16 8.88 6.93 11.65 12.15M53.88 18.26c.94.3 3.66.33 4.6.3 9.77-.34 20.02-1.81 31.86-2.4 1.56-.08 3.5.14 4.29.29M52.35 37.38c1.15.37 2.89 1.05 5.15.78 11.75-1.4 26.14-2.73 33.5-3.4 1.99-.18 4 1.25 3.25 4-1.33 4.87-2.25 10-4 18.25"/><path d="M57.25 58.75c1.25 0 25.52-1.75 35.5-1.75M57.06 38.18c.04 1.46.27 2.68.28 4.78.11 26.48-2.84 44.29-13.59 53.54"/></g><g font-size="8" fill="gray"><text transform="translate(7.35 25.5)">1</text><text transform="translate(38.5 20.5)">2</text><text transform="translate(4.5 46.5)">3</text><text transform="translate(22.04 14.5)">4</text><text transform="translate(21.22 55.5)">5</text><text transform="translate(41.5 53.5)">6</text><text transform="translate(54.5 14.5)">7</text><text transform="translate(59.5 33.5)">8</text><text transform="translate(62.5 54.5)">9</text><text transform="translate(46.5 50.5)">10</text></g></svg>