<svg xmlns="http://www.w3.org/2000/svg" width="109" height="109" class="kan-g"><g fill="none" stroke="#000" stroke-width="3" stroke-linecap="round" stroke-linejoin="round"><path d="M16.5 26c2.72 2.1 6.82 8.04 7.5 11.3M47.26 22.75c.02.34.04.87-.04 1.35-.51 2.84-3.45 9.08-7.46 12.9M15.1 45.52c.55.16 2.01.55 3.46.47 5.21-.31 20.17-2.54 26.07-3.04 1.45-.12 1.82-.16 2.73 0"/><path d="M31.52 14.96c.98.54 1.41 2.03 1.59 2.94s-.18 66.74-.18 72.39c0 10.71-5.43 1.96-6.93.46"/><path d="M33.02 45.46c-3.79 10.49-13 25.21-21.52 31.26M35.87 51.07c3.98 2.65 6.9 5.71 8.38 10.18M65.98 13.5c2.45 1.5 5.68 5.75 6.57 8.71M50.46 28.25c1.07.08 3.5.52 4.54.41 8.38-.86 23.4-2.52 34.04-2.74 1.76-.04 2.65.04 3.96.53M60 34.5c0 .5.03.9-.08 1.5-.53 3.12-5.59 13.52-9.92 18.13M59.8 42.21c2.88 1.18 6.57 4.31 7.98 7.29M84 33.25c0 .46.03.83-.09 1.38-.65 2.88-6.87 12.48-12.2 16.75M83.61 42.71c3.85 1.54 8.76 5.65 10.64 9.54M46 67.58c1.26.3 3.56.37 4.82.29 15.97-1 33.01-2.55 44.03-2.68 2.09-.02 3.35.14 4.4.29"/><path d="M70.03 56c.58.56 1.32 2.19 1.44 3.3.12 1.12-.08 30.21-.19 37.2"/></g><g font-size="8" fill="gray"><text transform="translate(10.5 26.5)">1</text><text transform="translate(39.5 21.5)">2</text><text transform="translate(7.5 46.5)">3</text><text transform="translate(21.75 15.5)">4</text><text transform="translate(20.75 56.5)">5</text><text transform="translate(40.5 52.5)">6</text><text transform="translate(60.5 14.5)">7</text><text transform="translate(52.5 25.5)">8</text><text transform="translate(51.5 37.5)">9</text><text transform="translate(63.5 42.45)">10</text><text transform="translate(73.5 35.5)">11</text><text transform="translate(87.5 42.5)">12</text><text transform="translate(46.5 64.5)">13</text><text transform="translate(57.5 58.5)">14</text></g></svg>