<svg xmlns="http://www.w3.org/2000/svg" width="109" height="109" class="kan-g"><g fill="none" stroke="#000" stroke-width="3" stroke-linecap="round" stroke-linejoin="round"><path d="M31.11 12c.39 1.53.49 2.69-.2 4.32-3.46 8.24-7.55 14.21-11.75 21.1-.56.93-.78 3.53 0 3.82 4.12 1.53 9.89 4.07 13.42 6.87"/><path d="M45.79 25.75c.36.69.47 2.96 0 3.69-6.98 10.83-17.38 25.9-26.97 35.78-2.2 2.26.55 3.56 1.98 3.1 6-1.93 18.44-5.37 26.15-7.21"/><path d="M41.96 52.2c3.12 2.77 8.05 11.39 8.83 15.7M12.96 82.35c4.73 3.46 8.36 11.51 9.46 14.65M26.51 77.88c5.36 3 9.47 9.97 10.72 12.69M40.07 72.56c5.2 2.41 9.19 8 10.4 10.18M61.49 13.87c.83.92 1.68 2.72 1.71 4.64.17 8.58-.45 59.86-.45 65.69 0 10.74 3.09 12.08 17.76 12.08 11.87 0 13.38-2.65 13.38-9.56"/></g><g font-size="8" fill="gray"><text transform="translate(24.5 12.5)">1</text><text transform="translate(39.5 26.5)">2</text><text transform="translate(41.5 49.5)">3</text><text transform="translate(6.5 85.5)">4</text><text transform="translate(20.5 80.5)">5</text><text transform="translate(33.5 75.5)">6</text></g></svg>