<svg xmlns="http://www.w3.org/2000/svg" width="109" height="109" viewBox="0 0 109 109" class="kan-g"><g fill="none" stroke="currentColor" stroke-width="3" stroke-linecap="round" stroke-linejoin="round"><path d="M29.37 15.25c.32 1.42.4 2.5-.16 4.02-2.84 7.66-6.21 13.2-9.65 19.61-.46.86-.64 3.28 0 3.55 3.38 1.42 8.12 3.78 11.02 6.38"/><path d="M41.43 28.03c.3.64.39 2.75 0 3.43-5.73 10.06-14.28 24.07-22.15 33.25-1.81 2.1.45 3.31 1.62 2.88 4.93-1.79 15.15-4.99 21.48-6.7"/><path d="M38.29 52.61c2.56 2.58 6.61 10.59 7.25 14.59M14.46 80.64c3.89 3.22 6.87 10.7 7.77 13.61M25.6 76.48c4.4 2.79 7.78 9.27 8.81 11.8M36.74 71.54c4.27 2.24 7.55 7.43 8.55 9.46M68.3 14.75c2.2 1.5 7.95 7.25 9.2 11.79M50.38 34.14c1.62.36 3.45.66 4.77.52 10.66-1.1 25.95-3.67 40.43-4.43 2.23-.12 2.38.04 4.04.67M70.36 47.33c6.14 2.17 12.39 4.17 18.09 5.09 3.23.52 3.48 2.67 2.97 5.15C90 64.5 83.73 86.03 79.67 91.45c-4.4 5.88-7.35-.23-8.66-1.02M72.1 35.75c.39 1.5.31 3.19-.15 4.88-3.19 11.65-12.43 35.18-26.78 46.2"/></g><g font-size="8" fill="gray"><text transform="translate(23.5 15.5)">1</text><text transform="translate(35.5 27.5)">2</text><text transform="translate(37.5 50.5)">3</text><text transform="translate(8.5 83.5)">4</text><text transform="translate(20.5 77.5)">5</text><text transform="translate(30.5 72.5)">6</text><text transform="translate(64.5 13.63)">7</text><text transform="translate(49.5 31.5)">8</text><text transform="translate(76.5 47.5)">9</text></g></svg>