<svg xmlns="http://www.w3.org/2000/svg" width="109" height="109" viewBox="0 0 109 109" class="kan-g"><g fill="none" stroke="currentColor" stroke-width="3" stroke-linecap="round" stroke-linejoin="round"><path d="M25.87 16.25c.32 1.42.4 2.5-.16 4.02-2.84 7.66-6.21 13.2-9.65 19.61-.46.86-.64 3.28 0 3.55 3.38 1.42 8.12 3.78 11.02 6.38"/><path d="M37.93 29.03c.3.64.39 2.75 0 3.43-5.73 10.06-14.28 24.07-22.15 33.25-1.81 2.1.45 3.31 1.62 2.88 4.93-1.79 15.15-4.99 21.48-6.7"/><path d="M34.79 53.61c2.56 2.58 6.61 10.59 7.25 14.59M10.96 81.64c3.89 3.22 6.87 10.7 7.77 13.61M22.1 77.48c4.4 2.79 7.78 9.27 8.81 11.8M33.24 72.54c4.27 2.24 7.55 7.43 8.55 9.46M65.42 13c.06 1.05-.21 2.79-.62 4.2-2.88 9.8-8.68 28.02-20.98 40.23M66.08 16.58c4.04 6.91 21.43 29.48 25.88 34.54 1.51 1.72 3.45 2.45 4.96 2.94M55.05 51.89c.48.24 2.71.26 3.19.24 4.99-.27 10.13-2.16 17.26-2.2.8-.01 1.96.11 2.36.23M50.59 67.33c.47.59 1.53 2.01 1.65 2.79 1.56 10.15 2.74 16.95 3.8 25.41M53.31 68.34c10.94-1.59 22.62-2.52 28.08-3.29 1.99-.28 3.19 1.67 2.91 3.32-1.18 6.85-1.89 12.24-4.32 21.83M56.25 93.31c6.41-.87 16.32-1.61 25.72-2.25"/></g><g font-size="8" fill="gray"><text transform="translate(20.5 15.5)">1</text><text transform="translate(35.5 26.5)">2</text><text transform="translate(35.5 51.5)">3</text><text transform="translate(4.5 84.5)">4</text><text transform="translate(16.5 79.5)">5</text><text transform="translate(26.5 74.5)">6</text><text transform="translate(56.5 18.5)">7</text><text transform="translate(73.5 22.85)">8</text><text transform="translate(57.5 49.5)">9</text><text transform="translate(42.5 75.5)">10</text><text transform="translate(52.5 64.5)">11</text></g></svg>