<svg xmlns="http://www.w3.org/2000/svg" width="109" height="109" class="kan-g"><g fill="none" stroke="currentColor" stroke-width="3" stroke-linecap="round" stroke-linejoin="round"><path d="M26.12 16c.32 1.42.4 2.5-.16 4.02-2.84 7.66-6.21 13.2-9.65 19.61-.46.86-.64 3.28 0 3.55 3.38 1.42 8.12 3.78 11.02 6.38"/><path d="M38.18 28.78c.3.64.39 2.75 0 3.43-5.73 10.06-14.28 24.07-22.15 33.25-1.81 2.1.45 3.31 1.62 2.88 4.93-1.79 15.15-4.99 21.48-6.7"/><path d="M35.04 53.36c2.56 2.58 6.61 10.59 7.25 14.59M11.21 81.39c3.89 3.22 6.87 10.7 7.77 13.61M22.35 77.23c4.4 2.79 7.78 9.27 8.81 11.8M33.49 72.29c4.27 2.24 7.55 7.43 8.55 9.46M60.27 12.25c.05.77.1 1.98-.09 3.09C59.05 21.85 51 37 43.75 44.88M54.53 33.5c1.25.75 3 1 5 .5s23.26-4.58 28.25-5c2.97-.25 5.27.45 5.25 5.75-.03 6.25-2.38 38-10 57.25-2.28 5.75-5.05 1.88-8-1.25M53.02 45.12c.26.75.52 1.13.52 2.13s-.09 30 0 31"/><path d="M53.97 46.68c1.48-.13 16.4-2.04 17.75-2.19 1.12-.13 1.84 1.39 1.76 2.13-.18 1.5-.35 30.44-.35 31.19"/><path d="M54.23 60.74c2 0 10.03-1.19 12.29-1.19M54.14 75.43c4.07-.54 13.31-1.02 18.37-1.48"/></g><g font-size="8" fill="gray"><text transform="translate(21.25 16.25)">1</text><text transform="translate(35.25 26.25)">2</text><text transform="translate(35.25 51.25)">3</text><text transform="translate(5.25 83.25)">4</text><text transform="translate(16.25 78.25)">5</text><text transform="translate(27.25 74.25)">6</text><text transform="translate(51 14.25)">7</text><text transform="translate(61.25 30.25)">8</text><text transform="translate(46.25 52.28)">9</text><text transform="translate(54.25 44.25)">10</text><text transform="translate(56.25 57.25)">11</text></g></svg>