<svg xmlns="http://www.w3.org/2000/svg" width="109" height="109" class="kan-g"><g class="kgPaths" fill="none" stroke="currentColor" stroke-width="3" stroke-linecap="round" stroke-linejoin="round"><path d="M18.88 39.62c.94 1.01 1.38 1.78 1.62 3.22 1.07 6.26 2.25 14.16 3.19 21.13.27 1.98.51 3.88.73 5.65M21.4 42.22c21.48-2.47 44.98-4.6 63.5-6.01 3.91-.3 5.49 1.68 4.86 5.43-.74 4.43-2.21 11.11-3.54 16.99-.49 2.14-.95 4.14-1.36 5.85"/><path d="M41.22 41.46c.72.72 1.15 1.75 1.29 3.15.57 5.88 1.48 16.17 1.67 19.16M64.55 39.4c.58 1.22.57 2.28.43 3.74-.63 6.45-1.85 14.74-2.47 18.74M25.07 66.93C30.09 66.2 70 61.75 84.43 62"/></g><g class="kgNumbers" font-size="8" fill="gray"><text transform="translate(13.25 49.13)">1</text><text transform="translate(22.25 38.05)">2</text><text transform="translate(35.25 49.25)">3</text><text transform="translate(57.25 47)">4</text><text transform="translate(28.25 62.25)">5</text></g></svg>