<svg xmlns="http://www.w3.org/2000/svg" width="109" height="109" class="kan-g"><g class="kgPaths" fill="none" stroke="currentColor" stroke-width="3" stroke-linecap="round" stroke-linejoin="round"><path d="M19.75 15.75c.41.29.83.53 1.01.89 1.42 2.85 3.91 11.74 4.88 16.86M22.72 17.12c5.93-.83 54.28-4.62 60.38-4.39 1 .04 2.83 1.45 2.57 3.03-.55 3.29-1.92 8.91-3.39 13.61"/><path d="M42.79 16.86c.2 1.79 1.62 10.06 1.82 12.08M62.79 15.29c-.15 2.86-.92 10.33-1.23 12.09M25.75 31.76c3.05-.56 50.5-4.01 56.75-3.26M18.25 44.31c1.8.65 5.08.84 6.88.65 13.62-1.46 40.52-4.08 60.25-5.25 2.99-.18 4.79.31 6.29.63M61 44.25c.13.9.1 2.51-.75 3.6-6 7.65-21.5 20.9-42.5 32.9M51.77 57.25c1.39.61 2.22 2.74 2.5 3.95.28 1.22 0 29.77-.28 37.37M63.25 59.5c9.18 3.57 20.48 12.22 26 20.25"/></g><g class="kgNumbers" font-size="8" fill="gray"><text transform="translate(11.25 22.25)">1</text><text transform="translate(24.25 13.25)">2</text><text transform="translate(35.25 24.25)">3</text><text transform="translate(55.25 23.25)">4</text><text transform="translate(28.47 28.25)">5</text><text transform="translate(10.25 44.25)">6</text><text transform="translate(47.25 51.93)">7</text><text transform="translate(46.25 71.25)">8</text><text transform="translate(62.25 56.25)">9</text></g></svg>