<svg xmlns="http://www.w3.org/2000/svg" width="109" height="109" class="kan-g"><g fill="none" stroke="currentColor" stroke-width="3" stroke-linecap="round" stroke-linejoin="round"><path d="M21.93 13.57c.23.27.46.49.56.82.79 2.64 2.96 11.37 3.5 16.11M23.72 15.36C32.75 14 77 11 83.61 10.73c2.15-.09 3.64 1.02 3.55 3.38-.12 3.14-2.4 9.35-3.86 13.77"/><path d="M42.42 14.61c.2 1.72 1.62 9.65 1.82 11.58M64.81 12.79c-.1 2.86-.58 10.33-.77 12.09M27.36 28c3.08-.43 49.89-3.75 56.81-3.76M53.66 37.35c2.4 0 14.54-.88 21.55-1.81 2.51-.33 3.62-.15 5.12-.23"/><path d="M51.38 30.13c1.1.23 1.93 2.71 2.15 3.17.22.46.08 9.65-.14 12.5M30.16 46.83c.66.9 1.54 1.19 1.75 2.4.57 3.3 3.09 15.75 3.11 18.52M32.59 47.87c4.58-.15 39.52-3.28 43.66-2.91 1.64.15 2.84 1.69 2.59 3.27C78 53.5 76.87 60.04 74.72 65"/><path d="M33.26 55.69c7.27-.31 14.54-.78 21.8-1.17 2.22-.12 4.44-.24 6.57-.35M35.82 65.15c11.12-.67 32.03-2.14 37.68-2.14M17.13 79.88c1.76.3 5 .46 6.74.3 18.38-1.68 47.29-2.95 61.6-2.93 2.93 0 4.69.15 6.16.3"/><path d="M52.98 65.5c.44.51.88 2.34.97 3.37.09 1.03-.06 25.22-.15 31.63"/></g><g font-size="8" fill="gray"><text transform="translate(14.1 17.6)">1</text><text transform="translate(25.41 11.6)">2</text><text transform="translate(36.25 22.25)">3</text><text transform="translate(57.25 21.25)">4</text><text transform="translate(29.25 25.25)">5</text><text transform="translate(58.25 33.93)">6</text><text transform="translate(44.25 36.25)">7</text><text transform="translate(23.25 54.25)">8</text><text transform="translate(34.25 44.25)">9</text><text transform="translate(37.25 54.7)">10</text><text transform="translate(38.25 63.25)">11</text><text transform="translate(6.25 82.55)">12</text><text transform="translate(42.25 73.48)">13</text></g></svg>