<svg xmlns="http://www.w3.org/2000/svg" width="109" height="109" class="kan-g"><g class="kgPaths" fill="none" stroke="currentColor" stroke-width="3" stroke-linecap="round" stroke-linejoin="round"><path d="M15.04 14.59c2.8 2.52 7.23 10.35 7.93 14.27M39.88 13.14c.09 1.03-.03 2.02-.38 2.98-1.88 3.75-4.85 8.33-9.83 14.32M12.21 34.14c1.82.57 3.57.46 5.44.31 5.49-.42 14.26-1.45 19.97-2.05 1.58-.17 2.76-.41 4.49-.23M12.93 48.19c1.3.53 3.58.4 4.94.26 5.25-.55 13.62-1.95 19.02-2.73 1.46-.21 3.04-.37 4.45-.02M10 65.47c.74.75 2.81.98 3.79.69C22 63.75 31.38 61 41.16 58.42"/><path d="M26.9 34.81c.89.9 1.02 2.5 1.02 3.31.08 37-1.17 46.13-13.17 57.38M42.88 25.82c2.12.56 3.1.45 4.97.09 3.2-.6 9.49-2.11 13.94-3.11 3-.68 4.51.39 4.51 3.57 0 7.7.01 50.94.01 62.25 0 9.17-5.69 1.5-7.75-.67"/><path d="M48.03 40.44c2.63 1.25 6.79 5.14 7.45 7.09M47.25 68.3c1.75.7 2.5.28 3.58-1.24.64-.89 4.81-6.84 7.53-11.14M73.21 24.79c1.79.46 3.61.26 5.47-.16 3.46-.78 9.01-2.13 12.83-2.94 2.98-.63 4.77.04 4.77 3.31 0 6.28.01 52.56.01 63.88 0 8.67-5.67 1.12-7.25-.42"/><path d="M78.06 39.81c2.45 1.23 5.44 4.57 6.95 6.96M76.28 65.18c1.22.57 2.62.48 3.78-.71 2.19-2.22 5.83-5.82 8.58-8.81"/></g><g class="kgNumbers" font-size="8" fill="gray"><text transform="translate(8.25 14.25)">1</text><text transform="translate(30.25 12.25)">2</text><text transform="translate(5 35.25)">3</text><text transform="translate(5.25 49.25)">4</text><text transform="translate(2.25 66.25)">5</text><text transform="translate(20.25 43.25)">6</text><text transform="translate(44.25 23.25)">7</text><text transform="translate(45.25 38.25)">8</text><text transform="translate(39 70.25)">9</text><text transform="translate(69.25 21.25)">10</text><text transform="translate(71 37.13)">11</text><text transform="translate(69 61.25)">12</text></g></svg>