<svg xmlns="http://www.w3.org/2000/svg" width="109" height="109" class="kan-g"><g class="kgPaths" fill="none" stroke="#000" stroke-width="3" stroke-linecap="round" stroke-linejoin="round"><path d="M25.25 33.59c2.05.95 5.76.86 7.88.59 10.24-1.31 21.19-2.92 33.12-4.5 2.42-.32 4.74-.65 7.12.01"/><path d="M51.17 14.62c1.04 1.04 1.27 2.38 1.27 3.89 0 8.95-.07 26.62-.07 29.75M9.88 53.01c4.38 1.74 9.19.85 13.48.22 15.9-2.35 39.02-5.23 65.53-6.46 3.92-.18 8.3-.38 12.13.7"/><path d="M86.84 22.6c-.11 2.06-1.33 4.57-2.92 6.38C63.48 52.19 39 71.88 8 86.75"/></g><g class="kgNumbers" font-size="8" fill="gray"><text transform="translate(20.25 31.25)">1</text><text transform="translate(45 13.25)">2</text><text transform="translate(5 50.25)">3</text><text transform="translate(81 21)">4</text></g></svg>