<svg xmlns="http://www.w3.org/2000/svg" width="109" height="109" class="kan-g"><g fill="none" stroke="currentColor" stroke-width="3" stroke-linecap="round" stroke-linejoin="round"><path d="M42.48 21.41c.07.32.33.97-.15 1.27-8.07 5.09-16.3 9.42-26.58 12.08M12.97 42.61c.51.34 3.94.94 4.46.91 5.31-.39 16.08-1.58 24.5-2.95.84-.14 2.36.16 2.79.33M9.84 55.8c.42.31 3.11.93 4.23.93 5.85.01 19.16-2.11 28.69-3.35 1.11-.15 2.11.31 2.81.62"/><path d="M30.01 15c.65.45 1.17 3.35 1.17 4.3 0 3.62.09 70.54.09 71.2 0 11.5-5.26 2.25-6.51 1"/><path d="M30.53 55.36c-3.67 9.95-13.16 25.03-20.79 30.66M34.25 60.98c4.93 2.65 8.54 6.74 11.5 11.32M56.49 27.37c1.67.32 4.14.26 4.61.27 5.66.11 17.21-1.46 22.71-2.07.76-.09 3.57-.37 3.95-.24M50.5 48.54c.84.29 3.95.33 4.79.29 7.46-.33 27.13-3.14 37.47-2.94 1.4.03 3.29.14 3.99.28M69.54 50.5c.3 1.26.38 2.91-.24 4.43-4.66 11.29-11.23 22.56-18.06 33.05-1.86 2.85-.82 4.18 2.1 3.6 6.13-1.21 20.58-5 34.41-8.08"/><path d="M78.13 70.33c5.53 4.59 13.53 18.75 14.91 25.89"/></g><g font-size="8" fill="gray"><text transform="translate(38.25 17.25)">1</text><text transform="translate(6.25 45.25)">2</text><text transform="translate(3.25 57.25)">3</text><text transform="translate(19.19 15.25)">4</text><text transform="translate(18.25 67.25)">5</text><text transform="translate(41.25 63.51)">6</text><text transform="translate(54.25 23.25)">7</text><text transform="translate(49.25 45.25)">8</text><text transform="translate(60.25 59.25)">9</text><text transform="translate(75.25 67.25)">10</text></g></svg>