<svg xmlns="http://www.w3.org/2000/svg" width="109" height="109" viewBox="0 0 109 109" class="kan-g"><g fill="none" stroke="currentColor" stroke-width="3" stroke-linecap="round" stroke-linejoin="round"><path d="M14.94 20.72c.98.43 2.78.48 3.77.43 7.8-.4 23.3-3.15 34.86-3.89 1.63-.1 2.62.2 3.44.42M24.43 23.07c.32 1.18 1.28 2.33 1.28 3.72 0 1.39-.16 41.3-.16 46.29M46 20.5c1 1.25 1.1 1.46 1.1 2.85s.16 60.03.16 71.4M26.8 37.48c3.43-.65 6.36-1.27 9.81-1.75.7-.1 1.39-.19 2.09-.27M26.49 51.95c3.08-.49 6.14-1.11 9.22-1.66.71-.13 1.43-.25 2.19-.37"/><path d="M13.25 76.74c1 .51 2.83.64 3.67.27 3.38-1.48 25.02-11.81 30.21-14.17M63.92 17.42c.83.08 2.32.62 3.4.44 4.63-.81 17.17-3.12 19.6-3.94 3-1 6 1 4.67 3.33s-10 15.67-12.33 19M78.75 36.75c21.75 12 17.5 40.75 3.23 33.16"/><path d="M67.58 18.75c.22 1 0 71.25-.22 77.5"/></g><g font-size="8" fill="gray"><text transform="translate(15.25 17.25)">1</text><text transform="translate(18.25 31.25)">2</text><text transform="translate(38.75 27.5)">3</text><text transform="translate(30.25 33.25)">4</text><text transform="translate(30.25 48.25)">5</text><text transform="translate(5.25 77.25)">6</text><text transform="translate(63.25 15.25)">7</text><text transform="translate(76.25 46.25)">8</text><text transform="translate(60.25 26.78)">9</text></g></svg>