<svg xmlns="http://www.w3.org/2000/svg" width="109" height="109" class="kan-g"><g fill="none" stroke="currentColor" stroke-width="3" stroke-linecap="round" stroke-linejoin="round"><path d="M12.05 19.3c.75.35 2.13.4 2.88.35 5.97-.33 17.83-2.62 26.68-3.23 1.25-.09 2.01.17 2.63.35M19.37 21.57c.63.68.99 2.33.99 3.72 0 1.39-.12 41.3-.12 46.29M21.21 36.91c5.29-.91 9.02-1.38 15.3-2.18M20.96 52.1c5.6-.73 7.84-1.34 14.68-1.85M12.25 74.93c.75.82 2.38.9 2.94.67 2.24-.92 16.62-7.87 20.06-9.35"/><path d="M36.01 20.5c.77 1.25.85 1.46.85 2.85s.12 61.03.12 72.4M64.89 11.75c.07.97.32 2.56-.14 3.92-2.92 8.59-11 26.58-23 36.58M65.67 14.54c4.76 5.28 22.08 26.65 26.1 31.03 1.37 1.49 3.12 2.13 4.48 2.55M54.533 45.646c1.76.72 3.84.36 5.65.14 5.4-.66 13.08-1.76 18.48-2.24 1.88-.17 3.54-.23 5.37.21M49.13 57.325c.65.471 1.41.773 3.3.416 5.107-.824 31.843-2.317 33.363-2.467 1.52-.15 4.28-.29 3.95 2.89-.43 4.17-4.383 16.352-7.703 23.386-1.89 3.94-3.18 3.45-6.23.46"/><path d="M63.804 57.952c.87.87 1.8 2 1.8 3.5-.22 13.545.203 25.737-.18 39.278"/></g><g font-size="8" fill="gray"><text transform="translate(4.25 19.25)">1</text><text transform="translate(12.41 30.25)">2</text><text transform="translate(23.25 33.25)">3</text><text transform="translate(23.25 48.25)">4</text><text transform="translate(4.25 74.25)">5</text><text transform="translate(29.25 27.25)">6</text><text transform="translate(57.25 11.93)">7</text><text transform="translate(73.25 19.25)">8</text><text transform="translate(57.3 43.6)">9</text><text transform="translate(44.2 66.8)">10</text><text transform="translate(67 64.8)">11</text></g></svg>