<svg xmlns="http://www.w3.org/2000/svg" width="109" height="109" class="kan-g"><g fill="none" stroke="currentColor" stroke-width="3" stroke-linecap="round" stroke-linejoin="round"><path d="M8.75 21.01c.73.28 1.72.69 2.46.66 5.83-.26 18.04-2.67 26.07-3.6 1.22-.14 2.7.58 3.31.73M16.75 24.25c1 1 1.27 2.31 1.27 3.59 0 1.28-.27 39.81-.27 44.41M32.25 21.58c1 .92 1.72 2.23 1.72 3.64 0 1.4.11 59.51.11 71.03M18.04 38.49c2.56-.36 5.12-.78 7.67-1.19.64-.1 1.28-.2 1.93-.3M18.13 53.06c2.48-.35 4.93-.85 7.39-1.31.6-.11 1.22-.22 1.85-.33"/><path d="M10.92 75.08c.59.33 2.33.23 2.83 0 2.01-.95 16.39-8.23 19.47-9.74M61.68 10.75c1.99 1 6.12 4.75 7.48 7.29M44.06 23.47c0 2.52-3.09 11.1-3.98 12.78M44.58 26.15c6.33-.9 40.01-5.09 45.14-5.43 8.02-.54 5.02 4.28 1.69 7.7M49.04 32.97c.25 1.5-2.62 8.28-4.62 10.78M54.58 30.75C59.25 41 67 44.5 78.79 43.64c5.02-.37 5.26-3.06 1.75-6.44"/><path d="M66.9 30.98c1.47 3.24 3.35 6.02 4.7 2.52M81.2 29.13c4.01 1.44 7.02 2.75 10.28 7.21M47.92 51.08c.19.23 1.45 1.49 1.54 1.77.71 2.47 1.21 6.56 1.63 10.39M49.82 52.33c6.03-.66 34.6-3.28 37.15-3.56.93-.1 2.7 1.24 2.45 2.46-.52 2.55-1.42 4.52-2.16 8.9"/><path d="M61.63 52.62c.87.13 1.06 1.1 1.18 2.13.3 2.54.36 5.34.45 6.61M74.09 51.08c0 .42.5 1.4.51 1.92.05 3.01-.22 6.77-.28 8.29"/><path d="M38.92 63.42c1.74.6 4.1 1.29 5.5 1.17 10.52-.93 37.8-3.62 48.67-4.67 2.02-.19 4.17-.17 6.33.33M44.42 73.08c.87.35 3.96 1.05 4.83 1 9.25-.58 28.67-2.83 39.5-3.67 1.44-.11 3.94.16 4.67.33M68.42 75.25c.05.28 1.31 1.95 1.31 3.72 0 6.21.19 9.96.19 13.02 0 8.57-5.68 1.15-6.67.42"/></g><g font-size="8" fill="gray"><text transform="translate(3.25 21.25)">1</text><text transform="translate(10.25 31.25)">2</text><text transform="translate(26.25 28.25)">3</text><text transform="translate(21.25 34.25)">4</text><text transform="translate(21.25 49.25)">5</text><text transform="translate(2.25 76.25)">6</text><text transform="translate(57.25 11.25)">7</text><text transform="translate(36.74 27.63)">8</text><text transform="translate(46.12 23.66)">9</text><text transform="translate(44.04 33.07)">10</text><text transform="translate(48.49 41.25)">11</text><text transform="translate(56.37 31.87)">12</text><text transform="translate(70.61 30.5)">13</text><text transform="translate(36.49 54.51)">14</text><text transform="translate(50.25 49.25)">15</text><text transform="translate(51.74 59.5)">16</text><text transform="translate(63.61 58)">17</text><text transform="translate(35.62 61.75)">18</text><text transform="translate(36.25 72.25)">19</text><text transform="translate(57.62 81.62)">20</text></g></svg>