<svg xmlns="http://www.w3.org/2000/svg" width="109" height="109" viewBox="0 0 109 109" class="kan-g"><g fill="none" stroke="currentColor" stroke-width="3" stroke-linecap="round" stroke-linejoin="round"><path d="M49.35 10c2.15 1 5.4 5.5 6.56 8.1M17.5 25c1.5.75 5.25 1.25 9 1 8.29-.55 40.5-3 55.25-4 2.15-.15 6.65-.38 8.25.5M23.96 26.24c.93.31 1.39 1.2 1.39 1.63v6.63c0 7.75 8.4 6.95 24.9 6.95 19.5 0 26.25-.95 30.5-1.95M30.92 51.42c1.14.67 1.77 2.06 1.77 2.85 0 6.24.21 41.95.06 43.49M33.58 53.08c3.1-.2 35.25-2.67 37.55-2.88 4.13-.37 4.68 2.36 4.68 3.42 0 2.39-.23 23.51-.23 36.29 0 13.58-6.63 2.77-7.67 2"/><path d="M34.08 64.93c7.01-.67 14.03-1.24 21.05-1.78 1.86-.14 3.71-.28 5.52-.42M34.08 77.08c6.65-.44 13.3-.93 19.95-1.39 1.93-.13 3.87-.26 5.78-.39"/></g><g font-size="8" fill="gray"><text transform="translate(44.25 11.25)">1</text><text transform="translate(10.25 24.25)">2</text><text transform="translate(17.25 36.25)">3</text><text transform="translate(23.25 60.25)">4</text><text transform="translate(35.25 50.25)">5</text><text transform="translate(37.21 61.25)">6</text><text transform="translate(37.25 73.25)">7</text></g></svg>