<svg xmlns="http://www.w3.org/2000/svg" width="109" height="109" viewBox="0 0 109 109" class="kan-g"><g class="kgPaths" fill="none" stroke="currentColor" stroke-width="3" stroke-linecap="round" stroke-linejoin="round"><path d="M19.41 17.74c.8.8 1.2 2.01 1.2 3.55 0 40.46-1.61 53.46-9.61 67.1M21.56 19.56c4.73-1.14 12.33-2.99 16.57-3.55 3.21-.43 4.16.95 4.16 3.99-.01 8.26-.1 44.7-.1 61.55 0 12.95-3.66 6.17-6.78 3.04"/><path d="M21.81 37.2c7.44-1.08 13.44-1.95 19.49-2.58M21 55.16c6-.66 14.28-1.53 20.15-1.95M55.87 21.16c2.25.47 4.39.2 6.13-.01 5.43-.66 15.22-1.92 21.76-2.53 1.9-.18 3.85-.29 5.71.25M49.63 44.48c2.32.74 4.9.23 7.25-.01 9.72-.98 24.58-2.42 33.51-3.08 2.22-.16 4.3-.3 6.49.12"/><path d="M72.06 22.63c1.09 1.09 1.54 2.62 1.54 4.33 0 2.92-.06 45.71-.08 62.29 0 3.5-.01 5.83-.01 6.38"/></g><g class="kgNumbers" font-size="8" fill="gray"><text transform="translate(12.75 27.13)">1</text><text transform="translate(23.5 15.13)">2</text><text transform="translate(24.75 33.05)">3</text><text transform="translate(24.58 51.5)">4</text><text transform="translate(53.5 18.13)">5</text><text transform="translate(48.5 41.5)">6</text><text transform="translate(65.25 30.5)">7</text></g></svg>