<svg xmlns="http://www.w3.org/2000/svg" width="109" height="109" viewBox="0 0 109 109" class="kan-g"><g class="kgPaths" fill="none" stroke="currentColor" stroke-width="3" stroke-linecap="round" stroke-linejoin="round"><path d="M54.12 9.48c.95.95 1.32 2.15 1.32 3.52 0 .95.05 15.12.05 21.38M57.96 21.27c3.04-.27 9.79-1.52 14.37-1.79 1.62-.1 2.02-.23 3.04 0M30.91 19.93c1.02 1.02 1.32 2.45 1.32 3.77 0 2.67-.1 7.38-.1 13.67M18 38.94c4.25.68 7.67.27 11.24-.26 15.76-2.31 34.88-4.31 50.65-5.41 3.65-.25 7.01-.06 10.61.66M38.56 47.73c.7.89.89 2.02.89 3.42 0 2.6.03 26.3.02 38.85 0 3.75-.01 6.35-.04 6.81M40.39 48.97c2.49-.2 25.36-3.42 27.22-3.54 2.77-.18 4.15 1.32 4.15 4.94 0 5.39-.01 27.17-.01 41.75 0 10.36-5.34 3.58-7.42 1.79"/><path d="M40.64 61.87c9.74-1.12 21.86-2.37 30.17-2.84M40.51 75.87c7.61-.87 22.19-2.39 29.88-2.79"/></g><g class="kgNumbers" font-size="8" fill="gray"><text transform="translate(44.25 9.5)">1</text><text transform="translate(60.75 17.5)">2</text><text transform="translate(21.75 19.63)">3</text><text transform="translate(15.5 36.05)">4</text><text transform="translate(31.5 55.63)">5</text><text transform="translate(39.75 45.5)">6</text><text transform="translate(44.25 58.5)">7</text><text transform="translate(44.21 72.5)">8</text></g></svg>