<svg xmlns="http://www.w3.org/2000/svg" width="109" height="109" class="kan-g"><g fill="none" stroke="currentColor" stroke-width="3" stroke-linecap="round" stroke-linejoin="round"><path d="M19.22 19.99c.52.95.88 1.88 1.05 2.8.17.92.15 25.9-.41 33.63-.8 11-2.61 22.08-8.61 34.72M20.82 21.06c2.1-.06 11.65-2.34 13.21-2.46 2.8-.23 3.5 1.31 3.5 2.67 0 3.23-.53 46.22-.53 64.55 0 10.69-4.41 3.05-6.2 1.54"/><path d="M20.82 39.95c2.77-.21 5.51-.72 8.25-1.16.73-.12 1.46-.23 2.18-.34M20.26 57.4c2.63-.05 5.77-.41 8.38-.72.77-.09 1.55-.18 2.33-.28M48.2 20.56c.31.66 1.33 2.6 1.49 3.41 1.56 8.28 3.15 21.23 3.97 33.53M49.67 22c12.02-1.52 31.07-4.11 39.34-4.77 3.04-.24 4.86 1.17 4.75 3.94-.24 6.59-2.76 30.08-3.96 34.13"/><path d="M52.15 37.2c8.33-1.16 16.78-1.71 25.16-2.31.99-.07 1.97-.14 2.93-.21M53.74 53.88c12.01-.88 25.22-2.42 36.66-3.05"/><path d="M69.36 22.19c.89.56 1.44 2.03 1.44 3.81-.03 8.98.3 66.54.3 69.47"/></g><g font-size="8" fill="gray"><text transform="translate(12.25 26.25)">1</text><text transform="translate(22.25 17.25)">2</text><text transform="translate(24.25 36.25)">3</text><text transform="translate(24.25 54.25)">4</text><text transform="translate(41.25 29.25)">5</text><text transform="translate(51.25 18.25)">6</text><text transform="translate(56.25 33.25)">7</text><text transform="translate(57.25 50.25)">8</text><text transform="translate(62.25 28.25)">9</text></g></svg>