<svg xmlns="http://www.w3.org/2000/svg" width="109" height="109" class="kan-g"><g fill="none" stroke="#000" stroke-width="3" stroke-linecap="round" stroke-linejoin="round"><path d="M18.65 22.31c.37.88.62 1.77.74 2.65.12.88.18 18.12.12 20.11-.25 9.5-.02 29.69-9.58 44.65M20.14 23.19c1.49-.22 13.61-1.7 14.74-1.7 2.12.01 2.73 1.87 2.48 3.2-.24 1.27-.37 43-.37 60.88 0 11.48-5.48 2.98-6.71.99"/><path d="M20.14 40.69c2.76-.37 5.04-.65 7.82-.89l2.13-.18M20.51 58.14c2.52-.42 5.09-.65 7.63-.88.72-.07 1.44-.13 2.15-.19M58.85 15.5c.04.63.23 1.68-.08 2.54-2.18 6.03-5.42 14.78-14.97 24.33M56.35 30.03c1.18.72 2.83.97 4.71.48 1.89-.48 26.06-4.09 30.78-4.33 4.71-.24 5.2 2.37 4.95 7.49-.29 5.83-4.04 41.08-12.7 57.67-2.4 4.59-4.76 1.81-7.54-1.21"/><path d="M70.37 40.43c.24.65.44 1.14.12 2.3-2.88 10.32-8.12 19.56-15.22 24.14"/><path d="M56.83 45.25c5.73 3.97 11.8 10.87 15.08 18.69M48.57 48.9c.36.22.89 2.48.81 2.92-.79 4.31-1.78 15.54-2.12 22.63-.06 1.33.82 1.87 1.51 1.67 8.8-2.6 27.53-3.94 31.3-4.16"/><path d="M81.14 43.34c.36.22 1.13 1.65 1.21 2.1.07.44-1.34 19.06-2.71 31.45"/></g><g font-size="8" fill="gray"><text transform="translate(12.5 27.5)">1</text><text transform="translate(20.25 19.63)">2</text><text transform="translate(23.5 37.5)">3</text><text transform="translate(23.5 54.5)">4</text><text transform="translate(50.5 16.5)">5</text><text transform="translate(64.5 26.5)">6</text><text transform="translate(64.5 39.5)">7</text><text transform="translate(54.5 43.18)">8</text><text transform="translate(41.5 51.5)">9</text><text transform="translate(76.5 40.63)">10</text></g></svg>