<svg xmlns="http://www.w3.org/2000/svg" width="109" height="109" class="kan-g"><g fill="none" stroke="#000" stroke-width="3" stroke-linecap="round" stroke-linejoin="round"><path d="M54.75 12.25c.25 1.25.66 2.93.28 4.59C51.5 32.25 39.25 53 17 61.25M52.75 27c5.53 5.3 29.36 22.61 35.46 26.49 2.07 1.32 4.73 1.88 6.79 2.26M20.75 21.35c.39.13 1.12.12 1.51.13 3.74.02 15.17-.94 17.61-.8.66.04 1.05.06 1.38.12"/><path d="M18.5 34.06c.43.17 1.23.16 1.66.17 4.1.03 16.65-1.24 19.32-1.04.72.05 1.16.08 1.52.16M67.5 19.6c.39.13 1.12.12 1.51.13 3.74.02 15.17-.94 17.61-.8.66.04 1.05.06 1.38.12M67.75 31.85c.39.13 1.12.12 1.51.13 3.74.02 15.18-.95 17.61-.8.66.04 1.05.06 1.38.12M38.82 53.2c.6.8 1 1.61 1.2 2.41s.28 38.93.2 40.74M41.23 54.81c2.41-.2 24.02-2.59 25.81-2.82 3.21-.4 4.42 2.61 4.02 3.82-.39 1.16-.6 18.56-.6 34.83 0 10.44-4.82 3.61-6.83 1.81"/><path d="M41.23 66.27c4.64-.55 9.29-.95 13.94-1.37 1.35-.12 2.7-.24 4.03-.36M40.83 78.14c4.77-.45 9.55-.85 14.33-1.23 1.41-.11 2.82-.22 4.21-.33"/></g><g font-size="8" fill="gray"><text transform="translate(47.44 14.13)">1</text><text transform="translate(59.5 29.5)">2</text><text transform="translate(19.5 18.5)">3</text><text transform="translate(16.5 31.5)">4</text><text transform="translate(65.5 16.5)">5</text><text transform="translate(65.5 29.5)">6</text><text transform="translate(32.5 63.5)">7</text><text transform="translate(44.5 51.5)">8</text><text transform="translate(44.5 63.5)">9</text><text transform="translate(43.5 74.46)">10</text></g></svg>