<svg xmlns="http://www.w3.org/2000/svg" width="109" height="109" viewBox="0 0 109 109" class="kan-g"><g fill="none" stroke="currentColor" stroke-width="3" stroke-linecap="round" stroke-linejoin="round"><path d="M52.06 7.75c1.73.59 5.39 4.44 5.74 5.63M22.74 19.68c1.43.52 4.07.6 5.5.52 14.93-.87 37.14-4.3 55.86-4.51 2.39-.03 3.83.25 5.02.51M27.34 22.34c.04 1.54.09 3.98-.09 6.2-1.08 13.06-3.52 44.74-15.19 58.81M45.7 25.38c.17 1.01-.05 2.32-.58 3.18-3.41 5.49-8.06 12.4-15.87 19.08M41.35 39.53c.4.72.75 1.82.75 3.19 0 3.27-.51 9.27-.51 18.3M52.95 34.5c1.17.52 3.32.36 4.5.19 6.89-.96 18.4-2.99 29.57-3.62 1.95-.11 3.13.25 4.1.51"/><path d="M77.21 21.72c.06.31.87 1.62.93 3.59.3 9.48.31 24.89.31 28.12 0 6.04-4.82 1.16-6.45.16M60.93 41.02c1.68 1.21 4.34 4.97 4.76 6.85M33.25 66.64c.48.5.64 2.2.64 3.12 0 4.49.16 28.86.16 30.37M35.49 68.54c6.09-.41 41.86-3.85 43.02-3.85 3.23 0 3.53 2.81 3.53 5.05 0 1.01.16 24.09.16 26.42 0 5.34-3.95 1.59-5.73-.82"/><path d="M56.29 56.61c.49.28.71 1.38.56 2.14-1.85 9-3.1 15-14.28 22.47M55.85 70.55c5.05 1.64 13.05 6.74 14.31 9.28M56.26 77.81c.04.38.08.98-.07 1.53-.9 3.22-6.03 10.29-13.06 14.61M54.81 83.64c4.49 1.76 11.6 7.24 12.72 9.98"/></g><g font-size="8" fill="gray"><text transform="translate(45.12 8.76)">1</text><text transform="translate(27.75 16.63)">2</text><text transform="translate(18.75 31.55)">3</text><text transform="translate(35.25 31.63)">4</text><text transform="translate(35.5 49.29)">5</text><text transform="translate(51.5 31.5)">6</text><text transform="translate(68.25 25.5)">7</text><text transform="translate(54.5 45.37)">8</text><text transform="translate(27.75 76.63)">9</text><text transform="translate(30.75 64.63)">10</text><text transform="translate(45.5 59.5)">11</text><text transform="translate(63.73 73.12)">12</text><text transform="translate(43.64 83.98)">13</text><text transform="translate(58.08 84.35)">14</text></g></svg>