<svg xmlns="http://www.w3.org/2000/svg" width="109" height="109" class="kan-g"><g fill="none" stroke="#000" stroke-width="3" stroke-linecap="round" stroke-linejoin="round"><path d="M14.74 22.51c3.54-.62 21.67-2.91 29.89-3.52 1.25-.09 1.99-.2 2.62.02M13.66 20.44c.54.42.86 1.87.96 2.71.11.83 0 64.15-.11 69.36M29.44 21.85c.54.42.86 1.87.96 2.71.11.83.07 11.24-.04 16.44M14.95 43.5c8.47-1.53 19.12-2.61 24.99-3.66 2.38-.43 3.04 1.29 2.71 3.54-.6 4.06-1.98 9.39-2.59 14.28M14.99 61.23c3.54-.62 23.98-3.11 27.31-3.5M28.31 61.78c.54.42.86 1.87.97 2.71.11.83.07 13.49-.04 18.69M14.74 84.95c3.54-.62 15.63-1.49 23.85-2.11 1.25-.09 2-.2 2.62.03M64.22 16c.53 1.25.9 2.12.85 4.72C64.75 36.75 61.5 74 38 93.33"/><path d="M63.02 45.14C68 55.5 83.5 80.75 91.04 87.86c1.96 1.85 3.8 3.03 5.46 3.64"/></g><g font-size="8" fill="gray"><text transform="translate(16.25 18.5)">1</text><text transform="translate(7.5 29.5)">2</text><text transform="translate(23.5 29.48)">3</text><text transform="translate(19.5 39.5)">4</text><text transform="translate(19.25 57.33)">5</text><text transform="translate(22.5 69.5)">6</text><text transform="translate(18.5 80.5)">7</text><text transform="translate(54.25 15.5)">8</text><text transform="translate(68.5 49.5)">9</text></g></svg>