<svg xmlns="http://www.w3.org/2000/svg" width="109" height="109" class="kan-g"><g class="kgPaths" fill="none" stroke="currentColor" stroke-width="3" stroke-linecap="round" stroke-linejoin="round"><path d="M31.42 9.92c.58 1.58.25 2.27-.17 3.83-.42 1.56-1.41 4.88-7.25 11.5M19.42 27.08c1.33.92 1.83 1.92 1.95 5.07.06 1.7.12 24.13.23 27.19.45 13.39-6.64 30.11-11.18 36.91"/><path d="M20.92 28.92c3.66-.62 13.19-2.55 16.5-3.17 3.31-.62 3.33 2.01 3.33 4.17s-.23 53.52-.23 56.6-1.16 5.63-3.1 4.91c-1.33-.5-2.47-2.38-3.17-3"/><path d="M26.78 35.44c1.67 1.91 5.84 6.99 6.26 9.22M28.94 56.75c.94 1.26 1.61 2.73 1.61 3.74 0 1.01-.24 15.51-.24 20.18M11.92 56.5c1.41.83 2.7 1.21 3.73.95 1.03-.25 30.11-9.45 34.02-10.53M52.25 22.58c2.25.67 4.86.71 5.67.67 3.44-.19 17.22-2.14 32.5-3.33 1.34-.1 4.49.3 5.17.5M53.75 38.92c2 .83 3.89 1.42 6.01 1.19 11-1.18 24.6-2.79 31.49-3.36 1.87-.15 4.05 1.03 3.93 3.44-.26 5.06-1.95 7.8-3.59 14.73M60.17 58.23c1.17 0 2.61-.07 4.24-.18 9.16-.63 20.43-1.74 30.18-2.47M58.95 41.59c.04 1.3.3 2.38.31 4.26.12 23.57-3.76 40.9-14.84 49.9"/></g><g class="kgNumbers" font-size="8" fill="gray"><text transform="translate(23.25 9.25)">1</text><text transform="translate(13.25 34.25)">2</text><text transform="translate(32.25 23.25)">3</text><text transform="translate(25.19 46.25)">4</text><text transform="translate(25.25 64.25)">5</text><text transform="translate(4.25 56.25)">6</text><text transform="translate(51.25 19.25)">7</text><text transform="translate(57.25 37.25)">8</text><text transform="translate(64.25 55.25)">9</text><text transform="translate(48.25 54.25)">10</text></g></svg>