<svg xmlns="http://www.w3.org/2000/svg" width="109" height="109" viewBox="0 0 109 109" class="kan-g"><g fill="none" stroke="currentColor" stroke-width="3" stroke-linecap="round" stroke-linejoin="round"><path d="M32.35 13c1.13 2.04.89 2.04.51 3.67s-2.61 5.83-6.18 11.42M18.77 30.07c.83 1.28 1.04 3.52 1.04 5.12s.11 22.71.21 25.58c.41 12.6-6.08 28.34-10.23 34.73M20.44 31.67c4.36-.64 15.87-2.88 19.82-3.52 3.94-.64 3.74 1.28 3.74 3.52s-.42 53.55-.42 56.75c0 3.2-1.24 5.75-2.91 4.16-1.66-1.6-2.7-2.24-3.53-2.88"/><path d="M29.29 39.43c.93 1.45 3.24 5.32 3.47 7.01M30.1 58.15c1.04 1.6 1.25 2.56 1.25 3.84 0 1.28 0 14.65-.42 17.83M9.25 59.26c.45 1.13 2.45 1.32 3.9 1.01S42.5 49.75 49 47.96M67.77 12.75c3.33 1.43 7.97 7.03 8.81 9.83M51.52 30.11c1.15.1 3.77.68 4.89.55 9.84-1.16 24.05-3.41 35.51-3.7 1.9-.05 2.86.05 4.27.7M62.46 44.5c.46.93.5 3.13.56 4.9.12 3.77.12 3.57.06 10.58-.16 18.18-7.82 32.27-15.57 36.27M63.87 46.5c4.55-1 10.83-1.99 15.38-3.25 3.62-1 4.89 2.03 4.49 4.55-1.49 9.45-2.44 27.14-2.46 32.7-.04 12.25 4.51 11.53 9.29 11.53 5.05 0 5.26-.53 6.58-2.62 1.37-2.18 1.09-3 1.23-6.5"/></g><g font-size="8" fill="gray"><text transform="translate(25.5 12.5)">1</text><text transform="translate(12.49 37.56)">2</text><text transform="translate(19.99 28.48)">3</text><text transform="translate(22.99 44.91)">4</text><text transform="translate(24.49 65.83)">5</text><text transform="translate(2.5 63.5)">6</text><text transform="translate(63 13.5)">7</text><text transform="translate(51.5 27.5)">8</text><text transform="translate(55.5 53.53)">9</text><text transform="translate(62.5 42.5)">10</text></g></svg>