<svg xmlns="http://www.w3.org/2000/svg" width="109" height="109" viewBox="0 0 109 109" class="kan-g"><g fill="none" stroke="currentColor" stroke-width="3" stroke-linecap="round" stroke-linejoin="round"><path d="M47.11 9.25c4.58 1.85 7.32 6.11 8.24 9.81M34.73 27.17c3.04-.12 33.91-4.41 36.68-4.55 2.3-.12 3.63 1.31 3.61 2.03-.15 5.09-3.33 24-4.65 27.5"/><path d="M34.94 39.95c6.35-.47 12.69-1.25 19.02-1.94 1.9-.2 3.79-.41 5.62-.6M35.08 53.08c10.47-.92 24.19-2.23 35.56-3.11"/><path d="M31.01 24.99c1.73.56 2.76 2.51 3.11 3.63.35 1.12.73 58.29.35 61.07-.35 2.51-1.06 7.18 2.62 4.45C42 90.5 46.75 87 52.75 82.25M81.55 52.69c.35 1.6.82 2.37-.29 3.51-1.76 1.8-8.96 8.26-12.13 10.49"/><path d="M44.07 62.09c5.72 0 35.71 25.67 40.39 27.58 6.73 2.76 7.74 2.76 11.11 3.37"/></g><g font-size="8" fill="gray"><text transform="translate(42.5 10.5)">1</text><text transform="translate(36.5 23.5)">2</text><text transform="translate(39.75 35.5)">3</text><text transform="translate(39.75 49.5)">4</text><text transform="translate(26.5 35.5)">5</text><text transform="translate(84.5 51.13)">6</text><text transform="translate(39.5 61.5)">7</text></g></svg>