<svg xmlns="http://www.w3.org/2000/svg" width="109" height="109" viewBox="0 0 109 109" class="kan-g"><g class="kgPaths" fill="none" stroke="currentColor" stroke-width="3" stroke-linecap="round" stroke-linejoin="round"><path d="M15.75 25.92c3.75 1.33 7 .83 10.67.5 11.89-1.08 44.95-4.76 58.67-4.83 2.56-.01 5.92.42 8 1.67"/><path d="M35.08 11.42c1.67.83 2.97 2.29 3.17 3.17 1.81 8.25 2.65 20 3.17 23"/><path d="M68.25 9.25c1.12 1 1.04 3.19.67 4.67-1.12 4.5-3.54 14.42-5.17 20.17"/><path d="M69.73 38.38c.76 1.53.53 3.37-.48 6.09-10.08 27.16-29.77 44.82-54.49 56.83"/><path d="M30.25 43.42c4.36.21 19.25 31.58 47.66 50.33 3.24 2.14 7.23 4.71 9.41 5.36"/></g><g class="kgNumbers" font-size="8" fill="gray"><text transform="translate(9.25 25.25)">1</text><text transform="translate(25.25 12.25)">2</text><text transform="translate(58.25 10.25)">3</text><text transform="translate(61.25 43.25)">4</text><text transform="translate(22.25 44.25)">5</text></g></svg>