<svg xmlns="http://www.w3.org/2000/svg" width="109" height="109" class="kan-g"><g class="kgPaths" fill="none" stroke="#000" stroke-width="3" stroke-linecap="round" stroke-linejoin="round"><path d="M21.75 26.52c3.36.73 6.69.42 10.13.01 13.87-1.65 35-2.9 49.38-3.91 3.02-.28 6.02-.14 9 .4"/><path d="M39.5 14.25c1 1 1.64 2.11 1.75 3 1.38 11 2 14.25 2.5 17.75M68.25 12c.62 1.62.55 3.01.25 4.5-1.25 6.25-1.75 10.38-3.25 17M20.47 44.98c4.04.44 8.06.43 12.05-.04 13.39-1.56 31.73-2.95 47.97-4.03 4.26-.28 7.87-.26 11.79.35M28.19 59.1c.67.67 1.1 1.54 1.24 2.42.91 4.06 2.07 8.71 3.04 13.25.31 1.44.6 2.88.86 4.28M30.13 60.39c8.16-.98 16.07-2.37 20.61-2.95 1.84-.24 3.76.16 3.3 2.81-.64 3.75-1.55 6.62-2.55 12.83M33.99 76.42c3.89-.4 9.69-1.18 15.27-1.87 1.36-.17 2.7-.33 4-.48M74.94 44.05c.88.88 1.22 2.07 1.22 3.82 0 11.38.04 41.3.04 44.96 0 7.91-5.19 3.41-8.27.68"/></g><g class="kgNumbers" font-size="8" fill="gray"><text transform="translate(14.5 26.5)">1</text><text transform="translate(29.5 14.5)">2</text><text transform="translate(58.5 11.5)">3</text><text transform="translate(12.5 45.5)">4</text><text transform="translate(21.5 66.5)">5</text><text transform="translate(32.5 57.5)">6</text><text transform="translate(36.25 73.5)">7</text><text transform="translate(67.25 52.5)">8</text></g></svg>