<svg xmlns="http://www.w3.org/2000/svg" width="109" height="109" viewBox="0 0 109 109" class="kan-g"><g class="kgPaths" fill="none" stroke="currentColor" stroke-width="3" stroke-linecap="round" stroke-linejoin="round"><path d="M16.08 24.42c2.32.94 5.96.75 8.5.5 14.67-1.42 46.17-4.33 59.89-4.41 2.55-.01 5.3.58 6.62.91"/><path d="M36.08 12.25c1.67.75 2.72 2.11 2.83 3 1.08 8.25 1.5 16 2 19M66.25 10.08c1.25 1.42 1.62 2.44 1.25 3.92-1.12 4.5-2.12 12-3.75 17.75M23.92 39.92C25 41 26.13 42.5 26.13 43.36c0 .72 0 48.69-.23 52.94M26.09 41.93c11.28-.64 36.66-3.18 53.82-4.18 3.94-.23 5.08-.25 7.5.67M26.42 58.58c25.09-1.34 29.06-2.1 46.45-3.61 2.64-.23 4.89.77 4.72 2.77-.34 4.16-1.33 9.33-2.5 14M27.08 75.42c10.14-.81 42.3-3.33 51.83-3.83M25.92 96.08c11.49-.6 27.79-2.9 54.5-3.5 4.05-.09 10.67.5 12.83 1.83"/></g><g class="kgNumbers" font-size="8" fill="gray"><text transform="translate(9.25 25.25)">1</text><text transform="translate(27.25 11.6)">2</text><text transform="translate(57.25 11.25)">3</text><text transform="translate(14.25 48.25)">4</text><text transform="translate(25.25 38.25)">5</text><text transform="translate(30.25 55.25)">6</text><text transform="translate(30.25 71.25)">7</text><text transform="translate(30.25 92.25)">8</text></g></svg>