<svg xmlns="http://www.w3.org/2000/svg" width="109" height="109" class="kan-g"><g class="kgPaths" fill="none" stroke="#000" stroke-width="3" stroke-linecap="round" stroke-linejoin="round"><path d="M18.17 21.79c1.34.55 3.59.87 6.23.71 12.86-.75 47.2-3.27 61.44-3.34 2.24-.01 5.17.34 6.92 1.06"/><path d="M37.92 10.75c1.58 1 2.81 2.62 3 3.5 1.75 8.25 1.83 13.33 2.33 16.33M67.92 9.42c1.33 1.08 1.21 2.66 1 4.17-.92 6.58-2.04 11.35-3.5 16.5M39.86 33.84c.29 1.67-.08 3.86-1.03 5.29-6.07 9.13-14.35 20.63-28.24 31.74M31.19 52.31c.45.85 1.19 2.62 1.22 3.8.33 11.14.5 37.14.33 43.31M38.42 52.58c2.58.92 5.95 1.12 7.33 1 10-.83 28.61-3.01 41.67-3.83 2.28-.14 5.52.66 6.67 1"/><path d="M74.75 34.08c.75.92 2.25 1.67 2.33 3.84.4 10.42-.29 50.05-.3 53.6-.03 9.49-4.7.83-6.86-.26M48.17 62.81c4.02 2.63 10.4 10.8 11.41 14.89"/></g><g class="kgNumbers" font-size="8" fill="gray"><text transform="translate(12.25 21.25)">1</text><text transform="translate(29.25 11.6)">2</text><text transform="translate(58.25 10.25)">3</text><text transform="translate(30.25 32.25)">4</text><text transform="translate(25.25 68.25)">5</text><text transform="translate(41.25 50.25)">6</text><text transform="translate(66 38.25)">7</text><text transform="translate(41.25 67.25)">8</text></g></svg>