<svg xmlns="http://www.w3.org/2000/svg" width="109" height="109" viewBox="0 0 109 109" class="kan-g"><g fill="none" stroke="currentColor" stroke-width="3" stroke-linecap="round" stroke-linejoin="round"><path d="M15 22.39c1.41.49 3.05.59 4.46.49 12.96-.9 51.58-4.6 66.52-4.66 2.35-.01 3.76.23 4.94.48"/><path d="M35.19 10.45c1.65 1.46 2.18 1.91 2.36 2.81 1.65 8.43 1.88 15.41 2.11 18.99M67.35 9.17c.35 1.19.65 2 .42 3.52-.84 5.37-2.51 13.58-3.73 18.53M18 42.45c1.52.54 4.3.64 5.82.54C31.5 42.5 74 38.5 82.94 38.26c2.53-.07 4.05.26 5.31.53M26.5 57.25c.75.25 2.75.36 4.75.25 9-.5 37.25-4 48-4.5 2-.09 2.5.25 3.75.5"/><path d="M52 28c1.25.5 2 2.25 2.25 3.25s-.25 61.73-.25 63c0 11-5.38 1.88-6.75.5"/><path d="M52.25 55c-6.82 12.66-20.5 29-38.75 37.75M54.75 56.75c4.85 4.39 26.12 25.17 31.4 29.49 1.79 1.46 3.32 2.09 5.1 2.51"/></g><g font-size="8" fill="gray"><text transform="translate(8.25 22.25)">1</text><text transform="translate(27.25 11.6)">2</text><text transform="translate(58.25 9.25)">3</text><text transform="translate(11.25 43.25)">4</text><text transform="translate(18.25 57.25)">5</text><text transform="translate(43.25 29.25)">6</text><text transform="translate(37.25 67.25)">7</text><text transform="translate(66 65.25)">8</text></g></svg>