<svg xmlns="http://www.w3.org/2000/svg" width="109" height="109" class="kan-g"><g class="kgPaths" fill="none" stroke="#000" stroke-width="3" stroke-linecap="round" stroke-linejoin="round"><path d="M18.5 27.02c2.2.53 4.76.73 6.96.53C41.88 26 68 23.62 82.68 23.01c3.66-.15 5.87.25 7.7.51"/><path d="M36.75 15.5c1.05 1.18 1.51 1.78 1.76 3.44 1.05 6.91 1.94 13.8 2.24 16.31M67.75 12.25c.41 1.59.43 2.77.06 4.37-1.62 7.05-2.18 9.88-4.06 18.13M51.5 34.75c.35 1.84-.35 3.08-1.28 4.64-4.89 8.2-14.99 21.54-32.97 31.11M52.5 38.25c5.9 4.37 23.65 17.47 32.05 23.16 3.11 2.1 5.98 3.44 9.7 4.09M34.53 68.21c1.1.15 4.05.54 6.95.19 7.4-.9 18.9-2.4 28.02-3.17 2.9-.24 3.66-.15 5.48 0"/><path d="M52.32 53.94c1.18 1.31 1.81 3.06 1.81 6.15 0 .46 0 19.56-.06 30.66-.02 3.5-.05 6.13-.08 7M38.52 79.14c.11 1-.1 1.94-.64 2.8-1.7 3.35-6.13 7.94-12.38 12.31M68.5 78.75c4.79 2.51 12.36 10.32 13.56 14.22"/></g><g class="kgNumbers" font-size="8" fill="gray"><text transform="translate(11.5 28.5)">1</text><text transform="translate(27.75 16.5)">2</text><text transform="translate(59.25 13.5)">3</text><text transform="translate(38.5 45.5)">4</text><text transform="translate(65.5 45.5)">5</text><text transform="translate(28.5 73.63)">6</text><text transform="translate(45.5 60.5)">7</text><text transform="translate(30.5 82.5)">8</text><text transform="translate(60.5 78.5)">9</text></g></svg>