<svg xmlns="http://www.w3.org/2000/svg" width="109" height="109" class="kan-g"><g class="kgPaths" fill="none" stroke="#000" stroke-width="3" stroke-linecap="round" stroke-linejoin="round"><path d="M18 23.67c1.29.53 5.5.83 8.83.5 11.88-1.19 44.97-3.8 58.67-4.5 3.25-.17 6.25.9 7.33 1.17"/><path d="M37.33 11.83c2.33 1 3.44 2.54 3.6 3.35 1.53 7.55 2.46 13.91 2.9 16.65M70 10.67c1.18.92 1.5 2.1 1.33 3.5-.5 4.17-1.72 10.73-3.42 16M36.94 32.42c.04.54.16 1.56-.08 2.17-3.05 7.61-7.56 14.6-15.52 20.74M33.83 45.33c.83.33 4.16.7 5 .67 8.65-.38 27.31-2.91 37.83-4 1.38-.14 4.31.17 5 .33M15.5 61.5c2.5.75 4.5 1.25 9 1 10.27-.57 40.57-2.9 58.33-4.33 5.17-.42 8.42.08 10.67.83"/><path d="M52.33 29c1.62.42 2.56 2.65 2.56 3.54 0 4.21 0 62.09-.32 67.29M52.38 62c-9.09 12.55-22.89 24.17-39.52 30.42M56.65 61.65c4.82 5.75 25.17 22.19 32.35 27 1.79 1.2 3.23 1.81 4.97 2.18"/></g><g class="kgNumbers" font-size="8" fill="gray"><text transform="translate(10.5 24.5)">1</text><text transform="translate(28.66 11.85)">2</text><text transform="translate(60.5 10.5)">3</text><text transform="translate(27.5 33.5)">4</text><text transform="translate(39.5 42.5)">5</text><text transform="translate(8.5 62.5)">6</text><text transform="translate(47.5 35.5)">7</text><text transform="translate(35.5 72.5)">8</text><text transform="translate(69.5 70.5)">9</text></g></svg>