<svg xmlns="http://www.w3.org/2000/svg" width="109" height="109" class="kan-g"><g class="kgPaths" fill="none" stroke="currentColor" stroke-width="3" stroke-linecap="round" stroke-linejoin="round"><path d="M21.5 21.27c4.38.61 9.04.46 13 .03 15.4-1.65 31.63-2.55 47.25-3.4 3.37-.18 6.69-.21 10 .37"/><path d="M39.5 10.5c1.12 1.12 1.63 2.36 1.75 3.25 1.25 9 1.75 13 2.25 16.75M70.75 9.5c.42 1.18.34 2.77 0 4.25-1.25 5.5-2.12 9.62-3.5 15.75M20.82 40c2.4.39 4.79.38 7.21.11 6.47-.73 15.65-2.08 21.59-2.53 2.16-.3 4.31-.26 6.45.12M15.04 60.76c3.06.48 6.14.44 9.21-.12 7.48-.86 19-2.4 26.75-2.91 2.92-.19 5.74-.56 8.6-.09"/><path d="M30.71 42.57c.89 1.34 1.07 2.68 1.07 4.69 0 28.23-4.16 38.36-16.9 48.45M45.89 40.87c.98 1.12 1.15 2.37 1.01 3.75.04 6.67.03 30.14 0 43.12-.01 4.93-.02 8.34-.03 8.75M69.55 40.49c.85.85 1.05 2.14 1.05 3.84 0 8-.01 19.6-.01 27.54v8.16M87.7 33.58c1.17 1.17 1.3 2.67 1.3 4.09v54.32c0 10.37-6.84 1.35-8.16.33"/></g><g class="kgNumbers" font-size="8" fill="gray"><text transform="translate(14.5 21.5)">1</text><text transform="translate(30.5 11.5)">2</text><text transform="translate(61.5 9.5)">3</text><text transform="translate(13.5 40.63)">4</text><text transform="translate(7.5 61.5)">5</text><text transform="translate(23.25 50.5)">6</text><text transform="translate(39.5 48.5)">7</text><text transform="translate(60.75 43.5)">8</text><text transform="translate(79.5 38.5)">9</text></g></svg>