<svg xmlns="http://www.w3.org/2000/svg" width="109" height="109" class="kan-g"><g class="kgPaths" fill="none" stroke="currentColor" stroke-width="3" stroke-linecap="round" stroke-linejoin="round"><path d="M15.67 23.17c1.29.53 3.83 1.08 7.17.83 11.91-.89 46.28-3.09 60-3.17 2.16-.01 7.42.57 8.5.83"/><path d="M34.33 12.33c1.67.42 2.99 1.63 3.17 2.5 1.64 8.12 2.37 14.55 2.83 17.5M68.5 10.5c1.06.92 1.52 2.64 1.17 4-1.07 4.16-2.13 10.52-3.67 15.83M51.35 27.5c.1.85.37 2.24-.2 3.4-3.57 7.21-16.04 20.86-35.9 32.56M51.41 30.61c5.62 5.34 29.82 22.79 36.02 26.7 2.1 1.33 4.8 1.9 6.9 2.27M35.83 53.17c.63.23 2.92.58 4.71.44 6.1-.47 18.27-1.97 23.96-2.28 1.63-.09 5.52.36 6.17.5M24.17 68.17c1.11.35 4.08.76 7.17.67 11.17-.33 33.92-2.83 45-3.33 2.68-.12 7.24.82 8.17 1"/><path d="M52.67 55c.83 1 1.71 1.94 1.71 4.48 0 16.54-.23 28.56-.23 32.72 0 9.43-4.81 3.35-6.15 2.3M36.44 78.56c.06.45.26 1.23-.12 1.82-2.81 4.35-10.03 10.83-21.48 17.44M68.29 78.07c6.72 2.71 17.36 11.16 19.04 15.38"/></g><g class="kgNumbers" font-size="8" fill="gray"><text transform="translate(9.5 23.5)">1</text><text transform="translate(26.5 11.85)">2</text><text transform="translate(59.5 11.5)">3</text><text transform="translate(35.5 41.5)">4</text><text transform="translate(68.5 39.5)">5</text><text transform="translate(44.5 49.5)">6</text><text transform="translate(16.5 70.5)">7</text><text transform="translate(44.5 62.5)">8</text><text transform="translate(27.5 80.5)">9</text><text transform="translate(69.5 76.5)">10</text></g></svg>