<svg xmlns="http://www.w3.org/2000/svg" width="109" height="109" class="kan-g"><g class="kgPaths" fill="none" stroke="#000" stroke-width="3" stroke-linecap="round" stroke-linejoin="round"><path d="M17.67 23.67c1.29.53 5.54.8 6.83.67C37 23 71.12 20.74 84.83 20.67c2.16-.01 6.92.4 8 .67"/><path d="M36.5 12c2.67.83 3.8 2.47 4 3.33 1.86 8.06 2.13 14.4 2.67 17.33M66.17 10.5c1.33 1 2.06 2.4 1.77 3.86-.86 4.43-1.36 11.65-2.6 17.31M25.17 38c1.04.49 3.58 1 7.17.83C43.1 38.33 61 37 79.17 36c1.72-.09 5.14-.08 6 .17M32.33 48.83c.58.34 1.57 2.29 1.68 2.74.79 3.28 2.1 9.97 3.15 16.59M34 50.17c7.77-.65 32.2-2.23 37.5-2.33 2.19-.04 3.71 1.23 3.51 3.17-.34 3.33-2.5 8.49-4.17 13.33M38 66.17c5.82 0 27.47-1.57 35.5-1.67M35 72.8c2.87 2.83 7.42 11.63 8.14 16.03M71.11 68.87c.02.51.22 1.86-.05 2.54-1.81 4.59-3.93 13.26-8.51 19.06M19.17 94.33c1.47.38 4.22 1.31 5.69 1.2 17.25-1.25 45.31-3.03 62.13-2.63 2.45.06 4.79 1.07 6.02 1.26"/></g><g class="kgNumbers" font-size="8" fill="gray"><text transform="translate(10.5 23.5)">1</text><text transform="translate(28.66 12.5)">2</text><text transform="translate(57.5 10.5)">3</text><text transform="translate(17.44 37.5)">4</text><text transform="translate(24.44 53.5)">5</text><text transform="translate(40.5 46.5)">6</text><text transform="translate(40.5 62.5)">7</text><text transform="translate(27.5 73.5)">8</text><text transform="translate(62.5 74.53)">9</text><text transform="translate(10.5 91.5)">10</text></g></svg>