<svg xmlns="http://www.w3.org/2000/svg" width="109" height="109" class="kan-g"><g fill="none" stroke="currentColor" stroke-width="3" stroke-linecap="round" stroke-linejoin="round"><path d="M20.25 24.02c1.29.53 2.8.63 4.1.53 11.9-.96 47.4-4.46 61.12-4.53 2.16-.01 3.45.25 4.53.51"/><path d="M38 12.25c1.47 1.13 1.94 1.47 2.1 2.17A387.16 387.16 0 0 1 43.25 30M67.83 10.5c.22.84.5 1.46.26 2.49-1.41 6.05-2.05 9.07-3.59 14.76M50.74 27.75c2.51 1.5 3.76 3.25 5.04 5.43M25.6 38.02c0 3.41-1.85 11.73-4.51 15.07M25.35 42.1c11.15-1.1 50.15-5.79 56.3-5.81 9.85-.04-.32 8.25-1.86 9.1M37.32 52.68c.93.23 2.66.36 3.58.23 8.35-1.16 15.6-2.41 23.12-3.15 1.55-.15 2.49.11 3.27.23M28.08 66.92c1.09.39 3.09.46 4.18.39 7.99-.56 30.74-4.56 42.84-4.96 1.82-.06 2.91.19 3.82.38M44.99 69.25c.07.69.15 1.77-.14 2.76-1.73 5.82-10.82 19.7-25.19 26.41M60.24 66.62c.74 1.19 1.38 2.59 1.38 4.43 0 3.7-.53 9.7-.53 13.7 0 10.75 4.17 11.53 16.67 11.53 9.25 0 12.34-1.68 13.64-2.62 2.75-2 2-3 2.25-6.5"/></g><g font-size="8" fill="gray"><text transform="translate(14.25 24.88)">1</text><text transform="translate(29.19 12.25)">2</text><text transform="translate(58.25 9.25)">3</text><text transform="translate(45.25 33.75)">4</text><text transform="translate(19.25 41.25)">5</text><text transform="translate(29.25 38.51)">6</text><text transform="translate(31.19 53.25)">7</text><text transform="translate(21.25 68.25)">8</text><text transform="translate(35.25 75.25)">9</text><text transform="translate(50.25 74.25)">10</text></g></svg>