<svg xmlns="http://www.w3.org/2000/svg" width="109" height="109" class="kan-g"><g class="kgPaths" fill="none" stroke="currentColor" stroke-width="3" stroke-linecap="round" stroke-linejoin="round"><path d="M19 21.89c1.32.41 2.86.49 4.19.41 12.16-.75 47.92-3.49 61.93-3.54 2.2-.01 3.53.2 4.63.4"/><path d="M39.75 10.5c1.25 1.15 1.65 1.5 1.79 2.21 1.25 6.62 1.61 12.64 1.96 15.04M68.12 9.75c.89.79 1.48 2 1.19 3.17-.89 3.57-1.49 9.52-2.78 14.08M48.13 30.4c.07.44.14 1.15-.14 1.79-1.66 3.77-10.71 12.03-23.79 17.09M45.11 37.29c2.77 0 15.56-1.93 18.47-2.14 2.5-.18 2.7 2.38 1.74 3.38C62 42 59.5 45 54.87 51.24M27.39 53.26c.35.43.71.79.86 1.33 1.21 4.29 1.6 9.48 2.42 17.18M29.95 54.06c12.69-1.58 42.72-2.15 49.26-2.69 2.39-.19 3.83 1.96 3.49 3.11-1.42 4.74-2.94 10.27-4.07 13.65"/><path d="M53.35 53.77c.77.81 1.07 2.42 1.07 3.43v9.69M31.12 69.32c5.13-.4 42.16-2.12 47.81-2.33M45.11 71.23c.08.68.17 1.75-.16 2.73-1.94 5.76-11.11 19.9-28.28 26.13M58.49 69.82c.69.89 1.27 1.94 1.27 3.32 0 5.36.01 12.84.01 17.01 0 9.74 7.75 8.64 15.87 8.64 8.57 0 14.21-1.26 15.41-1.96 2.55-1.5 1.85-2.25 2.08-4.87"/><path d="M69.27 77.33c3.54 1.83 9.16 7.53 10.04 10.38"/></g><g class="kgNumbers" font-size="8" fill="gray"><text transform="translate(12.5 21.5)">1</text><text transform="translate(30.5 11.5)">2</text><text transform="translate(60.5 10.5)">3</text><text transform="translate(37.5 35.5)">4</text><text transform="translate(53.5 33.5)">5</text><text transform="translate(21.5 60.5)">6</text><text transform="translate(37.5 50.5)">7</text><text transform="translate(46.25 61.1)">8</text><text transform="translate(34.5 65.5)">9</text><text transform="translate(33.5 78.5)">10</text><text transform="translate(50.5 78.5)">11</text><text transform="translate(73.5 77.88)">12</text></g></svg>