<svg xmlns="http://www.w3.org/2000/svg" width="109" height="109" class="kan-g"><g fill="none" stroke="currentColor" stroke-width="3" stroke-linecap="round" stroke-linejoin="round"><path d="M15 22.31c1.46.34 3.15.41 4.61.34 13.39-.63 52.77-3.89 68.21-3.93 2.43-.01 3.88.16 5.1.33"/><path d="M38.69 10.2c1.47 1.25 1.94 1.62 2.09 2.39 1.47 7.17 1.67 13.11 1.88 16.16M67.04 8.92c.24 1 .45 1.68.29 2.96-.58 4.52-1.73 11.43-2.58 15.59M25 37.08c1.11.43 3.14.55 4.25.43 7.06-.74 44.03-4.87 50.87-4.37 1.84.13 2.96.2 3.88.42M29.25 47.46c.45.29.9.53 1.1.89 1.54 2.86 3.39 10.73 4.45 15.87M31.52 48.94c10.9-1.2 38.46-4.27 44.07-4.68 2.06-.15 3.22 1.47 3 2.36C77.25 52 76.75 54 74.38 61"/><path d="M35.23 62.32c6.6-.46 31.82-2.92 40.2-3.37M27.25 73.08c1.11.43 3.14.55 4.25.43 7.06-.74 40.03-3.87 46.87-3.37 1.84.13 2.96.21 3.88.42M33 84.08c1.11.43 3.14.55 4.25.43 7.06-.74 28-3.26 34.87-3.37 1.85-.03 2.96.21 3.88.42M20.5 97.08c1.32.43 3.75.55 5.08.43 8.44-.74 54.12-3.87 62.29-3.37 2.2.13 3.53.21 4.63.42"/><path d="M51.62 35c1.09.5 1.74 2.25 1.96 3.25.22 1 .5 50.75.28 57"/></g><g font-size="8" fill="gray"><text transform="translate(5 22.38)">1</text><text transform="translate(30.25 10.25)">2</text><text transform="translate(59 9.25)">3</text><text transform="translate(17.25 38.25)">4</text><text transform="translate(24.25 55.25)">5</text><text transform="translate(34.25 46.25)">6</text><text transform="translate(37.5 59.43)">7</text><text transform="translate(20 72.78)">8</text><text transform="translate(22.25 85.25)">9</text><text transform="translate(10.5 98.25)">10</text><text transform="translate(43.75 44.25)">11</text></g></svg>