<svg xmlns="http://www.w3.org/2000/svg" width="109" height="109" class="kan-g"><g fill="none" stroke="currentColor" stroke-width="3" stroke-linecap="round" stroke-linejoin="round"><path d="M15.25 23.21c1.46.43 3.15.52 4.61.43 13.39-.79 52.77-4.87 68.21-4.93 2.43-.01 3.89.2 5.1.42"/><path d="M36.94 12.45c1.74 1.23 2.3 1.6 2.49 2.36 1.74 7.08 1.99 12.94 2.23 15.94M67.69 10.17c.46 1.12.86 1.89.55 3.33-1.11 5.08-3.33 12.85-4.96 17.53M38.77 35.72c.06.35.12.9-.12 1.4-1.41 2.95-9.51 9.41-20.59 13.37M12.62 61.06c.36.17 1.32.43 2.28.49 2.64.16 25.8-4.96 32.39-5.78.96-.12 1.2-.16 1.8 0"/><path d="M32.69 46.64c.35.33 1.53 2.48 1.6 3.13.07.66-.07 43.92-.07 43.01 0 10.47-4.35 2.59-5.48 1.47"/><path d="M33.78 59.05c-4.44 9.05-11.84 20.22-21.89 27.62M37.46 65.71c3.78 2.2 6.97 6.61 9.01 9.44M54.68 49.5c1.89 2.66 4.64 10.19 5.16 12.85M91.08 45.06c.79.77.67 2.28-.05 3.47-.72 1.19-7.59 10-11.17 12.78M70.43 35.61c.99.61 1.5 2.25 1.51 3.26.41 26.06-4.3 48.73-24.99 58.92"/><path d="M70.72 61.27c7.11 13.85 17.05 25.63 23.11 31.02 1.76 1.57 2.05 1.49 3.42 1.91"/></g><g font-size="8" fill="gray"><text transform="translate(8.25 23.25)">1</text><text transform="translate(28.41 13.25)">2</text><text transform="translate(59.46 12.6)">3</text><text transform="translate(30.25 36.65)">4</text><text transform="translate(5.25 62.25)">5</text><text transform="translate(27.25 54.25)">6</text><text transform="translate(21 70.43)">7</text><text transform="translate(40 65.25)">8</text><text transform="translate(47.25 47.28)">9</text><text transform="translate(81.25 44.25)">10</text><text transform="translate(59 39.25)">11</text><text transform="translate(80.25 72.05)">12</text></g></svg>