<svg xmlns="http://www.w3.org/2000/svg" width="109" height="109" viewBox="0 0 109 109" class="kan-g"><g class="kgPaths" fill="none" stroke="currentColor" stroke-width="3" stroke-linecap="round" stroke-linejoin="round"><path d="M17 21.27c1.42.53 3.07.63 4.5.53 13.06-.96 51.47-4.46 66.53-4.53 2.37-.01 3.79.25 4.97.51"/><path d="M36.75 11.5c1.75 1.43 2.31 1.87 2.5 2.75C41 22.5 40.5 26.5 41 29.5M67.75 9.25c1.12 1 1.87 2.52 1.5 4-1.12 4.5-1.38 8-3 13.75M34.59 32.84c.05.45.25 1.25-.1 1.79-2.5 3.88-10.03 13.22-17.37 17.17M35.6 47.92c.06.63.31 1.77-.13 2.54-3.08 5.5-11.58 16.51-22.47 24.36M27.72 63.89c.36.2 1.07 1.26 1.15 1.65.07.39 0 29.98-.07 32.42M47.13 39.72c2.08.27 2.08.56 3.99.38 8.73-.8 21.68-2.78 29.99-3.16 2.7-.12 4.05.92 3.65 2.82-.62 3-2.87 10.82-4.32 19.26"/><path d="M44.28 51.08c1.87.19 3.33.17 5.4 0 18.07-1.5 25.76-2.98 40.1-3.54 2.29-.09 4.15-.01 5.19.18M46.96 61.47c1.04.19 2.91.29 4.16.19 11.43-.94 17.56-1.38 27.95-2.32 1.65-.15 2.7 0 3.95.19M43.19 71.73c.95.29 2.69.32 3.65.29 9.9-.33 26.19-2.16 35.84-2.79 1.58-.1 2.54.14 3.33.28M38.72 83.09c1.26.41 3.58.53 4.84.41 14.79-1.52 36.38-3.7 47.86-4.04 2.1-.06 3.36.19 4.42.4"/><path d="M62.55 31.5c1.01.38 1.61 1.69 1.82 2.44.2.75 0 59.37-.2 64.06"/></g><g class="kgNumbers" font-size="8" fill="gray"><text transform="translate(10.5 21.5)">1</text><text transform="translate(28.66 11.85)">2</text><text transform="translate(59.71 9.5)">3</text><text transform="translate(26.5 32.5)">4</text><text transform="translate(27.5 51.5)">5</text><text transform="translate(21.5 76.5)">6</text><text transform="translate(41.5 38.5)">7</text><text transform="translate(41.5 47.5)">8</text><text transform="translate(40.5 62.5)">9</text><text transform="translate(33.5 70.5)">10</text><text transform="translate(33.5 79.38)">11</text><text transform="translate(51.5 32.5)">12</text></g></svg>