<svg xmlns="http://www.w3.org/2000/svg" width="109" height="109" viewBox="0 0 109 109" class="kan-g"><g fill="none" stroke="currentColor" stroke-width="3" stroke-linecap="round" stroke-linejoin="round"><path d="M20.25 23.95c1.28.3 2.76.36 4.04.3 11.73-.55 46.22-3.39 59.74-3.43 2.13-.01 3.4.14 4.47.29"/><path d="M37.5 12.25c1.47 1.15 1.94 1.49 2.1 2.2 1.47 6.6 2.73 13.4 3.15 15.8M66.89 10c.19.98.43 1.71.22 2.92-1.23 7.1-1.79 10.65-3.14 17.33M29.23 38.17c1.32.5 1.82.4 3.95.17 5.54-.62 6.49-1.78 12.41-2.58 3.51-.47 4.21.43 3.09 3.12-2.64 6.32-17.03 24.41-34.38 30.15"/><path d="M24.44 45.96c2.79 1.27 7.21 5.21 7.91 7.19M54.69 36.95c2.65 1.55 27.1 21.39 32.39 25.1 1.79 1.26 3.33 1.8 5.12 2.16M72.53 33.89c.02.18.05.47-.05.73-.58 1.55-3.9 4.94-8.44 7.01M85.47 42.48c.03.16.07.42-.07.65-.83 1.38-5.6 4.41-12.13 6.27M38.06 58.44c.65.25 1.83.28 2.47.25 7.08-.32 18.41-1.62 25.97-1.87 1.08-.04 1.72.12 2.26.25M25.76 75.16c.83.21 3.93.32 4.83.3 8.38-.23 35.4-2.94 44.47-3.12 1.15-.02 3.24.03 5.36.45"/><path d="M52.45 59.37c.55.61 1.06 2.1 1.05 3.28-.21 20.49-10.6 31.3-27.69 37.6"/><path d="M52.63 74.16c6.7 5.74 21.22 19.27 27.91 23.11 2.28 1.31 3.07 1.5 4.11 1.62"/></g><g font-size="8" fill="gray"><text transform="translate(14.25 23.25)">1</text><text transform="translate(29.25 13.25)">2</text><text transform="translate(58.25 10.25)">3</text><text transform="translate(27.25 35.25)">4</text><text transform="translate(17.25 45.25)">5</text><text transform="translate(55.25 35.25)">6</text><text transform="translate(71.25 31.25)">7</text><text transform="translate(83.25 39.35)">8</text><text transform="translate(45.25 55.25)">9</text><text transform="translate(24.25 72.25)">10</text><text transform="translate(43.25 68.25)">11</text><text transform="translate(63.25 82.25)">12</text></g></svg>