<svg xmlns="http://www.w3.org/2000/svg" width="109" height="109" class="kan-g"><g class="kgPaths" fill="none" stroke="currentColor" stroke-width="3" stroke-linecap="round" stroke-linejoin="round"><path d="M17.5 25.27c3.38.23 6.27.13 9.01-.19C40 23.5 63.25 21.12 76 20.39c3-.17 6-.14 9 .63"/><path d="M35.5 14.25c.75.75 1.36 1.74 1.5 2.45 1 4.92 2.35 12.15 2.75 14.55M62.89 11.5c.28 1.23.28 2.16.03 3.38-1.1 5.35-1.92 8.56-3.19 13.87M24.42 42.28c.58.72.98 1.84.98 3.26 0 17.91.72 38.58-12.1 51.95M25.5 43.24c2.38.51 4.44.21 6.52-.02 11-1.23 30.66-3.69 42.38-4.64 2.74-.22 5.67-.16 8.36.43M34.12 51.89c.62.62.9 1.61.9 2.75 0 3.87-.01 23.91-.02 34.86v6.88M35.39 52.98c4.99-.36 15.16-2.13 22.86-2.53 1.17-.06 1.87-.13 2.45.02M47.61 52.41c.49.49.8 1.21.81 2.33.02 2.54-.02 5.24-.09 7.57M36.08 65.44c7.93-.99 16.86-2.27 22.36-2.95 2.23-.28 2.85.84 2.54 2.29-.56 2.63-1.36 4.72-2.46 8.58M36.12 77.32c4.26-.7 12.42-1.95 19.61-2.81 1.75-.21 3.29-.37 4.45-.46M47.95 76.39c.45.45.8 1.23.81 2.36.01 2.38-.09 3.88-.09 8.22M36.14 89.45C42 88.75 52 87.62 59.8 86.69c1.16-.14 1.87-.13 2.45.02"/><path d="M64.25 33c1.33 1.39 1.96 3.26 2.16 6.25 1.59 24 10.71 47.13 26.01 56.58 5.11 3.16 4.49.59 3.82-5.54"/><path d="M84.25 53.39c.25.98.26 1.99-.11 3.33-2.51 8.91-8.76 26.53-20.33 37.75M82.75 28c2.69 1.85 7 6.08 8.25 9.25"/></g><g class="kgNumbers" font-size="8" fill="gray"><text transform="translate(11.25 25.63)">1</text><text transform="translate(27.5 15.13)">2</text><text transform="translate(54.5 12.5)">3</text><text transform="translate(18.5 52.5)">4</text><text transform="translate(25.5 40.5)">5</text><text transform="translate(28.5 61.55)">6</text><text transform="translate(38.25 50.5)">7</text><text transform="translate(51.5 59.5)">8</text><text transform="translate(39 63.05)">9</text><text transform="translate(38.75 74.98)">10</text><text transform="translate(51.5 82.41)">11</text><text transform="translate(38.75 86.83)">12</text><text transform="translate(53.25 37.63)">13</text><text transform="translate(73.5 52.5)">14</text><text transform="translate(72.5 30.13)">15</text></g></svg>