<svg xmlns="http://www.w3.org/2000/svg" width="109" height="109" viewBox="0 0 109 109" class="kan-g"><g class="kgPaths" fill="none" stroke="currentColor" stroke-width="3" stroke-linecap="round" stroke-linejoin="round"><path d="M17 20.26c1.89.52 4.09.63 5.99.52 17.4-.96 40.33-3.94 60.38-4.02 3.16-.01 5.05.25 6.62.51"/><path d="M37.18 9c1.47 1.2 1.94 1.56 2.09 2.3 1.46 6.91 1.38 12.69 1.8 15.2M66.2 8.25c.87.77 1.44 1.94 1.16 3.08-.87 3.47-1.44 9.24-2.7 13.67M34.23 31.28c.23 1.6-2.27 8.67-4.09 11.34M42.44 30.13c3.87 8.58 9.49 14.02 24.42 14.13 7.2.05 7.67-2.29 1.66-6.19"/><path d="M54.32 29.45c1.2 3.31 2.94 6.63 4.22 1.55M70.88 28.48c4.13 1.05 7.22 2.01 10.58 5.27M20.49 52.88c.17 1.47-1.71 7.94-3.08 10.39M25.76 50.12c2.69 7.66 6.95 14.31 17.32 14.41 5.01.05 5.33-1.44 1.16-4.93M33.59 51.03c1.38 2.56 3.39 5.12 4.86 1.2M45.04 50.66c2.7 1.18 4.72 2.25 6.92 5.88M62.23 53.37c.23 1.18-2.31 6.41-4.17 8.38M68.28 50.92c2.8 7.05 7.22 13.17 18.01 13.26 5.2.04 5.54-1.32 1.2-4.53M77.01 51.07c1.22 2.18 3 4.36 4.31 1.02M86.65 48.1c3.37 1.43 5.9 2.73 8.63 7.14M18.25 74.84c2.25.73 4.82.97 7.4.73 13.2-1.2 40.13-.92 60.09-2.33 2.57-.18 4.18.13 6.76.64"/><path d="M52.92 64.75c1.06.42 1.91 1.88 1.91 2.76 0 8.92 0 28.43-.21 33.74M51.75 75.25c-6.34 6.46-23.32 16.34-36.5 20M56 75c4.21 2.54 24 15.3 28.57 17.8 1.55.85 2.88 1.21 4.43 1.45"/></g><g class="kgNumbers" font-size="8" fill="gray"><text transform="translate(10.5 20.5)">1</text><text transform="translate(29.5 9.5)">2</text><text transform="translate(58.5 8.5)">3</text><text transform="translate(28.5 31.5)">4</text><text transform="translate(38.5 37.33)">5</text><text transform="translate(46.5 29.25)">6</text><text transform="translate(68.5 26.5)">7</text><text transform="translate(14.5 52.1)">8</text><text transform="translate(21.5 60.5)">9</text><text transform="translate(27.5 49.95)">10</text><text transform="translate(39.5 48.5)">11</text><text transform="translate(55.5 52.5)">12</text><text transform="translate(64.5 61.5)">13</text><text transform="translate(74.5 49.65)">14</text><text transform="translate(83.5 45.5)">15</text><text transform="translate(8.5 76.5)">16</text><text transform="translate(43.25 71.43)">17</text><text transform="translate(29.5 84.5)">18</text><text transform="translate(70.5 82.5)">19</text></g></svg>