<svg xmlns="http://www.w3.org/2000/svg" width="109" height="109" class="kan-g"><g class="kgPaths" fill="none" stroke="currentColor" stroke-width="3" stroke-linecap="round" stroke-linejoin="round"><path d="M52.27 10.83c.98.92 1.26 2.42 1.26 4.27 0 5.9-.02 8.94-.02 13.9M55.1 20.02c4.65-.77 9.9-1.77 14.61-2.38 1.55-.2 2.5.18 3.29.37M29.75 32.43c1.16 1.16 1.15 2.71 1.09 4.78-.72 21.29-6.22 47.17-18.34 59.29M31.49 33.74c2.01-.24 3.77-.63 5.64-.97 13.24-2.39 23.99-4.02 42.81-5.18 12.05-.75 2.55 6.16-.45 8.28M38 48.44c2.62.56 4.56.29 6.48-.13 7.07-1.55 17.18-3.55 24.53-4.61 1.98-.28 3.78-.56 5.74-.01"/><path d="M50.34 33.16c.91.91 1.04 1.95 1.04 3.34 0 4.98.06 10.16.06 12.39 0 6.61 1.44 7.61 10.48 7.61 5.83 0 9.46-.38 11.58-1.39M49.72 66.47c.06.73.2 1.92-.11 2.95-2.36 7.96-8.36 19.58-19.74 27.75M63.96 64c.59 1.02 1.1 2.22 1.1 3.78 0 3.59-.06 13-.06 17.72 0 8.62 1.75 10.69 13.55 10.69 14.33 0 15.13-2.32 15.13-7.8"/></g><g class="kgNumbers" font-size="8" fill="gray"><text transform="translate(44.25 11.25)">1</text><text transform="translate(59 14.88)">2</text><text transform="translate(21.5 43.38)">3</text><text transform="translate(33.25 29.88)">4</text><text transform="translate(36.25 46.25)">5</text><text transform="translate(43.25 40.25)">6</text><text transform="translate(42.25 65.25)">7</text><text transform="translate(55.25 67.38)">8</text></g></svg>