<svg xmlns="http://www.w3.org/2000/svg" width="109" height="109" class="kan-g"><g fill="none" stroke="#000" stroke-width="3" stroke-linecap="round" stroke-linejoin="round"><path d="M50.31 10.08c1.21 1.13 2.16 2.44 2.16 6.18 0 7.26-.03 6.39-.03 12.49M53.35 18.48c6.65-.48 13.3-1.57 20.14-2.29 2.25-.24 3.63-.29 4.76-.06M26.4 29.18c.63.6 1.22 2.85 1.19 5.02-.34 28.8-3.52 47.12-14.09 61.55M27.74 31.74c1.16.19 3.25.01 5.14-.22 14.37-1.77 40.37-5.02 51.81-5.18 12.07-.17 3.55 5.66.55 7.78M35.25 43.21c.87.35 3.02.51 3.88.35 8.56-1.57 23.41-3.87 32.82-4.73 1.45-.13 2.32.17 3.05.34"/><path d="M51.5 31.18c.64.54 1.5 2.67 1.5 3.42 0 6-.12 5.6-.12 8.28 0 7.97 3.58 7.37 12.81 7.37 3.44 0 12.6 0 15.56-1.07M53.28 54.75c1.97 1.5 3.97 3.5 4.92 5.69M33 66.82c1.26.05 3.64.33 4.87.29 10.28-.27 30.45-3.42 43.91-3.58 2.08-.02 3.14.03 4.69.37M67.53 67.97c.54.7.29 1.57-.23 2.96C63.5 81 51 93.5 24.75 99.25"/><path d="M43.34 71.07c10.41 6.43 24.27 17.57 36.61 24.28 2.32 1.26 5.03 2.24 7.04 2.35"/></g><g font-size="8" fill="gray"><text transform="translate(41.44 10.5)">1</text><text transform="translate(58.5 14.5)">2</text><text transform="translate(16.5 31.5)">3</text><text transform="translate(29.5 28.5)">4</text><text transform="translate(32.5 40.5)">5</text><text transform="translate(56.5 36.5)">6</text><text transform="translate(47.5 57.5)">7</text><text transform="translate(31.5 63.5)">8</text><text transform="translate(59.5 73.53)">9</text><text transform="translate(36.44 77.5)">10</text></g></svg>