<svg xmlns="http://www.w3.org/2000/svg" width="109" height="109" class="kan-g"><g fill="none" stroke="currentColor" stroke-width="3" stroke-linecap="round" stroke-linejoin="round"><path d="M10.76 34.68c.46.58 1.02 1.58 1.12 2.34.87 6.56 1.87 15.07 3.12 24.87"/><path d="M11.72 36.54c6.93-1.1 18.11-2.85 23.13-3.27 1.96-.16 2.86 1.56 2.62 3.21-.91 6.13-2.05 12.65-3.33 21.54M15.26 59.71c4.33-.48 13.95-1.23 20.01-1.68"/><path d="M22.42 15.75c1.08 1 2.26 2.75 2.26 4.47 0 4.78-.2 46.78-.2 60.16"/><path d="M12.57 84.77c.6 1.16 2.46 1.11 3.06.82.6-.29 16.54-7.15 20.26-9.47"/><path d="M31.75 67.75c2.58 2.76 6.66 11.35 7.31 15.64M66.98 12.05c.09.23 1.18 1.22 1.26 2.72.4 7.16.25 13.67.25 16.11M48.57 17.91c2.99 1.85 7.71 7.62 8.46 10.51M87.38 16.57c.02.29.04.74-.04 1.15-.5 2.43-3.35 7.77-7.25 11.04M47.01 30.98c-.16 4.04-2.91 13.52-4.26 15.93M46.91 34.2C55 33 78.07 30.24 90.2 29.51c8.38-.51 5.45 4.76-.48 9.3M52.39 43.6c.21.28.45.5.51.87.59 3.23 2.85 11 3.44 15.74M53.69 45.04c3.84-.68 24.02-2.04 27.56-2.73.89-.17 1.93.84 1.55 2.81-.62 3.21-2.14 6.6-3.18 10.96M56.78 58.66c5.97-.39 19.36-1.76 24.12-1.93M47.83 67.61c.28.5.79 1.84.94 2.46 1.25 5.11 2.77 16.85 3.5 26.25"/><path d="M48.39 69.58c11.08-1.06 32.1-3.08 39.54-3.58 2.73-.18 3.74 2.09 3.59 3.46-.55 5.01-2.2 16.95-3.28 24.96"/><path d="M68.36 69.44c.63.48.74 1.08.73 1.98-.04 5.92.18 18.91.18 21.06"/><path d="M51.05 81.88c8.78-.63 17.56-1.44 26.33-2.14 1.06-.08 2.1-.16 3.08-.24M52.41 94.59c8.13-.67 26.39-2.44 36.29-2.58"/></g><g font-size="8" fill="gray"><text transform="translate(5.5 43.5)">1</text><text transform="translate(14.5 32.5)">2</text><text transform="translate(17.5 56.5)">3</text><text transform="translate(13.54 16.5)">4</text><text transform="translate(4.5 86.5)">5</text><text transform="translate(34.5 69.5)">6</text><text transform="translate(58.5 11.18)">7</text><text transform="translate(42.25 15.1)">8</text><text transform="translate(80.25 13.5)">9</text><text transform="translate(38.5 32.5)">10</text><text transform="translate(48.5 31.88)">11</text><text transform="translate(45.5 51.5)">12</text><text transform="translate(55.5 41.5)">13</text><text transform="translate(59.25 54.65)">14</text><text transform="translate(40.5 74.5)">15</text><text transform="translate(49.75 66.5)">16</text><text transform="translate(72.25 75.93)">17</text><text transform="translate(54.5 78.5)">18</text><text transform="translate(55.5 90.5)">19</text></g></svg>