<svg xmlns="http://www.w3.org/2000/svg" width="109" height="109" viewBox="0 0 109 109" class="kan-g"><g class="kgPaths" fill="none" stroke="currentColor" stroke-width="3" stroke-linecap="round" stroke-linejoin="round"><path d="M41.44 9.5c.62 1.02.88 2.65.31 4.18-1.25 3.37-2.62 7.04-4.39 9.86-.74 1.18.19 1.92 1.71 1.71 6.31-.88 17.35-1.84 26.73-2.47"/><path d="M40.96 17.14c5.29-.39 23.77-2.17 25.92-2.36 1.79-.16 2.53.9 2.23 2.02-1.1 4.17-3.6 7.82-4.99 11.93M17.63 32.73c1.4.64 3.97.78 5.37.64C39.5 31.75 71.25 29 86.72 29c2.33 0 3.74.31 4.9.63M55.58 33.23c.07.24.15.62-.14.96-1.67 2.02-11.28 6.46-24.41 9.18M51.45 37.01c4.8 5.49 7.55 12.74 5.69 22.86-1.12 6.07-4.38 4.13-6.72.03"/><path d="M51.44 40.51c.07.29.14.75-.13 1.17-1.59 2.47-10.74 7.89-23.26 11.21M53.85 47.35c.08.32.17.83-.16 1.29-1.99 2.73-13.44 8.72-29.09 12.39M73.59 33.5c.04.27.09.69-.09 1.07-1.06 2.25-7.17 7.19-15.54 10.22M58.82 45.4c3.84 1.79 20.66 10.28 24.83 12.04 1.41.6 2.62.85 4.04 1.03M18.34 71.55c.4.27.68.94.75 1.3.54 2.58 1.5 7.63 2.25 12.51M19.39 72.59c6.02-.52 24.21-2 28.57-2.2 1.7-.08 1.78.82 1.61 1.97-.39 2.67-1.13 4.21-2.3 8.61"/><path d="M21.16 83.08c4.85-.52 20.6-1.73 27.38-2.22"/><path d="M33.11 63c.68.4 1.08 1.78 1.22 2.57.14.79 0 23.52-.13 28.46M16.75 97.72c.77.52 2.24 1.17 3.01 1.04.77-.13 19.74-5.43 26.49-7.13"/><path d="M42.49 85.97c2.55 2.29 6.58 9.43 7.22 13M56.68 70.34c.46.28.79.97.88 1.34.63 2.67 1.36 6.62 2.24 11.68M57.91 71.42c7.05-.54 24.07-2.58 29.17-2.78 1.99-.08 2.08.85 1.88 2.04-.46 2.76-.74 4.36-2.11 8.92M60.06 81.86c5.68-.54 21.1-1.87 29.04-2.37"/><path d="M72.11 59c.68.41 1.08 1.82 1.22 2.63.14.81 0 27.82-.13 32.87M56.75 97.84c.79.71 1.78 1.59 2.57 1.42.79-.18 24.77-6.46 29.68-7.88"/><path d="M83.24 84.97c3.7 2.56 9.54 10.52 10.47 14.5"/></g><g class="kgNumbers" font-size="8" fill="gray"><text transform="translate(34.5 8.5)">1</text><text transform="translate(46.5 13.5)">2</text><text transform="translate(10.5 33.5)">3</text><text transform="translate(37.5 39.5)">4</text><text transform="translate(57.5 41.5)">5</text><text transform="translate(37.5 47.5)">6</text><text transform="translate(46.5 51.5)">7</text><text transform="translate(65.5 36.5)">8</text><text transform="translate(67.5 47.5)">9</text><text transform="translate(9.5 78.5)">10</text><text transform="translate(21.5 69.5)">11</text><text transform="translate(24.25 80.5)">12</text><text transform="translate(37.25 64.98)">13</text><text transform="translate(13.5 94.5)">14</text><text transform="translate(46.5 89.5)">15</text><text transform="translate(50.5 78.5)">16</text><text transform="translate(59.5 68.5)">17</text><text transform="translate(62.25 78.5)">18</text><text transform="translate(62.5 59.5)">19</text><text transform="translate(54.5 94.5)">20</text><text transform="translate(88.5 87.5)">21</text></g></svg>