<svg xmlns="http://www.w3.org/2000/svg" width="109" height="109" viewBox="0 0 109 109" class="kan-g"><g class="kgPaths" fill="none" stroke="currentColor" stroke-width="3" stroke-linecap="round" stroke-linejoin="round"><path d="M53.73 19.64c.07.67-.35 2.35-.9 3.2C48.5 29.62 40.12 39 27.06 47.72M24.01 47.03c.99.72 1.64 2.36 1.79 3.28 1.2 7.33 2.2 21.15 3.02 34.33M26.66 51.33c11.87-1.41 45.81-3.8 54.22-4.3 2.62-.16 3.99 1.74 3.49 4.09-1.86 8.75-4.61 25.38-5.9 31.64"/><path d="M43.9 51.44c.3.7.69 1.77.73 2.65.5 12.28.5 20.41.96 29.44M62.99 49.6c.51 1.15.59 2.15.54 2.9-.53 8.13-1.15 16.25-2.04 30.46M9.75 85.78c2.46.49 6.96.61 9.42.49C45.5 85 69.12 83.62 90.53 83.33c4.09-.06 6.55.24 8.59.48"/></g><g class="kgNumbers" font-size="8" fill="gray"><text transform="translate(45.5 19.5)">1</text><text transform="translate(18.5 56.5)">2</text><text transform="translate(42.5 46.5)">3</text><text transform="translate(37.5 60.5)">4</text><text transform="translate(55.5 59.5)">5</text><text transform="translate(2.5 87.13)">6</text></g></svg>