<svg xmlns="http://www.w3.org/2000/svg" width="109" height="109" class="kan-g"><g class="kgPaths" fill="none" stroke="#000" stroke-width="3" stroke-linecap="round" stroke-linejoin="round"><path d="M36.72 13.21c.21 1.35-.06 3.11-.72 4.26-4.23 7.35-8.05 13.92-17.75 22.87M30.22 29.33c.85.85 1.31 2.05 1.31 3.22 0 6.48.02 12.12.03 17.45 0 1.83.01 3.51.01 4.97M44.41 29.48c2.16.52 4.93.41 7.11-.1 6.98-1.63 16.8-3.66 25.24-4.96 2.31-.35 4.72-.6 7.04-.15"/><path d="M55.08 10.54c1.62.88 2.45 2.23 3.13 4C63.62 28.75 69.5 40 86.75 50.09c5.67 3.32 5.45.38 4.65-3.5M78.6 11.46c2.99 1.19 7.77 3.93 9.17 5.97M53 48.45c1.15 1.15 1.5 2.67 1.5 3.68v5.75M22.75 61.64c3.38.61 6.64.31 10.13-.17 13.24-1.84 31.03-3.83 43.98-4.48 2.78-.14 6.18-.7 8.89.2M49.14 60.42c0 1.53-.8 2.6-1.67 3.76-4.8 6.44-14.59 17.57-27.92 24.39M40.62 77.2c.84.84.95 1.88.94 2.66-.03 9.84-.06 15.29-.06 16.95s1.12 2.61 2.53 1.36c1.42-1.25 13.05-9.36 14.94-10.61M73.86 63.96c.03.24-.15 1.17-.34 1.48-1.18 1.99-4.87 4.84-10.89 8.81M48.51 67.91c2.86.72 21.75 15.27 31.81 21.86 3.15 2.06 6.93 4.23 9.93 5.15"/></g><g class="kgNumbers" font-size="8" fill="gray"><text transform="translate(28.5 12.5)">1</text><text transform="translate(24.5 43.5)">2</text><text transform="translate(42.5 26.5)">3</text><text transform="translate(49.5 7.5)">4</text><text transform="translate(72.5 9.13)">5</text><text transform="translate(45.5 48.5)">6</text><text transform="translate(16.5 61.5)">7</text><text transform="translate(36.5 69.5)">8</text><text transform="translate(34.5 87.5)">9</text><text transform="translate(63.5 66.5)">10</text><text transform="translate(47.25 79.55)">11</text></g></svg>