<svg xmlns="http://www.w3.org/2000/svg" width="109" height="109" viewBox="0 0 109 109" class="kan-g"><g fill="none" stroke="currentColor" stroke-width="3" stroke-linecap="round" stroke-linejoin="round"><path d="M23.83 15.75c3.42 2.59 7.07 6.47 10 11M13.2 39.86c.94.39 2.41 1.05 3.96.61 1.9-.54 18.37-4.83 20.69-5.49 2.33-.66 4.58.83 3.26 2.85C33.36 49.65 22.9 64.52 11.5 73.5"/><path d="M29.5 54.61c.12.29 1.65 1.53 1.77 3.39.57 8.93.06 34.7.06 37.75M42.83 51.39c.13.77.26.98 0 1.53-.8 1.69-3.28 5.83-4.88 7.83M33.83 58.75c3.5 2.18 7.25 5.44 10.25 9.25M50 47.33c.75 1.17 1.33 2.38 1.5 3.4 1.43 8.4 4.16 27.51 5.01 42.98M52.52 50.1C65.96 48 82.6 45.98 91.1 45.15c3.12-.3 4.29 2.13 4.12 4.38-.62 8.25-2.5 27.72-4.47 41.3"/><path d="M70.86 15.86c1.16 1.09 1.85 2.66 1.85 4.1.04 14.16.21 65.88.21 69.58"/><path d="M54.54 68.87c8.81-.96 17.62-1.83 26.44-2.69 1.06-.1 2.09-.2 3.07-.29M57.11 90.61c9.39-.59 22.43-1.8 33.75-2.02"/></g><g font-size="8" fill="gray"><text transform="translate(16.5 16.5)">1</text><text transform="translate(5.44 40.5)">2</text><text transform="translate(24.44 69.5)">3</text><text transform="translate(40.5 48.91)">4</text><text transform="translate(34.5 70.5)">5</text><text transform="translate(45.5 59.5)">6</text><text transform="translate(55.5 46.5)">7</text><text transform="translate(60.5 14.5)">8</text><text transform="translate(58.19 65.5)">9</text><text transform="translate(59.5 87.5)">10</text></g></svg>