<svg xmlns="http://www.w3.org/2000/svg" width="109" height="109" class="kan-g"><g fill="none" stroke="#000" stroke-width="3" stroke-linecap="round" stroke-linejoin="round"><path d="M25.08 13.25c2.99 2.59 6.19 6.47 8.75 11M12.25 34.8c.95.41 2.89.8 4.53.64 4.47-.44 18.15-4.02 20.51-4.7 2.36-.69 4.65.87 3.31 2.98C32.72 46.1 22.09 60.1 10.5 69.5"/><path d="M28 51.11c.12.29 1.65 1.53 1.77 3.39.57 8.93.06 38.2.06 41.25M42.25 45.39c.2.85.4 1.08 0 1.7-1.2 1.87-4.9 6.45-7.3 8.66M32.83 56.25c3.16 3 6.54 7.5 9.25 12.75M67.7 26.22c2.39-.22 17.34-2.61 18.65-2.61 1.3 0 3.06 0 4.13.22"/><path d="M65.84 11.38c.57.36 1.76 2.72 1.87 3.44.11.73-.07 20.71-.19 25.25M44.61 42.73c1.29.29 3.67.36 4.96.29 11.24-.63 23.33-2.7 42.66-3.62 2.15-.1 3.45.14 4.52.28M44.75 57.74c.76.13 3.88.62 5.19.5 12.81-1.24 27.2-3.32 40.72-3.98 1.56-.08 3.77.17 5.34.5M66.95 58.75c.96 1.09 1.09 2.87 1.09 4.92 0 10.79-.3 22.25-.3 35.83M71.08 65.42c5.64 1.64 15.19 8.45 17.92 16.21"/></g><g font-size="8" fill="gray"><text transform="translate(17.5 12.63)">1</text><text transform="translate(4.5 35.5)">2</text><text transform="translate(23.5 67.5)">3</text><text transform="translate(35.5 48.5)">4</text><text transform="translate(32.5 71.5)">5</text><text transform="translate(72.5 22.5)">6</text><text transform="translate(56.5 11.5)">7</text><text transform="translate(45.5 39.5)">8</text><text transform="translate(45.5 54.5)">9</text><text transform="translate(57.25 66.95)">10</text><text transform="translate(74.5 65.38)">11</text></g></svg>