<svg xmlns="http://www.w3.org/2000/svg" width="109" height="109" viewBox="0 0 109 109" class="kan-g"><g class="kgPaths" fill="none" stroke="currentColor" stroke-width="3" stroke-linecap="round" stroke-linejoin="round"><path d="M17.33 16.16c2.27.73 4.49.67 6.8.33 7.62-1.11 16.24-2.61 23.99-2.85 2.19-.07 4.29-.03 6.42.38M33.46 18.36c.04.76-.29 2.03-.7 2.72-2.77 4.63-8.19 10.99-17.65 17.91M32.72 26.92c1.24.14 2.51.29 3.75.05 2.52-.49 6.04-1.47 10.24-2.49 2.42-.58 3.33 1.36 2.78 2.94-2.87 8.2-18.93 26.25-33.75 31.58"/><path d="M25.75 34.62c2.41 1.35 6.23 5.54 6.84 7.64M66.07 17.34c1.05 1.05 1.27 2.29 1.27 4.07 0 6.15-.02 15-.03 20.46-.01 2.59-.01 4.41-.01 4.81M85.86 11.83c1.09 1.09 1.67 2.1 1.67 4.06 0 4.73.01 29.19.01 32.38 0 7.19-4.86.3-6.29-.51M52.91 48.08c1.13 1.13 1.2 2.29 1.2 4.18 0 1.49-.11 4.87-.11 6.87M22.28 62.34c3.34.54 6.17.36 9.47.06 11.73-1.09 31.79-3.21 44-3.87 2.91-.16 5.5-.28 9.26.4M45.41 62.1c.08.57-.17 1.51-.67 2.28-3.2 4.95-13.63 14.23-29.67 22.05M38.16 76.29c.77.77.82 1.83.82 3.22 0 7.2-.02 13.35-.02 14.57 0 1.22.89 1.79 2.21 1 3.45-2.08 9.58-5.96 13.21-8.13M80.67 67.35c-.17 1.02-.63 1.84-1.25 2.44-2.54 2.46-6.79 5.33-9.92 7.21M52.71 68.44c2.16.31 20.59 15.9 29.39 22.22 2.76 1.99 4.58 3.26 7.62 4.74"/></g><g class="kgNumbers" font-size="8" fill="gray"><text transform="translate(11.25 17.25)">1</text><text transform="translate(23 26.25)">2</text><text transform="translate(38.25 23.25)">3</text><text transform="translate(31.25 36.25)">4</text><text transform="translate(60.5 14.25)">5</text><text transform="translate(77.25 12.25)">6</text><text transform="translate(45.25 50.25)">7</text><text transform="translate(15.5 67.38)">8</text><text transform="translate(30.25 72.25)">9</text><text transform="translate(28.25 88.25)">10</text><text transform="translate(70.25 68.25)">11</text><text transform="translate(46.25 77.25)">12</text></g></svg>