<svg xmlns="http://www.w3.org/2000/svg" width="109" height="109" class="kan-g"><g class="kgPaths" fill="none" stroke="#000" stroke-width="3" stroke-linecap="round" stroke-linejoin="round"><path d="M23.13 10.5c3.48 1.31 9 5.39 9.87 7.43M16.88 23c3.75 1.44 9.69 5.91 10.62 8.15M19.75 48.53c1.75.72 3.37.27 4.54-1.24 3.42-4.37 6.85-9.71 9.96-15.29M64.95 9.5c.06.24.86 1.28.93 2.83.3 7.47-.19 18.88-.19 21.43 0 7.22-4.96 1.51-6.06.87M53.92 17.37c.1 1.1-.07 1.79-.59 2.79-2.23 4.34-8.36 11.35-13.42 14.86M77.75 16.63c6.37 3.25 14.91 11.62 16.5 16.68"/><path d="M80.88 26.31c.12.6-.06 1.64-.74 2.43C73.5 36.5 56.63 47.75 37.5 52.5M54.94 49.25c.97.97 1.19 2 1.19 3.38 0 1.47-.01 4.25-.01 5.87M17.56 62.36c3.09.21 5.84.5 8.95.23 13.47-1.18 36.83-4.38 51.36-5.3 3.49-.22 7.75-.6 11.13.62M48.72 62.75c.21 1.31-.85 2.45-1.65 3.31-5.28 5.62-15.65 14.12-33.45 23.23M39.69 76.08c.71.71.93 1.9.93 3.05 0 10.63.1 15.23.1 17.03 0 1.8 1.1 2.82 2.5 1.47s13.35-10.66 15.22-12.01M76.56 64.57c.08.77-.37 1.67-.78 2.28-1.39 2.08-3.11 3.93-8.04 7.73M55.33 67.39c1.55.09 17.41 14.29 26.5 21.17 2.48 1.88 5.42 3.95 8.6 5.3"/></g><g class="kgNumbers" font-size="8" fill="gray"><text transform="translate(16.25 11.25)">1</text><text transform="translate(10.25 23.25)">2</text><text transform="translate(12.25 52.25)">3</text><text transform="translate(56.25 9.25)">4</text><text transform="translate(45.25 16.25)">5</text><text transform="translate(73.25 13.25)">6</text><text transform="translate(73.25 26.25)">7</text><text transform="translate(48.25 55.85)">8</text><text transform="translate(10.25 64.25)">9</text><text transform="translate(32.25 70.7)">10</text><text transform="translate(31.25 87.25)">11</text><text transform="translate(65.25 66.25)">12</text><text transform="translate(49.25 75.48)">13</text></g></svg>