<svg xmlns="http://www.w3.org/2000/svg" width="109" height="109" viewBox="0 0 109 109" class="kan-g"><g class="kgPaths" fill="none" stroke="currentColor" stroke-width="3" stroke-linecap="round" stroke-linejoin="round"><path d="M22.64 23.13c1.15.47 3.27.6 4.42.47 7.35-.81 44.01-5.32 51.13-4.77 1.92.15 3.08.22 4.04.46M17 44.74c.5.84 1.02 1.54 1.24 2.6 1.74 8.35 3.33 31.4 4.52 46.41M18.13 46.08c12.3-1.63 63.49-5.72 69.83-6.27 2.32-.2 3.48 1.98 3.38 3.2-.59 7.24-2.59 36.99-4.5 49.94"/><path d="M39.26 25.38c1.34.61 2.37 2.74 2.41 3.99.33 10.13 1.58 34.88 2.48 46.61M63.41 23.08c1.34.61 1.9 2.81 1.89 5.64-.05 11.28.2 27.03-.3 44.53"/><path d="M44.25 74.59c6.75-1.09 11.5-2.09 21.17-3.46"/></g><g class="kgNumbers" font-size="8" fill="gray"><text transform="translate(15.75 22.13)">1</text><text transform="translate(10.5 51.3)">2</text><text transform="translate(22 41.97)">3</text><text transform="translate(34 33.65)">4</text><text transform="translate(57 30.57)">5</text><text transform="translate(47.5 71)">6</text></g></svg>