<svg xmlns="http://www.w3.org/2000/svg" width="109" height="109" viewBox="0 0 109 109" class="kan-g"><g class="kgPaths" fill="none" stroke="currentColor" stroke-width="3" stroke-linecap="round" stroke-linejoin="round"><path d="M32.25 12.64c.82.35 2.33.44 3.15.35 5.24-.6 31.39-3.92 36.46-3.52 1.37.11 2.2.16 2.88.34M21 24.18c.72.72 1.22 1.66 1.32 2.46.64 2.12 1.17 5.06 1.68 8.11.22 1.32.41 2.59.58 3.71M22.91 25.25c17.05-2.21 45.84-5.25 63.86-6.43 2.98-.2 5.04.1 4.24 3.43-.49 2.05-1.11 4.67-1.87 7.29-.38 1.31-.79 2.62-1.24 3.85"/><path d="M42.83 14.46c.71.38 1.19 1.69 1.28 2.46.27 2.27.93 10.8 1.58 16.1M64.27 12.31c.73 1.19.74 2.57.49 4.29-.63 4.28-1.13 9.03-1.94 14.72M25.34 35.63C41.25 34 69.25 31.5 87.48 30.88M31.13 41.38c.1 1.01 0 1.51-.56 2.37-2.39 3.74-8.47 10.87-13.77 14.11M35.01 54.54c.09 1.02-.21 1.93-.71 2.8-2.67 4.68-10.3 12.78-18.4 19.19M26.91 70.02c.91.91 1.22 2.11 1.22 3.48 0 3.6 0 13.75-.03 20-.01 2.54-.02 4.44-.04 5M54 35.75c.07.96-.02 1.65-.37 2.55-1.68 4.31-4.13 8.26-10.02 15.3M54.91 43.85c1.33.44 2.89.17 4.23.03 4.55-.47 13.61-2 19.77-2.75 2.04-.25 3.76-.28 5.76-.22M52.25 51.86c.78.84 1.02 1.89 1.17 3.01.33 2.56.86 7.63 1.35 10.88.25 1.64.29 3.16.42 3.7M54.12 53.09c4.53-.66 18.53-2.71 24.38-3.41 2.32-.28 4.09.69 3.59 3.19-.46 2.31-1.43 7.55-2.07 11.13-.36 2.02-.62 3.52-.62 3.64"/><path d="M55.25 59.83c6.73-.82 18.83-1.92 24.72-2.37M56.06 67.42c7.32-.79 15.38-1.57 22.71-1.83M57.48 71.58c.1 1.18-.31 2.03-.89 3.1-2.31 4.28-7.34 10.76-12.75 15.47M58.91 76.87c1.22.1 2.51-.05 3.71-.26 3.11-.54 8.39-2.45 11.04-2.96 2.14-.41 2.82 1.51 2.2 2.6-4.11 7.25-15.86 19-30.75 23.9"/><path d="M54.63 82.19C61 84.25 76.09 92.78 84.47 96.45c2.78 1.22 5.03 2.05 8.6 3.04"/></g><g class="kgNumbers" font-size="8" fill="gray"><text transform="translate(26.25 12.13)">1</text><text transform="translate(14.25 31.55)">2</text><text transform="translate(24.75 21.13)">3</text><text transform="translate(36.75 19.5)">4</text><text transform="translate(58.5 18.5)">5</text><text transform="translate(27.5 32.5)">6</text><text transform="translate(22.5 47.5)">7</text><text transform="translate(27.5 58.5)">8</text><text transform="translate(21.75 82.4)">9</text><text transform="translate(41.25 42.13)">10</text><text transform="translate(58.5 40.63)">11</text><text transform="translate(42.75 63.13)">12</text><text transform="translate(55.5 50.5)">13</text><text transform="translate(57.5 57.5)">14</text><text transform="translate(58.5 65.98)">15</text><text transform="translate(42.75 79.4)">16</text><text transform="translate(61.5 73.5)">17</text><text transform="translate(60.5 83.5)">18</text></g></svg>