<svg xmlns="http://www.w3.org/2000/svg" width="109" height="109" viewBox="0 0 109 109" class="kan-g"><g fill="none" stroke="currentColor" stroke-width="3" stroke-linecap="round" stroke-linejoin="round"><path d="M24.14 15.16c1.44.45 4.07.51 5.52.45C41.73 15.03 68 13 78.45 12.58c2.39-.1 3.84-.29 5.04-.07M23.02 23.74c.53.92 1.2 1.65 1.31 2.82.28 2.88 1.88 8.83 2.14 13.44"/><path d="M24.13 25.72c10.3-1.36 55.32-4.46 60.63-4.92 1.94-.17 2.83 1.66 2.83 2.68 0 2.76-1.59 8.26-2.27 12.33"/><path d="M43.55 16.01c.32.25.54 1.11.58 1.62.36 4.38.88 11.11 1.1 15.86M63.9 14.08c.32.25.46 1.14.46 2.28-.01 4.56-.61 8.14-1.07 15.02M45.26 32.42c3.74-.17 14.49-.92 19.63-.9M34.91 34.7c.18.3.24.68.16.93-.58 1.82-2.4 5.24-4.36 7.32M20.75 44.33c.41.42.82 1.12.82 1.68 0 .55 2.63 13.31 2.8 16.04M21.82 45.81c2.32-.07 23.44-3.11 25.54-3.23 1.34-.07 1.88.46 1.88 1.33 0 1.49-1.74 8.84-3.57 14.36"/><path d="M23.69 51.86c3.97-.17 7.94-.6 11.9-.94 1.16-.1 2.32-.2 3.42-.29M24.62 59.48c5.81-.22 14.44-1.61 20.64-1.71M32.85 61.75c1.23.56 3.4 2.5 4.26 3.84M16.84 71.91c1.36.05 2.88.36 4.2.29 10.67-.61 17.94-3 26.26-3.88 2.2-.23 3.31-.13 4.98.22M35.63 75.42c2.62.83 3.54 1.73 6.64 2.01 1.57.14 1.99 1.5 1.85 2.71-.46 3.92-6.53 13.07-8.67 15.55-2.25 2.61-3.96-.46-5.19-1.76M33.74 73.24c.05.47.12 1.21-.1 1.89-1.61 4.98-6.59 12.93-17.17 18.05M64.52 36.39c.04.62.22 1.65-.07 2.51-1.82 5.5-5.91 16.36-12.2 23.97M63.76 48.82c.99.18 1.87-.05 2.53-.1 7.88-.53 13.69-1.95 23.2-2.62 1.18-.08 1.9-.02 2.21.08M80.51 49.13c.51 1.18.93 2.05.26 4.16C74.5 72.75 64.25 85.5 48.73 97"/><path d="M57.9 55.53c2.6 5.97 19.35 30.22 29.91 39.65 1.74 1.55 2.79 1.86 4.18 2.03"/></g><g font-size="8" fill="gray"><text transform="translate(16.5 15.5)">1</text><text transform="translate(16.5 31.5)">2</text><text transform="translate(26.5 23.5)">3</text><text transform="translate(37.5 22.5)">4</text><text transform="translate(57.5 20.5)">5</text><text transform="translate(48.5 30.5)">6</text><text transform="translate(30.5 33.18)">7</text><text transform="translate(14.5 50.5)">8</text><text transform="translate(21.5 43.5)">9</text><text transform="translate(26.5 50.5)">10</text><text transform="translate(27.5 57.5)">11</text><text transform="translate(25.25 66.8)">12</text><text transform="translate(6.5 72.5)">13</text><text transform="translate(42.5 75.5)">14</text><text transform="translate(21.5 80.5)">15</text><text transform="translate(53.5 40.5)">16</text><text transform="translate(66.5 46.5)">17</text><text transform="translate(70.5 55.5)">18</text><text transform="translate(62.5 61.28)">19</text></g></svg>