<svg xmlns="http://www.w3.org/2000/svg" width="109" height="109" class="kan-g"><g fill="none" stroke="currentColor" stroke-width="3" stroke-linecap="round" stroke-linejoin="round"><path d="M25.71 14.13c.58.4 1.81 3.03 1.92 3.83.12.81-.19 29.27-.19 41.12M27.98 34.14c6.83-.87 14.41-2.6 15.36-2.6.95 0 2.66 0 3.41.29M12.91 59.85c.32.53.66.97.8 1.64 1.12 5.25 2.97 19.74 3.74 29.17"/><path d="M13.85 62.25c9.9-2 22.36-4.44 26.51-4.79 2.4-.2 3.89 2.73 3.68 4.33-.89 6.61-2.99 13.94-4.22 22.33M17.27 87.6c6.11-.47 16.48-2.1 25.85-3.24M55.19 16.28c.48 1.09 1.17 1.91 1.17 3.37 0 1.46-.16 44.14 0 45.6M57.15 17.76c2.69-.18 23.2-3.55 25.65-3.77 2.04-.18 3.65 1.02 3.48 2.37-.22 1.72-.95 44.53-.95 45.62"/><path d="M57.1 32.15c4.44 0 9-.92 13.39-1.48 1.44-.19 2.88-.37 4.27-.54M57.33 45.14c4.72-.32 9.42-.83 14.13-1.33 1.26-.13 2.52-.27 3.75-.4M58.02 61.58c5.35 0 19.67-2.19 26.59-2.19M64.74 64.75c.07.74.14 1.9-.14 2.96C62.95 73.94 53.47 87.62 40.5 96M73.86 62.97c.43 1.1.77 2.4.8 4.11.07 4.48-.33 10.9-.33 16.18C74.33 96 75.74 96.74 85 96.62s11.75-1.12 11.75-9.96"/></g><g font-size="8" fill="gray"><text transform="translate(16.5 14.5)">1</text><text transform="translate(32.5 29.5)">2</text><text transform="translate(5.5 66.5)">3</text><text transform="translate(16.5 58.5)">4</text><text transform="translate(21.25 83.5)">5</text><text transform="translate(48.5 24.5)">6</text><text transform="translate(59.5 14.5)">7</text><text transform="translate(60.5 29.5)">8</text><text transform="translate(60.5 41.5)">9</text><text transform="translate(59.5 58.5)">10</text><text transform="translate(51.25 74.5)">11</text><text transform="translate(64.5 79.5)">12</text></g></svg>