<svg xmlns="http://www.w3.org/2000/svg" width="109" height="109" class="kan-g"><g fill="none" stroke="#000" stroke-width="3" stroke-linecap="round" stroke-linejoin="round"><path d="M72.22 9.93c.12.27.25.7-.25 1.1-2.96 2.31-21.22 9.48-43.14 10.48M33.4 25.68c.04.34.08.87-.08 1.36-.94 2.85-6.38 9.12-13.82 12.96M49.15 23.62c2.86 2.14 7.39 8.8 8.11 12.13M70.01 20.62c6.09 2.76 15.72 11.34 17.24 15.63M33.65 41.32c.46.78 1.12 1.36 1.12 2.41 0 1.04-.15 30.44 0 31.48M35.54 42.38c2.58-.13 34.25-3.53 36.6-3.69 1.96-.13 3.5.73 3.34 1.69-.21 1.22-.91 31.79-.91 32.57"/><path d="M35.49 52.15c6.25 0 12.62-.99 18.84-1.56 2.13-.19 4.27-.39 6.3-.57M35.7 62.5c6.37-.31 12.72-1.07 19.06-1.67 1.9-.18 3.8-.36 5.62-.52M36.37 73.3c5.13 0 30.86-2.56 37.49-2.56M45.5 76.15c.07.57.16 1.48-.15 2.3-1.82 4.86-8.6 17.55-26.6 22.05M59.41 74.84c.57.81 1.03 1.76 1.06 3 .08 2.95-.44 7.05-.44 10.66 0 10.25 3.47 10.86 16.97 10.86S93.25 97 93.25 88.67"/></g><g font-size="8" fill="gray"><text transform="translate(64 8.5)">1</text><text transform="translate(23.5 28.5)">2</text><text transform="translate(43.5 29.5)">3</text><text transform="translate(63.5 24.5)">4</text><text transform="translate(26.5 48.5)">5</text><text transform="translate(36.5 39.5)">6</text><text transform="translate(39.54 49.5)">7</text><text transform="translate(39.51 59.5)">8</text><text transform="translate(39.5 70.5)">9</text><text transform="translate(32.5 84.5)">10</text><text transform="translate(50.5 84.5)">11</text></g></svg>