<svg xmlns="http://www.w3.org/2000/svg" width="109" height="109" class="kan-g"><g fill="none" stroke="#000" stroke-width="3" stroke-linecap="round" stroke-linejoin="round"><path d="M20.16 13.89c.45.2.72.91.81 1.32.09.41 0 29.26-.09 31.8M21.07 14.9c4.43-.15 16.53-1.41 23.44-1.71 1.05-.04 1.68-.1 2.2.01M33.39 14.41c.09.41.06 6.47-.03 9M21.25 24.62c7.12-.74 16.49-1.52 21.43-2.03 2-.21 2.56.63 2.28 1.72-.5 1.98-1.25 4.81-1.76 7.19M21.28 33.73c2.97-.3 20.15-1.52 22.95-1.7M33.7 33.34c.09.4.06 7.29-.03 9.82M21.57 44.77c5.43-.52 17.93-2.02 25.01-2.51 1.04-.07 1.68-.1 2.2.01M64.27 10.14c.03.5.23 1.33-.07 1.99C62 17 58 24.5 52.31 31.22M61.25 21.39c.94.38 2.66.49 3.6.38 5.98-.66 17.15-2.52 23.11-3.38 1.55-.22 2.5.18 3.29.37M61.75 35.39c.83.38 2.35.49 3.18.38 5.29-.66 13.15-1.27 18.42-2.04 1.37-.2 2.65.1 3.9.33M35.99 49.9c.61.68 1.01 2.18 1.01 3.08 0 .9-.41 23.82-.41 24.28s.21 1.09.41 1.99M38.03 51.31c3.48-.11 30.01-3.19 33.18-3.33 2.64-.11 4.04.76 4.01 3.6-.03 2.52-.53 14.5-.52 24.43 0 1.02-.21 1.47-.21 2.14"/><path d="M36.97 59.71c6.76-.35 13.5-1.02 20.24-1.59l5.65-.47M37.25 68.52c6.06-.38 13.62-.91 19.67-1.4 1.78-.14 3.57-.29 5.32-.43M36.65 78.1c11.1-.6 28.1-2.1 37.89-2.85M44.6 81c.07.46.15 1.18-.14 1.84-1.68 3.87-10.54 13.11-24.54 17.58M58.75 78.72c.68 1.16.76 2.54.76 4.34 0 3.69.04-1.64.04 3.82 0 10.37 3.96 11.29 16.52 11.29 13.19 0 14.77-1.64 16.02-2.57 2.65-1.96 1.93-2.94 2.17-6.37"/></g><g font-size="8" fill="gray"><text transform="translate(14.75 24.13)">1</text><text transform="translate(23.25 11.63)">2</text><text transform="translate(35.12 20.61)">3</text><text transform="translate(23.11 22.71)">4</text><text transform="translate(23.16 32.07)">5</text><text transform="translate(35.68 39.18)">6</text><text transform="translate(22.52 42.29)">7</text><text transform="translate(56.25 12.13)">8</text><text transform="translate(65.84 19.43)">9</text><text transform="translate(59.5 32.48)">10</text><text transform="translate(25.91 57.18)">11</text><text transform="translate(38.73 49.45)">12</text><text transform="translate(37.62 58.18)">13</text><text transform="translate(38.07 66.41)">14</text><text transform="translate(38.18 75.98)">15</text><text transform="translate(30.5 87.5)">16</text><text transform="translate(60.51 83.48)">17</text></g></svg>