<svg xmlns="http://www.w3.org/2000/svg" width="109" height="109" viewBox="0 0 109 109" class="kan-g"><g class="kgPaths" fill="none" stroke="currentColor" stroke-width="3" stroke-linecap="round" stroke-linejoin="round"><path d="M24.8 15.75c2.52 1.5 6.5 6.17 7.13 8.5M12.62 33.58c.71.23 3.4.27 4.1.23 8.73-.42 15.15-1.81 22.33-2.62 1.17-.13 2.95-.14 3.54-.02M18.68 47.31c1.35.38 3.19.16 4.59.06 4.1-.29 8.36-1.43 12.47-1.99 1.09-.15 2.45-.32 3.54-.13M19.8 60.08c1.22.37 2.94.4 4.2.31 3.61-.26 8.04-1.36 11.37-1.9 1.23-.2 2.73-.49 3.96-.27M18.64 72.46c.82.82 1.07 1.95 1.26 2.9.61 3.13 1.42 8.01 2.11 12.35.26 1.62.49 3.17.69 4.53M20.76 73.8c5.82-1.08 10.43-2 14.98-2.74 3.77-.62 5.18-.15 4.47 3.85-.57 3.2-1.52 6.81-2.74 11.91M23.47 90.14c5.15-1.09 8.2-1.63 12.31-2.18 1.1-.15 2.29-.3 3.65-.46M79.03 16c.08.52-.15 1.54-.65 2.09-6.25 6.79-14.75 14.29-27.88 20.21M46 55.41c3.5.59 5.69.49 8.15-.15 9.6-2.5 23.35-5.13 32.35-6.5 2.28-.35 4.49-.38 6.75.17"/><path d="M64.25 33.79c.85.85 1.32 2.22 1.32 3.36 0 3.55-.07 40-.07 43.48 0 7.79 2.12 9.59 14.02 9.59 13.01 0 13.88-2.51 13.88-9.68"/></g><g class="kgNumbers" font-size="8" fill="gray"><text transform="translate(18.75 16.63)">1</text><text transform="translate(5.25 34.55)">2</text><text transform="translate(11.5 48.5)">3</text><text transform="translate(12.5 62.5)">4</text><text transform="translate(11.5 78.5)">5</text><text transform="translate(21.5 70.63)">6</text><text transform="translate(26.25 86.5)">7</text><text transform="translate(70.5 15.5)">8</text><text transform="translate(44.5 52.63)">9</text><text transform="translate(55.5 44.5)">10</text></g></svg>