<svg xmlns="http://www.w3.org/2000/svg" width="109" height="109" class="kan-g"><g class="kgPaths" fill="none" stroke="currentColor" stroke-width="3" stroke-linecap="round" stroke-linejoin="round"><path d="M24.63 15.75c2.25 1.5 5.81 6.17 6.37 8.5M11.12 34.33c1.46.54 3.5.26 5.01.15 6.84-.48 15.86-1.64 21.88-2.49 1.69-.24 3.63-.69 5.33-.32M18.23 47.81c1.16.37 2.82.41 4.03.32 3.68-.29 8.79-1.49 12.86-2.11 1.24-.19 2.78-.5 4.02-.26M18.73 60.58c1.15.39 2.97.38 4.15.27 3.45-.31 8.62-1.23 12.48-1.91 1.26-.22 2.91-.48 4.17-.23M17.14 73.15c.69.58 1.11 1.47 1.35 2.45.87 3.61 1.72 9.32 2.5 14.4.17 1.12.34 2.22.51 3.25M19.31 74.62c5.7-.79 12.12-2.02 17.58-2.92 2.7-.44 4.72-.37 4.04 2.84-.8 3.78-1.57 7.23-3 13.67M22.47 91.05c3.4-.38 8.16-.93 14.15-1.67.98-.12 2-.25 3.04-.38M63.49 13.14c.14.98.02 2.1-.35 3.21-2.52 7.65-8.06 20-16.53 29.93M57.79 35c.96.12 1.88.03 2.54-.04 6.29-.59 15.42-2.09 23.56-4.03 1.71-.41 3.89-.61 5.64-.27M45 57.13c3.06.62 5.9.63 8.61.34 11.52-1.22 25.52-2.97 36.1-3.47 3.9-.19 6.22-.1 9.04.45"/><path d="M70.57 36.52c1.02 1.02 1.51 2.73 1.51 4.36 0 .7-.03 32.9-.08 48.25-.01 3.72-.03 6.45-.04 7.51"/></g><g class="kgNumbers" font-size="8" fill="gray"><text transform="translate(16.99 13.63)">1</text><text transform="translate(3.75 36.13)">2</text><text transform="translate(11.25 49.55)">3</text><text transform="translate(11.25 61.48)">4</text><text transform="translate(11.25 83.9)">5</text><text transform="translate(21.75 72.13)">6</text><text transform="translate(26.25 87.05)">7</text><text transform="translate(56.25 10.63)">8</text><text transform="translate(65.25 30.13)">9</text><text transform="translate(45.75 54.13)">10</text><text transform="translate(60.75 45.13)">11</text></g></svg>