<svg xmlns="http://www.w3.org/2000/svg" width="109" height="109" class="kan-g"><g class="kgPaths" fill="none" stroke="currentColor" stroke-width="3" stroke-linecap="round" stroke-linejoin="round"><path d="M21.8 15c3.66 1.81 9.46 7.44 10.38 10.25M11.12 36.58c.71.23 3.4.27 4.1.23 8.73-.42 18.48-3.67 24.83-3.87 1.18-.04 2.95.11 3.54.23M18.18 47.56c.43.12 3.04.13 3.47.12 4.44-.14 8.86-1.43 13.34-2.05.7-.1 3.68.06 4.04.12M17.8 60.33c.38.12 2.71.13 3.1.12 3.97-.13 11.11-1.7 14.83-2.59.62-.15 3.29.06 3.6.11M17.01 74.4c.39.36.83 1.15.96 1.63 1.11 4.21 2.52 13.54 3.64 19.71M18.44 75.87c7.2-.89 13.9-3.6 20.55-4.5 1.67-.22 2.68 1.04 2.44 2.06-.99 4.25-1.86 8.72-3.62 15.78M21.42 93.05c5.37-.54 10.68-1.97 18.06-2.81M61.6 13.25c.04.8.09 2.08-.08 3.23-1.02 6.81-6.9 21.76-14.94 30.91M63.65 23.19c.76.29 1.81.34 3.04.19 4.69-.55 17.57-3.13 21.79-3.96 2.98-.58 3.4 1.54 2.69 3.48-1.42 3.85-5.17 17.35-11.31 25.52-1.56 2.08-4.11 2.08-7.13-1.88M65.08 50.27c.04.28.15.81-.07 1.11-2.95 3.96-6.38 7.49-13.1 10.64M48.9 60.28c.77.67 1.08 2.19 1.27 3.57.69 5.06 2.88 24.82 3.57 31.66M53.13 76.04c3.39-.33 11.19-2.1 11.99-2.1h2.58M75.04 58.42c.81.16 1.45.49 2.58.49s13.08-1.96 14.37-2.13c1.29-.16 2.36.81 2.26 1.8-.97 9.49-3.73 34.96-3.89 35.61"/><path d="M74.86 72.3c.81.16 1.45.49 2.58.49 1.13 0 14.12-1.81 15.41-1.97M53.4 92.72c2.1 0 34.39-2.13 36.81-2.29"/></g><g class="kgNumbers" font-size="8" fill="gray"><text transform="translate(14.5 14.5)">1</text><text transform="translate(3.5 37.5)">2</text><text transform="translate(10.5 48.5)">3</text><text transform="translate(11.5 62.5)">4</text><text transform="translate(10.5 81.15)">5</text><text transform="translate(19.5 72.5)">6</text><text transform="translate(24.5 89.5)">7</text><text transform="translate(52.5 12.5)">8</text><text transform="translate(67.5 20.5)">9</text><text transform="translate(53.5 51.5)">10</text><text transform="translate(40.5 67.5)">11</text><text transform="translate(55.5 71.5)">12</text><text transform="translate(82.5 54.5)">13</text><text transform="translate(71.5 69.5)">14</text><text transform="translate(56.5 88.5)">15</text></g></svg>