<svg xmlns="http://www.w3.org/2000/svg" width="109" height="109" class="kan-g"><g class="kgPaths" fill="none" stroke="#000" stroke-width="3" stroke-linecap="round" stroke-linejoin="round"><path d="M21.13 16.25c3.57 2.03 9.23 8.34 10.12 11.5M10.12 37.75c.68.24 3.27.28 3.95.24 8.39-.44 18.26-2.77 24.37-2.98 1.14-.04 2.84.12 3.4.24M16.73 49.06c.38.12 2.71.13 3.1.12 3.97-.14 9.3-1.56 13.21-1.55.63 0 3.29.06 3.61.12M16.23 61.83c.34.12 2.42.13 2.77.12 3.55-.13 11.32-1.61 14.81-1.59.57 0 2.94.06 3.22.11M15.14 74.91c.39.4.83.72.96 1.24 1.1 4.62 2.51 15.32 3.62 22.1M16.55 76.71c7.4-1.01 13.77-2.32 20.6-3.34 1.71-.25 2.75 1.18 2.5 2.34-1.02 4.82-1.91 10.05-3.72 18.07M20.02 95.15c5.34-.33 11.12-.91 18.45-1.43M83.72 12.64c-.47 1.36-1.32 2.58-1.91 2.87-7.31 3.49-13.74 6-31.76 9.25M52.45 29.65c.02.34.05.88-.04 1.37-.54 2.88-3.66 9.21-7.93 13.08M63.53 26.02c2.46 2.12 6.36 8.73 6.98 12.03M79.38 22.27c5.38 2.89 13.9 11.88 15.25 16.37M49.82 43.98c1.43.23 2.65.61 4.3.46 10.04-.92 21.89-3.27 31.39-3.95 2.33-.17 2.87 1.6 2.51 3.89-.94 5.99-2.43 15.66-3.15 22.98"/><path d="M42.5 57.28c1.9.19 3.39.56 5.5.38 18.4-1.54 30.13-3.16 44.72-3.74 2.33-.09 4.23.39 5.29.58M49.47 69.65c1.25.2 3.51.69 5.01.59 13.78-.98 16.73-1.71 29.26-2.1 2-.06 3.26 0 4.76.2"/><path d="M68.37 44.93c.48.84 1.37 2.75 1.42 5.55.23 13.42-.14 35.3-.14 39.87 0 9.67-6.96 1.15-7.59.28"/></g><g class="kgNumbers" font-size="8" fill="gray"><text transform="translate(14.5 15.5)">1</text><text transform="translate(2.5 37.5)">2</text><text transform="translate(9.5 49.57)">3</text><text transform="translate(9.5 62.5)">4</text><text transform="translate(8.5 81.15)">5</text><text transform="translate(19.5 73.5)">6</text><text transform="translate(22.5 92.5)">7</text><text transform="translate(74.5 12.35)">8</text><text transform="translate(44.5 33.53)">9</text><text transform="translate(56.5 32.5)">10</text><text transform="translate(72.5 28.5)">11</text><text transform="translate(53.5 41.5)">12</text><text transform="translate(39.5 54.5)">13</text><text transform="translate(38.5 70.5)">14</text><text transform="translate(59.5 51.5)">15</text></g></svg>