<svg xmlns="http://www.w3.org/2000/svg" width="109" height="109" class="kan-g"><g class="kgPaths" fill="none" stroke="currentColor" stroke-width="3" stroke-linecap="round" stroke-linejoin="round"><path d="M19.55 13.25c3.75 2.21 9.69 9.07 10.63 12.5M9.62 35.08c.71.23 3.4.27 4.1.23 8.73-.42 17.48-2.67 23.83-2.87 1.18-.04 2.95.11 3.54.23M15.18 47.06c.43.12 3.04.13 3.47.12 4.44-.14 8.86-.93 13.34-1.55.7-.1 3.68.06 4.04.12M14.8 59.33c.38.12 2.71.13 3.1.12 3.97-.13 9.36-.45 14.33-1.09.63-.08 3.29.06 3.6.11M14.01 72.9c.39.36.83 1.15.96 1.63 1.11 4.21 2.02 14.54 3.14 20.71M15.44 74.37c7.2-.89 13.4-1.6 20.05-2.5 1.67-.22 2.68 1.04 2.44 2.06-.99 4.25-1.36 8.22-3.12 15.28M18.42 92.05c5.37-.54 12.18-.97 19.56-1.81M61.57 23.18c.04.25-.21 1.21-.46 1.47-3.26 3.51-5.8 6.16-13.24 8.95M46.95 32.88c.67.81.94 2.63 1.1 4.3.6 6.09 2.01 18.9 2.62 27.14M49.1 45.68c3.3-.37 10.52-1.92 11.3-1.92h2.51M75.89 29.11c.79.18 1.41.56 2.51.56 1.1 0 11.92-3.22 13.18-3.41s2.37.93 2.2 2.04c-2.03 12.7-4.53 29.45-5.1 33.68"/><path d="M75.11 43.5c.79.18 1.41.56 2.51.56 1.1 0 12.4-1.44 13.65-1.62M51.27 60.43c3.3-.37 37.22-2.42 38-2.42"/><path d="M67.8 13.25c.91 1.85 1 2.71 1.03 5.56.52 44.77-2.22 60.53-29.33 77.69"/><path d="M67.3 60.34C74.25 70.25 85 84.5 93.63 91.67c1.64 1.37 3.56 2.05 5.12 2.46"/></g><g class="kgNumbers" font-size="8" fill="gray"><text transform="translate(13.5 13.5)">1</text><text transform="translate(2.5 34.5)">2</text><text transform="translate(8.5 47.5)">3</text><text transform="translate(7.5 60.5)">4</text><text transform="translate(7.5 78.5)">5</text><text transform="translate(17.5 70.5)">6</text><text transform="translate(20.5 88.5)">7</text><text transform="translate(53.5 23.5)">8</text><text transform="translate(40.25 42.78)">9</text><text transform="translate(51.5 41.5)">10</text><text transform="translate(72.5 26.5)">11</text><text transform="translate(72.5 40.3)">12</text><text transform="translate(53.25 56.5)">13</text><text transform="translate(54.75 13.9)">14</text><text transform="translate(74.5 68.5)">15</text></g></svg>