<svg xmlns="http://www.w3.org/2000/svg" width="109" height="109" viewBox="0 0 109 109" class="kan-g"><g class="kgPaths" fill="none" stroke="currentColor" stroke-width="3" stroke-linecap="round" stroke-linejoin="round"><path d="M20.88 16c2.52 1.5 6.5 6.17 7.13 8.5M9.19 33.33c1.69.29 3.37.34 5.06.15 4.69-.46 12.43-2.03 17.38-2.79 1.17-.18 3.2-.39 3.79-.27M15.25 45.81c.43.12 3.04.13 3.47.12 4.44-.14 6.86-1.18 11.34-1.8.7-.1 2.93-.44 3.29-.38M14.87 58.58c1.08.13 1.92.44 3 .32 4.38-.53 6.92-1.04 11.18-2.29.61-.18 2.79-.44 3.1-.39M12.33 71c.96.7 1.55 1.65 1.77 2.85.76 2.84 1.62 7.41 2.36 11.38.31 1.67.6 3.23.86 4.52"/><path d="M13.59 72.68c7.58-1.47 12.4-2.48 17.8-3.2 1.62-.21 3.32.59 2.9 2.4-.73 3.14-1.37 6.39-2.79 11.6M17.59 86.52c3.68-.34 7.02-1.18 11.39-1.74 1.24-.16 2.56-.32 4-.46M55.48 12.02c.4 1.1.41 2.18.03 3.24-1.63 3.75-3.01 6.25-6.3 11.62M44.34 26.59c.85.85 1.27 2.16 1.27 3.33 0 2.08-.1 27.83-.1 31.96M46.51 28.72c2.73-.73 11.93-2.65 14.17-2.67 1.88-.01 3.09.64 3.09 3.25 0 10.79-.1 49.14-.1 58.81 0 8.99-4.29 5.01-6.75 2.21"/><path d="M46.73 39.71c3.92-.87 13.78-2.33 15.61-2.55M46.87 49.91c4.82-.87 10.38-1.91 15.72-2.64M38.44 64.19c.82.74 2.81.44 3.94-.02 5.73-2.32 13.63-5.55 20.09-8.51"/><path d="M73.6 34.29c0 1.21-.38 2.82-1 4.02-8.1 15.82-20.98 35.44-37.07 49.27M73.73 47.08c1.28.47 2.86.43 4.14.29 5.36-.6 10.17-1.8 16-2.2 1.38-.09 2.65-.19 4 .11"/><path d="M88.07 12.56c.94.94 1.54 3.07 1.54 4.76 0 17.58.04 70.06.04 74.33 0 10.37-6.23 1.54-8.05.22M75.52 60.19c2 1.41 5.17 5.79 5.67 7.99"/></g><g class="kgNumbers" font-size="8" fill="gray"><text transform="translate(14.5 15.5)">1</text><text transform="translate(2.5 33.5)">2</text><text transform="translate(8.5 47.5)">3</text><text transform="translate(8.25 60.5)">4</text><text transform="translate(6.75 78.5)">5</text><text transform="translate(14.5 69.5)">6</text><text transform="translate(20.25 83.75)">7</text><text transform="translate(47.5 12.5)">8</text><text transform="translate(38.5 33.5)">9</text><text transform="translate(58.2 23.53)">10</text><text transform="translate(49.2 36.95)">11</text><text transform="translate(49.2 46.5)">12</text><text transform="translate(35.7 61.5)">13</text><text transform="translate(68.5 30.5)">14</text><text transform="translate(77.5 43.5)">15</text><text transform="translate(76.5 13.5)">16</text><text transform="translate(67.2 58.5)">17</text></g></svg>