<svg xmlns="http://www.w3.org/2000/svg" width="109" height="109" class="kan-g"><g fill="none" stroke="#000" stroke-width="3" stroke-linecap="round" stroke-linejoin="round"><path d="M23.05 16.75c2.52 1.5 6.5 6.17 7.13 8.5M12.62 34.92c.64.25 3.07.29 3.71.25 7.89-.46 15.82-2.88 21.56-3.1 1.07-.04 2.67.12 3.2.25M16.68 47.99c.42.14 3 .15 3.42.14 4.39-.15 9.25-2.24 13.68-2.93.7-.11 2.64.06 2.99.13M17.8 59.7c.35.13 2.46.15 2.81.13 3.6-.15 9.91-2.37 13.46-2.36.58 0 2.98.06 3.27.13M17.53 73.74c.35.33.74 1.06.85 1.5.99 3.86 2.18 12.85 3.18 18.52M18.81 75.08c6.4-.82 12.29-2.39 18.19-3.21 1.48-.2 2.38.95 2.16 1.89-.88 3.9-1.21 8.5-2.77 14.99M21.84 91.35c4.77-.5 9.48-.89 16.03-1.66M54.77 15.53c2.43 1.42 6.27 5.83 6.88 8.03M84.73 12.51c.02.34.04.88-.04 1.36-.52 2.87-2.74 7.9-6.94 13.04M49.94 30.24c.78.42 2.22.5 3 .42 5.23-.56 31.2-3.13 36.69-3.3 1.31-.04 2.09.2 2.74.41M61.46 32.23c1.03.47 1.65 2.13 1.85 3.07.21.95 0 14.89-.21 20.8M76.45 30.81c1.03.47 1.65 2.13 1.85 3.07S77 46.75 76.12 54.21M48.46 39.15c2.08 1.66 5.38 6.83 5.9 9.41M90.98 35.57c.02.28.05.72-.04 1.12-.55 2.36-2.89 6.49-7.33 10.71"/><path d="M43.7 57.23c1.09.51 3.09.66 4.17.51 8.9-1.17 34.55-3.51 46.86-3.97 1.81-.07 2.9.24 3.81.5M55.79 64.91c.38.74.75 2.15.74 3.13-.05 4.03-.3 22.29-.41 30.1M57.18 67.11c2.19-.13 24.36-3.1 26.36-3.26 1.66-.13 2.58 1.85 2.57 2.6-.06 4.71-.9 28.91-.91 29.65"/><path d="M57.39 80.45c4.45-.01 9.02-.38 13.43-.89 1.5-.17 3-.34 4.44-.51M57.05 95.38c6.04-.56 20.15-1.5 27.67-1.99"/></g><g font-size="8" fill="gray"><text transform="translate(16.5 16.63)">1</text><text transform="translate(5.5 36.5)">2</text><text transform="translate(9.75 49.5)">3</text><text transform="translate(10.5 61.4)">4</text><text transform="translate(11.5 80.5)">5</text><text transform="translate(20.5 71.5)">6</text><text transform="translate(24.75 88.5)">7</text><text transform="translate(47.5 15.13)">8</text><text transform="translate(75.5 12.5)">9</text><text transform="translate(45.75 27.13)">10</text><text transform="translate(54.5 39.05)">11</text><text transform="translate(68.5 37.5)">12</text><text transform="translate(39.5 40.5)">13</text><text transform="translate(81.5 36.5)">14</text><text transform="translate(41.25 54.13)">15</text><text transform="translate(44.25 73.55)">16</text><text transform="translate(58.5 64.5)">17</text><text transform="translate(60.5 76.55)">18</text><text transform="translate(60.5 92.5)">19</text></g></svg>