<svg xmlns="http://www.w3.org/2000/svg" width="109" height="109" class="kan-g"><g class="kgPaths" fill="none" stroke="currentColor" stroke-width="3" stroke-linecap="round" stroke-linejoin="round"><path d="M25.4 23c.61.61 1.15 1.68 1.29 2.48.81 4.52 2.14 12.65 3.34 19.22.4 2.21.56 4.23.69 5.05M27.6 24.64c8.29-.96 40.92-4.25 49.9-4.82 3.19-.2 5.09 1.69 4.37 4.92-.78 3.47-2.56 11.33-4.2 16.8-.77 2.55-1.37 4.41-1.59 4.75"/><path d="M40.98 11.59c.71.71 1.55 1.91 1.73 3.19 1.78 12.6 3.33 25.67 3.89 30.47M62.92 9.75c.67.67 1.04 2.16.98 2.69-1.57 15.72-2.03 20.81-3.59 31.91"/><path d="M29.68 35.82c8.32-.95 41.19-3.95 49.35-4.12M31.88 47.7c8.62-.95 36.08-2.53 43.75-2.86M18.63 57.67c2.87.7 5.6.59 8.25.35 15.75-1.4 36.84-2.74 55.5-3.72 2.92-.15 5.89.01 8.75.72M31.92 66.1c.8.8 1.41 2.22 1.52 2.76.71 3.29 1.26 6.01 2.23 11.37.18.99.36 2.08.56 3.28M34.06 67.51c10.94-1.26 32.13-3.5 38.56-3.62 2.66-.05 3.46 1.52 2.86 3.79-1.07 4.08-1.73 5.31-3.14 10.1M36.73 81.27c5.95 0 22.99-1.86 33.77-2.48 1.85-.11 3.51-.18 4.92-.19M40 84.12c1.43 1.81 3.7 7.44 4.06 10.26M68 82.75c.22.62.1 1.6-.03 1.95-.95 2.73-1.83 4.98-4.25 8.93M14.88 97.36c2.22.67 6.3.78 8.53.67 23.15-1.13 37.81-1.8 62.44-2.27 3.7-.07 5.93.32 7.78.66"/></g><g class="kgNumbers" font-size="8" fill="gray"><text transform="translate(20.25 33.13)">1</text><text transform="translate(29.25 21.05)">2</text><text transform="translate(32.5 11.5)">3</text><text transform="translate(54.5 10.4)">4</text><text transform="translate(32.5 32.5)">5</text><text transform="translate(34.5 44.75)">6</text><text transform="translate(12.5 58.18)">7</text><text transform="translate(26.25 74.6)">8</text><text transform="translate(36.75 64.5)">9</text><text transform="translate(39.5 77.5)">10</text><text transform="translate(32.7 92.5)">11</text><text transform="translate(56.5 88.5)">12</text><text transform="translate(4.5 99.5)">13</text></g></svg>