<svg xmlns="http://www.w3.org/2000/svg" width="109" height="109" class="kan-g"><g fill="none" stroke="#000" stroke-width="3" stroke-linecap="round" stroke-linejoin="round"><path d="M25.65 23c.4.61.79.91.79 1.73 0 .81 4.26 23.39 4.26 23.8 0 .41.13.41.26 1.22M27.1 24.14c3.64-.38 48.27-4.02 51.48-3.89 1.7.07 4.2 1.54 3.76 3.49-.84 3.76-6.02 22.39-6.77 23.56"/><path d="M29.18 35.07c11.2 0 22.54-1.4 33.71-2.13 1.4-.09 4.25-.18 5.55-.26M31.88 47.7c6.16-.39 35.83-2.53 43.5-2.86"/><path d="M40.73 11.59c.82.26 1.92 2.16 1.98 2.69C44 26 46.29 41.69 46.86 46.5M62.92 10.25c.82.26 1.54 1.16 1.48 1.69-1.57 15.72-2.71 23-3.84 33.91M17.88 57.67c1.3.53 3.69.59 5 .53 13.56-.61 38.73-3.55 63.69-3.7 2.17-.01 3.48.25 4.56.52M31.67 66.1c.62.41 1.41 2.22 1.52 2.76.84 3.9 1.81 6.64 3.04 14.4M34.06 67.76c9.43-.78 31.88-3.5 38.31-3.62 2.66-.05 3.96 1.02 3.36 3.29-1.07 4.08-2.23 6.06-3.64 10.85M36.73 81.27c6.97 0 28.81-2.55 38.44-2.67M40.5 85.42c1.17 1.58 3.02 6.51 3.31 8.97M67.62 82.31c.02.29.53 1.75.47 2.17-.37 2.46-2.98 7.36-5.87 10.66M14.88 97.98c1.52.54 4.3.63 5.82.54 15.8-.91 50.3-2.85 67.11-3.23 2.53-.06 4.05.26 5.31.53"/></g><g font-size="8" fill="gray"><text transform="translate(20.25 33.13)">1</text><text transform="translate(29.25 21.05)">2</text><text transform="translate(32.5 32.5)">3</text><text transform="translate(34.5 44.75)">4</text><text transform="translate(32.5 11.5)">5</text><text transform="translate(54.5 10.4)">6</text><text transform="translate(12.5 58.18)">7</text><text transform="translate(26.25 74.6)">8</text><text transform="translate(36.75 64.5)">9</text><text transform="translate(39.5 77.5)">10</text><text transform="translate(32.7 92.5)">11</text><text transform="translate(56.5 88.5)">12</text><text transform="translate(4.5 99.5)">13</text></g></svg>