<svg xmlns="http://www.w3.org/2000/svg" width="109" height="109" viewBox="0 0 109 109" class="kan-g"><g class="kgPaths" fill="none" stroke="currentColor" stroke-width="3" stroke-linecap="round" stroke-linejoin="round"><path d="M65.24 9c.1.5.39 1.43-.2 1.99-7.43 6.99-18.42 13.41-37.79 19.05"/><path d="M35 29.5c3 2.21 7.75 9.07 8.5 12.5"/><path d="M53.75 21.5c2.65 1.76 6.84 7.26 7.5 10"/><path d="M75.2 20.5c.13.74.51 2.13-.26 2.96-9.53 10.4-23.61 19.94-48.44 28.33"/><path d="M57.75 39C69 45.75 75.11 72.45 66.83 93.33c-4.83 12.17-9.64 1.12-10.89.06"/><path d="M60.75 44.75c.09.59.19 1.53-.18 2.38-2.22 5.02-14.98 16.03-32.43 22.77"/><path d="M65.25 56.75c.1.81.44 2.19-.21 3.24C60.25 67.75 47.25 80.75 28.75 91"/></g><g class="kgNumbers" font-size="8" fill="gray"><text transform="translate(57.75 9.13)">1</text><text transform="translate(31.5 38.63)">2</text><text transform="translate(50.25 30.5)">3</text><text transform="translate(67.5 21.5)">4</text><text transform="translate(65.5 43.63)">5</text><text transform="translate(48.75 52.63)">6</text><text transform="translate(54.75 66.13)">7</text></g></svg>