<svg xmlns="http://www.w3.org/2000/svg" width="109" height="109" viewBox="0 0 109 109" class="kan-g"><g class="kgPaths" fill="none" stroke="currentColor" stroke-width="3" stroke-linecap="round" stroke-linejoin="round"><path d="M31.75 17.8c1.16 1.16 1.68 2.84 1.68 4.63 0 1.49-.18 33.31-.18 48.31 0 3.5-.07 3.62-.07 6.5M33.82 19.85c7.3-.73 30.8-3.48 37.67-4.11 2.94-.27 4.51 1 4.51 3.66 0 3.09-.5 32.69-.74 47.84-.08 4.93-.13 8.28-.13 8.6"/><path d="M34.76 38.26c8.99-1.26 33.57-3.64 39.78-3.64M34.82 55.24c10.93-.99 27.93-2.99 39.51-3.18M34.57 73.74c10.93-.74 29.55-2.69 39.51-2.69M41.95 80.5c.55 1.41-.42 3.3-1.5 4.33-3.28 3.11-11.89 9.24-18.45 12.92M65.75 80C72.78 84.75 81.08 93.35 83 97.5"/></g><g class="kgNumbers" font-size="8" fill="gray"><text transform="translate(25.25 26.63)">1</text><text transform="translate(36.25 15.63)">2</text><text transform="translate(38.75 34.13)">3</text><text transform="translate(39.25 50.63)">4</text><text transform="translate(39.25 70.13)">5</text><text transform="translate(30.25 84.63)">6</text><text transform="translate(57.75 84.13)">7</text></g></svg>