<svg xmlns="http://www.w3.org/2000/svg" width="109" height="109" viewBox="0 0 109 109" class="kan-g"><g class="kgPaths" fill="none" stroke="currentColor" stroke-width="3" stroke-linecap="round" stroke-linejoin="round"><path d="M34.5 16.91c2.77.49 5.48.25 8.25-.08 6.57-.78 18.58-2.2 25.4-2.8 2.26-.2 4.66-.64 6.86.15M52.71 17.75c1.02 1.02 1.33 2.41 1.33 3.99 0 2.01-.04 5.88-.04 9.26M15 34.55c3.44 1.19 8.26.7 11.76.32C44 33 65.38 30.75 82.24 30.03c3.91-.17 8.76-.28 13.51 1.02M34.14 43.44c.9.9 1.11 2.43 1.11 3.53v33.29M35.84 44.77c4.79-.52 32.46-3.64 35.83-3.8 2.81-.14 3.8.78 3.8 3.78 0 3.54-.01 22.5-.01 28.52 0 2.81-.05 4.72-.05 4.93"/><path d="M36.27 55.08c6.48-.58 32.41-3.47 38.36-3.47M36.08 65.4c10.67-1.15 27.42-3.15 38.62-3.64M36.28 76.77C46.62 75.88 63 74 74.4 73.62M40.69 83.29c0 1.08-.51 2.06-1.5 2.96-2.99 2.7-11.46 8.33-17.44 11.52M66.08 82.72c7.2 3.29 15.71 9.25 17.67 12.12"/></g><g class="kgNumbers" font-size="8" fill="gray"><text transform="translate(27.5 17.5)">1</text><text transform="translate(47.25 25.63)">2</text><text transform="translate(8.25 36.5)">3</text><text transform="translate(26.25 51.13)">4</text><text transform="translate(37.5 41.5)">5</text><text transform="translate(41.25 52.55)">6</text><text transform="translate(41.25 62.98)">7</text><text transform="translate(41.25 73.4)">8</text><text transform="translate(29.25 86.83)">9</text><text transform="translate(54.5 85.5)">10</text></g></svg>