<svg xmlns="http://www.w3.org/2000/svg" width="109" height="109" viewBox="0 0 109 109" class="kan-g"><g class="kgPaths" fill="none" stroke="currentColor" stroke-width="3" stroke-linecap="round" stroke-linejoin="round"><path d="M52.91 8c.11.7.55 1.88-.23 2.82C47.25 17.32 34.41 28.66 12 37.8M54.16 10.38C61 14.25 80.62 29.77 86.12 33.1c1.87 1.13 4.26 1.61 6.13 1.93M40.23 27.49c.38.12 2.71.13 3.1.12 3.97-.13 14.8-1.83 18.71-1.82.63 0 3.29.05 3.61.11M32 37.91c1.5.33 4.07.72 6.5.49 6.31-.6 21.25-3.26 27.99-4.03 3.99-.45 4.55 2.02 2.01 4.37-3.25 3-5.5 6-9.75 10.25M34.24 52.8c.57.75 1.4 1.8 1.4 2.82 0 1.02.08 24.63.08 31.08M36.59 54.62c3.22-.22 30.3-3.33 33.21-3.8 1.95-.32 3.45.93 3.75 2.55.43 2.3-.72 31.26-.72 32.02"/><path d="M35.7 63.93c6.02-.47 31.88-2.42 37.05-2.57M35.96 74.11c9.09-.82 27.19-1.92 36.82-2.31M36.05 84.68c9.09-.68 28.45-1.79 36.74-2.03M42.2 89.4c.54 1.01-.41 2-1.47 2.74-3.22 2.23-11.66 6.98-18.1 9.61M63.02 86.48c7.48 3.81 16.31 10.72 18.35 14.06"/></g><g class="kgNumbers" font-size="8" fill="gray"><text transform="translate(45.5 8.5)">1</text><text transform="translate(61.5 12.5)">2</text><text transform="translate(46.5 25.5)">3</text><text transform="translate(33.5 35.5)">4</text><text transform="translate(27.5 59.5)">5</text><text transform="translate(38.5 51.5)">6</text><text transform="translate(40.25 62.5)">7</text><text transform="translate(40.25 71.5)">8</text><text transform="translate(40.25 82.5)">9</text><text transform="translate(26.5 93.5)">10</text><text transform="translate(55.5 93.88)">11</text></g></svg>