<svg xmlns="http://www.w3.org/2000/svg" width="109" height="109" class="kan-g"><g class="kgPaths" fill="none" stroke="#000" stroke-width="3" stroke-linecap="round" stroke-linejoin="round"><path d="M12.75 32.2c1.52.54 4.31.69 5.82.54C29 31.75 69 27.75 82.69 26.51c2.52-.23 4.05.26 5.31.53M24.95 41.1c.99.09 2.35.4 3.34.38 6.04-.14 8.37-1.22 16.67-1.84 1.64-.12 2.64.04 3.46.09M20.5 49.18c1.16.29 3.3.28 4.46.29 6.79.04 17.54-1.96 25.47-2.79 1.93-.2 3.1.14 4.07.28M23.11 57.74c.45.88 1.1 1.53 1.1 2.7 0 1.17.21 19.71-.33 24.61M24.96 58.76c2.53-.15 21.79-2.02 24.1-2.19 1.92-.15 2.95.81 2.95 1.9 0 2.67-.57 24.79-.57 25.67"/><path d="M24.26 66.6c4.73-.33 23.06-2.37 27.11-2.37M24.47 75.18c7.13-.64 19.37-1.95 26.93-2.08M24.14 82.75C31.27 82.27 44.9 81 51.4 81M32.28 86.17c.34 1.05-.26 2.07-.92 2.83-2.02 2.3-7.32 7.21-11.35 9.93M44.81 88.09c4.18 2.62 9.12 7.38 10.26 9.67M60.5 10.5c1.56 1.87 2.3 2.38 2.54 6.4C65 49.25 70.5 80.5 91.4 96.88c5.83 4.58 6.28-.2 5.5-8.46M75.25 10.5c3.34 1.95 8.69 6.41 10.25 9.75"/></g><g class="kgNumbers" font-size="8" fill="gray"><text transform="translate(5.5 31.5)">1</text><text transform="translate(18.5 41.5)">2</text><text transform="translate(13.75 50.73)">3</text><text transform="translate(14.75 63.9)">4</text><text transform="translate(28.5 56.58)">5</text><text transform="translate(29.61 64.75)">6</text><text transform="translate(29.67 72.18)">7</text><text transform="translate(29.63 80.6)">8</text><text transform="translate(21.25 93.03)">9</text><text transform="translate(40.5 97.95)">10</text><text transform="translate(50.5 10.5)">11</text><text transform="translate(71.5 7.5)">12</text></g></svg>