<svg xmlns="http://www.w3.org/2000/svg" width="109" height="109" class="kan-g"><g fill="none" stroke="currentColor" stroke-width="3" stroke-linecap="round" stroke-linejoin="round"><path d="M16.3 21.68c.33 1.17.81 2.04.81 3.6s-.36 39.97-.22 45.11M17.66 22.17c1.87-.19 16.1-1.69 17.8-1.92 1.42-.19 2.54 1.09 2.42 2.53-.15 1.83-1.12 34.97-1.47 46.67"/><path d="M17.63 37.62c3.56-.38 6.62-.73 10.19-1.06.92-.08 1.83-.16 2.68-.24M17.78 52.95c3.08-.17 7.15-.58 10.22-.88.92-.09 1.84-.17 2.73-.25M18.26 68.48c3.71 0 13.23-1.34 18.04-1.34M21.54 76.23c.24 1.09.48 1.38 0 2.17-1.45 2.39-6.72 9.77-9.61 12.59M29.98 73.7c2.79 3.01 6.08 8.45 6.84 11.08M46.21 18.91c1.45.48 4.1.59 5.54.48 11.71-.91 29.3-2.95 35.55-3.36 2.4-.16 3.86.23 5.06.47M53.18 19.66c.03 1.8-.07 4.63-.07 7.22 0 16.63-2.62 45.37-12.45 59.29M60.16 33.85c.89.34 2.52.43 3.41.34 5.67-.59 14.01-2.04 19.66-2.59 1.47-.14 2.37.16 3.11.33M54.48 47.53c.96.39 2.71.46 3.67.39 9.85-.67 24.35-3.17 30.64-3.49 1.59-.08 4.6.19 5.39.38M59.93 50.7c1.53 1.79 1.42 2.55 1.42 5.1 0 12.06-.46 30.79-.46 32.83s1.68 3.2 3.81 1.67 7.55-6.56 12.09-10.6M90.43 52.58c.04.25.07.64-.07 1-.81 2.11-5.48 6.73-11.87 9.56M68.61 55.78c5.55 5.96 20.38 24.31 24.5 28.81 1.39 1.52 2.59 2.18 3.98 2.61"/></g><g font-size="8" fill="gray"><text transform="translate(9.66 28.5)">1</text><text transform="translate(17.5 18.5)">2</text><text transform="translate(21.5 33.5)">3</text><text transform="translate(21.5 48.5)">4</text><text transform="translate(21.5 64.5)">5</text><text transform="translate(12.72 79.5)">6</text><text transform="translate(26.5 83.5)">7</text><text transform="translate(47.5 15.5)">8</text><text transform="translate(45.5 28.53)">9</text><text transform="translate(58.5 30.5)">10</text><text transform="translate(56.5 44.5)">11</text><text transform="translate(51.5 64.3)">12</text><text transform="translate(78.5 54.5)">13</text><text transform="translate(64.5 66.5)">14</text></g></svg>