<svg xmlns="http://www.w3.org/2000/svg" width="109" height="109" viewBox="0 0 109 109" class="kan-g"><g class="kgPaths" fill="none" stroke="currentColor" stroke-width="3" stroke-linecap="round" stroke-linejoin="round"><path d="M17.69 30.43c2.43.57 4.93.31 6.92-.03 6.93-1.17 15.71-2.11 21.63-2.62 1.98-.17 3.86-.41 5.82.08"/><path d="M33.37 13.71c.9.9 1.23 2.01 1.23 3.42 0 4.74-.09 24.02-.09 26.87M12.21 47.37c3.04.51 5.61.27 7.93-.11 9.85-1.63 19.44-2.92 27.73-3.8 2.36-.25 4.84-.22 7.16.27M33.79 47.55c.71.71 1.16 1.7 1.16 3.04 0 3.28-.07 23.78-.07 27.78M36.07 61.84c3.44-.41 8.7-1.32 11.93-1.77 1.15-.16 2.38-.2 3.69-.07M22.27 59.05c.48 1.2.57 2.47.43 3.7-.85 7.27-3.95 23.62-12.7 32.76M21.17 74.24C34 78.88 57.38 88.25 72.32 93.75c4.99 1.84 10.49 2.98 15.81 3.41M64.12 24.75c1.13 1.13 1.46 2.12 1.46 3.75 0 1.02.03 28.38.03 37.25"/><path d="M57 67.15c.99.99 2.25 1.48 4.15.81 5-1.76 22.85-8.96 29.57-11.3"/><path d="M80.62 13c1.07 1.06 1.21 2.75 1.21 4.25L81.86 78v9.25"/></g><g class="kgNumbers" font-size="8" fill="gray"><text transform="translate(11.25 30.25)">1</text><text transform="translate(22.25 14.25)">2</text><text transform="translate(5.25 48.73)">3</text><text transform="translate(27.19 55.66)">4</text><text transform="translate(39.25 58.25)">5</text><text transform="translate(13.25 60.25)">6</text><text transform="translate(26.25 73.25)">7</text><text transform="translate(55.19 24.25)">8</text><text transform="translate(54.25 64.25)">9</text><text transform="translate(68.25 12.25)">10</text></g></svg>