<svg xmlns="http://www.w3.org/2000/svg" width="109" height="109" viewBox="0 0 109 109" class="kan-g"><g class="kgPaths" fill="none" stroke="currentColor" stroke-width="3" stroke-linecap="round" stroke-linejoin="round"><path d="M15.28 21.24c.39.37.79.67.97 1.13 1.36 3.62 2.49 15.12 3.42 21.63M17.22 23.19c9.28-1.94 17.79-2.98 22.38-3.46 1.68-.17 2.69 1.03 2.45 2.05-1.11 4.71-2.28 11.32-3.64 16.7M20.34 41.32c5.4-.54 12.34-.97 19.74-1.8M27.87 41.74c1.09.5 1.96 2.23 1.96 3.25 0 5.51.28 27.51.28 37.5M30.38 58.24c3.37-.49 6.37-1.24 9.85-1.5 1.74-.13 2.18-.25 3.26 0M15.37 53.99c1.09.5 1.74 2.25 1.96 3.25.22 1 .92 20.51.92 32.26"/><path d="M11 90.57c.34.8 2.87 1.85 3.7 1.4C22.91 87.5 30.94 82.5 40 77.49M69.22 16.25c1.17.55 1.87 2.49 2.11 3.6.23 1.11 0 63.31-.23 70.24"/><path d="M71.43 52.23c5.5-1.11 14.92-2.94 19.6-3.22 1.81-.11 2.26-.28 3.39 0M52.33 46.95c1.17.55 1.87 2.49 2.11 3.6.23 1.11 0 33.6-.23 40.53M38.25 92.17c.71.19 2.61.75 4.49.58 12.43-1.12 35.49-3.5 48.44-3.5 1.89 0 4.72.28 6.57 1.11"/></g><g class="kgNumbers" font-size="8" fill="gray"><text transform="translate(9.5 28.5)">1</text><text transform="translate(19.5 19.5)">2</text><text transform="translate(22.5 38.85)">3</text><text transform="translate(22.54 51.5)">4</text><text transform="translate(33.72 54.5)">5</text><text transform="translate(6.5 54.5)">6</text><text transform="translate(4.5 90.85)">7</text><text transform="translate(59.5 15.5)">8</text><text transform="translate(75.5 48.5)">9</text><text transform="translate(45.5 44.5)">10</text><text transform="translate(34.5 89.5)">11</text></g></svg>