<svg xmlns="http://www.w3.org/2000/svg" width="109" height="109" class="kan-g"><g fill="none" stroke="currentColor" stroke-width="3" stroke-linecap="round" stroke-linejoin="round"><path d="M17.78 23.15c.37.35.76.64.92 1.08 1.3 3.47 2.85 13.04 3.73 19.27M19.63 25.02c8.85-1.86 16.96-3.33 21.34-3.79 1.6-.17 2.56.99 2.33 1.97-.95 4.05-2.06 9.41-3.47 15.01M22.61 41.41c5.14-.52 11.76-1.91 18.82-2.7M30.37 43.74c1.09.5 1.74 2.25 1.96 3.25.22 1 0 25.25-.22 31.5M32.88 56.24c3.37-.49 6.87-1.24 10.35-1.5 1.74-.13 2.18-.25 3.26 0M17.87 58.99c1.09.5 1.74 2.25 1.96 3.25.22 1 0 16.75-.22 23"/><path d="M13.5 86.57c.33.8 2.77 1.85 3.57 1.4C25 83.5 33.75 78 42.5 72.99M57.51 24.38c6.43-.64 23-2.96 30.56-4.14 2.24-.35 3.63-.21 4.76.03M55.54 21.76c.97.43 1.56 1.94 1.75 2.8.2.86 0 60.31-.2 65.69M57.89 46.16c15.39-1.52 17.96-3.41 28.66-4.24 2.62-.2 4.05 1.39 3.49 3.98-.89 4.09-3.17 11.72-4.28 16.58M57.48 66.27c6.43-.64 25.43-3.22 31.48-3.61M57.51 89.41c6.43-.64 17.12-2.1 32.06-2.74 2.26-.1 3.62-.21 4.76.03"/></g><g font-size="8" fill="gray"><text transform="translate(13.5 33.13)">1</text><text transform="translate(21.75 21.13)">2</text><text transform="translate(26.25 37.55)">3</text><text transform="translate(24.75 52.48)">4</text><text transform="translate(36.5 52.5)">5</text><text transform="translate(9.75 61.5)">6</text><text transform="translate(6.75 90.05)">7</text><text transform="translate(59.25 21.5)">8</text><text transform="translate(49.5 29.5)">9</text><text transform="translate(61.99 42.05)">10</text><text transform="translate(62.25 62.98)">11</text><text transform="translate(62.06 85.41)">12</text></g></svg>