<svg xmlns="http://www.w3.org/2000/svg" width="109" height="109" viewBox="0 0 109 109" class="kan-g"><g class="kgPaths" fill="none" stroke="currentColor" stroke-width="3" stroke-linecap="round" stroke-linejoin="round"><path d="M15.53 20.74c.74.74 1.27 1.48 1.4 2.5.95 4.89 1.68 8.55 2.38 13.48.21 1.49.41 2.94.6 4.28M17.97 22.44c6.58-1.12 14.07-2.23 19.16-2.91 3.12-.42 5.21.34 4.28 4.13-.91 3.69-1.46 6.48-2.75 11.58M20.84 38.32c4.52-.45 9.63-1.18 15.68-1.89 1.17-.14 2.36-.27 3.56-.41M29.12 38.49c1.13 1.13 1.21 2.51 1.21 4 0 1.02.03 25.88.03 35M31.38 55.74c3.37-.49 6.12-1.24 9.6-1.5 1.74-.13 2.18-.25 3.26 0M17.37 57.24c1.01 1.01 1.46 2.63 1.46 4 0 5.26.03 13.76.03 23.5"/><path d="M13 86.57c1 .93 2.55 1.38 4.07.4C25.75 81.38 31 78.12 41 71.99M69.55 13.5c1.1 1.1 1.35 2.38 1.35 4.39 0 3.89-.03 8.05-.03 12.49M48.75 33.33c2.85.2 5.29.32 8.12-.08 9-1.3 23.02-2.97 31.75-3.44 2.31-.12 4.9-.51 7.12.32M63.17 35.28c1.15 1.15 1.44 2.63 1.44 4.64 0 18.38-1.49 42.46-15.61 54.33M77.27 33.83c1.14 1.14 1.26 2.67 1.26 5.02 0 17.65-.01 44.91-.01 49.87 0 10.39-7.21 1.5-8.71.25M53.8 51.89c.05 1.12.06 2.13-.23 3.22-1.72 6.45-5.4 15.05-9.76 22.86M87.38 50.75c3.77 4.58 9.74 18.84 10.68 25.97"/></g><g class="kgNumbers" font-size="8" fill="gray"><text transform="translate(11.25 29.5)">1</text><text transform="translate(19.5 18.5)">2</text><text transform="translate(23.25 34.55)">3</text><text transform="translate(23.25 48.5)">4</text><text transform="translate(34.5 52.4)">5</text><text transform="translate(8.25 57.5)">6</text><text transform="translate(5.25 89.5)">7</text><text transform="translate(60.75 14.5)">8</text><text transform="translate(48.75 30.05)">9</text><text transform="translate(53.5 43.5)">10</text><text transform="translate(68.25 42.13)">11</text><text transform="translate(43.5 50.5)">12</text><text transform="translate(83.5 48.5)">13</text></g></svg>