<svg xmlns="http://www.w3.org/2000/svg" width="109" height="109" class="kan-g"><g class="kgPaths" fill="none" stroke="#000" stroke-width="3" stroke-linecap="round" stroke-linejoin="round"><path d="M10.28 19.71c.37.32.75.58.91.97 1.28 3.13 2.35 15.2 3.23 20.82M12.11 21.28c8.3-1.59 15.9-2.84 20-3.23 1.5-.14 2.4.84 2.19 1.68-.99 3.85-2.03 11.69-3.25 16.09M14.9 38.62c4.82-.44 11.03-1.29 17.65-1.97M22.37 40.24c1.09.5 1.96 2.23 1.96 3.25 0 5.51.28 27.51.28 37.5M24.88 57.24c3.37-.49 4.87-1.24 8.35-1.5 1.74-.13 2.18-.25 3.26 0M12.37 52.49c1.09.5 1.74 2.25 1.96 3.25.26 1.2.67 18.01 1.42 29.76"/><path d="M8 87.65c1 1.35 3.67.75 4.45.33C20.09 83.74 26.57 80 35 75.25M40.73 17.73c1.42.54 4.03.63 5.46.54 14.81-.91 30.53-2.52 44.88-3.23 2.37-.12 3.79.26 4.98.53M43.23 18.5c.37 1.5.32 1.9.32 4.36 0 23.64-.05 55.64-11.24 72.11M49.7 27.5c2.14 2.06 5.53 8.47 6.06 11.68M68.1 24.39c.02.32.03.83-.03 1.29-.38 2.73-2.54 8.71-5.49 12.37M47.9 44.79c.61.31 1.73.33 2.34.31 4.98-.22 16.02-3.76 19.79-3.4 1.01.1 1.63.15 2.14.3M50.11 53.69c.49.43 1.05 2.27.98 3.15-.37 5.2-1.65 8.28-1.76 13.25-.05 2 .75 2.59 1.98 2.16C57.75 70 61.84 69.57 68.88 68M68.76 51.74c.49.36 1.01 2.69.98 3.42-.24 7.34.27 9.84-.55 16.59"/><path d="M59.22 46.55c.49 1.3.75 2.91.75 4.54 0 17.08-.39 32.09-14.14 43.38M82.24 24.75c.02.67.04 1.72-.04 2.67-.47 5.64-3.19 18-6.91 25.58M81.79 39.99c.56.36 1.63.93 2.48.61 1.04-.39 10.93-2.23 11.92-2.29 4.56-.31-.58 5.94-3.59 10.69M81.7 51c.88.91 1.41 2.16 1.22 3.65C81.25 68 76 83.5 62.49 95.25M82.1 65.25c2.41 5.41 10.85 21.64 15.18 27.42.91 1.22 1.6 1.94 2.47 2.33"/></g><g class="kgNumbers" font-size="8" fill="gray"><text transform="translate(5.5 28.5)">1</text><text transform="translate(15.5 17.5)">2</text><text transform="translate(16.5 35.5)">3</text><text transform="translate(17.5 47.5)">4</text><text transform="translate(27.5 53.5)">5</text><text transform="translate(4.5 54.5)">6</text><text transform="translate(.5 90.5)">7</text><text transform="translate(44.5 14.5)">8</text><text transform="translate(37.5 26.5)">9</text><text transform="translate(47.5 25.95)">10</text><text transform="translate(58.5 26.5)">11</text><text transform="translate(46.5 41.8)">12</text><text transform="translate(45.5 51.5)">13</text><text transform="translate(64.5 49.65)">14</text><text transform="translate(51.25 54.5)">15</text><text transform="translate(71.5 25.5)">16</text><text transform="translate(84.5 37.5)">17</text><text transform="translate(72.5 61.5)">18</text><text transform="translate(84.5 69.5)">19</text></g></svg>