<svg xmlns="http://www.w3.org/2000/svg" width="109" height="109" class="kan-g"><g fill="none" stroke="currentColor" stroke-width="3" stroke-linecap="round" stroke-linejoin="round"><path d="M29.1 11.64c.01.27.3 1.47.25 1.86-.33 2.27-2.92 8.42-5.54 11.47M17.67 25.75c.59.5.95 2.25 1.07 3.25.12 1 .27 27.25.15 33.5M18.64 27.84c4.86-1.59 10.5-2.84 12.84-2.86 1.96-.02 3.44.02 3.44 3.02 0 12.39-.36 50.56-.36 61.68 0 10.33-4.05 7.08-8.7 2.32"/><path d="M19.38 38.42c2.67-.42 4.39-.6 7.08-.82.77-.06 1.53-.12 2.25-.18M19.28 49.14c2.24-.21 5.47-.41 7.71-.59.6-.05 1.19-.09 1.8-.14M10.66 64.47c.64.76 1.75 1.02 3.66.38 3.88-1.3 12.78-4.2 17.25-5.85"/><path d="M40.64 47.25c.24.86.65 2.37 0 3.78-4.46 9.8-20.09 26.99-29.61 31.97M69.22 11.13c.46.31 1.45 2.36 1.54 2.99.09.63.05 3.81-.05 7.75M46.41 23.64c1.13.19 2.88.27 4.34.19 10.66-.54 27.56-1.85 41.58-2.38 1.88-.07 3.02.09 3.96.19M50.2 24.51c.04 1.58.43 4.06.43 6.33 0 16.16.13 43.91-12.31 60.08M64.42 29.63c.06.61.1 1.37-.05 2.12-.97 4.72-4.73 13.85-9.26 20.25M60 46.73c.34.28.44.91.44 1.49 0 6-.17 20.08-.17 24.11M76.21 29.73c.1.93-.03 2.14-.34 2.93-1.96 5.05-4.45 9.33-8.95 15.48M71.82 42.12c.35.49.62 1.56.65 2.32.21 6.75-.29 24.7-.11 28.21M87.99 29.78c.04.46-.01 1.07-.15 1.46-.85 2.52-1.92 4.47-3.87 7.54M72.37 41.14c4.1-.64 21.77-1.23 23.53-1.58M83.01 40.56c.23.29.41 1.32.41 1.81 0 5.03.03 19.2-.11 27.12"/><path d="M72.92 50.7c3.87-.53 19.45-1.8 21.11-2.09M72.95 59.9c4.09-.44 19.33-1.51 21.08-1.76M72.45 70.05c5.05-.3 21.64-1.66 23.5-2.26M52.23 80.84c.31 1.92-3.12 10.39-5.63 13.59M58.16 78.6c5.34 9.65 14.09 17.65 27.28 17.66 7.88.01 8.4-2.5 1.82-6.78"/><path d="M73.53 80.69c1.3 4.67 3.18 9.35 4.57 2.19M89.05 78.03c3.67 2.04 6.43 4.95 9.11 9.23"/></g><g font-size="8" fill="gray"><text transform="translate(21.5 11.5)">1</text><text transform="translate(11.5 33.5)">2</text><text transform="translate(18.5 23.85)">3</text><text transform="translate(22.5 35.85)">4</text><text transform="translate(22.5 46.5)">5</text><text transform="translate(3.5 65.5)">6</text><text transform="translate(38.5 43.85)">7</text><text transform="translate(60.5 11.5)">8</text><text transform="translate(48.5 20.5)">9</text><text transform="translate(39.5 31.95)">10</text><text transform="translate(55.5 32.5)">11</text><text transform="translate(52.25 59.5)">12</text><text transform="translate(67.25 31.5)">13</text><text transform="translate(63.5 56.5)">14</text><text transform="translate(78.25 29.5)">15</text><text transform="translate(76.5 38.5)">16</text><text transform="translate(86.5 46.5)">17</text><text transform="translate(74.25 48.35)">18</text><text transform="translate(74.25 57.5)">19</text><text transform="translate(74.5 67.5)">20</text><text transform="translate(46.5 81.5)">21</text><text transform="translate(55.5 91.5)">22</text><text transform="translate(64.5 81.63)">23</text><text transform="translate(80.5 79.5)">24</text></g></svg>