<svg xmlns="http://www.w3.org/2000/svg" width="109" height="109" viewBox="0 0 109 109" class="kan-g"><g class="kgPaths" fill="none" stroke="currentColor" stroke-width="3" stroke-linecap="round" stroke-linejoin="round"><path d="M32.85 20c.03.33.13.94-.07 1.3-2.37 4.58-5.87 8.79-12.04 12.49M19.37 33.25c1.09.5 1.74 2.25 1.96 3.25.22 1 2.42 27.25 3.42 35.75M22.75 44c3.29-.49 7-1.42 9.81-1.99 1.46-.3 2.67-.51 3.44-.51M23.5 56.8c3.2-.4 6.4-1.3 8.96-1.78 1.05-.2 1.99-.33 2.79-.33M41.34 25.61c.5.23 1.41.31 1.9.23 4.01-.6 14.89-2.07 21.93-2.69.83-.07 1.32.11 1.74.23M42.44 33.3c.36.31.81 1.46.88 1.87.48 2.95 1.57 9.8 2.25 15.38M43.82 34.42c5.45-.59 17.59-2.86 21.31-2.95 1.54-.04 1.85.81 1.79 1.73-.23 3.18-.78 9.89-2 15.1"/><path d="M45.6 41.28c4.11-.15 12.68-2.3 20.42-2.3M45.6 48.64c4.77-.61 13.09-2.45 19.31-2.45M41.41 56.7c.71.47 1.99.5 2.71.47C48 57 61 55 65.36 54.61c1.18-.1 1.89.22 2.48.46"/><path d="M53.75 15c.36.37 1.14 2.74 1.21 3.47.07.73-.55 43.71-.62 48.28M74.1 27.48c1.4.02 2.34.54 4.23.12 6.57-1.44 10.52-3.5 11.09-3.5 1.61 0 2.83 1.33 2.1 2.75C89.25 31.25 85 63.5 84 70"/><path d="M73 40c.54.12 1.23.18 2.01.19 3.88.02 11.95-1.69 12.99-1.69M71.5 52.75c.69.15 1.46.22 2.25.24 3.21.08 9.5-.49 12.75-.74M10.25 72.99c1.57.29 4.45.38 6.01.29 10.51-.65 56.7-2.76 76.5-3.02 2.61-.03 4.18.14 5.49.28M42.24 79.39c.07.41.14 1.07-.13 1.66-1.63 3.51-10.99 11.2-23.8 15.91M68.02 80.08c6.63 2.85 17.13 11.71 18.79 16.13"/></g><g class="kgNumbers" font-size="8" fill="gray"><text transform="translate(25.5 19.5)">1</text><text transform="translate(11.5 39.5)">2</text><text transform="translate(25.5 39.48)">3</text><text transform="translate(27.5 52.5)">4</text><text transform="translate(38.5 22.5)">5</text><text transform="translate(34.5 36.5)">6</text><text transform="translate(45.25 33.5)">7</text><text transform="translate(48.25 39.5)">8</text><text transform="translate(48.25 46.5)">9</text><text transform="translate(37.5 53.5)">10</text><text transform="translate(42.5 14.5)">11</text><text transform="translate(70.5 24.5)">12</text><text transform="translate(70.5 37.5)">13</text><text transform="translate(68.5 50.5)">14</text><text transform="translate(1.25 69.58)">15</text><text transform="translate(30.5 81.5)">16</text><text transform="translate(56.5 81.5)">17</text></g></svg>