<svg xmlns="http://www.w3.org/2000/svg" width="109" height="109" class="kan-g"><g fill="none" stroke="#000" stroke-width="3" stroke-linecap="round" stroke-linejoin="round"><path d="M49.44 12.25c3.48 2.25 6.27 5.25 7.74 8.7M29 28.7c1.16.33 2.53.38 3.68.33 6.57-.28 34.07-4.53 43.99-4.77 1.94-.05 3.1.16 4.07.32M37.75 32.5c2.91 4.85 4.24 9.81 4.5 13M67.51 27.25c.49 1.25.35 2.32.26 2.77-.61 3.08-5.25 11.37-6.77 13.73M13.75 50.8c1.46.39 3.17.54 4.62.39 15.88-1.69 53.38-5.69 71.78-6.5 2.43-.11 3.89.19 5.1.38M24.89 69.45c1.32.47 3.73.59 5.04.47 16.73-1.53 34.56-4.42 50.07-5.4 2.19-.14 3.51.22 4.61.46"/><path d="M52.14 48.63c.66.52 2.05 3.92 2.18 4.96.76 6-.19 42.74-.22 44.29"/></g><g font-size="8" fill="gray"><text transform="translate(44.25 13.63)">1</text><text transform="translate(21.75 29.5)">2</text><text transform="translate(32.25 39.05)">3</text><text transform="translate(57.75 36.13)">4</text><text transform="translate(5.5 51.5)">5</text><text transform="translate(17.25 71.5)">6</text><text transform="translate(45.75 58.63)">7</text></g></svg>