<svg xmlns="http://www.w3.org/2000/svg" width="109" height="109" viewBox="0 0 109 109" class="kan-g"><g fill="none" stroke="currentColor" stroke-width="3" stroke-linecap="round" stroke-linejoin="round"><path d="M22.33 13.75c1.92 1 4.42 4.75 4.84 7.45M13.35 26.2c.83.33 1.8.38 2.62.33 4.67-.28 11.74-1.03 18.81-1.27 1.38-.05 2.21.16 2.9.32M16.95 33.25c2.72 4.66 3.96 9.43 4.2 12.5M33.76 28.75c.54.58.61 1.96.54 2.44-.43 3.32-4.09 12.77-5.17 15.31M12.5 51.3c1.04.39 2.25.93 3.29.89 5.71-.19 13.96-1.69 20.08-2 1.73-.09 2.77.19 3.63.38M13.18 71.6c.6.56 1.71.7 2.31.56 7.65-1.81 17.09-4.71 22.91-6.39"/><path d="M26.32 54.13c.47.52 1.03 1.91 1.05 2.96C27.5 65.25 24.5 88.75 16 98M47.38 12.75c2.6 1.5 6.72 6.17 7.37 8.5M41.87 29.08c.63.23 3.04.27 3.67.23 7.8-.42 10.97-1.67 16.64-1.87 1.05-.04 2.64.11 3.16.23M44.73 41.06c.38.12 2.72.65 3.1.62 2.67-.18 7.42-.43 9.71-.55.63-.03 2.29.06 2.61.12M44.23 54.83c.34.12 2.42.13 2.77.12 3.55-.13 6.25-.2 10.31-.59.56-.05 2.94.06 3.22.11M42.14 70.9c.35.36.75.65.86 1.13.99 4.21 2.25 13.04 3.25 19.21M43.31 72.37c6.44-.89 9.48-1.1 15.42-2 1.49-.22 2.39 1.04 2.18 2.06-.89 4.25-1.91 8.82-2.74 16.78M46.47 90.47c4.65-.27 7.81-.74 14.19-1.15M79.44 12.75c2.25 1.1 4.72 4.17 5.74 7.2M70.33 25.77c.84.4 1.83.46 2.67.4 4.75-.34 12.5-1.25 19.68-1.54 1.4-.06 2.25.19 2.95.39M73.9 32.25c3.19 4.57 4.64 9.24 4.93 12.25M92.05 28.25c.64.59.71 1.98.64 2.48-.51 3.36-4.8 12.95-6.07 15.52M66.5 49.73c1.19.24 2.58.29 3.77.24 6.23-.23 17.73-1.23 24.31-1.56 1.98-.1 3.17.12 4.17.24M67.38 67.69c.97.38 2.76.93 3.74.88 6.68-.34 17.32-.56 24.39-.95 1.62-.09 2.6.18 3.41.37"/><path d="M81.64 51.63c.66.52 1.68 2.62 1.68 4.96 0 6.05-.19 40.24-.22 41.79"/></g><g font-size="8" fill="gray"><text transform="translate(16.5 14.5)">1</text><text transform="translate(7.25 26.5)">2</text><text transform="translate(11.25 36.5)">3</text><text transform="translate(25.5 34.5)">4</text><text transform="translate(5.5 51.5)">5</text><text transform="translate(5.5 73.5)">6</text><text transform="translate(19.5 61.18)">7</text><text transform="translate(39.5 11.5)">8</text><text transform="translate(40.5 25.5)">9</text><text transform="translate(41.5 38.5)">10</text><text transform="translate(42.5 52.5)">11</text><text transform="translate(33.25 77.5)">12</text><text transform="translate(44.5 68.5)">13</text><text transform="translate(48.25 86.5)">14</text><text transform="translate(71.5 11.5)">15</text><text transform="translate(67.5 22.5)">16</text><text transform="translate(64.5 35.43)">17</text><text transform="translate(81.5 34.5)">18</text><text transform="translate(65.25 47.5)">19</text><text transform="translate(65.5 65.5)">20</text><text transform="translate(72.25 59.5)">21</text></g></svg>