<svg xmlns="http://www.w3.org/2000/svg" width="109" height="109" class="kan-g"><g class="kgPaths" fill="none" stroke="currentColor" stroke-width="3" stroke-linecap="round" stroke-linejoin="round"><path d="M62.12 15.5c.66.39 2.05 2.9 2.18 3.68.13.78-.08 46.89-.22 51.74"/><path d="M44.28 35.84c.66.39 1.32 2.53 1.31 3.31-.09 5.35.16 22.1-.67 31.42-.16 1.78-.33 3.49 1.3 3.25 5.85-.87 30.99-2.98 39.22-3.2M85.19 31.86c.21.53 1.44 3.92 1.41 4.97-.2 6.43-.41 25.43-.74 37.42M21.71 16.5c3.63 1.74 9.38 7.17 10.29 9.88M14.96 39c4.34.99 11.21 4.09 12.29 5.63M13.5 60.94c2.25.85 3.75.43 4.75.21 1-.21 8-2.99 9.5-3.42 1.5-.43 3.75 1.07 2.75 2.35s-4 6.19-4.75 7.26c-.75 1.07-.5 2.99 1 4.48s2.75 3.2 3.5 4.48c.75 1.29.75 2.36-.75 3.43-1.5 1.07-9 7.04-10.5 7.47M14.75 88.07c2.96-.24 8.88-.85 13.33-.37 4.44.49 29.69 3.76 34.06 4.39 11.84 1.71 20.98 2.2 29.86 1.34"/></g><g class="kgNumbers" font-size="8" fill="gray"><text transform="translate(52.5 14.5)">1</text><text transform="translate(39.5 31.5)">2</text><text transform="translate(77.25 29.5)">3</text><text transform="translate(14 17.25)">4</text><text transform="translate(8.25 39.83)">5</text><text transform="translate(6.5 60)">6</text><text transform="translate(5.5 88.25)">7</text></g></svg>