<svg xmlns="http://www.w3.org/2000/svg" width="109" height="109" class="kan-g"><g class="kgPaths" fill="none" stroke="currentColor" stroke-width="3" stroke-linecap="round" stroke-linejoin="round"><path d="M27.12 15.77c2.76.83 5.34.56 8.15.19 12.15-1.62 30.97-3.37 39.12-3.99 2.66-.2 5.13-.22 7.76.25M28.59 16.53c.75.75.92 1.64.92 3.11 0 9.48-2.26 24.61-14.01 36.3M40.76 24.18c1.75.6 4.32.49 6.14.28 5.87-.69 15.01-1.79 20.5-2.44 1.79-.21 3.61-.4 5.31-.14M31.78 34.76c3.22.62 6.25.3 8.87.06 10.44-.96 30.92-3.06 40.11-3.7 2.84-.2 5.91-.46 8.72.11M38.73 36.54c.99.99 1.35 2.46 1.35 4.08 0 3.26-.08 14-.08 15.63 0 1.63 1.24 2.42 3.27 1.19 2.03-1.22 7.85-5.19 13.32-8.72M73.92 35.64c.1.61-.06 1.14-.48 1.6-1.17 1.92-2.67 3.57-5.41 6.04M53.71 38.89c4.09.49 17.48 10.84 25.66 15.91 3.13 1.94 5.25 3.07 9.13 4.45M17.19 70.35c3.56.9 7.41.81 10.58.51 16.85-1.6 38.23-2.73 56.49-3.66 3.6-.18 7.61-.07 10.56.59"/><path d="M66.42 54.58c1.25 1.25 1.39 2.54 1.39 4.53 0 18.57.02 29.61.02 34.13 0 10.96-6.59 1.62-8.59.23M42.33 76.9c2.67 1.78 6.89 7.33 7.56 10.11"/></g><g class="kgNumbers" font-size="8" fill="gray"><text transform="translate(27.5 13.5)">1</text><text transform="translate(21.75 24.13)">2</text><text transform="translate(34.5 24.13)">3</text><text transform="translate(33.75 33.05)">4</text><text transform="translate(32.5 46.48)">5</text><text transform="translate(64.5 40.5)">6</text><text transform="translate(47.5 44.5)">7</text><text transform="translate(10.5 70.63)">8</text><text transform="translate(58.5 57.13)">9</text><text transform="translate(31.5 80.5)">10</text></g></svg>