<svg xmlns="http://www.w3.org/2000/svg" width="109" height="109" class="kan-g"><g fill="none" stroke="#000" stroke-width="3" stroke-linecap="round" stroke-linejoin="round"><path d="M42.32 43.34c1.15.41 3.26.54 4.4.41C58 42.5 78.83 39.69 88.91 39.53c1.91-.03 3.06.2 4.02.4"/><path d="M65.78 13.88c.57.46 1.79 3.42 1.9 4.33.12.91-.07 55.21-.19 60.92M21.21 19.25c3.63 1.74 9.38 7.17 10.29 9.88M13 50.75c2.25 1 3.75.5 4.75.25s9.5-3.5 11-4 3.75 1.25 2.75 2.75-4 7.25-4.75 8.5-.5 3.5 1 5.25 2.75 3.75 3.5 5.25.75 2.75-.75 4S21.5 81 20 81.5M15.75 83.43c2.95-.47 8.86-1.65 13.28-.71 4.43.94 29.59 7.26 33.95 8.48 11.81 3.3 20.91 4.24 29.77 2.59"/></g><g font-size="8" fill="gray"><text transform="translate(40.5 40.5)">1</text><text transform="translate(56.5 13.5)">2</text><text transform="translate(12.5 19.5)">3</text><text transform="translate(5.5 51.5)">4</text><text transform="translate(8.5 84.5)">5</text></g></svg>