<svg xmlns="http://www.w3.org/2000/svg" width="109" height="109" class="kan-g"><g class="kgPaths" fill="none" stroke="#000" stroke-width="3" stroke-linecap="round" stroke-linejoin="round"><path d="M37.5 46.4c1.43.37 4.05.32 5.49.37 6.81.23 31.9-2.26 45.5-2.26 2.39 0 3.82.18 5.01.36M19.46 16.5c4.25 1.74 10.98 7.17 12.04 9.88M14.21 36c4.25 1.52 10.98 6.26 12.04 8.63M12 58.44c2.25.85 3.75.43 4.75.21 1-.21 9-2.99 10.5-3.42 1.5-.43 3.75 1.07 2.75 2.35s-5 7.69-5.75 8.76c-.75 1.07-.5 2.99 1 4.48s3.25 2.7 4 3.98c.75 1.29.75 2.36-.75 3.43-1.5 1.07-11 6.04-12.5 6.47M11.75 86.22c3.15-.53 9.46-1.87 14.19-.8 4.73 1.07 31.55 5.93 36.26 7.09C72.25 95 83.54 95.81 93 93.94"/></g><g class="kgNumbers" font-size="8" fill="gray"><text transform="translate(34.5 42.5)">1</text><text transform="translate(11.5 16.5)">2</text><text transform="translate(7.5 36.5)">3</text><text transform="translate(4.5 58.58)">4</text><text transform="translate(4.5 87.5)">5</text></g></svg>