<svg xmlns="http://www.w3.org/2000/svg" width="109" height="109" class="kan-g"><g class="kgPaths" fill="none" stroke="currentColor" stroke-width="3" stroke-linecap="round" stroke-linejoin="round"><path d="M41.56 32.45c.48.28 1.42.91 1.57 1.63 1.09 5.19 2.41 13.33 3.95 23.17M43.45 33.67c13.3-1.17 33.68-3.28 42.38-3.68 3.39-.16 4.07 2.58 3.65 4.16-1.44 5.41-2.08 8.57-4.42 17.57M47.72 54.55c11.28-.8 25.53-1.8 39.62-2.44"/><path d="M63.26 11.25c1.1.45 1.76 2.02 1.98 2.91.22.9 0 67.74-.22 73.34M17.21 14c3.99 1.74 10.3 7.17 11.29 9.88M12.71 33c4.43 1.61 11.44 6.63 12.54 9.13M11 55.94c2.25.85 3.75.43 4.75.21 1-.21 7.5-2.49 9-2.92 1.5-.43 3.75 1.07 2.75 2.35s-4 6.19-4.75 7.26c-.75 1.07-.5 2.99 1 4.48s2.75 3.2 3.5 4.48c.75 1.29.75 2.36-.75 3.43-1.5 1.07-9 7.04-10.5 7.47M11.75 84.63c3.02-.5 8.98-1.28 13.59-.74 7.41.86 27.66 6.61 34.72 8.9 11.95 3.88 21.39 4.45 30.44 2.72"/></g><g class="kgNumbers" font-size="8" fill="gray"><text transform="translate(36.5 39.5)">1</text><text transform="translate(46.5 29.5)">2</text><text transform="translate(50.5 51.5)">3</text><text transform="translate(54.25 10.5)">4</text><text transform="translate(9.25 13.5)">5</text><text transform="translate(6.5 33.25)">6</text><text transform="translate(4.5 55.5)">7</text><text transform="translate(4.5 85.5)">8</text></g></svg>