<svg xmlns="http://www.w3.org/2000/svg" width="109" height="109" viewBox="0 0 109 109" class="kan-g"><g class="kgPaths" fill="none" stroke="currentColor" stroke-width="3" stroke-linecap="round" stroke-linejoin="round"><path d="M44.32 24.39c3.24 2.4 8.12 9.18 8.93 12.91M85.76 21.47c.08.82.04 1.63-.35 2.35-1.66 3.06-4.79 7.33-8.84 11.48M40.35 47.23c2.15.39 4.7.36 6.9.03 10.19-1.5 27.19-3.32 36.64-4.23 2.47-.24 5.03-.35 7.47.27"/><path d="M64.77 11.96c.88.88 1.34 2.29 1.34 3.69 0 5.22-.08 55.47-.08 60.6 0 4.36-.06 7.48-.1 8.54M62.27 46.71c0 .91-.35 1.92-1.19 3.47-4.94 9.08-13.79 19.5-21.83 24.3M70.62 51.32c7.61 5.13 14.2 11.26 19.9 20.9M18.21 20.25c3.63 1.74 9.38 7.17 10.29 9.88M12.5 56.25c1.62.5 3.77.54 4.75.23 3.12-.98 7.79-3.53 10-4.49 2-.87 3.48.05 2.25 2.57-6.5 13.31-7.88 7.56-.25 17.01 1 1.24 1 2.82-.5 3.99s-6.88 5.56-10.25 7.93M13.5 85.25c3-.5 9.17-.78 13.75-.25 7.5.88 30.07 6.96 34.5 8.25 12 3.5 18.38 3.88 26 4.25"/></g><g class="kgNumbers" font-size="8" fill="gray"><text transform="translate(37.5 22.63)">1</text><text transform="translate(76.5 19.63)">2</text><text transform="translate(38.5 44.5)">3</text><text transform="translate(56.5 13.5)">4</text><text transform="translate(48.75 58.63)">5</text><text transform="translate(79.5 55.63)">6</text><text transform="translate(10.5 20.5)">7</text><text transform="translate(4.5 57.5)">8</text><text transform="translate(6.75 86.98)">9</text></g></svg>