<svg xmlns="http://www.w3.org/2000/svg" width="109" height="109" viewBox="0 0 109 109" class="kan-g"><g class="kgPaths" fill="none" stroke="currentColor" stroke-width="3" stroke-linecap="round" stroke-linejoin="round"><path d="M41.11 35c2.14.5 4.51.46 6.79.09C57 33.62 70.75 32 80.14 31.14c1.48-.14 3.78-.27 5.22.15"/><path d="M61.87 13.5c1 1 1.8 2.5 1.8 3.88 0 .78.09 34.87.09 51.74 0 3.88-.04 5.38-.04 7.88M50.58 44.5c.42.88.4 2.16.24 2.9A59.082 59.082 0 0 1 38.5 72.79M75.37 46.08C79.25 51 84.5 62.75 85.95 70.22M75.44 14.33c4.06 2.29 8.19 6.17 10.12 9.13M18.71 18c3.92 2.5 8.42 6.62 10.29 9.88M12.5 53.86c1.62.26 3.53.64 5 .23 2.5-.71 7.25-2.65 8.75-3.1s3.42.93 2.75 2.47c-5 11.41-6.62 7.16 0 14.08 1.07 1.11.9 2.6-.5 3.85C24.12 75.25 19 78.88 16 81.5M12.75 83c3-.5 8.9-1.08 13.5-.75 6.88.5 30.07 6.71 34.5 8 12 3.5 19.12 4.25 28.75 4.5"/></g><g class="kgNumbers" font-size="8" fill="gray"><text transform="translate(35.25 34.63)">1</text><text transform="translate(53.25 13.63)">2</text><text transform="translate(42.75 48.05)">3</text><text transform="translate(69.75 43.48)">4</text><text transform="translate(69.75 12.5)">5</text><text transform="translate(10.5 16.5)">6</text><text transform="translate(6.75 52.5)">7</text><text transform="translate(5.25 84.5)">8</text></g></svg>