<svg xmlns="http://www.w3.org/2000/svg" width="109" height="109" class="kan-g"><g class="kgPaths" fill="none" stroke="currentColor" stroke-width="3" stroke-linecap="round" stroke-linejoin="round"><path d="M44.79 24.29c1.96.59 3.74.31 5.47.16 8.42-.77 23.24-2.57 31-2.96 1.79-.09 3.44-.29 5.21.16M44.3 34.99c.79.79 1.4 1.52 1.6 2.45.93 4.19 2.76 13.02 4.06 20.8.23 1.4.45 2.76.64 4.06M46.56 35.94c10.77-1.22 28.9-3.5 36.82-3.93 3.68-.2 5.22.53 4.71 4.37-.58 4.41-1.92 12.26-3.57 19.06-.31 1.26-.62 2.49-.95 3.65"/><path d="M49.4 47.67c9.85-.92 23.48-2.8 36.2-3.51M51.4 59.64c8.69-.94 20.1-2.14 31.42-2.74M41.75 71.47c2.32.62 4.8.45 7.14.21 11.18-1.12 26.08-2.74 38.61-3.32 2.41-.11 4.75-.12 7 .34"/><path d="M64.41 10.38c1.29 1.29 2.03 3.12 2.03 4.79 0 .94-.06 45.9-.15 64.45-.02 3.55-.04 6.14-.06 7.26M20.38 19c3.84 1.83 9.92 7.53 10.88 10.38M13 50.75c2.25.62 4.16.22 6.3-.48 2.8-.92 8.29-2.82 9.45-3.27 2.25-.88 3.4.45 2.25 2.75-7.38 14.75-7.62 8.75.25 19 1.02 1.33.68 2.67-.75 4-1.88 1.75-7.38 6.25-10.25 8.75M15.5 83.5c3-.5 9-1.75 13.5-.75s30.32 7.71 34.75 9c12 3.5 19.12 4.5 28 4"/></g><g class="kgNumbers" font-size="8" fill="gray"><text transform="translate(38.5 25.5)">1</text><text transform="translate(38.5 42.5)">2</text><text transform="translate(47.25 33.5)">3</text><text transform="translate(52.5 44.5)">4</text><text transform="translate(54.25 56.63)">5</text><text transform="translate(39.75 68.5)">6</text><text transform="translate(55.99 11.5)">7</text><text transform="translate(12.5 18.13)">8</text><text transform="translate(5.25 51.5)">9</text><text transform="translate(5.5 85.5)">10</text></g></svg>