<svg xmlns="http://www.w3.org/2000/svg" width="109" height="109" class="kan-g"><g fill="none" stroke="#000" stroke-width="3" stroke-linecap="round" stroke-linejoin="round"><path d="M42.71 11.28c3.54 2.22 8.48 7.72 9.12 10.89M33.5 28.91c.68.08 2.23.55 2.89.44 5.34-.92 15.86-3.34 20.08-3.95 1.11-.16 2.03-.15 3.28-.15M47.27 39.88c3.1.8 4.73 2.12 8.58 2.49 1.65.16 3.05 2.3 2.64 4.38C57 54.5 51.08 69.3 48.96 73.33c-2.21 4.17-3.96.92-4.84-1.45M46.16 29.62c.59.63 1.11 2 .91 3.38-1.5 10.25-6.14 26.63-16.01 37.18M71.28 10.64c.03.54.05 1.39-.05 2.16-.61 4.55-4.12 14.55-8.92 20.66M70.5 23.41c.68.08 2.23.55 2.89.44 5.34-.92 10.86-1.84 15.08-2.45 1.11-.16 2.03-.15 3.28-.15M67.21 37.04c.64.21 1.85.55 2.81.36 1.17-.23 15.74-2.83 16.86-2.83 1.12 0 2.33.64 1.21 1.91s-6.26 6.7-9.1 9.01M77.49 47.2c3.48 1.73 7.93 18.42 2.84 30.58-2.08 4.97-5.46-.35-6.18-.92"/><path d="M62.71 56.54c.8.33 2.87.44 4.31.36 5.03-.29 19.48-3.02 26.23-2.87 1.44.03 2.71.11 3.67.44M15.71 19c2.93 1.52 7.56 6.26 8.29 8.63M10.5 47.25c2.25 1 3.75.5 4.75.25s8.5-3 10-3.5S29 45.25 28 46.75s-6 7.25-6.75 8.5-.5 3.5 1 5.25 3.25 3.75 4 5.25.75 2.75-.75 4S17 78 15.5 78.5M11.75 80c3-.5 8.5-1.75 13-.75s30.07 7.71 34.5 9c12 3.5 26.75 5 35.75 3.25"/></g><g font-size="8" fill="gray"><text transform="translate(37.5 12.5)">1</text><text transform="translate(32.5 26.5)">2</text><text transform="translate(51.5 38.5)">3</text><text transform="translate(39.5 38.5)">4</text><text transform="translate(62.5 11.5)">5</text><text transform="translate(77.25 19.5)">6</text><text transform="translate(70.5 34.5)">7</text><text transform="translate(70.5 47.5)">8</text><text transform="translate(61.5 53.5)">9</text><text transform="translate(3.75 19.5)">10</text><text transform="translate(1.5 47.5)">11</text><text transform="translate(1.5 82.5)">12</text></g></svg>