<svg xmlns="http://www.w3.org/2000/svg" width="109" height="109" class="kan-g"><g class="kgPaths" fill="none" stroke="#000" stroke-width="3" stroke-linecap="round" stroke-linejoin="round"><path d="M45.58 16.32c.8.8 1.35 1.91 1.52 2.9.93 4.97 2.16 12.67 3.01 19.14.2 1.53.38 3 .53 4.34M47.59 17.95c9.69-1.31 23.44-3.35 31.18-4.06 3.8-.35 6.32-.26 5.81 4.26-.43 3.83-1.66 9.78-3.02 16.11-.35 1.64-.68 2.87-1.22 5.01"/><path d="M50.17 29.09c6.08-.84 29.55-3.42 32.1-3.42M51.71 40.19c9.67-1.12 18.79-2.32 28.21-3M42.55 49.47c1.11 1.11 1.3 2.28 1.47 3.71 1.1 9.06 1.92 15.27 2.8 22.58.23 1.91.43 3.55.58 4.73M44.99 52.1c5.43-.71 33.3-3.42 40.77-4.25 3.92-.44 6.36.28 5.89 4.8-.63 6.07-2.97 20.51-4.8 25.44-2.55 6.87-5.1 1.79-6.78-.3"/><path d="M64.44 17.82c1 1 1.4 2.43 1.4 3.9 0 8.04-.02 40.32-.02 42.8M55.09 67.86c1.07 1.06 2.51.89 3.46.52 2.68-1.06 11.92-4.42 17.52-6.32M74.38 56.88c2.09 2.11 5.4 8.69 5.92 11.98M20.12 18.62c3.93 1.9 10.14 7.81 11.12 10.76M13 50.5c2.25 1 3.75.5 4.75.25s9.01-3.22 10.5-3.75c2.12-.75 3.96.35 2.75 2.75-7.12 14.12-7.62 9.62 0 19 1.06 1.3 1.25 2.75-.25 4S21 81 19.5 81.5M15.25 83c3-.5 8.95-1.48 13.5-.75 6.25 1 30.07 7.71 34.5 9 12 3.5 19.5 4.5 26.5 4.5"/></g><g class="kgNumbers" font-size="8" fill="gray"><text transform="translate(40.5 25.63)">1</text><text transform="translate(48.75 14.5)">2</text><text transform="translate(53.25 26.5)">3</text><text transform="translate(53.25 37.48)">4</text><text transform="translate(35.25 58.4)">5</text><text transform="translate(45.75 49.63)">6</text><text transform="translate(68.5 22.5)">7</text><text transform="translate(53.25 64.63)">8</text><text transform="translate(78.75 58.63)">9</text><text transform="translate(9.5 18.13)">10</text><text transform="translate(3.5 49.63)">11</text><text transform="translate(5.5 83.5)">12</text></g></svg>