<svg xmlns="http://www.w3.org/2000/svg" width="109" height="109" class="kan-g"><g fill="none" stroke="currentColor" stroke-width="3" stroke-linecap="round" stroke-linejoin="round"><path d="M37.85 15.26c2.79 2.21 7.21 8.58 7.91 12.02M60.11 12.64c.08.99.07 2-.36 2.9-1.87 3.96-3.5 8.09-6.73 12.75M34.25 32.64c2.14.57 4.31.7 6.52.39 6.13-.66 15.48-2.03 20.73-2.88 1.44-.23 2.84-.4 4.27-.09M38.41 43.15c.91.91 1.18 2.04 1.09 2.82-.63 5.77-.88 7.27-1.72 11.28-.43 2.06.07 2.53 2.51 2.09 6.08-1.09 11.71-1.72 20.45-2.23M62.87 40.46c.51 1.17.76 2.29.59 3.69-.64 5.5-.96 9.22-1.9 15.38"/><path d="M50.09 35.02c.95.95 1.16 2.48 1.13 3.83C50.88 57.62 49.62 70 41.25 79M71.43 17.33c.75.75.84 1.64.89 2.51 1.43 25.29.18 49.04-10.47 60.08M72.97 18.53c5.78-1.53 12.33-2.88 13.94-3.11 2.89-.4 4.11 1.2 4.11 3.81 0 3.89-.03 40.02-.03 56.27 0 12.13-4.77 5.27-6.58 3.47"/><path d="M74 35.73c6.38-.85 10.12-1.48 16.37-2.17M72.93 53.58c5.78-.65 10.9-1.3 17.58-1.74M15.96 17.75c3.63 1.74 9.38 7.17 10.29 9.88M10.75 47c2.25 1 3.75.5 4.75.25s9.5-3 11-3.5c2.07-.69 3.76.36 2 3-1 1.5-6 8.25-6.75 9.5s-.5 3.5 1 5.25 2.25 2.75 3 4.25.75 2.75-.75 4-7.5 7.75-9 8.25M11.75 79.63c15-3.38 28.38 1.87 50.91 9.21 12.66 4.12 18.21 4.79 29.59 5.04"/></g><g font-size="8" fill="gray"><text transform="translate(31.75 15.5)">1</text><text transform="translate(51.5 11.5)">2</text><text transform="translate(32.5 29.5)">3</text><text transform="translate(31.5 42.5)">4</text><text transform="translate(55.5 40.5)">5</text><text transform="translate(43.5 41.5)">6</text><text transform="translate(64.5 25.18)">7</text><text transform="translate(73.5 15.5)">8</text><text transform="translate(76.75 32.5)">9</text><text transform="translate(75.5 50.5)">10</text><text transform="translate(6.5 18.5)">11</text><text transform="translate(.5 47.5)">12</text><text transform="translate(1.75 80.5)">13</text></g></svg>