<svg xmlns="http://www.w3.org/2000/svg" width="109" height="109" class="kan-g"><g class="kgPaths" fill="none" stroke="currentColor" stroke-width="3" stroke-linecap="round" stroke-linejoin="round"><path d="M33.95 10.76c.9.9 1.09 1.74 1.09 3.25 0 1.13-.04 9.22-.04 11.99M19.89 27.11c1.61.89 3.35 1.12 5.61.82 5.37-.72 14.9-1.6 18.64-1.97 2.48-.25 5.02-.23 4.82 3.02-.35 5.83-.88 14.23-1.55 21.25-.19 2.02-.39 3.17-.61 4.87"/><path d="M22.91 40.98C27.5 40.5 40.25 39 47.2 38.66M23.05 54.21c4.97-.52 13.83-1.71 23.25-2.34"/><path d="M20.89 27.61c.94.94 1.1 1.77 1.1 3.11 0 1.02-.12 43.69-.12 53.53 0 2.61 1.25 2.5 2.44 1.65 4.16-2.98 15.52-11.15 20.14-13.87M40.75 63.5c3.01 2.91 7.75 10.67 9.47 16.81M61.41 19.96c1.59.29 2.55.59 3.84.52C73.5 20 79 19.25 86 17.73c4.23-.92 5.54 1.99 3.7 4.89-1.84 2.9-9.92 15.98-13.15 20.12M76.56 42.74C95.75 59.88 96 86 81.61 77.88"/><path d="M64.87 21c.94.94.96 2.23.96 3.25 0 8.82.02 45.86.03 64.75v9.5"/></g><g class="kgNumbers" font-size="8" fill="gray"><text transform="translate(24.25 11.88)">1</text><text transform="translate(24.25 25.25)">2</text><text transform="translate(26.25 37.25)">3</text><text transform="translate(26.08 51.25)">4</text><text transform="translate(14.25 35.25)">5</text><text transform="translate(34.25 64.25)">6</text><text transform="translate(66.5 16.38)">7</text><text transform="translate(72.5 52.38)">8</text><text transform="translate(57.5 29.88)">9</text></g></svg>