<svg xmlns="http://www.w3.org/2000/svg" width="109" height="109" viewBox="0 0 109 109" class="kan-g"><g class="kgPaths" fill="none" stroke="currentColor" stroke-width="3" stroke-linecap="round" stroke-linejoin="round"><path d="M37.99 12c1 1 1.28 2.25 1.28 4.04 0 3.77-.03 6.96-.03 9.84M17.84 29.16c1.84.18 3.3.26 5.17-.02 10.24-1.52 20.38-2.66 26.48-3.45 1.61-.21 4.26-.32 5.88.12M28.99 37.01c.25.61-.15 1.85-.87 2.76-3.12 3.98-6.97 7.91-11.85 11.33M47.42 32.86c4.57 3.81 8.35 8.21 10.63 12.83M48.21 46.86c.44.9.34 2.24-.39 3.86C41 65.75 29 79.5 14.02 87.62"/><path d="M26.13 56.1c8.26 2.67 19.52 13.29 26.54 23.95M65.17 21.17c1.83.58 3.32.71 5.11.37 5.54-1.06 16.21-3.64 18.39-4.37 3-1 5.25 1.25 3.92 3.58s-8.5 15.67-10.83 19M81.5 40c20.5 10.75 17 38.25 2.23 29.16"/><path d="M66.58 22.25c1.08 1.09 1.3 2.22 1.32 4 .07 10.23.07 44.62.07 64.13v8.12"/></g><g class="kgNumbers" font-size="8" fill="gray"><text transform="translate(28.5 11.5)">1</text><text transform="translate(10.5 29.5)">2</text><text transform="translate(20.5 38.5)">3</text><text transform="translate(39.75 35.5)">4</text><text transform="translate(39.75 46.5)">5</text><text transform="translate(18.75 58.5)">6</text><text transform="translate(69.75 18.13)">7</text><text transform="translate(75.75 39.13)">8</text><text transform="translate(60.75 31.63)">9</text></g></svg>