<svg xmlns="http://www.w3.org/2000/svg" width="109" height="109" class="kan-g"><g class="kgPaths" fill="none" stroke="currentColor" stroke-width="3" stroke-linecap="round" stroke-linejoin="round"><path d="M48.92 11.54c.08.21.17.54-.17.85-2.01 1.78-14.16 6.5-29.39 8.09M20.67 26.34c.03.37.06.94-.06 1.47-.68 3.09-4.6 9.88-9.96 14.03M30.77 25.49c2.79 1.73 7.21 7.14 7.91 9.84M45.86 22.01c4.39 2.48 11.34 10.22 12.43 14.09M19.17 44.62c.85.26 2.45.67 3.73.44 1.56-.28 24.95-3.81 26.41-4.06 2.94-.5 3.69 1.5 1.7 3.84-1.39 1.64-11.81 10.99-15.57 13.82M34.14 59.16C48.5 69 42 108 31.4 90.92"/><path d="M16 73.19c.78 1.5 3.25 1.32 4 1 8-3.44 25.75-11.44 33.82-14.27M62.92 17.17c.83.08 2.31 1 3.4.94 5.94-.35 18.19-2.1 22.1-2.94 3.09-.66 5 1.5 3.67 3.83s-8.83 16.5-11.33 21M80.75 41C100 54.5 93.5 92.5 78.48 76.66"/><path d="M66.08 18.5c.02.1.04.99.05 2.5.12 13.01-.08 72.4-.27 78"/></g><g class="kgNumbers" font-size="8" fill="gray"><text transform="translate(42.5 10.5)">1</text><text transform="translate(13.5 28.5)">2</text><text transform="translate(26.5 32.98)">3</text><text transform="translate(41.5 28.5)">4</text><text transform="translate(12.44 46.83)">5</text><text transform="translate(27.5 61.5)">6</text><text transform="translate(8.5 78.5)">7</text><text transform="translate(68.5 14.5)">8</text><text transform="translate(77.5 48.5)">9</text><text transform="translate(55.44 25.5)">10</text></g></svg>