<svg xmlns="http://www.w3.org/2000/svg" width="109" height="109" class="kan-g"><g fill="none" stroke="currentColor" stroke-width="3" stroke-linecap="round" stroke-linejoin="round"><path d="M34.77 14.27c3.37 1.97 8.7 7.84 9.54 10.91M71.78 11.71c0 1.04-.27 2.02-.9 2.87-2 3.67-3.9 6.72-8 11.8M18.4 31.86c3.85.76 10.13.35 13.1.07 12.37-1.18 34.15-2.85 46.87-3.45 4.01-.16 8 .01 11.97.51M30.48 43.72c.65.7.9 2.39.9 3.32 0 .68.04 26.45.05 40.46.01 5.16.01 8.72.01 8.85M32.47 46.18c6.45-.39 34.04-2.7 41.9-3.25 4.24-.3 6.64.77 6.63 5.33-.02 5.33-.08 23.84-.11 36.75-.01 4.48-.02 8.28-.01 10.63"/><path d="M47.23 31.39c1.07 1.07 1.07 2.58 1.07 4.07.07 19.04-2.18 26.29-12.33 32.74M60.02 32.02c.98.98 1.22 2.1 1.22 3.77 0 5.63-.1 13.58-.1 20.64 0 6.03 1.6 6.78 7.87 6.78 3.98 0 7.93-.75 8.39-1.43M32.62 76.23c5.01 0 41.42-1.51 47.08-1.51M32.64 92.38c10.2-.5 34.35-.84 47.05-1.27"/></g><g font-size="8" fill="gray"><text transform="translate(28.5 13.5)">1</text><text transform="translate(62.25 10.5)">2</text><text transform="translate(11.5 32.5)">3</text><text transform="translate(23.5 52.5)">4</text><text transform="translate(33.25 42.5)">5</text><text transform="translate(40.5 39.25)">6</text><text transform="translate(53.5 38.5)">7</text><text transform="translate(38.5 73.5)">8</text><text transform="translate(38.25 89.5)">9</text></g></svg>