<svg xmlns="http://www.w3.org/2000/svg" width="109" height="109" viewBox="0 0 109 109" class="kan-g"><g fill="none" stroke="currentColor" stroke-width="3" stroke-linecap="round" stroke-linejoin="round"><path d="M67.38 11.17c.11.3-.85 1.88-1.46 2.2-4.71 2.46-16.66 6.5-37.53 9.92M12.75 34.2c1.52.54 4.31.71 5.82.54 8.93-.99 53.93-5.24 70.11-5.73 2.53-.08 4.05.26 5.31.53M28.69 45.28c.38.41.39.7.6 1.22 1.72 4.3 3.33 17.14 4.39 25.15M30.46 46.36c13.29-1.08 35.58-4.42 45.51-5.32 3.65-.33 5.51.85 5.33 2.03-.69 4.33-3.38 15.62-5.05 22.86"/><path d="M32.44 56.97c10.31-1 20.66-2.73 30.98-3.56 1.24-.1 2.45-.19 3.6-.29M33.86 67.99C48 66.25 63.03 64.6 76.25 63.85M31.41 80.89c.92.33 2.6.36 3.53.33 9.57-.37 29.06-3.47 39.5-4.22 1.53-.11 2.45.15 3.22.32M17.14 96.31c1.49.46 4.22.53 5.71.46 15.49-.77 43.91-4.02 60.82-4.43 2.48-.06 3.97.22 5.21.45"/><path d="M52.25 21.75c1.25.5 2 2.25 2.25 3.25s0 62.75-.25 69"/></g><g font-size="8" fill="gray"><text transform="translate(57.5 9.5)">1</text><text transform="translate(5.25 34.5)">2</text><text transform="translate(23.25 54.5)">3</text><text transform="translate(31.5 43.5)">4</text><text transform="translate(36.5 53.5)">5</text><text transform="translate(37.5 64.5)">6</text><text transform="translate(24.5 81.5)">7</text><text transform="translate(9.75 98.5)">8</text><text transform="translate(46.5 28.5)">9</text></g></svg>