<svg xmlns="http://www.w3.org/2000/svg" width="109" height="109" class="kan-g"><g fill="none" stroke="#000" stroke-width="3" stroke-linecap="round" stroke-linejoin="round"><path d="M68.52 11.43c.11.35.23.9-.22 1.4-2.64 2.94-17.81 9.39-38.57 13.34M23.77 32.86c3.24 2.13 8.37 8.76 9.18 12.07M47.27 27.95c3.02 2.42 7.78 9.95 8.54 13.71M86.01 22.78c.04.5.21 1.33-.09 2.01C84 29.25 78 37.75 70.38 43.98M19 59.75c1.5 0 3.75.16 5.75.25 5.5.25 45.25-2.5 60-3 2-.07 2.5-.25 3.75 0"/><path d="M53.19 45.5c.78.3 1.41 2.83 1.41 3.45 0 3.8-.16 44.56-.16 43.3 0 12.5-5.19 3.75-6.69 2.25"/><path d="M53.75 59.2C48.76 68.75 30.46 85.12 17 90.15M54.25 58.8C59 62.24 79.84 82.9 85 86.28c1.75 1.15 3.25 1.64 5 1.97"/></g><g font-size="8" fill="gray"><text transform="translate(60.25 10.25)">1</text><text transform="translate(15.25 35.25)">2</text><text transform="translate(40.25 32.25)">3</text><text transform="translate(77.25 24.25)">4</text><text transform="translate(11.25 61.38)">5</text><text transform="translate(43.25 47.25)">6</text><text transform="translate(38 70.3)">7</text><text transform="translate(69.25 70.38)">8</text></g></svg>