<svg xmlns="http://www.w3.org/2000/svg" width="109" height="109" viewBox="0 0 109 109" class="kan-g"><g fill="none" stroke="currentColor" stroke-width="3" stroke-linecap="round" stroke-linejoin="round"><path d="M32.35 16.75c0 .75.04 1.34-.15 2.24-.99 4.67-10.29 20.22-18.23 27.1M34.47 22.82c4.83 1.77 10.99 6.44 13.32 10.86M22.52 42.58c1.5 0 2.18.09 2.67.06 4.33-.28 9.34-1.4 14.44-1.59.74-.03.9-.05 2.15-.04M17.56 55.89c.59.31 2.56.46 3.17.41 5.5-.44 15.52-2.8 22.79-3.92.74-.11 2.38-.12 3.49.15"/><path d="M30.96 43.69c1.24.73 1.23 3.36 1.23 3.94-.01 4.06.52 28.03.19 32.1M18.33 66.88c3.18 3.57 4.72 7.43 5.37 9.51M44.25 58.84c.23.67.34 1.63.25 2.19-.24 1.44-2.06 4.07-4.66 8.3"/><path d="M16 84.54c.52.23 2.92 2.13 4 1.71 1.25-.49 11.25-5.61 24.25-11.47M67.61 16.57c3.16 1.26 9.87 9.44 10.49 11.96M55.68 36.96c.91.46 2.6.58 3.5.46C70 36 84 32.5 92.18 32.33c1.52-.03 2.44.22 3.2.45M57.47 39.32c.04 1.24.08 1.6-.08 3.38-.94 10.51-3.54 34.46-12.64 47.31M77.33 48.13c.4.93.39 3.69.01 4.82-3.73 11.22-8.34 20.3-15.4 32.46-1.48 2.55-.83 4 1.29 3.36 6.77-2.03 18.5-5.9 28.77-9.03"/><path d="M85.3 69.08c3.71 3.82 9.59 15.69 10.52 21.63"/></g><g font-size="8" fill="gray"><text transform="translate(24.75 19.63)">1</text><text transform="translate(40.5 22.63)">2</text><text transform="translate(27.75 39.13)">3</text><text transform="translate(9.75 58.63)">4</text><text transform="translate(24.75 52.63)">5</text><text transform="translate(11.25 68.98)">6</text><text transform="translate(36.5 62.5)">7</text><text transform="translate(8.5 89.5)">8</text><text transform="translate(62.5 15.5)">9</text><text transform="translate(56.5 34.5)">10</text><text transform="translate(47.5 44.5)">11</text><text transform="translate(67.2 47.91)">12</text><text transform="translate(82.5 64.5)">13</text></g></svg>