<svg xmlns="http://www.w3.org/2000/svg" width="109" height="109" class="kan-g"><g class="kgPaths" fill="none" stroke="currentColor" stroke-width="3" stroke-linecap="round" stroke-linejoin="round"><path d="M29.75 13.24c0 .89.05 1.59-.15 2.66-1.08 5.54-11.34 24.03-20.12 32.23M30.89 20.46c4.47 2.03 10.18 7.42 12.36 12.54M19.5 41.5c1.5 0 2.18.09 2.67.06C26.5 41.24 33 40.03 38.1 39.8c.74-.03.9-.05 2.15-.05M12.09 55.68c.64.37 2.73.54 3.38.48 5.87-.55 16.53-1.66 24.33-3 .79-.13 2.54-.15 3.73.17"/><path d="M27.45 43.19c1.24.78 1.24 2.52 1.24 3.14 0 3.43.19 22.08.27 32.42.02 2.77.04 4.94.04 6.06M13 66c4.01 5.14 5.97 10.7 6.79 13.7M42.2 60.05c.3.84.15 2.62-.16 3.26-1.29 2.69-2.71 5.63-6.12 10.97"/><path d="M11 90.25c1.25 1 2.75.75 4.5.25 1.29-.37 14.25-5.25 27.25-11.25M49.45 26.25c1.15.48 3.26.58 4.41.48 7.78-.63 29.89-2.73 40.54-3.72 1.91-.18 3.07.23 4.03.47M50.49 36.8c1.01.45 2.7 1.04 4.49.91 6.02-.45 28.02-3.86 34.69-4.3 2.33-.15 3.82 1.53 2.99 3.48-.58 1.37-1.01 3.52-1.35 5.59-.19 1.14-.35 2.26-.49 3.21M57.12 48.9c6.88-.4 22.82-2.47 32.03-2.69 1.46-.04 2.34.18 3.07.36"/><path d="M55.51 47.82c1.07.92.91 2.4.21 3.85-.8 1.66-4.11 8.39-4.72 9.08-1.42 1.58-.75 3.25 2.08 2.75 3.92-.7 35.38-4.02 41.09-4.7 2.91-.35 4.6 1.09 3.91 4.37-1.04 4.92-2.81 8.66-5.18 11.87-3.59 4.88-4.51 1.25-6.14-.52"/><path d="M70.88 13.55c1.15 1.62 1.54 2.58 1.54 5.35 0 29.1-2.67 61.85-28.11 76.28"/><path d="M67.03 65.26c3.89 5.29 20.65 22.57 24.94 26.44 1.46 1.31 3.32 1.88 4.78 2.25"/></g><g class="kgNumbers" font-size="8" fill="gray"><text transform="translate(22.5 12.5)">1</text><text transform="translate(35.5 20.5)">2</text><text transform="translate(24.5 38.5)">3</text><text transform="translate(4.5 57.5)">4</text><text transform="translate(21.5 51.85)">5</text><text transform="translate(5.5 67.5)">6</text><text transform="translate(34.5 63.85)">7</text><text transform="translate(3.5 92.5)">8</text><text transform="translate(47.5 23.5)">9</text><text transform="translate(48.5 34.5)">10</text><text transform="translate(55.5 46)">11</text><text transform="translate(45.75 53.5)">12</text><text transform="translate(58.5 13.5)">13</text><text transform="translate(73.5 71.5)">14</text></g></svg>