<svg xmlns="http://www.w3.org/2000/svg" width="109" height="109" viewBox="0 0 109 109" class="kan-g"><g class="kgPaths" fill="none" stroke="currentColor" stroke-width="3" stroke-linecap="round" stroke-linejoin="round"><path d="M30.25 13.99c0 .79.05 1.42-.15 2.37-1.03 4.94-10.53 21.44-18.88 28.76M32.64 20.46c4.02 1.95 9.15 7.13 11.11 12.04M20.5 40c1.5 0 2.18.09 2.67.06 4.33-.32 9.83-1.53 14.93-1.76.74-.03.9-.05 2.15-.05M12.84 55.31c1.49.82 4.46.56 6.06.33 5.61-.8 14.23-2.02 20.14-2.82.74-.1 2.38-.13 3.49.15"/><path d="M29.45 42.19c1.06 1.06 1.24 2.43 1.24 3.89 0 4.35.06 26.29.06 34.98M17.14 67.01c2.6 4.01 3.87 8.35 4.4 10.69M42.04 60.8c.23.71.25 1.54.01 2.1-.93 2.1-2.05 4.35-4.63 8.88M14 87.5c1.25 1.12 2.39.99 4.25.25 1.25-.5 11.5-5 24.5-11M50.56 25.65c2.94.35 5.07.22 7.33-.07 6.73-.86 17.81-2.55 25.5-3.12 2.5-.19 5.13-.45 7.59.16M53.09 36.39c2.41.49 4.2.29 6.07.07 6.13-.72 16.38-2.22 22.34-2.84 1.9-.2 3.7-.38 5.57.14M47.4 49.26c2.85.61 5.41.23 7.72-.06 8.86-1.11 23.6-2.68 34.37-3.41 2.43-.17 4.75-.38 7.14.2"/><path d="M68.89 12.25c1.05 1.05 1.09 2.41.97 4.56-1.61 27.44-3.74 55.44-24.9 73.48"/><path d="M47.63 66.56c3.62.69 5.87.26 8.62-.02 12.63-1.3 21.75-2.42 36.13-3.78 2.86-.27 5.5-.39 8.25.17"/><path d="M82.7 53.33c1.11 1.11 1.1 2.29 1.1 4.42 0 19.11-.04 29.69-.04 34.34 0 11.27-5.64 2.14-7.56.7M63.38 74.25c2.7 1.43 6.96 5.89 7.63 8.12"/></g><g class="kgNumbers" font-size="8" fill="gray"><text transform="translate(22.5 14.5)">1</text><text transform="translate(36.5 20.5)">2</text><text transform="translate(25.5 37.63)">3</text><text transform="translate(5.25 56.5)">4</text><text transform="translate(23.25 49.63)">5</text><text transform="translate(9.75 67.5)">6</text><text transform="translate(34.5 63.5)">7</text><text transform="translate(5.5 90.5)">8</text><text transform="translate(48.5 22.63)">9</text><text transform="translate(50.5 34.55)">10</text><text transform="translate(45.5 46.48)">11</text><text transform="translate(57.5 12.5)">12</text><text transform="translate(45.5 63.13)">13</text><text transform="translate(70.5 56.5)">14</text><text transform="translate(66.5 73.5)">15</text></g></svg>