<svg xmlns="http://www.w3.org/2000/svg" width="109" height="109" viewBox="0 0 109 109" class="kan-g"><g class="kgPaths" fill="none" stroke="currentColor" stroke-width="3" stroke-linecap="round" stroke-linejoin="round"><path d="M28.25 14.99c0 .82.05 1.48-.14 2.46-.97 5.13-10.17 22.25-18.06 29.84M30.39 22.96C34.5 24.75 39.75 29.5 41.75 34M18.5 42c1.5 0 2.18.09 2.67.06 4.33-.32 8.83-2.03 13.93-2.26.74-.03.9-.05 2.15-.05M11.59 56.31c.59.33 2.56.48 3.17.43 5.99-.49 14.24-2.24 21.78-3.17.74-.09 2.38-.13 3.49.15"/><path d="M26.95 43.69c1.24.78 1.24 2.52 1.24 3.14 0 4.35.62 32.63.31 36.98M13.14 65.76c3.93 5.04 5.85 10.5 6.65 13.44M39.7 61.55c.3.9.46 2.21.34 2.97-.3 1.95-2.71 5.52-6.12 11.26"/><path d="M12.5 87.75c1.5 1.5 3.92 2.18 5 1.75 1.25-.5 11.25-5.75 23.25-11.75M79.89 15.64c.02.27.04.7-.04 1.09-.47 2.29-3.4 7.74-7.09 10.82M67.96 27.25c.68.5 1.09 2.25 1.23 3.25s0 45.25-.14 51.5M69.57 30.09c4.59-1.16 17.26-2.69 19.63-3.08.87-.14 2.39 1.44 2.26 2.29-.51 3.48-2.1 9.99-3.2 15.01"/><path d="M69.54 46.04c9.21-1.04 13.21-1.54 20.71-1.8M68.99 59.32c6.41-1.37 18.51-2.67 21.81-3.14 1.21-.17 1.93 1.7 1.76 2.7-.71 4.12-2.03 10.16-3.56 16.1M69.46 77.21c3.14-.52 17.31-1.44 21.29-1.96M47.09 17.91c3.63 1.74 9.38 7.17 10.29 9.88M45.96 39c4.34.99 11.21 4.09 12.29 5.63M43.113 57.307c1.377.738 3.326.174 4.466-.188.92-.292 4.65-2.706 6.15-3.136 1.5-.43 3.75 1.07 2.75 2.35s-4 6.19-4.75 7.26c-.75 1.07-.5 2.99 1 4.48 1.5 1.49 2.75 3.2 3.5 4.48.75 1.29.75 2.36-.75 3.43-1.5 1.07-9 7.04-10.5 7.47M44.49 83.78c2.03-.51 6.1-1.79 9.15-.77 3.05 1.02 20.37 6.86 23.37 8.18 8.13 3.58 14.4 3.58 20.49 1.79"/></g><g class="kgNumbers" font-size="8" fill="gray"><text transform="translate(20.5 14.63)">1</text><text transform="translate(33.5 22.5)">2</text><text transform="translate(24.5 38.5)">3</text><text transform="translate(4.5 57.5)">4</text><text transform="translate(20.5 51.5)">5</text><text transform="translate(5.5 68.5)">6</text><text transform="translate(32.5 64.5)">7</text><text transform="translate(5.5 91.5)">8</text><text transform="translate(71.5 15.5)">9</text><text transform="translate(59 36.5)">10</text><text transform="translate(81.25 25.63)">11</text><text transform="translate(72.5 42.3)">12</text><text transform="translate(73.5 55.5)">13</text><text transform="translate(73.5 73.5)">14</text><text transform="translate(42.1 16.05)">15</text><text transform="translate(44.2 37.4)">16</text><text transform="translate(42 53.55)">17</text><text transform="translate(44.5 91)">18</text></g></svg>