<svg xmlns="http://www.w3.org/2000/svg" width="109" height="109" viewBox="0 0 109 109" class="kan-g"><g class="kgPaths" fill="none" stroke="currentColor" stroke-width="3" stroke-linecap="round" stroke-linejoin="round"><path d="M17.41 15.04c.72.46 2.25 3.42 2.39 4.34.15.91-.09 72.05-.24 77.76M20.02 16.58c2.44-.1 17.77-2.16 19.99-2.28 1.85-.1 2.81.91 2.9 1.71.14 1.23-2.04 25.32-2.04 25.92"/><path d="M20.45 28.89c5.99-.59 15.12-1.62 20.88-2.26M20.02 41.98c8.11-1.15 12.89-1.53 20.06-2.06M64.44 14.01c.44.55.88 1.74.88 2.48s.35 23.04.5 23.78M66.05 15.16c2.49-.11 19.21-2.79 21.49-2.92 1.9-.11 2.98 1.15 2.97 1.8-.49 19.46-.5 61.79-.5 75.9 0 11.81-6.45 2.66-7.9 1.36"/><path d="M66.49 26.22c3.38 0 18.59-2.24 22.4-2.24M66.05 37.76c4.99 0 16.09-2.06 22.55-2.06M32.96 51.07c1.35.32 3.54.54 4.35.48 10.54-.8 24.44-3.3 37.17-4.05.96-.06 3.1.48 4.06.8M53.79 52.55c.6.69.68 1.8.68 3.08 0 6.76-.19 31.85-.19 40.37M59.02 61.49c2.6 1.44 10.79 7.44 11.92 9.93"/></g><g class="kgNumbers" font-size="8" fill="gray"><text transform="translate(12.5 23.5)">1</text><text transform="translate(21.5 13.5)">2</text><text transform="translate(24.5 25.5)">3</text><text transform="translate(24.5 38.5)">4</text><text transform="translate(57.5 20.5)">5</text><text transform="translate(67.5 12.5)">6</text><text transform="translate(70.5 23.5)">7</text><text transform="translate(70.5 34.5)">8</text><text transform="translate(30.5 49.53)">9</text><text transform="translate(44.5 60.5)">10</text><text transform="translate(58.5 59.5)">11</text></g></svg>