<svg xmlns="http://www.w3.org/2000/svg" width="109" height="109" class="kan-g"><g class="kgPaths" fill="none" stroke="#000" stroke-width="3" stroke-linecap="round" stroke-linejoin="round"><path d="M16 19.05c.94.14 1.95.15 3 .08 4.25-.29 13.01-2.04 15.19-2.94 2.72-1.12 5.44 1.12 4.23 3.73S29.07 35.7 26.96 39.43M26.96 40c13.79 11 11.54 39 1.51 32.43"/><path d="M16.87 20.47c.38.78.58 2.52.78 3.63.2 1.12 0 65.91-.2 72.9M68.82 13.5c1.25.57 1.99 2.58 2.24 3.72.25 1.15 0 67.33-.25 74.48M71.2 49.64c5.86-1.14 13.15-2 18.14-2.29 1.92-.11 2.4-.29 3.6 0M49.64 45.85c1.25.57 1.99 2.58 2.24 3.72.25 1.15 0 36.05-.25 43.21"/><path d="M34.41 93.4c.72.2 2.64.67 4.56.6 13.81-.5 41.82-2.66 54.96-2.66 1.92 0 4.79.29 6.66 1.15"/></g><g class="kgNumbers" font-size="8" fill="gray"><text transform="translate(19.5 15.5)">1</text><text transform="translate(23.5 47.5)">2</text><text transform="translate(10.5 26.5)">3</text><text transform="translate(59.5 13.5)">4</text><text transform="translate(75.5 45.5)">5</text><text transform="translate(42.5 43.5)">6</text><text transform="translate(32.5 90.5)">7</text></g></svg>