<svg xmlns="http://www.w3.org/2000/svg" width="109" height="109" viewBox="0 0 109 109" class="kan-g"><g class="kgPaths" fill="none" stroke="currentColor" stroke-width="3" stroke-linecap="round" stroke-linejoin="round"><path d="M16.92 20.42c1.58.83 3.41.54 4.96.18 4.25-.97 8.82-2.69 11.04-3.43 3-1 4.7.6 3.67 3.08C35.12 23.75 31.5 33 29 38M29 38.5c10.11 7.7 9.62 29.62 1.01 25.29"/><path d="M18.87 21.5c1.06 1.06 1.21 2.25 1.21 3.75 0 3.66.02 44.29.03 61.38v6.12M42.5 22.73c3.75.65 6.73.43 9.77-.01 8.9-1.28 22.52-3.61 32.72-4.96 3.2-.42 5.86-.37 9.02.31M46.37 39.76c.85.61 1.34 1.44 1.46 2.47.91 3.41 1.48 9.45 2.35 14.74.25 1.51.48 2.97.68 4.28M48.75 41.49c7.23-1.6 11.66-2.6 15.88-3.21 3.32-.47 5.46-.07 4.59 3.74-.96 4.17-2.08 9.58-3.44 14.66M51.57 59.53c4.7-.44 7.64-1.14 12.92-1.84 1.24-.16 2.59-.33 4.1-.48M83.08 21.08c1.17 1.17 1.51 2.92 1.51 4.77 0 14.56-.01 56.94-.01 61.9 0 10.38-5.96 2-7.46.75"/></g><g class="kgNumbers" font-size="8" fill="gray"><text transform="translate(23 17.25)">1</text><text transform="translate(25.25 47.25)">2</text><text transform="translate(12.25 26.23)">3</text><text transform="translate(42.25 20.25)">4</text><text transform="translate(42 48.08)">5</text><text transform="translate(49 38.25)">6</text><text transform="translate(54.25 55.93)">7</text><text transform="translate(76 30.25)">8</text></g></svg>