<svg xmlns="http://www.w3.org/2000/svg" width="109" height="109" viewBox="0 0 109 109" class="kan-g"><g fill="none" stroke="currentColor" stroke-width="3" stroke-linecap="round" stroke-linejoin="round"><path d="M19.67 22.17c6.33-1 11-2 14-3s6 1 4.67 3.33-6.5 12.67-8.83 16M29.5 38.5c14.5 11.25 11 35.25-.09 27.77M17.87 20.75c1.09.5 1.74 2.25 1.96 3.25.22 1 0 64.75-.22 71M64.93 15.25c3.82 2.92 6.19 6.48 8.56 9.83M51 32c1.16.32 2.53.37 3.68.32 6.57-.28 22.32-2.57 31.49-3.72 1.92-.24 3.1.15 4.07.32M56.75 38.7c3.72 4.51 5.41 9.13 5.75 12.1M81.96 34.51c.83.61.47 1.88.29 2.37-1.63 4.49-5.6 13-7.25 15.65M45.75 57.26c1.46.39 3.17.54 4.62.39 13.38-1.39 24.88-3.64 43.28-4.43 2.43-.1 3.89.18 5.1.38M54 69.86c.4.37.81.68.99 1.15 1.39 3.7 2.76 13.74 3.53 21.49M56.5 70.94c8.44-1.22 24.37-2.64 29.07-3.13 1.72-.18 2.75 1.05 2.5 2.1-1.02 4.32-2.68 11.93-4.19 17.9M58.71 90.7c5.52-.55 18.04-1.95 27.89-2.34"/></g><g font-size="8" fill="gray"><text transform="translate(21.75 18.13)">1</text><text transform="translate(24.75 45.55)">2</text><text transform="translate(11.25 30.13)">3</text><text transform="translate(58.5 15.13)">4</text><text transform="translate(47.5 28.55)">5</text><text transform="translate(50.25 43.48)">6</text><text transform="translate(74.25 40.63)">7</text><text transform="translate(44.5 54.5)">8</text><text transform="translate(48.5 76.55)">9</text><text transform="translate(58.5 67.63)">10</text><text transform="translate(62.25 87.05)">11</text></g></svg>