<svg xmlns="http://www.w3.org/2000/svg" width="109" height="109" class="kan-g"><g class="kgPaths" fill="none" stroke="currentColor" stroke-width="3" stroke-linecap="round" stroke-linejoin="round"><path d="M12.67 21.92c1.08.46 2.36.59 3.62.33 5.46-1.12 10.97-2.87 13.38-3.58 3.96-1.17 5.71.96 4.17 4.08C32.65 25.16 27.33 35.67 25 39M25 39c13.62 8.62 8.38 34-.83 26.5"/><path d="M14.37 23c.81.81.96 2.12.96 3.25 0 .85-.11 39.5-.11 59.75 0 3.74-.07 6.44-.11 7.5M62.56 12.75c.08.92.05 2.44-.42 3.7-2.9 7.84-9.02 23.8-22.68 35.13M63.29 16.24c5.21 6.14 16.77 18.36 24.08 25.52 1.73 1.69 4.63 4.25 7.67 5.8M52.75 46.93c1.17.48 3.24.45 4.5.35 5.51-.43 13.63-1.47 18.62-1.98 1.37-.14 2.26-.3 3.88-.17M45.99 63.16c2.14.72 4.27.63 6.02.51 9.12-.67 22.7-2.39 30.65-2.74 1.69-.07 2.96-.08 3.81.11"/><path d="M65.04 49.05c1.08 1.08 1.46 2.32 1.46 4.05v36.52c0 10.8-5.96 1.92-7.4.72M50.97 73.25c.1.95-.01 1.98-.51 2.8-2.24 3.71-6.97 8.41-14.58 13.71M77.38 73.62c4.71 2.75 12.16 11.3 13.34 15.58"/></g><g class="kgNumbers" font-size="8" fill="gray"><text transform="translate(15.75 18.13)">1</text><text transform="translate(20.25 36.05)">2</text><text transform="translate(8.25 31.48)">3</text><text transform="translate(53.5 16.5)">4</text><text transform="translate(71.25 21.13)">5</text><text transform="translate(56.25 44.5)">6</text><text transform="translate(44.5 60.5)">7</text><text transform="translate(58.5 56.5)">8</text><text transform="translate(43.5 74.5)">9</text><text transform="translate(72.5 71.5)">10</text></g></svg>