<svg xmlns="http://www.w3.org/2000/svg" width="109" height="109" class="kan-g"><g fill="none" stroke="currentColor" stroke-width="3" stroke-linecap="round" stroke-linejoin="round"><path d="M14.5 15.75c1.5.5 3.01.52 4.84.29 6.16-.79 10.92-1.5 13.14-2.34 2.97-1.12 5.93 1.12 4.61 3.74-1.32 2.62-6.6 13.31-11.23 20.59M26.37 39.04c13.18 9.36 13.13 40.21 1.65 32.57"/><path d="M15.87 16.98c.83.83.72 2.53.94 3.65.21 1.12 0 70.1-.22 77.12M66.86 10.37c.06.2.77 1.03.82 2.29.26 6.04-.17 20.18-.17 22.23 0 8.61-4.72.62-5.71.1M54.95 18.82c.04.41.09 1.06-.09 1.66-1.07 3.49-7.21 11.16-15.61 15.85M78.07 19.4c5.18 2.72 13.39 11.18 14.68 15.41M48.74 43.9c.27.37.28.62.43 1.08 1.24 3.8 2.4 13.39 3.17 20.48M50.02 44.41c9.58-.96 25.99-2.58 33.14-3.38 2.62-.3 3.97.75 3.84 1.79-.49 3.83-1.71 14.26-2.92 20.66"/><path d="M51.81 54.23c5.57-.66 11.17-1.16 16.75-1.71 1.89-.19 3.78-.37 5.56-.55M52.83 64.42c6.9-.41 21.73-2.11 31.25-2.77M66.86 65.87c.06.2.77 1.03.82 2.29.26 6.04-.17 22.67-.17 24.73 0 6.61-4.77 1.36-6.71-1.4M54.45 73.82c.04.41.09 1.06-.09 1.66-1.07 3.49-7.21 11.16-15.61 15.85M79.82 74.4c5.09 2.99 13.16 12.27 14.43 16.91"/></g><g font-size="8" fill="gray"><text transform="translate(19.5 13.5)">1</text><text transform="translate(22.5 48.5)">2</text><text transform="translate(9.5 24.5)">3</text><text transform="translate(58.5 10.5)">4</text><text transform="translate(47.5 18.5)">5</text><text transform="translate(74.5 15.5)">6</text><text transform="translate(41.5 49.5)">7</text><text transform="translate(51.5 40.5)">8</text><text transform="translate(54.5 51.53)">9</text><text transform="translate(53.5 61.5)">10</text><text transform="translate(58.5 73.13)">11</text><text transform="translate(43.5 74.55)">12</text><text transform="translate(72.5 81.5)">13</text></g></svg>