<svg xmlns="http://www.w3.org/2000/svg" width="109" height="109" class="kan-g"><g fill="none" stroke="#000" stroke-width="3" stroke-linecap="round" stroke-linejoin="round"><path d="M18.67 19.67c6.33-1 11-2 14-3s6 1 4.67 3.33-6.5 15.67-8.83 19M28 39.5c10.5 9.5 11.25 34-.33 26M16.87 18.25c1.09.5 1.74 2.25 1.96 3.25.22 1 0 67.25-.22 73.5M74.76 13.39c.08.27.16.7-.15 1.09-1.84 2.29-14.36 7.27-27.32 9.38M47.39 26.85c1.79 1.83 4.63 7.52 5.07 10.36M61.19 26.53c1.9 1.71 4.9 7.01 5.38 9.67M83.65 22.66c.03.34.06.87-.06 1.35-.69 2.85-4.62 9.09-10.01 12.92M45.16 42.94c1.77.22 2.62.59 4.25.44 9.9-.89 21.59-2.88 29.71-3.88 2.28-.28 3.89 1.11 3.54 3.32-.92 5.8-2.41 13.18-3.83 21.12"/><path d="M45.38 52.96c1.46.16 2.61.52 4.23.33 4.93-.6 12.32-1.64 18.9-2.44 1.95-.24 3.82-.45 5.54-.63M45.99 63.99c1.11.14 3.11.54 4.43.41 11.33-1.14 21.08-3.14 28.69-3.53M40.51 77.78c.27 2.27-2.7 12.32-4.86 16.11M49.93 73.38C56.75 91 67.25 95.5 84.07 93.89c6.9-.66 7.43-4.14 1.74-7.26M61.94 71.99c1.28 2.72 4.31 9.01 5.44 3.96M85.42 69.81c3.33 2.69 7.08 6.69 9.81 12.05"/></g><g font-size="8" fill="gray"><text transform="translate(20.25 15.13)">1</text><text transform="translate(24.75 49.55)">2</text><text transform="translate(9.75 27.13)">3</text><text transform="translate(66.5 12.13)">4</text><text transform="translate(41.5 33.5)">5</text><text transform="translate(56.25 33.5)">6</text><text transform="translate(75.75 26.98)">7</text><text transform="translate(38.25 44.5)">8</text><text transform="translate(39.5 55.55)">9</text><text transform="translate(38.25 67.48)">10</text><text transform="translate(30.5 80.91)">11</text><text transform="translate(44.25 88.71)">12</text><text transform="translate(52.5 74.75)">13</text><text transform="translate(75.5 73.5)">14</text></g></svg>