<svg xmlns="http://www.w3.org/2000/svg" width="109" height="109" viewBox="0 0 109 109" class="kan-g"><g class="kgPaths" fill="none" stroke="currentColor" stroke-width="3" stroke-linecap="round" stroke-linejoin="round"><path d="M33.66 13.81c2.62.51 5.21.33 7.84.12 6.91-.56 16.69-1.66 23.38-2.11 2.64-.22 5.29-.25 7.93-.09"/><path d="M19.93 24.42c-.26 5.08-2.57 10.96-4.28 16.09"/><path d="M20.85 26.82c27.77-2.45 39.4-4.32 67.05-5.09 13.1-.36 1.17 6.58-.28 8.18"/><path d="M52.42 15.82c.91 1.36 1.31 2.26 1.33 3.6.01.48-.27 23.27-.27 24.59"/><path d="M32.5 30.93c2.99.68 7.08 2.71 8.71 3.83"/><path d="M30 40.51c3.08.72 7.84 3.37 9.52 4.57"/><path d="M66.75 28.93c3.56.93 7.6 2.79 9.03 3.57"/><path d="M66.04 39.23c3.46 1.15 6.87 3.4 8.45 4.71"/><path d="M18.11 54.93c4.15.92 8.23.39 12.51-.08 12.95-1.42 33.26-3.1 46.89-3.67 4.22-.17 8.37-.19 12.14.88"/><path d="M52.35 55.57c.85.85 1.16 2.05 1.16 3.87v40.81"/><path d="M57.92 65.51C70.25 72.88 75.25 77.12 78 81.27"/></g><g class="kgNumbers" font-size="8" fill="gray"><text transform="translate(31.5 11.5)">1</text><text transform="translate(12.5 27.5)">2</text><text transform="translate(23.5 23.5)">3</text><text transform="translate(46.5 22.4)">4</text><text transform="translate(26.25 35.5)">5</text><text transform="translate(22.5 44.5)">6</text><text transform="translate(59.25 32.5)">7</text><text transform="translate(58.5 42.5)">8</text><text transform="translate(11.25 56.5)">9</text><text transform="translate(42.5 62.5)">10</text><text transform="translate(58.5 64.5)">11</text></g></svg>