<svg xmlns="http://www.w3.org/2000/svg" width="109" height="109" viewBox="0 0 109 109" class="kan-g"><g fill="none" stroke="currentColor" stroke-width="3" stroke-linecap="round" stroke-linejoin="round"><path d="M29.66 12.87c1.56.05 4.43.26 5.94.14 8.09-.66 28.99-2.31 36.28-2.4 2.13-.03 2.73-.13 4.68.09M18.43 21.67c-.22 4.68-2.12 9.86-3.53 14.59M18.35 23.82c7.4-1.02 52.84-3.84 68.55-3.84 9.1 0 .67 5.33-.78 6.93"/><path d="M52.92 13.32c.91 1.36 1.31 2.26 1.33 3.6.01.48-.27 21.77-.27 23.09M34 27.43c2.99.68 7.08 2.71 8.71 3.83M29 34.26c3.08.84 7.84 3.92 9.52 5.32M66.75 24.96c3.96 1.05 8.44 3.14 10.03 4.02M64.54 31.73c3.59 1.05 8.49 4.21 10.45 5.96M48.48 40.71c.06.18-.97 1.35-1.34 1.59-5.88 3.7-11.81 6.1-21.68 9.06M23.33 50.69c.83.48 1.17 1.56 1.37 2.55.75 3.62 2.12 15.74 2.88 20.63M60.46 46.28c.97.11 1.76.33 3.12.33 1.37 0 15.33-2.82 16.9-2.93 1.56-.11 3.45.72 3.23 1.97-1.2 6.92-2.74 18.94-3.91 24.22-.17.76 0 1.21-.2 1.65"/><path d="M25.87 61.09c4.42-.47 13.38-1.59 19.66-2.86 1.03-.21 2.52 0 3.37 0M58.35 57.4c.98.11 1.76.33 3.13.33 1.37 0 18.92-1.26 20.48-1.37M27.77 72c4.88-.22 48.12-2.57 51.05-2.68M41.5 73.92c.07.61.04 1.55-.13 2.46C40 83.25 34.5 94 17.42 99.92M58.49 72c.74.84 1.33 1.83 1.38 3.12.2 5.78.16 11.21-.03 15.14-.33 7.06 2.92 8.63 17.67 8.63 15.5 0 16.89-1.64 16.89-9.44"/></g><g font-size="8" fill="gray"><text transform="translate(22.5 12.5)">1</text><text transform="translate(11.5 24.5)">2</text><text transform="translate(20.71 20.5)">3</text><text transform="translate(45.54 19.85)">4</text><text transform="translate(24.5 30.5)">5</text><text transform="translate(21.5 37.5)">6</text><text transform="translate(59.5 28.5)">7</text><text transform="translate(57.5 35.5)">8</text><text transform="translate(33.5 46.5)">9</text><text transform="translate(14.25 58.5)">10</text><text transform="translate(57.5 43.13)">11</text><text transform="translate(29.5 57.55)">12</text><text transform="translate(56.5 54.5)">13</text><text transform="translate(30.5 69.5)">14</text><text transform="translate(29.5 81.5)">15</text><text transform="translate(49.5 80.5)">16</text></g></svg>