<svg xmlns="http://www.w3.org/2000/svg" width="109" height="109" viewBox="0 0 109 109" class="kan-g"><g class="kgPaths" fill="none" stroke="currentColor" stroke-width="3" stroke-linecap="round" stroke-linejoin="round"><path d="M14.88 25.43c.9.32 3.04.89 3.94.82 6.46-.46 20.19-2.8 25.76-3.3 1.49-.13 2.11-.07 2.9-.02"/><path d="M29.58 13.13c.57.22 1.91 2.54 1.91 2.99 0 5.56-.23 22.84-.18 29.72"/><path d="M16.62 35.71c.82.24 3.32.29 4.14.24 6.96-.44 15.99-1.95 21.59-2.28 1.36-.08 2.36-.05 3.08-.01M12.55 47.58c1 .23 2.83.35 3.82.23 8.1-.98 18.83-2.3 27.43-3.37 1.65-.21 4.07-.19 5.26.37M19.32 56.67c.51.51.85 1.96 1.02 2.47.17.51.09 22.92.09 37.61M20.28 58.12c3.86-.54 17.9-2.86 19.42-2.86 1.79 0 3.03.73 3.03 2.43 0 3.9-.07 23.5-.15 33.87-.07 9.16-3.43 3.56-4.89 1.62"/><path d="M30.57 57.69c.8.36.72 1.55.71 2.46-.02 4.56-.09 10.52-.09 12.66M21.15 74.42c6.94-.69 14.58-2.09 21.65-2.26M82.79 10.14c.04 1.21-.68 2.41-1.12 2.74-2.4 1.76-11.3 5.73-25.61 8.83M59 25.59c.02.31.04.81-.04 1.25-.5 2.64-3.34 8.45-7.23 12M68.14 22.61c2.27 2.14 5.86 8.79 6.43 12.11M80.46 20.77c4.38 2.47 11.31 10.18 12.41 14.03M55.58 42.16c1.26.21 2.32.52 3.77.43C69.25 42 79 39.75 86 38.32c2-.41 3.01 1.5 2.7 3.65-.82 5.62-1.63 18.18-2.26 25.05"/><path d="M50.79 54.57c1.6.31 2.83.81 4.61.62 13.1-1.43 25.68-3.76 37.92-4.68 1.96-.15 3.54.12 4.43.43M56.27 68.05c.79.13 2.2.46 3.14.39 8.64-.65 16.57-3.09 24.43-3.35 1.26-.04 2.04 0 2.98.13"/><path d="M71.02 42.45c.46.87.8 2.86.84 5.77.21 13.95-.13 39.2-.13 43.95 0 10.05-6.58 1.19-7.18.29"/></g><g class="kgNumbers" font-size="8" fill="gray"><text transform="translate(8.5 25.5)">1</text><text transform="translate(21.25 13.5)">2</text><text transform="translate(9.5 36.5)">3</text><text transform="translate(5.25 47.5)">4</text><text transform="translate(10.25 63.33)">5</text><text transform="translate(22.5 54.5)">6</text><text transform="translate(34.5 63.68)">7</text><text transform="translate(23.5 70.5)">8</text><text transform="translate(70.25 10.03)">9</text><text transform="translate(47.25 30.95)">10</text><text transform="translate(63.5 30.5)">11</text><text transform="translate(76.25 28.8)">12</text><text transform="translate(57.5 39.5)">13</text><text transform="translate(49.5 52.5)">14</text><text transform="translate(53.5 65.5)">15</text><text transform="translate(74.5 47.5)">16</text></g></svg>