<svg xmlns="http://www.w3.org/2000/svg" width="109" height="109" viewBox="0 0 109 109" class="kan-g"><g fill="none" stroke="currentColor" stroke-width="3" stroke-linecap="round" stroke-linejoin="round"><path d="M18.88 18.48c1.52.54 4.31.7 5.82.54 16.8-1.77 48.55-4.02 63.11-4.73 2.53-.12 4.05.26 5.31.53M55.02 18.5c.02.29.03.75-.03 1.16-.39 2.44-3.15 8.31-6.24 11.59M33.75 32.52c.68 1.09 1.68 1.9 1.68 3.35 0 1.45-.46 39.94-.46 40.67 0 .73.23.73.46 2.18M36.57 34.47c3.87-.18 35.89-4.51 39.42-4.72 2.94-.18 3.51 1.26 3.51 3.36 0 1.74-.87 40.79-.87 41.88"/><path d="M36.51 48.31c6.81-.82 13.62-1.62 20.44-2.38 2.16-.24 4.33-.48 6.43-.7M36.32 62.17c6.76-.7 13.5-1.51 20.26-2.24 2-.22 4.01-.43 5.99-.63M35.82 76.58c8.93-1.08 30.49-4.13 41.76-4.68M43.5 82.25c.54 1.37.42 2.1-.5 3.25C40 89.25 32 95 23.75 99M69.5 83.08C75.92 86.31 84 93.67 85.75 96.5"/></g><g font-size="8" fill="gray"><text transform="translate(12.5 18.5)">1</text><text transform="translate(60.5 25.63)">2</text><text transform="translate(27.5 40.5)">3</text><text transform="translate(36.75 30.5)">4</text><text transform="translate(39.75 44.83)">5</text><text transform="translate(39.75 58.25)">6</text><text transform="translate(39.75 73.18)">7</text><text transform="translate(30.75 88.63)">8</text><text transform="translate(60.75 88.5)">9</text></g></svg>