<svg xmlns="http://www.w3.org/2000/svg" width="109" height="109" viewBox="0 0 109 109" class="kan-g"><g fill="none" stroke="currentColor" stroke-width="3" stroke-linecap="round" stroke-linejoin="round"><path d="M24.83 20.94c.25.82-.02 1.78-.35 2.77-2.4 7.15-6.93 17.77-14.21 24.69M35.54 20c3.7 2.64 10.63 14.09 12.89 22.15M30.18 50.68c.35.58.28 1.96-.01 2.65-3.87 9.42-7.24 18.66-12.74 28.05-1.34 2.29-.86 4.55 1.29 3.69 5.99-2.41 17.78-7.07 25.9-9.44"/><path d="M39.47 67.07C43.15 70.41 48.98 80.81 49.9 86M54.6 17.9c1.05.5 2.98.65 4.02.5 11.61-1.63 22.55-2.21 32.61-2.87 1.75-.11 2.8.24 3.67.49M73.57 21.43c.01.27.02.69-.02 1.07-.27 2.26-2.18 7.67-4.31 10.7M58.87 32.11c.47 1.1 1.16 1.94 1.16 3.36s-.32 38.98-.32 39.69.16.72.32 2.15M60.83 34.14c2.68.01 24.8-2.16 27.24-2.2 2.03-.04 2.43 1.4 2.43 3.45 0 1.7-.6 39.3-.6 40.36"/><path d="M60.78 47.16c4.7-.46 9.41-.77 14.12-1.08 1.49-.1 2.99-.19 4.44-.28M60.65 60.68c4.66-.35 9.33-.68 14-.96 1.38-.08 2.77-.16 4.14-.23M60.31 75.23c6.17-.62 21.07-1.56 28.86-1.54M66.55 81.29c.47 1.21.36 1.84-.43 2.85-2.59 3.3-9.52 8.35-16.66 11.86M84.58 81.55c4.43 2.98 10.02 9.78 11.23 12.39"/></g><g font-size="8" fill="gray"><text transform="translate(16.25 20.25)">1</text><text transform="translate(34.25 17.25)">2</text><text transform="translate(22.25 51.25)">3</text><text transform="translate(37.5 64.25)">4</text><text transform="translate(52.25 15.25)">5</text><text transform="translate(65.5 26.25)">6</text><text transform="translate(51.5 44.93)">7</text><text transform="translate(60.25 30.85)">8</text><text transform="translate(64.25 43.25)">9</text><text transform="translate(64.25 57.25)">10</text><text transform="translate(64.25 72.25)">11</text><text transform="translate(54.25 85.25)">12</text><text transform="translate(74.25 85.25)">13</text></g></svg>