<svg xmlns="http://www.w3.org/2000/svg" width="109" height="109" viewBox="0 0 109 109" class="kan-g"><g fill="none" stroke="currentColor" stroke-width="3" stroke-linecap="round" stroke-linejoin="round"><path d="M13.75 28.89c.94.38 2.66.38 3.6.38C24 29.25 38 27 45.96 25.89c1.55-.22 2.5.18 3.29.37M20.07 40.24c0 .57.04 1.05-.07 1.71-1.1 6.18-4.4 13.86-9.25 20.68M18.46 49.71c2.16 1.58 4.91 5.79 5.96 9.79M45.3 36.74c0 .51.07.95-.07 1.52-1.25 4.98-4.82 13.84-9.06 18.86"/><path d="M42.36 45.71c3.96 3.25 7.01 7.34 9.38 12.29M30.62 11.25c.34 1.17.88 2.52.88 5.04 0 46.84-1.12 64.57-21.99 80.21M32.25 64.75c4.62 1.96 14 12.7 17.07 19.13M54.95 18.82c1.15.53 3.26.61 4.41.53 9.5-.62 27.63-3.81 35.02-4.06 1.92-.07 3.07.26 4.02.52M73.73 20.93c.01.24.02.61-.02.96-.26 2.02-2.85 6.45-4.89 9.16M59.91 33.2c.5 1.03 1.23 1.8 1.23 3.17 0 1.38-.17 38.14 0 39.51M61.98 34.58c2.83-.17 25.18-3.22 27.77-3.43 2.15-.17 3.85 1.91 3.67 3.18-.23 1.62-1 38.05-1 39.08"/><path d="M61.93 47.1c4.74 0 9.56-.73 14.27-1.21 1.56-.16 3.14-.32 4.67-.47M61.66 59.21c5.18-.24 10.35-.72 15.51-1.22 1.27-.12 2.52-.25 3.75-.37M61.9 73.4c6.54-1.02 21.5-1.89 29.75-2.41M67.66 79.98c.39 1.44.28 2.33-.5 3.37-2.36 3.16-10.23 10.42-14.95 14.15M83.07 78.37c6.31 4.67 13.76 13.13 15.48 17.21"/></g><g font-size="8" fill="gray"><text transform="translate(7.5 28.5)">1</text><text transform="translate(13.5 40.25)">2</text><text transform="translate(21.5 50.25)">3</text><text transform="translate(38 38.25)">4</text><text transform="translate(47 48.5)">5</text><text transform="translate(22.5 10.5)">6</text><text transform="translate(36.5 65.5)">7</text><text transform="translate(53.5 15.5)">8</text><text transform="translate(64.5 25.85)">9</text><text transform="translate(51.5 38.5)">10</text><text transform="translate(60.5 31.85)">11</text><text transform="translate(64.2 43.85)">12</text><text transform="translate(64.01 55.85)">13</text><text transform="translate(64.06 69.5)">14</text><text transform="translate(56.5 83.5)">15</text><text transform="translate(89.76 85.8)">16</text></g></svg>