<svg xmlns="http://www.w3.org/2000/svg" width="109" height="109" viewBox="0 0 109 109" class="kan-g"><g fill="none" stroke="currentColor" stroke-width="3" stroke-linecap="round" stroke-linejoin="round"><path d="M18.48 18.25c.65.26 1.83.29 2.48.26 7.94-.27 17.37-2.57 29.86-3.03 1.08-.04 1.73.12 2.26.26M19.94 28.56c.82.19 4.05 1.02 5.66.89 8.9-.7 20.97-3.03 26.2-3.37 1.41-.09 2.26.89 1.98 2.36-.48 2.57-1.12 3.8-2.22 7.87M22.37 40c5.79-.55 22.95-2.54 30.53-3.35M22.85 29.74c.03 1.23.09 3.18-.07 4.95C20.75 57 18.25 71 11.63 82.08M33.77 44.36c.14 1.1-.04 2.55-.48 3.5-2.8 6.03-6.36 11.13-12.79 18.47M28.64 58.96c.6 5.09.21 31.82.48 36.29M47.13 43.76c.04.6-.01 1.4-.15 1.91-.85 3.3-1.93 5.85-3.88 9.86M28.38 58.3c5.71-.73 24.5-2.79 26.95-3.18M42.96 57.29c.28.28.5.67.5 1.17 0 5 .03 22.92-.14 30.8"/><path d="M29.4 67.79c5.39-.6 23.27-2.35 25.59-2.68M29.25 78.4c5.68-.51 23.5-2.48 25.93-2.76M29.49 90.94c5.71-.73 25.54-2.59 27.99-2.99M59.63 17.35c.83.4 2.33.53 3.15.42 9.03-1.18 23.12-2.14 30.97-2.57 1.36-.08 2.19.21 2.87.41M78.23 19.1c.01.3.03.78-.03 1.2-.35 2.52-2.83 8.46-5.61 11.7M63.19 32.5c.44 1.17 1.09 2.07 1.09 3.57 0 1.51-.65 42.97-.5 44.5M65.03 34.68c2.51.02 23.29-2.73 25.58-2.76 1.91-.03 2.28 1.5 2.28 3.68 0 1.8-.56 42.32-.56 43.45"/><path d="M64.98 48.55c4.42-.48 8.84-.94 13.26-1.36 1.4-.13 2.81-.26 4.17-.38M64.86 63.43c4.39-.35 8.76-.83 13.15-1.22 1.3-.12 2.6-.23 3.89-.33M64.54 78.37c7.07-.37 19.79-1.63 27.1-1.59M69.08 83.68c.43 1.32.33 2-.4 3.04-2.39 3.39-8.77 8.42-15.34 11.79M84.04 83.96c5.12 3.33 11.58 10.59 12.97 13.32"/></g><g font-size="8" fill="gray"><text transform="translate(15.5 15.5)">1</text><text transform="translate(24.75 27.05)">2</text><text transform="translate(27.75 37.48)">3</text><text transform="translate(15.5 36.5)">4</text><text transform="translate(27.5 47.5)">5</text><text transform="translate(22.5 73.55)">6</text><text transform="translate(39.5 47.5)">7</text><text transform="translate(36.75 54.5)">8</text><text transform="translate(46.5 62.5)">9</text><text transform="translate(32.02 65.9)">10</text><text transform="translate(32.25 75.5)">11</text><text transform="translate(32.09 87.5)">12</text><text transform="translate(59.25 13.63)">13</text><text transform="translate(67.5 24.5)">14</text><text transform="translate(55.5 40.5)">15</text><text transform="translate(63.5 31.5)">16</text><text transform="translate(68.54 44.98)">17</text><text transform="translate(68.51 59.91)">18</text><text transform="translate(68.5 74.83)">19</text><text transform="translate(58.5 87.5)">20</text><text transform="translate(78.5 90.5)">21</text></g></svg>