<svg xmlns="http://www.w3.org/2000/svg" width="109" height="109" class="kan-g"><g class="kgPaths" fill="none" stroke="currentColor" stroke-width="3" stroke-linecap="round" stroke-linejoin="round"><path d="M54.54 8.38c.13 1.4-.48 3.12-1.15 4.31-4.89 8.69-12.14 17.19-23.89 26.56M57.88 14.12c5.25 2.62 11.41 7.58 14.38 13.12M53.15 28.17c1.03 1.03.98 2.08.98 3.47 0 1-.01 5.9-.01 8.36M39.18 41.58c1.69.67 4.22.9 5.86.63 4.93-.81 14.5-2.26 18.09-2.78 3.57-.52 4.76.57 4.24 4.07-.81 5.44-1.82 12.91-2.52 17.77-.31 2.14-.56 3.78-.7 4.52"/><path d="M42.65 54.22c7.42-1.1 13.97-1.93 22.75-3.13M42.79 66.37c5.58-.74 13.46-1.87 20.66-2.68"/><path d="M40.27 42.56c.96.96 1.23 2.19 1.23 3.7 0 1-.01 35.61-.01 42.61 0 3.5 1.03 4.17 4 2.25 6-3.88 12.12-7.88 19.11-12.53"/><path d="M60.56 73.06c3.86 2.79 9.93 10.24 12.14 16.14"/></g><g class="kgNumbers" font-size="8" fill="gray"><text transform="translate(44.62 10.25)">1</text><text transform="translate(61.88 14.05)">2</text><text transform="translate(45.38 32.1)">3</text><text transform="translate(42.88 39.53)">4</text><text transform="translate(46.38 51.08)">5</text><text transform="translate(45.75 62.5)">6</text><text transform="translate(34.12 49.05)">7</text><text transform="translate(54.88 77.48)">8</text></g></svg>