<svg xmlns="http://www.w3.org/2000/svg" width="109" height="109" class="kan-g"><g fill="none" stroke="currentColor" stroke-width="3" stroke-linecap="round" stroke-linejoin="round"><path d="M34.78 12.17c.07.71.26 1.89-.13 2.85-3.24 7.9-12.36 20.94-22.47 27.74M35.87 16.53c6.04 4.05 12.19 10.33 15.71 16.06M31.95 30.24c2.69 1.11 4.31 2.78 4.84 5.01M23.05 43.76c1.56-.11 18.77-3.69 20.19-3.9 2.41-.36 3.13 1.33 2.91 2.98-1.03 7.69-2.65 25.44-2.65 26.1"/><path d="M23.33 55.33c3.12 0 6.34-.62 9.43-1 1.07-.13 2.16-.27 3.22-.4M23.23 69.02c4.31-.48 12.53-2.05 19.09-2.85"/><path d="M21.13 41.78c.89.52 1.42 2.34 1.6 3.38.18 1.04.37 45.48.18 48.06-.18 2.34-1.6 5.74.53 3.92 2.14-1.82 14.34-11.62 18.79-14.45M40.07 75.69c2.42 3.07 6.21 11.25 7.59 17.73M72.88 13.25c.84 1.75.42 3.46-.5 5.21C66 30.5 61.62 41 55.74 50.57c-2.32 3.77-2.23 4.27 1.01 3.48C67.25 51.5 78 49 92.36 45.5"/><path d="M83.49 30.75C88.17 34.68 95.58 46.89 96.75 53M57.09 66.76c.39.5.8.91.97 1.54 1.36 4.94 4 18.58 4.93 27.45M58.94 68.83c10.76-2.28 24.86-3.42 31.45-4.41 2.25-.34 3.62 2.26 3.28 3.74-1.64 7.06-2.98 14-4.49 22.67M64.05 93.74c8.66-.68 15.45-1.49 27.93-2.86"/></g><g font-size="8" fill="gray"><text transform="translate(26.5 12.5)">1</text><text transform="translate(41.5 17.5)">2</text><text transform="translate(32.5 27.5)">3</text><text transform="translate(25.5 39.5)">4</text><text transform="translate(27.5 51.5)">5</text><text transform="translate(27.5 65.5)">6</text><text transform="translate(15.5 50.5)">7</text><text transform="translate(44.5 78.5)">8</text><text transform="translate(64.5 11.03)">9</text><text transform="translate(81.5 27.5)">10</text><text transform="translate(48.5 74.5)">11</text><text transform="translate(60.5 64.5)">12</text><text transform="translate(65.5 89.5)">13</text></g></svg>