<svg xmlns="http://www.w3.org/2000/svg" width="109" height="109" class="kan-g"><g class="kgPaths" fill="none" stroke="currentColor" stroke-width="3" stroke-linecap="round" stroke-linejoin="round"><path d="M31.25 11.14c.06.67.29 1.8-.12 2.71-2.68 5.95-10.39 17.6-21.33 26.37M34.02 17.58c4.69 1.79 12.12 7.35 13.29 10.13M23.75 31.66c.36.15 1.02.19 1.39.15 2.3-.25 10.37-2.17 12.6-2 .6.05.96.07 1.27.14M19.27 40.44c.39.78.78 1.68.78 2.72 0 1.04-.13 55.79 0 56.84M20.19 42.07c2.2-.13 18.91-2.17 20.92-2.33 1.67-.13 2.74 1.45 2.61 2.22-.26 1.57-2.97 18.54-3.52 22.01"/><path d="M20.58 52.23c2.97 0 18.36-2.31 21.72-2.31M20.44 64.06c6.06-.56 12.31-1.56 19.85-2.04M20.39 77.06c3.73-.25 15.96-2.67 19.57-2.49.97.04 1.56.07 2.05.14M20.39 90.81c4.73-.25 16.44-2.17 21.02-1.99 1.23.04 1.98.07 2.6.14M72.77 14.64c.04.53.08 1.37-.07 2.14-.88 4.5-5.9 11.15-13.8 20.44M52.25 38.25c.47.75.87 2.03.94 3.39.29 5.61-.14 41.86.06 53.61M53.54 40.35c5.99-.6 36.59-4.92 37.71-5.18 1.8-.42 4.02.05 3.97 3.83-.14 9.76-.8 44.28-2.75 53.03-1.22 5.48-5.47 1.23-7.09-1.52M62.76 55.28c.31.44.72 1.93.76 2.52.45 7.11 2.37 12.17 2.72 20.96"/><path d="M63.88 56.28C70 55 75.41 54.25 80.03 53.24c1.17-.26 2.88.97 2.71 2.01-.7 4.32-1.88 12.25-2.54 18.13M66.72 75.76c3.77-.55 9.59-1 14.77-1.84"/></g><g class="kgNumbers" font-size="8" fill="gray"><text transform="translate(23.5 10.5)">1</text><text transform="translate(37.5 16.5)">2</text><text transform="translate(28.5 28.5)">3</text><text transform="translate(12.5 47.5)">4</text><text transform="translate(22.5 39.5)">5</text><text transform="translate(24.2 49.43)">6</text><text transform="translate(24.25 60.5)">7</text><text transform="translate(24.21 73.5)">8</text><text transform="translate(24.21 87.5)">9</text><text transform="translate(61.25 13.95)">10</text><text transform="translate(45.5 48.58)">11</text><text transform="translate(52.5 36.5)">12</text><text transform="translate(55.5 62.5)">13</text><text transform="translate(64.5 52.5)">14</text><text transform="translate(67.5 71.5)">15</text></g></svg>