<svg xmlns="http://www.w3.org/2000/svg" width="109" height="109" viewBox="0 0 109 109" class="kan-g"><g fill="none" stroke="currentColor" stroke-width="3" stroke-linecap="round" stroke-linejoin="round"><path d="M16.94 16.31c.56.69.99 2.88.99 3.95-.05 9.81-.31 39.39-1.07 42.26M19.62 17.44c8.57-.56 22.35-2.47 24.95-2.84 1.03-.15 2.77-.26 3.29-.03M18.4 32.61c6.86-.62 20.14-3.2 23.09-3.61 1.03-.15 2.77-.26 3.29-.03M18.01 45.94c6.86-.62 20.69-3.73 23.63-4.14 1.03-.15 2.77-.26 3.29-.03M17.66 61.88c6.77-1.5 22.15-3.78 25.87-4.42 4.75-.81 4.59 2.98 4.33 6.85-.73 10.98-2.65 22.17-6.16 29.28-3.01 6.1-5.83.43-6.81-.91"/><path d="M31.71 17.5c.28.4 1.05.93 1.04 1.58-.02 6.55-.07 29.67-.28 39.97M12.37 71.58c.31 6.8-.63 12.78-.95 14.14M19.87 71.49c1.19 2.23 2.19 5.04 2.47 9.02M28.12 68.98c.61 1.09 2.81 4.69 3.08 8.25M35.63 66.83c1.37 2.13 3.62 4.34 4.11 7.16M63.63 13c.16 1.72-.04 3.97-.56 5.44-3.25 9.38-7.37 17.32-14.82 28.74M56.69 33.65c.63.88 1.11 2.8 1.15 4.16.37 12.12-.51 55.13-.2 61.44M82.69 13c.07.92-.02 2.12-.24 2.9-1.44 5-3.26 8.87-6.56 14.96M57.66 34.41c10.09-.91 36.09-2.96 39.22-3.59M75.81 34.33c.55.7.99 1.65.99 2.85 0 12.21.06 34.88-.27 54.12"/><path d="M58.14 51.82c6.89-.94 32-2.69 34.95-3.21M57.8 70.29c7.27-.8 33.15-2.91 36.27-3.35M57.8 93.18c7.3-1.14 36.06-2.32 39.2-2.95"/></g><g font-size="8" fill="gray"><text transform="translate(11.5 25.5)">1</text><text transform="translate(17.5 14.5)">2</text><text transform="translate(21.5 28.5)">3</text><text transform="translate(21.68 41.5)">4</text><text transform="translate(21.54 57.65)">5</text><text transform="translate(36.5 24.5)">6</text><text transform="translate(6.5 74.35)">7</text><text transform="translate(15.5 78.5)">8</text><text transform="translate(23.5 75.5)">9</text><text transform="translate(29.5 71.5)">10</text><text transform="translate(53.5 12.5)">11</text><text transform="translate(47.5 53.5)">12</text><text transform="translate(70.5 12.5)">13</text><text transform="translate(63.5 30.65)">14</text><text transform="translate(79.5 41.58)">15</text><text transform="translate(62.25 47.5)">16</text><text transform="translate(62.25 66.5)">17</text><text transform="translate(62.25 89.5)">18</text></g></svg>