<svg xmlns="http://www.w3.org/2000/svg" width="109" height="109" class="kan-g"><g class="kgPaths" fill="none" stroke="currentColor" stroke-width="3" stroke-linecap="round" stroke-linejoin="round"><path d="M48 13c.14 1.21-.07 2.22-.59 3.32C45.08 21.29 37 30.31 26.25 36M49 19.13c1.25.37 2.35.4 3.8.24 4.73-.53 10.95-1.37 14.14-2.13 2.5-.6 3.69 1.64 2.06 3.51-4.94 5.7-9.5 11.12-14.25 17.25M27.49 40.98c1.2 1.2 1.88 2.4 2.11 3.82.85 5.2 2.43 14.61 3.41 22.71.17 1.36.32 2.69.47 3.96M30.27 42.78C45.25 40.62 67 37.75 78.41 37.3c3.85-.15 5.83 1.46 5.59 3.95-.5 5.12-1.85 15.04-3.39 23.73-.2 1.15-.41 2.25-.61 3.27"/><path d="M53.75 41.5c1 .75 1.12 1.88 1.16 2.98.22 5.91.09 20.97.09 21.77"/><path d="M32.47 55.61C43.5 54.38 69.88 52 81.21 51.64M34.2 69.54c12.92-1.29 30.42-3.04 45.8-3.79M26.25 81c0 5.25-5.75 13-7.25 14.5M42.52 79.08c3.15 2.76 6.15 10.84 6.94 15.13M62.37 77.83c3.15 2.76 8.15 11.34 8.93 15.63M84.27 78.58c4.16 2.63 10.75 10.8 11.79 14.88"/></g><g class="kgNumbers" font-size="8" fill="gray"><text transform="translate(39.5 13.5)">1</text><text transform="translate(53.5 15.13)">2</text><text transform="translate(21.75 49.5)">3</text><text transform="translate(34.5 39.13)">4</text><text transform="translate(47.5 49.5)">5</text><text transform="translate(34 52.63)">6</text><text transform="translate(35.5 66.13)">7</text><text transform="translate(20.25 79.5)">8</text><text transform="translate(35.5 79.5)">9</text><text transform="translate(52.5 79.5)">10</text><text transform="translate(74.5 79.5)">11</text></g></svg>