<svg xmlns="http://www.w3.org/2000/svg" width="109" height="109" class="kan-g"><g class="kgPaths" fill="none" stroke="#000" stroke-width="3" stroke-linecap="round" stroke-linejoin="round"><path d="M31.11 12c.03.34.1.97-.05 1.35-1.88 4.74-4.66 9.08-9.56 12.9M14.33 28.12c.23.54.24.91.37 1.57 1.04 5.5 2.33 15.74 2.95 25.88M15.43 29.45c8.3-.56 22.57-3.49 28.77-4.03 2.28-.2 3.21 1.58 2.96 3.87-.57 5.38-1.66 16.71-3.02 24.34"/><path d="M29.2 28.9c.69.69 1.25 1.64 1.26 2.75.03 5.51.12 16.88.12 20"/><path d="M16.91 41.07c2.7-.27 19.34-2.57 28.73-3.37M18.07 54.14c10.18-1.39 15.93-1.89 25.64-2.88M23.62 58.75c.17.67.47 1.96.25 3.05C22 71 19 83.25 11 92.5M33.49 54.87c.74 1.19 1.33 2.59 1.38 4.43.2 8.19-.42 18.64-.42 24.2 0 11 1.56 13.03 31.97 13.03 27.34 0 28.84-1.53 28.84-10.62"/><path d="M45.44 60.72c.21.35.06 1.93-.07 2.38-1.55 5.71-3.12 10.39-6.06 16.54-.67 1.41-.87 1.7.42 1.27 4.53-1.51 6.66-2.82 11.05-4.41"/><path d="M48.85 71.54c1.01 1.37 3.24 6.8 3.49 8.93M71.56 11.5c.56.27 1.48 1.33 1.48 1.87 0 2-.18 6.23-.07 7.92M55.17 23.21c1.22.22 2.31.46 3.71.3 8.38-.91 21.78-2.99 31.55-3.43 1.44-.06 2.17.03 3.24.39M79.27 25.86c.24.36.49.65.12 1.29-3.27 5.72-8.13 10.5-15.16 13.5"/><path d="M65.53 27.3c5.12 1.88 12.5 7.99 15.17 12.47M58.65 28.83c.32.17.98 1.24 1.05 1.57.46 2.41-.41 14.38-.44 15.16-.03.78.69 1.21 1.31 1.12 9.27-1.4 23.28-2.66 26.56-2.83M87.91 25.63c.32.17.98 1.24 1.05 1.57.06.33-.62 12.02-.9 18.52M56.15 54.52c.57.76.76 1.96.76 3.35 0 7.88-.17 26.35-.17 28.63M57.08 56.98c5.07-.64 29.81-4.09 30.83-4.09 1.47 0 2.4.48 2.4 1.91 0 3.02.19 19.96.2 25.31.01 7.44-4.64 3.14-6 1.63"/><path d="M72.72 47.79c.22.42.28 2.07.07 2.59-2.083 7.5-3.348 11.514-5.038 16.954M64.803 68.294c3.39-1.12 9.84-2.13 14.56-4.01M77 59.08c2.14 2.11 5.53 8.66 6.06 11.94"/></g><g class="kgNumbers" font-size="8" fill="gray"><text transform="translate(23.5 11.38)">1</text><text transform="translate(8 35.5)">2</text><text transform="translate(17.5 26.48)">3</text><text transform="translate(33 34.65)">4</text><text transform="translate(19.75 37.5)">5</text><text transform="translate(20.5 50.5)">6</text><text transform="translate(16.5 64.5)">7</text><text transform="translate(27.75 68.5)">8</text><text transform="translate(38.5 61.5)">9</text><text transform="translate(47.5 68.5)">10</text><text transform="translate(60.5 10.5)">11</text><text transform="translate(52.5 20.5)">12</text><text transform="translate(70.5 28.5)">13</text><text transform="translate(62.5 34.9)">14</text><text transform="translate(49.5 34.5)">15</text><text transform="translate(91.5 29.5)">16</text><text transform="translate(46.5 57.5)">17</text><text transform="translate(59.5 54.5)">18</text><text transform="translate(74.75 52.03)">19</text><text transform="translate(61.12 75.83)">20</text><text transform="translate(80.5 61.5)">21</text></g></svg>