<svg xmlns="http://www.w3.org/2000/svg" width="109" height="109" class="kan-g"><g fill="none" stroke="currentColor" stroke-width="3" stroke-linecap="round" stroke-linejoin="round"><path d="M27.99 14.25c.05.57.1 1.48-.09 2.31-1.11 4.86-7.46 15.53-16.16 22.06M26.39 23.38c1.93 0 13.82-3.44 15.85-3.73 1.74-.25 2.13 2.17 1.41 3.4-3.05 5.19-5.48 10.16-10.45 18.4M16.22 43.5c.23.47.23.8.36 1.39 1.02 4.87 2.61 18.2 3.25 27.29M17.28 45.19c7.92-1.23 22.51-3.35 28.42-4.37 2.17-.38 3.29.96 3.17 2.3-.41 4.92-1.79 17.32-3.53 26.52"/><path d="M31.06 44.32c.9.61 1.58 2.59 1.61 4.17.12 6.95.03 15.79.03 19.24"/><path d="M19.76 57.27c6.13-1.11 12.31-1.97 18.47-2.91.74-.11 1.46-.22 2.15-.32M20.23 69.83c5.71-.52 17.61-2.71 25.49-3.56M15.95 80.82c0 5.5-2.46 13.61-3.1 15.18M23.14 80.33c1.87 2.36 3.64 8.87 4.11 12.54M31.88 78.94c2.05 1.98 5.3 8.14 5.81 11.21M42.05 75.37c2.1 1.81 5.42 7.46 5.95 10.28M68.26 14.5c.04.85.2 2.22-.08 3.41-1.81 7.65-6.65 21.54-14.38 32.59M63.36 36.5c.84.15 2.4.29 3.23.15 11.66-1.91 19.91-3.41 28.09-4.34 1.54-.18 2.57.02 3.78.18M70.16 36.46c.85.48 1.36 2.17 1.53 3.13.17.96 0 51.64-.17 57.66M72.07 53.69C78 53 84.75 51.75 90.61 50.81c1.38-.22 1.89-.31 3.37.18M71.99 72.63c4.36-.51 11.89-1.67 21.86-2.76.89-.1 3.18.1 3.63.2"/></g><g font-size="8" fill="gray"><text transform="translate(20.5 14.5)">1</text><text transform="translate(33.5 18.5)">2</text><text transform="translate(9.5 50.5)">3</text><text transform="translate(20.5 41.5)">4</text><text transform="translate(36.5 50.5)">5</text><text transform="translate(22.25 54.25)">6</text><text transform="translate(23.5 66.5)">7</text><text transform="translate(9.5 81.5)">8</text><text transform="translate(18.5 87.5)">9</text><text transform="translate(25.5 84.5)">10</text><text transform="translate(36.5 80.5)">11</text><text transform="translate(56.25 13.5)">12</text><text transform="translate(69.5 32.5)">13</text><text transform="translate(61.25 47.5)">14</text><text transform="translate(75.5 49.5)">15</text><text transform="translate(76.25 68.5)">16</text></g></svg>