<svg xmlns="http://www.w3.org/2000/svg" width="109" height="109" viewBox="0 0 109 109" class="kan-g"><g class="kgPaths" fill="none" stroke="currentColor" stroke-width="3" stroke-linecap="round" stroke-linejoin="round"><path d="M51.45 9.38c.67.43 2.1 3.24 2.24 4.1.14.87.41 16.74.28 22.15M54.25 23.75c3.68-.25 27.5-3.5 31.4-4 1.99-.26 4.71 0 6.35.25M22.95 35.99c.68 1.3 1.67 2.28 1.69 4.01.13 12.99.13 33.2-.28 58M26.11 38.11c18.64-1.36 53.89-4.36 56.76-4.36 3.13 0 4.23 2.27 4.18 5-.23 14.33-.91 36.72-.46 56.97"/><path d="M69.94 39.34c.63 1.2 1.01 2.79-.19 4.75C58 63.25 47.5 76.25 30.97 88.23"/><path d="M35.73 49.13c15.22 7.92 31.96 22.97 40.01 34.92M48.98 42.63c3.43 2.19 7.2 6.36 9.01 9.67M31.48 59.88c3.43 2.36 7.2 6.86 9.01 10.42M69.98 57.88c4.09 2.93 8.6 8.5 10.76 12.92M52.48 78.13c3.81 2.42 8 7.02 10.01 10.67M25.22 95.28c11.89 0 44.96-1.91 61.38-2.29"/></g><g class="kgNumbers" font-size="8" fill="gray"><text transform="translate(42.75 9.13)">1</text><text transform="translate(58.5 19.5)">2</text><text transform="translate(16.5 43.5)">3</text><text transform="translate(27.5 34.5)">4</text><text transform="translate(62.25 43.63)">5</text><text transform="translate(28.5 49.5)">6</text><text transform="translate(41.5 47.5)">7</text><text transform="translate(28.5 68.5)">8</text><text transform="translate(73.5 57.5)">9</text><text transform="translate(54.5 78.13)">10</text><text transform="translate(37.5 91.63)">11</text></g></svg>