<svg xmlns="http://www.w3.org/2000/svg" width="109" height="109" class="kan-g"><g fill="none" stroke="currentColor" stroke-width="3" stroke-linecap="round" stroke-linejoin="round"><path d="M44.62 35.78c.04.25-.23 1.2-.5 1.47-3.55 3.5-6.86 6.14-14.96 8.92"/><path d="M28.61 44.68c.7.72.99 2.34 1.16 3.82.63 5.42 2.22 15.98 2.86 23.31M32.73 71.77c3.47-.33 11.38-2.13 12.2-2.13h2.64M30.98 56.02c3.47-.33 11.38-2.13 12.2-2.13h2.64M60.73 38.68c.83.16 1.49.49 2.64.49s12.54-1.98 13.86-2.14 2.41.82 2.31 1.81c-.99 9.56-3.72 28.57-3.88 29.23"/><path d="M60.64 52.74c.83.16 1.49.49 2.64.49s13.04-.83 14.36-1M60.14 68.24c.83.16 1.49.49 2.64.49s13.04-.84 14.36-1"/></g><g font-size="8" fill="gray"><text transform="translate(32 33.38)">1</text><text transform="translate(22 53.3)">2</text><text transform="translate(40 65.15)">3</text><text transform="translate(38 51.23)">4</text><text transform="translate(63 34.08)">5</text><text transform="translate(63 49)">6</text><text transform="translate(62 63.93)">7</text></g></svg>