<svg xmlns="http://www.w3.org/2000/svg" version="1.1" xmlns:xlink="http://www.w3.org/1999/xlink" xmlns:svgjs="http://svgjs.com/svgjs" width="32" height="32"><svg xmlns="http://www.w3.org/2000/svg" xmlns:xlink="http://www.w3.org/1999/xlink" width="32" height="32"><defs><clipPath id="SvgjsClipPath1005"><use xlink:href="#a" fill-rule="evenodd" clip-rule="evenodd"></use></clipPath><clipPath id="SvgjsClipPath1004"><use xlink:href="#b" fill-rule="evenodd" clip-rule="evenodd"></use></clipPath><clipPath id="SvgjsClipPath1003"><use xlink:href="#c" fill-rule="evenodd" clip-rule="evenodd"></use></clipPath><path id="SvgjsPath1002" d="M32 0v32H0V0z"></path><path id="SvgjsPath1001" d="M35 0v35H0V0z"></path><path id="SvgjsPath1000" d="M27.563 0v27.563H0V0h27.563"></path></defs><g clip-path="url(#d)"><path fill="none" d="M32 0v32H0V0z"></path><path fill="#F2F0EF" d="M29 0a3 3 0 0 1 3 3v26a3 3 0 0 1-3 3H3a3 3 0 0 1-3-3V3a3 3 0 0 1 3-3z"></path><path fill="none" stroke="#8C8D97" stroke-opacity=".286" d="M16 0v32M0 16h32"></path><g fill="none" clip-path="url(#e)" transform="translate(-2 -1)"><path d="M35 0v35H0V0z"></path><g clip-path="url(#f)" transform="translate(4.08 7.324)"><path d="M27.563 0v27.563H0V0h27.563"></path><path stroke="#29272B" stroke-linecap="round" stroke-linejoin="round" stroke-width="2" d="M21.602 8.193c-1.376-3.29-4.282-4.238-7.89-4.238-3.756 0-8.275 2.997-8.275 9.33 0 6.931 3.88 10.112 8.472 10.112 3.957 0 6.59-1.681 7.832-3.105m-6.425-6.362h5.518c.402 0 .878.438.878.878v5.374"></path></g><path stroke="#29272B" stroke-linecap="round" stroke-linejoin="round" stroke-width="2" d="M16.933 3.05c.324.325.562.723.562 1.208 0 1.134-.029 1.84-.032 2.874m-10.437.575c0 1.082-1.304 4.576-1.805 5.299M7.73 8.56c5.357-.613 13.546-1.695 20.232-1.856 3.516-.083 1.503 1.725.167 2.698"></path></g></g></svg><style>@media (prefers-color-scheme: light) { :root { filter: none; } }
@media (prefers-color-scheme: dark) { :root { filter: invert(100%); } }
</style></svg>