<svg xmlns="http://www.w3.org/2000/svg" xmlns:xlink="http://www.w3.org/1999/xlink" width="480" height="240"><defs><clipPath id="e"><use xlink:href="#a" fill-rule="evenodd" clip-rule="evenodd"/></clipPath><clipPath id="f"><use xlink:href="#b"/></clipPath><clipPath id="g"><use xlink:href="#c" fill-rule="evenodd" clip-rule="evenodd"/></clipPath><clipPath id="h"><use xlink:href="#d" fill-rule="evenodd" clip-rule="evenodd"/></clipPath><path id="a" d="M480 0v240H0V0z"/><path id="b" d="M218 0c6.628 0 12 5.372 12 12v206c0 6.628-5.372 12-12 12H12c-6.628 0-12-5.372-12-12V12C0 5.372 5.372 0 12 0z"/><path id="c" d="M240 0v240H0V0z"/><path id="d" d="M189 0v189H0V0z"/></defs><g clip-path="url(#e)"><path fill="none" d="M480 0v240H0V0z"/><path fill="#F2F0EF" d="M463 5c6.628 0 12 5.372 12 12v206c0 6.628-5.372 12-12 12H257c-6.628 0-12-5.372-12-12V17c0-6.628 5.372-12 12-12z"/><path fill="none" stroke="#8C8D97" stroke-opacity=".286" stroke-width="2" d="M360 5v230M245 120h230"/><g clip-path="url(#f)" transform="translate(245 5)"><use xlink:href="#b" fill="none" stroke="#8C8D97" stroke-width="4"/></g><path fill="#F2F0EF" d="M223 5c6.628 0 12 5.372 12 12v206c0 6.628-5.372 12-12 12H17c-6.628 0-12-5.372-12-12V17c0-6.628 5.372-12 12-12z"/><path fill="none" stroke="#8C8D97" stroke-opacity=".286" stroke-width="2" d="M120 5v230M5 120h230"/><g clip-path="url(#f)" transform="translate(5 5)"><use xlink:href="#b" fill="none" stroke="#8C8D97" stroke-width="4"/></g><g clip-path="url(#g)"><path fill="none" d="M240 0v240H0V0z"/><path fill="none" stroke="#29272B" stroke-linecap="round" stroke-linejoin="round" stroke-width="5" d="M44.037 42.936c7.97 3.236 18.979 11.846 22.568 18.363M33.578 97.144c9.336 3.149 24.088 12.991 26.422 17.879m-26.07 81.378c3.215.947 6.342-.066 7.905-2.73 6.055-10.348 12.11-23.009 17.614-36.22M79.42 51.303c4.404 1.189 11.186 1.166 15.567.594 26.114-3.5 61.893-7.156 88.182-8.741 7.31-.44 12.264.506 15.941 1.1M108.66 29.153c2.818 1.674 4.316 3.897 4.778 6.297 2.73 14.356 3.831 22.789 4.69 27.853m39.038-41.834c1.365 2.466 2.202 5.548 1.387 9.203-2.488 11.428-3.039 14.73-5.769 28.426M92.477 74.223c1.695 1.695 3.39 3.633 3.809 5.593 1.805 8.543 3.347 17.174 4.91 25.871.396 2.224.793 4.447 1.189 6.649m-4.117-34.612c20.917-2.862 59.162-7.42 74.553-9.071 6.341-.683 10.634-.243 8.521 6.847-2.136 7.222-4.03 15.082-7.068 24.528m-69.247 9.138c11.141-.881 42.935-4.338 64.535-6.672 3.149-.33 6.099-.66 8.719-.947m-81.753 29.394c3.06.991 8.675 1.277 11.736.991 13.299-1.211 46.282-4.778 61.518-5.923 5.086-.374 8.169.463 10.723.969M82.217 159.08c3.566.815 10.084.991 13.65.815 17.637-.837 61.013-6.583 90.825-7.684 5.923-.22 9.49.396 12.462.792m-63.522-76.38c1.057 2.093 2.004 5.153 2.004 9.204 0 96.924-16.272 106.281-61.144 126.648m57.819-53.944c17.614 12.66 40.183 33.291 56.674 42.693 5.329 3.038 9.38 4.932 12.969 6.033"/><path fill="#C22525" d="M33.426 43.828h-1.613v-6.433q0-.32.006-.642.007-.321.018-.629.01-.308.03-.588-.143.157-.352.342-.208.184-.44.383l-1.15.916-.806-1.019 2.967-2.324h1.34v9.994M23.91 103.278h-6.767v-1.21l2.59-2.625q.752-.766 1.238-1.323.485-.557.721-1.056.236-.5.236-1.087 0-.725-.417-1.097-.417-.373-1.1-.373-.65 0-1.2.256-.55.257-1.139.729l-.881-1.06q.417-.356.892-.65.475-.293 1.063-.468.587-.174 1.34-.174.95 0 1.64.338.69.339 1.063.94.373.602.373 1.402 0 .806-.322 1.49-.321.683-.916 1.35-.594.666-1.415 1.446l-1.73 1.688v.075h4.731v1.409M23.527 191.06q0 .677-.273 1.176-.273.5-.749.817-.475.318-1.097.455v.047q1.197.15 1.808.752.612.602.612 1.593 0 .868-.417 1.548t-1.278 1.07q-.861.39-2.215.39-.813 0-1.507-.13t-1.316-.417v-1.429q.636.315 1.353.486.718.17 1.36.17 1.252 0 1.785-.468.533-.468.533-1.295 0-.533-.277-.875-.277-.342-.854-.513-.578-.17-1.487-.17h-.882v-1.293h.889q.868 0 1.394-.208.527-.209.762-.578.236-.369.236-.861 0-.643-.417-1.002-.417-.358-1.237-.358-.506 0-.92.116-.413.116-.762.294-.348.177-.663.383l-.772-1.115q.567-.424 1.353-.718.786-.293 1.832-.293 1.538 0 2.372.66.834.659.834 1.766M85.924 46.852H84.57v2.194h-1.586v-2.194H78.44v-1.217l4.566-6.61h1.565v6.494h1.354v1.333m-2.94-1.333v-2.481q0-.308.01-.626.011-.318.025-.612.013-.294.027-.543.014-.25.02-.414h-.054q-.13.274-.287.557-.158.284-.335.55l-2.461 3.569h3.055M95.403 25.184q.963 0 1.698.345t1.145 1.012q.41.666.41 1.63 0 1.053-.444 1.815t-1.306 1.172q-.86.41-2.098.41-.786 0-1.467-.136-.68-.137-1.172-.41v-1.45q.513.287 1.23.469.718.18 1.375.18.697 0 1.196-.204.499-.205.769-.63.27-.423.27-1.072 0-.862-.55-1.33-.55-.468-1.72-.468-.41 0-.871.071-.462.072-.77.154l-.703-.417.376-4.887h5.195v1.415h-3.78l-.219 2.488q.246-.055.588-.106.342-.051.848-.051M138.257 18.366q0-.882.127-1.737.126-.854.434-1.6.307-.744.85-1.312.544-.567 1.371-.892.828-.325 1.99-.325.3 0 .677.028.375.027.622.089v1.333q-.267-.076-.585-.117-.318-.04-.632-.04-1.258 0-1.962.474-.704.476-1.005 1.3-.3.823-.349 1.883h.082q.205-.342.513-.609.308-.266.752-.427.444-.16 1.032-.16.875 0 1.525.365.65.366 1.001 1.056.352.69.352 1.675 0 1.06-.4 1.825-.4.766-1.134 1.176-.735.41-1.747.41-.745 0-1.384-.273-.64-.274-1.118-.82-.479-.547-.745-1.371-.267-.824-.267-1.931m3.487 3.069q.779 0 1.254-.51.475-.509.475-1.561 0-.855-.42-1.354-.42-.499-1.262-.499-.574 0-1.004.246-.431.246-.667.622-.236.376-.236.766 0 .396.116.8.117.403.35.741.231.339.58.544.349.205.814.205M82.137 97.487l3.924-8.586h-5.188v-1.408h6.918v1.1l-3.924 8.894h-1.73M104.733 63.136q.868 0 1.565.27.698.27 1.108.803.41.533.41 1.32 0 .608-.25 1.059-.249.451-.673.79-.424.338-.95.598.588.287 1.083.66.496.372.8.87.304.5.304 1.17 0 .84-.427 1.452t-1.186.944q-.759.331-1.77.331-1.087 0-1.853-.321t-1.162-.92q-.396-.598-.396-1.432 0-.69.273-1.196t.735-.875q.461-.369 1.015-.622-.472-.28-.861-.632-.39-.352-.619-.814-.229-.461-.229-1.07 0-.779.417-1.309.417-.53 1.118-.803.7-.273 1.548-.273m-1.866 7.533q0 .656.465 1.08.464.424 1.387.424.916 0 1.395-.417.478-.417.478-1.1 0-.438-.242-.773-.243-.335-.65-.598-.406-.263-.899-.49l-.218-.088q-.534.226-.916.51-.383.283-.592.638-.208.356-.208.814m1.852-6.296q-.663 0-1.09.325-.427.324-.427.933 0 .43.208.738.209.308.564.53.356.222.786.414.417-.185.756-.407.338-.222.54-.533.201-.311.201-.749 0-.602-.427-.926-.427-.325-1.11-.325M116.374 100.845q0 .889-.127 1.743-.126.855-.437 1.6-.311.745-.855 1.316-.543.57-1.37.892-.828.321-1.996.321-.294 0-.68-.03-.387-.031-.633-.086v-1.34q.26.075.584.12.325.044.646.044 1.265 0 1.973-.472.707-.471 1.005-1.298.297-.828.338-1.88h-.082q-.198.328-.5.598-.3.27-.744.43-.445.161-1.08.161-.862 0-1.5-.362-.64-.362-.992-1.056-.352-.694-.352-1.672 0-1.06.403-1.825.404-.765 1.142-1.18.738-.413 1.736-.413.752 0 1.391.27.64.27 1.118.82.478.551.745 1.375.267.823.267 1.924m-3.5-3.062q-.76 0-1.238.509-.478.51-.478 1.562 0 .854.41 1.353.41.5 1.258.5.588 0 1.015-.243.427-.243.663-.619.236-.376.236-.766 0-.403-.113-.806-.113-.404-.345-.739-.233-.334-.585-.543-.352-.208-.823-.208M81.316 134.103h-1.613v-6.432q0-.322.006-.643.007-.321.017-.629.01-.307.031-.588-.143.158-.352.342-.208.185-.44.383l-1.15.916-.806-1.019 2.967-2.324h1.34v9.994m10.049-5.004q0 1.21-.188 2.164-.188.954-.592 1.617-.403.663-1.052 1.011-.65.35-1.573.35-1.155 0-1.907-.613-.752-.612-1.114-1.763-.362-1.152-.362-2.766 0-1.613.331-2.765.332-1.152 1.077-1.767.745-.615 1.975-.615 1.163 0 1.918.612.755.612 1.12 1.763.367 1.152.367 2.772m-5.168 0q0 1.265.167 2.113.168.847.557 1.268.39.42 1.04.42.649 0 1.038-.417.39-.417.564-1.264.175-.848.175-2.12 0-1.257-.171-2.105-.171-.848-.56-1.275-.39-.427-1.047-.427-.656 0-1.042.427t-.554 1.275q-.167.848-.167 2.105"/><g fill="#C22525"><path d="M82.967 156.254h-1.613v-6.433q0-.321.007-.642.007-.322.017-.63.01-.307.03-.587-.143.157-.351.342-.209.184-.441.382l-1.149.916-.806-1.018 2.966-2.324h1.34v9.994M82.967 175.32h-1.613v-6.433q0-.322.007-.643t.017-.629q.01-.308.03-.588-.143.157-.351.342-.209.185-.441.383l-1.149.916-.806-1.019 2.966-2.324h1.34v9.994"/></g><path fill="#C22525" d="M120.949 95.285h-1.613v-6.433q0-.32.006-.642.007-.322.018-.63.01-.307.03-.587-.143.157-.352.342-.208.184-.44.383l-1.15.916-.806-1.019 2.967-2.324h1.34v9.994m10.049 0h-6.768v-1.21l2.59-2.625q.753-.766 1.238-1.323.486-.557.721-1.056.236-.499.236-1.087 0-.724-.417-1.097t-1.1-.373q-.65 0-1.2.257-.55.256-1.138.728l-.882-1.06q.417-.355.892-.65.475-.293 1.063-.467.588-.175 1.34-.175.95 0 1.64.339.69.338 1.064.94.372.601.372 1.401 0 .807-.321 1.49-.321.684-.916 1.35-.595.667-1.415 1.446l-1.73 1.689v.075h4.73v1.408M164.986 176.753h-1.614v-6.433q0-.321.007-.642.007-.322.017-.63.01-.307.031-.587-.144.157-.352.342-.209.184-.441.382l-1.148.917-.807-1.019 2.967-2.324h1.34v9.994m9.666-7.711q0 .677-.274 1.176-.273.499-.748.817-.475.317-1.098.454v.048q1.197.15 1.809.752.611.602.611 1.593 0 .868-.417 1.548t-1.278 1.07q-.861.39-2.215.39-.813 0-1.507-.13t-1.316-.417v-1.429q.636.315 1.353.485.718.171 1.36.171 1.252 0 1.785-.468.533-.468.533-1.295 0-.534-.277-.875-.276-.342-.854-.513-.578-.171-1.487-.171h-.882v-1.292h.889q.868 0 1.394-.208.527-.209.763-.578.235-.37.235-.861 0-.643-.417-1.002-.416-.359-1.237-.359-.506 0-.92.116-.413.117-.761.294-.35.178-.664.383l-.772-1.114q.567-.424 1.353-.718.787-.294 1.833-.294 1.538 0 2.372.66.834.66.834 1.767"/></g><g clip-path="url(#g)" transform="translate(240)"><path fill="none" d="M240 0v240H0V0z"/><g clip-path="url(#h)" transform="translate(27.98 50.222)"><path fill="none" d="M189 0v189H0V0z"/><path fill="none" stroke="#29272B" stroke-linecap="round" stroke-linejoin="round" stroke-width="5" d="M148.111 56.18c-9.433-22.559-29.355-29.061-54.098-29.061-25.748 0-56.733 20.547-56.733 63.964 0 47.526 26.598 69.338 58.086 69.338 27.135 0 45.185-11.53 53.698-21.292m-44.039-43.606h37.834c2.757 0 6.016 3 6.016 6.017v36.845"/><path fill="#C22525" d="M153.792 44.598h-1.354v2.195h-1.586v-2.195h-4.546v-1.216l4.567-6.61h1.565v6.493h1.354v1.333m-2.94-1.333v-2.48q0-.309.01-.626.01-.318.024-.612t.028-.544l.02-.413h-.054q-.13.273-.288.557-.157.284-.335.55l-2.46 3.568h3.055M103.035 88.142q.963 0 1.698.345t1.145 1.012q.41.666.41 1.63 0 1.053-.444 1.815t-1.305 1.172q-.862.41-2.1.41-.785 0-1.465-.136-.68-.137-1.173-.41v-1.45q.513.287 1.23.469.718.18 1.375.18.697 0 1.196-.204.499-.205.769-.63.27-.423.27-1.073 0-.86-.55-1.33-.55-.467-1.72-.467-.41 0-.871.071-.461.072-.77.154l-.703-.417.376-4.887h5.195v1.415h-3.78l-.219 2.488q.246-.055.588-.106.342-.051.848-.051"/></g><path fill="none" stroke="#29272B" stroke-linecap="round" stroke-linejoin="round" stroke-width="5" d="M116.102 20.917c2.223 2.224 3.853 4.954 3.853 8.28 0 7.772-.198 12.616-.22 19.705m-71.559 3.941c0 7.42-8.94 31.376-12.374 36.33M52.998 58.7c36.726-4.205 92.872-11.625 138.713-12.726 24.11-.572 10.305 11.824 1.145 18.495"/><path fill="#C22525" d="M103.334 26.544h-1.613V20.11q0-.321.007-.642.007-.322.017-.63.01-.307.03-.587-.143.157-.351.342-.209.184-.441.382l-1.149.916-.806-1.018 2.966-2.324h1.34v9.994M37.121 60.672h-6.767v-1.21l2.59-2.625q.752-.765 1.238-1.323.485-.557.721-1.056t.236-1.087q0-.724-.417-1.097-.417-.372-1.1-.372-.65 0-1.2.256-.55.256-1.139.728l-.881-1.06q.417-.355.892-.649.475-.294 1.063-.468.588-.175 1.34-.175.95 0 1.64.339.69.338 1.063.94.373.601.373 1.401 0 .807-.322 1.49-.32.684-.916 1.35-.594.667-1.415 1.446l-1.73 1.689v.075h4.731v1.408M63.16 42.723q0 .676-.273 1.175-.273.5-.749.817-.475.318-1.097.455v.048q1.197.15 1.808.752.612.601.612 1.593 0 .868-.417 1.548t-1.278 1.07q-.861.39-2.215.39-.813 0-1.507-.13t-1.316-.418v-1.428q.636.314 1.353.485.718.171 1.36.171 1.252 0 1.785-.468.533-.469.533-1.296 0-.533-.277-.875-.277-.341-.854-.512-.578-.171-1.487-.171h-.882v-1.292h.889q.868 0 1.394-.209.527-.208.762-.577.236-.37.236-.862 0-.642-.417-1.001-.417-.36-1.237-.36-.506 0-.92.117-.413.116-.762.294-.348.178-.663.383l-.772-1.114q.567-.424 1.353-.718.787-.294 1.832-.294 1.538 0 2.372.66.834.66.834 1.767"/></g></g></svg>